<svg xmlns="http://www.w3.org/2000/svg" xmlns:xlink="http://www.w3.org/1999/xlink" width="260.64" height="311.928" viewBox="0 0 260.64 311.928">
  <defs>
    <clipPath id="clip-path">
      <path id="Trazado_3156" data-name="Trazado 3156" d="M5575.944,3571.5a130.32,130.32,0,1,1,130.32,130.32,130.316,130.316,0,0,1-130.32-130.32" fill="#9bd7f5"/>
    </clipPath>
    <clipPath id="clip-path-2">
      <path id="Intersección_2" data-name="Intersección 2" d="M5714.424,3535.9c-8.42-6.59-10.31-16.02-7.349-27.651q1.094-4.994,2.19-9.98a47.165,47.165,0,0,1,5.969-14.57c3.25-5.119,8.09-10.05,15.129-11.879,8.571-2.231,16.451.79,22.661,6.81a30.1,30.1,0,0,1,8.1,13.01c1.91,6.619.431,12.82-2.851,18.71-5.689,10.189-16.269,25.19-26.69,29.51a9.335,9.335,0,0,1-3.75.653A23.558,23.558,0,0,1,5714.424,3535.9Z" fill="none"/>
    </clipPath>
    <clipPath id="clip-path-3">
      <path id="Trazado_3273" data-name="Trazado 3273" d="M5575.944,3571.5a130.32,130.32,0,1,1,130.32,130.32,130.316,130.316,0,0,1-130.32-130.32" fill="none"/>
    </clipPath>
  </defs>
  <g id="Grupo_10023" data-name="Grupo 10023" transform="translate(3462 -2506.194)">
    <path id="Trazado_6354" data-name="Trazado 6354" d="M22.035,7.467H16.663v3.2H21.3v2.549H16.663V19H13.714V4.889h8.32Zm3.564-.01a1.579,1.579,0,0,1-1.152-.474,1.555,1.555,0,0,1-.479-1.147A1.536,1.536,0,0,1,24.452,4.7,1.584,1.584,0,0,1,25.6,4.225,1.626,1.626,0,0,1,27.21,5.836,1.626,1.626,0,0,1,25.6,7.457ZM24.163,19V8.961H27V19Zm15.186-5.166-.029.674H31.878a2.6,2.6,0,0,0,.8,1.836,2.561,2.561,0,0,0,1.768.635,2.468,2.468,0,0,0,1.323-.347,2.131,2.131,0,0,0,.845-1.011L39.193,16a4.383,4.383,0,0,1-1.758,2.354,5.226,5.226,0,0,1-2.969.84,5.435,5.435,0,0,1-3.911-1.382A5.042,5.042,0,0,1,29.1,13.98a5.072,5.072,0,0,1,1.455-3.833,5.273,5.273,0,0,1,3.818-1.4,5.04,5.04,0,0,1,3.6,1.279A5.019,5.019,0,0,1,39.349,13.834Zm-4.951-3.1a2.222,2.222,0,0,0-2.441,1.934h4.609a2.114,2.114,0,0,0-.693-1.436A2.2,2.2,0,0,0,34.4,10.738ZM47.386,8.766a4.857,4.857,0,0,1,1.865.361A4.516,4.516,0,0,1,51.83,11.8,6.106,6.106,0,0,1,52.21,14a6.106,6.106,0,0,1-.381,2.2,4.516,4.516,0,0,1-2.578,2.676,4.857,4.857,0,0,1-1.865.361,4.336,4.336,0,0,1-1.9-.405,2.808,2.808,0,0,1-1.265-1.138L44.154,19H41.488V4H44.3v6.182a2.8,2.8,0,0,1,1.255-1.045A4.414,4.414,0,0,1,47.386,8.766ZM46.732,16.9a2.53,2.53,0,0,0,1.909-.791A2.924,2.924,0,0,0,49.4,14a2.937,2.937,0,0,0-.757-2.119,2.53,2.53,0,0,0-1.909-.791,2.5,2.5,0,0,0-1.895.806,2.938,2.938,0,0,0-.762,2.1,2.932,2.932,0,0,0,.757,2.1A2.5,2.5,0,0,0,46.732,16.9Zm10.293-6.348a3.259,3.259,0,0,1,1.318-1.206,4.023,4.023,0,0,1,1.963-.5v2.51a3.8,3.8,0,0,0-2.4.605,2.643,2.643,0,0,0-.742,2.148V19H54.33V8.961h2.7Zm14.316,3.281-.029.674H63.871a2.6,2.6,0,0,0,.8,1.836,2.561,2.561,0,0,0,1.768.635,2.468,2.468,0,0,0,1.323-.347,2.131,2.131,0,0,0,.845-1.011L71.185,16a4.383,4.383,0,0,1-1.758,2.354,5.226,5.226,0,0,1-2.969.84,5.435,5.435,0,0,1-3.911-1.382A5.042,5.042,0,0,1,61.1,13.98a5.072,5.072,0,0,1,1.455-3.833,5.273,5.273,0,0,1,3.818-1.4,5.04,5.04,0,0,1,3.6,1.279A5.019,5.019,0,0,1,71.341,13.834Zm-4.951-3.1a2.222,2.222,0,0,0-2.441,1.934h4.609a2.114,2.114,0,0,0-.693-1.436A2.2,2.2,0,0,0,66.39,10.738ZM90.57,8.766a3.836,3.836,0,0,1,2.588.815A2.918,2.918,0,0,1,94.1,11.92V19H91.292V12.721a1.677,1.677,0,0,0-.449-1.27,1.573,1.573,0,0,0-1.133-.43,1.814,1.814,0,0,0-1.367.547,2.484,2.484,0,0,0-.527,1.768V19H84.974V12.75a1.721,1.721,0,0,0-.449-1.294,1.6,1.6,0,0,0-1.162-.435,1.757,1.757,0,0,0-1.357.576,2.751,2.751,0,0,0-.527,1.885V19h-2.8V8.961h2.8v1.182a3.414,3.414,0,0,1,2.91-1.377,4.293,4.293,0,0,1,1.89.386,2.572,2.572,0,0,1,1.187,1.118A3.55,3.55,0,0,1,90.57,8.766Zm14.5,7.51a9.392,9.392,0,0,0,.244,2.451V19h-2.627l-.225-1.094a3.264,3.264,0,0,1-1.406.967,5.183,5.183,0,0,1-1.816.322,4.776,4.776,0,0,1-.937-.088,3.187,3.187,0,0,1-.845-.3,2.564,2.564,0,0,1-.7-.522,2.291,2.291,0,0,1-.469-.8,3.17,3.17,0,0,1-.176-1.089,3.02,3.02,0,0,1,.186-1.089,2.552,2.552,0,0,1,.488-.815,2.962,2.962,0,0,1,.791-.6,6.053,6.053,0,0,1,1-.43,11.9,11.9,0,0,1,1.191-.312l1.65-.371a1.82,1.82,0,0,0,.747-.317.633.633,0,0,0,.22-.5,1.036,1.036,0,0,0-.493-.967,2.3,2.3,0,0,0-1.2-.293,1.721,1.721,0,0,0-1.963,1.533l-2.49-.449A3.371,3.371,0,0,1,97.7,9.5a5.783,5.783,0,0,1,3.154-.737q4.219,0,4.219,3.623Zm-4.951,1.016a2.262,2.262,0,0,0,1.738-.728,3.066,3.066,0,0,0,.674-2.153l-2.383.674a2.816,2.816,0,0,0-1,.41.842.842,0,0,0-.347.723.935.935,0,0,0,.371.8A1.536,1.536,0,0,0,100.121,17.291Zm14.063-8.33h2.881l-6.191,14.766h-2.852l2.295-5.137-4.131-9.629h3.066l2.393,6.6ZM122.826,19.2a6.313,6.313,0,0,1-2.842-.615,4.6,4.6,0,0,1-1.948-1.807,5.384,5.384,0,0,1-.708-2.8,4.911,4.911,0,0,1,1.523-3.809,6.368,6.368,0,0,1,7.959,0,4.911,4.911,0,0,1,1.523,3.809,4.938,4.938,0,0,1-1.523,3.823A5.654,5.654,0,0,1,122.826,19.2Zm-.029-2.236a2.577,2.577,0,0,0,1.987-.82,3.071,3.071,0,0,0,.757-2.168,3.071,3.071,0,0,0-.757-2.168,2.577,2.577,0,0,0-1.987-.82,2.483,2.483,0,0,0-1.929.825,3.1,3.1,0,0,0-.747,2.163,3.1,3.1,0,0,0,.747,2.163A2.483,2.483,0,0,0,122.8,16.959Zm10.322-6.406a3.259,3.259,0,0,1,1.318-1.206,4.023,4.023,0,0,1,1.963-.5v2.51a3.8,3.8,0,0,0-2.4.605,2.643,2.643,0,0,0-.742,2.148V19h-2.832V8.961h2.7Zm18.359,5.723a9.391,9.391,0,0,0,.244,2.451V19H149.1l-.225-1.094a3.264,3.264,0,0,1-1.406.967,5.183,5.183,0,0,1-1.816.322,4.776,4.776,0,0,1-.937-.088,3.187,3.187,0,0,1-.845-.3,2.563,2.563,0,0,1-.7-.522,2.291,2.291,0,0,1-.469-.8,3.17,3.17,0,0,1-.176-1.089,3.019,3.019,0,0,1,.186-1.089,2.552,2.552,0,0,1,.488-.815,2.962,2.962,0,0,1,.791-.6,6.052,6.052,0,0,1,1-.43,11.9,11.9,0,0,1,1.191-.312l1.65-.371a1.82,1.82,0,0,0,.747-.317.633.633,0,0,0,.22-.5A1.036,1.036,0,0,0,148.3,11a2.3,2.3,0,0,0-1.2-.293,1.721,1.721,0,0,0-1.963,1.533l-2.49-.449A3.371,3.371,0,0,1,144.1,9.5a5.783,5.783,0,0,1,3.154-.737q4.219,0,4.219,3.623Zm-4.951,1.016a2.262,2.262,0,0,0,1.738-.728,3.066,3.066,0,0,0,.674-2.153l-2.383.674a2.816,2.816,0,0,0-1,.41.842.842,0,0,0-.347.723.935.935,0,0,0,.371.8A1.536,1.536,0,0,0,146.527,17.291ZM163.9,19.2a5.063,5.063,0,0,1-3.848-1.289,5.59,5.59,0,0,1-1.211-3.945l2.881-.127a10.2,10.2,0,0,0,.044,1.035,3.578,3.578,0,0,0,.176.8,1.433,1.433,0,0,0,.371.6,1.686,1.686,0,0,0,.635.347,3.137,3.137,0,0,0,.952.127,2.288,2.288,0,0,0,1.665-.566,1.98,1.98,0,0,0,.581-1.484,2,2,0,0,0-.557-1.528,2.1,2.1,0,0,0-1.494-.522h-.547V10.455h.508a1.527,1.527,0,0,0,1.167-.5,1.776,1.776,0,0,0,.464-1.26,1.419,1.419,0,0,0-.508-1.172,2.064,2.064,0,0,0-1.338-.41,2.005,2.005,0,0,0-.762.132,1.421,1.421,0,0,0-.513.337,1.49,1.49,0,0,0-.3.518,2.719,2.719,0,0,0-.146.615,6.145,6.145,0,0,0-.034.684l-2.842-.137a4.517,4.517,0,0,1,1.211-3.394,4.617,4.617,0,0,1,3.359-1.177,4.8,4.8,0,0,1,3.223,1.079,3.379,3.379,0,0,1,1.27,2.681,3.051,3.051,0,0,1-.542,1.816,3.1,3.1,0,0,1-1.235,1.074,3.478,3.478,0,0,1,.9.4,3.683,3.683,0,0,1,.786.674,3.007,3.007,0,0,1,.581,1.025,4.126,4.126,0,0,1,.215,1.367,3.988,3.988,0,0,1-1.4,3.188A5.508,5.508,0,0,1,163.9,19.2Zm7.08-14.307h9.932V7.057L174.535,19h-3.184l6.4-11.611H170.98ZM185.052,19.2a1.617,1.617,0,0,1-1.6-1.6,1.568,1.568,0,0,1,.474-1.143,1.532,1.532,0,0,1,1.128-.479,1.634,1.634,0,0,1,1.621,1.621,1.532,1.532,0,0,1-.479,1.128A1.568,1.568,0,0,1,185.052,19.2Zm8.926-9.346q5.42,0,5.42,4.453a4.757,4.757,0,0,1-1.367,3.569,4.941,4.941,0,0,1-3.6,1.333,5.978,5.978,0,0,1-2.524-.522,4.356,4.356,0,0,1-1.831-1.553,4.158,4.158,0,0,1-.693-2.378,4.39,4.39,0,0,1,.059-.7l2.793-.127a4.127,4.127,0,0,0-.068.625A1.9,1.9,0,0,0,192.8,16.1a2.392,2.392,0,0,0,1.572.522,2.167,2.167,0,0,0,1.641-.6,2.237,2.237,0,0,0,.576-1.616,2.012,2.012,0,0,0-.7-1.65,3.765,3.765,0,0,0-2.363-.576h-3.7l.586-7.295h8.33V7.4h-5.8l-.186,2.451ZM206.849,9.8a3,3,0,0,1-5.117-2.119,2.993,2.993,0,1,1,5.986,0A2.884,2.884,0,0,1,206.849,9.8Zm-3.135-1.1a1.45,1.45,0,0,0,2.031,0,1.475,1.475,0,0,0,0-2.041,1.45,1.45,0,0,0-2.031,0,1.475,1.475,0,0,0,0,2.041ZM34.466,26.889A4.247,4.247,0,0,1,37.718,28.2a4.569,4.569,0,0,1,1.23,3.247,4.456,4.456,0,0,1-1.221,3.228,4.324,4.324,0,0,1-3.262,1.265H31.527V41H28.6V26.889Zm-.488,6.6a2.153,2.153,0,0,0,1.611-.552,2.407,2.407,0,0,0,0-3.037,2.134,2.134,0,0,0-1.606-.562H31.527v4.15Zm11.4,7.705a6.313,6.313,0,0,1-2.842-.615,4.6,4.6,0,0,1-1.948-1.807,5.384,5.384,0,0,1-.708-2.8A4.911,4.911,0,0,1,41.4,32.162a5.652,5.652,0,0,1,3.975-1.4,5.665,5.665,0,0,1,3.984,1.4,4.911,4.911,0,0,1,1.523,3.809,4.938,4.938,0,0,1-1.523,3.823A5.654,5.654,0,0,1,45.374,41.2Zm-.029-2.236a2.577,2.577,0,0,0,1.987-.82,3.484,3.484,0,0,0,0-4.336,2.577,2.577,0,0,0-1.987-.82,2.483,2.483,0,0,0-1.929.825,3.505,3.505,0,0,0,0,4.326A2.483,2.483,0,0,0,45.345,38.959Zm10.322-6.406a3.259,3.259,0,0,1,1.318-1.206,4.023,4.023,0,0,1,1.963-.5v2.51a3.8,3.8,0,0,0-2.4.605,2.643,2.643,0,0,0-.742,2.148V41H52.972V30.961h2.7Zm22.021-1.787a3.836,3.836,0,0,1,2.588.815,2.918,2.918,0,0,1,.947,2.339V41H78.412V34.721a1.677,1.677,0,0,0-.449-1.27,1.573,1.573,0,0,0-1.133-.43,1.814,1.814,0,0,0-1.367.547,2.484,2.484,0,0,0-.527,1.768V41H72.093V34.75a1.721,1.721,0,0,0-.449-1.294,1.6,1.6,0,0,0-1.162-.435,1.757,1.757,0,0,0-1.357.576,2.751,2.751,0,0,0-.527,1.885V41h-2.8V30.961h2.8v1.182a3.414,3.414,0,0,1,2.91-1.377,4.293,4.293,0,0,1,1.89.386,2.572,2.572,0,0,1,1.187,1.118A3.55,3.55,0,0,1,77.689,30.766Zm13.408-3.8L88.88,29.584H87.152L89.71,25.99Zm1.094,11.309a9.392,9.392,0,0,0,.244,2.451V41H89.808l-.225-1.094a3.264,3.264,0,0,1-1.406.967,5.183,5.183,0,0,1-1.816.322,4.776,4.776,0,0,1-.937-.088,3.187,3.187,0,0,1-.845-.3,2.564,2.564,0,0,1-.7-.522,2.291,2.291,0,0,1-.469-.8,3.17,3.17,0,0,1-.176-1.089,3.02,3.02,0,0,1,.186-1.089,2.552,2.552,0,0,1,.488-.815,2.962,2.962,0,0,1,.791-.6,6.053,6.053,0,0,1,1-.43,11.9,11.9,0,0,1,1.191-.312l1.65-.371a1.82,1.82,0,0,0,.747-.317.633.633,0,0,0,.22-.5A1.036,1.036,0,0,0,89.012,33a2.3,2.3,0,0,0-1.2-.293,1.721,1.721,0,0,0-1.963,1.533l-2.49-.449a3.371,3.371,0,0,1,1.455-2.29,5.783,5.783,0,0,1,3.154-.737q4.219,0,4.219,3.623ZM87.24,39.291a2.262,2.262,0,0,0,1.738-.728,3.066,3.066,0,0,0,.674-2.153l-2.383.674a2.816,2.816,0,0,0-1,.41.842.842,0,0,0-.347.723.935.935,0,0,0,.371.8A1.536,1.536,0,0,0,87.24,39.291ZM98.46,41.2a5.61,5.61,0,0,1-2.93-.7A2.972,2.972,0,0,1,94.1,38.4l2.354-.664a1.891,1.891,0,0,0,2.012,1.494A2.078,2.078,0,0,0,99.486,39a.8.8,0,0,0,.4-.776.821.821,0,0,0-.166-.518,1.315,1.315,0,0,0-.513-.371,6.387,6.387,0,0,0-.684-.264q-.337-.107-.894-.259t-.928-.288a6.215,6.215,0,0,1-.884-.376,3.77,3.77,0,0,1-.732-.518,2.086,2.086,0,0,1-.547-.786,2.836,2.836,0,0,1-.19-1.074,2.565,2.565,0,0,1,1.089-2.246,4.865,4.865,0,0,1,2.847-.762,4.988,4.988,0,0,1,2.627.645,2.917,2.917,0,0,1,1.348,2.012l-2.178.488a1.706,1.706,0,0,0-1.787-1.27,1.957,1.957,0,0,0-.986.225.722.722,0,0,0-.391.664.761.761,0,0,0,.059.3.6.6,0,0,0,.205.244,2.991,2.991,0,0,0,.283.186,2.137,2.137,0,0,0,.4.161q.264.083.439.127l.513.132.522.137q.537.146.942.293a5.519,5.519,0,0,1,.864.41,3.1,3.1,0,0,1,.757.591,2.635,2.635,0,0,1,.493.83,3.066,3.066,0,0,1,.2,1.118,3.02,3.02,0,0,1-.337,1.455,2.529,2.529,0,0,1-.923.981,4.492,4.492,0,0,1-1.3.527A6.763,6.763,0,0,1,98.46,41.2ZM116.927,26h2.813V41h-2.666l-.068-1.309a2.867,2.867,0,0,1-1.274,1.138,4.29,4.29,0,0,1-1.88.405,4.882,4.882,0,0,1-1.875-.361A4.516,4.516,0,0,1,109.4,38.2a6.106,6.106,0,0,1-.381-2.2,5.707,5.707,0,0,1,.664-2.8,4.55,4.55,0,0,1,1.753-1.821,4.827,4.827,0,0,1,2.417-.615,4.4,4.4,0,0,1,1.821.366,2.843,2.843,0,0,1,1.255,1.04ZM114.5,38.9a2.5,2.5,0,0,0,1.9-.8,3.289,3.289,0,0,0,0-4.2,2.5,2.5,0,0,0-1.895-.806,2.53,2.53,0,0,0-1.909.791,3.332,3.332,0,0,0,0,4.229A2.53,2.53,0,0,0,114.5,38.9Zm17.6-3.066-.029.674h-7.441a2.6,2.6,0,0,0,.8,1.836,2.561,2.561,0,0,0,1.768.635,2.468,2.468,0,0,0,1.323-.347,2.131,2.131,0,0,0,.845-1.011l2.578.381a4.383,4.383,0,0,1-1.758,2.354,5.226,5.226,0,0,1-2.969.84,5.435,5.435,0,0,1-3.911-1.382,5.042,5.042,0,0,1-1.45-3.833,5.072,5.072,0,0,1,1.455-3.833,5.273,5.273,0,0,1,3.818-1.4,4.6,4.6,0,0,1,4.971,5.088Zm-4.951-3.1a2.222,2.222,0,0,0-2.441,1.934h4.609a2.114,2.114,0,0,0-.693-1.436A2.2,2.2,0,0,0,127.142,32.738ZM143.919,41.2a5.063,5.063,0,0,1-3.848-1.289,5.59,5.59,0,0,1-1.211-3.945l2.881-.127a10.2,10.2,0,0,0,.044,1.035,3.578,3.578,0,0,0,.176.8,1.433,1.433,0,0,0,.371.6,1.686,1.686,0,0,0,.635.347,3.137,3.137,0,0,0,.952.127,2.288,2.288,0,0,0,1.665-.566,2.278,2.278,0,0,0,.024-3.013,2.1,2.1,0,0,0-1.494-.522h-.547V32.455h.508a1.527,1.527,0,0,0,1.167-.5,1.776,1.776,0,0,0,.464-1.26,1.419,1.419,0,0,0-.508-1.172,2.064,2.064,0,0,0-1.338-.41,2.005,2.005,0,0,0-.762.132,1.421,1.421,0,0,0-.513.337,1.49,1.49,0,0,0-.3.518,2.719,2.719,0,0,0-.146.615,6.145,6.145,0,0,0-.034.684l-2.842-.137a4.517,4.517,0,0,1,1.211-3.394,4.617,4.617,0,0,1,3.359-1.177,4.8,4.8,0,0,1,3.223,1.079,3.379,3.379,0,0,1,1.27,2.681,3.051,3.051,0,0,1-.542,1.816,3.1,3.1,0,0,1-1.235,1.074,3.477,3.477,0,0,1,.9.4,3.683,3.683,0,0,1,.786.674,3.007,3.007,0,0,1,.581,1.025,4.126,4.126,0,0,1,.215,1.367A3.988,3.988,0,0,1,147.63,40,5.508,5.508,0,0,1,143.919,41.2ZM163.685,26H166.5V41h-2.666l-.068-1.309a2.867,2.867,0,0,1-1.274,1.138,4.29,4.29,0,0,1-1.88.405,4.882,4.882,0,0,1-1.875-.361,4.516,4.516,0,0,1-2.578-2.676,6.106,6.106,0,0,1-.381-2.2,5.708,5.708,0,0,1,.664-2.8,4.55,4.55,0,0,1,1.753-1.821,4.827,4.827,0,0,1,2.417-.615,4.4,4.4,0,0,1,1.821.366,2.843,2.843,0,0,1,1.255,1.04Zm-2.432,12.9a2.5,2.5,0,0,0,1.9-.8,3.289,3.289,0,0,0,0-4.2,2.5,2.5,0,0,0-1.895-.806,2.53,2.53,0,0,0-1.909.791,3.332,3.332,0,0,0,0,4.229A2.53,2.53,0,0,0,161.253,38.9Zm8.711-9.316,2.559-3.594,1.387.977-2.217,2.617ZM169.408,41V30.961h2.832V41Zm13.975-2.725a9.391,9.391,0,0,0,.244,2.451V41H181l-.225-1.094a3.264,3.264,0,0,1-1.406.967,5.183,5.183,0,0,1-1.816.322,4.776,4.776,0,0,1-.937-.088,3.187,3.187,0,0,1-.845-.3,2.563,2.563,0,0,1-.7-.522,2.291,2.291,0,0,1-.469-.8,3.17,3.17,0,0,1-.176-1.089,3.019,3.019,0,0,1,.186-1.089,2.552,2.552,0,0,1,.488-.815,2.962,2.962,0,0,1,.791-.6,6.052,6.052,0,0,1,1-.43,11.9,11.9,0,0,1,1.191-.312l1.65-.371a1.82,1.82,0,0,0,.747-.317.633.633,0,0,0,.22-.5A1.036,1.036,0,0,0,180.2,33a2.3,2.3,0,0,0-1.2-.293,1.721,1.721,0,0,0-1.963,1.533l-2.49-.449a3.371,3.371,0,0,1,1.455-2.29,5.783,5.783,0,0,1,3.154-.737q4.219,0,4.219,3.623Zm-4.951,1.016a2.262,2.262,0,0,0,1.738-.728,3.066,3.066,0,0,0,.674-2.153l-2.383.674a2.816,2.816,0,0,0-1,.41.842.842,0,0,0-.347.723.935.935,0,0,0,.371.8A1.536,1.536,0,0,0,178.431,39.291Zm11.221,1.9a5.61,5.61,0,0,1-2.93-.7,2.972,2.972,0,0,1-1.436-2.09l2.354-.664a1.891,1.891,0,0,0,2.012,1.494A2.078,2.078,0,0,0,190.677,39a.8.8,0,0,0,.4-.776.821.821,0,0,0-.166-.518,1.315,1.315,0,0,0-.513-.371,6.387,6.387,0,0,0-.684-.264q-.337-.107-.894-.259t-.928-.288a6.215,6.215,0,0,1-.884-.376,3.769,3.769,0,0,1-.732-.518,2.086,2.086,0,0,1-.547-.786,2.836,2.836,0,0,1-.19-1.074,2.565,2.565,0,0,1,1.089-2.246,4.865,4.865,0,0,1,2.847-.762,4.988,4.988,0,0,1,2.627.645,2.917,2.917,0,0,1,1.348,2.012l-2.178.488a1.706,1.706,0,0,0-1.787-1.27,1.957,1.957,0,0,0-.986.225.722.722,0,0,0-.391.664.761.761,0,0,0,.059.3.6.6,0,0,0,.205.244,2.992,2.992,0,0,0,.283.186,2.137,2.137,0,0,0,.4.161q.264.083.439.127l.513.132.522.137q.537.146.942.293a5.519,5.519,0,0,1,.864.41,3.1,3.1,0,0,1,.757.591,2.635,2.635,0,0,1,.493.83,3.066,3.066,0,0,1,.2,1.118,3.02,3.02,0,0,1-.337,1.455,2.529,2.529,0,0,1-.923.981,4.492,4.492,0,0,1-1.3.527A6.763,6.763,0,0,1,189.652,41.2Z" transform="translate(-3442 2776.888)" fill="#024e73"/>
    <g id="Grupo_9835" data-name="Grupo 9835" transform="translate(-9037.943 -935)">
      <g id="Grupo_9830" data-name="Grupo 9830">
        <g id="Grupo_9829" data-name="Grupo 9829" clip-path="url(#clip-path)">
          <path id="Trazado_3148" data-name="Trazado 3148" d="M5549.434,3574.854a157.76,157.76,0,1,1,157.76,157.76,157.756,157.756,0,0,1-157.76-157.76Z" fill="#9bd7f5"/>
          <path id="Trazado_3149" data-name="Trazado 3149" d="M5738.664,3585.064s60.5,23.21,74.45,12.85,7.33-19.91-35.71-77.3l-9.77,4.74,20.93,48.56-39.53-15.16-10.37,26.31Z" fill="#fca19f"/>
          <path id="Trazado_3150" data-name="Trazado 3150" d="M5727.124,3549.624s14.22,2.99,20.86,3.81,35.46,17.5,36.58,18.34l-7.72,34.51s-19.17-2.96-20.51-2.24c-4.98,2.7,2.84,70.42,2.84,70.42l5.95,47.99s-33.98,34.69-107.34,1.12l-.56-37.95-1.12-75.53s-34.97-42.79-2.23-56.93c15.83-6.83,53.46-3.86,53.46-3.86l19.79.32Z" fill="#242638"/>
          <path id="Trazado_3151" data-name="Trazado 3151" d="M5647.074,3567.754l-43.17,57.99a9,9,0,0,0-1.52,7.64c1.33,5.17,4.53,13.25,11.78,15.22,10.86,2.96,84.74-12.86,84.74-12.86l-4.98-14.17-51.67-1.1,32.04-26.02-27.22-26.7Z" fill="#fca19f"/>
          <path id="Trazado_3152" data-name="Trazado 3152" d="M5643.824,3560.614l-27.16,38.69,34.61,18.6,29.16-26.83-36.61-30.46Z" fill="#242638"/>
          <path id="Trazado_3153" data-name="Trazado 3153" d="M5641.714,3620.174c-16.49-.89-15.01-.76-21.97.07" fill="none" stroke="#f97070" stroke-linecap="round" stroke-linejoin="round" stroke-width="0.621"/>
          <path id="Trazado_3154" data-name="Trazado 3154" d="M5685.684,3548.714s5.69-2.56,8.25-4.67c5-4.12,11.16-25.26,11.16-25.26l27.91,9.1s-4.41,20.56-2.94,21.74,1.76,11.74-11.16,13.51-33.22-14.42-33.22-14.42Z" fill="#fca19f"/>
          <path id="Trazado_3155" data-name="Trazado 3155" d="M5706.1,3515.524s-1.15,3.59-1.92,6.34c3.56,30.06,20.83,26.49,25.53,25.3.36-5.84,3.19-19.03,3.19-19.03l-26.8-12.61Z" fill="#f97070"/>
        </g>
      </g>
      <g id="Grupo_9832" data-name="Grupo 9832">
        <path id="Trazado_3157" data-name="Trazado 3157" d="M5761.124,3491.644a30.1,30.1,0,0,0-8.1-13.01c-6.21-6.02-14.09-9.04-22.66-6.81-7.04,1.83-11.88,6.76-15.13,11.88a47.188,47.188,0,0,0-5.97,14.57q-1.095,5-2.19,9.98c-2.96,11.63-1.07,21.06,7.35,27.65,5.08,3.99,13.43,5.64,17.16,3.96,10.42-4.32,21-19.32,26.69-29.51,3.28-5.89,4.76-12.09,2.85-18.71Z" fill="#fca19f"/>
      </g>
      <g id="Grupo_9834" data-name="Grupo 9834">
        <g id="Grupo_9833" data-name="Grupo 9833" clip-path="url(#clip-path-3)">
          <path id="Trazado_3160" data-name="Trazado 3160" d="M5711.794,3498.7s9.81-2.64,19-15.12c0,0,6.88,1.96,10.33,4.9s5.63,9.14,13.22,13.88a16.115,16.115,0,0,0,14.6,1.47,27.327,27.327,0,0,1-2.35-1.58,55.426,55.426,0,0,0,9.51-3.67s-2.07-.9-8.42-6.81a17.354,17.354,0,0,0,5.88-1.68,47.314,47.314,0,0,1-12.95-8.84c-6.41-6.12-14.89-14.01-21.51-13.99s-7.26.5-7.26.5,5.15-4.21,7.93-3.93c0,0-6.39-1.23-10.1,3.49a45.418,45.418,0,0,0-4.86-2.05c-1.76-.54,3.27,2.66,3.27,2.66s-17.7,7.44-20.37,32.98l4.08-2.21Z" fill="#242638"/>
          <path id="Trazado_3161" data-name="Trazado 3161" d="M5738.484,3508.474a16.979,16.979,0,0,0-3.96,9.51,3.31,3.31,0,0,1-.24,1.17,1.969,1.969,0,0,1-1.93.89,7.5,7.5,0,0,1-2.14-.67c-.4-.16-.86-.53-1.24-.33a1.321,1.321,0,0,0-.88,1.38" fill="none" stroke="#242638" stroke-linecap="round" stroke-linejoin="round" stroke-width="0.587"/>
          <path id="Trazado_3162" data-name="Trazado 3162" d="M5714.694,3497.514s-1.32-5.32-4.67-5.32-8.11,6.51-1.42,12.38a14.633,14.633,0,0,0,6.09-7.06Z" fill="#fd9997"/>
          <path id="Trazado_3163" data-name="Trazado 3163" d="M5751.484,3519.514s4.51-.45,4.81,2.15-4.64,8.1-10.09,4.54a16.39,16.39,0,0,1,5.28-6.69Z" fill="#fc9e9c"/>
          <path id="Trazado_3164" data-name="Trazado 3164" d="M5731.844,3467.764s7.22-3.5,14.24-1.79,16.72,10.91,21.97,12.22c0,0-5.82,1.86-13.72-.88a88.575,88.575,0,0,0-14.84-3.74l-7.65-5.81Z" fill="#242638"/>
          <path id="Trazado_3165" data-name="Trazado 3165" d="M5758.9,3503.684s-3.69,10.73-6.39,15.84c0,0,10.19-12.32,10.74-17.13s-4.35,1.29-4.35,1.29Z" fill="#242638"/>
          <path id="Trazado_3166" data-name="Trazado 3166" d="M5724.514,3496.654c-.92,1.22,1.88,1.42,3.65,1.36s5.2,1.84,6.63,2,2.54-2.64.29-3.64-8.12-2.96-10.57.28Z" fill="#242638"/>
          <path id="Trazado_3167" data-name="Trazado 3167" d="M5752.244,3512.3c-.57,1.43-2.19-.87-3.05-2.41s-4.28-3.49-5.16-4.63.95-3.54,2.97-2.13,6.74,5.39,5.24,9.17Z" fill="#242638"/>
          <path id="Trazado_3168" data-name="Trazado 3168" d="M5732.824,3490.084a12.4,12.4,0,0,0,.63-3.71c-.24-.13-2.48,1.9-2.82,2.5a1.251,1.251,0,0,0,2.19,1.21Z" fill="#ebf1ff"/>
          <path id="Trazado_3169" data-name="Trazado 3169" d="M5755.324,3508.384a10.411,10.411,0,0,0,.55-3.26,8.771,8.771,0,0,0-2.46,2.19,1.095,1.095,0,0,0,1.91,1.07Z" fill="#ebf1ff"/>
          <path id="Trazado_3170" data-name="Trazado 3170" d="M5712.324,3508.5a8.716,8.716,0,0,0,.45-2.69,7.226,7.226,0,0,0-2.04,1.81.909.909,0,0,0,1.59.88Z" fill="#ebf1ff"/>
          <path id="Trazado_3171" data-name="Trazado 3171" d="M5721.534,3497.524a6.961,6.961,0,0,0,.36-2.1c-.14-.08-1.41,1.07-1.6,1.42a.707.707,0,0,0,1.24.68Z" fill="#ebf1ff"/>
          <path id="Trazado_3172" data-name="Trazado 3172" d="M5728.5,3505.584c1-1.8,1.16-3.62.36-4.06s-2.24.66-3.24,2.46-1.16,3.61-.36,4.05,2.25-.66,3.24-2.45Z" fill="#242638"/>
          <path id="Trazado_3173" data-name="Trazado 3173" d="M5745.924,3514.864c1-1.79,1.2-3.58.46-3.99s-2.15.71-3.14,2.51-1.21,3.58-.46,4,2.15-.72,3.14-2.52Z" fill="#242638"/>
          <path id="Trazado_3174" data-name="Trazado 3174" d="M5716.544,3522.514s16.21.48,14.52,8.15a84.92,84.92,0,0,1-14.52-8.15Z" fill="#242638"/>
          <path id="Trazado_3175" data-name="Trazado 3175" d="M5726.194,3509.964s-3.35.84-4.23-2m17.76,9.11s1.07,3.17,4.19,2.7" fill="none" stroke="#242638" stroke-linecap="round" stroke-linejoin="round" stroke-width="0.558"/>
          <path id="Trazado_3176" data-name="Trazado 3176" d="M5693.924,3621.574s7.57-9.43,9.62-12.04,16.37-10.14,18.42-8.09-14.33,10.14-11.72,12.56,15.16-2.98,17.3-4.93c1.05-.96,5.85-9.64,6.98-9.49,2.14.28.18,9.12-2.14,12.09-4.43,5.67-4.47,4.75-4.47,4.75s3.91-1.68,5.77.18-3.16,4.28-3.16,4.28a4.488,4.488,0,0,1,2.23,2.79c.21,1.34-1.86,4.09-1.86,4.09a4.412,4.412,0,0,1-1.03,5.68c-2.25,1.83-32.27,2.51-32.27,2.51l-3.67-14.38Z" fill="#fca19f"/>
          <path id="Trazado_3177" data-name="Trazado 3177" d="M5740.194,3586.684l-26.14,22.7a2.858,2.858,0,0,0-.63.8l-2.1,4.13a3.283,3.283,0,0,1-.82,1.06l-4.29,3.72a.9.9,0,0,0-.17,1.18.864.864,0,0,0,1.27.15l4.31-3.75a3.789,3.789,0,0,1,1.17-.67l4.38-1.49a2.569,2.569,0,0,0,.88-.51l26.15-22.7a3.059,3.059,0,1,0-4.01-4.62Z" fill="#b4c9ff"/>
          <path id="Trazado_3178" data-name="Trazado 3178" d="M5740.884,3592.914l-2.75-3.16-23.67,20.54,2.75,3.17,23.67-20.55Z" fill="#fff"/>
          <path id="Trazado_3179" data-name="Trazado 3179" d="M5739.6,3591.434l-.18-.21-32.42,28.15.18.2,32.42-28.14Z" fill="#d64d4d"/>
          <path id="Trazado_3180" data-name="Trazado 3180" d="M5710.2,3615.634l-3.99,3.46a.9.9,0,0,0-.17,1.18.864.864,0,0,0,1.27.15l4.02-3.49-1.13-1.3Z" fill="#999"/>
          <path id="Trazado_3181" data-name="Trazado 3181" d="M5738.814,3591.444l-1.13-1.3-.13.12,1.13,1.3.13-.12Z" fill="#525354"/>
          <path id="Trazado_3182" data-name="Trazado 3182" d="M5738.154,3591.164l-.71-.82-.13.12.71.81.13-.11Z" fill="#525354"/>
          <path id="Trazado_3183" data-name="Trazado 3183" d="M5737.934,3591.354l-.71-.81-.13.11.7.82.14-.12Z" fill="#525354"/>
          <path id="Trazado_3184" data-name="Trazado 3184" d="M5737.724,3591.534l-.71-.81-.13.12.7.81.14-.12Z" fill="#525354"/>
          <path id="Trazado_3185" data-name="Trazado 3185" d="M5737.514,3591.714l-.7-.81-.14.11.71.82.13-.12Z" fill="#525354"/>
          <path id="Trazado_3186" data-name="Trazado 3186" d="M5737.374,3592.694l-1.13-1.3-.13.11,1.13,1.31.13-.12Z" fill="#525354"/>
          <path id="Trazado_3187" data-name="Trazado 3187" d="M5736.714,3592.414l-.7-.82-.14.12.71.81.13-.11Z" fill="#525354"/>
          <path id="Trazado_3188" data-name="Trazado 3188" d="M5736.494,3592.6l-.71-.81-.13.11.71.82.13-.12Z" fill="#525354"/>
          <path id="Trazado_3189" data-name="Trazado 3189" d="M5736.284,3592.784l-.71-.81-.13.12.71.81.13-.12Z" fill="#525354"/>
          <path id="Trazado_3190" data-name="Trazado 3190" d="M5736.084,3592.964l-.71-.81-.13.11.7.82.14-.12Z" fill="#525354"/>
          <path id="Trazado_3191" data-name="Trazado 3191" d="M5735.9,3593.984l-1.14-1.31-.13.12,1.13,1.3.14-.11Z" fill="#525354"/>
          <path id="Trazado_3192" data-name="Trazado 3192" d="M5735.234,3593.694l-.7-.81-.14.11.71.82.13-.12Z" fill="#525354"/>
          <path id="Trazado_3193" data-name="Trazado 3193" d="M5735.014,3593.884l-.71-.81-.13.12.71.81.13-.12Z" fill="#525354"/>
          <path id="Trazado_3194" data-name="Trazado 3194" d="M5734.8,3594.074l-.71-.82-.13.12.71.81.13-.11Z" fill="#525354"/>
          <path id="Trazado_3195" data-name="Trazado 3195" d="M5734.6,3594.244l-.71-.81-.13.12.7.81.14-.12Z" fill="#525354"/>
          <path id="Trazado_3196" data-name="Trazado 3196" d="M5734.154,3595.5l-1.14-1.31-.13.12,1.13,1.3.14-.11Z" fill="#525354"/>
          <path id="Trazado_3197" data-name="Trazado 3197" d="M5733.484,3595.214l-.7-.81-.14.11.71.82.13-.12Z" fill="#525354"/>
          <path id="Trazado_3198" data-name="Trazado 3198" d="M5733.264,3595.4l-.71-.81-.13.12.71.81.13-.12Z" fill="#525354"/>
          <path id="Trazado_3199" data-name="Trazado 3199" d="M5733.054,3595.594l-.71-.82-.13.12.71.81.13-.11Z" fill="#525354"/>
          <path id="Trazado_3200" data-name="Trazado 3200" d="M5732.854,3595.764l-.71-.81-.13.12.7.81.14-.12Z" fill="#525354"/>
          <path id="Trazado_3201" data-name="Trazado 3201" d="M5732.714,3596.744l-1.13-1.3-.14.12,1.13,1.3.14-.12Z" fill="#525354"/>
          <path id="Trazado_3202" data-name="Trazado 3202" d="M5732.054,3596.464l-.71-.82-.13.12.7.81.14-.11Z" fill="#525354"/>
          <path id="Trazado_3203" data-name="Trazado 3203" d="M5731.824,3596.654l-.7-.81-.14.11.71.82.13-.12Z" fill="#525354"/>
          <path id="Trazado_3204" data-name="Trazado 3204" d="M5731.614,3596.834l-.7-.81-.14.12.71.81.13-.12Z" fill="#525354"/>
          <path id="Trazado_3205" data-name="Trazado 3205" d="M5731.414,3597.014l-.71-.81-.13.11.7.82.14-.12Z" fill="#525354"/>
          <path id="Trazado_3206" data-name="Trazado 3206" d="M5731.234,3598.034l-1.13-1.31-.14.12,1.13,1.3.14-.11Z" fill="#525354"/>
          <path id="Trazado_3207" data-name="Trazado 3207" d="M5730.574,3597.744l-.71-.81-.13.12.7.81.14-.12Z" fill="#525354"/>
          <path id="Trazado_3208" data-name="Trazado 3208" d="M5730.344,3597.944l-.7-.82-.14.12.71.81.13-.11Z" fill="#525354"/>
          <path id="Trazado_3209" data-name="Trazado 3209" d="M5730.134,3598.124l-.7-.81-.14.11.71.81.13-.11Z" fill="#525354"/>
          <path id="Trazado_3210" data-name="Trazado 3210" d="M5729.934,3598.3l-.71-.82-.13.12.7.81.14-.11Z" fill="#525354"/>
          <path id="Trazado_3211" data-name="Trazado 3211" d="M5729.544,3599.494l-1.13-1.3-.13.11,1.13,1.31.13-.12Z" fill="#525354"/>
          <path id="Trazado_3212" data-name="Trazado 3212" d="M5728.884,3599.214l-.71-.82-.13.12.71.81.13-.11Z" fill="#525354"/>
          <path id="Trazado_3213" data-name="Trazado 3213" d="M5728.664,3599.4l-.71-.81-.13.11.7.82.14-.12Z" fill="#525354"/>
          <path id="Trazado_3214" data-name="Trazado 3214" d="M5728.454,3599.584l-.71-.81-.13.12.7.81.14-.12Z" fill="#525354"/>
          <path id="Trazado_3215" data-name="Trazado 3215" d="M5728.244,3599.764l-.7-.81-.14.11.71.82.13-.12Z" fill="#525354"/>
          <path id="Trazado_3216" data-name="Trazado 3216" d="M5728.1,3600.744l-1.13-1.3-.13.11,1.13,1.31.13-.12Z" fill="#525354"/>
          <path id="Trazado_3217" data-name="Trazado 3217" d="M5727.444,3600.454l-.7-.81-.14.12.71.81.13-.12Z" fill="#525354"/>
          <path id="Trazado_3218" data-name="Trazado 3218" d="M5727.224,3600.654l-.71-.81-.13.11.7.81.14-.11Z" fill="#525354"/>
          <path id="Trazado_3219" data-name="Trazado 3219" d="M5727.014,3600.834l-.71-.81-.13.11.7.82.14-.12Z" fill="#525354"/>
          <path id="Trazado_3220" data-name="Trazado 3220" d="M5726.8,3601.014l-.7-.82-.14.12.71.81.13-.11Z" fill="#525354"/>
          <path id="Trazado_3221" data-name="Trazado 3221" d="M5726.624,3602.024l-1.13-1.3-.13.12,1.13,1.3.13-.12Z" fill="#525354"/>
          <path id="Trazado_3222" data-name="Trazado 3222" d="M5725.964,3601.744l-.7-.81-.14.11.71.81.13-.11Z" fill="#525354"/>
          <path id="Trazado_3223" data-name="Trazado 3223" d="M5725.744,3601.934l-.71-.81-.13.12.71.81.13-.12Z" fill="#525354"/>
          <path id="Trazado_3224" data-name="Trazado 3224" d="M5725.534,3602.124l-.71-.82-.13.12.7.81.14-.11Z" fill="#525354"/>
          <path id="Trazado_3225" data-name="Trazado 3225" d="M5725.324,3602.294l-.7-.81-.14.12.71.81.13-.12Z" fill="#525354"/>
          <path id="Trazado_3226" data-name="Trazado 3226" d="M5725.064,3603.384l-1.13-1.3-.14.12,1.14,1.3.13-.12Z" fill="#525354"/>
          <path id="Trazado_3227" data-name="Trazado 3227" d="M5724.4,3603.1l-.71-.82-.13.12.7.81.14-.11Z" fill="#525354"/>
          <path id="Trazado_3228" data-name="Trazado 3228" d="M5724.174,3603.294l-.7-.81-.14.11.71.82.13-.12Z" fill="#525354"/>
          <path id="Trazado_3229" data-name="Trazado 3229" d="M5723.964,3603.474l-.7-.81-.14.12.71.81.13-.12Z" fill="#525354"/>
          <path id="Trazado_3230" data-name="Trazado 3230" d="M5723.764,3603.654l-.71-.81-.13.11.71.82.13-.12Z" fill="#525354"/>
          <path id="Trazado_3231" data-name="Trazado 3231" d="M5723.624,3604.634l-1.13-1.3-.13.11,1.13,1.31.13-.12Z" fill="#525354"/>
          <path id="Trazado_3232" data-name="Trazado 3232" d="M5722.964,3604.354l-.71-.82-.13.12.71.81.13-.11Z" fill="#525354"/>
          <path id="Trazado_3233" data-name="Trazado 3233" d="M5722.744,3604.544l-.71-.81-.13.11.7.82.14-.12Z" fill="#525354"/>
          <path id="Trazado_3234" data-name="Trazado 3234" d="M5722.534,3604.724l-.71-.81-.13.12.7.81.14-.12Z" fill="#525354"/>
          <path id="Trazado_3235" data-name="Trazado 3235" d="M5722.324,3604.9l-.7-.81-.14.11.71.82.13-.12Z" fill="#525354"/>
          <path id="Trazado_3236" data-name="Trazado 3236" d="M5722.144,3605.924l-1.13-1.31-.13.12,1.13,1.3.13-.11Z" fill="#525354"/>
          <path id="Trazado_3237" data-name="Trazado 3237" d="M5721.484,3605.634l-.71-.81-.13.11.71.82.13-.12Z" fill="#525354"/>
          <path id="Trazado_3238" data-name="Trazado 3238" d="M5721.264,3605.824l-.71-.81-.13.12.7.81.14-.12Z" fill="#525354"/>
          <path id="Trazado_3239" data-name="Trazado 3239" d="M5721.054,3606.014l-.71-.82-.13.12.7.81.14-.11Z" fill="#525354"/>
          <path id="Trazado_3240" data-name="Trazado 3240" d="M5720.844,3606.184l-.7-.81-.14.12.71.81.13-.12Z" fill="#525354"/>
          <path id="Trazado_3241" data-name="Trazado 3241" d="M5720.3,3607.524l-1.13-1.31-.14.12,1.14,1.3.13-.11Z" fill="#525354"/>
          <path id="Trazado_3242" data-name="Trazado 3242" d="M5719.644,3607.234l-.71-.81-.13.11.7.82.14-.12Z" fill="#525354"/>
          <path id="Trazado_3243" data-name="Trazado 3243" d="M5719.414,3607.424l-.7-.81-.14.12.71.81.13-.12Z" fill="#525354"/>
          <path id="Trazado_3244" data-name="Trazado 3244" d="M5719.2,3607.614l-.7-.82-.14.12.71.81.13-.11Z" fill="#525354"/>
          <path id="Trazado_3245" data-name="Trazado 3245" d="M5719,3607.784l-.71-.81-.13.12.71.81.13-.12Z" fill="#525354"/>
          <path id="Trazado_3246" data-name="Trazado 3246" d="M5718.864,3608.764l-1.13-1.3-.13.12,1.13,1.3.13-.12Z" fill="#525354"/>
          <path id="Trazado_3247" data-name="Trazado 3247" d="M5718.2,3608.484l-.71-.81-.13.11.71.81.13-.11Z" fill="#525354"/>
          <path id="Trazado_3248" data-name="Trazado 3248" d="M5717.984,3608.674l-.71-.81-.13.12.7.81.14-.12Z" fill="#525354"/>
          <path id="Trazado_3249" data-name="Trazado 3249" d="M5717.774,3608.854l-.71-.81-.13.12.7.81.14-.12Z" fill="#525354"/>
          <path id="Trazado_3250" data-name="Trazado 3250" d="M5717.564,3609.034l-.7-.81-.14.12.71.81.13-.12Z" fill="#525354"/>
          <path id="Trazado_3251" data-name="Trazado 3251" d="M5717.384,3610.054l-1.13-1.3-.13.11,1.13,1.31.13-.12Z" fill="#525354"/>
          <path id="Trazado_3252" data-name="Trazado 3252" d="M5716.724,3609.764l-.71-.81-.13.12.71.81.13-.12Z" fill="#525354"/>
          <path id="Trazado_3253" data-name="Trazado 3253" d="M5716.5,3609.964l-.71-.82-.13.12.7.81.14-.11Z" fill="#525354"/>
          <path id="Trazado_3254" data-name="Trazado 3254" d="M5716.294,3610.144l-.71-.81-.13.11.7.82.14-.12Z" fill="#525354"/>
          <path id="Trazado_3255" data-name="Trazado 3255" d="M5716.084,3610.324l-.7-.82-.14.12.71.81.13-.11Z" fill="#525354"/>
          <path id="Trazado_3256" data-name="Trazado 3256" d="M5679.694,3524.614a8.09,8.09,0,1,0-8.09,8.09,8.087,8.087,0,0,0,8.09-8.09Z" fill="#b4c9ff"/>
          <path id="Trazado_3257" data-name="Trazado 3257" d="M5671.964,3476.154h-.73a2.75,2.75,0,0,0-2.74,2.74v42.89a2.757,2.757,0,0,0,2.74,2.74h.73a2.751,2.751,0,0,0,2.74-2.74v-42.89a2.744,2.744,0,0,0-2.74-2.74Z" fill="#b4c9ff"/>
          <path id="Trazado_3258" data-name="Trazado 3258" d="M5671.6,3478.844h0a1.69,1.69,0,0,0-1.68,1.68v40.04a1.675,1.675,0,1,0,3.35,0v-40.04a1.682,1.682,0,0,0-1.67-1.68Z" fill="#f96767"/>
          <path id="Trazado_3259" data-name="Trazado 3259" d="M5678.394,3524.7a6.79,6.79,0,1,0-6.79,6.79,6.79,6.79,0,0,0,6.79-6.79Z" fill="#f96767"/>
          <path id="Trazado_3260" data-name="Trazado 3260" d="M5671.734,3512.474h-3.49v-.7h3.49v.7Z" fill="#fff"/>
          <path id="Trazado_3261" data-name="Trazado 3261" d="M5668.244,3504.614h3.49v.7h-3.49v-.7Z" fill="#fff"/>
          <path id="Trazado_3262" data-name="Trazado 3262" d="M5668.244,3498.024h3.49v.69h-3.49v-.69Z" fill="#fff"/>
          <path id="Trazado_3263" data-name="Trazado 3263" d="M5668.244,3491.984h3.49v.7h-3.49v-.7Z" fill="#fff"/>
          <path id="Trazado_3264" data-name="Trazado 3264" d="M5668.244,3485.984h3.49v.7h-3.49v-.7Z" fill="#fff"/>
          <path id="Trazado_3265" data-name="Trazado 3265" d="M5668.244,3480.654h3.49v.69h-3.49v-.69Z" fill="#fff"/>
          <path id="Trazado_3266" data-name="Trazado 3266" d="M5659.724,3470.6l6.23,4.75a.3.3,0,0,0,.41-.05.29.29,0,0,0-.06-.41l-6.23-4.75a.286.286,0,0,0-.4.05.3.3,0,0,0,.05.41Z" fill="#242638"/>
          <path id="Trazado_3267" data-name="Trazado 3267" d="M5666.154,3465.754l3.67,6.93a.292.292,0,0,0,.39.12.3.3,0,0,0,.12-.39l-3.67-6.93a.284.284,0,0,0-.39-.12.292.292,0,0,0-.12.39Z" fill="#242638"/>
          <path id="Trazado_3268" data-name="Trazado 3268" d="M5656.964,3476.454l7.3,2.85a.3.3,0,0,0,.38-.17.293.293,0,0,0-.17-.37l-7.3-2.84a.285.285,0,1,0-.21.53Z" fill="#242638"/>
          <path id="Trazado_3269" data-name="Trazado 3269" d="M5682.584,3468.854l-5.38,5.69a.287.287,0,0,0,.01.41.3.3,0,0,0,.41-.01l5.38-5.69a.29.29,0,1,0-.42-.4Z" fill="#242638"/>
          <path id="Trazado_3270" data-name="Trazado 3270" d="M5686.734,3475.764l-7.28,2.91a.277.277,0,0,0-.16.37.284.284,0,0,0,.37.16l7.28-2.91a.285.285,0,1,0-.21-.53Z" fill="#242638"/>
          <path id="Trazado_3271" data-name="Trazado 3271" d="M5677.054,3465.484l-3.6,6.96a.293.293,0,0,0,.52.27l3.6-6.97a.291.291,0,0,0-.52-.26Z" fill="#242638"/>
          <path id="Trazado_3272" data-name="Trazado 3272" d="M5768.654,3526.294s-5.52-5.7-10.64-18.2c0,0-11.32-7.59-10.75-8.88s8.28,2.02,8.28,2.02-8.67-9.66-7.09-11.05,10.16,6.43,10.16,6.43-10.13-10.79-8.06-12.11,14.57,12.11,14.57,12.11-7.31-10.52-5.63-11.77,12.35,11.41,14.56,15.86,4.61,22.09,4.61,22.09l-10.01,3.5Z" fill="#fca19f"/>
        </g>
      </g>
    </g>
  </g>
</svg>
