<svg xmlns="http://www.w3.org/2000/svg" xmlns:xlink="http://www.w3.org/1999/xlink" width="260.63" height="289.972" viewBox="0 0 260.63 289.972">
  <defs>
    <clipPath id="clip-path">
      <path id="Trazado_3384" data-name="Trazado 3384" d="M5575.949,3958.15a130.315,130.315,0,1,1,130.31,130.31,130.316,130.316,0,0,1-130.31-130.31" fill="#9bd7f5"/>
    </clipPath>
    <clipPath id="clip-path-2">
      <path id="Intersección_4" data-name="Intersección 4" d="M5707.12,3924.21c-9.781-1.56-15.55-8.349-18.37-19.11q-1.351-4.53-2.7-9.06a43.767,43.767,0,0,1-1.709-14.49c.34-5.61,2.051-11.78,6.93-16.42,5.95-5.65,13.68-6.741,21.419-4.651a27.965,27.965,0,0,1,12.4,6.911c4.519,4.5,6.1,10.189,6.079,16.429-.029,10.81-1.869,27.721-8.37,35.9-2.914,3.662-6.876,4.884-11.14,4.884A28.734,28.734,0,0,1,5707.12,3924.21Z" fill="none"/>
    </clipPath>
    <clipPath id="clip-path-3">
      <path id="Trazado_3406" data-name="Trazado 3406" d="M5575.949,3958.15a130.315,130.315,0,1,1,130.31,130.31,130.316,130.316,0,0,1-130.31-130.31" fill="none"/>
    </clipPath>
  </defs>
  <g id="Grupo_10024" data-name="Grupo 10024" transform="translate(3462 -2892.83)">
    <path id="Trazado_6359" data-name="Trazado 6359" d="M21.459,19.2a6.818,6.818,0,0,1-3.916-1.079,4.328,4.328,0,0,1-1.9-3.022l3.027-.693a2.571,2.571,0,0,0,.933,1.782,3.1,3.1,0,0,0,1.978.62,2.554,2.554,0,0,0,1.543-.435,1.466,1.466,0,0,0,.586-1.284,1.37,1.37,0,0,0-.5-1.045,3.254,3.254,0,0,0-.991-.64q-.493-.19-1.587-.522-.146-.049-.215-.068-.557-.176-.9-.293t-.845-.327a5.625,5.625,0,0,1-.82-.41,6.006,6.006,0,0,1-.679-.508,2.66,2.66,0,0,1-.566-.649,3.45,3.45,0,0,1-.342-.811A3.577,3.577,0,0,1,16.127,8.8a3.778,3.778,0,0,1,.659-2.222,4.037,4.037,0,0,1,1.777-1.416,6.469,6.469,0,0,1,2.544-.474,8.036,8.036,0,0,1,1.841.205,6.448,6.448,0,0,1,1.646.63A4.031,4.031,0,0,1,25.907,6.69,4.37,4.37,0,0,1,26.655,8.4l-2.832.7a2.294,2.294,0,0,0-2.539-2.021,2.78,2.78,0,0,0-1.572.41,1.39,1.39,0,0,0-.615,1.24q0,.771,1.025,1.25a15.28,15.28,0,0,0,1.963.674q.576.176.938.293t.908.342a6.311,6.311,0,0,1,.889.435,6.576,6.576,0,0,1,.742.542,2.919,2.919,0,0,1,.63.7,3.8,3.8,0,0,1,.386.874,3.653,3.653,0,0,1,.156,1.089,4.278,4.278,0,0,1-.283,1.592,3.464,3.464,0,0,1-.776,1.2,4.508,4.508,0,0,1-1.167.825,5.661,5.661,0,0,1-1.436.488A8.256,8.256,0,0,1,21.459,19.2ZM38.51,13.834l-.029.674H31.039a2.6,2.6,0,0,0,.8,1.836,2.561,2.561,0,0,0,1.768.635,2.468,2.468,0,0,0,1.323-.347,2.131,2.131,0,0,0,.845-1.011L38.354,16A4.383,4.383,0,0,1,36.6,18.355a5.226,5.226,0,0,1-2.969.84,5.435,5.435,0,0,1-3.911-1.382,5.042,5.042,0,0,1-1.45-3.833,5.072,5.072,0,0,1,1.455-3.833,5.273,5.273,0,0,1,3.818-1.4,5.04,5.04,0,0,1,3.6,1.279A5.019,5.019,0,0,1,38.51,13.834Zm-4.951-3.1a2.222,2.222,0,0,0-2.441,1.934h4.609a2.114,2.114,0,0,0-.693-1.436A2.2,2.2,0,0,0,33.559,10.738ZM45.19,19.186a5.364,5.364,0,0,1-3.877-1.445,4.992,4.992,0,0,1-1.5-3.77,4.981,4.981,0,0,1,1.5-3.77,5.96,5.96,0,0,1,7.134-.469,4.316,4.316,0,0,1,1.68,2.725l-2.6.283a2.225,2.225,0,0,0-.84-1.318,2.554,2.554,0,0,0-1.523-.439,2.3,2.3,0,0,0-1.836.82,3.216,3.216,0,0,0-.7,2.168,3.22,3.22,0,0,0,.7,2.163,2.3,2.3,0,0,0,1.836.825,2.532,2.532,0,0,0,1.519-.439,2.277,2.277,0,0,0,.845-1.318l2.6.283a4.328,4.328,0,0,1-1.694,2.725A5.327,5.327,0,0,1,45.19,19.186Zm9.629-8.633a3.259,3.259,0,0,1,1.318-1.206,4.023,4.023,0,0,1,1.963-.5v2.51a3.8,3.8,0,0,0-2.4.605,2.643,2.643,0,0,0-.742,2.148V19H52.123V8.961h2.7Zm14.316,3.281-.029.674H61.664a2.6,2.6,0,0,0,.8,1.836,2.561,2.561,0,0,0,1.768.635,2.468,2.468,0,0,0,1.323-.347,2.131,2.131,0,0,0,.845-1.011L68.979,16a4.383,4.383,0,0,1-1.758,2.354,5.226,5.226,0,0,1-2.969.84,5.435,5.435,0,0,1-3.911-1.382,5.042,5.042,0,0,1-1.45-3.833,5.072,5.072,0,0,1,1.455-3.833,5.273,5.273,0,0,1,3.818-1.4,5.04,5.04,0,0,1,3.6,1.279A5.019,5.019,0,0,1,69.135,13.834Zm-4.951-3.1a2.222,2.222,0,0,0-2.441,1.934h4.609a2.114,2.114,0,0,0-.693-1.436A2.2,2.2,0,0,0,64.184,10.738Zm11.631,8.447a5.364,5.364,0,0,1-3.877-1.445,4.992,4.992,0,0,1-1.5-3.77,4.981,4.981,0,0,1,1.5-3.77,5.96,5.96,0,0,1,7.134-.469,4.316,4.316,0,0,1,1.68,2.725l-2.6.283a2.226,2.226,0,0,0-.84-1.318,2.554,2.554,0,0,0-1.523-.439,2.3,2.3,0,0,0-1.836.82,3.216,3.216,0,0,0-.7,2.168,3.22,3.22,0,0,0,.7,2.163,2.3,2.3,0,0,0,1.836.825A2.532,2.532,0,0,0,77.3,16.52a2.277,2.277,0,0,0,.845-1.318l2.6.283a4.328,4.328,0,0,1-1.694,2.725A5.327,5.327,0,0,1,75.815,19.186ZM84.184,7.457a1.579,1.579,0,0,1-1.152-.474,1.555,1.555,0,0,1-.479-1.147A1.536,1.536,0,0,1,83.036,4.7a1.584,1.584,0,0,1,1.147-.474A1.626,1.626,0,0,1,85.8,5.836a1.626,1.626,0,0,1-1.611,1.621ZM82.748,19V8.961H85.58V19Zm10.42.2a6.313,6.313,0,0,1-2.842-.615,4.6,4.6,0,0,1-1.948-1.807,5.384,5.384,0,0,1-.708-2.8,4.911,4.911,0,0,1,1.523-3.809,6.368,6.368,0,0,1,7.959,0,4.911,4.911,0,0,1,1.523,3.809,4.938,4.938,0,0,1-1.523,3.823A5.654,5.654,0,0,1,93.168,19.2Zm-.029-2.236a2.577,2.577,0,0,0,1.987-.82,3.071,3.071,0,0,0,.757-2.168,3.071,3.071,0,0,0-.757-2.168,2.577,2.577,0,0,0-1.987-.82,2.483,2.483,0,0,0-1.929.825,3.1,3.1,0,0,0-.747,2.163,3.1,3.1,0,0,0,.747,2.163A2.483,2.483,0,0,0,93.139,16.959Zm13.555-8.193a3.914,3.914,0,0,1,2.773.9,3.349,3.349,0,0,1,.967,2.573V19h-2.822V12.848a1.749,1.749,0,0,0-.5-1.387,1.9,1.9,0,0,0-1.294-.439,2.643,2.643,0,0,0-.84.127,2.158,2.158,0,0,0-.7.4,1.748,1.748,0,0,0-.5.757,3.5,3.5,0,0,0-.19,1.162V19h-2.812V8.961h2.813v1.113A3.868,3.868,0,0,1,106.694,8.766ZM122.6,13.834l-.029.674h-7.441a2.6,2.6,0,0,0,.8,1.836,2.561,2.561,0,0,0,1.768.635,2.468,2.468,0,0,0,1.323-.347,2.131,2.131,0,0,0,.845-1.011l2.578.381a4.383,4.383,0,0,1-1.758,2.354,5.226,5.226,0,0,1-2.969.84,5.435,5.435,0,0,1-3.911-1.382,5.042,5.042,0,0,1-1.45-3.833,5.072,5.072,0,0,1,1.455-3.833,5.273,5.273,0,0,1,3.818-1.4,5.04,5.04,0,0,1,3.6,1.279A5.019,5.019,0,0,1,122.6,13.834Zm-4.951-3.1a2.222,2.222,0,0,0-2.441,1.934h4.609a2.114,2.114,0,0,0-.693-1.436A2.2,2.2,0,0,0,117.651,10.738ZM128.276,19.2a5.61,5.61,0,0,1-2.93-.7,2.972,2.972,0,0,1-1.436-2.09l2.354-.664a1.891,1.891,0,0,0,2.012,1.494A2.078,2.078,0,0,0,129.3,17a.8.8,0,0,0,.4-.776.821.821,0,0,0-.166-.518,1.315,1.315,0,0,0-.513-.371,6.388,6.388,0,0,0-.684-.264q-.337-.107-.894-.259t-.928-.288a6.215,6.215,0,0,1-.884-.376,3.77,3.77,0,0,1-.732-.518,2.086,2.086,0,0,1-.547-.786,2.836,2.836,0,0,1-.19-1.074,2.565,2.565,0,0,1,1.089-2.246,4.865,4.865,0,0,1,2.847-.762,4.988,4.988,0,0,1,2.627.645,2.917,2.917,0,0,1,1.348,2.012l-2.178.488a1.706,1.706,0,0,0-1.787-1.27,1.957,1.957,0,0,0-.986.225.722.722,0,0,0-.391.664.761.761,0,0,0,.059.3.6.6,0,0,0,.205.244,2.991,2.991,0,0,0,.283.186,2.137,2.137,0,0,0,.4.161q.264.083.439.127l.513.132.522.137q.537.146.942.293a5.519,5.519,0,0,1,.864.41,3.1,3.1,0,0,1,.757.591,2.635,2.635,0,0,1,.493.83,3.066,3.066,0,0,1,.2,1.118,3.02,3.02,0,0,1-.337,1.455,2.529,2.529,0,0,1-.923.981,4.492,4.492,0,0,1-1.3.527A6.763,6.763,0,0,1,128.276,19.2Zm17.275-10.43a3.914,3.914,0,0,1,2.773.9,3.349,3.349,0,0,1,.967,2.573V19h-2.822V12.848a1.749,1.749,0,0,0-.5-1.387,1.9,1.9,0,0,0-1.294-.439,2.643,2.643,0,0,0-.84.127,2.158,2.158,0,0,0-.7.4,1.748,1.748,0,0,0-.5.757,3.5,3.5,0,0,0-.19,1.162V19h-2.812V8.961h2.813v1.113A3.868,3.868,0,0,1,145.551,8.766Zm14.7,7.51a9.391,9.391,0,0,0,.244,2.451V19h-2.627l-.225-1.094a3.264,3.264,0,0,1-1.406.967,5.183,5.183,0,0,1-1.816.322,4.776,4.776,0,0,1-.937-.088,3.187,3.187,0,0,1-.845-.3,2.563,2.563,0,0,1-.7-.522,2.291,2.291,0,0,1-.469-.8,3.17,3.17,0,0,1-.176-1.089,3.019,3.019,0,0,1,.186-1.089,2.552,2.552,0,0,1,.488-.815,2.962,2.962,0,0,1,.791-.6,6.052,6.052,0,0,1,1-.43,11.9,11.9,0,0,1,1.191-.312l1.65-.371a1.82,1.82,0,0,0,.747-.317.633.633,0,0,0,.22-.5A1.036,1.036,0,0,0,157.07,11a2.3,2.3,0,0,0-1.2-.293,1.721,1.721,0,0,0-1.963,1.533l-2.49-.449a3.371,3.371,0,0,1,1.455-2.29,5.783,5.783,0,0,1,3.154-.737q4.219,0,4.219,3.623ZM155.3,17.291a2.262,2.262,0,0,0,1.738-.728,3.066,3.066,0,0,0,.674-2.153l-2.383.674a2.816,2.816,0,0,0-1,.41.842.842,0,0,0-.347.723.935.935,0,0,0,.371.8A1.536,1.536,0,0,0,155.3,17.291Zm11.221,1.9a5.61,5.61,0,0,1-2.93-.7,2.972,2.972,0,0,1-1.436-2.09l2.354-.664a1.891,1.891,0,0,0,2.012,1.494A2.078,2.078,0,0,0,167.543,17a.8.8,0,0,0,.4-.776.821.821,0,0,0-.166-.518,1.315,1.315,0,0,0-.513-.371,6.388,6.388,0,0,0-.684-.264q-.337-.107-.894-.259t-.928-.288a6.215,6.215,0,0,1-.884-.376,3.769,3.769,0,0,1-.732-.518,2.086,2.086,0,0,1-.547-.786,2.836,2.836,0,0,1-.19-1.074A2.565,2.565,0,0,1,163.5,9.527a4.865,4.865,0,0,1,2.847-.762,4.988,4.988,0,0,1,2.627.645,2.917,2.917,0,0,1,1.348,2.012l-2.178.488a1.706,1.706,0,0,0-1.787-1.27,1.957,1.957,0,0,0-.986.225.722.722,0,0,0-.391.664.761.761,0,0,0,.059.3.6.6,0,0,0,.205.244,2.992,2.992,0,0,0,.283.186,2.136,2.136,0,0,0,.4.161q.264.083.439.127l.513.132.522.137q.537.146.942.293a5.519,5.519,0,0,1,.864.41,3.1,3.1,0,0,1,.757.591,2.635,2.635,0,0,1,.493.83,3.066,3.066,0,0,1,.2,1.118,3.02,3.02,0,0,1-.337,1.455,2.529,2.529,0,0,1-.923.981,4.492,4.492,0,0,1-1.3.527A6.763,6.763,0,0,1,166.518,19.2Zm14.385-2.92a9.391,9.391,0,0,0,.244,2.451V19H178.52l-.225-1.094a3.264,3.264,0,0,1-1.406.967,5.183,5.183,0,0,1-1.816.322,4.776,4.776,0,0,1-.937-.088,3.187,3.187,0,0,1-.845-.3,2.563,2.563,0,0,1-.7-.522,2.291,2.291,0,0,1-.469-.8,3.17,3.17,0,0,1-.176-1.089,3.019,3.019,0,0,1,.186-1.089,2.552,2.552,0,0,1,.488-.815,2.962,2.962,0,0,1,.791-.6,6.052,6.052,0,0,1,1-.43,11.9,11.9,0,0,1,1.191-.312l1.65-.371a1.82,1.82,0,0,0,.747-.317.633.633,0,0,0,.22-.5,1.036,1.036,0,0,0-.493-.967,2.3,2.3,0,0,0-1.2-.293,1.721,1.721,0,0,0-1.963,1.533l-2.49-.449A3.371,3.371,0,0,1,173.53,9.5a5.783,5.783,0,0,1,3.154-.737q4.219,0,4.219,3.623Zm-4.951,1.016a2.262,2.262,0,0,0,1.738-.728,3.066,3.066,0,0,0,.674-2.153l-2.383.674a2.816,2.816,0,0,0-1,.41.842.842,0,0,0-.347.723.935.935,0,0,0,.371.8A1.536,1.536,0,0,0,175.951,17.291ZM183.637,19V4h2.842V19Zm15.2-5.166-.029.674h-7.441a2.6,2.6,0,0,0,.8,1.836,2.561,2.561,0,0,0,1.768.635,2.468,2.468,0,0,0,1.323-.347,2.131,2.131,0,0,0,.845-1.011l2.578.381a4.383,4.383,0,0,1-1.758,2.354,5.226,5.226,0,0,1-2.969.84,5.435,5.435,0,0,1-3.911-1.382,5.042,5.042,0,0,1-1.45-3.833,5.072,5.072,0,0,1,1.455-3.833,5.273,5.273,0,0,1,3.818-1.4,5.04,5.04,0,0,1,3.6,1.279A5.019,5.019,0,0,1,198.832,13.834Zm-4.951-3.1a2.222,2.222,0,0,0-2.441,1.934h4.609a2.114,2.114,0,0,0-.693-1.436A2.2,2.2,0,0,0,193.881,10.738ZM204.506,19.2a5.61,5.61,0,0,1-2.93-.7,2.972,2.972,0,0,1-1.436-2.09l2.354-.664a1.891,1.891,0,0,0,2.012,1.494A2.078,2.078,0,0,0,205.531,17a.8.8,0,0,0,.4-.776.821.821,0,0,0-.166-.518,1.315,1.315,0,0,0-.513-.371,6.388,6.388,0,0,0-.684-.264q-.337-.107-.894-.259t-.928-.288a6.215,6.215,0,0,1-.884-.376,3.769,3.769,0,0,1-.732-.518,2.086,2.086,0,0,1-.547-.786,2.836,2.836,0,0,1-.19-1.074,2.565,2.565,0,0,1,1.089-2.246,4.865,4.865,0,0,1,2.847-.762,4.988,4.988,0,0,1,2.627.645,2.917,2.917,0,0,1,1.348,2.012l-2.178.488a1.706,1.706,0,0,0-1.787-1.27,1.957,1.957,0,0,0-.986.225.722.722,0,0,0-.391.664.761.761,0,0,0,.059.3.6.6,0,0,0,.205.244,2.992,2.992,0,0,0,.283.186,2.136,2.136,0,0,0,.4.161q.264.083.439.127l.513.132.522.137q.537.146.942.293a5.519,5.519,0,0,1,.864.41,3.1,3.1,0,0,1,.757.591,2.635,2.635,0,0,1,.493.83,3.066,3.066,0,0,1,.2,1.118,3.02,3.02,0,0,1-.337,1.455,2.529,2.529,0,0,1-.923.981,4.492,4.492,0,0,1-1.3.527A6.763,6.763,0,0,1,204.506,19.2Z" transform="translate(-3444 3163.607)" fill="#024e73"/>
    <g id="Grupo_9858" data-name="Grupo 9858" transform="translate(-9037.949 -935)">
      <g id="Grupo_9853" data-name="Grupo 9853">
        <g id="Grupo_9852" data-name="Grupo 9852" clip-path="url(#clip-path)">
          <path id="Trazado_3377" data-name="Trazado 3377" d="M5549.439,3961.5a157.755,157.755,0,1,1,157.75,157.75,157.756,157.756,0,0,1-157.75-157.75Z" fill="#9bd7f5"/>
          <path id="Trazado_3378" data-name="Trazado 3378" d="M5737.289,3983.87s47.26,24.74,60.18,15.14,9.21-21.75-30.66-74.91l-12.47,3.49,19.95,44.62-27.4-12.7-9.6,24.36Z" fill="#fca19f"/>
          <path id="Trazado_3379" data-name="Trazado 3379" d="M5768.139,3924.02s-8.6-14.54-10.87-15.94-6.5-.19-6.5-.19a30.021,30.021,0,0,1-6.27.83c-2.18-.13-6.95-.29-7.59,1.58s2.34,7.63,2.34,7.63-3.08-1.64-4.55-1.5.2,8.13,24.85,15.87l8.59-8.28Z" fill="#fca19f"/>
          <path id="Trazado_3380" data-name="Trazado 3380" d="M5755.039,3910.8s1.08,10-.51,10.39-2.65-5.6-2.65-5.6.88,7.56-.77,7.52-3.39-7.63-3.39-7.63,1.27,6.21.26,6.61-5.81-8.48-5.81-8.48,2.42,6.38,1.39,7.14-6.31-5.54-6.56-9.78m37.29,61.24s5.98,11.42,6.53,12.33" fill="none" stroke="#f97070" stroke-linecap="round" stroke-linejoin="round" stroke-width="0.574"/>
          <path id="Trazado_3381" data-name="Trazado 3381" d="M5708.989,3934.76s18.19,7.64,28.05,10.06c6.02,1.47,32.93,23.44,33.77,24.28l-18.05,34.69s-14.63-9.3-15.99-8.93c-6.34,1.72-11.44,54.77-11.44,54.77l7.17,47.09s-33.91,30.58-101.86-.51l3.16-20.8-.56-8.09s-17.02-93.48-1.4-121.2c5.17-9.17,41.67-12.65,41.67-12.65l35.48,1.29Z" fill="#242638"/>
          <path id="Trazado_3382" data-name="Trazado 3382" d="M5670.349,3934.48a66.05,66.05,0,0,0,7.89-4.89c4.63-3.81,10.34-23.4,10.34-23.4l25.85,8.43s-4.08,19.05-2.72,20.14,1.63,10.88-10.34,12.51-31.02-12.79-31.02-12.79Z" fill="#e58f8f"/>
          <path id="Trazado_3383" data-name="Trazado 3383" d="M5688.989,3904.83s-.82,2.42-1.33,3.72c3.3,27.84,19.37,25.04,23.72,23.93.34-5.41,2.96-17.63,2.96-17.63l-25.35-10.02Z" fill="#f97070"/>
        </g>
      </g>
      <g id="Grupo_9855" data-name="Grupo 9855">
        <path id="Trazado_3385" data-name="Trazado 3385" d="M5725.089,3867.39a27.965,27.965,0,0,0-12.4-6.91c-7.74-2.09-15.47-1-21.42,4.65-4.88,4.64-6.59,10.81-6.93,16.42a43.775,43.775,0,0,0,1.71,14.49q1.351,4.53,2.7,9.06c2.82,10.76,8.59,17.55,18.37,19.11,5.91.95,11.75.45,15.68-4.49,6.5-8.18,8.34-25.09,8.37-35.9.02-6.24-1.56-11.93-6.08-16.43Z" fill="#fca19f"/>
      </g>
      <g id="Grupo_9857" data-name="Grupo 9857">
        <g id="Grupo_9856" data-name="Grupo 9856" clip-path="url(#clip-path-3)">
          <path id="Trazado_3388" data-name="Trazado 3388" d="M5688.3,3895.25s6.75-6.54,8.59-20.78c0,0,6.46-1.5,10.58-.67s8.66,4.88,16.94,5.31a14.932,14.932,0,0,0,12.49-5.35,24.969,24.969,0,0,1-2.62-.23,50.8,50.8,0,0,0,6.06-7.25s-2.08.2-9.88-1.73a15.965,15.965,0,0,0,4.01-4.01,43.691,43.691,0,0,1-14.46-1.34c-7.94-2.09-18.35-4.67-23.7-1.69s-5.66,3.67-5.66,3.67,2.28-5.72,4.66-6.74c0,0-5.73,1.87-6.62,7.36a41.089,41.089,0,0,0-4.85.52c-1.67.35,3.84.69,3.84.69s-11,13.97-1.7,35.86l2.32-3.62Z" fill="#242638"/>
          <path id="Trazado_3389" data-name="Trazado 3389" d="M5700.129,3889.87l6.05,3.11-6.76.1m26.45-1.93-6.43,2.2,6.66,1.08m-11.8-3.24a15.761,15.761,0,0,0,1.06,9.48,2.849,2.849,0,0,1,.33,1.06,1.82,1.82,0,0,1-1.17,1.58,6.925,6.925,0,0,1-2.03.42c-.39.05-.93-.05-1.15.28a1.241,1.241,0,0,0-.1,1.52" fill="none" stroke="#242638" stroke-linecap="round" stroke-linejoin="round" stroke-width="0.544"/>
          <path id="Trazado_3390" data-name="Trazado 3390" d="M5690.109,3892.99s-3.46-3.72-6.18-2.22-3.64,8.92,4.41,10.67a13.63,13.63,0,0,0,1.77-8.45Z" fill="#fd9997"/>
          <path id="Trazado_3391" data-name="Trazado 3391" d="M5729.789,3894.3s3.45-2.39,4.86-.43-.13,8.65-6.14,8.21a15.2,15.2,0,0,1,1.28-7.78Z" fill="#fc9e9c"/>
          <path id="Trazado_3392" data-name="Trazado 3392" d="M5690.649,3861.18s4.28-6.08,10.73-7.84,18.45,1.33,23.28.04c0,0-3.87,4.12-11.5,5.44a82.721,82.721,0,0,0-13.71,3.63l-8.8-1.27Z" fill="#242638"/>
          <path id="Trazado_3393" data-name="Trazado 3393" d="M5728.7,3878.14s1.82,10.35,1.93,15.7c0,0,2.73-14.56,1.01-18.7s-2.94,3-2.94,3Z" fill="#242638"/>
          <path id="Trazado_3394" data-name="Trazado 3394" d="M5697.189,3885.97c-.68,1.24,1.91,1.04,3.52.74s5.02.98,6.35.94,1.97-2.77-.23-3.38-7.84-1.61-9.64,1.7Z" fill="#242638"/>
          <path id="Trazado_3395" data-name="Trazado 3395" d="M5727.3,3887.05c.59,1.29-1.98.9-3.56.49s-5.08.62-6.41.48-1.76-2.9.48-3.35,7.93-1.05,9.49,2.38Z" fill="#242638"/>
          <path id="Trazado_3396" data-name="Trazado 3396" d="M5706.2,3894.9s-3.06,2.38-5.99,2.11m18.43-2.38a9.458,9.458,0,0,0,6.06,2.79" fill="none" stroke="#dd5b5b" stroke-linecap="round" stroke-linejoin="round" stroke-width="0.544"/>
          <path id="Trazado_3397" data-name="Trazado 3397" d="M5712.209,3902.68c3.65-2.63,12.56-1.39,17.58,3.35s30.97,3.07,35.16,4.74,5.3,6.42,4.46,11.45-5.86,4.74-7.81,12.55-.28,10.89-6.7,17.03-20.37,3.9-26.23,5.58-28.46-46.05-16.46-54.7Z" fill="#ebf1ff"/>
          <path id="Trazado_3398" data-name="Trazado 3398" d="M5708.249,3943.99s1.27-10.05,3.22-15.26,8.57-17.8,10.79-18.13-3.67,14.47-2.21,15,17.7-18.52,19.2-17.18-7.39,13.46-7.39,13.46,10.35-11.59,11.2-10.82-8.15,14.31-8.15,14.31,10.63-10.17,11.56-8.19-11.34,15.72-11.34,15.72,9.43-6.24,10.5-5.28-25.95,23.87-25.95,23.87l-11.43-7.5Z" fill="#fca19f"/>
          <path id="Trazado_3399" data-name="Trazado 3399" d="M5719.679,3951.49s-15.28,64.21-28.31,72.39-59.9-37.2-59.9-37.2l24.93-21.96,24.56,26.79,29.02-48.74,9.7,8.72Z" fill="#fca19f"/>
          <path id="Trazado_3400" data-name="Trazado 3400" d="M5661.239,3961.38l11.53,19.72s-14.14,3.72-29.02,29.39l-14.51-24.19,3.35-25.67,15.25-6.7,13.4,7.45Z" fill="#242638"/>
          <path id="Trazado_3401" data-name="Trazado 3401" d="M5744.969,3891.61a16.193,16.193,0,0,0-3.92,3.21c.12.34,4.19.27,5.06-.04a1.684,1.684,0,0,0-1.14-3.17Z" fill="#bbe07c"/>
          <path id="Trazado_3402" data-name="Trazado 3402" d="M5739.069,3902.52a10.026,10.026,0,0,0-3.14.29,8.085,8.085,0,0,0,2.63,1.74,1.047,1.047,0,0,0,.51-2.03Z" fill="#bbe07c"/>
          <path id="Trazado_3403" data-name="Trazado 3403" d="M5756.539,3891.66a6.753,6.753,0,0,0-1.6,1.51,5.466,5.466,0,0,0,2.19-.18.727.727,0,0,0-.59-1.33Z" fill="#bbe07c"/>
          <path id="Trazado_3404" data-name="Trazado 3404" d="M5748.329,3911.92a6.887,6.887,0,0,0-2.2-.11,5.836,5.836,0,0,0,1.65,1.47.734.734,0,0,0,.55-1.36Z" fill="#bbe07c"/>
          <path id="Trazado_3405" data-name="Trazado 3405" d="M5753.529,3899.87a11.175,11.175,0,0,0-3.34,1.08c-.01.25,2.64,1.23,3.28,1.25a1.165,1.165,0,1,0,.06-2.33Z" fill="#bbe07c"/>
        </g>
      </g>
    </g>
  </g>
</svg>
