<svg xmlns="http://www.w3.org/2000/svg" xmlns:xlink="http://www.w3.org/1999/xlink" width="260.63" height="294.513" viewBox="0 0 260.63 294.513">
  <defs>
    <clipPath id="clip-path">
      <path id="Trazado_3128" data-name="Trazado 3128" d="M5104.462,3958.14a130.315,130.315,0,1,0-130.32,130.32,130.31,130.31,0,0,0,130.32-130.32" fill="none"/>
    </clipPath>
  </defs>
  <g id="Grupo_10021" data-name="Grupo 10021" transform="translate(4194 -2892.83)">
    <path id="Trazado_6357" data-name="Trazado 6357" d="M93.868,7.467H88.5v3.2h4.639v2.549H88.5V19H85.547V4.889h8.32Zm9.961,8.809a9.392,9.392,0,0,0,.244,2.451V19h-2.627l-.225-1.094a3.264,3.264,0,0,1-1.406.967A5.183,5.183,0,0,1,98,19.2a4.776,4.776,0,0,1-.937-.088,3.187,3.187,0,0,1-.845-.3,2.564,2.564,0,0,1-.7-.522,2.291,2.291,0,0,1-.469-.8,3.17,3.17,0,0,1-.176-1.089,3.02,3.02,0,0,1,.186-1.089,2.552,2.552,0,0,1,.488-.815,2.962,2.962,0,0,1,.791-.6,6.053,6.053,0,0,1,1-.43,11.9,11.9,0,0,1,1.191-.312l1.65-.371a1.82,1.82,0,0,0,.747-.317.633.633,0,0,0,.22-.5A1.036,1.036,0,0,0,100.65,11a2.3,2.3,0,0,0-1.2-.293,1.721,1.721,0,0,0-1.963,1.533L95,11.793A3.371,3.371,0,0,1,96.456,9.5a5.783,5.783,0,0,1,3.154-.737q4.219,0,4.219,3.623Zm-4.951,1.016a2.262,2.262,0,0,0,1.738-.728,3.066,3.066,0,0,0,.674-2.153l-2.383.674a2.816,2.816,0,0,0-1,.41.842.842,0,0,0-.347.723.935.935,0,0,0,.371.8A1.536,1.536,0,0,0,98.878,17.291ZM110.167,19a3.032,3.032,0,0,1-2.266-.815,3.172,3.172,0,0,1-.8-2.319V11.119h-1.973V8.961h.635a1.656,1.656,0,0,0,1.25-.42,2.162,2.162,0,0,0,.4-1.494V5.719h2.539V8.961h2.07v2.158h-2.07v4.443q0,1.3,1.162,1.3h.908V19Zm5.469-11.543a1.579,1.579,0,0,1-1.152-.474A1.555,1.555,0,0,1,114,5.836a1.536,1.536,0,0,1,.483-1.138,1.584,1.584,0,0,1,1.147-.474,1.626,1.626,0,0,1,1.611,1.611,1.626,1.626,0,0,1-1.611,1.621ZM114.2,19V8.961h2.832V19ZM126.856,8.961h2.676v9.287a7.51,7.51,0,0,1-.376,2.5,4.123,4.123,0,0,1-1.089,1.714,4.539,4.539,0,0,1-1.67.962,7.04,7.04,0,0,1-2.187.313q-3.975,0-5.176-3.115l2.334-1a3.406,3.406,0,0,0,1.084,1.455,2.763,2.763,0,0,0,1.65.469q2.607,0,2.607-3.1V17.281a3.163,3.163,0,0,1-1.265.991,4.2,4.2,0,0,1-1.782.376A4.5,4.5,0,0,1,120.44,17.3a4.638,4.638,0,0,1-.991-1.577,5.83,5.83,0,0,1,0-4.067,4.451,4.451,0,0,1,1-1.558,4.584,4.584,0,0,1,1.465-.977,4.521,4.521,0,0,1,1.772-.352,4.083,4.083,0,0,1,1.86.415,2.967,2.967,0,0,1,1.245,1.108ZM122.545,15.6a2.576,2.576,0,0,0,3.687-.01,2.806,2.806,0,0,0,0-3.818,2.6,2.6,0,0,0-3.7-.015,2.671,2.671,0,0,0-.737,1.929A2.644,2.644,0,0,0,122.545,15.6Zm18.14.674a9.391,9.391,0,0,0,.244,2.451V19H138.3l-.225-1.094a3.264,3.264,0,0,1-1.406.967,5.183,5.183,0,0,1-1.816.322,4.776,4.776,0,0,1-.937-.088,3.187,3.187,0,0,1-.845-.3,2.563,2.563,0,0,1-.7-.522,2.291,2.291,0,0,1-.469-.8,3.17,3.17,0,0,1-.176-1.089,3.019,3.019,0,0,1,.186-1.089,2.552,2.552,0,0,1,.488-.815,2.962,2.962,0,0,1,.791-.6,6.052,6.052,0,0,1,1-.43,11.9,11.9,0,0,1,1.191-.312l1.65-.371a1.82,1.82,0,0,0,.747-.317.633.633,0,0,0,.22-.5,1.036,1.036,0,0,0-.493-.967,2.3,2.3,0,0,0-1.2-.293,1.721,1.721,0,0,0-1.963,1.533l-2.49-.449a3.371,3.371,0,0,1,1.455-2.29,5.783,5.783,0,0,1,3.154-.737q4.219,0,4.219,3.623Zm-4.951,1.016a2.262,2.262,0,0,0,1.738-.728,3.066,3.066,0,0,0,.674-2.153l-2.383.674a2.816,2.816,0,0,0-1,.41.842.842,0,0,0-.347.723.935.935,0,0,0,.371.8A1.536,1.536,0,0,0,135.733,17.291Z" transform="translate(-4177 3163.607)" fill="#024e73"/>
    <g id="Grupo_9827" data-name="Grupo 9827" transform="translate(-9037.832 -935)">
      <g id="Grupo_9823" data-name="Grupo 9823">
        <g id="Grupo_9822" data-name="Grupo 9822" clip-path="url(#clip-path)">
          <path id="Trazado_3122" data-name="Trazado 3122" d="M5130.972,3961.49a157.755,157.755,0,1,0-157.76,157.76,157.756,157.756,0,0,0,157.76-157.76Z" fill="#9bd7f5"/>
          <path id="Trazado_3123" data-name="Trazado 3123" d="M4950.882,4021.04l.12,40.74,18.78,71.56-17.69,6.73-27.14-67.38a15.235,15.235,0,0,1-1.49-7.09l1.57-47.75,25.85,3.19Z" fill="#fca19f"/>
          <path id="Trazado_3124" data-name="Trazado 3124" d="M4955.322,3873.03s75.5-10.69,81.48-7.9,8.44,13.77-9.75,61.52l-28.15-9.79,10.48-32.42-57.32-2.03,3.26-9.38Z" fill="#fca19f"/>
          <path id="Trazado_3125" data-name="Trazado 3125" d="M4965.772,3940.52s10.44-7.91,14.92-11.93,20.03-23.91,21.99-26.17l31.56,13.97s-6.83,19.24-9.91,36.79c-1.1,6.29,29.49,50.01,29.49,50.01l35.47,51.73s-14.13,31.67-78.15,54.11c-.77.27-19.41-40.47-20.69-41.79-1.69-1.75-19.29-22.77-39.56-38.36-8.32-6.4-35.55-24.8-27.34-38.31,8.07-13.27,30.3-36.78,30.3-36.78l11.92-13.27Z" fill="#242638"/>
          <path id="Trazado_3126" data-name="Trazado 3126" d="M4940.912,3968.72a64.407,64.407,0,0,0,1.44-8.92c.149-5.83-10.59-22.53-10.59-22.53l22.69-13.6s11.39,15.15,13.05,14.85,9.04,5.74,2.6,15.58-29.19,14.62-29.19,14.62Z" fill="#fca19f"/>
          <path id="Trazado_3127" data-name="Trazado 3127" d="M4931.022,3936.1s1.61,2.37,2.24,3.58c22.55,15.34,30.4,1.53,32.37-2.37-3.76-3.71-11.07-13.43-11.07-13.43l-23.54,12.22Z" fill="#f97070"/>
        </g>
      </g>
      <g id="Grupo_9824" data-name="Grupo 9824">
        <path id="Trazado_3129" data-name="Trazado 3129" d="M4922.062,3889.66a27.287,27.287,0,0,0-11.94,6.96c-5.58,5.44-8.5,12.46-6.72,20.24,1.47,6.39,5.79,10.88,10.31,13.94a42.6,42.6,0,0,0,12.98,5.76c2.98.74,5.95,1.49,8.93,2.23,10.41,2.97,18.95,1.51,25.11-5.9,3.72-4.48,6.2-9.63,4.01-15.37-3.63-9.5-16.87-19.42-25.9-24.81-5.22-3.11-10.77-4.6-16.78-3.05Z" fill="#fca19f"/>
      </g>
      <g id="Grupo_9826" data-name="Grupo 9826">
        <g id="Grupo_9825" data-name="Grupo 9825" clip-path="url(#clip-path)">
          <path id="Trazado_3130" data-name="Trazado 3130" d="M4927.152,3934.28s-2.13-8.9-13.14-17.5c0,0,1.94-6.15,4.68-9.18s8.38-4.84,12.85-11.56a14.518,14.518,0,0,0,1.71-13.11,23.843,23.843,0,0,1-1.49,2.08,49.771,49.771,0,0,0-3.06-8.67s-.86,1.84-6.36,7.42a15.5,15.5,0,0,0-1.36-5.35,42.53,42.53,0,0,1-8.3,11.44c-5.68,5.62-13,13.05-13.16,19.02s.26,6.55.26,6.55-3.66-4.74-3.33-7.25c0,0-1.28,5.73,2.88,9.2a40.468,40.468,0,0,0-1.97,4.32c-.53,1.57,2.48-2.88,2.48-2.88s6.25,16.14,29.19,19.21l-1.88-3.74Z" fill="#242638"/>
          <path id="Trazado_3131" data-name="Trazado 3131" d="M4937.662,3912.06a14.715,14.715,0,0,0,8.32,3.17,2.662,2.662,0,0,1,1.01.18,1.691,1.691,0,0,1,.82,1.64,6.5,6.5,0,0,1-.52,1.87c-.13.34-.44.75-.26,1.07a1.152,1.152,0,0,0,1.22.73" fill="none" stroke="#242638" stroke-linecap="round" stroke-linejoin="round" stroke-width="0.507"/>
          <path id="Trazado_3132" data-name="Trazado 3132" d="M4926.152,3931.64s-4.83,1.06-4.92,4.07,5.66,7.48,11.12,1.61a13.217,13.217,0,0,0-6.2-5.68Z" fill="#fd9997"/>
          <path id="Trazado_3133" data-name="Trazado 3133" d="M4946.922,3899.07s-.29-4.08,2.06-4.28,7.17,4.39,3.83,9.21a14.9,14.9,0,0,1-5.89-4.93Z" fill="#fc9e9c"/>
          <path id="Trazado_3134" data-name="Trazado 3134" d="M4899.782,3915.42s-2.96-6.6-1.24-12.87,10.26-14.79,11.58-19.48c0,0,1.53,5.29-1.15,12.33a79.894,79.894,0,0,0-3.75,13.28l-5.44,6.74Z" fill="#242638"/>
          <path id="Trazado_3135" data-name="Trazado 3135" d="M4932.852,3891.97s9.57,3.6,14.11,6.17c0,0-10.84-9.5-15.16-10.12s1.05,3.95,1.05,3.95Z" fill="#242638"/>
          <path id="Trazado_3136" data-name="Trazado 3136" d="M4940.932,3897.66c-.45-1.31-2.01.68-2.86,2.03s-4.01,2.95-4.85,3.93.69,3.23,2.57,2.06,6.32-4.56,5.14-8.02Z" fill="#242638"/>
          <path id="Trazado_3137" data-name="Trazado 3137" d="M4924.5,3921.46c-1.379.1-.149-2.11.761-3.42s1.16-4.84,1.73-6,3.25-.62,2.9,1.57-1.74,7.59-5.391,7.85Z" fill="#242638"/>
          <path id="Trazado_3138" data-name="Trazado 3138" d="M4955.932,3920.09s-7.1.8-8.931,10.9m-5.109-29.03a4.678,4.678,0,0,0-2.13,5.7c2.04,4.89,9.45,1.07,7.21-3.56-1.35-2.79-5.27-1.5-6.08,1.02a2.651,2.651,0,0,0,.73,2.8,2.794,2.794,0,0,0,3.36-.1,2.274,2.274,0,0,0,1.02-1.84,1.776,1.776,0,0,0-1.36-1.58,1.957,1.957,0,0,0-1.96.78,1.321,1.321,0,0,0-.03,1.59c.38.42,1.27.25,1.32-.32l.06-.21.12.09m-11.38,9.84a4.677,4.677,0,0,0-2.13,5.7c2.04,4.89,9.45,1.07,7.21-3.56-1.351-2.79-5.27-1.5-6.08,1.01a2.663,2.663,0,0,0,.73,2.81,2.794,2.794,0,0,0,3.36-.1,2.272,2.272,0,0,0,1.02-1.84,1.776,1.776,0,0,0-1.36-1.58,1.957,1.957,0,0,0-1.96.78,1.321,1.321,0,0,0-.03,1.59c.38.42,1.27.25,1.32-.32l.06-.21.12.09" fill="none" stroke="#242638" stroke-linecap="round" stroke-linejoin="round" stroke-width="0.529"/>
          <path id="Trazado_3139" data-name="Trazado 3139" d="M4922.842,3992.37c-3.72,8.25-3.86,60.21-3.86,60.21s18.3,5.8,36.18-4.06l-1.89-23.69-30.43-32.46Z" fill="#242638"/>
          <path id="Trazado_3140" data-name="Trazado 3140" d="M4920.2,3907.91c6.18-28.58,7.63-52.51,3.23-53.46s-12.97,21.44-19.15,50.02-7.62,52.51-3.22,53.46,12.97-21.44,19.14-50.02Zm-1.68,4.02c22.61-18.53,38.63-36.37,35.78-39.85s-23.49,8.72-46.11,27.25-38.63,36.38-35.78,39.85,23.49-8.72,46.11-27.25Z" fill="none" stroke="#242638" stroke-linecap="round" stroke-linejoin="round" stroke-width="0.529"/>
          <path id="Trazado_3141" data-name="Trazado 3141" d="M4957.392,3882.16s-6.09,3.13-17.7,4.24c0,0-11.4,7.11-12.32,6.31s6.03-5.99,6.03-5.99-10.16,4.74-10.91,3.09,11.06-7.15,11.06-7.15-14.66,6.03-15.23,3.99,13.63-7.58,13.63-7.58-10.5,1.99-11.11.28,15.86-8.06,20.09-8.77,16.08,2.43,16.08,2.43l.38,9.15Z" fill="#fca19f"/>
          <path id="Trazado_3142" data-name="Trazado 3142" d="M4872.652,3918.96l1.98,2.46,3.16-.24-1.73,2.66,1.2,2.92-3.05-.82-2.42,2.05-.15-3.17-2.7-1.66,2.96-1.13.75-3.07Z" fill="#fce6a3"/>
          <path id="Trazado_3143" data-name="Trazado 3143" d="M4939.152,3860.62l1.99,2.47,3.16-.24-1.73,2.65,1.2,2.93-3.06-.83-2.41,2.05-.16-3.16-2.69-1.66,2.96-1.13.74-3.08Z" fill="#fce6a3"/>
          <path id="Trazado_3144" data-name="Trazado 3144" d="M4904.922,3931.53l1.99,2.47,3.16-.24-1.74,2.65,1.21,2.93-3.06-.83-2.41,2.05-.16-3.16-2.69-1.67,2.95-1.12.75-3.08Z" fill="#fce6a3"/>
          <path id="Trazado_3145" data-name="Trazado 3145" d="M4887.362,3938.25l2.09,1.02,2.02-1.14-.32,2.3,1.71,1.57-2.29.41-.96,2.11-1.09-2.05-2.32-.27,1.62-1.67-.46-2.28Z" fill="#fce6a3"/>
          <path id="Trazado_3146" data-name="Trazado 3146" d="M4917.382,3868.37l2.09,1.02,2.03-1.15-.32,2.31,1.71,1.57-2.29.4-.97,2.12-1.09-2.05-2.31-.27,1.62-1.67-.47-2.28Z" fill="#fce6a3"/>
        </g>
      </g>
    </g>
  </g>
</svg>
