<?xml version="1.0" encoding="utf-8"?>
<!-- Generator: Adobe Illustrator 22.1.0, SVG Export Plug-In . SVG Version: 6.00 Build 0)  -->
<svg version="1.1" id="Layer_1" xmlns="http://www.w3.org/2000/svg" xmlns:xlink="http://www.w3.org/1999/xlink" x="0px" y="0px"
	 viewBox="0 0 512 512" style="enable-background:new 0 0 512 512;" xml:space="preserve">
<style type="text/css">
	.st0{fill:#FF6712;}
	.st1{fill:#364563;}
</style>
<path class="st0" d="M340.9,174.8l-120,120l-49.7-49.7c-7.8-7.8-20.5-7.8-28.3,0c-7.8,7.8-7.8,20.5,0,28.3l63.9,63.9
	c7.8,7.8,20.5,7.8,28.3,0l134.2-134.2c7.8-7.8,7.8-20.5,0-28.3C361.4,167,348.7,167,340.9,174.8z"/>
<path class="st1" d="M256,0C114.5,0,0,114.5,0,256c0,141.5,114.5,256,256,256c141.5,0,256-114.5,256-256C512,114.5,397.5,0,256,0z
	 M256,472c-119.4,0-216-96.6-216-216c0-119.4,96.6-216,216-216c119.4,0,216,96.6,216,216C472,375.4,375.4,472,256,472z"/>
</svg>
