<svg xmlns="http://www.w3.org/2000/svg" width="920" height="182.078" viewBox="0 0 920 182.078">
  <g id="Grupo_1460" data-name="Grupo 1460" transform="translate(-110 -5174.255)">
    <rect id="Rectángulo_787" data-name="Rectángulo 787" width="732" height="105" rx="12" transform="translate(298 5238)" fill="#dff3fd"/>
    <text id="Actividad_didáctica:_" data-name="Actividad didáctica:
" transform="translate(333 5259)" fill="#002b45" font-size="24" font-family="Montserrat-Bold, Montserrat" font-weight="700"><tspan x="0" y="23">Actividad didáctica:</tspan></text>
    <text id="Manejo_del_cadáver_confirmado_y_sospechoso_por_COVID-19_en_casa._" data-name="Manejo del cadáver confirmado y sospechoso por COVID-19 en casa.
" transform="translate(333 5293)" fill="#002b45" font-size="20" font-family="OpenSans, Open Sans"><tspan x="0" y="21">Manejo del cadáver confirmado y sospechoso por COVID-19 en casa.</tspan></text>
    <g id="Grupo_1459" data-name="Grupo 1459" transform="translate(-325.395 34.255)">
      <g id="Grupo_1457" data-name="Grupo 1457" transform="translate(461.558 5140)">
        <path id="Trazado_7446" data-name="Trazado 7446" d="M232.3,56.192a2.962,2.962,0,0,1-2.963-2.963V34.713a2.963,2.963,0,1,1,5.925,0V53.229A2.962,2.962,0,0,1,232.3,56.192Z" transform="translate(-173.205 -31.75)" fill="#002b45"/>
        <path id="Trazado_7447" data-name="Trazado 7447" d="M227.553,51.33a2.965,2.965,0,0,1-2.569-1.481l-4.628-8.017a2.963,2.963,0,1,1,5.131-2.963l4.631,8.017a2.963,2.963,0,0,1-2.566,4.444Z" transform="translate(-191.607 -20.687)" fill="#002b45"/>
        <path id="Trazado_7448" data-name="Trazado 7448" d="M229.388,57.875a2.939,2.939,0,0,1-1.478-.4L211.872,48.22a2.964,2.964,0,1,1,2.963-5.134l16.037,9.258a2.964,2.964,0,0,1-1.484,5.531Z" transform="translate(-210.388 -10.285)" fill="#002b45"/>
        <path id="Trazado_7449" data-name="Trazado 7449" d="M245.831,57.875a2.964,2.964,0,0,1-1.484-5.531l16.034-9.258a2.964,2.964,0,1,1,2.963,5.134l-16.034,9.258A2.939,2.939,0,0,1,245.831,57.875Z" transform="translate(-146.646 -10.285)" fill="#002b45"/>
        <path id="Trazado_7450" data-name="Trazado 7450" d="M240.108,51.33a2.965,2.965,0,0,1-2.566-4.444l4.631-8.017a2.963,2.963,0,0,1,5.131,2.963l-4.628,8.017A2.965,2.965,0,0,1,240.108,51.33Z" transform="translate(-157.872 -20.687)" fill="#002b45"/>
      </g>
      <path id="Trazado_7451" data-name="Trazado 7451" d="M268.538,132.185a2.963,2.963,0,0,1-2.726-1.8l-5.437-12.748-7.827,4.687a2.963,2.963,0,0,1-4.486-2.542l-.024-43.472a2.96,2.96,0,0,1,5.013-2.139l31.363,30.1a2.965,2.965,0,0,1-1.268,5l-8.805,2.409,5.439,12.745a2.964,2.964,0,0,1-1.561,3.887l-8.518,3.632A2.944,2.944,0,0,1,268.538,132.185Zm-6.767-21.794a3.042,3.042,0,0,1,.915.142,2.972,2.972,0,0,1,1.81,1.656l5.6,13.148,3.069-1.31-5.608-13.143a2.961,2.961,0,0,1,1.944-4.023l7.042-1.926L253.967,83.262l.018,31.3,6.263-3.751A2.962,2.962,0,0,1,261.771,110.392Z" transform="translate(325.068 5189.893)" fill="#002b45"/>
      <path id="Trazado_7452" data-name="Trazado 7452" d="M292.144,139.668a6.3,6.3,0,0,0-6.3,6.3,2.963,2.963,0,1,1-5.925,0,6.3,6.3,0,0,0-6.3-6.3H211.781a5.931,5.931,0,0,1-5.925-5.925V56.956a5.89,5.89,0,0,0-2.3,4.651v75.469A5.931,5.931,0,0,0,209.482,143h64.145a2.96,2.96,0,0,1,2.963,2.963,6.3,6.3,0,1,0,12.591,0A2.96,2.96,0,0,1,292.144,143h37.4v-3.333Z" transform="translate(237.763 5157.722)" fill="none"/>
      <path id="Trazado_7453" data-name="Trazado 7453" d="M256.333,56.955v59.852l2.3,2.21V61.609A5.9,5.9,0,0,0,256.333,56.955Z" transform="translate(341.346 5157.72)" fill="none"/>
      <g id="Grupo_1458" data-name="Grupo 1458" transform="translate(435.395 5198.88)">
        <path id="Trazado_7454" data-name="Trazado 7454" d="M363.841,60.847v-3.3a5.931,5.931,0,0,0-5.925-5.925H296.07a12.144,12.144,0,0,0-9.258,4.337,12.144,12.144,0,0,0-9.258-4.337H215.707a5.931,5.931,0,0,0-5.925,5.925v3.3a11.83,11.83,0,0,0-8.224,11.226v75.469a11.863,11.863,0,0,0,11.851,11.851h61.544a12.225,12.225,0,0,0,23.719,0h34.8l0-5.925h-37.4a2.96,2.96,0,0,0-2.963,2.963,6.3,6.3,0,1,1-12.591,0,2.96,2.96,0,0,0-2.963-2.963H213.408a5.931,5.931,0,0,1-5.925-5.925V72.072a5.89,5.89,0,0,1,2.3-4.651v76.787a5.931,5.931,0,0,0,5.925,5.925h61.846a6.3,6.3,0,0,1,6.3,6.3,2.963,2.963,0,1,0,5.925,0,6.3,6.3,0,0,1,6.3-6.3h37.4l-.006-5.925H296.07a12.144,12.144,0,0,0-9.258,4.337,12.144,12.144,0,0,0-9.258-4.337H215.707V64.974a2.748,2.748,0,0,0,0-3.582V57.549h61.846a6.3,6.3,0,0,1,6.3,6.3v74.067a2.963,2.963,0,1,0,5.925,0V63.845a6.3,6.3,0,0,1,6.3-6.3h61.846V61.4a2.746,2.746,0,0,0,0,3.573v56.611l5.925,5.688V67.418a5.9,5.9,0,0,1,2.3,4.654V129.48l5.925,5.688v-63.1A11.823,11.823,0,0,0,363.841,60.847Z" transform="translate(-201.557 -51.624)" fill="#ff6b00"/>
        <path id="Trazado_7455" data-name="Trazado 7455" d="M235.187,70.05a2.963,2.963,0,0,0,0-5.925H216.671a2.963,2.963,0,0,0,0,5.925Z" transform="translate(-177.708 -27.088)" fill="#ff6b00"/>
        <path id="Trazado_7456" data-name="Trazado 7456" d="M250.579,72.458H213.546a2.963,2.963,0,0,0,0,5.925h37.034a2.963,2.963,0,1,0,0-5.925Z" transform="translate(-183.842 -10.733)" fill="#ff6b00"/>
        <path id="Trazado_7457" data-name="Trazado 7457" d="M250.579,68.292H213.546a2.963,2.963,0,0,0,0,5.925h37.034a2.963,2.963,0,1,0,0-5.925Z" transform="translate(-183.842 -18.91)" fill="#ff6b00"/>
      </g>
    </g>
  </g>
</svg>
