<svg xmlns="http://www.w3.org/2000/svg" width="69.566" height="79.504" viewBox="0 0 69.566 79.504">
  <g id="Grupo_867" data-name="Grupo 867" transform="translate(-3328.699 -4027.557)">
    <path id="Trazado_1157" data-name="Trazado 1157" d="M3343.606,4027.557a4.984,4.984,0,0,0-4.969,4.969v69.566a4.984,4.984,0,0,0,4.969,4.969h49.69a4.983,4.983,0,0,0,4.969-4.969v-54.659l-19.876-19.876Z" fill="#f2f2f2"/>
    <path id="Trazado_1160" data-name="Trazado 1160" d="M3388.327,4092.154a2.485,2.485,0,0,1-2.484,2.485h-54.66a2.485,2.485,0,0,1-2.484-2.485v-24.845a2.485,2.485,0,0,1,2.484-2.485h54.66a2.485,2.485,0,0,1,2.484,2.485Z" fill="#f15642"/>
    <g id="Grupo_855" data-name="Grupo 855">
      <path id="Trazado_1161" data-name="Trazado 1161" d="M3339.529,4074.631a1.367,1.367,0,0,1,1.349-1.372h4.589a4.969,4.969,0,0,1,0,9.938h-3.315v2.624a1.242,1.242,0,0,1-1.108,1.363,1.151,1.151,0,0,1-.164.006,1.338,1.338,0,0,1-1.349-1.329v-.04Zm2.621,1.13v4.949h3.317a2.484,2.484,0,0,0,0-4.949Z" fill="#fff"/>
      <path id="Trazado_1162" data-name="Trazado 1162" d="M3354.267,4087.185a1.242,1.242,0,0,1-1.365-1.106,1.211,1.211,0,0,1-.007-.136v-11.285a1.352,1.352,0,0,1,1.372-1.242h4.549c9.078,0,8.88,13.747.179,13.747Zm1.242-11.322v8.9h3.3c5.364,0,5.6-8.9,0-8.9Z" fill="#fff"/>
      <path id="Trazado_1163" data-name="Trazado 1163" d="M3370.916,4076.03v3.157h5.065a1.537,1.537,0,0,1,1.432,1.409,1.383,1.383,0,0,1-1.432,1.193h-5.065v4.171a1.179,1.179,0,0,1-1.125,1.229h-.066a1.262,1.262,0,0,1-1.4-1.107c0-.041-.007-.082-.008-.123v-11.285a1.258,1.258,0,0,1,1.408-1.242h6.975a1.242,1.242,0,0,1,1.382,1.084,1.441,1.441,0,0,1,.009.158,1.372,1.372,0,0,1-1.391,1.352h-5.784Z" fill="#fff"/>
    </g>
    <path id="Trazado_1164" data-name="Trazado 1164" d="M3385.843,4094.639h-47.206v2.484h47.206a2.484,2.484,0,0,0,2.484-2.484v-2.485A2.485,2.485,0,0,1,3385.843,4094.639Z" fill="#e6e6e6"/>
    <path id="Trazado_1158" data-name="Trazado 1158" d="M3383.358,4047.433h14.907l-19.876-19.876v14.907A4.984,4.984,0,0,0,3383.358,4047.433Z" fill="#b3b3b3"/>
  </g>
</svg>
