<?xml version="1.0" encoding="utf-8"?>
<!-- Generator: Adobe Illustrator 22.1.0, SVG Export Plug-In . SVG Version: 6.00 Build 0)  -->
<svg version="1.1" id="Layer_1" xmlns="http://www.w3.org/2000/svg" xmlns:xlink="http://www.w3.org/1999/xlink" x="0px" y="0px"
	 viewBox="0 0 213 209" style="enable-background:new 0 0 213 209;" xml:space="preserve">
<style type="text/css">
	.st0{fill:#DFF3FD;}
	.st1{fill:#00223D;}
	.st2{fill:#ECEAEC;}
	.st3{fill:#DAD8DB;}
	.st4{fill:#C8C5C9;}
	.st5{fill:#FFE09F;}
	.st6{fill:#B6B1B7;}
	.st7{fill:#FAF5DC;}
	.st8{fill:#F5EBCD;}
	.st9{fill:#C3DDFF;}
	.st10{fill:#A4CCFF;}
	.st11{fill:#F6D190;}
	.st12{fill:#4D4D4D;}
</style>
<g>
	<g id="Grupo_9961">
		<path id="Rectángulo_2765" class="st0" d="M12,155h189c6.6,0,12,5.4,12,12v30c0,6.6-5.4,12-12,12H12c-6.6,0-12-5.4-12-12v-30
			C0,160.4,5.4,155,12,155z"/>
		<g id="_02._AISLAR">
			<g id="Grupo_9969">
				<path id="Trazado_4078" class="st1" d="M59,189.2c-1.5,0.1-2.9-0.6-3.8-1.8c-1.8-3.4-1.8-7.5,0-10.9c1.7-2.1,4.8-2.4,6.8-0.7
					c0.3,0.2,0.5,0.5,0.7,0.7c1.8,3.4,1.8,7.5,0,10.9C61.9,188.6,60.5,189.3,59,189.2z M59,186.7c0.7,0,1.4-0.5,1.7-1.2
					c0.8-2.3,0.8-4.8,0-7.1c-0.3-0.7-0.9-1.1-1.7-1.2c-1.5,0-2.3,1.6-2.3,4.7C56.7,185.1,57.5,186.7,59,186.7L59,186.7z"/>
				<path id="Trazado_4079" class="st1" d="M69.9,186.5h6v2.5h-10v-2.1l5.6-5.7c0.7-0.6,1.2-1.5,1.2-2.4c0-0.5-0.2-1-0.5-1.3
					c-0.4-0.3-0.9-0.5-1.4-0.5c-1.3,0-2,0.8-2,2.3v1L66,180v-0.7c-0.1-1.3,0.4-2.5,1.3-3.4c1-0.8,2.2-1.3,3.5-1.2
					c1.2-0.1,2.4,0.3,3.4,1.1c0.9,0.7,1.4,1.8,1.3,3c0,0.7-0.1,1.3-0.4,1.9c-0.4,0.7-0.9,1.3-1.4,1.9L69.9,186.5z"/>
				<path id="Trazado_4080" class="st1" d="M80.1,189.2c-0.9,0-1.6-0.7-1.6-1.6c0-0.4,0.2-0.8,0.5-1.1c0.3-0.3,0.7-0.5,1.1-0.5
					c0.9,0,1.6,0.7,1.6,1.6c0,0.4-0.2,0.8-0.5,1.1C80.9,189,80.5,189.2,80.1,189.2z"/>
				<path id="Trazado_4081" class="st1" d="M99.8,189l-1-2.9h-5.9l-1,2.9h-3l5.2-14.1h3.6l5.2,14.1H99.8z M93.7,183.6h4.2l-2.1-6
					L93.7,183.6z"/>
				<path id="Trazado_4082" class="st1" d="M104.9,189v-14.1h2.9V189H104.9z"/>
				<path id="Trazado_4083" class="st1" d="M116.2,189.2c-1.4,0-2.8-0.3-3.9-1.1c-1-0.7-1.7-1.8-1.9-3l3-0.7
					c0.1,0.7,0.4,1.3,0.9,1.8c0.6,0.4,1.3,0.6,2,0.6c0.5,0,1.1-0.1,1.5-0.4c0.4-0.3,0.6-0.8,0.6-1.3c0-0.4-0.2-0.8-0.5-1
					c-0.3-0.3-0.6-0.5-1-0.6c-0.3-0.1-0.9-0.3-1.6-0.5c-0.1,0-0.2-0.1-0.2-0.1c-0.4-0.1-0.7-0.2-0.9-0.3s-0.5-0.2-0.8-0.3
					c-0.3-0.1-0.6-0.3-0.8-0.4c-0.2-0.2-0.5-0.3-0.7-0.5c-0.2-0.2-0.4-0.4-0.6-0.7c-0.1-0.3-0.3-0.5-0.3-0.8c-0.1-0.3-0.1-0.7-0.1-1
					c0-0.8,0.2-1.6,0.7-2.2c0.4-0.6,1.1-1.1,1.8-1.4c0.8-0.3,1.7-0.5,2.5-0.5c0.6,0,1.2,0.1,1.8,0.2c0.6,0.1,1.1,0.3,1.6,0.6
					c0.5,0.3,1,0.7,1.3,1.2c0.4,0.5,0.6,1.1,0.7,1.7l-2.8,0.7c-0.1-1.3-1.3-2.2-2.5-2c0,0,0,0,0,0c-0.6,0-1.1,0.1-1.6,0.4
					c-0.4,0.3-0.6,0.7-0.6,1.2c0,0.5,0.3,0.9,1,1.3c0.6,0.3,1.3,0.5,2,0.7c0.4,0.1,0.7,0.2,0.9,0.3c0.2,0.1,0.5,0.2,0.9,0.3
					c0.3,0.1,0.6,0.3,0.9,0.4c0.3,0.2,0.5,0.3,0.7,0.5c0.2,0.2,0.5,0.4,0.6,0.7c0.2,0.3,0.3,0.6,0.4,0.9c0.1,0.4,0.2,0.7,0.2,1.1
					c0,0.5-0.1,1.1-0.3,1.6c-0.2,0.4-0.4,0.9-0.8,1.2c-0.3,0.3-0.7,0.6-1.2,0.8c-0.5,0.2-0.9,0.4-1.4,0.5
					C117.3,189.1,116.7,189.2,116.2,189.2z"/>
				<path id="Trazado_4084" class="st1" d="M127.1,186.4h4.4v2.6h-7.4v-14.1h2.9V186.4z"/>
				<path id="Trazado_4085" class="st1" d="M143.6,189l-1-2.9h-5.9l-1,2.9h-3l5.2-14.1h3.6l5.2,14.1H143.6z M137.5,183.6h4.2l-2.1-6
					L137.5,183.6z"/>
				<path id="Trazado_4086" class="st1" d="M156.1,189l-3.7-6.2h-0.8v6.2h-2.9v-14.1h5.1c0.7,0,1.4,0.1,2.1,0.3
					c0.5,0.2,1,0.5,1.4,0.9c0.4,0.4,0.6,0.8,0.8,1.3c0.2,0.5,0.3,1.1,0.3,1.7c0,0.8-0.2,1.7-0.8,2.3c-0.6,0.6-1.4,1.1-2.2,1.2
					l4.2,6.4H156.1z M151.6,177.3v3.4h1.7c1.5,0,2.2-0.6,2.2-1.7c0-0.5-0.2-0.9-0.5-1.2c-0.5-0.3-1.1-0.5-1.7-0.5H151.6z"/>
			</g>
		</g>
	</g>
	<g id="Grupo_9950">
		<path id="Trazado_3995" class="st2" d="M146.3,95.8L132.3,90c-2.2-0.9-4-2.6-5-4.8c-1.4-3.2-0.7-7,1.8-9.5
			c5.5-5.8,8.6-13.5,8.6-21.5V35.1c0-16.8-12.9-31.2-29.6-32C90.1,2.3,77.5,16.5,77.5,34.2v20c0,8.2,2.1,15.3,7.3,20.8
			c1.3,1.3,2.3,2.9,3,4.6c1.2,4.4-2.6,8.5-6.6,10.1l-14.5,6c-4.1,1.7-6.8,5.8-6.8,10.3v34.8h42.2l4.9-2.1l4,2.1h42.2v-34.8
			C153.2,101.6,150.5,97.6,146.3,95.8L146.3,95.8z"/>
		<path id="Trazado_3996" class="st3" d="M93.2,59.8V6.1c-10.9,5.1-17.8,16.1-17.8,28.1v20c0,7.9,3,15.5,8.4,21.3l0,0
			c1.1,1.1,1.9,2.4,2.4,3.9c1.2,4.2-1,8.7-5,10.4l0.1,1.5c7.5,4.8,16.3,7.4,25.2,7.4V85.3h0.1C98.2,79.5,93.2,70,93.2,59.8
			L93.2,59.8z"/>
		<path id="Trazado_3997" class="st4" d="M82,109.8c-2.5,0-4.4,2-4.5,4.4c0,0,0,0,0,0v6.7h8.9v-6.7C86.5,111.8,84.5,109.8,82,109.8
			L82,109.8z"/>
		<path id="Trazado_3998" class="st5" d="M119.8,29.8H93.2c-4.9,0-8.9,4-8.9,8.9h44.5C128.7,33.8,124.8,29.8,119.8,29.8z"/>
		<path id="Trazado_3999" class="st4" d="M126.5,38.7h11.1v8.9h-11.1L126.5,38.7z"/>
		<path id="Trazado_4000" class="st6" d="M75.4,38.7h11.1v8.9H75.4V38.7z"/>
		<path id="Trazado_4001" class="st7" d="M84.3,47.6v6.7c0,12.3,10,22.2,22.2,22.2c12.3,0,22.2-10,22.2-22.2l0,0l0,0v-6.7H84.3z"/>
		<path id="Trazado_4002" class="st8" d="M84.3,47.6v6.7c0,8.5,4.8,16.2,12.4,19.9c-2.3-4.4-3.5-9.4-3.5-14.4V47.6L84.3,47.6z"/>
		<path id="Trazado_4003" class="st9" d="M73.2,132h17.8c1.2,0,2.2-1,2.2-2.2v-8.9c0-1.2-1-2.2-2.2-2.2H73.2c-1.2,0-2.2,1-2.2,2.2
			v8.9C70.9,131,71.9,132,73.2,132z"/>
		<path id="Trazado_4004" class="st9" d="M128.7,47.6c0,3.7-3,6.7-6.7,6.7l0,0h-8.9c-1.2,0-2.2-1-2.2-2.2c0-2.5-2-4.4-4.4-4.4
			c-2.5,0-4.4,2-4.4,4.4l0,0c0,1.2-1,2.2-2.2,2.2h-8.9c-3.7,0-6.7-3-6.7-6.7c0,0,0,0,0,0l0,0v-8.9h44.5V47.6z"/>
		<path id="Trazado_4005" class="st10" d="M106.5,20.9c2.5,0,4.4-2,4.4-4.4c0,0,0,0,0,0l0,0v-13c-1-0.1-1.9-0.2-2.9-0.3
			c-2-0.1-4,0-6,0.3v13C102.1,18.9,104,20.9,106.5,20.9L106.5,20.9z"/>
		<path id="Trazado_4006" class="st11" d="M84.3,38.7h8.9v-8.9C88.3,29.8,84.3,33.8,84.3,38.7L84.3,38.7z"/>
		<g id="Grupo_9949">
			<path id="Trazado_4007" class="st10" d="M93.2,54.2h-2.2c-3.7,0-6.7-3-6.7-6.7c0,0,0,0,0,0l0,0v-8.9h8.9L93.2,54.2L93.2,54.2z"/>
			<path id="Trazado_4008" class="st10" d="M106.5,85.4c-2.5,0-4.4,2-4.4,4.4c0,0,0,0,0,0v51.1h8.9V89.8
				C111,87.3,109,85.4,106.5,85.4L106.5,85.4z"/>
		</g>
	</g>
	<g id="Grupo_9951">
		<path id="Trazado_4009" class="st12" d="M147.1,93.9l-14.5-6c-2.5-1-4.1-3.4-4.1-6.1c0-1.8,0.7-3.4,1.9-4.7
			c5.9-6.2,9.2-14.4,9.2-22.9v-20c-0.1-18.3-15-33.1-33.4-33c-18.2,0.1-32.9,14.8-33,33v20c0,3.2,0.5,6.4,1.4,9.5
			c0.3,1.1,1.5,1.7,2.6,1.4c1.1-0.3,1.7-1.5,1.4-2.6l0,0c-0.8-2.7-1.2-5.5-1.2-8.3v-4.6h4.7v4.6c0.2,13.4,11.2,24.2,24.6,24
			c13.2-0.2,23.9-10.8,24-24v-4.6h4.7v4.6c0,7.5-2.9,14.6-8,20c-2,2-3.1,4.7-3.1,7.5c0,3.4,1.6,6.5,4.2,8.6
			c-4.8,2.9-10.1,4.9-15.6,5.8v-6.3c0-3.6-2.9-6.5-6.5-6.5c-3.6,0-6.5,2.9-6.5,6.5v6.3c-5.5-0.9-10.9-2.8-15.6-5.8
			c2.7-2,4.3-5.2,4.2-8.6c0-2.8-1.1-5.5-3.1-7.5c-1-1.1-2-2.2-2.8-3.4c-0.6-1-1.9-1.2-2.9-0.6c-1,0.6-1.2,1.9-0.6,2.9c0,0,0,0,0,0
			c0,0,0,0.1,0.1,0.1c1,1.4,2,2.7,3.2,3.9c1.2,1.2,1.9,2.9,1.9,4.7c0,2.7-1.6,5.1-4.1,6.1l-14.5,6c-4.9,2-8.1,6.8-8.1,12.2v34.8
			c0,1.1,1,2.1,2.1,2c1.1,0,2-0.9,2-2v-34.8c0-3.6,2.2-6.9,5.6-8.3L80,92.5c5.9,4.1,12.8,6.8,19.9,7.8v40.6c0,1.1,0.9,2.1,2,2.1
			c1.1,0,2.1-0.9,2.1-2c0,0,0-0.1,0-0.1V89.8c0-1.3,1.1-2.4,2.4-2.4c1.3,0,2.4,1.1,2.4,2.4c0,0,0,0,0,0l0,0v51.1
			c0,1.1,0.9,2.1,2,2.1c1.1,0,2.1-0.9,2.1-2c0,0,0-0.1,0-0.1v-40.6c7.2-1,14-3.7,19.9-7.8l12.6,5.2c3.4,1.4,5.6,4.7,5.6,8.3v34.8
			c0,1.1,1,2.1,2.1,2c1.1,0,2-0.9,2-2v-34.8C155.3,100.8,152.1,96,147.1,93.9L147.1,93.9z M108.9,5.3v11.2c0,1.3-1.1,2.4-2.4,2.4
			c-1.3,0-2.4-1.1-2.4-2.4c0,0,0,0,0,0V5.3c0.8-0.1,1.6-0.1,2.4-0.1C107.3,5.2,108.1,5.2,108.9,5.3L108.9,5.3z M100,5.9v10.5
			c0,3.6,2.9,6.5,6.5,6.5c3.6,0,6.5-2.9,6.5-6.5V5.9c13.2,3.1,22.5,14.8,22.5,28.3v2.4h-4.9c-1-5.2-5.5-8.9-10.8-8.9H93.2
			c-5.3,0-9.8,3.7-10.8,8.9h-4.9v-2.4C77.5,20.7,86.8,9,100,5.9L100,5.9z M124.3,40.7h2.4v6.8c0,2.5-2.1,4.6-4.6,4.6h-8.9
			c-0.1,0-0.1-0.1-0.1-0.1v0c0-3.6-2.9-6.5-6.5-6.5c-3.6,0-6.5,2.9-6.5,6.5l0,0c0,0.1-0.1,0.1-0.1,0.1h0h-8.9
			c-2.5,0-4.6-2.1-4.6-4.6v-6.8h29c1.1,0,2.1-0.9,2.1-2.1s-0.9-2.1-2.1-2.1H86.7c0.9-2.8,3.5-4.7,6.5-4.7h26.7c3,0,5.6,1.9,6.5,4.7
			h-2c-1.1,0-2.1,0.9-2.1,2.1S123.1,40.7,124.3,40.7L124.3,40.7z M77.5,40.7h4.7v4.7h-4.7V40.7z M106.5,74.4
			c-10.8,0-19.7-8.6-20.1-19.4c1.4,0.8,3,1.3,4.6,1.3h8.9c2.4,0,4.3-1.9,4.3-4.3c0-1.3,1.1-2.4,2.4-2.4c1.3,0,2.4,1.1,2.4,2.4
			c0,0,0,0,0,0c0,2.4,1.9,4.3,4.3,4.3h8.9c1.6,0,3.2-0.4,4.6-1.3C126.2,65.8,117.3,74.4,106.5,74.4L106.5,74.4z M130.8,45.5v-4.7
			h4.7v4.7H130.8z"/>
		<path id="Trazado_4010" class="st12" d="M90.9,116.6h-2.4v-2.4c0-3.6-2.9-6.5-6.5-6.5c-3.6,0-6.5,2.9-6.5,6.5v2.4h-2.4
			c-2.4,0-4.3,1.9-4.3,4.3v8.9c0,2.4,1.9,4.3,4.3,4.3h17.8c2.4,0,4.3-1.9,4.3-4.3v-8.9C95.2,118.5,93.3,116.6,90.9,116.6z
			 M79.7,114.2c0-1.3,1.1-2.4,2.4-2.4c1.3,0,2.4,1.1,2.4,2.4v2.4h-4.7V114.2z M91.1,129.8c0,0.1-0.1,0.1-0.1,0.1l0,0H73.2
			c-0.1,0-0.1-0.1-0.1-0.1v0l0,0v-8.9c0-0.1,0.1-0.1,0.1-0.1h17.8c0.1,0,0.1,0.1,0.1,0.1v0V129.8z"/>
	</g>
</g>
</svg>
