<?xml version="1.0" encoding="utf-8"?>
<!-- Generator: Adobe Illustrator 22.1.0, SVG Export Plug-In . SVG Version: 6.00 Build 0)  -->
<svg version="1.1" id="Layer_1" xmlns="http://www.w3.org/2000/svg" xmlns:xlink="http://www.w3.org/1999/xlink" x="0px" y="0px"
	 viewBox="0 0 213 209" style="enable-background:new 0 0 213 209;" xml:space="preserve">
<style type="text/css">
	.st0{fill:#DFF3FD;}
	.st1{fill:#00223D;}
	.st2{fill:#FF8086;}
	.st3{fill:#E5646E;}
	.st4{fill:#EDF4FF;}
	.st5{fill:#DBEAFF;}
	.st6{fill:#FFFFFF;}
	.st7{fill:#FAF5DC;}
	.st8{fill:#F5EBCD;}
	.st9{fill:#6B1520;}
</style>
<g>
	<g id="Grupo_9962_2_">
		<path id="Rectángulo_2764_2_" class="st0" d="M12,155h189c6.6,0,12,5.4,12,12v30c0,6.6-5.4,12-12,12H12c-6.6,0-12-5.4-12-12v-30
			C0,160.4,5.4,155,12,155z"/>
		<g id="_01._IDENTIFICAR_2_">
			<g id="Grupo_9967_2_">
				<path id="Trazado_4064_2_" class="st1" d="M32,189.2c-1.5,0.1-2.9-0.6-3.8-1.8c-1.8-3.4-1.8-7.5,0-10.9c1.7-2.1,4.8-2.4,6.8-0.7
					c0.3,0.2,0.5,0.5,0.7,0.7c1.8,3.4,1.8,7.5,0,10.9C34.9,188.6,33.5,189.3,32,189.2z M32,186.7c0.7,0,1.4-0.5,1.7-1.2
					c0.8-2.3,0.8-4.8,0-7.1c-0.3-0.7-0.9-1.1-1.7-1.2c-1.5,0-2.3,1.6-2.3,4.7S30.5,186.7,32,186.7z"/>
				<path id="Trazado_4065_2_" class="st1" d="M43.5,174.9h2.7V189h-2.8v-11.2l-3.2,3v-2.9L43.5,174.9z"/>
				<path id="Trazado_4066_2_" class="st1" d="M53.1,189.2c-0.9,0-1.6-0.7-1.6-1.6c0-0.4,0.2-0.8,0.5-1.1c0.3-0.3,0.7-0.5,1.1-0.5
					c0.9,0,1.6,0.7,1.6,1.6c0,0.4-0.2,0.8-0.5,1.1C53.9,189,53.5,189.2,53.1,189.2z"/>
				<path id="Trazado_4067_2_" class="st1" d="M63.4,189v-14.1h2.9V189H63.4z"/>
				<path id="Trazado_4068_2_" class="st1" d="M69.9,189v-14.1H75c1,0,2,0.2,2.9,0.5c0.8,0.3,1.5,0.8,2.1,1.4c0.6,0.6,1,1.4,1.3,2.2
					c0.6,1.9,0.6,3.9,0,5.8c-0.3,0.8-0.7,1.6-1.3,2.2c-0.6,0.6-1.3,1.1-2.1,1.4C77,188.8,76,189,75,189L69.9,189z M72.9,186.4h2
					c1.1,0.1,2.1-0.3,2.9-1.1c1.3-2,1.3-4.6,0-6.7c-0.7-0.8-1.8-1.2-2.9-1.1h-2V186.4z"/>
				<path id="Trazado_4069_2_" class="st1" d="M92.7,177.5h-5.2v3.2h4.6v2.5h-4.6v3.2h5.2v2.6h-8.2v-14.1h8.2V177.5z"/>
				<path id="Trazado_4070_2_" class="st1" d="M105.3,174.9h2.9V189h-3.4l-6.3-10.1V189h-2.9v-14.1h3.3l6.3,10L105.3,174.9z"/>
				<path id="Trazado_4071_2_" class="st1" d="M120.1,174.9v2.6h-3.3V189h-2.9v-11.5h-3.4v-2.6H120.1z"/>
				<path id="Trazado_4072_2_" class="st1" d="M122.3,189v-14.1h2.9V189H122.3z"/>
				<path id="Trazado_4073_2_" class="st1" d="M137.2,177.5h-5.4v3.2h4.6v2.5h-4.6v5.8h-2.9v-14.1h8.3V177.5z"/>
				<path id="Trazado_4074_2_" class="st1" d="M139.7,189v-14.1h2.9V189H139.7z"/>
				<path id="Trazado_4075_2_" class="st1" d="M152.5,189.2c-1,0-2-0.2-2.9-0.5c-0.9-0.3-1.6-0.8-2.3-1.4c-0.7-0.7-1.2-1.4-1.5-2.3
					c-0.4-1-0.6-2-0.5-3c0-1.3,0.3-2.7,0.9-3.8c0.6-1.1,1.5-2,2.6-2.5c1.1-0.6,2.4-0.9,3.7-0.9c1.5,0,2.9,0.4,4.1,1.1
					c1.2,0.7,2.1,1.8,2.5,3.1l-2.7,1c-0.3-0.8-0.8-1.4-1.5-1.9c-0.7-0.5-1.6-0.7-2.4-0.7c-1.2,0-2.3,0.4-3.1,1.2
					c-1.6,1.9-1.6,4.7,0,6.6c0.8,0.8,1.9,1.3,3.1,1.2c0.9,0,1.7-0.2,2.4-0.7c0.7-0.5,1.2-1.1,1.5-1.9l2.7,1
					c-0.5,1.3-1.4,2.4-2.5,3.2C155.4,188.8,154,189.2,152.5,189.2z"/>
				<path id="Trazado_4076_2_" class="st1" d="M171,189l-1-2.9h-5.9l-1,2.9h-3l5.2-14.1h3.6l5.2,14.1H171z M165,183.6h4.2l-2.1-6
					L165,183.6z"/>
				<path id="Trazado_4077_2_" class="st1" d="M183.6,189l-3.7-6.2h-0.8v6.2h-2.9v-14.1h5.1c0.7,0,1.4,0.1,2.1,0.3
					c0.5,0.2,1,0.5,1.4,0.9c0.4,0.4,0.6,0.8,0.8,1.3c0.2,0.5,0.3,1.1,0.3,1.7c0,0.8-0.2,1.7-0.8,2.3c-0.6,0.6-1.4,1.1-2.2,1.2
					l4.2,6.4H183.6z M179.1,177.3v3.4h1.7c1.5,0,2.2-0.6,2.2-1.7c0-0.5-0.2-0.9-0.5-1.2c-0.5-0.3-1.1-0.5-1.7-0.4L179.1,177.3z"/>
			</g>
		</g>
	</g>
	<path id="Trazado_4030_2_" class="st2" d="M144.2,25h-17V10.1H142c1.2,0,2.1,1,2.1,2.1L144.2,25z"/>
	<path id="Trazado_4031_2_" class="st3" d="M118.6,25h8.5V10.1h-6.4c-1.2,0-2.1,1-2.1,2.1L118.6,25z"/>
	<path id="Trazado_4032_2_" class="st4" d="M118.6,25h25.6v85.2h-25.6V25z"/>
	<path id="Trazado_4033_2_" class="st5" d="M118.6,25v84.7l8.5,0.9V37.8c0-3.5,2.9-6.4,6.4-6.4h10.6V25H118.6z"/>
	<path id="Trazado_4034_2_" class="st2" d="M144.2,44.1c-4.3,0-4.3-2.1-8.5-2.1c-4.3,0-4.3,2.1-8.5,2.1c-4.3,0-4.3-2.1-8.5-2.1v68.1
		c0.2,7.1,6,12.6,13.1,12.5c6.8-0.2,12.3-5.7,12.5-12.5L144.2,44.1z"/>
	<path id="Trazado_4035_2_" class="st3" d="M127.1,110.2v-66h0c-4.3,0-4.3-2.1-8.5-2.1v68.1c0,7,5.7,12.8,12.7,12.8
		c1.5,0,2.9-0.2,4.3-0.7C130.5,120.4,127.1,115.6,127.1,110.2z"/>
	<path id="Trazado_4036_2_" class="st6" d="M127.1,54.8H125l-2.1,2.1V91l2.1,2.1h2.1c2.4,0,4.3-1.9,4.3-4.3V59.1
		C131.4,56.7,129.5,54.8,127.1,54.8z"/>
	<path id="Trazado_4037_2_" class="st7" d="M118.6,54.8h6.4v38.3h-6.4V54.8z"/>
	<circle id="Elipse_15_2_" class="st7" cx="163.3" cy="114.4" r="27.7"/>
	<circle id="Elipse_16_2_" class="st2" cx="163.3" cy="114.4" r="10.6"/>
	<path id="Trazado_4038_2_" class="st3" d="M167,121.4c-5.9,0-10.6-4.7-10.6-10.6c0-1.9,0.5-3.8,1.5-5.5c-5.1,3-6.7,9.5-3.7,14.6
		c3,5.1,9.5,6.7,14.6,3.7c1.5-0.9,2.8-2.2,3.7-3.7C170.8,120.9,168.9,121.4,167,121.4z"/>
	<path id="Trazado_4039_2_" class="st8" d="M167.6,137.8c-15.3,0-27.7-12.4-27.7-27.7c0-6.3,2.1-12.4,6.1-17.3
		c-11.9,9.6-13.8,27-4.3,38.9s27,13.8,38.9,4.3c1.6-1.3,3-2.7,4.3-4.3C180,135.7,173.9,137.8,167.6,137.8L167.6,137.8z"/>
	<path id="Trazado_4040_2_" class="st9" d="M180.4,112.4h-4.5c-0.3-2-1.1-3.8-2.2-5.4l3.2-3.2c0.8-0.8,0.8-2,0-2.8
		c-0.8-0.8-2-0.8-2.8,0l-4.5,4.5c-0.8,0.8-0.8,2,0,2.8c0,0,0,0,0,0l0,0c3.4,3.4,3.4,8.9,0,12.2c-3.4,3.4-8.9,3.4-12.2,0
		c-3.4-3.4-3.4-8.9,0-12.2c1.6-1.6,3.8-2.5,6.1-2.5c1.1,0,2-0.9,2-2v-6.4c0-1.1-0.9-2-2-2c-1.1,0-2,0.9-2,2v4.6
		c-2,0.3-3.8,1.1-5.4,2.3l-3.2-3.2c-0.8-0.8-2-0.8-2.8,0c-0.8,0.8-0.8,2,0,2.8l3.2,3.2c-1.2,1.6-1.9,3.5-2.3,5.4h-4.6
		c-1.1,0-2,0.8-2,1.9c0,1.1,0.8,2,1.9,2c0,0,0.1,0,0.1,0h4.6c0.3,2,1.1,3.8,2.3,5.4l-3.2,3.2c-0.8,0.8-0.8,2,0,2.8
		c0.8,0.8,2,0.8,2.8,0l3.2-3.2c1.6,1.2,3.5,1.9,5.4,2.3v4.6c0,1.1,0.9,2,2,2c1.1,0,2-0.9,2-2c0,0,0,0,0,0v-4.6
		c2-0.3,3.8-1.1,5.4-2.3l3.2,3.2c0.8,0.8,2,0.8,2.8,0c0.8-0.8,0.8-2,0-2.8l-3.2-3.2c1.2-1.6,1.9-3.5,2.3-5.4h4.6c1.1,0,2-0.9,1.9-2
		C182.3,113.3,181.4,112.4,180.4,112.4L180.4,112.4z"/>
	<path id="Trazado_4041_2_" class="st9" d="M167,114.5c1.1,0,2-0.8,2-1.9s-0.8-2-1.9-2h-0.1c-1.1,0-2,0.8-2.1,1.9
		c0,1.1,0.8,2,1.9,2.1C166.8,114.5,166.9,114.5,167,114.5L167,114.5z"/>
	<path id="Trazado_4042_2_" class="st9" d="M163.3,120c1.1,0,2-0.9,2-2c0-1.1-0.9-2-2-2h0c-1.1,0-2,0.9-2,2
		C161.3,119.1,162.1,120,163.3,120C163.3,120,163.3,120,163.3,120z"/>
	<path id="Trazado_4043_2_" class="st9" d="M159.7,110.6L159.7,110.6c-1.1,0-2,0.9-2,2c0,1.1,0.9,2,2,2s2-0.9,2-2
		C161.7,111.5,160.8,110.6,159.7,110.6z"/>
	<path id="Trazado_4044_2_" class="st9" d="M163.3,84.7c-16.4,0-29.7,13.3-29.7,29.7s13.3,29.7,29.7,29.7s29.7-13.3,29.7-29.7
		c0,0,0,0,0,0C193,98,179.7,84.7,163.3,84.7C163.3,84.7,163.3,84.7,163.3,84.7z M163.3,140.1c-14.2,0-25.7-11.5-25.7-25.7
		c0-14.2,11.5-25.7,25.7-25.7c14.2,0,25.7,11.5,25.7,25.7l0,0C189,128.6,177.5,140.1,163.3,140.1L163.3,140.1z"/>
	<path id="Trazado_4045_2_" class="st9" d="M127.1,52.8h-6.5v-8.5c0.5,0.2,0.9,0.4,1.4,0.6c3.2,1.7,7.1,1.7,10.3,0
		c2.1-1.1,4.6-1.1,6.7,0c1,0.5,2.1,0.9,3.2,1.1v38.6c0,1.1,0.9,2,2,2c1.1,0,2-0.9,2-2V27h0.1c1.1,0,2-0.8,2-1.9c0-1.1-0.8-2-1.9-2
		c0,0-0.1,0-0.1,0h-0.1V12.2c0-2.3-1.8-4.1-4.1-4.1h-21.3c-2.3,0-4.1,1.8-4.1,4.1V23h-0.1c-1.1,0-2,0.9-1.9,2c0,1.1,0.9,1.9,1.9,1.9
		h0.1v83.2c0,6.3,4,11.8,9.9,13.9c1,0.4,2.2-0.2,2.5-1.2c0.4-1-0.2-2.2-1.2-2.5l0,0c-4.3-1.5-7.2-5.6-7.2-10.2v-15h6.5
		c3.5,0,6.2-2.8,6.2-6.3V59.1C133.4,55.6,130.6,52.8,127.1,52.8L127.1,52.8z M142.2,12.2V23h-4.5V12.1h4.4
		C142.1,12.1,142.2,12.1,142.2,12.2L142.2,12.2z M129.1,23V12.1h4.5V23L129.1,23z M120.6,12.2c0-0.1,0.1-0.1,0.1-0.1c0,0,0,0,0,0
		h4.4V23h-4.5V12.2z M142.2,27v14.9c-0.5-0.2-0.9-0.4-1.4-0.6c-3.2-1.7-7.1-1.7-10.3,0c-2.1,1.1-4.6,1.1-6.7,0c-1-0.5-2-0.9-3.2-1.1
		V27L142.2,27z M129.4,88.9c0,1.3-1,2.3-2.3,2.3h-6.5v-6.7h2.3c1.1,0,2-0.9,1.9-2c0-1.1-0.9-1.9-1.9-1.9h-2.3v-4.5h2.3
		c1.1,0,2-0.9,1.9-2c0-1.1-0.9-1.9-1.9-1.9h-2.3v-4.5h2.3c1.1,0,2-0.9,1.9-2c0-1.1-0.9-1.9-1.9-1.9h-2.3v-6.7h6.5
		c1.3,0,2.3,1,2.3,2.3V88.9z"/>
	<path id="Trazado_4055_2_" class="st2" d="M65,25H48V10.1h14.9c1.2,0,2.1,0.9,2.1,2.1c0,0,0,0,0,0V25z"/>
	<path id="Trazado_4056_2_" class="st3" d="M39.5,25H48V10.1h-6.4c-1.2,0-2.1,1-2.1,2.1L39.5,25z"/>
	<path id="Trazado_4057_2_" class="st4" d="M39.5,25H65v85.2H39.5L39.5,25z"/>
	<path id="Trazado_4058_2_" class="st5" d="M39.5,25v84.7l8.5,0.9V37.8c0-3.5,2.9-6.4,6.4-6.4H65V25H39.5z"/>
	<path id="Trazado_4059_2_" class="st2" d="M65,44.1c-4.3,0-4.3-2.1-8.5-2.1s-4.3,2.1-8.5,2.1S43.7,42,39.5,42v68.1
		c0.2,7.1,6,12.6,13.1,12.5c6.8-0.2,12.3-5.7,12.5-12.5L65,44.1z"/>
	<path id="Trazado_4060_2_" class="st3" d="M48,110.2v-66h0c-4.3,0-4.3-2.1-8.5-2.1v68.1c0,7,5.7,12.8,12.7,12.8
		c1.5,0,2.9-0.2,4.3-0.7C51.4,120.4,48,115.6,48,110.2z"/>
	<path id="Trazado_4061_2_" class="st6" d="M48,54.8h-2.1l-2.1,2.1V91l2.1,2.1H48c2.4,0,4.3-1.9,4.3-4.3V59.1
		C52.3,56.7,50.3,54.8,48,54.8z"/>
	<path id="Trazado_4062_2_" class="st7" d="M39.5,54.8h6.4v38.3h-6.4V54.8z"/>
	<path id="Trazado_4063_2_" class="st9" d="M48,52.8h-6.5v-8.5c0.5,0.2,0.9,0.4,1.4,0.6c3.2,1.7,7.1,1.7,10.3,0
		c2.1-1.1,4.6-1.1,6.7,0c1,0.5,2.1,0.9,3.2,1.1v38.6c0,1.1,0.9,2,2,2c1.1,0,2-0.9,2-2V27h0.1c1.1,0,2-0.8,2-1.9c0-1.1-0.8-2-1.9-2
		c0,0-0.1,0-0.1,0H67V12.2c0-2.3-1.8-4.1-4.1-4.1H41.6c-2.3,0-4.1,1.8-4.1,4.1V23h-0.1c-1.1,0-2,0.8-2,1.9c0,1.1,0.8,2,1.9,2l0,0
		h0.2v83.2c0,6.3,4,11.8,9.9,13.9c1,0.4,2.2-0.2,2.5-1.2c0.4-1-0.2-2.2-1.2-2.5l0,0c-4.3-1.5-7.2-5.6-7.2-10.2v-15H48
		c3.5,0,6.2-2.8,6.2-6.3V59.1C54.2,55.6,51.4,52.8,48,52.8L48,52.8z M63,12.2V23h-4.5V12.1h4.4C63,12.1,63,12.1,63,12.2L63,12.2
		L63,12.2L63,12.2z M50,23V12.1h4.5V23L50,23z M41.5,12.2c0-0.1,0.1-0.1,0.1-0.1c0,0,0,0,0,0H46V23h-4.5V12.2z M63,27v14.9
		c-0.5-0.2-0.9-0.4-1.4-0.6c-3.2-1.7-7.1-1.7-10.3,0c-2.1,1.1-4.6,1.1-6.7,0c-1-0.5-2-0.9-3.2-1.1V27L63,27z M50.3,88.9
		c0,1.3-1,2.3-2.3,2.3h-6.5v-6.7h2.3c1.1,0,2-0.9,1.9-2c0-1.1-0.9-1.9-1.9-1.9h-2.3v-4.5h2.3c1.1,0,2-0.9,1.9-2
		c0-1.1-0.9-1.9-1.9-1.9h-2.3v-4.5h2.3c1.1,0,2-0.8,2-1.9c0-1.1-0.8-2-1.9-2l0,0h-2.4v-6.7H48c1.3,0,2.3,1,2.3,2.3V88.9z"/>
	<path id="Trazado_4055_3_" class="st2" d="M104.6,25h-17V10.1h14.9c1.2,0,2.1,0.9,2.1,2.1c0,0,0,0,0,0V25z"/>
	<path id="Trazado_4056_3_" class="st3" d="M79.1,25h8.5V10.1h-6.4c-1.2,0-2.1,1-2.1,2.1L79.1,25z"/>
	<path id="Trazado_4057_3_" class="st4" d="M79.1,25h25.6v85.2H79.1L79.1,25z"/>
	<path id="Trazado_4058_3_" class="st5" d="M79.1,25v84.7l8.5,0.9V37.8c0-3.5,2.9-6.4,6.4-6.4h10.6V25H79.1z"/>
	<path id="Trazado_4059_3_" class="st2" d="M104.6,44.1c-4.3,0-4.3-2.1-8.5-2.1s-4.3,2.1-8.5,2.1S83.4,42,79.1,42v68.1
		c0.2,7.1,6,12.6,13.1,12.5c6.8-0.2,12.3-5.7,12.5-12.5L104.6,44.1z"/>
	<path id="Trazado_4060_3_" class="st3" d="M87.6,110.2v-66h0c-4.3,0-4.3-2.1-8.5-2.1v68.1c0,7,5.7,12.8,12.7,12.8
		c1.5,0,2.9-0.2,4.3-0.7C91,120.4,87.6,115.6,87.6,110.2z"/>
	<path id="Trazado_4061_3_" class="st6" d="M87.6,54.8h-2.1l-2.1,2.1V91l2.1,2.1h2.1c2.4,0,4.3-1.9,4.3-4.3V59.1
		C91.9,56.7,90,54.8,87.6,54.8z"/>
	<path id="Trazado_4062_3_" class="st7" d="M79.1,54.8h6.4v38.3h-6.4V54.8z"/>
	<path id="Trazado_4063_3_" class="st9" d="M87.6,52.8h-6.5v-8.5c0.5,0.2,0.9,0.4,1.4,0.6c3.2,1.7,7.1,1.7,10.3,0
		c2.1-1.1,4.6-1.1,6.7,0c1,0.5,2.1,0.9,3.2,1.1v38.6c0,1.1,0.9,2,2,2c1.1,0,2-0.9,2-2V27h0.1c1.1,0,2-0.8,2-1.9c0-1.1-0.8-2-1.9-2
		c0,0-0.1,0-0.1,0h-0.1V12.2c0-2.3-1.8-4.1-4.1-4.1H81.2c-2.3,0-4.1,1.8-4.1,4.1V23H77c-1.1,0-2,0.8-2,1.9c0,1.1,0.8,2,1.9,2l0,0
		h0.2v83.2c0,6.3,4,11.8,9.9,13.9c1,0.4,2.2-0.2,2.5-1.2c0.4-1-0.2-2.2-1.2-2.5l0,0c-4.3-1.5-7.2-5.6-7.2-10.2v-15h6.5
		c3.5,0,6.2-2.8,6.2-6.3V59.1C93.8,55.6,91.1,52.8,87.6,52.8L87.6,52.8z M102.6,12.2V23h-4.5V12.1h4.4
		C102.6,12.1,102.6,12.1,102.6,12.2L102.6,12.2L102.6,12.2L102.6,12.2z M89.6,23V12.1h4.5V23L89.6,23z M81.1,12.2
		c0-0.1,0.1-0.1,0.1-0.1c0,0,0,0,0,0h4.4V23h-4.5V12.2z M102.6,27v14.9c-0.5-0.2-0.9-0.4-1.4-0.6c-3.2-1.7-7.1-1.7-10.3,0
		c-2.1,1.1-4.6,1.1-6.7,0c-1-0.5-2-0.9-3.2-1.1V27L102.6,27z M89.9,88.9c0,1.3-1,2.3-2.3,2.3h-6.5v-6.7h2.3c1.1,0,2-0.9,1.9-2
		c0-1.1-0.9-1.9-1.9-1.9h-2.3v-4.5h2.3c1.1,0,2-0.9,1.9-2c0-1.1-0.9-1.9-1.9-1.9h-2.3v-4.5h2.3c1.1,0,2-0.8,2-1.9c0-1.1-0.8-2-1.9-2
		l0,0h-2.4v-6.7h6.5c1.3,0,2.3,1,2.3,2.3V88.9z"/>
</g>
</svg>
