<?xml version="1.0" encoding="utf-8"?>
<!-- Generator: Adobe Illustrator 22.1.0, SVG Export Plug-In . SVG Version: 6.00 Build 0)  -->
<svg version="1.1" id="Layer_1" xmlns="http://www.w3.org/2000/svg" xmlns:xlink="http://www.w3.org/1999/xlink" x="0px" y="0px"
	 viewBox="0 0 213 209" style="enable-background:new 0 0 213 209;" xml:space="preserve">
<style type="text/css">
	.st0{fill:#DFF3FD;}
	.st1{fill:#00223D;}
	.st2{fill:#F6D190;}
	.st3{fill:#FFFFFF;}
	.st4{fill:#ECEAEC;}
	.st5{fill:#ECBD83;}
	.st6{fill:#FAF5DC;}
	.st7{fill:#FF8086;}
	.st8{fill:#E5646E;}
	.st9{fill:#DAD8DB;}
	.st10{fill:#606060;}
	.st11{fill:#BF3240;}
</style>
<g id="Grupo_9963_1_">
	<path id="Rectángulo_2766_1_" class="st0" d="M12,154.5h189c6.6,0,12,5.4,12,12.1v30.3c0,6.7-5.4,12.1-12,12.1H12
		c-6.6,0-12-5.4-12-12.1v-30.3C0,159.9,5.4,154.5,12,154.5z"/>
	<g id="_03._INFORMAR_1_">
		<g id="Grupo_9970_1_">
			<path id="Trazado_4087_1_" class="st1" d="M40,189c-1.5,0.1-2.9-0.6-3.8-1.8c-1.8-3.4-1.8-7.5,0-11c1.7-2.1,4.8-2.5,6.8-0.7
				c0.3,0.2,0.5,0.5,0.7,0.7c1.8,3.4,1.8,7.5,0,11C42.9,188.4,41.5,189.1,40,189z M40,186.4c0.7,0,1.4-0.5,1.7-1.2
				c0.8-2.3,0.8-4.9,0-7.2c-0.3-0.7-0.9-1.2-1.7-1.2c-1.5,0-2.3,1.6-2.3,4.8C37.7,184.9,38.5,186.4,40,186.4L40,186.4z"/>
			<path id="Trazado_4088_1_" class="st1" d="M51.9,189c-1.4,0.1-2.8-0.3-3.8-1.3c-0.9-1.1-1.3-2.5-1.2-4l2.9-0.1c0,0.3,0,0.7,0,1
				c0,0.3,0.1,0.5,0.2,0.8c0.1,0.2,0.2,0.4,0.4,0.6c0.2,0.2,0.4,0.3,0.6,0.3c0.3,0.1,0.6,0.1,1,0.1c0.6,0,1.2-0.2,1.7-0.6
				c0.8-0.9,0.8-2.2,0-3c-0.4-0.4-0.9-0.6-1.5-0.5h-0.5v-2.2H52c0.4,0,0.9-0.2,1.2-0.5c0.3-0.3,0.5-0.8,0.5-1.3
				c0-0.5-0.2-0.9-0.5-1.2c-0.4-0.3-0.9-0.4-1.3-0.4c-0.3,0-0.5,0-0.8,0.1c-0.2,0.1-0.4,0.2-0.5,0.3c-0.1,0.2-0.2,0.3-0.3,0.5
				c-0.1,0.2-0.1,0.4-0.1,0.6c0,0.2,0,0.5,0,0.7l-2.8-0.1c-0.1-1.3,0.4-2.5,1.2-3.4c0.9-0.8,2.1-1.3,3.4-1.2c1.2,0,2.3,0.3,3.2,1.1
				c0.8,0.7,1.3,1.7,1.3,2.7c0,0.7-0.2,1.3-0.5,1.8c-0.3,0.5-0.7,0.8-1.2,1.1c0.3,0.1,0.6,0.2,0.9,0.4c0.3,0.2,0.6,0.4,0.8,0.7
				c0.3,0.3,0.5,0.7,0.6,1c0.1,0.4,0.2,0.9,0.2,1.4c0,1.2-0.5,2.4-1.4,3.2C54.6,188.6,53.2,189.1,51.9,189z"/>
			<path id="Trazado_4089_1_" class="st1" d="M61.1,189c-0.9,0-1.6-0.7-1.6-1.6c0-0.4,0.2-0.9,0.5-1.2c0.3-0.3,0.7-0.5,1.1-0.5
				c0.9,0,1.6,0.7,1.6,1.6c0,0.4-0.2,0.8-0.5,1.1C61.9,188.8,61.5,189,61.1,189z"/>
			<path id="Trazado_4090_1_" class="st1" d="M71.4,188.8v-14.2h2.9v14.2H71.4z"/>
			<path id="Trazado_4091_1_" class="st1" d="M87.6,174.6h2.9v14.2h-3.4l-6.3-10.2v10.2h-2.9v-14.2h3.3l6.3,10.1L87.6,174.6z"/>
			<path id="Trazado_4092_1_" class="st1" d="M102.5,177.2h-5.4v3.2h4.6v2.6h-4.6v5.8h-2.9v-14.2h8.3V177.2z"/>
			<path id="Trazado_4093_1_" class="st1" d="M111.2,189c-1.3,0-2.6-0.3-3.7-0.9c-1.1-0.6-2-1.5-2.6-2.6c-1.3-2.4-1.3-5.3,0-7.7
				c0.6-1.1,1.5-2,2.6-2.6c2.3-1.2,5.1-1.2,7.4,0c1.1,0.6,2,1.5,2.6,2.6c1.2,2.4,1.2,5.3,0,7.7c-0.6,1.1-1.5,2-2.6,2.6
				C113.8,188.7,112.5,189,111.2,189z M108.1,185c1.7,1.7,4.4,1.7,6.2,0c1.6-1.9,1.6-4.8,0-6.7c-1.7-1.7-4.4-1.7-6.2,0
				C106.5,180.3,106.5,183.1,108.1,185z"/>
			<path id="Trazado_4094_1_" class="st1" d="M128.6,188.8l-3.7-6.3H124v6.3h-2.9v-14.2h5.1c0.7,0,1.4,0.1,2.1,0.3
				c0.5,0.2,1,0.5,1.4,0.9c0.4,0.4,0.6,0.8,0.8,1.3c0.2,0.5,0.3,1.1,0.3,1.7c0,0.8-0.2,1.7-0.8,2.3c-0.6,0.6-1.4,1.1-2.2,1.2
				l4.2,6.4L128.6,188.8z M124,177v3.4h1.7c1.5,0,2.2-0.6,2.2-1.7c0-0.5-0.2-0.9-0.5-1.3c-0.5-0.3-1.1-0.5-1.7-0.5H124z"/>
			<path id="Trazado_4095_1_" class="st1" d="M150.3,188.8h-2.9l-0.9-10.7l-3.6,10.7H141l-3.6-10.7l-0.9,10.7h-2.9l1.2-14.2h4.2
				l3,8.9l3-8.9h4.2L150.3,188.8z"/>
			<path id="Trazado_4096_1_" class="st1" d="M162.9,188.8l-1-2.9h-5.9l-1,2.9h-3l5.2-14.2h3.6l5.2,14.2H162.9z M156.8,183.4h4.2
				l-2.1-6L156.8,183.4z"/>
			<path id="Trazado_4097_1_" class="st1" d="M175.4,188.8l-3.7-6.3h-0.8v6.3H168v-14.2h5.1c0.7,0,1.4,0.1,2.1,0.3
				c0.5,0.2,1,0.5,1.4,0.9c0.4,0.4,0.6,0.8,0.8,1.3c0.2,0.5,0.3,1.1,0.3,1.7c0,0.8-0.2,1.7-0.8,2.3c-0.6,0.6-1.4,1.1-2.2,1.2
				l4.2,6.4L175.4,188.8z M170.9,177v3.4h1.7c1.5,0,2.2-0.6,2.2-1.7c0-0.5-0.2-0.9-0.5-1.3c-0.5-0.3-1.1-0.5-1.7-0.5H170.9z"/>
		</g>
	</g>
</g>
<g id="Grupo_9953_1_">
	<path id="Trazado_4011_1_" class="st2" d="M148.7,141.3H64.3c-4.9,0-8.9-4-8.9-9l0,0V24.5c0-5,4-9,8.9-9h84.5c4.9,0,8.9,4,8.9,9
		l0,0v107.7C157.6,137.3,153.7,141.3,148.7,141.3L148.7,141.3L148.7,141.3z"/>
	<path id="Trazado_4012_1_" class="st3" d="M146.5,127.8h-80c-1.2,0-2.2-1-2.2-2.2c0,0,0,0,0,0l0,0V26.8c0-1.2,1-2.2,2.2-2.2l0,0h80
		c1.2,0,2.2,1,2.2,2.2c0,0,0,0,0,0l0,0v98.8C148.7,126.8,147.7,127.8,146.5,127.8L146.5,127.8z"/>
	<path id="Trazado_4013_1_" class="st4" d="M119.4,24.5H93.6c-3.9,0-7.1-3.2-7.1-7.1c0,0,0,0,0,0l0,0v-3.9c0-1.3,1.1-2.4,2.4-2.4
		h35.3c1.3,0,2.4,1.1,2.4,2.4v3.9C126.5,21.3,123.3,24.5,119.4,24.5L119.4,24.5L119.4,24.5z"/>
	<path id="Trazado_4014_1_" class="st5" d="M71.5,134.5c-5.1,0-9.3-4.2-9.3-9.4V15.9c-4,1-6.8,4.5-6.8,8.7v107.7c0,5,4,9,8.9,9l0,0
		h84.5c4,0,7.6-2.8,8.6-6.7H71.5z"/>
	<path id="Trazado_4015_1_" class="st6" d="M79.8,121.1c-4.9,0-8.9-4-8.9-9l0,0V24.5h-4.4c-1.2,0-2.2,1-2.2,2.2c0,0,0,0,0,0v98.8
		c0,1.2,1,2.2,2.2,2.2l0,0h80c1.2,0,2.2-1,2.2-2.2c0,0,0,0,0,0l0,0v-4.5L79.8,121.1z"/>
	<ellipse id="Elipse_14_1_" class="st7" cx="93.2" cy="56" rx="11.1" ry="11.2"/>
	<path id="Trazado_4016_1_" class="st8" d="M97.6,62.7c-6.1,0-11.1-5-11.1-11.2c0-1.9,0.5-3.7,1.4-5.3c-5.4,2.9-7.4,9.7-4.5,15.1
		c2.9,5.4,9.6,7.5,15,4.5c1.9-1,3.5-2.6,4.5-4.5C101.3,62.2,99.5,62.7,97.6,62.7L97.6,62.7z"/>
	<path id="Trazado_4017_1_" class="st9" d="M126.1,17.8h-25.9c-3.7,0-6.8-3-7-6.7h-4.4c-1.3,0-2.4,1.1-2.4,2.4v3.9
		c0,3.9,3.2,7.1,7.1,7.1l0,0h25.9c3.8,0,6.9-3,7-6.8C126.3,17.8,126.2,17.8,126.1,17.8z"/>
</g>
<path id="Trazado_4018_1_" class="st10" d="M148.7,13.5h-20.2v0c0-2.5-2-4.5-4.4-4.5h-8.9V6.6c0-3.6-2.9-6.6-6.5-6.6h-4.4
	c-3.6,0-6.5,3-6.5,6.6V9h-8.9c-2.4,0-4.4,2-4.4,4.5v3.9c0,1.8,0.5,3.5,1.5,5H66.5c-2.4,0-4.3,1.9-4.3,4.3v98.8
	c0,2.4,1.9,4.3,4.3,4.3h80c2.4,0,4.3-1.9,4.3-4.3V26.8c0-2.4-1.9-4.3-4.3-4.3h-13.3c-1.2,0-2.1,0.9-2.1,2.1s0.9,2.1,2.1,2.1l0,0
	h13.3c0.1,0,0.1,0.1,0.1,0.1l0,0v98.8c0,0.1-0.1,0.1-0.1,0.1h-80c-0.1,0-0.1-0.1-0.1-0.1l0,0V26.8c0-0.1,0.1-0.1,0.1-0.1h52.9
	c5,0,9-4,9.1-9h20.2c3.8,0,6.8,3.1,6.8,6.9v107.7c0,3.8-3.1,6.9-6.8,6.9H64.3c-3.8,0-6.8-3.1-6.8-6.9V24.5c0-3.8,3.1-6.9,6.8-6.9
	h13.3c1.2,0,2.1-0.9,2.1-2.1s-0.9-2.1-2.1-2.1H64.3c-6.1,0-11,5-11,11.1v107.7c0,6.1,4.9,11.1,11,11.1h84.5c6.1,0,11-5,11-11.1V24.5
	C159.7,18.4,154.8,13.5,148.7,13.5z M101.9,6.6c0-1.3,1.1-2.4,2.4-2.4h4.4c1.3,0,2.4,1.1,2.4,2.4V9h-9.2V6.6z M124.4,17.4
	c0,2.8-2.2,5-5,5H93.6c-2.8,0-5-2.3-5-5v-3.9c0-0.2,0.1-0.3,0.3-0.3h35.3c0.2,0,0.3,0.1,0.3,0.3l0,0L124.4,17.4L124.4,17.4z"/>
<path id="Trazado_4019_1_" d="M97,56.1c1.2,0,2.1-0.9,2.1-2.1s-0.9-2.1-2.1-2.1h0c-1.2,0-2.1,1-2.1,2.1C94.9,55.2,95.8,56.1,97,56.1
	z"/>
<path id="Trazado_4020_1_" d="M93.2,61.9c1.2,0.1,2.1-0.8,2.2-2c0.1-1.2-0.8-2.1-2-2.2c-0.1,0-0.1,0-0.2,0h0c-1.2,0-2.1,1-2.1,2.1
	C91.1,60.9,92,61.9,93.2,61.9z"/>
<path id="Trazado_4021_1_" d="M89.4,51.9L89.4,51.9c-1.2,0-2.1,1-2.1,2.1c0,1.2,0.9,2.1,2.1,2.1c1.2,0,2.1-1,2.1-2.1
	C91.4,52.9,90.5,51.9,89.4,51.9z"/>
<path id="Trazado_4022_1_" class="st11" d="M75.4,53.9c-1.2,0-2.1,0.9-2.1,2.1s0.9,2.1,2.1,2.1h4.8c0.3,2.1,1.1,4,2.4,5.7l-3.4,3.4
	c-0.9,0.8-0.9,2.1-0.2,3c0.8,0.9,2.1,0.9,2.9,0.2c0.1,0,0.1-0.1,0.2-0.2l3.4-3.4c1.7,1.2,3.6,2,5.7,2.4v4.8c-0.1,1.2,0.8,2.1,2,2.2
	c1.2,0.1,2.1-0.8,2.2-2c0-0.1,0-0.1,0-0.2v-4.8c2-0.3,4-1.1,5.7-2.4l3.4,3.4c0.9,0.8,2.2,0.7,2.9-0.2c0.7-0.8,0.7-2,0-2.8l-3.4-3.4
	c1.2-1.7,2-3.6,2.4-5.7h4.8c1.2,0,2.1-0.9,2.1-2.1s-0.9-2.1-2.1-2.1h-4.8c-0.3-2.1-1.1-4-2.3-5.7l3.4-3.4c0.8-0.9,0.7-2.2-0.2-3
	c-0.8-0.7-2-0.7-2.8,0l-4.7,4.8c-0.8,0.8-0.8,2.1,0,3l0,0c3.5,3.6,3.5,9.3,0,12.9c-3.5,3.6-9.3,3.6-12.8,0c-3.5-3.6-3.5-9.3,0-12.9
	c1.7-1.7,4-2.7,6.4-2.7c1.2,0,2.1-0.9,2.1-2.1V38c-0.1-1.2-1-2.1-2.2-2c-1.1,0.1-1.9,0.9-2,2v4.8c-2,0.3-4,1.1-5.7,2.4l-3.4-3.4
	c-0.8-0.9-2.1-0.9-2.9-0.2c-0.9,0.8-0.9,2.1-0.2,3c0,0.1,0.1,0.1,0.2,0.2l3.4,3.4c-1.2,1.7-2,3.6-2.4,5.7L75.4,53.9L75.4,53.9z"/>
<path id="Trazado_4023_1_" class="st10" d="M131,42.6h-11.1c-1.2-0.1-2.1,0.8-2.2,2c-0.1,1.2,0.8,2.1,2,2.2l0,0c0.1,0,0.1,0,0.2,0
	H131c1.2,0,2.1-0.9,2.1-2.1S132.1,42.6,131,42.6L131,42.6z"/>
<path id="Trazado_4024_1_" class="st10" d="M135.4,53.9h-15.6c-1.2-0.1-2.1,0.8-2.2,2c-0.1,1.2,0.8,2.1,2,2.2l0,0c0.1,0,0.1,0,0.2,0
	h15.6c1.2,0.1,2.1-0.8,2.2-2c0.1-1.2-0.8-2.1-2-2.2C135.5,53.9,135.5,53.9,135.4,53.9L135.4,53.9z"/>
<path id="Trazado_4025_1_" class="st10" d="M135.4,69.3c1.1,0.1,2.1-0.8,2.2-2c0.1-1.2-0.8-2.1-2-2.2c-0.1,0-0.1,0-0.2,0h-15.6
	c-1.1-0.1-2.1,0.8-2.2,2c-0.1,1.2,0.8,2.1,2,2.2l0,0c0.1,0,0.1,0,0.2,0H135.4z"/>
<path id="Trazado_4026_1_" class="st10" d="M79.8,89.5h26.7c1.2,0.1,2.1-0.8,2.2-2c0.1-1.2-0.8-2.1-2-2.2c-0.1,0-0.1,0-0.2,0H79.8
	c-1.2-0.1-2.1,0.8-2.2,2c-0.1,1.2,0.8,2.1,2,2.2C79.7,89.5,79.8,89.5,79.8,89.5z"/>
<path id="Trazado_4027_1_" class="st10" d="M79.8,100.7h33.3c1.2,0.1,2.1-0.8,2.2-2c0.1-1.2-0.8-2.1-2-2.2c-0.1,0-0.1,0-0.2,0H79.8
	c-1.2-0.1-2.1,0.8-2.2,2c-0.1,1.2,0.8,2.1,2,2.2l0,0C79.7,100.7,79.8,100.7,79.8,100.7z"/>
<path id="Trazado_4028_1_" class="st10" d="M79.8,111.9h40c1.2,0.1,2.1-0.8,2.2-2c0.1-1.2-0.8-2.1-2-2.2c-0.1,0-0.1,0-0.2,0h-40
	c-1.2-0.1-2.1,0.8-2.2,2c-0.1,1.2,0.8,2.1,2,2.2l0,0C79.7,111.9,79.8,111.9,79.8,111.9z"/>
<path id="Trazado_4029_1_" class="st10" d="M124.3,96.2c0.6,0,1.1-0.2,1.5-0.6l11.1-11.2c0.9-0.8,0.9-2.1,0.2-3
	c-0.8-0.9-2.1-0.9-2.9-0.2c0,0,0,0,0,0c-0.1,0-0.1,0.1-0.2,0.2l-9.6,9.7l-5.2-5.2c-0.8-0.9-2.1-0.9-2.9-0.2c-0.9,0.8-0.9,2.1-0.2,3
	c0,0,0,0,0,0c0,0.1,0.1,0.1,0.2,0.2l6.7,6.7C123.2,96,123.7,96.2,124.3,96.2L124.3,96.2z"/>
</svg>
