<svg xmlns="http://www.w3.org/2000/svg" width="752" height="336.01" viewBox="0 0 752 336.01">
  <g id="Grupo_1514" data-name="Grupo 1514" transform="translate(207.411 1562.531)" opacity="0.2">
    <path id="Trazado_8004" data-name="Trazado 8004" d="M42.642-1549.484a10.975,10.975,0,0,1-10.975,10.975,10.975,10.975,0,0,1-10.976-10.975,10.976,10.976,0,0,1,10.976-10.976A10.976,10.976,0,0,1,42.642-1549.484Z" fill="#308ea9"/>
    <path id="Trazado_8005" data-name="Trazado 8005" d="M486.7-1252.358a7.2,7.2,0,0,1-7.2,7.2,7.2,7.2,0,0,1-7.2-7.2,7.2,7.2,0,0,1,7.2-7.2A7.2,7.2,0,0,1,486.7-1252.358Z" fill="#308ea9"/>
    <path id="Trazado_8006" data-name="Trazado 8006" d="M544.589-1504.363a7.2,7.2,0,0,1-7.2,7.2,7.2,7.2,0,0,1-7.2-7.2,7.2,7.2,0,0,1,7.2-7.2A7.2,7.2,0,0,1,544.589-1504.363Z" fill="#308ea9"/>
    <path id="Trazado_8007" data-name="Trazado 8007" d="M-193.008-1359.838a7.2,7.2,0,0,1-7.2,7.2,7.2,7.2,0,0,1-7.2-7.2,7.2,7.2,0,0,1,7.2-7.2A7.2,7.2,0,0,1-193.008-1359.838Z" fill="#308ea9"/>
    <path id="Trazado_8008" data-name="Trazado 8008" d="M-58.909-1233.722a7.2,7.2,0,0,1-7.2,7.2,7.2,7.2,0,0,1-7.2-7.2,7.2,7.2,0,0,1,7.2-7.2A7.2,7.2,0,0,1-58.909-1233.722Z" fill="#308ea9"/>
    <path id="Trazado_8009" data-name="Trazado 8009" d="M-155.334-1278.627a10.975,10.975,0,0,1-10.975,10.975,10.976,10.976,0,0,1-10.976-10.975,10.976,10.976,0,0,1,10.976-10.976A10.976,10.976,0,0,1-155.334-1278.627Z" fill="#308ea9"/>
    <path id="Trazado_8010" data-name="Trazado 8010" d="M400.451-1540.851a10.976,10.976,0,0,1-10.976,10.976,10.976,10.976,0,0,1-10.975-10.976,10.975,10.975,0,0,1,10.975-10.975A10.975,10.975,0,0,1,400.451-1540.851Z" fill="#308ea9"/>
    <path id="Trazado_8011" data-name="Trazado 8011" d="M270.7-1472.852a11.781,11.781,0,0,0-10.453,7.011c-2.128.779-8.444,2.633-14.952.118.006.294.015.565.021.826a60.742,60.742,0,0,0-2.2-11.169,14.445,14.445,0,0,1,8.794-3.351,7.661,7.661,0,0,0,8.012,1.684,7.669,7.669,0,0,0,4.505-9.865,7.669,7.669,0,0,0-9.865-4.505,7.664,7.664,0,0,0-4.953,6.52,14.455,14.455,0,0,1-8.742,3.224,60.251,60.251,0,0,0-10.974-17.136l.6.573c2.48-6.521,8.081-9.979,10.083-11.041a11.78,11.78,0,0,0,12.2-3.089,11.788,11.788,0,0,0-.444-16.666,11.789,11.789,0,0,0-16.666.444,11.78,11.78,0,0,0-2.434,12.349c-.954,2.055-4.11,7.831-10.489,10.656l.6.573a60.9,60.9,0,0,0-7.439-5.2c-.658-.411-1.34-.79-2.016-1.177a14.448,14.448,0,0,1,3.845-8.557,7.665,7.665,0,0,0,6.855-4.474,7.669,7.669,0,0,0-3.791-10.162,7.669,7.669,0,0,0-10.16,3.79,7.663,7.663,0,0,0,1.108,8.112,14.534,14.534,0,0,1-3.777,8.322c-.827-.359-1.651-.722-2.5-1.045a59.538,59.538,0,0,0-6.953-2.177c-1.479-.377-2.937-.76-4.389-1.165-1.994-.542-3.982-1.078-5.974-1.537a22.549,22.549,0,0,1-.03-13.253,11.775,11.775,0,0,0,6.444-10.811,11.791,11.791,0,0,0-12.1-11.471A11.788,11.788,0,0,0,171-1544.4a11.776,11.776,0,0,0,7.01,10.453,22.955,22.955,0,0,1,1.015,11.8,32.871,32.871,0,0,0-13.051,2.616,15.309,15.309,0,0,1-1.54-6.076,7.661,7.661,0,0,0,1.684-8.011,7.669,7.669,0,0,0-9.866-4.505,7.668,7.668,0,0,0-4.5,9.864,7.663,7.663,0,0,0,6.519,4.953,15.239,15.239,0,0,1,2.9,5.974c-.206.1-.414.2-.618.3-.719.358-1.43.738-2.133,1.124q-1.793.993-3.5,2.068c-.751.463-1.486.94-2.214,1.424a69.1,69.1,0,0,0-9.317,7.539,22.529,22.529,0,0,1-9.5-9.4,11.778,11.778,0,0,0-3.087-12.2,11.788,11.788,0,0,0-16.666.444,11.788,11.788,0,0,0,.444,16.666,11.78,11.78,0,0,0,12.348,2.435,22.407,22.407,0,0,1,10.033,9.225,61.594,61.594,0,0,0-6.213,9.981,14.823,14.823,0,0,1-7.525-3.711,7.66,7.66,0,0,0-4.474-6.856,7.667,7.667,0,0,0-10.16,3.79,7.667,7.667,0,0,0,3.79,10.161,7.66,7.66,0,0,0,8.111-1.109,14.8,14.8,0,0,1,7.784,3.3c-.68,1.769-1.313,3.572-1.849,5.444-.216.727-.418,1.466-.6,2.213a58.769,58.769,0,0,0-1.656,12.151,22.165,22.165,0,0,1-14.533.514,11.779,11.779,0,0,0-10.812-6.445,11.788,11.788,0,0,0-11.47,12.1,11.789,11.789,0,0,0,12.1,11.471,11.777,11.777,0,0,0,10.453-7.01,22.1,22.1,0,0,1,14.722-.2c.256,2.1.59,4.193,1.024,6.249.119.587.253,1.172.393,1.75v.014l.007.007c.2.884.445,1.76.682,2.636a14.6,14.6,0,0,1-8.491,3.119,7.66,7.66,0,0,0-8.012-1.684,7.668,7.668,0,0,0-4.5,9.864,7.668,7.668,0,0,0,9.865,4.506,7.666,7.666,0,0,0,4.952-6.52,14.709,14.709,0,0,1,8.1-3.186c.418,1.163.848,2.318,1.311,3.446a28.939,28.939,0,0,0,5.264,8.474c.593.67,1.212,1.3,1.839,1.918.582.563,1.181,1.107,1.791,1.643.461.544,1.018,1.246.805,1.043-2.482,6.521-8.082,9.979-10.083,11.042a11.779,11.779,0,0,0-12.2,3.088,11.789,11.789,0,0,0,.443,16.666,11.79,11.79,0,0,0,16.667-.444,11.781,11.781,0,0,0,2.434-12.349c.954-2.055,4.109-7.832,10.49-10.656-.215-.2,5.555,4,8.853,5.783a14.449,14.449,0,0,1-3.847,8.578,7.663,7.663,0,0,0-6.856,4.474,7.669,7.669,0,0,0,3.79,10.161,7.668,7.668,0,0,0,10.161-3.79,7.659,7.659,0,0,0-1.109-8.112,14.481,14.481,0,0,1,3.9-8.466,60.525,60.525,0,0,0,19.87,4.361l-.828.021c2.858,6.367,1.343,12.772.678,14.938a11.781,11.781,0,0,0-6.444,10.811,11.789,11.789,0,0,0,12.1,11.471,11.789,11.789,0,0,0,11.471-12.1,11.776,11.776,0,0,0-7.011-10.451c-.779-2.129-2.632-8.444-.118-14.954l-.827.023a60.641,60.641,0,0,0,11.169-2.2,14.448,14.448,0,0,1,3.353,8.795,7.66,7.66,0,0,0-1.684,8.012,7.668,7.668,0,0,0,9.865,4.505,7.668,7.668,0,0,0,4.5-9.865,7.66,7.66,0,0,0-6.519-4.952,14.458,14.458,0,0,1-3.226-8.744,60.055,60.055,0,0,0,13.88-8.227c.286-.2.576-.4.855-.622.624-.475,1.234-.992,1.843-1.515,6.513,2.484,9.967,8.077,11.028,10.078a11.782,11.782,0,0,0,3.088,12.2,11.788,11.788,0,0,0,16.666-.444,11.788,11.788,0,0,0-.444-16.666,11.78,11.78,0,0,0-12.349-2.434c-2.055-.955-7.832-4.109-10.657-10.49-.2.215-.391.414-.573.6a60.333,60.333,0,0,0,6.357-9.458,14.438,14.438,0,0,1,8.578,3.848,7.666,7.666,0,0,0,4.474,6.856,7.672,7.672,0,0,0,10.162-3.791,7.667,7.667,0,0,0-3.791-10.16,7.661,7.661,0,0,0-8.112,1.107,14.456,14.456,0,0,1-8.466-3.9,60.492,60.492,0,0,0,4.36-19.869c.008.261.015.533.023.826,6.366-2.856,12.77-1.341,14.938-.677a11.779,11.779,0,0,0,10.811,6.444,11.791,11.791,0,0,0,11.471-12.1A11.791,11.791,0,0,0,270.7-1472.852Z" fill="#308ea9"/>
    <path id="Trazado_8012" data-name="Trazado 8012" d="M117.823-1297.246a6.985,6.985,0,0,0-6.2,4.157,13.044,13.044,0,0,1-8.868.07c0,.174.009.335.013.49a36.073,36.073,0,0,0-1.305-6.624,8.557,8.557,0,0,1,5.214-1.987,4.544,4.544,0,0,0,4.752,1,4.549,4.549,0,0,0,2.672-5.851,4.548,4.548,0,0,0-5.851-2.671,4.542,4.542,0,0,0-2.937,3.866,8.573,8.573,0,0,1-5.185,1.913,35.69,35.69,0,0,0-6.508-10.163l.359.34a13.052,13.052,0,0,1,5.979-6.548,6.985,6.985,0,0,0,7.236-1.832,6.991,6.991,0,0,0-.263-9.884,6.993,6.993,0,0,0-9.884.263,6.987,6.987,0,0,0-1.443,7.324,13.061,13.061,0,0,1-6.221,6.32l.359.34a36.081,36.081,0,0,0-4.412-3.084c-.39-.243-.795-.468-1.2-.7a8.572,8.572,0,0,1,2.28-5.075,4.545,4.545,0,0,0,4.066-2.653,4.548,4.548,0,0,0-2.248-6.026,4.548,4.548,0,0,0-6.026,2.247,4.546,4.546,0,0,0,.657,4.811,8.62,8.62,0,0,1-2.239,4.936c-.491-.213-.98-.429-1.484-.62a35.051,35.051,0,0,0-4.123-1.291c-.877-.224-1.742-.451-2.6-.691-1.183-.322-2.361-.639-3.543-.912a13.38,13.38,0,0,1-.018-7.859,6.985,6.985,0,0,0,3.822-6.412,6.992,6.992,0,0,0-7.175-6.8,6.991,6.991,0,0,0-6.8,7.174,6.985,6.985,0,0,0,4.158,6.2,13.622,13.622,0,0,1,.6,7,19.517,19.517,0,0,0-7.741,1.552,9.079,9.079,0,0,1-.912-3.6,4.545,4.545,0,0,0,1-4.751,4.548,4.548,0,0,0-5.851-2.672,4.548,4.548,0,0,0-2.671,5.85,4.543,4.543,0,0,0,3.866,2.937,9.037,9.037,0,0,1,1.721,3.543c-.122.061-.246.119-.367.181-.426.212-.847.437-1.264.666q-1.063.59-2.076,1.227-.666.413-1.313.844a41.116,41.116,0,0,0-5.525,4.471,13.364,13.364,0,0,1-5.634-5.577,6.987,6.987,0,0,0-1.831-7.236,6.991,6.991,0,0,0-9.884.263,6.992,6.992,0,0,0,.263,9.884,6.988,6.988,0,0,0,7.324,1.444,13.291,13.291,0,0,1,5.95,5.471,36.513,36.513,0,0,0-3.685,5.919,8.772,8.772,0,0,1-4.462-2.2,4.544,4.544,0,0,0-2.654-4.065,4.547,4.547,0,0,0-6.026,2.247,4.548,4.548,0,0,0,2.248,6.026,4.543,4.543,0,0,0,4.811-.658,8.789,8.789,0,0,1,4.616,1.96c-.4,1.049-.779,2.118-1.1,3.228-.128.431-.248.87-.355,1.313a34.754,34.754,0,0,0-.982,7.2,13.144,13.144,0,0,1-8.619.306,6.987,6.987,0,0,0-6.412-3.823,6.992,6.992,0,0,0-6.8,7.175,6.991,6.991,0,0,0,7.175,6.8,6.985,6.985,0,0,0,6.2-4.157,13.1,13.1,0,0,1,8.731-.118c.152,1.248.35,2.487.607,3.706.071.348.15.7.233,1.038v.008l0,0c.12.525.264,1.044.4,1.564a8.653,8.653,0,0,1-5.036,1.849,4.542,4.542,0,0,0-4.751-1,4.548,4.548,0,0,0-2.672,5.85,4.549,4.549,0,0,0,5.851,2.672A4.545,4.545,0,0,0,28.774-1273a8.726,8.726,0,0,1,4.806-1.889c.248.689.5,1.375.778,2.043a17.176,17.176,0,0,0,3.121,5.026c.352.4.719.769,1.091,1.137.345.334.7.657,1.062.975.273.322.6.739.477.618a13.069,13.069,0,0,1-5.979,6.549,6.985,6.985,0,0,0-7.237,1.831,6.992,6.992,0,0,0,.263,9.884,6.992,6.992,0,0,0,9.884-.264,6.985,6.985,0,0,0,1.444-7.323,13.055,13.055,0,0,1,6.221-6.32c-.128-.12,3.294,2.37,5.25,3.43a8.568,8.568,0,0,1-2.281,5.087,4.546,4.546,0,0,0-4.066,2.653,4.548,4.548,0,0,0,2.247,6.026,4.546,4.546,0,0,0,6.026-2.247,4.544,4.544,0,0,0-.657-4.811,8.577,8.577,0,0,1,2.316-5.021,35.88,35.88,0,0,0,11.783,2.586l-.491.013a13.046,13.046,0,0,1,.4,8.859,6.986,6.986,0,0,0-3.821,6.411,6.991,6.991,0,0,0,7.175,6.8,6.992,6.992,0,0,0,6.8-7.175,6.982,6.982,0,0,0-4.158-6.2,13.06,13.06,0,0,1-.07-8.869l-.49.014a35.953,35.953,0,0,0,6.623-1.306,8.566,8.566,0,0,1,1.989,5.215,4.542,4.542,0,0,0-1,4.752,4.547,4.547,0,0,0,5.85,2.671,4.547,4.547,0,0,0,2.672-5.85,4.545,4.545,0,0,0-3.866-2.937,8.566,8.566,0,0,1-1.914-5.185,35.634,35.634,0,0,0,8.232-4.879c.169-.121.341-.238.507-.369.37-.282.732-.589,1.093-.9a13.054,13.054,0,0,1,6.54,5.976,6.988,6.988,0,0,0,1.831,7.236,6.991,6.991,0,0,0,9.884-.263,6.991,6.991,0,0,0-.263-9.884,6.985,6.985,0,0,0-7.324-1.443,13.065,13.065,0,0,1-6.32-6.221l-.34.358a35.765,35.765,0,0,0,3.77-5.609,8.565,8.565,0,0,1,5.087,2.282,4.546,4.546,0,0,0,2.654,4.066,4.549,4.549,0,0,0,6.026-2.248,4.548,4.548,0,0,0-2.248-6.026,4.546,4.546,0,0,0-4.811.657,8.579,8.579,0,0,1-5.021-2.315,35.866,35.866,0,0,0,2.586-11.784c0,.155.009.317.014.491a13.059,13.059,0,0,1,8.859-.4,6.98,6.98,0,0,0,6.411,3.821,6.992,6.992,0,0,0,6.8-7.175A6.992,6.992,0,0,0,117.823-1297.246Z" fill="#308ea9"/>
    <path id="Trazado_8013" data-name="Trazado 8013" d="M498.016-1529.777a2.15,2.15,0,0,0-1.908,1.279,4.011,4.011,0,0,1-2.729.022c0,.054,0,.1,0,.151a11.129,11.129,0,0,0-.4-2.039,2.631,2.631,0,0,1,1.605-.611,1.4,1.4,0,0,0,1.462.307,1.4,1.4,0,0,0,.822-1.8,1.4,1.4,0,0,0-1.8-.823,1.4,1.4,0,0,0-.9,1.19,2.64,2.64,0,0,1-1.595.589,11.008,11.008,0,0,0-2-3.128l.11.1a4.022,4.022,0,0,1,1.84-2.015,2.15,2.15,0,0,0,2.227-.564,2.151,2.151,0,0,0-.081-3.041,2.152,2.152,0,0,0-3.042.08,2.153,2.153,0,0,0-.444,2.254,4.017,4.017,0,0,1-1.914,1.945l.11.1a11.043,11.043,0,0,0-1.358-.949c-.12-.075-.244-.144-.368-.215a2.642,2.642,0,0,1,.7-1.562,1.4,1.4,0,0,0,1.251-.816,1.4,1.4,0,0,0-.691-1.855,1.4,1.4,0,0,0-1.855.692,1.4,1.4,0,0,0,.2,1.48,2.645,2.645,0,0,1-.689,1.519c-.151-.065-.3-.132-.456-.191a10.989,10.989,0,0,0-1.269-.4c-.27-.069-.536-.139-.8-.213-.364-.1-.727-.2-1.091-.28a4.116,4.116,0,0,1,0-2.419,2.149,2.149,0,0,0,1.176-1.973,2.151,2.151,0,0,0-2.208-2.093,2.152,2.152,0,0,0-2.094,2.208,2.148,2.148,0,0,0,1.28,1.907,4.2,4.2,0,0,1,.185,2.154,5.985,5.985,0,0,0-2.382.477,2.8,2.8,0,0,1-.281-1.109,1.4,1.4,0,0,0,.307-1.462,1.4,1.4,0,0,0-1.8-.822,1.4,1.4,0,0,0-.822,1.8,1.4,1.4,0,0,0,1.19.9,2.787,2.787,0,0,1,.529,1.09l-.113.056c-.131.066-.26.135-.389.2q-.327.181-.638.378-.205.126-.4.26a12.657,12.657,0,0,0-1.7,1.375,4.109,4.109,0,0,1-1.734-1.716,2.151,2.151,0,0,0-.563-2.227,2.153,2.153,0,0,0-3.042.081,2.153,2.153,0,0,0,.081,3.042,2.149,2.149,0,0,0,2.254.444,4.1,4.1,0,0,1,1.831,1.684,11.231,11.231,0,0,0-1.134,1.822,2.7,2.7,0,0,1-1.373-.678,1.4,1.4,0,0,0-.817-1.251,1.4,1.4,0,0,0-1.854.692,1.4,1.4,0,0,0,.691,1.854,1.4,1.4,0,0,0,1.481-.2,2.691,2.691,0,0,1,1.42.6c-.124.323-.239.652-.337.993-.04.133-.076.268-.11.4a10.751,10.751,0,0,0-.3,2.218,4.052,4.052,0,0,1-2.652.094,2.15,2.15,0,0,0-1.973-1.177,2.152,2.152,0,0,0-2.094,2.208,2.152,2.152,0,0,0,2.208,2.094,2.15,2.15,0,0,0,1.908-1.279,4.027,4.027,0,0,1,2.687-.037c.047.384.108.766.187,1.141.021.107.046.214.071.319v0h0c.037.161.081.321.124.481a2.659,2.659,0,0,1-1.549.569,1.4,1.4,0,0,0-1.463-.307,1.4,1.4,0,0,0-.822,1.8,1.4,1.4,0,0,0,1.8.823,1.4,1.4,0,0,0,.9-1.19,2.679,2.679,0,0,1,1.478-.582c.077.212.155.423.24.629a5.3,5.3,0,0,0,.96,1.547c.109.122.222.237.336.35s.216.2.327.3c.084.1.186.227.147.19a4.022,4.022,0,0,1-1.84,2.015,2.15,2.15,0,0,0-2.227.564,2.15,2.15,0,0,0,.081,3.041,2.15,2.15,0,0,0,3.041-.081,2.15,2.15,0,0,0,.445-2.253,4.017,4.017,0,0,1,1.914-1.945c-.039-.037,1.014.729,1.616,1.055a2.642,2.642,0,0,1-.7,1.566,1.4,1.4,0,0,0-1.252.816,1.4,1.4,0,0,0,.692,1.855,1.4,1.4,0,0,0,1.855-.692,1.4,1.4,0,0,0-.2-1.48,2.64,2.64,0,0,1,.713-1.545,11.038,11.038,0,0,0,3.626.795l-.151,0a4.019,4.019,0,0,1,.124,2.727,2.149,2.149,0,0,0-1.176,1.973,2.151,2.151,0,0,0,2.208,2.093,2.151,2.151,0,0,0,2.093-2.208,2.147,2.147,0,0,0-1.279-1.907,4.027,4.027,0,0,1-.022-2.73l-.151.005a11.119,11.119,0,0,0,2.039-.4,2.636,2.636,0,0,1,.612,1.6,1.4,1.4,0,0,0-.308,1.462,1.4,1.4,0,0,0,1.8.822,1.4,1.4,0,0,0,.822-1.8,1.4,1.4,0,0,0-1.19-.9,2.641,2.641,0,0,1-.589-1.6,10.979,10.979,0,0,0,2.533-1.5c.053-.038.106-.074.157-.114.113-.087.225-.181.336-.276a4.018,4.018,0,0,1,2.013,1.839,2.151,2.151,0,0,0,.563,2.227,2.153,2.153,0,0,0,3.042-.081,2.153,2.153,0,0,0-.081-3.042,2.149,2.149,0,0,0-2.254-.444,4.019,4.019,0,0,1-1.945-1.915l-.105.111a11.072,11.072,0,0,0,1.161-1.726,2.628,2.628,0,0,1,1.565.7,1.4,1.4,0,0,0,.817,1.251,1.4,1.4,0,0,0,1.854-.692,1.4,1.4,0,0,0-.691-1.854,1.4,1.4,0,0,0-1.481.2,2.638,2.638,0,0,1-1.545-.712,11.064,11.064,0,0,0,.8-3.627l0,.151a4.022,4.022,0,0,1,2.726-.124,2.149,2.149,0,0,0,1.973,1.176,2.152,2.152,0,0,0,2.094-2.208A2.152,2.152,0,0,0,498.016-1529.777Z" fill="#308ea9"/>
    <path id="Trazado_8014" data-name="Trazado 8014" d="M-39.636-1499.729a8.843,8.843,0,0,0-7.847,5.264,16.526,16.526,0,0,1-11.226.088c.005.221.011.424.017.62a45.569,45.569,0,0,0-1.653-8.385,10.845,10.845,0,0,1,6.6-2.516,5.75,5.75,0,0,0,6.015,1.264,5.757,5.757,0,0,0,3.382-7.406,5.757,5.757,0,0,0-7.406-3.382,5.752,5.752,0,0,0-3.718,4.9,10.859,10.859,0,0,1-6.564,2.421,45.186,45.186,0,0,0-8.239-12.865l.454.43a16.528,16.528,0,0,1,7.57-8.29,8.843,8.843,0,0,0,9.16-2.318,8.851,8.851,0,0,0-.333-12.512,8.852,8.852,0,0,0-12.513.333,8.844,8.844,0,0,0-1.827,9.271,16.529,16.529,0,0,1-7.874,8l.453.43a45.705,45.705,0,0,0-5.585-3.9c-.494-.309-1.006-.593-1.514-.884a10.848,10.848,0,0,1,2.887-6.424,5.754,5.754,0,0,0,5.147-3.359,5.758,5.758,0,0,0-2.846-7.629,5.757,5.757,0,0,0-7.628,2.845,5.752,5.752,0,0,0,.832,6.09,10.918,10.918,0,0,1-2.836,6.248c-.621-.269-1.239-.542-1.877-.784a44.875,44.875,0,0,0-5.22-1.635c-1.111-.282-2.206-.571-3.3-.874-1.5-.408-2.989-.809-4.484-1.154a16.932,16.932,0,0,1-.023-9.95,8.84,8.84,0,0,0,4.838-8.116,8.852,8.852,0,0,0-9.083-8.612,8.85,8.85,0,0,0-8.612,9.083,8.842,8.842,0,0,0,5.263,7.848,17.227,17.227,0,0,1,.762,8.857,24.685,24.685,0,0,0-9.8,1.964,11.484,11.484,0,0,1-1.156-4.561,5.753,5.753,0,0,0,1.264-6.015,5.758,5.758,0,0,0-7.407-3.382,5.757,5.757,0,0,0-3.381,7.406,5.752,5.752,0,0,0,4.894,3.718,11.433,11.433,0,0,1,2.178,4.485c-.154.077-.31.151-.464.229-.539.269-1.073.554-1.6.844q-1.345.745-2.627,1.552c-.563.348-1.115.706-1.662,1.069a52.063,52.063,0,0,0-6.995,5.66,16.9,16.9,0,0,1-7.132-7.06,8.845,8.845,0,0,0-2.318-9.161,8.851,8.851,0,0,0-12.512.334,8.851,8.851,0,0,0,.333,12.512,8.846,8.846,0,0,0,9.271,1.828,16.826,16.826,0,0,1,7.532,6.926,46.247,46.247,0,0,0-4.665,7.493,11.12,11.12,0,0,1-5.649-2.786,5.751,5.751,0,0,0-3.359-5.147,5.756,5.756,0,0,0-7.628,2.845,5.757,5.757,0,0,0,2.845,7.629,5.749,5.749,0,0,0,6.09-.833,11.116,11.116,0,0,1,5.844,2.481c-.51,1.328-.986,2.681-1.388,4.087-.163.545-.314,1.1-.45,1.661a44.171,44.171,0,0,0-1.244,9.122,16.642,16.642,0,0,1-10.911.387,8.842,8.842,0,0,0-8.116-4.839,8.85,8.85,0,0,0-8.612,9.082,8.85,8.85,0,0,0,9.083,8.612,8.839,8.839,0,0,0,7.847-5.262,16.591,16.591,0,0,1,11.053-.149c.193,1.58.443,3.148.769,4.692.089.44.19.879.295,1.313v.011l.006.005c.152.664.334,1.321.512,1.979a10.956,10.956,0,0,1-6.375,2.341,5.752,5.752,0,0,0-6.015-1.264,5.757,5.757,0,0,0-3.381,7.406,5.757,5.757,0,0,0,7.406,3.382,5.755,5.755,0,0,0,3.718-4.894,11.033,11.033,0,0,1,6.083-2.392c.314.873.636,1.74.985,2.587a21.717,21.717,0,0,0,3.951,6.362c.445.5.91.974,1.381,1.44.437.422.886.831,1.344,1.233.346.409.765.936.6.784a16.534,16.534,0,0,1-7.57,8.289,8.844,8.844,0,0,0-9.161,2.318,8.851,8.851,0,0,0,.333,12.512,8.851,8.851,0,0,0,12.512-.333,8.842,8.842,0,0,0,1.828-9.271,16.524,16.524,0,0,1,7.875-8c-.161-.152,4.171,3,6.647,4.342a10.847,10.847,0,0,1-2.888,6.44,5.752,5.752,0,0,0-5.147,3.359,5.757,5.757,0,0,0,2.845,7.628,5.756,5.756,0,0,0,7.628-2.845,5.749,5.749,0,0,0-.832-6.09,10.865,10.865,0,0,1,2.931-6.356,45.423,45.423,0,0,0,14.918,3.273l-.622.017a16.512,16.512,0,0,1,.509,11.214,8.847,8.847,0,0,0-4.838,8.117,8.851,8.851,0,0,0,9.084,8.611,8.85,8.85,0,0,0,8.612-9.083,8.84,8.84,0,0,0-5.264-7.846,16.528,16.528,0,0,1-.088-11.227l-.621.017a45.543,45.543,0,0,0,8.385-1.653,10.843,10.843,0,0,1,2.517,6.6,5.751,5.751,0,0,0-1.264,6.015,5.755,5.755,0,0,0,7.406,3.382A5.757,5.757,0,0,0-78.9-1437a5.754,5.754,0,0,0-4.895-3.718,10.85,10.85,0,0,1-2.422-6.564,45.121,45.121,0,0,0,10.421-6.176c.214-.154.432-.3.642-.467.468-.357.926-.745,1.383-1.137a16.526,16.526,0,0,1,8.28,7.565,8.842,8.842,0,0,0,2.318,9.16,8.85,8.85,0,0,0,12.512-.333,8.851,8.851,0,0,0-.333-12.512,8.842,8.842,0,0,0-9.271-1.827,16.532,16.532,0,0,1-8-7.876l-.43.454a45.3,45.3,0,0,0,4.772-7.1,10.835,10.835,0,0,1,6.44,2.888,5.753,5.753,0,0,0,3.359,5.147,5.759,5.759,0,0,0,7.629-2.846,5.755,5.755,0,0,0-2.846-7.627,5.753,5.753,0,0,0-6.09.831,10.857,10.857,0,0,1-6.356-2.931,45.418,45.418,0,0,0,3.273-14.917c.006.2.012.4.018.621a16.531,16.531,0,0,1,11.214-.509,8.842,8.842,0,0,0,8.117,4.838,8.852,8.852,0,0,0,8.612-9.083A8.853,8.853,0,0,0-39.636-1499.729Z" fill="#308ea9"/>
  </g>
</svg>
