<svg xmlns="http://www.w3.org/2000/svg" xmlns:xlink="http://www.w3.org/1999/xlink" width="260.64" height="294.513" viewBox="0 0 260.64 294.513">
  <defs>
    <clipPath id="clip-path">
      <path id="Trazado_3417" data-name="Trazado 3417" d="M5465.566,3958.15a130.32,130.32,0,1,0-130.32,130.31,130.325,130.325,0,0,0,130.32-130.31" fill="none"/>
    </clipPath>
  </defs>
  <g id="Grupo_10022" data-name="Grupo 10022" transform="translate(3833 -2892.83)">
    <path id="Trazado_6358" data-name="Trazado 6358" d="M51.68,19H48.76L47.832,8.365,44.258,19H42.364L38.789,8.365,37.852,19h-2.93L36.1,4.889h4.18l3.008,8.857,3.047-8.857h4.18Zm10.869-2.725a9.392,9.392,0,0,0,.244,2.451V19H60.166l-.225-1.094a3.264,3.264,0,0,1-1.406.967,5.183,5.183,0,0,1-1.816.322,4.776,4.776,0,0,1-.937-.088,3.187,3.187,0,0,1-.845-.3,2.563,2.563,0,0,1-.7-.522,2.291,2.291,0,0,1-.469-.8,3.17,3.17,0,0,1-.176-1.089,3.02,3.02,0,0,1,.186-1.089,2.552,2.552,0,0,1,.488-.815,2.962,2.962,0,0,1,.791-.6,6.052,6.052,0,0,1,1-.43,11.9,11.9,0,0,1,1.191-.312l1.65-.371a1.82,1.82,0,0,0,.747-.317.633.633,0,0,0,.22-.5A1.036,1.036,0,0,0,59.371,11a2.3,2.3,0,0,0-1.2-.293,1.721,1.721,0,0,0-1.963,1.533l-2.49-.449A3.371,3.371,0,0,1,55.176,9.5a5.783,5.783,0,0,1,3.154-.737q4.219,0,4.219,3.623ZM57.6,17.291a2.262,2.262,0,0,0,1.738-.728,3.066,3.066,0,0,0,.674-2.153l-2.383.674a2.816,2.816,0,0,0-1,.41.842.842,0,0,0-.347.723.935.935,0,0,0,.371.8A1.536,1.536,0,0,0,57.6,17.291ZM65.284,19V4h2.842V19Zm15.2-5.166-.029.674H73.008a2.6,2.6,0,0,0,.8,1.836,2.561,2.561,0,0,0,1.768.635,2.468,2.468,0,0,0,1.323-.347,2.131,2.131,0,0,0,.845-1.011L80.323,16a4.383,4.383,0,0,1-1.758,2.354,5.226,5.226,0,0,1-2.969.84,5.435,5.435,0,0,1-3.911-1.382,5.042,5.042,0,0,1-1.45-3.833,5.072,5.072,0,0,1,1.455-3.833,5.273,5.273,0,0,1,3.818-1.4,5.04,5.04,0,0,1,3.6,1.279A5.019,5.019,0,0,1,80.479,13.834Zm-4.951-3.1a2.222,2.222,0,0,0-2.441,1.934H77.7A2.114,2.114,0,0,0,77,11.236,2.2,2.2,0,0,0,75.528,10.738ZM86.153,19.2a5.61,5.61,0,0,1-2.93-.7,2.972,2.972,0,0,1-1.436-2.09l2.354-.664a1.891,1.891,0,0,0,2.012,1.494A2.078,2.078,0,0,0,87.178,17a.8.8,0,0,0,.4-.776.821.821,0,0,0-.166-.518,1.315,1.315,0,0,0-.513-.371,6.387,6.387,0,0,0-.684-.264q-.337-.107-.894-.259t-.928-.288a6.215,6.215,0,0,1-.884-.376,3.77,3.77,0,0,1-.732-.518,2.086,2.086,0,0,1-.547-.786,2.836,2.836,0,0,1-.19-1.074A2.565,2.565,0,0,1,83.13,9.527a4.865,4.865,0,0,1,2.847-.762A4.988,4.988,0,0,1,88.6,9.41a2.917,2.917,0,0,1,1.348,2.012l-2.178.488a1.706,1.706,0,0,0-1.787-1.27,1.957,1.957,0,0,0-.986.225.722.722,0,0,0-.391.664.761.761,0,0,0,.059.3.6.6,0,0,0,.205.244,2.991,2.991,0,0,0,.283.186,2.137,2.137,0,0,0,.4.161q.264.083.439.127l.513.132.522.137q.537.146.942.293a5.519,5.519,0,0,1,.864.41,3.1,3.1,0,0,1,.757.591,2.635,2.635,0,0,1,.493.83,3.066,3.066,0,0,1,.2,1.118,3.02,3.02,0,0,1-.337,1.455,2.529,2.529,0,0,1-.923.981,4.492,4.492,0,0,1-1.3.527A6.763,6.763,0,0,1,86.153,19.2Zm9.893-.2a3.032,3.032,0,0,1-2.266-.815,3.172,3.172,0,0,1-.8-2.319V11.119H91.006V8.961h.635a1.656,1.656,0,0,0,1.25-.42,2.162,2.162,0,0,0,.4-1.494V5.719H95.83V8.961H97.9v2.158H95.83v4.443q0,1.3,1.162,1.3H97.9V19Zm12.227-2.725a9.392,9.392,0,0,0,.244,2.451V19h-2.627l-.225-1.094a3.264,3.264,0,0,1-1.406.967,5.183,5.183,0,0,1-1.816.322,4.776,4.776,0,0,1-.937-.088,3.187,3.187,0,0,1-.845-.3,2.564,2.564,0,0,1-.7-.522,2.291,2.291,0,0,1-.469-.8,3.17,3.17,0,0,1-.176-1.089,3.02,3.02,0,0,1,.186-1.089,2.552,2.552,0,0,1,.488-.815,2.962,2.962,0,0,1,.791-.6,6.053,6.053,0,0,1,1-.43,11.9,11.9,0,0,1,1.191-.312l1.65-.371a1.82,1.82,0,0,0,.747-.317.633.633,0,0,0,.22-.5,1.036,1.036,0,0,0-.493-.967,2.3,2.3,0,0,0-1.2-.293,1.721,1.721,0,0,0-1.963,1.533l-2.49-.449A3.371,3.371,0,0,1,100.9,9.5a5.783,5.783,0,0,1,3.154-.737q4.219,0,4.219,3.623Zm-4.951,1.016a2.262,2.262,0,0,0,1.738-.728,3.066,3.066,0,0,0,.674-2.153l-2.383.674a2.816,2.816,0,0,0-1,.41.842.842,0,0,0-.347.723.935.935,0,0,0,.371.8A1.536,1.536,0,0,0,103.321,17.291ZM113.7,10.553a3.259,3.259,0,0,1,1.318-1.206,4.023,4.023,0,0,1,1.963-.5v2.51a3.8,3.8,0,0,0-2.4.605,2.643,2.643,0,0,0-.742,2.148V19h-2.832V8.961h2.7Zm17.041-1.592h2.676v9.287a7.51,7.51,0,0,1-.376,2.5,4.123,4.123,0,0,1-1.089,1.714,4.539,4.539,0,0,1-1.67.962,7.04,7.04,0,0,1-2.187.313q-3.975,0-5.176-3.115l2.334-1a3.406,3.406,0,0,0,1.084,1.455,2.763,2.763,0,0,0,1.65.469q2.607,0,2.607-3.1V17.281a3.163,3.163,0,0,1-1.265.991,4.2,4.2,0,0,1-1.782.376,4.5,4.5,0,0,1-3.223-1.353,4.638,4.638,0,0,1-.991-1.577,5.83,5.83,0,0,1,0-4.067,4.451,4.451,0,0,1,1-1.558,4.584,4.584,0,0,1,1.465-.977,4.521,4.521,0,0,1,1.772-.352,4.082,4.082,0,0,1,1.86.415,2.967,2.967,0,0,1,1.245,1.108ZM126.431,15.6a2.576,2.576,0,0,0,3.687-.01,2.806,2.806,0,0,0,0-3.818,2.6,2.6,0,0,0-3.7-.015,2.671,2.671,0,0,0-.737,1.929A2.644,2.644,0,0,0,126.431,15.6Zm19.351-1.768-.029.674h-7.441a2.6,2.6,0,0,0,.8,1.836,2.561,2.561,0,0,0,1.768.635,2.468,2.468,0,0,0,1.323-.347,2.131,2.131,0,0,0,.845-1.011l2.578.381a4.383,4.383,0,0,1-1.758,2.354,5.226,5.226,0,0,1-2.969.84,5.435,5.435,0,0,1-3.911-1.382,5.042,5.042,0,0,1-1.45-3.833,5.072,5.072,0,0,1,1.455-3.833,5.273,5.273,0,0,1,3.818-1.4,5.04,5.04,0,0,1,3.6,1.279A5.019,5.019,0,0,1,145.782,13.834Zm-4.951-3.1a2.222,2.222,0,0,0-2.441,1.934H143a2.114,2.114,0,0,0-.693-1.436A2.2,2.2,0,0,0,140.83,10.738Zm13.018-1.973a3.914,3.914,0,0,1,2.773.9,3.349,3.349,0,0,1,.967,2.573V19h-2.822V12.848a1.749,1.749,0,0,0-.5-1.387,1.9,1.9,0,0,0-1.294-.439,2.643,2.643,0,0,0-.84.127,2.158,2.158,0,0,0-.7.4,1.748,1.748,0,0,0-.5.757,3.5,3.5,0,0,0-.19,1.162V19H147.92V8.961h2.813v1.113A3.868,3.868,0,0,1,153.848,8.766Zm15.908,5.068-.029.674h-7.441a2.6,2.6,0,0,0,.8,1.836,2.561,2.561,0,0,0,1.768.635,2.468,2.468,0,0,0,1.323-.347,2.131,2.131,0,0,0,.845-1.011L169.6,16a4.383,4.383,0,0,1-1.758,2.354,5.226,5.226,0,0,1-2.969.84,5.435,5.435,0,0,1-3.911-1.382,5.042,5.042,0,0,1-1.45-3.833,5.072,5.072,0,0,1,1.455-3.833,5.273,5.273,0,0,1,3.818-1.4,5.04,5.04,0,0,1,3.6,1.279A5.019,5.019,0,0,1,169.756,13.834Zm-4.951-3.1a2.222,2.222,0,0,0-2.441,1.934h4.609a2.114,2.114,0,0,0-.693-1.436A2.2,2.2,0,0,0,164.805,10.738Zm9.785-.186a3.259,3.259,0,0,1,1.318-1.206,4.023,4.023,0,0,1,1.963-.5v2.51a3.8,3.8,0,0,0-2.4.605,2.643,2.643,0,0,0-.742,2.148V19h-2.832V8.961h2.7ZM187.7,16.275a9.391,9.391,0,0,0,.244,2.451V19h-2.627l-.225-1.094a3.264,3.264,0,0,1-1.406.967,5.183,5.183,0,0,1-1.816.322,4.776,4.776,0,0,1-.937-.088,3.187,3.187,0,0,1-.845-.3,2.563,2.563,0,0,1-.7-.522,2.291,2.291,0,0,1-.469-.8,3.17,3.17,0,0,1-.176-1.089,3.019,3.019,0,0,1,.186-1.089,2.552,2.552,0,0,1,.488-.815,2.962,2.962,0,0,1,.791-.6,6.052,6.052,0,0,1,1-.43,11.9,11.9,0,0,1,1.191-.312l1.65-.371a1.82,1.82,0,0,0,.747-.317.633.633,0,0,0,.22-.5,1.036,1.036,0,0,0-.493-.967,2.3,2.3,0,0,0-1.2-.293,1.721,1.721,0,0,0-1.963,1.533l-2.49-.449a3.371,3.371,0,0,1,1.455-2.29,5.783,5.783,0,0,1,3.154-.737q4.219,0,4.219,3.623Zm-4.951,1.016a2.262,2.262,0,0,0,1.738-.728,3.066,3.066,0,0,0,.674-2.153l-2.383.674a2.816,2.816,0,0,0-1,.41.842.842,0,0,0-.347.723.935.935,0,0,0,.371.8A1.536,1.536,0,0,0,182.745,17.291ZM190.43,19V4h2.842V19Z" transform="translate(-3817 3163.607)" fill="#024e73"/>
    <g id="Grupo_9865" data-name="Grupo 9865" transform="translate(-9037.926 -935)">
      <g id="Grupo_9861" data-name="Grupo 9861">
        <g id="Grupo_9860" data-name="Grupo 9860" clip-path="url(#clip-path)">
          <path id="Trazado_3407" data-name="Trazado 3407" d="M5492.076,3961.5a157.76,157.76,0,1,0-157.76,157.75,157.758,157.758,0,0,0,157.76-157.75Z" fill="#9bd7f5"/>
          <path id="Trazado_3408" data-name="Trazado 3408" d="M5316.156,3924.71s-29.57,11.15-37.76,17.14c-15.63,11.45-14.79,40.93-17.86,40.93l9.37,1.51s15.23-5.99,16.59-5.62c6.34,1.72,13.31,60.91,13.31,60.91l-7.16,47.09s33.91,30.58,101.85-.51l-2.04-74.22,1.15-21.5s25.98-38.82-5.55-59.19c-13.41-8.66-53.57-6.84-53.57-6.84l-18.33.3Z" fill="#242638"/>
          <path id="Trazado_3409" data-name="Trazado 3409" d="M5265,3969.48l-16.06,65.85a8.336,8.336,0,0,0,1.84,6.97c3.21,3.76,9.17,9.17,16.01,7.86,10.24-1.97,65.23-45.26,65.23-45.26l-9.92-9.76-40.91,19.27,13.52-33.81L5265,3969.48Z" fill="#e89191"/>
          <path id="Trazado_3410" data-name="Trazado 3410" d="M5316.986,3998.64s3.47-9.53,6.52-14.16,12.32-15.45,14.56-15.28-6.79,13.29-5.49,14.13,21.37-14.12,22.54-12.48-10.2,11.48-10.2,11.48,12.67-8.99,13.33-8.06-11.13,12.14-11.13,12.14,12.62-7.55,13.09-5.41-14.55,12.8-14.55,12.8,10.58-3.98,11.41-2.81-30.61,17.5-30.61,17.5l-9.47-9.85Z" fill="#e89191"/>
          <path id="Trazado_3411" data-name="Trazado 3411" d="M5281,4014.5c-11.63,2.79-17.49,5.77-21.14,9.79" fill="none" stroke="#f97070" stroke-linecap="round" stroke-linejoin="round" stroke-width="0.575"/>
          <path id="Trazado_3412" data-name="Trazado 3412" d="M5401.626,3949l29.34,60.18a8.378,8.378,0,0,1,.08,7.22c-2.1,4.47-6.4,11.28-13.33,11.83-10.4.83-74.93-26.25-74.93-26.25l7.79-12.31,46.39,8.14-24.7-29.19,29.36-19.62Z" fill="#fca19f"/>
          <path id="Trazado_3413" data-name="Trazado 3413" d="M5355.6,3991.94s-5.88-8.25-10.06-11.91-15.98-11.6-18.1-10.84,10.09,11,9.06,12.16-24.36-7.92-25.05-6.03,12.89,8.35,12.89,8.35-14.61-5.3-15-4.22,13.97,8.74,13.97,8.74-14.19-3.92-14.06-1.73,17.43,8.46,17.43,8.46-11.25-1.02-11.75.33,34.17,8.72,34.17,8.72l6.5-12.03Z" fill="#fca19f"/>
          <path id="Trazado_3414" data-name="Trazado 3414" d="M5397.506,3997.62c15.17,2.02,13.8,1.89,19.99,3.84" fill="none" stroke="#f97070" stroke-linecap="round" stroke-linejoin="round" stroke-width="0.575"/>
          <path id="Trazado_3415" data-name="Trazado 3415" d="M5354.786,3924.44a65.237,65.237,0,0,1-7.89-4.9c-4.63-3.81-10.34-23.4-10.34-23.4l-25.84,8.44s4.08,19.04,2.72,20.13-1.64,10.88,10.33,12.51,31.02-12.78,31.02-12.78Z" fill="#fca19f"/>
          <path id="Trazado_3416" data-name="Trazado 3416" d="M5336.146,3894.78s.82,2.42,1.33,3.72c-3.3,27.84-19.36,25.04-23.72,23.94-.34-5.42-2.95-17.63-2.95-17.63l25.34-10.03Z" fill="#f97070"/>
        </g>
      </g>
      <g id="Grupo_9862" data-name="Grupo 9862">
        <path id="Trazado_3418" data-name="Trazado 3418" d="M5300.046,3857.34a28.052,28.052,0,0,1,12.41-6.91c7.73-2.09,15.47-1,21.41,4.66,4.88,4.64,6.59,10.81,6.93,16.41a43.918,43.918,0,0,1-1.7,14.49c-.91,3.02-1.81,6.05-2.71,9.07-2.82,10.75-8.59,17.54-18.36,19.11-5.91.94-11.76.44-15.69-4.5-6.5-8.18-8.34-25.08-8.37-35.89-.02-6.25,1.56-11.93,6.08-16.44Z" fill="#fca19f"/>
      </g>
      <g id="Grupo_9864" data-name="Grupo 9864">
        <g id="Grupo_9863" data-name="Grupo 9863" clip-path="url(#clip-path)">
          <path id="Trazado_3419" data-name="Trazado 3419" d="M5336.846,3885.2s-6.76-6.54-8.6-20.78c0,0-6.46-1.5-10.57-.66s-8.67,4.87-16.95,5.31a14.957,14.957,0,0,1-12.49-5.36,24.969,24.969,0,0,0,2.62-.23,51.849,51.849,0,0,1-6.06-7.24s2.08.2,9.88-1.74a16.21,16.21,0,0,1-4.01-4,43.872,43.872,0,0,0,14.46-1.35c7.94-2.08,18.35-4.67,23.71-1.68s5.65,3.66,5.65,3.66-2.27-5.72-4.66-6.74c0,0,5.73,1.87,6.62,7.36a43.833,43.833,0,0,1,4.86.52c1.67.35-3.85.69-3.85.69s11,13.98,1.71,35.86l-2.32-3.62Z" fill="#242638"/>
          <path id="Trazado_3420" data-name="Trazado 3420" d="M5307.456,3903.13a1.481,1.481,0,0,1-.4-.64,2.728,2.728,0,0,1,2.68-3.64,14.1,14.1,0,0,1,2.1.48,8.279,8.279,0,0,0,3.87-.44c1.67-.49,3.48-1.07,5.09-.43a4.083,4.083,0,0,1,1.78,1.46,2.628,2.628,0,0,1,.44,2.46,3.1,3.1,0,0,1-1.42,1.37,4.681,4.681,0,0,1-1.5.62,7,7,0,0,1-3.56-.7,7.462,7.462,0,0,0-3.45-.54c-.6.08-1.18.28-1.78.4a7.14,7.14,0,0,1-3.12-.08,1.772,1.772,0,0,1-.73-.32Z" fill="#fff"/>
          <path id="Trazado_3421" data-name="Trazado 3421" d="M5325.006,3879.82l-6.04,3.12,6.75.09m-26.45-1.92,6.44,2.19-6.67,1.09m11.8-3.25a15.746,15.746,0,0,1-1.06,9.48,2.914,2.914,0,0,0-.33,1.06,1.841,1.841,0,0,0,1.17,1.58,6.917,6.917,0,0,0,2.03.42c.4.05.93-.05,1.15.29a1.24,1.24,0,0,1,.1,1.52" fill="none" stroke="#242638" stroke-linecap="round" stroke-linejoin="round" stroke-width="0.544"/>
          <path id="Trazado_3422" data-name="Trazado 3422" d="M5335.036,3882.94s3.45-3.72,6.17-2.22,3.65,8.92-4.41,10.67a13.563,13.563,0,0,1-1.76-8.45Z" fill="#fd9997"/>
          <path id="Trazado_3423" data-name="Trazado 3423" d="M5295.356,3884.25s-3.46-2.39-4.87-.42.13,8.65,6.14,8.21a15.284,15.284,0,0,0-1.27-7.79Z" fill="#fc9e9c"/>
          <path id="Trazado_3424" data-name="Trazado 3424" d="M5334.486,3851.13s-4.28-6.07-10.73-7.84-18.44,1.33-23.28.04c0,0,3.87,4.12,11.5,5.44a82.969,82.969,0,0,1,13.71,3.64l8.8-1.28Z" fill="#242638"/>
          <path id="Trazado_3425" data-name="Trazado 3425" d="M5296.446,3868.09s-1.83,10.35-1.93,15.71c0,0-2.73-14.56-1.02-18.7s2.95,2.99,2.95,2.99Z" fill="#242638"/>
          <path id="Trazado_3426" data-name="Trazado 3426" d="M5327.946,3875.92c.68,1.25-1.91,1.05-3.52.75s-5.02.98-6.35.94-1.96-2.77.23-3.38,7.84-1.61,9.64,1.69Z" fill="#242638"/>
          <path id="Trazado_3427" data-name="Trazado 3427" d="M5297.836,3877c-.59,1.29,1.98.91,3.57.5s5.07.61,6.4.48,1.76-2.91-.48-3.36-7.93-1.04-9.49,2.38Z" fill="#242638"/>
          <path id="Trazado_3428" data-name="Trazado 3428" d="M5318.946,3884.85s3.06,2.39,5.98,2.11m-18.43-2.38a9.452,9.452,0,0,1-6.05,2.79" fill="none" stroke="#dd5b5b" stroke-linecap="round" stroke-linejoin="round" stroke-width="0.544"/>
          <path id="Trazado_3429" data-name="Trazado 3429" d="M5397.546,3939.9l14.23,25.67s-20.65,23.72-26.51,24.56-10.6-6.42-10.6-6.42l-8.09-17.58,3.06-9.76,27.91-16.47Z" fill="#242638"/>
          <path id="Trazado_3430" data-name="Trazado 3430" d="M5269.086,3953.95l-11.34,32.74s23.81,11.53,31.62,11.53l4.65-10.97,3.35-10.61-10.05-12.46-18.23-10.23Z" fill="#242638"/>
          <path id="Trazado_3431" data-name="Trazado 3431" d="M5352.836,3965.13l20.16-20.37-9.42,1.79,10.27-13.94-18.77,18.27,8.06.49-10.3,13.76Z" fill="#f96767"/>
          <path id="Trazado_3432" data-name="Trazado 3432" d="M5363.476,3974.46l16.33-.63-4.62-2.93,9.71-1.8-14.94.3,3.17,3.34-9.65,1.72Z" fill="#f96767"/>
          <path id="Trazado_3433" data-name="Trazado 3433" d="M5345.026,3963.86l-.35-16.33-3.01,4.56-1.63-9.73.04,14.93,3.4-3.11,1.55,9.68Z" fill="#f96767"/>
          <path id="Trazado_3434" data-name="Trazado 3434" d="M5315.106,3971.9l-21.2-19.28,9.5,1.29-10.99-13.38,19.7,17.26-8.02.91,11.01,13.2Z" fill="#f96767"/>
          <path id="Trazado_3435" data-name="Trazado 3435" d="M5308.386,3976.88l-15.94,3.59,3.71-4.01-9.84.75,14.51-3.55-2.21,4.04,9.77-.82Z" fill="#f96767"/>
        </g>
      </g>
    </g>
  </g>
</svg>
