<svg xmlns="http://www.w3.org/2000/svg" xmlns:xlink="http://www.w3.org/1999/xlink" width="260.635" height="316.577" viewBox="0 0 260.635 316.577">
  <defs>
    <clipPath id="clip-path">
      <path id="Trazado_3310" data-name="Trazado 3310" d="M5204.928,3571.514a130.317,130.317,0,1,1,130.315,130.31,130.32,130.32,0,0,1-130.315-130.31" fill="none"/>
    </clipPath>
    <clipPath id="clip-path-2">
      <path id="Intersección_3" data-name="Intersección 3" d="M5337.542,3527.864c-10.518-1.881-16.61-9.321-19.449-20.98q-1.381-4.922-2.741-9.84a47.316,47.316,0,0,1-1.558-15.68c.469-6.041,2.439-12.67,7.8-17.581,6.531-5.99,14.9-7.02,23.2-4.609a30.248,30.248,0,0,1,13.26,7.7c4.79,4.95,6.389,11.12,6.25,17.861-.251,11.669-2.56,29.879-9.74,38.58-2.084,2.682-8.057,4.833-13.666,4.833A19.1,19.1,0,0,1,5337.542,3527.864Z" fill="none"/>
    </clipPath>
  </defs>
  <g id="Grupo_10020" data-name="Grupo 10020" transform="translate(3833 -2506.194)">
    <path id="Trazado_6355" data-name="Trazado 6355" d="M44.876,19V4.889h5.107a7.962,7.962,0,0,1,2.944.508,5.423,5.423,0,0,1,2.109,1.44,6.266,6.266,0,0,1,1.25,2.222,9.172,9.172,0,0,1,.425,2.881,9.206,9.206,0,0,1-.425,2.891,6.266,6.266,0,0,1-1.25,2.222,5.423,5.423,0,0,1-2.109,1.44A7.962,7.962,0,0,1,49.984,19Zm2.93-2.588h2.031a3.466,3.466,0,0,0,2.852-1.147,5.143,5.143,0,0,0,.938-3.325,5.143,5.143,0,0,0-.937-3.325,3.466,3.466,0,0,0-2.852-1.147H47.806ZM60.521,7.457a1.579,1.579,0,0,1-1.152-.474,1.555,1.555,0,0,1-.479-1.147A1.536,1.536,0,0,1,59.373,4.7a1.584,1.584,0,0,1,1.147-.474,1.626,1.626,0,0,1,1.611,1.611,1.626,1.626,0,0,1-1.611,1.621ZM59.085,19V8.961h2.832V19ZM65.531,7.877A5.871,5.871,0,0,1,65.658,6.6,3.893,3.893,0,0,1,66,5.626a2.275,2.275,0,0,1,.571-.7,3.371,3.371,0,0,1,.742-.469,4.241,4.241,0,0,1,.923-.283,8.1,8.1,0,0,1,1.06-.142Q69.818,4,70.491,4V6.246h-.059q-.273,0-.415,0t-.4.034a1.621,1.621,0,0,0-.405.088,2.065,2.065,0,0,0-.337.181.9.9,0,0,0-.293.293,1.77,1.77,0,0,0-.176.435,2.269,2.269,0,0,0-.073.605V8.961h2.158v2.158H68.333V19h-2.8V11.119H63.568V8.961h1.963Zm7.988-.42a1.579,1.579,0,0,1-1.152-.474,1.555,1.555,0,0,1-.479-1.147A1.536,1.536,0,0,1,72.371,4.7a1.584,1.584,0,0,1,1.147-.474A1.626,1.626,0,0,1,75.13,5.836a1.626,1.626,0,0,1-1.611,1.621ZM72.083,19V8.961h2.832V19Zm10.283.186A5.364,5.364,0,0,1,78.49,17.74a4.992,4.992,0,0,1-1.5-3.77,4.981,4.981,0,0,1,1.5-3.77,5.96,5.96,0,0,1,7.134-.469,4.316,4.316,0,0,1,1.68,2.725l-2.6.283a2.226,2.226,0,0,0-.84-1.318,2.554,2.554,0,0,0-1.523-.439,2.3,2.3,0,0,0-1.836.82,3.216,3.216,0,0,0-.7,2.168,3.22,3.22,0,0,0,.7,2.163,2.3,2.3,0,0,0,1.836.825,2.532,2.532,0,0,0,1.519-.439A2.277,2.277,0,0,0,84.7,15.2l2.6.283A4.328,4.328,0,0,1,85.6,18.209,5.327,5.327,0,0,1,82.366,19.186ZM95.95,8.961h2.813V19H96.1l-.068-1.211A3.834,3.834,0,0,1,92.835,19.2a3.914,3.914,0,0,1-2.773-.9,3.349,3.349,0,0,1-.967-2.573V8.961h2.822v6.152a1.735,1.735,0,0,0,.5,1.377,1.909,1.909,0,0,0,1.3.439,2.264,2.264,0,0,0,1.6-.571,2.454,2.454,0,0,0,.63-1.86ZM101.673,19V4h2.842V19Zm9.492,0a3.032,3.032,0,0,1-2.266-.815,3.172,3.172,0,0,1-.8-2.319V11.119h-1.973V8.961h.635a1.656,1.656,0,0,0,1.25-.42,2.162,2.162,0,0,0,.4-1.494V5.719h2.539V8.961h2.07v2.158h-2.07v4.443q0,1.3,1.162,1.3h.908V19Zm12.227-2.725a9.392,9.392,0,0,0,.244,2.451V19h-2.627l-.225-1.094a3.264,3.264,0,0,1-1.406.967,5.183,5.183,0,0,1-1.816.322,4.776,4.776,0,0,1-.937-.088,3.187,3.187,0,0,1-.845-.3,2.564,2.564,0,0,1-.7-.522,2.291,2.291,0,0,1-.469-.8,3.17,3.17,0,0,1-.176-1.089,3.02,3.02,0,0,1,.186-1.089,2.552,2.552,0,0,1,.488-.815,2.962,2.962,0,0,1,.791-.6,6.053,6.053,0,0,1,1-.43,11.9,11.9,0,0,1,1.191-.312l1.65-.371a1.82,1.82,0,0,0,.747-.317.633.633,0,0,0,.22-.5,1.036,1.036,0,0,0-.493-.967,2.3,2.3,0,0,0-1.2-.293,1.721,1.721,0,0,0-1.963,1.533l-2.49-.449a3.371,3.371,0,0,1,1.455-2.29,5.783,5.783,0,0,1,3.154-.737q4.219,0,4.219,3.623Zm-4.951,1.016a2.262,2.262,0,0,0,1.738-.728,3.066,3.066,0,0,0,.674-2.153l-2.383.674a2.816,2.816,0,0,0-1,.41.842.842,0,0,0-.347.723.935.935,0,0,0,.371.8A1.536,1.536,0,0,0,118.441,17.291ZM133.021,4h2.813V19h-2.666l-.068-1.309a2.867,2.867,0,0,1-1.274,1.138,4.29,4.29,0,0,1-1.88.405,4.883,4.883,0,0,1-1.875-.361,4.516,4.516,0,0,1-2.578-2.676,6.106,6.106,0,0,1-.381-2.2,5.707,5.707,0,0,1,.664-2.8,4.55,4.55,0,0,1,1.753-1.821,4.827,4.827,0,0,1,2.417-.615,4.4,4.4,0,0,1,1.821.366,2.843,2.843,0,0,1,1.255,1.04Zm-2.432,12.9a2.5,2.5,0,0,0,1.9-.8,2.932,2.932,0,0,0,.757-2.1,2.938,2.938,0,0,0-.762-2.1,2.5,2.5,0,0,0-1.895-.806,2.53,2.53,0,0,0-1.909.791A2.937,2.937,0,0,0,127.923,14a2.924,2.924,0,0,0,.757,2.109A2.53,2.53,0,0,0,130.589,16.9Zm19.238-8.135a4.883,4.883,0,0,1,1.875.361,4.692,4.692,0,0,1,1.538,1.016,4.6,4.6,0,0,1,1.04,1.655,6.146,6.146,0,0,1,.381,2.2,6.146,6.146,0,0,1-.381,2.2,4.6,4.6,0,0,1-1.04,1.655,4.692,4.692,0,0,1-1.538,1.016,4.883,4.883,0,0,1-1.875.361,4.356,4.356,0,0,1-1.816-.371,2.846,2.846,0,0,1-1.26-1.055v6.074h-2.812V8.961H146.6l.078,1.348a2.75,2.75,0,0,1,1.255-1.138A4.313,4.313,0,0,1,149.827,8.766Zm-.635,8.135a2.527,2.527,0,0,0,1.9-.786A2.92,2.92,0,0,0,151.849,14a2.92,2.92,0,0,0-.757-2.114,2.688,2.688,0,0,0-3.813.015,2.921,2.921,0,0,0-.762,2.1,2.921,2.921,0,0,0,.762,2.1A2.531,2.531,0,0,0,149.193,16.9Zm15.82-.625a9.391,9.391,0,0,0,.244,2.451V19H162.63l-.225-1.094a3.264,3.264,0,0,1-1.406.967,5.183,5.183,0,0,1-1.816.322,4.776,4.776,0,0,1-.937-.088,3.187,3.187,0,0,1-.845-.3,2.563,2.563,0,0,1-.7-.522,2.291,2.291,0,0,1-.469-.8,3.17,3.17,0,0,1-.176-1.089,3.019,3.019,0,0,1,.186-1.089,2.552,2.552,0,0,1,.488-.815,2.962,2.962,0,0,1,.791-.6,6.052,6.052,0,0,1,1-.43,11.9,11.9,0,0,1,1.191-.312l1.65-.371a1.82,1.82,0,0,0,.747-.317.633.633,0,0,0,.22-.5,1.036,1.036,0,0,0-.493-.967,2.3,2.3,0,0,0-1.2-.293,1.721,1.721,0,0,0-1.963,1.533l-2.49-.449A3.371,3.371,0,0,1,157.64,9.5a5.783,5.783,0,0,1,3.154-.737q4.219,0,4.219,3.623Zm-4.951,1.016a2.262,2.262,0,0,0,1.738-.728,3.066,3.066,0,0,0,.674-2.153l-2.383.674a2.816,2.816,0,0,0-1,.41.842.842,0,0,0-.347.723.935.935,0,0,0,.371.8A1.536,1.536,0,0,0,160.062,17.291Zm10.381-6.738a3.259,3.259,0,0,1,1.318-1.206,4.023,4.023,0,0,1,1.963-.5v2.51a3.8,3.8,0,0,0-2.4.605,2.643,2.643,0,0,0-.742,2.148V19h-2.832V8.961h2.7Zm13.105,5.723a9.391,9.391,0,0,0,.244,2.451V19h-2.627l-.225-1.094a3.264,3.264,0,0,1-1.406.967,5.183,5.183,0,0,1-1.816.322,4.776,4.776,0,0,1-.937-.088,3.187,3.187,0,0,1-.845-.3,2.563,2.563,0,0,1-.7-.522,2.291,2.291,0,0,1-.469-.8,3.17,3.17,0,0,1-.176-1.089,3.019,3.019,0,0,1,.186-1.089,2.552,2.552,0,0,1,.488-.815,2.962,2.962,0,0,1,.791-.6,6.052,6.052,0,0,1,1-.43,11.9,11.9,0,0,1,1.191-.312l1.65-.371a1.82,1.82,0,0,0,.747-.317.633.633,0,0,0,.22-.5,1.036,1.036,0,0,0-.493-.967,2.3,2.3,0,0,0-1.2-.293,1.721,1.721,0,0,0-1.963,1.533l-2.49-.449a3.371,3.371,0,0,1,1.455-2.29,5.783,5.783,0,0,1,3.154-.737q4.219,0,4.219,3.623ZM178.6,17.291a2.262,2.262,0,0,0,1.738-.728,3.066,3.066,0,0,0,.674-2.153l-2.383.674a2.816,2.816,0,0,0-1,.41.842.842,0,0,0-.347.723.935.935,0,0,0,.371.8A1.536,1.536,0,0,0,178.6,17.291ZM83.973,41,80.3,34.789h-.85V41h-2.93V26.889h5.117a5.919,5.919,0,0,1,2.051.327,3.546,3.546,0,0,1,1.421.908,3.889,3.889,0,0,1,.8,1.333,4.876,4.876,0,0,1,.269,1.65,3.446,3.446,0,0,1-.771,2.319,3.888,3.888,0,0,1-2.217,1.216L87.44,41ZM79.451,29.32v3.369H81.18q2.2,0,2.2-1.68a1.53,1.53,0,0,0-.537-1.24,2.554,2.554,0,0,0-1.66-.449Zm18.613,6.514-.029.674H90.594a2.6,2.6,0,0,0,.8,1.836,2.561,2.561,0,0,0,1.768.635,2.468,2.468,0,0,0,1.323-.347,2.131,2.131,0,0,0,.845-1.011L97.908,38a4.383,4.383,0,0,1-1.758,2.354,5.226,5.226,0,0,1-2.969.84,5.435,5.435,0,0,1-3.911-1.382,5.042,5.042,0,0,1-1.45-3.833,5.072,5.072,0,0,1,1.455-3.833,5.273,5.273,0,0,1,3.818-1.4,4.6,4.6,0,0,1,4.971,5.088Zm-4.951-3.1a2.222,2.222,0,0,0-2.441,1.934h4.609a2.114,2.114,0,0,0-.693-1.436A2.2,2.2,0,0,0,93.114,32.738ZM103.739,41.2a5.61,5.61,0,0,1-2.93-.7,2.972,2.972,0,0,1-1.436-2.09l2.354-.664a1.891,1.891,0,0,0,2.012,1.494A2.078,2.078,0,0,0,104.764,39a.8.8,0,0,0,.4-.776.821.821,0,0,0-.166-.518,1.315,1.315,0,0,0-.513-.371,6.387,6.387,0,0,0-.684-.264q-.337-.107-.894-.259t-.928-.288a6.215,6.215,0,0,1-.884-.376,3.77,3.77,0,0,1-.732-.518,2.086,2.086,0,0,1-.547-.786,2.836,2.836,0,0,1-.19-1.074,2.565,2.565,0,0,1,1.089-2.246,4.865,4.865,0,0,1,2.847-.762,4.988,4.988,0,0,1,2.627.645,2.917,2.917,0,0,1,1.348,2.012l-2.178.488a1.706,1.706,0,0,0-1.787-1.27,1.957,1.957,0,0,0-.986.225.722.722,0,0,0-.391.664.761.761,0,0,0,.059.3.6.6,0,0,0,.205.244,2.991,2.991,0,0,0,.283.186,2.137,2.137,0,0,0,.4.161q.264.083.439.127l.513.132.522.137q.537.146.942.293a5.519,5.519,0,0,1,.864.41,3.1,3.1,0,0,1,.757.591,2.635,2.635,0,0,1,.493.83,3.066,3.066,0,0,1,.2,1.118,3.02,3.02,0,0,1-.337,1.455,2.529,2.529,0,0,1-.923.981,4.492,4.492,0,0,1-1.3.527A6.763,6.763,0,0,1,103.739,41.2Zm12.041-10.43a4.883,4.883,0,0,1,1.875.361,4.692,4.692,0,0,1,1.538,1.016,4.6,4.6,0,0,1,1.04,1.655,6.557,6.557,0,0,1,0,4.4,4.6,4.6,0,0,1-1.04,1.655,4.692,4.692,0,0,1-1.538,1.016,4.882,4.882,0,0,1-1.875.361,4.356,4.356,0,0,1-1.816-.371,2.846,2.846,0,0,1-1.26-1.055v6.074h-2.812V30.961h2.666l.078,1.348a2.75,2.75,0,0,1,1.255-1.138A4.313,4.313,0,0,1,115.78,30.766Zm-.635,8.135a2.527,2.527,0,0,0,1.9-.786,3.332,3.332,0,0,0,0-4.229,2.688,2.688,0,0,0-3.813.015,3.275,3.275,0,0,0,0,4.2A2.531,2.531,0,0,0,115.145,38.9Zm9.023-9.443a1.579,1.579,0,0,1-1.152-.474,1.555,1.555,0,0,1-.479-1.147,1.536,1.536,0,0,1,.483-1.138,1.584,1.584,0,0,1,1.147-.474,1.616,1.616,0,0,1,0,3.232ZM122.733,41V30.961h2.832V41Zm8.438-8.447a3.259,3.259,0,0,1,1.318-1.206,4.023,4.023,0,0,1,1.963-.5v2.51a3.8,3.8,0,0,0-2.4.605,2.643,2.643,0,0,0-.742,2.148V41h-2.832V30.961h2.7Zm13.105,5.723a9.391,9.391,0,0,0,.244,2.451V41h-2.627l-.225-1.094a3.264,3.264,0,0,1-1.406.967,5.183,5.183,0,0,1-1.816.322,4.776,4.776,0,0,1-.937-.088,3.187,3.187,0,0,1-.845-.3,2.563,2.563,0,0,1-.7-.522,2.291,2.291,0,0,1-.469-.8,3.17,3.17,0,0,1-.176-1.089,3.019,3.019,0,0,1,.186-1.089,2.552,2.552,0,0,1,.488-.815,2.962,2.962,0,0,1,.791-.6,6.052,6.052,0,0,1,1-.43,11.9,11.9,0,0,1,1.191-.312l1.65-.371a1.82,1.82,0,0,0,.747-.317.633.633,0,0,0,.22-.5A1.036,1.036,0,0,0,141.1,33a2.3,2.3,0,0,0-1.2-.293,1.721,1.721,0,0,0-1.963,1.533l-2.49-.449A3.371,3.371,0,0,1,136.9,31.5a5.783,5.783,0,0,1,3.154-.737q4.219,0,4.219,3.623Zm-4.951,1.016a2.262,2.262,0,0,0,1.738-.728,3.066,3.066,0,0,0,.674-2.153l-2.383.674a2.816,2.816,0,0,0-1,.41.842.842,0,0,0-.347.723.935.935,0,0,0,.371.8A1.536,1.536,0,0,0,139.324,39.291Zm10.381-6.738a3.259,3.259,0,0,1,1.318-1.206,4.023,4.023,0,0,1,1.963-.5v2.51a3.8,3.8,0,0,0-2.4.605,2.643,2.643,0,0,0-.742,2.148V41H147.01V30.961h2.7Z" transform="translate(-3817 2776.888)" fill="#024e73"/>
    <g id="Grupo_9850" data-name="Grupo 9850" transform="translate(-9037.928 -935)">
      <g id="Grupo_9845" data-name="Grupo 9845">
        <g id="Grupo_9844" data-name="Grupo 9844" clip-path="url(#clip-path)">
          <path id="Trazado_3302" data-name="Trazado 3302" d="M5178.418,3574.864a157.758,157.758,0,1,1,157.755,157.75,157.757,157.757,0,0,1-157.755-157.75" fill="#9bd7f5"/>
          <path id="Trazado_3303" data-name="Trazado 3303" d="M5287.113,3596.734l-8.78,39.79,2.72,73.93-18.735,2.71-11.782-71.68a15.23,15.23,0,0,1,.094-7.24l11.949-46.26,24.534,8.75Z" fill="#fca19f"/>
          <path id="Trazado_3304" data-name="Trazado 3304" d="M5344.873,3539.824s38.09,6.44,43.74,8.51c6.61,2.42.28,45.21-1.67,52.74-1.6,6.18-3.76,34.28-3.76,34.28l1.71,62.71s-29.06,18.92-95,3.02c-.8-.19,5.65-44.53,5.3-46.33-.47-2.38-3.84-29.59-12.4-53.69-3.52-9.89-16.41-40.12-2.179-47.01,13.989-6.77,45.409-14.44,45.409-14.44l18.85.21" fill="#242638"/>
          <path id="Trazado_3305" data-name="Trazado 3305" d="M5311.453,3543.454s4.15-2.57,5.84-5.04c3.3-4.82,3.34-24.67,3.34-24.67l26.44.89s2.05,25.84,3.7,26.24c5.34,1.3,1.43,7.67-10.22,10.04-11.519,2.35-29.1-7.46-29.1-7.46" fill="#fca19f"/>
          <path id="Trazado_3306" data-name="Trazado 3306" d="M5320.643,3512.364s.07,2.86-.06,4.22c10.61,25.12,24.46,17.98,28.23,15.78-.59-5.06-1.76-17.49-1.76-17.49l-26.41-2.51Z" fill="#f97070"/>
          <path id="Trazado_3307" data-name="Trazado 3307" d="M5279.043,3555.184c-16.559,6.55-27.721,57.05-27.721,57.05a74.518,74.518,0,0,0,34.6,11.45l2.79-14.52-9.67-53.98Z" fill="#242638"/>
          <path id="Trazado_3308" data-name="Trazado 3308" d="M5403.683,3578.754l16.74,49.39,29.581,54.14-15.351,12.55s-36.55-50.51-38.78-56.09-13.68-41.3-13.68-41.3l21.49-18.69Z" fill="#fca19f"/>
          <path id="Trazado_3309" data-name="Trazado 3309" d="M5388.613,3548.334c9.951,4.09,29.3,53.86,29.3,53.86a38.719,38.719,0,0,1-30.139,18.14l-9.671-21.96,10.51-50.04Z" fill="#242638"/>
        </g>
      </g>
      <g id="Grupo_9847" data-name="Grupo 9847">
        <path id="Trazado_3311" data-name="Trazado 3311" d="M5358.053,3466.874a30.254,30.254,0,0,0-13.26-7.7c-8.3-2.41-16.67-1.38-23.2,4.61-5.36,4.91-7.33,11.54-7.8,17.58a47.3,47.3,0,0,0,1.559,15.68q1.365,4.92,2.74,9.84c2.84,11.66,8.931,19.1,19.45,20.98,6.36,1.14,14.51-1.32,17.02-4.55,7.181-8.7,9.49-26.91,9.74-38.58.14-6.74-1.46-12.91-6.25-17.86Z" fill="#fca19f"/>
      </g>
      <g id="Grupo_9849" data-name="Grupo 9849">
        <g id="Grupo_9848" data-name="Grupo 9848" clip-path="url(#clip-path)">
          <path id="Trazado_3314" data-name="Trazado 3314" d="M5317.793,3496.234s7.42-6.93,9.69-22.27c0,0,7-1.49,11.42-.51s9.26,5.43,18.19,6.06a16.119,16.119,0,0,0,13.58-5.53,26.021,26.021,0,0,1-2.82-.31,55.179,55.179,0,0,0,6.691-7.7s-2.25.18-10.641-2.06a17.322,17.322,0,0,0,4.41-4.24,47.375,47.375,0,0,1-15.58-1.74c-8.53-2.4-19.72-5.4-25.56-2.28s-6.18,3.85-6.18,3.85,2.571-6.13,5.17-7.19c0,0-6.23,1.91-7.29,7.82a45.262,45.262,0,0,0-5.25.46c-1.81.35,4.13.82,4.13.82s-12.15,14.87-2.53,38.68l2.57-3.86Z" fill="#242638"/>
          <path id="Trazado_3315" data-name="Trazado 3315" d="M5345.943,3492.354a16.993,16.993,0,0,0,.96,10.25,2.972,2.972,0,0,1,.33,1.15,1.977,1.977,0,0,1-1.28,1.69,7.454,7.454,0,0,1-2.209.41c-.421.05-1-.07-1.241.29a1.312,1.312,0,0,0-.14,1.63" fill="none" stroke="#242638" stroke-linecap="round" stroke-linejoin="round" stroke-width="0.587"/>
          <path id="Trazado_3316" data-name="Trazado 3316" d="M5319.794,3493.824s-3.661-4.08-6.621-2.51-4.11,9.55,4.55,11.6a14.7,14.7,0,0,0,2.071-9.09Z" fill="#fd9997"/>
          <path id="Trazado_3317" data-name="Trazado 3317" d="M5362.6,3496.014s3.77-2.51,5.26-.36-.309,9.33-6.8,8.74a16.544,16.544,0,0,1,1.539-8.38Z" fill="#fc9e9c"/>
          <path id="Trazado_3318" data-name="Trazado 3318" d="M5320.993,3459.5s4.74-6.48,11.74-8.26,19.89,1.8,25.13.5c0,0-4.26,4.37-12.52,5.65a89.607,89.607,0,0,0-14.87,3.65l-9.48-1.54Z" fill="#242638"/>
          <path id="Trazado_3319" data-name="Trazado 3319" d="M5361.733,3478.554s1.77,11.2,1.781,16.99c0,0,3.229-15.67,1.459-20.17s-3.24,3.18-3.24,3.18Z" fill="#242638"/>
          <path id="Trazado_3320" data-name="Trazado 3320" d="M5328.064,3488.454c-.24,1.52,2.329.38,3.859-.51s5.46-.81,6.8-1.33,1-3.53-1.46-3.36-8.55,1.19-9.2,5.2Z" fill="#242638"/>
          <path id="Trazado_3321" data-name="Trazado 3321" d="M5359.893,3489.284c.17,1.53-2.34.26-3.82-.7s-5.42-1.08-6.73-1.67-.82-3.57,1.62-3.28,8.49,1.61,8.93,5.65Z" fill="#242638"/>
          <path id="Trazado_3322" data-name="Trazado 3322" d="M5335.773,3494.474c.04-2.06-.67-3.74-1.58-3.75s-1.68,1.63-1.71,3.69.67,3.73,1.581,3.75,1.669-1.64,1.709-3.69Z" fill="#242638"/>
          <path id="Trazado_3323" data-name="Trazado 3323" d="M5355.513,3494.514c.041-2.06-.62-3.73-1.47-3.75s-1.56,1.64-1.6,3.69.62,3.74,1.47,3.75,1.56-1.64,1.6-3.69Z" fill="#242638"/>
          <path id="Trazado_3324" data-name="Trazado 3324" d="M5349.923,3513.924s-5.03-5.96-17.49,0" fill="none" stroke="#242638" stroke-linecap="round" stroke-linejoin="round" stroke-width="0.587"/>
          <path id="Trazado_3325" data-name="Trazado 3325" d="M5335.784,3499.424s-2.561,2.31-4.671.22m19.961-.28s2.429,2.3,4.96.42" fill="none" stroke="#242638" stroke-linecap="round" stroke-linejoin="round" stroke-width="0.558"/>
          <path id="Trazado_3326" data-name="Trazado 3326" d="M5340.953,3572.5v-30.9h-4.33v30.56a12.824,12.824,0,0,1-6.039,10.89l-4.711,2.94,2.29,3.67,4.73-2.95a10.622,10.622,0,0,1,11.57.2l4.03,2.71,2.41-3.58-4.29-2.89a12.849,12.849,0,0,1-5.66-10.65" fill="#fbdbd0"/>
          <path id="Trazado_3327" data-name="Trazado 3327" d="M5328.713,3597.074c.371,3.38,1.2,6.71,1.21,10.12s-1.53,7.18-4.74,8.33c-2.49.9-5.06.52-7.52,1.75a19.985,19.985,0,0,0-6.6,5.84c-1.819,2.39-4.18,6.7-7.769,6.08-3-.52-4.131-3.93-4.561-6.56a58.907,58.907,0,0,1,5.51-36.06,49,49,0,0,1,10.91-14.47c3.431-3.04,9.431-7.91,14.08-4.42a7.371,7.371,0,0,1,1.74,1.95c2.66,4.1.08,9.17-1.05,13.33a39.987,39.987,0,0,0-1.349,12.37c.029.58.079,1.16.139,1.74Z" fill="#f97070"/>
          <path id="Trazado_3328" data-name="Trazado 3328" d="M5348.943,3597.074c-.37,3.38-1.2,6.71-1.21,10.12s1.53,7.18,4.73,8.33c2.5.9,5.071.52,7.52,1.75a19.793,19.793,0,0,1,6.6,5.84c1.829,2.39,4.179,6.7,7.779,6.08,3-.52,4.12-3.93,4.56-6.56a58.981,58.981,0,0,0-5.51-36.06,48.973,48.973,0,0,0-10.91-14.47c-3.43-3.04-9.43-7.91-14.08-4.42a7.59,7.59,0,0,0-1.75,1.95c-2.65,4.1-.07,9.17,1.06,13.33a39.944,39.944,0,0,1,1.35,12.37c-.03.58-.08,1.16-.14,1.74Z" fill="#f97070"/>
          <path id="Trazado_3329" data-name="Trazado 3329" d="M5334.064,3587.074h8.869a1.2,1.2,0,0,0,1.05-.6l2-3.62a1.081,1.081,0,0,0-.05-1.11l-4.149-6.13a1.2,1.2,0,0,0-.99-.51h-4.181a1.194,1.194,0,0,0-.98.5l-4.22,5.98a1.044,1.044,0,0,0-.1,1.05l1.66,3.76a1.2,1.2,0,0,0,1.091.68Z" fill="#eab5a7"/>
          <path id="Trazado_3330" data-name="Trazado 3330" d="M5336.624,3549.964h0v-.65h0v.65" fill="#ec9388"/>
          <path id="Trazado_3331" data-name="Trazado 3331" d="M5340.943,3549.964h-4.32v-.65h4.32v.65" fill="#ebc8b2"/>
          <path id="Trazado_3332" data-name="Trazado 3332" d="M5336.624,3548.054h0v-.65h0v.65" fill="#ec9388"/>
          <path id="Trazado_3333" data-name="Trazado 3333" d="M5340.943,3548.054h-4.32v-.65h4.32v.65" fill="#ebc8b2"/>
          <path id="Trazado_3334" data-name="Trazado 3334" d="M5336.624,3552.044h0v-.64h0v.64" fill="#222330"/>
          <path id="Trazado_3335" data-name="Trazado 3335" d="M5340.943,3552.044h-4.32v-.64h4.32v.64" fill="#ebc8b2"/>
          <path id="Trazado_3336" data-name="Trazado 3336" d="M5336.624,3546.1h0v-.64h0v.64" fill="#ec9388"/>
          <path id="Trazado_3337" data-name="Trazado 3337" d="M5340.943,3546.1h-4.32v-.64h4.32v.64" fill="#ebc8b2"/>
          <path id="Trazado_3338" data-name="Trazado 3338" d="M5336.624,3544.2h0v-.65h0v.65" fill="#ec9388"/>
          <path id="Trazado_3339" data-name="Trazado 3339" d="M5340.943,3544.2h-4.32v-.65h4.32v.65" fill="#ebc8b2"/>
          <path id="Trazado_3340" data-name="Trazado 3340" d="M5336.624,3561.664h0v-.65h0v.65" fill="#222330"/>
          <path id="Trazado_3341" data-name="Trazado 3341" d="M5340.943,3561.664h-4.32v-.65h4.32v.65" fill="#ebc8b2"/>
          <path id="Trazado_3342" data-name="Trazado 3342" d="M5336.624,3559.754h0v-.65h0v.65" fill="#222330"/>
          <path id="Trazado_3343" data-name="Trazado 3343" d="M5340.943,3559.754h-4.32v-.65h4.32v.65" fill="#ebc8b2"/>
          <path id="Trazado_3344" data-name="Trazado 3344" d="M5336.624,3553.954h0v-.65h0v.65" fill="#222330"/>
          <path id="Trazado_3345" data-name="Trazado 3345" d="M5340.943,3553.954h-4.32v-.65h4.32v.65" fill="#ebc8b2"/>
          <path id="Trazado_3346" data-name="Trazado 3346" d="M5336.624,3555.974h0v-.65h0v.65" fill="#222330"/>
          <path id="Trazado_3347" data-name="Trazado 3347" d="M5340.943,3555.974h-4.32v-.65h4.32v.65" fill="#ebc8b2"/>
          <path id="Trazado_3348" data-name="Trazado 3348" d="M5336.624,3557.884h0v-.65h0v.65" fill="#222330"/>
          <path id="Trazado_3349" data-name="Trazado 3349" d="M5340.943,3557.884h-4.32v-.65h4.32v.65" fill="#ebc8b2"/>
          <path id="Trazado_3350" data-name="Trazado 3350" d="M5313.963,3579.524a.606.606,0,0,0,.071.86l4.269,3.65a.606.606,0,0,0,.86-.07.618.618,0,0,0-.07-.87l-4.259-3.64a.619.619,0,0,0-.871.07Zm6.27,5.35a2.016,2.016,0,0,1-2.85.22l-4.26-3.64a2.018,2.018,0,1,1,2.62-3.07l4.26,3.65a2.014,2.014,0,0,1,.23,2.84Z" fill="#97a5ff"/>
          <path id="Trazado_3351" data-name="Trazado 3351" d="M5324.523,3587.614a.624.624,0,0,0,.16.86l4.641,3.16a.611.611,0,0,0,.689-1.01l-4.64-3.17a.611.611,0,0,0-.85.16Zm6.811,4.65a2.024,2.024,0,0,1-2.81.53l-4.631-3.17a2.018,2.018,0,1,1,2.28-3.33l4.63,3.17a2.022,2.022,0,0,1,.531,2.8Z" fill="#97a5ff"/>
          <path id="Trazado_3352" data-name="Trazado 3352" d="M5335.693,3594.224a.6.6,0,0,0,.16.85l4.63,3.17a.611.611,0,0,0,.85-.16.622.622,0,0,0-.16-.86l-4.63-3.16a.611.611,0,0,0-.85.16Zm6.8,4.65a2.011,2.011,0,0,1-2.8.52l-4.64-3.16a2.018,2.018,0,0,1,2.281-3.33l4.629,3.16a2.025,2.025,0,0,1,.53,2.81Z" fill="#97a5ff"/>
          <path id="Trazado_3353" data-name="Trazado 3353" d="M5346.633,3601.074a.61.61,0,0,0,.23.84l4.87,2.78a.621.621,0,0,0,.841-.23.61.61,0,0,0-.231-.84l-4.87-2.78a.628.628,0,0,0-.84.23Zm7.16,4.08a2.016,2.016,0,0,1-2.75.76l-4.88-2.78a2.02,2.02,0,0,1,2-3.51l4.88,2.78a2.024,2.024,0,0,1,.75,2.75Z" fill="#97a5ff"/>
          <path id="Trazado_3354" data-name="Trazado 3354" d="M5357.793,3607.334a.615.615,0,0,0,.26.83l4.98,2.58a.623.623,0,0,0,.83-.26.615.615,0,0,0-.27-.83l-4.98-2.58a.6.6,0,0,0-.82.26Zm7.31,3.79a2.009,2.009,0,0,1-2.72.86l-4.98-2.58a2.017,2.017,0,0,1,1.86-3.58l4.98,2.58a2.018,2.018,0,0,1,.86,2.72Z" fill="#97a5ff"/>
          <path id="Trazado_3355" data-name="Trazado 3355" d="M5369.523,3612.844a.619.619,0,0,0,.29.82l5.08,2.38a.609.609,0,0,0,.82-.29.621.621,0,0,0-.3-.82l-5.07-2.38a.606.606,0,0,0-.82.29Zm7.46,3.51a2.024,2.024,0,0,1-2.69.96l-5.07-2.38a2.015,2.015,0,1,1,1.71-3.65l5.08,2.38a2.028,2.028,0,0,1,.97,2.69Z" fill="#97a5ff"/>
          <path id="Trazado_3356" data-name="Trazado 3356" d="M5309.053,3575.414h0a1.029,1.029,0,0,0,.12,1.45l4.7,4.02a1.029,1.029,0,1,0,1.33-1.57l-4.7-4.01a1.03,1.03,0,0,0-1.451.11Z" fill="#b4c9ff"/>
          <path id="Trazado_3357" data-name="Trazado 3357" d="M5318.613,3583.424h0a1.03,1.03,0,0,0,.27,1.43l5.09,3.51a1.029,1.029,0,1,0,1.16-1.7l-5.09-3.5a1.028,1.028,0,0,0-1.43.26Z" fill="#b4c9ff"/>
          <path id="Trazado_3358" data-name="Trazado 3358" d="M5329.274,3590.994h0a1.032,1.032,0,0,0,.439,1.39l5.47,2.87a1.026,1.026,0,1,0,.95-1.82l-5.47-2.88a1.031,1.031,0,0,0-1.389.44Z" fill="#b4c9ff"/>
          <path id="Trazado_3359" data-name="Trazado 3359" d="M5340.183,3597.294h0a1.043,1.043,0,0,0,.38,1.41l5.35,3.08a1.028,1.028,0,1,0,1.03-1.78l-5.35-3.09a1.037,1.037,0,0,0-1.41.38Z" fill="#b4c9ff"/>
          <path id="Trazado_3360" data-name="Trazado 3360" d="M5351.593,3603.954h0a1.037,1.037,0,0,0,.46,1.38l5.531,2.77a1.033,1.033,0,0,0,.92-1.85l-5.531-2.76a1.032,1.032,0,0,0-1.38.46Z" fill="#b4c9ff"/>
          <path id="Trazado_3361" data-name="Trazado 3361" d="M5362.834,3610.074h0a1.035,1.035,0,0,0,.549,1.35l5.7,2.39a1.026,1.026,0,1,0,.8-1.89l-5.7-2.4a1.036,1.036,0,0,0-1.349.55Z" fill="#b4c9ff"/>
          <path id="Trazado_3362" data-name="Trazado 3362" d="M5374.8,3615.244h0a1.037,1.037,0,0,0,.55,1.35l5.7,2.4a1.031,1.031,0,0,0,.8-1.9l-5.7-2.4a1.037,1.037,0,0,0-1.35.55Z" fill="#b4c9ff"/>
          <path id="Trazado_3363" data-name="Trazado 3363" d="M5364.483,3579.614l-4.27,3.64a.617.617,0,0,0,.8.94l4.261-3.65a.61.61,0,0,0-.791-.93Zm-5.179,2.58,4.269-3.65a2.015,2.015,0,0,1,2.61,3.07l-4.26,3.64a2.014,2.014,0,1,1-2.619-3.06Z" fill="#97a5ff"/>
          <path id="Trazado_3364" data-name="Trazado 3364" d="M5353.933,3587.614l-4.63,3.17a.6.6,0,0,0-.17.85.625.625,0,0,0,.86.16l4.63-3.16a.625.625,0,0,0,.16-.86.611.611,0,0,0-.85-.16Zm-5.43,2.01,4.64-3.17a2.015,2.015,0,0,1,2.27,3.33l-4.629,3.17a2.018,2.018,0,0,1-2.281-3.33Z" fill="#97a5ff"/>
          <path id="Trazado_3365" data-name="Trazado 3365" d="M5342.763,3594.224l-4.63,3.16a.621.621,0,0,0-.16.86.611.611,0,0,0,.85.16l4.64-3.17a.609.609,0,0,0,.16-.85.621.621,0,0,0-.86-.16Zm-5.42,2,4.63-3.16a2.018,2.018,0,1,1,2.281,3.33l-4.631,3.16a2.018,2.018,0,1,1-2.28-3.33Z" fill="#97a5ff"/>
          <path id="Trazado_3366" data-name="Trazado 3366" d="M5331.843,3601l-4.88,2.78a.616.616,0,1,0,.61,1.07l4.88-2.78a.616.616,0,0,0-.61-1.07Zm-5.569,1.56,4.869-2.78a2.02,2.02,0,0,1,2,3.51l-4.88,2.78a2.017,2.017,0,1,1-1.989-3.51Z" fill="#97a5ff"/>
          <path id="Trazado_3367" data-name="Trazado 3367" d="M5320.693,3607.234l-4.98,2.58a.613.613,0,0,0,.56,1.09l4.98-2.58a.613.613,0,1,0-.56-1.09Zm-5.63,1.33,4.99-2.58a2.015,2.015,0,0,1,1.85,3.58l-4.98,2.58a2.017,2.017,0,0,1-1.86-3.58Z" fill="#97a5ff"/>
          <path id="Trazado_3368" data-name="Trazado 3368" d="M5308.973,3612.714l-5.08,2.38a.623.623,0,0,0-.3.82.61.61,0,0,0,.82.29l5.08-2.38a.609.609,0,0,0,.29-.82.6.6,0,0,0-.81-.29Zm-5.679,1.11,5.079-2.38a2.017,2.017,0,0,1,1.72,3.65l-5.08,2.38a2.017,2.017,0,0,1-1.719-3.65Z" fill="#97a5ff"/>
          <path id="Trazado_3369" data-name="Trazado 3369" d="M5370.253,3575.574h0a1.028,1.028,0,0,1-.11,1.45l-4.7,4.02a1.032,1.032,0,1,1-1.34-1.57l4.7-4.01a1.029,1.029,0,0,1,1.45.11Z" fill="#b4c9ff"/>
          <path id="Trazado_3370" data-name="Trazado 3370" d="M5360.693,3583.584h0a1.035,1.035,0,0,1-.26,1.43l-5.09,3.51a1.032,1.032,0,1,1-1.17-1.7l5.09-3.5a1.026,1.026,0,0,1,1.43.26Z" fill="#b4c9ff"/>
          <path id="Trazado_3371" data-name="Trazado 3371" d="M5350.034,3591.154h0a1.039,1.039,0,0,1-.431,1.39l-5.47,2.87a1.029,1.029,0,0,1-.96-1.82l5.47-2.88a1.031,1.031,0,0,1,1.391.44Z" fill="#b4c9ff"/>
          <path id="Trazado_3372" data-name="Trazado 3372" d="M5339.123,3597.454h0a1.03,1.03,0,0,1-.37,1.41l-5.36,3.08a1.017,1.017,0,0,1-1.4-.37,1.028,1.028,0,0,1,.37-1.41l5.36-3.09a1.029,1.029,0,0,1,1.4.38Z" fill="#b4c9ff"/>
          <path id="Trazado_3373" data-name="Trazado 3373" d="M5327.713,3604.114h0a1.02,1.02,0,0,1-.46,1.38l-5.53,2.77a1.033,1.033,0,0,1-.92-1.85l5.53-2.76a1.029,1.029,0,0,1,1.38.46Z" fill="#b4c9ff"/>
          <path id="Trazado_3374" data-name="Trazado 3374" d="M5316.473,3610.234h0a1.037,1.037,0,0,1-.55,1.35l-5.7,2.39a1.026,1.026,0,1,1-.8-1.89l5.7-2.4a1.037,1.037,0,0,1,1.35.55Z" fill="#b4c9ff"/>
          <path id="Trazado_3375" data-name="Trazado 3375" d="M5304.5,3615.4h0a1.029,1.029,0,0,1-.551,1.35l-5.69,2.4a1.031,1.031,0,0,1-.8-1.9l5.69-2.4a1.034,1.034,0,0,1,1.351.55Z" fill="#b4c9ff"/>
        </g>
      </g>
    </g>
  </g>
</svg>
