<svg xmlns="http://www.w3.org/2000/svg" xmlns:xlink="http://www.w3.org/1999/xlink" width="260.635" height="297.972" viewBox="0 0 260.635 297.972">
  <defs>
    <clipPath id="clip-path">
      <path id="Trazado_3288" data-name="Trazado 3288" d="M5094.548,3571.5a130.317,130.317,0,1,0-130.32,130.32,130.316,130.316,0,0,0,130.32-130.32" fill="none"/>
    </clipPath>
  </defs>
  <g id="Grupo_10019" data-name="Grupo 10019" transform="translate(4204 -2506.194)">
    <path id="Trazado_6356" data-name="Trazado 6356" d="M105.054,4.889V7.467H101.7V19H98.8V7.467H95.435V4.889ZM109.976,19.2a6.313,6.313,0,0,1-2.842-.615,4.6,4.6,0,0,1-1.948-1.807,5.384,5.384,0,0,1-.708-2.8A4.911,4.911,0,0,1,106,10.162a6.368,6.368,0,0,1,7.959,0,4.911,4.911,0,0,1,1.523,3.809,4.938,4.938,0,0,1-1.523,3.823A5.654,5.654,0,0,1,109.976,19.2Zm-.029-2.236a2.577,2.577,0,0,0,1.987-.82,3.071,3.071,0,0,0,.757-2.168,3.071,3.071,0,0,0-.757-2.168,2.577,2.577,0,0,0-1.987-.82,2.483,2.483,0,0,0-1.929.825,3.1,3.1,0,0,0-.747,2.163,3.1,3.1,0,0,0,.747,2.163A2.483,2.483,0,0,0,109.947,16.959ZM121.109,19.2a5.61,5.61,0,0,1-2.93-.7,2.972,2.972,0,0,1-1.436-2.09l2.354-.664a1.891,1.891,0,0,0,2.012,1.494A2.078,2.078,0,0,0,122.134,17a.8.8,0,0,0,.4-.776.821.821,0,0,0-.166-.518,1.315,1.315,0,0,0-.513-.371,6.387,6.387,0,0,0-.684-.264q-.337-.107-.894-.259t-.928-.288a6.215,6.215,0,0,1-.884-.376,3.77,3.77,0,0,1-.732-.518,2.086,2.086,0,0,1-.547-.786,2.836,2.836,0,0,1-.19-1.074,2.565,2.565,0,0,1,1.089-2.246,4.865,4.865,0,0,1,2.847-.762,4.988,4.988,0,0,1,2.627.645,2.917,2.917,0,0,1,1.348,2.012l-2.178.488a1.706,1.706,0,0,0-1.787-1.27,1.957,1.957,0,0,0-.986.225.722.722,0,0,0-.391.664.761.761,0,0,0,.059.3.6.6,0,0,0,.205.244,2.991,2.991,0,0,0,.283.186,2.137,2.137,0,0,0,.4.161q.264.083.439.127l.513.132.522.137q.537.146.942.293a5.519,5.519,0,0,1,.864.41,3.1,3.1,0,0,1,.757.591,2.635,2.635,0,0,1,.493.83,3.066,3.066,0,0,1,.2,1.118,3.02,3.02,0,0,1-.337,1.455,2.529,2.529,0,0,1-.923.981,4.492,4.492,0,0,1-1.3.527A6.763,6.763,0,0,1,121.109,19.2Z" transform="translate(-4184 2784.971)" fill="#024e73"/>
    <g id="Grupo_9842" data-name="Grupo 9842" transform="translate(-9037.913 -935)">
      <g id="Grupo_9838" data-name="Grupo 9838">
        <g id="Grupo_9837" data-name="Grupo 9837" clip-path="url(#clip-path)">
          <path id="Trazado_3274" data-name="Trazado 3274" d="M5121.058,3574.854a157.758,157.758,0,1,0-157.76,157.76,157.756,157.756,0,0,0,157.76-157.76Z" fill="#9bd7f5"/>
          <path id="Trazado_3275" data-name="Trazado 3275" d="M4915.9,3592.494s-47.253,24.73-60.174,15.13-9.212-21.75,30.659-74.91l12.465,3.49-19.947,44.62,27.4-12.7,9.6,24.37Z" fill="#fca19f"/>
          <path id="Trazado_3276" data-name="Trazado 3276" d="M4886.164,3532.914s8.6-14.54,10.874-15.94,6.5-.19,6.5-.19a29.793,29.793,0,0,0,6.26.84c2.19-.13,6.96-.3,7.6,1.57s-2.341,7.63-2.341,7.63,3.081-1.64,4.551-1.5-.2,8.13-24.85,15.87l-8.594-8.28Z" fill="#fca19f"/>
          <path id="Trazado_3277" data-name="Trazado 3277" d="M4899.268,3519.7s-1.081,9.99.51,10.38,2.65-5.6,2.65-5.6-.88,7.56.769,7.52,3.391-7.63,3.391-7.63-1.27,6.21-.26,6.61,5.81-8.48,5.81-8.48-2.42,6.38-1.39,7.15,6.31-5.55,6.56-9.79m-38.407,60.96s-5.985,11.43-6.529,12.33" fill="none" stroke="#f97070" stroke-linecap="round" stroke-linejoin="round" stroke-width="0.574"/>
          <path id="Trazado_3278" data-name="Trazado 3278" d="M4943.648,3547s-21.76,5.23-31.62,7.65c-6.01,1.48-27.628,23.63-30.7,23.63l16.068,28.29s15.24-5.98,16.6-5.61c6.33,1.71,13.31,60.91,13.31,60.91l-7.17,47.09s33.91,30.58,101.86-.51l-2.05-74.22,1.15-21.5s9.36-61.53-6.38-64.22-52.74-1.81-52.74-1.81l-18.33.3Z" fill="#242638"/>
          <path id="Trazado_3279" data-name="Trazado 3279" d="M5029.128,3571.284l29.33,60.19a8.32,8.32,0,0,1,.079,7.21c-2.089,4.48-6.4,11.28-13.329,11.84-10.4.83-74.931-26.25-74.931-26.25l6.961-12.05,47.22,7.87-24.7-29.18,29.37-19.63Z" fill="#fca19f"/>
          <path id="Trazado_3280" data-name="Trazado 3280" d="M4886.747,3496.564l17.191,4.57a.657.657,0,0,0,.8-.47.644.644,0,0,0-.46-.8l-17.194-4.57a.657.657,0,0,0-.8.46.67.67,0,0,0,.466.81Z" fill="#242638"/>
          <path id="Trazado_3281" data-name="Trazado 3281" d="M4896.038,3480.814l13.69,11.36a.653.653,0,1,0,.829-1.01l-13.689-11.36a.654.654,0,1,0-.83,1.01Z" fill="#242638"/>
          <path id="Trazado_3282" data-name="Trazado 3282" d="M4886.023,3511.244l17.784-.37a.658.658,0,0,0,.641-.67.643.643,0,0,0-.66-.64l-17.792.37a.655.655,0,0,0,.027,1.31Z" fill="#242638"/>
          <path id="Trazado_3283" data-name="Trazado 3283" d="M4983.1,3614.234s-5.88-8.25-10.07-11.91-15.98-11.61-18.09-10.85,10.08,11.01,9.049,12.16-24.359-7.91-25.049-6.02,12.89,8.34,12.89,8.34-14.6-5.29-15-4.21,13.97,8.74,13.97,8.74-14.18-3.92-14.06-1.74,17.44,8.47,17.44,8.47-11.26-1.03-11.75.33,34.17,8.71,34.17,8.71l6.5-12.02Z" fill="#fca19f"/>
          <path id="Trazado_3284" data-name="Trazado 3284" d="M5019.808,3552.564l20.86,39.35-31.67,20.37-19.37-29.37,30.18-30.35Z" fill="#242638"/>
          <path id="Trazado_3285" data-name="Trazado 3285" d="M5025,3619.914c15.17,2.02,13.8,1.88,19.989,3.84" fill="none" stroke="#f97070" stroke-linecap="round" stroke-linejoin="round" stroke-width="0.575"/>
          <path id="Trazado_3286" data-name="Trazado 3286" d="M4982.277,3546.724a66.935,66.935,0,0,1-7.889-4.89c-4.62-3.81-10.34-23.4-10.34-23.4l-25.84,8.43s4.079,19.05,2.72,20.14-1.63,10.88,10.34,12.51,31.009-12.79,31.009-12.79Z" fill="#fca19f"/>
          <path id="Trazado_3287" data-name="Trazado 3287" d="M4963.648,3517.074s.81,2.42,1.32,3.72c-3.3,27.84-19.36,25.03-23.71,23.93-.34-5.41-2.96-17.63-2.96-17.63l25.35-10.02Z" fill="#f97070"/>
        </g>
      </g>
      <g id="Grupo_9839" data-name="Grupo 9839">
        <path id="Trazado_3289" data-name="Trazado 3289" d="M4927.548,3479.634a27.87,27.87,0,0,1,12.4-6.91c7.73-2.09,15.47-1,21.41,4.65,4.89,4.64,6.6,10.81,6.94,16.42a43.76,43.76,0,0,1-1.71,14.49q-1.35,4.53-2.71,9.06c-2.82,10.76-8.58,17.55-18.36,19.11-5.91.95-11.76.45-15.691-4.5-6.5-8.17-8.339-25.08-8.369-35.89-.02-6.24,1.569-11.93,6.09-16.43Z" fill="#fca19f"/>
      </g>
      <g id="Grupo_9841" data-name="Grupo 9841">
        <g id="Grupo_9840" data-name="Grupo 9840" clip-path="url(#clip-path)">
          <path id="Trazado_3290" data-name="Trazado 3290" d="M4964.338,3507.494s-6.761-6.54-8.6-20.78c0,0-6.449-1.5-10.569-.67s-8.67,4.88-16.94,5.31a14.914,14.914,0,0,1-12.49-5.35,24.791,24.791,0,0,0,2.61-.23,51.635,51.635,0,0,1-6.06-7.25s2.079.2,9.89-1.74a15.956,15.956,0,0,1-4.02-4,43.692,43.692,0,0,0,14.46-1.34c7.94-2.09,18.35-4.67,23.71-1.69s5.66,3.67,5.66,3.67-2.28-5.72-4.67-6.74c0,0,5.74,1.86,6.62,7.36a41.237,41.237,0,0,1,4.86.52c1.67.35-3.85.69-3.85.69s11.01,13.97,1.71,35.86l-2.32-3.62Z" fill="#242638"/>
          <path id="Trazado_3291" data-name="Trazado 3291" d="M4934.958,3525.414a1.446,1.446,0,0,1-.41-.64,2.783,2.783,0,0,1,.38-2.53,2.814,2.814,0,0,1,2.31-1.11,14.039,14.039,0,0,1,2.09.48,8.07,8.07,0,0,0,3.88-.44c1.66-.49,3.47-1.07,5.079-.42a4,4,0,0,1,1.781,1.45,2.62,2.62,0,0,1,.44,2.47,3.2,3.2,0,0,1-1.42,1.37,4.81,4.81,0,0,1-1.5.62,7.037,7.037,0,0,1-3.561-.71,7.537,7.537,0,0,0-3.439-.54c-.61.08-1.19.28-1.79.4a7.141,7.141,0,0,1-3.12-.07,1.7,1.7,0,0,1-.72-.33Z" fill="#242638"/>
          <path id="Trazado_3292" data-name="Trazado 3292" d="M4952.508,3502.114l-6.05,3.11,6.75.1m-26.45-1.93,6.44,2.2-6.67,1.08m11.81-3.24a15.824,15.824,0,0,1-1.061,9.48,2.7,2.7,0,0,0-.329,1.05,1.827,1.827,0,0,0,1.16,1.59,6.994,6.994,0,0,0,2.03.42c.4.05.939-.05,1.16.28a1.239,1.239,0,0,1,.09,1.52" fill="none" stroke="#242638" stroke-linecap="round" stroke-linejoin="round" stroke-width="0.544"/>
          <path id="Trazado_3293" data-name="Trazado 3293" d="M4962.528,3505.234s3.46-3.72,6.17-2.22,3.65,8.92-4.4,10.67a13.553,13.553,0,0,1-1.77-8.45Z" fill="#fd9997"/>
          <path id="Trazado_3294" data-name="Trazado 3294" d="M4922.848,3506.544s-3.45-2.39-4.87-.43.13,8.65,6.15,8.21a15.2,15.2,0,0,0-1.28-7.78Z" fill="#fc9e9c"/>
          <path id="Trazado_3295" data-name="Trazado 3295" d="M4961.988,3473.424s-4.28-6.08-10.73-7.84-18.45,1.33-23.29.04c0,0,3.88,4.12,11.51,5.44a82.456,82.456,0,0,1,13.7,3.63l8.81-1.27Z" fill="#242638"/>
          <path id="Trazado_3296" data-name="Trazado 3296" d="M4923.938,3490.384s-1.82,10.34-1.93,15.7c0,0-2.731-14.56-1.02-18.7s2.95,3,2.95,3Z" fill="#242638"/>
          <path id="Trazado_3297" data-name="Trazado 3297" d="M4955.448,3498.214c.68,1.24-1.92,1.04-3.53.74s-5.02.98-6.35.94-1.96-2.77.23-3.38,7.84-1.61,9.65,1.7Z" fill="#242638"/>
          <path id="Trazado_3298" data-name="Trazado 3298" d="M4925.327,3499.294c-.589,1.29,1.991.9,3.571.49s5.08.62,6.4.48,1.76-2.9-.47-3.35-7.94-1.05-9.5,2.38Z" fill="#242638"/>
          <path id="Trazado_3299" data-name="Trazado 3299" d="M4934.928,3522.244a2.814,2.814,0,0,1,2.31-1.11,14.039,14.039,0,0,1,2.09.48,8.07,8.07,0,0,0,3.88-.44c1.66-.49,3.47-1.07,5.079-.42a3.859,3.859,0,0,1,.961.57,15.23,15.23,0,0,1-14.32.92Z" fill="#fff"/>
          <path id="Trazado_3300" data-name="Trazado 3300" d="M4946.438,3507.144s3.059,2.38,5.98,2.11m-18.431-2.38a9.447,9.447,0,0,1-6.049,2.79" fill="none" stroke="#dd5b5b" stroke-linecap="round" stroke-linejoin="round" stroke-width="0.544"/>
        </g>
      </g>
    </g>
  </g>
</svg>
