<svg xmlns="http://www.w3.org/2000/svg" xmlns:xlink="http://www.w3.org/1999/xlink" width="260.64" height="260.63" viewBox="0 0 260.64 260.63">
  <defs>
    <clipPath id="clip-path">
      <path id="Trazado_2840" data-name="Trazado 2840" d="M2155.562,6754.143a130.32,130.32,0,1,0-130.32,130.32,130.316,130.316,0,0,0,130.32-130.32" fill="none"/>
    </clipPath>
  </defs>
  <g id="Grupo_10049" data-name="Grupo 10049" transform="translate(-209.021 -4662.833)">
    <g id="Grupo_9799" data-name="Grupo 9799" transform="translate(-1685.901 -1961)">
      <g id="Grupo_9798" data-name="Grupo 9798" clip-path="url(#clip-path)">
        <path id="Trazado_2733" data-name="Trazado 2733" d="M2155.562,6754.143a130.32,130.32,0,1,0-130.32,130.32,130.316,130.316,0,0,0,130.32-130.32" fill="#9bd7f5"/>
        <g id="Grupo_9797" data-name="Grupo 9797">
          <path id="Trazado_2734" data-name="Trazado 2734" d="M1942.564,6940.744a38.686,38.686,0,0,0,1.293,14.325c.4,1.545,1.436,2.332,1.516,3.914.2,3.836-2.265,4.181-3.143,2.173a51.683,51.683,0,0,1-4.164-15.832c-.125-1.8-.4-5.992,1.181-7.317s3.549.726,3.317,2.737" fill="#00758a"/>
          <path id="Trazado_2735" data-name="Trazado 2735" d="M1942.15,6937.813c1.582-1.325,3.852,2.416,3.62,4.427a38.669,38.669,0,0,0,1.3,14.325c.4,1.544,1.579,3.61,1.556,5.194-.044,3.085-2.528,2.818-3.406.814a51.028,51.028,0,0,1-3.946-15.754c-.125-1.8-.709-7.68.879-9.006" fill="#00758a"/>
          <path id="Trazado_2736" data-name="Trazado 2736" d="M1946.4,6940.269a2.377,2.377,0,0,1,3.848,2.153,40.487,40.487,0,0,0,1.355,14.977c.419,1.615,1.65,3.773,1.627,5.43-.049,3.228-2.719,2.845-3.642.745a53.156,53.156,0,0,1-4.441-16.354c-.129-1.881-.4-5.565,1.253-6.951" fill="#00758a"/>
          <path id="Trazado_2737" data-name="Trazado 2737" d="M2027.324,7190.237c45.727,0,82.79-2.778,82.79-6.207s-37.063-6.206-82.79-6.206-82.79,2.778-82.79,6.206,37.068,6.207,82.79,6.207" fill="#507e8e"/>
          <path id="Trazado_2738" data-name="Trazado 2738" d="M2076.314,6941.292l.772-4.512c-.237-2.125-1.093-9.6-1.828-12.544-.6-2.4.628-7.763,1.44-10.82a9.125,9.125,0,0,0,5.274.045,24.024,24.024,0,0,0,6.844-3.344l1.052,5.57a49.082,49.082,0,0,1,2.14,6.262c.7,3.3.611,11.586.8,13.488a2.2,2.2,0,0,1-.115.859l.129.006-2.029,14.982-3.321,6.2c-2.212-.932-1.583-3.719-1.583-3.719l.816-3.387-4.811,9.033c-2.523-.862-1.712-3.69-1.712-3.69l.138-.458-1.324,2.471c-2.211-.932-1.583-3.72-1.583-3.72l1.663-6.9.045-1.059-4.847,5.64c-2-1.362-.869-3.97-.869-3.97l2.911-6.435" fill="#00758a"/>
          <path id="Trazado_2739" data-name="Trazado 2739" d="M2077.523,6956.154a15.589,15.589,0,0,1,2.653-6.653c6.977-10.327,6.634-22.922,3.834-35.388-1.712.17-3.536.3-5.141.3a19.262,19.262,0,0,1-2.4-.129c-.018.085-.041.172-.063.26a.005.005,0,0,1,0,.006l-.027.12c-.722,2.927-1.543,6.968-1.2,9.18v0a.064.064,0,0,1,0,.027v.006a.055.055,0,0,1,0,.025l0,.006a.043.043,0,0,0,0,.023v.009a.039.039,0,0,0,0,.022v.008c0,.007,0,.014,0,.021v.009a.034.034,0,0,1,0,.021l0,.009a.032.032,0,0,0,.005.02v.009c0,.007,0,.013,0,.019v.01a.027.027,0,0,1,.005.019l0,.01a.028.028,0,0,0,.005.019v.01c0,.006,0,.012,0,.018a.013.013,0,0,0,0,.01.033.033,0,0,0,.005.021v.007a.231.231,0,0,0,.009.027c.735,2.947,1.591,10.419,1.828,12.544h0l-.772,4.512-2.911,6.435s-.04.093-.089.252c.071.984.143,1.968.209,2.966a2.654,2.654,0,0,0,.749.752l4.847-5.64-.045,1.059-1.663,6.9h0a.009.009,0,0,1,0,.009v0a4.4,4.4,0,0,0,.116,2.121" fill="#00697c"/>
          <path id="Trazado_2740" data-name="Trazado 2740" d="M2091.317,6934s-.49,10.051-2.461,11.726-2.978-1.507-2.978-1.507a30.638,30.638,0,0,0-.9-12.4c-1.912-5.863,0-12.072,0-12.072l6.34,14.25Z" fill="#00758a"/>
          <path id="Trazado_2741" data-name="Trazado 2741" d="M2087.724,6838.439c1.2,20.328,2.7,74.824,2.7,74.824s-15.154,2.583-16.26,0-17.312-60.447-17.312-60.447l-5.288-54.6,28.186-33s5,22.962,7.977,73.217" fill="#0f92bf"/>
          <path id="Trazado_2742" data-name="Trazado 2742" d="M2078.8,6914.411a225.485,225.485,0,0,1-5.029-30.753c-2.416-23.358-2.546-46.862-3.406-70.308-.241-6.635-.544-13.268-.977-19.9-.031-.529-.066-1.059-.1-1.589-.2.665-.384,1.334-.553,2.007l.013-.029a45.543,45.543,0,0,0-1.382,11.819h0v.093a.032.032,0,0,1,.005.02v.175c0,.019,0,.038,0,.057v.144a.525.525,0,0,1,0,.087v.015c0,.034,0,.069,0,.1.031,1.046.049,2.1.045,3.144,0,17.027-4.165,34.305-7.847,46.266.615,2.3,3.054,11.768,5.831,27.436,4.089,14.419,8.213,28.8,8.748,30.059.009.013.013.026.022.039h0a.008.008,0,0,0,0,.009h0a.008.008,0,0,0,0,.009h0l.005.01h0l0,.01h0a.009.009,0,0,1,.005.009h0a.008.008,0,0,0,.005.009h0l0,.008v0s0,0,0,.007l.005,0a.007.007,0,0,0,0,.007v0l.005.006,0,0v.006l.005,0,0,0,0,.006v0s0,.005,0,.007l0,0,0,.006v0a.007.007,0,0,1,0,.007l.005,0,0,.007h0l.009.009h0l.009.009h0c.571.686,2.341.927,4.5.932" fill="#0d83ac"/>
          <path id="Trazado_2743" data-name="Trazado 2743" d="M1984.67,7011.687c0-4.209-7.432-79.23-7.432-94.442,0-11.582,3.816-24.775,5.64-30.425l38.953,8.086,45.9,2.921c.495,3.716,1.191,26.413,1.766,39.068.629,13.829-7.2,94.151-7.2,94.151l-12.2,136.22-16.929-.7s-6.273-79.839-2.938-109.942c1.672-15.066,2.608-38.027,2.608-38.027l-6.737-75.761-10.4,82.217-21.669,142.208-17.388-4.151s3.277-95.88,4.066-103.718c1.338-13.353,3.964-38.031,3.964-47.71" fill="#235670"/>
          <path id="Trazado_2744" data-name="Trazado 2744" d="M1995.138,7159.986h0l9.9-64.983h0l-9.9,64.983" fill="#4d7a89"/>
          <path id="Trazado_2745" data-name="Trazado 2745" d="M1984.554,7015.971h0c.071-1.573.116-2.978.116-4.164,0,1.186-.045,2.591-.116,4.164" fill="#73b2c0"/>
          <path id="Trazado_2746" data-name="Trazado 2746" d="M1993.9,7159.99c-1.605,0-3.21-.022-4.815-.076.789-4.695,1.351-9.438,1.743-14.222.861-6,1.578-12.021,2.265-18.035.709-6.206,1.364-12.421,2.1-18.628q.274-2.286.562-4.574c.089-.705.183-1.409.272-2.118.013-.1.026-.2.04-.3.4-2.857.807-5.715,1.333-8.551,4.342-23.581,13.108-49.414,2.813-72.611a8.494,8.494,0,0,0-6.3-4.735,9.377,9.377,0,0,0-4.65-1.168,11.933,11.933,0,0,0-4.713,1c.071-1.573.116-2.978.116-4.164v-.12h0c0-.232-.022-.669-.063-1.293,12.168,1.079,23.06,1.658,32.7,1.9l-1.614,12.769L2005.041,7095l-9.9,64.983c-.414,0-.824,0-1.239,0m56.931-.967c-1.213-.161-2.43-.3-3.643-.424.571-2.613,1.021-5.243,1.387-7.851,2.394-17.2,1.417-34.469,2.657-51.732,1.681-23.443,1.725-46.949,1.725-70.44a10.269,10.269,0,0,0-6.924-9.653,7.621,7.621,0,0,0-6.737-4.414c-.089,0-.178,0-.267,0a7.484,7.484,0,0,0-6.22,3.812l-.526-5.926a279.021,279.021,0,0,0,31.959-2.019c-1.106,12.069-1.944,20.674-1.944,20.674l-11.467,127.977" fill="#1f4d65"/>
          <path id="Trazado_2747" data-name="Trazado 2747" d="M1976.64,7160.119l17.709.789,14.325,11.7a17.671,17.671,0,0,1,5.565,1.819,5.2,5.2,0,0,1-2.452,9.795h-32.86c-3.861,0-6.759-4.017-6.036-8.35a131.161,131.161,0,0,1,3.749-15.757Z" fill="#fff"/>
          <path id="Trazado_2748" data-name="Trazado 2748" d="M2033.334,7159.165l16.541.375,23.274,12.952c7.035,1.23,9.942,5.377,11.142,8.4a2.441,2.441,0,0,1-2.27,3.339h-47.67c-3.923,0-6.866-4.3-6.015-8.845a88.6,88.6,0,0,1,5-16.216Z" fill="#eff3f4"/>
          <path id="Trazado_2749" data-name="Trazado 2749" d="M1975.57,7163.833c7.762.424,15.52.928,23.3.945.071,0,.142,0,.214,0l9.594,7.838a17.671,17.671,0,0,1,5.565,1.819,5.2,5.2,0,0,1-2.452,9.795h-32.86c-3.861,0-6.759-4.017-6.036-8.35.771-4.624,1.868-9.06,2.679-12.043Z" fill="#58c0c6"/>
          <path id="Trazado_2750" data-name="Trazado 2750" d="M2031.8,7163.111a135.618,135.618,0,0,0,21.748-.357q.857-.1,1.646-.254l17.954,9.992c7.035,1.23,9.942,5.377,11.142,8.4a2.441,2.441,0,0,1-2.27,3.339h-47.67c-3.923,0-6.866-4.3-6.015-8.845a82.265,82.265,0,0,1,3.465-12.27Z" fill="#58c0c6"/>
          <path id="Trazado_2751" data-name="Trazado 2751" d="M1985.459,6743.1l36.8-12.893a7.1,7.1,0,0,1,3.2,0l37.277,15.07c14.932,4.442,17.634,23.563,17.634,23.563a104.872,104.872,0,0,1-6.26,12.245,45.774,45.774,0,0,0-6.719,25.274c.977,31.5-13.353,65.058-13.353,65.058s-65.892,3.447-65.906.185c-.049-13.82-6.474-72.407-6.474-72.407-13-1.615-11.476-42.266-11.476-42.266,1.387-3.364,5.609-11.31,15.284-13.829" fill="#0f92bf"/>
          <path id="Trazado_2752" data-name="Trazado 2752" d="M2025.452,6730.206l19.907,6.968s-2.943,5.614-4.387,6.563c-22.868,15-37.478-5.243-38.031-5.861-.165-.242-.326-.486-.482-.734l19.8-6.936a7.1,7.1,0,0,1,3.2,0" fill="#fff"/>
          <path id="Trazado_2753" data-name="Trazado 2753" d="M2033.629,6657.992c13.371-.462,21.98-1.066,21.307,23.421-1,36.539-14.147,40.113-35.521,38.928-17.134-.951-20.17-35.455-20.17-43.881,0-10.96,2.492-17.365,34.384-18.468" fill="#302929"/>
          <path id="Trazado_2754" data-name="Trazado 2754" d="M2026.723,6678.086l21.436.8c2.943.11,3.732,5.9,3.656,8.849l-.357,13.894a32.557,32.557,0,0,1-12.818,25.392c-13.612,10.1-23.924.15-28.69-12.308-1.07-2.8-.415-12.215.437-20.4.78-7.53,8.769-16.511,16.336-16.229" fill="#855f49"/>
          <path id="Trazado_2755" data-name="Trazado 2755" d="M2038.957,6712.4l-.317,21.792a4,4,0,0,1-3.995,3.936h-19.751a4,4,0,0,1-3.995-4.053l.326-22.39,27.732.715" fill="#855f49"/>
          <path id="Trazado_2756" data-name="Trazado 2756" d="M2006.552,6694.225c2.5-.705,4.472,3.223,4.472,3.223s5.047,10.021-.776,11-7.387-13.182-3.7-14.222" fill="#855f49"/>
          <path id="Trazado_2757" data-name="Trazado 2757" d="M2018.447,6718.551c-.164-3.086-.517-8.387-1.493-15.223l-7.366-7.9.709-.17c3.933,3.175,3.737,3.045,8.694,6.6,6.019-1.994,20.108-5.181,31.027.284l0,0s1.471-.967,1.547-3.8v4.636s-1.356,12.944-6.411,18.571c-4.281,4.759-14.544,13.242-26.841.658a46.335,46.335,0,0,1-9.5-13.888h.736c3.964,5.772,6.964,8.664,8.9,10.237" fill="#0098a0"/>
          <path id="Trazado_2758" data-name="Trazado 2758" d="M2038.957,6650.4c7.347.951,16.345,9.591,17.223,15.177,2.033,12.906-1.208,25.737-1.208,25.737s-1.49-11.783-11.392-11.783c-9.207,0-30.665-.791-36.742,7.628s3.112,27.551,3.112,27.551c-14.165-2.439-10.389-17.771-13.5-32.255-2.363-11,5.743-22.907,9.051-26.656,5.979-6.781,15.221-7.758,33.457-5.4" fill="#009da6"/>
          <path id="Trazado_2759" data-name="Trazado 2759" d="M2056.175,6665.543v0m-.009-.038v0m0-.038v0m-.009-.045h0m-.022-.12v0" fill="#73b2c0"/>
          <path id="Trazado_2760" data-name="Trazado 2760" d="M2055.814,6687.069a77.939,77.939,0,0,0,1.035-12.449,58.171,58.171,0,0,0-.669-9.04c0-.013,0-.025,0-.037v-.01c0-.009,0-.018-.009-.028v-.01c0-.01,0-.02,0-.028v-.01c0-.011,0-.023-.009-.035h0a1.073,1.073,0,0,0-.022-.119v0c-.673-3.333-4.08-7.654-8.257-10.8l.017.06c.968,4.239,1.008,9.758-1.752,13.391a71.621,71.621,0,0,1-8.64,9.563h18.315v9.554" fill="#008d95"/>
          <path id="Trazado_2761" data-name="Trazado 2761" d="M2005.393,6713.2l-.013-.008.013.008m-.031-.016-.014-.008.014.008m-.031-.017-.009-.006.009.006m-.027-.016-.014-.007.014.007m-.027-.015-.013-.008.013.008m-.031-.017-.014-.007.014.007m-.027-.016-.013-.006.013.006m-.031-.017-.009-.006.009.006m-.027-.016-.013-.007.013.007m-.027-.016-.013-.007.013.007m-.031-.016-.013-.008.013.008m-.027-.017-.013-.009.013.009m-.026-.016-.018-.01.018.01m-.032-.017-.013-.008.013.008m-.026-.017-.009-.007.009.007m-.027-.017-.013-.007.013.007m-.027-.016-.013-.009.013.009m-.031-.017-.009-.008.009.008m-.027-.017-.013-.009.013.009m-.026-.017a.06.06,0,0,0-.018-.011.06.06,0,0,1,.018.011m-.027-.017-.018-.011.018.011m-.027-.018a.045.045,0,0,1-.018-.011.045.045,0,0,0,.018.011m-.027-.017a.051.051,0,0,1-.018-.01.051.051,0,0,0,.018.01m-.031-.017-.16-.1.16.1m-.165-.107a.1.1,0,0,0-.022-.016.1.1,0,0,1,.022.016m-.027-.018a.084.084,0,0,0-.022-.016.084.084,0,0,1,.022.016m-.031-.022-.018-.012c.005,0,.014.008.018.012m-.022-.015-.022-.015.022.015m-.027-.019-.022-.014.022.014m-.027-.017a.083.083,0,0,0-.022-.015c.009.006.013.01.022.015m-.026-.02-.023-.013.023.013m-.023-.015-.026-.016.026.016m-.031-.02a.1.1,0,0,0-.022-.015.1.1,0,0,1,.022.015m-.027-.019-.017-.013.017.013m-.026-.02-.018-.012.018.012m-.027-.017a.069.069,0,0,0-.018-.013.1.1,0,0,1,.018.013m-.022-.018a.138.138,0,0,1-.023-.015l.023.015m-.027-.018a.142.142,0,0,0-.022-.015.142.142,0,0,1,.022.015m-.027-.018a.067.067,0,0,0-.022-.016.067.067,0,0,1,.022.016m-.022-.019a.114.114,0,0,1-.023-.015.114.114,0,0,0,.023.015m-.027-.02-.022-.014.022.014m-.027-.018a.061.061,0,0,1-.018-.014.061.061,0,0,0,.018.014m-.026-.02a.073.073,0,0,1-.018-.013.073.073,0,0,0,.018.013m-.027-.018a.054.054,0,0,0-.018-.014.071.071,0,0,1,.018.014m-.023-.019c-.008,0-.013-.01-.022-.015.009,0,.014.01.022.015m-.026-.018c-.005-.006-.014-.011-.018-.016s.013.01.018.016m-.023-.02a.089.089,0,0,1-.022-.016.089.089,0,0,0,.022.016m-.026-.018-.023-.017.023.017m-.027-.019c-.005-.006-.013-.012-.018-.017s.013.011.018.017m-.022-.02c-.009,0-.014-.011-.023-.016.009,0,.014.011.023.016m-.027-.019a.1.1,0,0,0-.022-.017c.008.006.013.011.022.017m-.022-.019a.117.117,0,0,1-.023-.018.117.117,0,0,0,.023.018m-.027-.02-.147-.117.147.117m-.147-.117c-6.594-5.389-4.82-17.274-7.089-28.789h0c2.269,11.514.5,23.4,7.089,28.788" fill="#73b2c0"/>
          <path id="Trazado_2762" data-name="Trazado 2762" d="M2004.822,6696.7v0a18.528,18.528,0,0,1,.58-6.558v-.007a18.5,18.5,0,0,0-.58,6.57" fill="#2b2525"/>
          <path id="Trazado_2763" data-name="Trazado 2763" d="M2005.4,6700.993v-.006a35.312,35.312,0,0,1-.58-4.289v0a35.349,35.349,0,0,0,.58,4.29" fill="#775542"/>
          <path id="Trazado_2764" data-name="Trazado 2764" d="M2005.4,6713.206v-12.213a35.349,35.349,0,0,1-.58-4.29,18.5,18.5,0,0,1,.58-6.57v-2.019a22.722,22.722,0,0,1-8.783-4.83c2.269,11.514.5,23.4,7.089,28.788h0l.147.117,0,0a.117.117,0,0,0,.023.018v0c.008.006.013.011.022.017l0,0c.009,0,.014.011.023.016l0,0s.013.011.018.017l0,0,.023.017,0,0a.089.089,0,0,0,.022.016l.005,0s.013.01.018.016l0,0c.009,0,.014.01.022.015l.005.005a.071.071,0,0,1,.018.014l.009.005a.073.073,0,0,0,.018.013l.008.006a.061.061,0,0,0,.018.014l.005,0,.022.014,0,0a.114.114,0,0,0,.023.015v0a.067.067,0,0,1,.022.016l.005,0a.142.142,0,0,1,.022.015l0,0,.023.015,0,0a.1.1,0,0,1,.018.013l.009.005.018.012.009.007.017.013,0,0a.1.1,0,0,1,.022.015l.005,0,.026.016v0l.023.013,0,0c.009.006.013.01.022.015l.005,0,.022.014.005,0,.022.015,0,0c.005,0,.014.008.018.012l.009.006a.084.084,0,0,1,.022.016l.005,0a.1.1,0,0,1,.022.016l.005,0,.16.1.013.007a.051.051,0,0,0,.018.01l.009.006a.045.045,0,0,0,.018.011l.009.007.018.011.009.006a.06.06,0,0,1,.018.011l.013.008.013.009.018.009.009.008.018.008.013.009.014.009.013.007a.058.058,0,0,0,.018.01l.009.007.013.009.013.008.014.007.018.01.013.007.013.009.014.009.013.008a.059.059,0,0,1,.018.009l.013.007.014.009.013.007.018.01.009.006a.051.051,0,0,1,.018.011l.013.006.013.009.014.007.018.009.013.008.013.008.014.007a.108.108,0,0,0,.018.01l.009.006a.067.067,0,0,1,.017.009l.014.008a.107.107,0,0,0,.018.008l.013.008.009,0" fill="#008d95"/>
          <path id="Trazado_2765" data-name="Trazado 2765" d="M2025.452,6730.206a30.879,30.879,0,0,0,13.188-3.185l1.427,8.3s-.691,9.812-12.957,10.909-17.718-11.519-17.718-11.519l1.507-9.8s7.366,5.266,14.553,5.294" fill="#fff"/>
          <path id="Trazado_2766" data-name="Trazado 2766" d="M2067.38,6806.255v0m0-.1v0m0-.1v0m0-.1v0m0-.1v0m-.005-.1v0m0-.094a45.488,45.488,0,0,1,1.369-11.79l.013-.029a45.543,45.543,0,0,0-1.382,11.819" fill="#0c7ca3"/>
          <path id="Trazado_2767" data-name="Trazado 2767" d="M2041.917,6856.572c5.386-.306,9.978-.667,13.108-.939q1.76-.25,3.518-.515l.892.1s.035.127.1.38h0c.014.051.027.107.045.169,3.682-11.961,7.847-29.239,7.847-46.266,0-1.049-.014-2.1-.045-3.144,0-.034,0-.068,0-.1v-.015a.525.525,0,0,0,0-.087v-.144c0-.019,0-.038,0-.057v-.175a.032.032,0,0,0-.005-.02v-.093h0a45.488,45.488,0,0,1,1.369-11.79c-.062.124-.129.246-.187.371-1.53,4.038-2.716,8.178-3.852,12.331q-.569,3.409-1.338,6.77c-.375,2.024-.86,4.025-1.409,5.973-.878,3.12-1.966,6.19-2.6,9.368a49.251,49.251,0,0,1-1.587,9.576,29.6,29.6,0,0,1-7.152,12.191,31.646,31.646,0,0,1-8.694,6.119" fill="#0e8bb5"/>
          <path id="Trazado_2768" data-name="Trazado 2768" d="M2058.543,6855.118l.892.1s16.394,58.39,15.885,153.271c0,0-34.544,8.841-109.024,0,0,0,.246-76.637,20.559-151.187,23.853,3,47.826,1.411,71.688-2.185" fill="#0f92bf"/>
          <path id="Trazado_2769" data-name="Trazado 2769" d="M2073.523,6950.945c-.066-1-.138-1.982-.209-2.966h0c.071.986.143,1.967.209,2.966h0" fill="#006476"/>
          <path id="Trazado_2770" data-name="Trazado 2770" d="M2065.413,6883.2c-2.777-15.668-5.216-25.136-5.831-27.436h0c.615,2.3,3.054,11.772,5.831,27.435h0" fill="#0c7ca3"/>
          <path id="Trazado_2771" data-name="Trazado 2771" d="M2059.582,6855.768h0c-.018-.062-.031-.118-.045-.169h0c.014.051.027.108.045.169" fill="#0d84ac"/>
          <path id="Trazado_2772" data-name="Trazado 2772" d="M2063.746,7010.434a105.711,105.711,0,0,0,11.561-1.944h.013v-.325c0-.076,0-.152,0-.228v-.9c0-.067,0-.125,0-.2v-1.966c0-.081,0-.17,0-.25v-.3c0-19.434-.7-37.3-1.811-53.385h0c-.066-1-.138-1.98-.209-2.966h0a639.1,639.1,0,0,0-7.9-64.776h0c-2.777-15.663-5.216-25.134-5.831-27.435h0c-.018-.061-.031-.118-.045-.169-.022.006-.04.013-.058.019l.29,2.638a163.545,163.545,0,0,1-25.021,2.773c.718.413,1.418.854,2.091,1.326a43.584,43.584,0,0,1,11.159,11.49,53,53,0,0,1,8.008,19.753,128.994,128.994,0,0,1,2.185,23.8c.717,6.249,1.145,12.538,1.44,18.8.459,9.746,1.221,19.405,2.189,29.116,1.074,10.728,2.109,21.482,2.234,32.267.053,4.244-.032,8.556-.308,12.858" fill="#0e8bb5"/>
          <path id="Trazado_2773" data-name="Trazado 2773" d="M2010.155,6894.606a3.3,3.3,0,0,0,.272-.6c.013-.042.031-.086.044-.129.036-.081.067-.162.1-.242.072-.174.13-.329.17-.431-.335.62-.669,1.292-.589,1.4l.005,0" fill="#0d83ac"/>
          <path id="Trazado_2774" data-name="Trazado 2774" d="M2050.228,6740.222l-.005,0a15.314,15.314,0,0,0,5.573-11.175,15.321,15.321,0,0,1-5.568,11.177m-1-.4-4.347-1.758c.294-.538.477-.887.477-.887l-5.292-1.852h0l-1.333-7.753,0-.049.014-.581c.285-.213.561-.429.833-.65a26.05,26.05,0,0,0,5.565-4.745h0a22.563,22.563,0,0,0,4.079-7.821v26.1m-42.079-4.32a15.322,15.322,0,0,1-1.748-7.126v-15.167l0,0,.014,0a.15.15,0,0,0,.018.011l.008,0a.07.07,0,0,1,.018.01l.014.007.018.008.013.008.013.008.014.007a.094.094,0,0,1,.018.009l.013.007.018.008.013.007.013.008.014.007.018.009.013.006.018.01.013.006.014.008.017.007.014.008a.049.049,0,0,0,.018.008l.013.008.014.007.017.008.014.007.013.007a.078.078,0,0,1,.018.008l.013.008.018.007.014.007.013.006.018.01.009,0,.022.01.013.006a.051.051,0,0,0,.018.008l.014.008a.057.057,0,0,0,.017.007l.009,0,.022.01.005,0a.171.171,0,0,0,.027.013l0,0c.089.042.183.083.272.123h0c.022.009.045.018.063.027h0l.027.012,0,0,.023.01.008,0c.009,0,.018.006.023.009l.009,0,.022.009.013,0,.023.01.009,0,.017.008a.054.054,0,0,1,.014,0,.1.1,0,0,1,.022.009l.009,0,.027.01.009,0,.022.011.009,0,.022.009.009,0,.027.009.009,0a.1.1,0,0,0,.022.009l.009,0a.115.115,0,0,1,.022.01l.009,0a.1.1,0,0,1,.022.009l.014,0a.211.211,0,0,1,.022.009l.009,0,.027.009.009,0a.091.091,0,0,0,.022.01l.009,0,.022.009.014,0,.022.007.009,0a.083.083,0,0,1,.022.008l.013,0,.023.008.009.005a.083.083,0,0,1,.022.007l.013,0,.023.008.013,0,.018.008.013,0,.022.008.014,0,.022.007.014.005.022.007.009,0,.022.008.013,0,.023.008.013,0,.018.007.018,0,.018.008.013,0a.1.1,0,0,1,.022.008l.009,0,.027.009,0,0,.032.009.013,0a.106.106,0,0,0,.022.008l.009,0,.027.008.009,0,.027.009h0a.167.167,0,0,1,.031.01l.009,0c.044.015.089.028.133.042h.005l.209.063h0l.063.018.013,0,.027.008.009,0,.027.009.009,0,.031.008,0,0,.027.007.009,0,.027.007.013,0a.116.116,0,0,0,.022.007l.014,0,.022.006.013,0,.027.007.013,0a.1.1,0,0,0,.023.006l.013,0,.022.006.014,0,.027.006.013,0,.022,0,.014,0,.022.006.013,0,.027.007.013,0,.023.006.013,0,.027.005.013,0,.023.006.013,0,.027.006.013,0,.022.006.014,0,.026,0,.014,0,.022,0,.018,0,.022,0,.014,0,.026.005.014,0,.022.006.018,0,.022,0,.014,0,.026,0,.014,0,.022,0,.018,0,.022.005.018,0,.022,0,.014,0,.026.005.014,0,.022,0,.018,0h0c.366.457.745.893,1.133,1.306q.348.825.722,1.631l-.107,7.48-.134-.092-1.507,9.8h0l-2.242.786" fill="#a0d2de"/>
          <path id="Trazado_2775" data-name="Trazado 2775" d="M2040.985,6743.728a15.312,15.312,0,0,0,9.243-3.506l-.005,0c-.321.264-.651.516-.994.754v-1.155l-4.347-1.758c-.892,1.615-2.809,4.935-3.9,5.667" fill="#51aece"/>
          <path id="Trazado_2776" data-name="Trazado 2776" d="M2034.824,6743.737a11.926,11.926,0,0,0,5.243-8.415l5.292,1.852s-.183.349-.477.887c-.892,1.615-2.809,4.935-3.9,5.667-.183.006-.361.009-.544.009h-5.617m-18.833-.757a15.411,15.411,0,0,1-8.841-7.481l2.242-.786a23.321,23.321,0,0,0,5.894,7.7v.31c.228.088.464.17.7.247l.009.007" fill="#f9fafa"/>
          <path id="Trazado_2777" data-name="Trazado 2777" d="M2010.418,6715.893c-.388-.413-.767-.849-1.133-1.306l.018,0,.018,0,.022,0,.018,0,.022,0,.018,0,.022.005.018,0,.023,0,.017,0,.023,0,.018,0,.022,0,.018,0,.022,0,.013,0,.027,0,.018,0,.022,0,.018,0,.022,0,.023,0,.018,0,.017,0,.023,0,.017,0,.023,0h.009l.031.006.018,0,.022,0,.045.007h0l-.005,0h0v0l0,0h0a66.546,66.546,0,0,1-2.921-7.521,3.866,3.866,0,0,0,1.815,1.2c.067.156.254.582.557,1.209a16.865,16.865,0,0,0,.558,5.123q.227.594.468,1.18m-.219-19.74a7.826,7.826,0,0,0-.5-.609l.508.545c0,.022,0,.043-.009.064m-.611-.728a3.545,3.545,0,0,0-2.429-1.285,2.207,2.207,0,0,0-.607.085,2.018,2.018,0,0,0-1.15.967v-5.052a10.4,10.4,0,0,1,.731-1.819h0a9.392,9.392,0,0,1,.709-1.158c1.756-2.431,4.792-4.1,8.448-5.231v2.127a19.418,19.418,0,0,0-4.9,10.257c-.032.312-.067.626-.1.941l-.7.169" fill="#686465"/>
          <path id="Trazado_2778" data-name="Trazado 2778" d="M2038.752,6726.939v-.042l-.005,0v-.121c.285-.158.566-.322.838-.491-.272.221-.548.437-.833.65m-27.612-9.415q-.375-.806-.722-1.631-.242-.587-.468-1.18a16.865,16.865,0,0,1-.558-5.123c.406.833,1.012,2.022,1.815,3.4l-.067,4.536m4.146-5.729-3.277-.084c-.74-.957-1.52-2.024-2.34-3.215h.009a3.384,3.384,0,0,0,.57-.049c5.823-.978.776-11,.776-11a9.479,9.479,0,0,0-.825-1.3c.005-.021.005-.042.009-.064l5.078,5.448v10.258m33.943-10.033a32.655,32.655,0,0,0-13.558-2.66,50.244,50.244,0,0,0-7.138.533v-19.848c2.291-.15,4.552-.22,6.674-.251h0c1.123-.017,2.211-.022,3.241-.022,1.939,0,3.692.019,5.136.019a9.974,9.974,0,0,1,5.649,1.629v20.6m-33.943-2.582c-1.618-1.193-2.429-1.86-4.989-3.925h-.009c.032-.315.067-.629.1-.941a19.418,19.418,0,0,1,4.9-10.257v15.122" fill="#a38a7b"/>
          <path id="Trazado_2779" data-name="Trazado 2779" d="M2035.6,6728.134a16.932,16.932,0,0,0,3.143-1.354v.121a13.728,13.728,0,0,1-3.143,1.233m3.13-.565v0l0-.047,0,.049m-23.448-.115a35.082,35.082,0,0,1-4.253-2.45l.107-7.48.067-4.536a46.955,46.955,0,0,0,4.079,5.936v8.53m0-11.873c-.976-1.035-2.068-2.305-3.277-3.87l3.277.084v3.786" fill="#a38a7b"/>
          <path id="Trazado_2780" data-name="Trazado 2780" d="M2038.738,6727.52l.014-.581-.009,0-.005.576" fill="#97c4ce"/>
          <path id="Trazado_2781" data-name="Trazado 2781" d="M2038.743,6726.944l.009,0v-.042l-.005,0,0,.043" fill="#9a8377"/>
          <path id="Trazado_2782" data-name="Trazado 2782" d="M2028.533,6730.029a31.407,31.407,0,0,0,10.107-3.008l.094.546,0-.047.005-.576,0-.043a13.728,13.728,0,0,1-3.143,1.233,13.98,13.98,0,0,1-4.173.65,13.687,13.687,0,0,1-2.9-.314v1.559" fill="#9a8377"/>
          <path id="Trazado_2783" data-name="Trazado 2783" d="M2009.678,6708.5a3.384,3.384,0,0,0,.57-.049c5.823-.978.776-11,.776-11a9.479,9.479,0,0,0-.825-1.3,7.826,7.826,0,0,0-.5-.609l-.112-.119h0a3.545,3.545,0,0,0-2.429-1.285,2.207,2.207,0,0,0-.607.085,2.018,2.018,0,0,0-1.15.967v5.795a53.778,53.778,0,0,0,1.618,6.192,3.866,3.866,0,0,0,1.815,1.2l-.027-.067h.736c.04.061.08.121.125.182h.009" fill="#a38a7b"/>
          <path id="Trazado_2784" data-name="Trazado 2784" d="M2045.15,6721.544a15.209,15.209,0,0,0,1.85-2.627,16.054,16.054,0,0,1-8.453,2.515,12.484,12.484,0,0,1-4.5-.807,17.543,17.543,0,0,1-5.515-3.437v-17.553a50.244,50.244,0,0,1,7.138-.533,32.655,32.655,0,0,1,13.558,2.66v11.961a22.563,22.563,0,0,1-4.079,7.821m-29.864-2.62a46.955,46.955,0,0,1-4.079-5.936c-.8-1.376-1.409-2.565-1.815-3.4-.3-.627-.49-1.053-.557-1.209l-.027-.067h0a48.493,48.493,0,0,0,6.478,10.61h0" fill="#47b2b8"/>
          <path id="Trazado_2785" data-name="Trazado 2785" d="M2012.009,6711.711c-.74-.957-1.52-2.024-2.34-3.215h0c.82,1.191,1.6,2.258,2.34,3.215h0" fill="#9f8779"/>
          <path id="Trazado_2786" data-name="Trazado 2786" d="M2015.286,6715.581h0c-.976-1.035-2.068-2.305-3.277-3.87h0c1.209,1.565,2.3,2.835,3.277,3.87" fill="#9f8779"/>
          <path id="Trazado_2787" data-name="Trazado 2787" d="M2015.286,6699.18h0c-1.618-1.193-2.429-1.86-4.989-3.925,2.56,2.065,3.371,2.732,4.989,3.925" fill="#9f8779"/>
          <path id="Trazado_2788" data-name="Trazado 2788" d="M2009.669,6708.5h0c-.045-.061-.085-.121-.125-.182h0c.04.061.08.121.125.182m.031-12.952-.112-.119.112.119h0" fill="#9f8779"/>
          <path id="Trazado_2789" data-name="Trazado 2789" d="M2031.431,6728.784a13.687,13.687,0,0,1-2.9-.314v-11.282a17.543,17.543,0,0,0,5.515,3.437,12.484,12.484,0,0,0,4.5.807,16.054,16.054,0,0,0,8.453-2.515,15.209,15.209,0,0,1-1.85,2.627h0c-2.627,2.919-7.5,7.24-13.719,7.24m-16.145-9.86a48.493,48.493,0,0,1-6.478-10.61h.736c.04.061.08.121.125.182.82,1.191,1.6,2.258,2.34,3.215,1.209,1.565,2.3,2.835,3.277,3.87v3.343m0-17.387-5.586-5.993-.112-.119.709-.17h0c2.56,2.065,3.371,2.732,4.989,3.925v2.357" fill="#47acb3"/>
          <path id="Trazado_2790" data-name="Trazado 2790" d="M2009.95,6714.713h0l-.005,0,.005,0m-.005,0h0m0,0v0m-.04,0-.022,0,.022,0m.036,0h0m-.076,0-.031-.006.031.006m-.04-.007-.023,0,.023,0m-.04-.008-.023,0,.023,0m-.04-.008-.018,0,.018,0m-.041-.007-.022,0,.022,0m-.04-.007-.022,0,.022,0m-.04-.008-.027,0,.027,0m-.04-.007-.022,0,.022,0m-.04-.009-.022,0,.022,0m-.04-.007-.023,0,.023,0m-.04-.008-.023,0,.023,0m-.041-.008-.022-.005.022.005m-.04-.008-.022,0,.022,0m-.04-.008-.022,0,.022,0m-.04-.008-.018,0h0l.022,0m-.04-.009-.022,0,.022,0m-.036-.008-.026-.005.026.005m-.04-.008-.022,0,.022,0m-.04-.009-.022-.005.022.005m-.04-.009-.022,0,.022,0m-.036-.008-.026,0,.026,0m-.04-.009-.022,0,.022,0m-.04-.008-.022-.006.022.006m-.036-.009-.026-.005.026.005m-.04-.009-.022,0,.022,0m-.04-.009-.022,0,.022,0m-.036-.009-.026,0,.026,0m-.04-.009-.022-.006.022.006m-.035-.009-.027-.006.027.006m-.04-.009-.023-.006.023.006m-.036-.01-.027-.005.027.005m-.04-.009-.023-.006.023.006m-.036-.009-.027-.007.027.007m-.04-.01-.022-.006.022.006m-.036-.01-.022,0,.022,0m-.035-.009-.027-.006.027.006m-.041-.01-.022-.006.022.006m-.035-.01a.1.1,0,0,1-.023-.006l.023.006m-.036-.009-.027-.007.027.007m-.04-.01-.022-.006.022.006m-.036-.01a.116.116,0,0,1-.022-.007.116.116,0,0,0,.022.007m-.035-.01-.027-.007.027.007m-.036-.01-.027-.007.027.007m-.031-.009-.031-.008.031.008m-.04-.01-.027-.009.027.009m-.036-.011-.027-.008.027.008m-.04-.011-.063-.018.063.018m-.063-.018-.209-.063.209.063m-.214-.064c-.044-.014-.089-.027-.133-.042l.133.042m-.142-.044a.167.167,0,0,0-.031-.01.3.3,0,0,1,.031.01m-.031-.011-.027-.009.027.009m-.036-.012-.027-.008.027.008m-.036-.011a.106.106,0,0,1-.022-.008.106.106,0,0,0,.022.008m-.035-.012-.032-.009.032.009m-.036-.011-.027-.009.027.009m-.036-.012a.1.1,0,0,0-.022-.008l.022.008m-.035-.011-.018-.008.018.008m-.036-.013-.018-.007.018.007m-.031-.011-.023-.008.023.008m-.036-.012-.022-.008.022.008m-.031-.012-.022-.007.022.007m-.036-.012-.022-.007.022.007m-.036-.012-.022-.008.022.008m-.035-.012-.018-.008.018.008m-.031-.012-.023-.008.023.008m-.036-.013a.083.083,0,0,0-.022-.007.083.083,0,0,1,.022.007m-.031-.012-.023-.008.023.008m-.036-.012a.083.083,0,0,0-.022-.008.083.083,0,0,1,.022.008m-.031-.013-.022-.007.022.007m-.036-.012-.022-.009.022.009m-.031-.012a.091.091,0,0,1-.022-.01.064.064,0,0,0,.022.01m-.031-.013-.027-.009.027.009m-.036-.012a.211.211,0,0,0-.022-.009l.022.009m-.036-.014a.1.1,0,0,0-.022-.009.191.191,0,0,1,.022.009m-.031-.012a.115.115,0,0,0-.022-.01.115.115,0,0,1,.022.01m-.031-.013a.1.1,0,0,1-.022-.009.1.1,0,0,0,.022.009m-.031-.013-.027-.009.027.009m-.036-.014-.022-.009a.1.1,0,0,0,.022.009m-.031-.011-.022-.011.022.011m-.031-.014-.027-.01.027.01m-.036-.014a.1.1,0,0,0-.022-.009.1.1,0,0,1,.022.009m-.036-.014-.017-.008.017.008m-.026-.012-.023-.01.023.01m-.036-.014-.022-.009.022.009m-.031-.014c-.005,0-.014,0-.023-.009.009,0,.018.006.023.009m-.031-.013-.023-.01.023.01m-.027-.012-.027-.012.027.012m-.031-.012c-.018-.009-.041-.018-.063-.027.022.009.045.018.063.027m-.063-.027c-.089-.04-.183-.081-.272-.123.089.042.183.083.272.123m-.276-.126a.171.171,0,0,1-.027-.013l.027.013m-.032-.015-.022-.01.022.01m-.031-.015a.057.057,0,0,1-.017-.007.057.057,0,0,0,.017.007m-.031-.015a.051.051,0,0,1-.018-.008.051.051,0,0,0,.018.008m-.031-.014-.022-.01c.008,0,.013.007.022.01m-.031-.014-.018-.01.018.01m-.031-.016-.014-.007.014.007m-.032-.014-.013-.008.013.008m-.031-.016-.013-.007.013.007m-.027-.014-.017-.008.017.008m-.031-.015-.013-.008.013.008m-.031-.016-.014-.008.014.008m-.031-.015-.014-.008.014.008m-.027-.014-.018-.01a.128.128,0,0,0,.018.01m-.031-.016-.018-.009a.074.074,0,0,1,.018.009m-.032-.016-.013-.008.013.008m-.026-.015-.018-.008.018.008m-.031-.015a.094.094,0,0,0-.018-.009.094.094,0,0,1,.018.009m-.032-.016-.013-.008.013.008m-.026-.016-.018-.008.018.008m-.032-.015a.07.07,0,0,0-.018-.01.07.07,0,0,1,.018.01m-.026-.015a.15.15,0,0,1-.018-.011l.018.011m-.032-.016,0,0h0l0,0m.723-24.89c-.245-.066-.486-.134-.727-.206v-10.6h32.1q-1.117,1.026-2.292,2.021c-2.122.031-4.383.1-6.674.251v-2.272h-13.247v4.416c-3.656,1.136-6.692,2.8-8.448,5.231a9.392,9.392,0,0,0-.709,1.158" fill="#47b5bc"/>
          <path id="Trazado_2791" data-name="Trazado 2791" d="M2049.229,6681.163h0a9.974,9.974,0,0,0-5.649-1.629c-1.458,0-3.223-.02-5.181-.02-1.016,0-2.086.006-3.192.022h0c1.123-.017,2.211-.022,3.241-.022,1.939,0,3.692.019,5.136.019a9.974,9.974,0,0,1,5.649,1.629" fill="#9a8377"/>
          <path id="Trazado_2792" data-name="Trazado 2792" d="M2055.814,6687.069h0v-9.554H2037.5q-1.117,1.026-2.292,2.021c1.106-.016,2.176-.022,3.192-.022,1.958,0,3.723.02,5.181.02a9.974,9.974,0,0,1,5.649,1.629v-3.648h6.585v9.554" fill="#47aab0"/>
          <path id="Trazado_2793" data-name="Trazado 2793" d="M2009.281,6714.586l-.018,0,.018,0m-.04-.009-.014,0,.014,0m-.04-.008-.014,0,.014,0m-.036-.008-.018,0,.018,0m-.04-.009-.018,0,.018,0m-.04-.008-.014,0,.014,0m-.04-.009-.014,0,.014,0m-.036-.008-.018,0,.018,0m-.04-.01-.014,0,.014,0m-.04-.008-.014,0,.014,0m-.036-.009-.018,0,.018,0m-.04-.009-.014,0,.014,0m-.04-.009-.014,0,.014,0m-.036-.01-.013,0,.013,0m-.04-.009-.013,0,.013,0m-.036-.009-.013,0,.013,0m-.04-.009-.013,0,.013,0m-.036-.01-.013,0,.013,0m-.04-.01-.013,0,.013,0m-.035-.009-.014,0,.014,0m-.036-.009-.013,0,.013,0m-.04-.01-.014,0,.014,0m-.036-.01-.013,0,.013,0m-.036-.01-.013,0,.013,0m-.04-.01-.013,0,.013,0m-.035-.009-.014,0,.014,0m-.036-.011-.013,0,.013,0m-.04-.01-.009,0,.009,0m-.036-.01,0,0,0,0m-.035-.01-.009,0,.009,0m-.036-.011-.009,0,.009,0m-.036-.01-.013,0,.013,0m-.076-.021h0m-.209-.063h0m-.138-.043-.009,0,.009,0m-.04-.012h0m-.027-.01-.009,0,.009,0m-.036-.011-.009,0,.009,0m-.031-.011-.013,0,.013,0m-.045-.013,0,0,0,0m-.031-.011-.009,0,.009,0m-.031-.011-.013,0,.013,0m-.031-.011-.018,0,.018,0m-.036-.012-.013,0,.013,0m-.036-.012-.013,0,.013,0m-.035-.012-.009,0,.009,0m-.031-.011-.014-.005.014.005m-.036-.012-.014,0,.014,0m-.036-.013-.013,0,.013,0m-.031-.012-.013,0,.013,0m-.036-.012-.013,0,.013,0m-.035-.012-.009-.005.009.005m-.032-.013-.013,0,.013,0m-.035-.012-.009,0,.009,0m-.031-.012-.014,0,.014,0m-.036-.014-.009,0,.009,0m-.031-.013-.009,0,.009,0m-.036-.012-.009,0,.009,0m-.031-.012-.014,0,.014,0m-.036-.014-.009,0,.009,0m-.031-.013-.009,0,.009,0m-.031-.012-.009,0,.009,0m-.036-.013-.009,0,.009,0m-.031-.014-.009,0,.009,0m-.031-.013-.009,0,.009,0m-.036-.013-.009,0,.009,0m-.031-.013a.054.054,0,0,0-.014,0l.014,0m-.031-.013-.009,0,.009,0m-.032-.014-.013,0,.013,0m-.035-.013-.009,0,.009,0m-.032-.014-.008,0,.008,0m-.031-.014,0,0,0,0m-.031-.014h0m-.067-.027h0m-.272-.123,0,0,0,0m-.031-.016-.005,0,.005,0m-.027-.012-.009,0,.009,0m-.026-.012-.014-.008.014.008m-.032-.016-.013-.006.013.006m-.035-.016-.009,0,.009,0m-.027-.014-.013-.006.013.006m-.027-.013-.018-.007.018.007m-.031-.015a.078.078,0,0,0-.018-.008l.018.008m-.031-.015-.014-.007.014.007m-.031-.015-.014-.007.014.007m-.027-.015a.049.049,0,0,1-.018-.008.074.074,0,0,0,.018.008m-.032-.016-.017-.007.017.007m-.031-.015-.013-.006.013.006m-.031-.016-.013-.006.013.006m-.031-.015-.014-.007.014.007m-.027-.015-.013-.007.013.007m-.031-.015-.013-.007.013.007m-.031-.016-.014-.007.014.007m-.027-.015-.013-.008.013.008m-.031-.016-.014-.007.014.007m-.032-.017-.008,0,.008,0m-.026-.016-.014,0,.014,0" fill="#97c4ce"/>
          <path id="Trazado_2794" data-name="Trazado 2794" d="M2009.95,6714.713l-.045-.007.045.007h0m-.005,0h0m0,0h0m0,0,0,0,0,0m-.062,0-.018,0,.018,0m.058,0a66.384,66.384,0,0,1-2.921-7.522h0a66.546,66.546,0,0,0,2.921,7.521m-.107-.007h0m-.032-.006-.017,0,.017,0m-.04-.007-.017,0,.017,0m-.035-.007-.023,0,.023,0m-.045-.008-.018,0,.018,0m-.04-.007-.018,0,.018,0m-.045-.009-.013,0,.013,0m-.035-.007-.018,0,.018,0m-.04-.008-.018,0,.018,0m-.041-.008-.017,0,.017,0m-.04-.008-.018,0,.018,0m-.04-.008-.018,0,.018,0m-.04-.008-.018,0,.018,0m-.04-.008-.018,0,.018,0" fill="#656262"/>
          <path id="Trazado_2795" data-name="Trazado 2795" d="M2007.02,6707.179a53.778,53.778,0,0,1-1.618-6.192v.006a53.725,53.725,0,0,0,1.618,6.185h0" fill="#9a8377"/>
          <path id="Trazado_2796" data-name="Trazado 2796" d="M2009.95,6714.713l-.005,0h0v0l0,0h0a66.384,66.384,0,0,1-2.921-7.522,53.725,53.725,0,0,1-1.618-6.185v12.213l0,0,.014,0,.018.011.008,0a.07.07,0,0,1,.018.01l.014.007.018.008.013.008.013.008.014.007a.094.094,0,0,1,.018.009l.013.007.018.008.013.007.013.008.014.007a.074.074,0,0,1,.018.009l.013.006a.128.128,0,0,0,.018.01l.013.006.014.008.017.007.014.008a.074.074,0,0,0,.018.008l.013.008.014.007.017.008.014.007.013.007.018.008.013.008.018.007.014.007.013.006.018.01.009,0c.008,0,.013.007.022.01l.013.006a.051.051,0,0,0,.018.008l.014.008a.057.057,0,0,0,.017.007l.009,0,.022.01.005,0,.027.013,0,0c.089.042.183.083.272.123h0c.022.009.045.018.063.027h0l.027.012,0,0,.023.01.008,0c.009,0,.018.006.023.009l.009,0,.022.009.013,0,.023.01.009,0,.017.008.014,0a.1.1,0,0,1,.022.009l.009,0,.027.01.009,0,.022.011.009,0a.1.1,0,0,0,.022.009l.009,0,.027.009.009,0a.1.1,0,0,0,.022.009l.009,0a.115.115,0,0,1,.022.01l.009,0a.191.191,0,0,1,.022.009l.014,0,.022.009.009,0,.027.009.009,0a.064.064,0,0,0,.022.01l.009,0,.022.009.014,0,.022.007.009,0a.083.083,0,0,1,.022.008l.013,0,.023.008.009.005a.083.083,0,0,1,.022.007l.013,0,.023.008.013,0,.018.008.013,0,.022.008.014,0,.022.007.014.005.022.007.009,0,.022.008.013,0,.023.008.013,0,.018.007.018,0,.018.008.013,0,.022.008.009,0,.027.009,0,0,.032.009.013,0a.106.106,0,0,0,.022.008l.009,0,.027.008.009,0,.027.009h0a.3.3,0,0,1,.031.01l.009,0,.133.042h.005l.209.063h0l.063.018.013,0,.027.008.009,0,.027.009.009,0,.031.008,0,0,.027.007.009,0,.027.007.013,0a.116.116,0,0,0,.022.007l.014,0,.022.006.013,0,.027.007.013,0,.023.006.013,0,.022.006.014,0,.027.006.013,0,.022,0,.014,0,.022.006.013,0,.027.007.013,0,.023.006.013,0,.027.005.013,0,.023.006.013,0,.027.006.013,0,.022.006.014,0,.026,0,.014,0,.022,0,.018,0,.022,0,.014,0,.026.005.014,0,.022.006.018,0,.022,0,.014,0,.026,0,.014,0,.022,0,.018,0,.022.005.018,0,.022,0,.014,0,.026.005.014,0,.022,0,.018,0,.022,0,.018,0,.022,0,.018,0,.022,0,.018,0,.022.005.018,0,.023,0,.017,0,.023,0,.018,0,.022,0,.018,0,.022,0,.013,0,.027,0,.018,0,.022,0,.018,0,.022,0,.023,0,.018,0,.017,0,.023,0,.017,0,.023,0h.009l.031.006.018,0,.022,0,.045.007" fill="#47aab0"/>
          <path id="Trazado_2797" data-name="Trazado 2797" d="M2005.4,6690.14a10.4,10.4,0,0,1,.731-1.819h0a10.687,10.687,0,0,0-.727,1.813v.007" fill="#656262"/>
          <path id="Trazado_2798" data-name="Trazado 2798" d="M2005.4,6690.133a10.687,10.687,0,0,1,.727-1.813c-.245-.066-.486-.134-.727-.206v2.019" fill="#47aab0"/>
          <path id="Trazado_2799" data-name="Trazado 2799" d="M2028.533,6743.737v-13.708a31.407,31.407,0,0,0,10.107-3.008l.094.546v0l1.333,7.753h0a11.926,11.926,0,0,1-5.243,8.415h-6.291m-7.812,0h0m-.044,0h0m-.045,0h0m-.044,0h0m-.045,0a15.38,15.38,0,0,1-4.552-.756l-.009-.007a15.359,15.359,0,0,0,4.561.763m-5.257-1.32a23.321,23.321,0,0,1-5.894-7.7h0l1.507-9.8.134.092a35.082,35.082,0,0,0,4.253,2.45v14.962" fill="#f9fafa"/>
          <path id="Trazado_2800" data-name="Trazado 2800" d="M2055.8,6729.039a.2.2,0,0,0,.005-.054.2.2,0,0,1-.005.054m.005-.059c0-.04,0-.079,0-.119,0,.039,0,.079,0,.119m0-.121v0m0-.068a.121.121,0,0,1,.005-.043.124.124,0,0,0-.005.043m.005-.058v0m0-.057v0m0-.063v0m0-.069v0m0-.058v0m0-.057v0" fill="#a0d2de"/>
          <path id="Trazado_2801" data-name="Trazado 2801" d="M2055.8,6729.045v0m.005-.06v0m0-.124v0m0-.056v0m.005-.057v0m0-.063v0m0-.067v0m0-.056v0m0-.056v0m0-.058a.034.034,0,0,0,0-.019.036.036,0,0,1,0,.019" fill="#a0d2de"/>
          <path id="Trazado_2802" data-name="Trazado 2802" d="M2050.223,6740.22a15.314,15.314,0,0,0,5.573-11.175v-.006a.2.2,0,0,0,.005-.054v0c0-.04,0-.079,0-.119v-.07a.121.121,0,0,1,.005-.043v-.3a.034.034,0,0,0,0-.019v-.056h0v-41.3c-.437,2.645-.842,4.248-.842,4.248a15.426,15.426,0,0,0-.473-2.15,61.468,61.468,0,0,1-3.237,15.973,56.665,56.665,0,0,1-2.033,8.583v26.1l.994.4" fill="#b6dae3"/>
          <path id="Trazado_2803" data-name="Trazado 2803" d="M2049.229,6740.974c.343-.238.673-.49.994-.754l-.994-.4v1.155" fill="#7fc1d8"/>
          <path id="Trazado_2804" data-name="Trazado 2804" d="M2051.262,6705.14a61.468,61.468,0,0,0,3.237-15.973,16.247,16.247,0,0,0-3.17-6.15,19.348,19.348,0,0,1,.486,4.718l-.285,11.122c.013-.166.026-.339.031-.52v4.636s-.089.833-.3,2.167" fill="#8f8e8f"/>
          <path id="Trazado_2805" data-name="Trazado 2805" d="M2050.018,6702.14l0,0a4.349,4.349,0,0,0,1.516-3.281l.285-11.122a19.348,19.348,0,0,0-.486-4.718,10.565,10.565,0,0,0-2.1-1.854v20.6c.263.121.531.247.789.378" fill="#b8a89e"/>
          <path id="Trazado_2806" data-name="Trazado 2806" d="M2049.229,6713.723a56.665,56.665,0,0,0,2.033-8.583c.21-1.334.3-2.167.3-2.167v-4.636c-.005.181-.018.354-.031.52a4.349,4.349,0,0,1-1.516,3.281l0,0c-.258-.131-.526-.257-.789-.378v11.961" fill="#78c4c9"/>
          <path id="Trazado_2807" data-name="Trazado 2807" d="M2054.972,6691.317s.405-1.6.842-4.248v-9.554h-6.585v3.648a10.565,10.565,0,0,1,2.1,1.854,16.247,16.247,0,0,1,3.17,6.15,15.426,15.426,0,0,1,.473,2.15" fill="#78bfc3"/>
          <path id="Trazado_2808" data-name="Trazado 2808" d="M2020.77,6743.737h0m-.062,0h0m-.058,0h0m-.049,0h0m-.054,0h0" fill="#f9fafa"/>
          <path id="Trazado_2809" data-name="Trazado 2809" d="M2015.982,6742.973q-.354-.273-.7-.557v.31c.228.088.464.17.7.247" fill="#f4f6f7"/>
          <path id="Trazado_2810" data-name="Trazado 2810" d="M2015.286,6684.058a21.467,21.467,0,0,1,3.157-2.953c-1.092.239-2.149.512-3.157.826v2.127" fill="#8f8e8f"/>
          <path id="Trazado_2811" data-name="Trazado 2811" d="M2017.962,6711.864l-2.676-.069v-10.258l1.668,1.791c.459,3.206.78,6.075,1.008,8.536m1.029-10.008h0c-1.729-1.242-2.835-2.035-3.7-2.676v-15.122a21.467,21.467,0,0,1,3.157-2.953,68.945,68.945,0,0,1,10.09-1.318v19.848a56.984,56.984,0,0,0-9.515,2.213l-.027.008h0" fill="#b8a89e"/>
          <path id="Trazado_2812" data-name="Trazado 2812" d="M2025.546,6730.207h-.094a24.428,24.428,0,0,1-10.166-2.752v-8.53a34.535,34.535,0,0,0,3.023,3.278h0a22.208,22.208,0,0,0,8.641,5.83,27.22,27.22,0,0,1-7.486-3.037,17.743,17.743,0,0,0,7.686,5.159c-.526.034-1.061.053-1.6.053m-7.1-11.656c-.334-.27-.7-.579-1.092-.936-.615-.554-1.306-1.222-2.069-2.034v-3.786l2.676.069c.258,2.786.4,5.048.485,6.687" fill="#b8a89e"/>
          <path id="Trazado_2813" data-name="Trazado 2813" d="M2027.15,6730.154c.469-.03.928-.073,1.383-.125v-1.559a14.868,14.868,0,0,1-1.583-.438,27.22,27.22,0,0,1-7.486-3.037,17.743,17.743,0,0,0,7.686,5.159" fill="#b2a39c"/>
          <path id="Trazado_2814" data-name="Trazado 2814" d="M2018.309,6722.2a34.535,34.535,0,0,1-3.023-3.278h0a34.535,34.535,0,0,0,3.023,3.278m10.224-5.014c-4.356-3.972-6.866-9.973-7.664-15.91-.678.2-1.3.387-1.851.57a56.984,56.984,0,0,1,9.515-2.213v17.553" fill="#78c4c9"/>
          <path id="Trazado_2815" data-name="Trazado 2815" d="M2017.355,6717.615c-.615-.554-1.306-1.222-2.069-2.034h0c.763.812,1.454,1.48,2.069,2.034" fill="#b6a69d"/>
          <path id="Trazado_2816" data-name="Trazado 2816" d="M2018.991,6701.856c-1.729-1.242-2.835-2.035-3.7-2.676h0c.87.641,1.976,1.434,3.7,2.676m0,0,.027-.008-.027.008" fill="#b6a69d"/>
          <path id="Trazado_2817" data-name="Trazado 2817" d="M2028.533,6728.47v-11.282c-4.356-3.972-6.866-9.973-7.664-15.91-.678.2-1.3.387-1.851.57l-.027.008h0c-1.729-1.242-2.835-2.035-3.7-2.676v2.357l1.668,1.791c.976,6.836,1.329,12.137,1.493,15.223h0c-.334-.27-.7-.579-1.092-.936-.615-.554-1.306-1.222-2.069-2.034v3.343a34.535,34.535,0,0,0,3.023,3.278h0c3.616,3.7,7.058,5.581,10.224,6.268" fill="#78c0c5"/>
          <path id="Trazado_2818" data-name="Trazado 2818" d="M2015.286,6681.931c1.008-.314,2.065-.587,3.157-.826a68.945,68.945,0,0,1,10.09-1.318v-2.272h-13.247v4.416" fill="#78c6cc"/>
          <path id="Trazado_2819" data-name="Trazado 2819" d="M2020.77,6743.737h7.763v-13.708c-.455.052-.914.1-1.383.125-.526.034-1.061.053-1.6.053h-.094a24.428,24.428,0,0,1-10.166-2.752v14.962q.342.285.7.557a15.359,15.359,0,0,0,4.561.763h.227" fill="#f4f6f7"/>
          <path id="Trazado_2820" data-name="Trazado 2820" d="M2055.137,6678.19v50.183a14.707,14.707,0,0,1-14.7,14.689H2020.77a14.709,14.709,0,0,1-14.7-14.689V6678.19Zm1.35,50.183V6676.84h-51.763v51.533a16.063,16.063,0,0,0,16.046,16.039h19.671a16.059,16.059,0,0,0,16.046-16.039Z" fill="#eaeef0"/>
          <path id="Trazado_2821" data-name="Trazado 2821" d="M1984.607,6827.566h0c-.45-4.558-.9-8.924-1.3-12.8h0c.4,3.881.847,8.245,1.3,12.8" fill="#79bccb"/>
          <path id="Trazado_2822" data-name="Trazado 2822" d="M1984.607,6827.566c-.45-4.558-.9-8.924-1.3-12.8l3.125-12.309c.241,4.427.5,8.852.959,13.262.414,3.981,1.047,7.915,1.725,11.844l-2.732,18.662" fill="#0e8bb5"/>
          <path id="Trazado_2823" data-name="Trazado 2823" d="M2008.064,6679.061l-11.414,4.382-.624-3.179,9.474-3.638,2.564,2.435Z" fill="#00758a"/>
          <path id="Trazado_2824" data-name="Trazado 2824" d="M2005.768,6671.966h52.079v7.1h-52.079a2.943,2.943,0,0,1-2.943-2.939V6674.9a2.943,2.943,0,0,1,2.943-2.939Z" fill="#00758a"/>
          <path id="Trazado_2825" data-name="Trazado 2825" d="M2059.435,6855.219l.334,3.037c-36.453,7.086-73.249-1.012-73.249-1.012l.678-4.387c17.887,8.1,72.237,2.362,72.237,2.362" fill="#12799e"/>
          <path id="Trazado_2826" data-name="Trazado 2826" d="M1959.033,6917.686c2.337,6.3,3.028,11.459,4.406,17.757a44.16,44.16,0,0,0,1.475,4.815c.375.878.589,2.162-1.475,1.961-3.764-.367-3.242-6.948-6.657-8.608-1.436-.7-3.081,10.167-3.081,10.167l-15.6-.128c-.963-7.124,3.237-23.729,5.988-30.956,1.672-4.39,11.441-4.432,14.94,4.992" fill="#00758a"/>
          <path id="Trazado_2827" data-name="Trazado 2827" d="M1949.617,6934.967c1.48.015,2.889,7.69,4.258,7.094a45.542,45.542,0,0,0,1.248,11.569c.4,1.545,1.579,3.61,1.556,5.194-.044,3.088-2.715,3.088-3.6,1.08a52.46,52.46,0,0,1-3.754-16.019c-.009-.16.308-8.735.29-8.918" fill="#00758a"/>
          <path id="Trazado_2828" data-name="Trazado 2828" d="M1974.531,6749.755c11.022,2.917,14.352,43.041,14.352,43.041l-30.657,120.731-17.013,1c-5.524-22.273,4.454-99.242,12.956-127.567s20.362-37.2,20.362-37.2" fill="#0f92bf"/>
          <path id="Trazado_2829" data-name="Trazado 2829" d="M1983.306,6814.762h0" fill="#6da9b6"/>
          <path id="Trazado_2830" data-name="Trazado 2830" d="M1984.879,7176.228c-.387,1.694-1.48,2.4-2.684-1.07a11.521,11.521,0,0,1-.276-6.518s3.353,5.894,2.96,7.588Z" fill="#79cdd1"/>
          <path id="Trazado_2831" data-name="Trazado 2831" d="M1980.729,7168.332c0,1.6-2.283,8.15-3.2,6.688s3.2-9.983,3.2-6.688Z" fill="#79cdd1"/>
          <path id="Trazado_2832" data-name="Trazado 2832" d="M2059.782,7169.348c.705,1.592.25,2.809-2.791.749a11.5,11.5,0,0,1-4.119-5.055s6.21,2.715,6.91,4.306Z" fill="#79cdd1"/>
          <path id="Trazado_2833" data-name="Trazado 2833" d="M2051.735,7165.5c.954,1.28,3.045,7.9,1.431,7.272s-3.406-9.916-1.431-7.272Z" fill="#79cdd1"/>
          <path id="Trazado_2834" data-name="Trazado 2834" d="M2038.083,7165.893s-.829,6.728-2.158,7.852-2.622,1.043-1.516-2.462a11.536,11.536,0,0,1,3.674-5.39Z" fill="#79cdd1"/>
          <path id="Trazado_2835" data-name="Trazado 2835" d="M1995.5,6871.623c.009-.1.017-.2.022-.3h0c-.005.1-.013.2-.022.3h0" fill="#0e8bb5"/>
          <path id="Trazado_2836" data-name="Trazado 2836" d="M2031.935,7161.715c14.935,1.45,22.769-.539,22.9-.57a1.4,1.4,0,1,1,.723,2.711c-.246.062-4.628,1.2-13.108,1.2-3.063,0-6.657-.147-10.781-.548a1.4,1.4,0,0,1,.268-2.792Z" fill="#0098a0"/>
          <path id="Trazado_2837" data-name="Trazado 2837" d="M1975.454,7162.38c14.945,1.663,22.805-.223,22.9-.25a1.4,1.4,0,0,1,.687,2.724,53.076,53.076,0,0,1-11.811,1.021,109.238,109.238,0,0,1-12.087-.709,1.4,1.4,0,1,1,.312-2.786Z" fill="#0098a0"/>
          <g id="Grupo_9796" data-name="Grupo 9796">
            <path id="Trazado_2838" data-name="Trazado 2838" d="M2031.145,6691.137c-.012-2.059-.765-3.723-1.678-3.714s-1.628,1.674-1.617,3.733.76,3.715,1.673,3.706,1.637-1.679,1.622-3.725Z" fill="#242638"/>
            <path id="Trazado_2839" data-name="Trazado 2839" d="M2046.494,6691c-.006-1.779-.617-3.218-1.351-3.213s-1.323,1.452-1.3,3.235.609,3.221,1.354,3.219,1.319-1.459,1.3-3.241Z" fill="#242638"/>
          </g>
        </g>
      </g>
    </g>
  </g>
</svg>
