<svg xmlns="http://www.w3.org/2000/svg" xmlns:xlink="http://www.w3.org/1999/xlink" width="260.64" height="260.63" viewBox="0 0 260.64 260.63">
  <defs>
    <clipPath id="clip-path">
      <path id="Trazado_2972" data-name="Trazado 2972" d="M2155.562,6445.748a130.32,130.32,0,1,0-130.32,130.32,130.316,130.316,0,0,0,130.32-130.32" fill="none"/>
    </clipPath>
  </defs>
  <g id="Grupo_10048" data-name="Grupo 10048" transform="translate(-209.021 -4354.438)">
    <g id="Grupo_9805" data-name="Grupo 9805" transform="translate(-1685.901 -1961)">
      <g id="Grupo_9804" data-name="Grupo 9804" clip-path="url(#clip-path)">
        <path id="Trazado_2905" data-name="Trazado 2905" d="M2155.562,6445.748a130.32,130.32,0,1,0-130.32,130.32,130.316,130.316,0,0,0,130.32-130.32" fill="#9bd7f5"/>
        <path id="Trazado_2906" data-name="Trazado 2906" d="M2155.562,6445.748a130.32,130.32,0,1,0-130.32,130.32,130.316,130.316,0,0,0,130.32-130.32" fill="none"/>
        <g id="Grupo_9803" data-name="Grupo 9803">
          <path id="Trazado_2907" data-name="Trazado 2907" d="M2067.8,6870.22c21.936,0,41.883-.637,56.7-1.685a17.95,17.95,0,0,1,7.972-2.644l11.05-4.392c-12.868-2.175-41.929-3.691-75.719-3.691-9.4,0-18.427.116-26.849.334a8.713,8.713,0,0,1,1.369,7.66h-17.139c-7.316,0-12.988.018-18.677.018-2.862,0-5.724,0-8.805-.018a3.582,3.582,0,0,1-3.3-3.5c-.009-.388-.013-.776-.013-1.159-5.984.86-9.372,1.837-9.372,2.871,0,3.429,37.068,6.206,82.79,6.206" fill="#507e8e"/>
          <path id="Trazado_2908" data-name="Trazado 2908" d="M2060.221,6670.109l-60.19-2.006,24.745-74.2,35.445,76.208" fill="#cfd6d9"/>
          <path id="Trazado_2909" data-name="Trazado 2909" d="M2017.932,6347.821l9.153-.429c12.511-.4,21.464,4.1,21.86,16.62l-10.7,37.463c-6.349.13,1.578,4.143-4.771,4.055-6.2-.086-11.324.078-15.172.242-3.522.15-5.97.3-7.174.259,0,0-15.925-9.594-15.306-27.646.847-24.515,9.6-30.168,22.11-30.564" fill="#ce9013"/>
          <path id="Trazado_2910" data-name="Trazado 2910" d="M2018.387,6839.943s9.7,13.25,12.287,13.576c15.168,1.89,11.642,12.283,11.642,12.283h-17.139c-10.995,0-18.28.044-27.482,0a3.582,3.582,0,0,1-3.3-3.5,66.114,66.114,0,0,1,3.3-21.392l20.692-.967" fill="#e5ebee"/>
          <path id="Trazado_2911" data-name="Trazado 2911" d="M1976.669,6601.686c.4-18.683,3.352-31.32,5.6-38.371,29.56.554,59.088,1,88.506-1.827l9.692,67.061s14.446,86.658,16.5,97.943,8.723,114.418,8.723,114.418l-22.637.972s-8.466-41.134-12.287-66.588c-1.94-12.929-2.782-43.983-4.526-48.807-3.887-10.745-32.511-88.394-36.715-99.8-3.576,35.135-9.644,95.432-9.644,100.493,0,7.182-1.012,112.76-1.012,112.76l-21.5,1.614c-8.569-59.312-12.448-100.04-11.351-111.3.3-3.063,1.026-27.7,1.026-27.7s-10.527-93.7-10.375-100.877" fill="#122b38"/>
          <path id="Trazado_2912" data-name="Trazado 2912" d="M2018.873,6839.871v-.018h0v.018" fill="#456d7a"/>
          <path id="Trazado_2913" data-name="Trazado 2913" d="M1997.369,6841.557c-7.624-52.767-11.534-90.825-11.534-106.51,0-1.944.063-3.544.183-4.788.3-3.063,1.026-27.7,1.026-27.7h0s-1.325-11.789-3.028-27.322l11.236,1.235c.04,8.3.035,16.6.272,24.892a707.5,707.5,0,0,0,9.162,96.932c2.479,14.829,6.639,29.244,14.187,41.553v.09h0l-.459.035-20.938,1.574-.107.005m33.158-261.188c-.031-.956-.067-1.905-.1-2.85l13.929.71a121.589,121.589,0,0,0-13.831,2.14" fill="#0e222d"/>
          <path id="Trazado_2914" data-name="Trazado 2914" d="M2083.057,6841.882l22.637-.972s-16.051-27.625-26.743-108.778c-1.529-11.606-3.058-22.9-6.817-34.041-.847-2.51-3.87-9.385-7.949-18.222l-11.329.731c.075-3.732-.518-13.812-1.494-27.678-7.852-16.091-15.819-31.663-19.769-37.828.178,6.332.343,12.564.49,18.527,3.054,8.284,8.026,21.775,13.264,35.993,1.1,2.988,2.212,6.01,3.322,9.024,4.57,12.408,9.073,24.651,12.435,33.8,2.479,6.754,4.338,11.824,5.14,14.044.812,2.247,1.432,10.2,2.056,19.359.713,10.486,1.435,22.546,2.47,29.448,3.821,25.454,12.287,66.588,12.287,66.588" fill="#0e222d"/>
          <path id="Trazado_2915" data-name="Trazado 2915" d="M1974.734,6424.266s44.7-18.9,91.421-.219l-2.011,28.464s4.74,16.1,5.7,21.156c2.791,14.691-2.581,20.31-2.581,20.31l6.746,85.764-95.069-4.849s8.083-39.111,6.746-68.325c-.549-11.935-10.95-82.3-10.95-82.3" fill="#235670"/>
          <path id="Trazado_2916" data-name="Trazado 2916" d="M2069.392,6506.169l-3.754-16.545-7.156-68.267s14.553,2.586,17.139,10.667c2,6.252,11.32,27.151,17.535,75.581,1.525,11.885.517,14.532-4.673,17.127s-29.149,5.227-62.075-1.632l8.569-7.205,34.415-9.726" fill="#eff3f4"/>
          <path id="Trazado_2917" data-name="Trazado 2917" d="M2069.932,6507.361c.1-.1.2-.2.289-.294.161-.247.321-.49.46-.748.062-.167.115-.326.147-.429.16-.536.29-1.081.4-1.63.075-.954.1-1.91.084-2.866l-2.488-2.077,1.111,8.044" fill="#e8ebec"/>
          <path id="Trazado_2918" data-name="Trazado 2918" d="M2088.243,6524.846h0m.022-.011h0m.027-.01,0,0,0,0m.049-.023,0,0,0,0m.022-.011,0,0,0,0m.022-.012.009,0-.009,0m.023-.01.009,0-.009,0m.026-.013.009,0-.009,0m.023-.011,0,0,0,0m-12.836-92.721-.014-.041.014.041m-.014-.052-.013-.036.013.036m-.018-.053c0-.007,0-.015-.009-.022s0,.015.009.022m-.022-.056v0" fill="#5bbec9"/>
          <path id="Trazado_2919" data-name="Trazado 2919" d="M2075.219,6527.165a29.4,29.4,0,0,0,3.179-.9,23.411,23.411,0,0,0,7.736-4.274c3.147-2.622,4.3-6.275,4.708-10.193.285-2.766-.268-5.495-.571-8.231a44.069,44.069,0,0,0-.2-5.92c-.7-7.086-2.368-14.006-3.335-21.049l.267,2a218.663,218.663,0,0,0-13.228-49.806,9.525,9.525,0,0,1,1.792,3.06v.01l.013.034c0,.007,0,.015.009.022a.023.023,0,0,0,0,.017l.013.036v.011l.014.041h0c2,6.252,11.32,27.151,17.535,75.581a66.1,66.1,0,0,1,.651,7.909c0,5.43-1.561,7.337-5.324,9.218h0l-.022.01,0,0-.014.007-.009,0-.017.009-.009,0-.014.006-.009,0s-.013.006-.018.01l0,0-.018.008,0,0a.4.4,0,0,0-.045.02l0,0a.134.134,0,0,0-.023.009h0a.138.138,0,0,1-.022.011h0c-2.074.936-6.568,1.857-13.024,2.319m11.855-48.042c-.026-.175-.049-.35-.071-.524.022.174.045.349.071.524" fill="#e8ebec"/>
          <path id="Trazado_2920" data-name="Trazado 2920" d="M2040.144,6469.637c5.248-33.336.986-53.573,2.551-53.21a166.9,166.9,0,0,1,24.553,7.748l-2.283,28.336s4.739,16.1,5.7,21.156c2.791,14.69-2.582,20.31-2.582,20.31l25.427,184.01-40.652,2.613c.392-18.44-15.7-192-12.712-210.963" fill="#eff3f4"/>
          <path id="Trazado_2921" data-name="Trazado 2921" d="M1985.684,6506.567c-.549-11.935-10.95-82.3-10.95-82.3s12.622-5.334,31.463-7.532c4.517-.528,18.668,52.145,18.628,70.621-.045,18.635,1.159,20.194,3.17,38.692,1.859,17.115,5.225,137.4,4.824,154.553l-64.033-7.031s3.883-47.585,8.783-92.4c3.513-32.118,8.672-62.407,8.115-74.6" fill="#eff3f4"/>
          <path id="Trazado_2922" data-name="Trazado 2922" d="M1968.786,6673.569h0m8.765-92.205c.058-.542.116-1.082.174-1.623,2.131-19.622,4.922-38.655,6.581-53.079l.027.023c-1.681,14.719-4.548,34.24-6.764,54.486,0,.066-.013.127-.018.193" fill="#77b8c7"/>
          <path id="Trazado_2923" data-name="Trazado 2923" d="M2073.347,6532.1l-.343-4.383-.259.012.6,4.371" fill="#57b6c1"/>
          <path id="Trazado_2924" data-name="Trazado 2924" d="M2028.41,6531.168c-.143-2.175-.281-3.908-.415-5.121-.076-.692-.147-1.361-.223-2.008,4.949.6,9.653,1.254,14.245,1.846q.147,2.3.308,4.656a131.217,131.217,0,0,0-13.693.584l-.222.043m-3.277-30.366c-.045-.746-.09-1.52-.125-2.332,4.284-.17,8.645-.656,12.27-.731l3.107-.061c0,.135.013.274.018.409l-15.27,2.715" fill="#215068"/>
          <path id="Trazado_2925" data-name="Trazado 2925" d="M2073.356,6532.2c-5.123-1.266-16.992-1.681-27.26-1.681-1.288,0-2.55.007-3.771.019q-.16-2.353-.308-4.656a193.059,193.059,0,0,0,25.025,1.98c1.882,0,3.777-.044,5.7-.139l.6,4.371.009.106m-18.824-30.635a13.207,13.207,0,0,0-2.327-4.153c2.844-.087,5.693-.2,8.538-.364,2.541-.146,4.636-2.072,6.518-3.074h0l.41,5.237a19.923,19.923,0,0,0-2.871.291c-2.943.519-6.438,1.253-10.268,2.063m-14.129-3.481c-.005-.135-.014-.274-.018-.409l2.59-.048-2.572.457" fill="#dee2e3"/>
          <path id="Trazado_2926" data-name="Trazado 2926" d="M1968.786,6673.569h0c.009-.12,3.914-47.307,8.765-92.205.005-.066.014-.127.018-.193,2.216-20.246,5.083-39.767,6.764-54.486,1.614,1.587,5.577,4.437,13.259,4.436a40.568,40.568,0,0,0,9.292-1.179c.031-.007.058-.013.084-.02,3.924-.931,10.362-3.394,17.273-6.3q1.785.2,3.531.416c.076.647.147,1.316.223,2.008.134,1.213.272,2.946.415,5.121-13.817,2.74-21.95,4.992-31.393,17.075-5.172,3.845-28.231,125.326-28.231,125.326m35.588-169.078-10.045-45.949c7.94,11.361,5.97,35.606,20.42,39.228a31.464,31.464,0,0,0,7.517.759c.905,0,1.823-.022,2.742-.059.035.812.08,1.586.125,2.332l-20.759,3.689" fill="#dee2e3"/>
          <path id="Trazado_2927" data-name="Trazado 2927" d="M1975.817,6424.047c13.5-2.075,15.056,18.684,15.056,18.684l13.5,61.76,46.658-8.293c5.711,5.189,4.2,13.333,4.2,13.333s-36.127,17.511-48.264,20.391c-18.034,4.28-23.531-4.273-23.531-4.273-19.729-34.254-18.521-74.095-19.043-86.551s11.423-15.051,11.423-15.051" fill="#eff3f4"/>
          <path id="Trazado_2928" data-name="Trazado 2928" d="M1983.441,6525.659l0-.01c-19.729-34.254-18.521-74.095-19.043-86.551v0c.522,12.456-.686,52.3,19.043,86.551l0,.01m-19.051-86.638v0m0-.071a.3.3,0,0,0-.005-.066.3.3,0,0,1,.005.066m-.005-.072v0m0-.074c0-.045,0-.09,0-.135,0,.045,0,.09,0,.135m0-.145v0m0-.067v0m0-.077v0m0-.074v0m-.005-.067v0m0-.081v0m.005-.083v0m0-.061v0m0-.09h0" fill="#7cc0cf"/>
          <path id="Trazado_2929" data-name="Trazado 2929" d="M1997.592,6531.121a40.568,40.568,0,0,0,9.292-1.179c.031-.007.058-.013.084-.02,7.21-1.711,22.891-8.586,34.429-13.886,7.883-3.62,13.835-6.505,13.835-6.505h0a13.406,13.406,0,0,0,.165-1.76,9.152,9.152,0,0,1-2.738,1.362c-10.334,3.165-20.308,7.537-30.87,9.947a65.972,65.972,0,0,1-14.459,1.9,28.558,28.558,0,0,1-14.892-3.677c-7-4.195-10.441-11.5-12.987-18.935-3.023-8.817-5.943-17.749-8.3-26.765a205.561,205.561,0,0,1-6.05-36.086q-.068-.816-.107-1.622a15.377,15.377,0,0,0-.611,4.166h0v.151c0,.017-.005.033-.005.05v.114a.026.026,0,0,0,.005.018v.2h0v.076c0,.045,0,.09,0,.135v.08a.3.3,0,0,1,.005.066v.071l0,.01v.067c.522,12.456-.686,52.3,19.043,86.551l0,.01c.178.265,3.781,5.462,14.151,5.462" fill="#e8ebec"/>
          <path id="Trazado_2930" data-name="Trazado 2930" d="M2034.313,6393.338l.9,28.357a12.669,12.669,0,0,1-12.257,13.071c-6.991.221-14.142-10.446-14.365-17.444l3.3-23.275,22.422-.709" fill="#f8bda1"/>
          <path id="Trazado_2931" data-name="Trazado 2931" d="M2028.561,6414.49c3.121,0,5.252-.923,6.238-3.294a13.31,13.31,0,0,1-5.957,1.316,20.313,20.313,0,0,1-4.566-.56,42.732,42.732,0,0,1-11.137-4.636l0,0s-.228-.127-.531-.31h0c-.085-.048-.169-.093-.25-.142h0v-.006h0c-.3-.18-.628-.388-.9-.577q-.634-.332-1.208-.685l-.1.733c4.526,4.367,7.977,6.7,14.223,7.752a25.673,25.673,0,0,0,4.191.406" fill="#dfaa91"/>
          <path id="Trazado_2932" data-name="Trazado 2932" d="M2028.637,6367.213c8.391-.265,15.993-1.19,15.993-1.19l.722,18.934c.37,11.746-5.484,26.669-15.957,25.642-21.414-2.1-26.181-8.4-26.551-20.146l-.811-25.689s19.506,2.673,26.6,2.449" fill="#f8bda1"/>
          <path id="Trazado_2933" data-name="Trazado 2933" d="M2034.856,6410.6l9.319,6.93c.571,19.287-10.2,23.988-10.2,23.988l-7.2-7.466c9.184-3.966,8.087-23.452,8.087-23.452" fill="#f7f8f9"/>
          <path id="Trazado_2934" data-name="Trazado 2934" d="M2026.9,6434.046l-6.715,7.907s-13.153-4.4-19.386-24.468l8.868-7.369s6.755,20.581,17.233,23.93Z" fill="#f7f8f9"/>
          <path id="Trazado_2935" data-name="Trazado 2935" d="M2105.371,6839.943s19.879,13.513,26.515,14.222c15.2,1.614,12.4,11.637,12.4,11.637s-52.349.044-61.552,0a3.574,3.574,0,0,1-3.3-3.5,66.212,66.212,0,0,1,3.3-21.392l22.635-.967Z" fill="#e5ebee"/>
          <path id="Trazado_2936" data-name="Trazado 2936" d="M2042.316,6865.8s-2.912,0-17.139,0c-10.995,0-18.28.044-27.482,0a3.582,3.582,0,0,1-3.3-3.5v-.339h48.183a9.112,9.112,0,0,1-.258,3.839Z" fill="#235670"/>
          <path id="Trazado_2937" data-name="Trazado 2937" d="M2144.288,6865.8s-52.349.044-61.552,0a3.574,3.574,0,0,1-3.3-3.5c0-.111,0-.227,0-.339h64.8a8.525,8.525,0,0,1,.05,3.839Z" fill="#235670"/>
          <path id="Trazado_2938" data-name="Trazado 2938" d="M2075.545,6504.925s-3.344-12.169-2.55-14.237,4.369-6.891-.674-21.7c-.628-1.854-4.119-8.681-6.331-12.944,1.449,5.036,4,14.065,4.673,17.625,1.591,8.375.53,13.8-.678,16.921.357,2.023.7,4.048.994,6.082a46.4,46.4,0,0,1,.33,4.724l4.236,3.531" fill="#e3e7e8"/>
          <path id="Trazado_2939" data-name="Trazado 2939" d="M2071.309,6501.394a46.4,46.4,0,0,0-.33-4.724c-.294-2.034-.637-4.059-.994-6.082a10.89,10.89,0,0,1-1.9,3.389l.74,5.34,2.488,2.077" fill="#dcdfe0"/>
          <path id="Trazado_2940" data-name="Trazado 2940" d="M2068.821,6499.317l-.74-5.34a10.89,10.89,0,0,0,1.9-3.389c1.208-3.118,2.269-8.546.678-16.921-.673-3.56-3.224-12.589-4.673-17.625-1.07-2.067-1.846-3.531-1.846-3.531s4.691,16.6,6.26,24.858-3.143,16.608-3.143,16.608h0l.339,4.324,1.221,1.016" fill="#e3e7e8"/>
          <path id="Trazado_2941" data-name="Trazado 2941" d="M2070.279,6495.756c5.136,4.991,5.266,9.169,5.266,9.169l-20.153,2.983a18.2,18.2,0,0,0-1.475-7.042,12.637,12.637,0,0,0-2.355-3.5l10.951-3.589a9.884,9.884,0,0,1,7.766,1.977Z" fill="#00758a"/>
          <path id="Trazado_2942" data-name="Trazado 2942" d="M1993.722,6481.559a21.947,21.947,0,0,1,4.477,1.853,28.207,28.207,0,0,1-3.273-2.943c-.767-.982,0-2.726,0-2.726s6.108,2.835,7.633,3.925,5.234,4.362,5.234,4.362,2.586,4.974,3.242,6.719,3.888,9.955,3.888,9.955l-10.549,1.787-1.864-5.7s-6.821-2.726-8.569-4.035,0-3.053,0-3.053l3.6.982,5.56,2.289-4.579-2.616s-7.744-3.49-8.181-4.035-.326-1.09-.326-2.071a2.584,2.584,0,0,1,.433-1.527,4.853,4.853,0,0,1-1.418-1.527,2.177,2.177,0,0,1,.548-2.071c.326-.327,2.725.218,4.142.436Z" fill="#00758a"/>
          <path id="Trazado_2943" data-name="Trazado 2943" d="M2012.528,6389.188l-7.775-8.421c.044-.619.142-1.8.151-2.079l8.547,8.611c4.156-1.89,19.319-7.833,31.919-.46,0,0,.173,14.052-5.056,19.858-4.013,4.456-10.215,10.181-27.175.619l0,0s-.228-.127-.531-.31c-.085-.048-.169-.093-.25-.142v-.007a10.427,10.427,0,0,1-1.226-.83c-2.033-1.735-7.463-9.026-7.463-9.026-.112-1.076-.138-1.138-.312-2.208l9.278,9.82a72.966,72.966,0,0,0-.1-15.429" fill="#fff"/>
          <path id="Trazado_2944" data-name="Trazado 2944" d="M2045.37,6387.008v0m0-.169-.009,0h0l.009,0" fill="#79bccb"/>
          <path id="Trazado_2945" data-name="Trazado 2945" d="M2024.276,6411.952a42.732,42.732,0,0,1-11.137-4.636l0,0s-.228-.127-.531-.31h0c.3.183.531.31.531.31l0,0a42.732,42.732,0,0,0,11.137,4.636m-11.922-5.085h0v0" fill="#d4a18a"/>
          <path id="Trazado_2946" data-name="Trazado 2946" d="M2012.756,6403.254v0m0-.037c.116-1.421.214-3.194.231-5.2h0c-.017,2.012-.115,3.784-.231,5.2m32.6-16.383c-.018-.009-.032-.018-.049-.027.017.009.031.018.049.027h0" fill="#ebb399"/>
          <path id="Trazado_2947" data-name="Trazado 2947" d="M2028.842,6412.512c5.854,0,9.06-3.137,11.472-5.816,4.891-5.431,5.056-18.08,5.056-19.688v-.169h0l-.009,0c-.018-.009-.032-.018-.049-.027-.553-.322-1.11-.617-1.672-.889a20.02,20.02,0,0,1-13.376,14.445,18.966,18.966,0,0,1-5.6.817,24.076,24.076,0,0,1-11.682-3.168c-.017,2.012-.115,3.784-.231,5.2v.037c-.04.5-.085.957-.125,1.363,0,0-.718,1.978-.277,2.244h0v.006c.081.05.165.095.25.143h0c.3.183.531.31.531.31l0,0a42.732,42.732,0,0,0,11.137,4.636,20.313,20.313,0,0,0,4.566.56" fill="#f2f2f2"/>
          <path id="Trazado_2948" data-name="Trazado 2948" d="M2041.709,6449.442l1.222.366a59.719,59.719,0,0,0-2.345,13.2c-.46,6.93.129,16.965,5.555,25.431a2.262,2.262,0,0,0,1.5.981c3.562.792,10.317-3.246,10.384-3.286l.687,1.031c-.295.178-7.277,4.35-11.356,3.443a3.507,3.507,0,0,1-2.305-1.533c-5.609-8.746-6.215-19.062-5.738-26.175a60.8,60.8,0,0,1,2.4-13.462Z" fill="#888887"/>
          <path id="Trazado_2949" data-name="Trazado 2949" d="M2057.88,6485.519l2.051-1.2a1.336,1.336,0,0,1,1.788.407,1.209,1.209,0,0,1-.424,1.709l-2.051,1.2a1.34,1.34,0,0,1-1.792-.406,1.211,1.211,0,0,1,.428-1.71Z" fill="#888887"/>
          <path id="Trazado_2950" data-name="Trazado 2950" d="M2056.659,6489.424a2.252,2.252,0,0,0,1.5-.981c5.43-8.466,6.019-18.5,5.555-25.431a59.618,59.618,0,0,0-2.341-13.2l1.222-.366a61.1,61.1,0,0,1,2.4,13.462c.477,7.113-.13,17.429-5.739,26.175a3.518,3.518,0,0,1-2.3,1.533c-4.079.907-11.061-3.265-11.355-3.443l.682-1.031c.067.04,6.826,4.078,10.384,3.286Z" fill="#888887"/>
          <path id="Trazado_2951" data-name="Trazado 2951" d="M2044.371,6484.318l2.051,1.2a1.209,1.209,0,0,1,.423,1.71,1.338,1.338,0,0,1-1.792.406l-2.046-1.2a1.209,1.209,0,0,1-.428-1.709,1.342,1.342,0,0,1,1.792-.407Z" fill="#888887"/>
          <path id="Trazado_2952" data-name="Trazado 2952" d="M2052.307,6442.094c6.6,0,11.967,4.259,11.967,11.4h-2.617c0-5.444-4.2-8.909-9.35-8.909s-9.354,3.465-9.354,8.909h-2.617c0-7.145,5.368-11.4,11.971-11.4Z" fill="#122b38"/>
          <path id="Trazado_2953" data-name="Trazado 2953" d="M2051.772,6428.05a47.391,47.391,0,0,1,1.792,14.582l-1.85-.113a46.2,46.2,0,0,0-1.73-13.984,25.527,25.527,0,0,0-9.893-14.045l-1.775-.915c-.044-.7-2.693-2.046-2.831-2.741,9.546,2.574,13.848,9.3,16.287,17.216Z" fill="#122b38"/>
          <path id="Trazado_2954" data-name="Trazado 2954" d="M2009.862,6408.5l-.156,1.9c-5.19,2.966-8.7,8.583-10.469,16.78a59.744,59.744,0,0,0-1,16.364l-2.216.209a60.378,60.378,0,0,1,1.03-16.958c2.3-10.732,5.658-14.069,12.814-18.3Z" fill="#122b38"/>
          <path id="Trazado_2955" data-name="Trazado 2955" d="M1997.129,6443.654a6.038,6.038,0,1,1-6.367,6.029,6.2,6.2,0,0,1,6.367-6.029" fill="#e6e7e8"/>
          <path id="Trazado_2956" data-name="Trazado 2956" d="M1997.129,6452.9a3.246,3.246,0,1,1,3.647-3.221,3.459,3.459,0,0,1-3.647,3.221m0-7.26a4.064,4.064,0,1,0,4.507,4.039,4.3,4.3,0,0,0-4.507-4.039" fill="#7f8285"/>
          <path id="Trazado_2957" data-name="Trazado 2957" d="M1997.129,6454.963a5.288,5.288,0,1,1,5.577-5.28,5.442,5.442,0,0,1-5.577,5.28m0-12.059a6.789,6.789,0,1,0,7.151,6.779,6.982,6.982,0,0,0-7.151-6.779" fill="#6c6e71"/>
          <path id="Trazado_2958" data-name="Trazado 2958" d="M1997.129,6454.963a5.442,5.442,0,0,1-5.582-5.28,4.987,4.987,0,0,1,.437-2.042c.263.333.535.645.807.936a3.635,3.635,0,0,0-.17,1.106,4.3,4.3,0,0,0,4.508,4.04,4.779,4.779,0,0,0,3.027-1.052c.522.1,1,.166,1.413.206a5.693,5.693,0,0,1-4.44,2.086m0-2.059a3.459,3.459,0,0,1-3.652-3.221,2.841,2.841,0,0,1,.027-.394,13.47,13.47,0,0,0,5.564,3.122,3.99,3.99,0,0,1-1.939.493" fill="#cfcfd0"/>
          <path id="Trazado_2959" data-name="Trazado 2959" d="M1997.129,6453.723a4.779,4.779,0,0,0,3.027-1.052c-.343-.069-.709-.154-1.088-.26a3.99,3.99,0,0,1-1.939.493,3.459,3.459,0,0,1-3.652-3.221,2.841,2.841,0,0,1,.027-.394c-.241-.224-.477-.46-.713-.712a3.635,3.635,0,0,0-.17,1.106,4.3,4.3,0,0,0,4.508,4.04" fill="#727577"/>
          <path id="Trazado_2960" data-name="Trazado 2960" d="M1997.129,6456.322a7.081,7.081,0,0,0,6.077-3.333c-.139-.041-.741-.022-1.637-.112a5.693,5.693,0,0,1-4.44,2.086,5.442,5.442,0,0,1-5.582-5.28,4.987,4.987,0,0,1,.437-2.042c-.317-.4-.629-.822-.928-1.28a6.346,6.346,0,0,0-.941,3.322,6.834,6.834,0,0,0,7.014,6.639" fill="#616365"/>
          <path id="Trazado_2961" data-name="Trazado 2961" d="M2002.746,6379.041c2.426-.684,4.338,3.124,4.338,3.124s4.891,9.716-.753,10.665-7.16-12.781-3.585-13.789" fill="#f8bda1"/>
          <path id="Trazado_2962" data-name="Trazado 2962" d="M2016.43,6339.576c9-.436,17.035,1.978,27.161,6.391,3.928,1.711,13.857,25.082,1.988,29.825,0,0,1.463-8.341-12.724-8.766-11.677-.35-16.3-.059-20.643,1.733s-9.368,21.694-7.009,32.377l1.77,1.7s-2.532,1.127-6.808-1.794c-11.267-7.7-11.811-24.975-11.347-38.391s18.61-22.636,27.612-23.072" fill="#009da6"/>
          <path id="Trazado_2963" data-name="Trazado 2963" d="M2045.579,6375.792c.014,0,.022-.009.036-.013-.014,0-.022.009-.036.013h0" fill="#73b2c0"/>
          <path id="Trazado_2964" data-name="Trazado 2964" d="M2045.579,6375.792h0m0,0a6.25,6.25,0,0,0-.718-3.669v-.01a6.236,6.236,0,0,1,.718,3.679" fill="#b98111"/>
          <path id="Trazado_2965" data-name="Trazado 2965" d="M2044.861,6372.123v-.01c-.954-1.8-3.067-3.766-7.65-4.64v0c4.587.876,6.7,2.844,7.65,4.646" fill="#dfaa91"/>
          <path id="Trazado_2966" data-name="Trazado 2966" d="M2045.624,6375.774l.022-.009-.022.009m.035-.014.023-.008-.023.008m.036-.014.018-.008-.018.008m.031-.014.023-.008-.023.008m.031-.013.023-.009-.023.009m.036-.014.022-.01-.022.01m.031-.015a.14.14,0,0,0,.023-.009l-.023.009m.036-.014a.12.12,0,0,1,.022-.01.12.12,0,0,0-.022.01m.031-.014.027-.012-.027.012m.032-.014.066-.03-.066.03m.066-.031a.164.164,0,0,0,.032-.014l-.032.014m.036-.016.027-.013-.027.013m.036-.016.026-.012-.026.012m.031-.015.027-.012-.027.012m.036-.015a.072.072,0,0,1,.022-.012.072.072,0,0,0-.022.012m.031-.016a.132.132,0,0,1,.027-.013l-.027.013m.031-.015.027-.014-.027.014m.031-.015c5.48-2.683,5.743-9.748,4.16-16.308,1.583,6.56,1.32,13.625-4.16,16.308m4.156-16.331v0m-.009-.045h0m-.009-.033v0" fill="#73b2c0"/>
          <path id="Trazado_2967" data-name="Trazado 2967" d="M2045.579,6375.792h0c.014,0,.022-.009.036-.013l.009,0,.022-.009.013-.005.023-.008.013-.006.018-.008.013-.006.023-.008.008,0,.023-.009.013,0,.022-.01.009,0a.14.14,0,0,0,.023-.009l.013-.005a.12.12,0,0,1,.022-.01l.009,0,.027-.012.005,0,.066-.03h0a.164.164,0,0,0,.032-.014l0,0,.027-.013.009,0,.026-.012.005,0,.027-.012.009,0a.072.072,0,0,1,.022-.012l.009,0a.132.132,0,0,1,.027-.013l0,0,.027-.014h0c5.48-2.683,5.743-9.748,4.16-16.308a.044.044,0,0,0,0-.023v-.012a.085.085,0,0,1-.009-.033h0c0-.01,0-.021-.009-.032v0c-1.293-5.294-3.777-10.24-5.667-12.263-.62,7.3-3.665,14.429-7.481,20.641,4.583.874,6.7,2.839,7.65,4.64a6.236,6.236,0,0,1,.718,3.679h0" fill="#008d95"/>
          <path id="Trazado_2968" data-name="Trazado 2968" d="M2005.2,6401.136l-.013-.051.013.051m-.013-.059-.014-.047.014.047m-.014-.059a.182.182,0,0,1-.009-.045.182.182,0,0,0,.009.045m-.013-.058c-.005-.016-.005-.031-.009-.046,0,.015,0,.03.009.046m-.014-.057a.2.2,0,0,0-.008-.047.2.2,0,0,1,.008.047m-.008-.05a.184.184,0,0,1-.009-.051c0,.017,0,.034.009.051m-.014-.06a.166.166,0,0,0-.009-.05.166.166,0,0,1,.009.05m-.009-.057a.22.22,0,0,1-.009-.051.22.22,0,0,0,.009.051m-.013-.059c-.027-.149-.058-.3-.085-.451h0c.027.152.058.3.085.451" fill="#b98111"/>
          <path id="Trazado_2969" data-name="Trazado 2969" d="M2005.02,6400.226h0c-.1-.561-.178-1.144-.241-1.745h0c.063.6.143,1.183.241,1.744m-.4-4.084h0c-.035-1.06-.031-2.155.014-3.274h0c-.049,1.118-.053,2.215-.018,3.275" fill="#dfaa91"/>
          <path id="Trazado_2970" data-name="Trazado 2970" d="M2004.779,6398.482c-.075-.754-.129-1.536-.156-2.34h0c.027.8.081,1.587.156,2.34h0" fill="#e5e5e5"/>
          <path id="Trazado_2971" data-name="Trazado 2971" d="M2005.6,6403.047a3.709,3.709,0,0,0,1.373-.213h0l-1.77-1.7h0l-.013-.051v-.008l-.014-.047v-.012a.182.182,0,0,1-.009-.045.019.019,0,0,1,0-.013c-.005-.016-.005-.031-.009-.046a.012.012,0,0,0-.005-.011.2.2,0,0,0-.008-.047v0a.184.184,0,0,1-.009-.051l-.005-.009a.166.166,0,0,0-.009-.05v-.007a.22.22,0,0,1-.009-.051.008.008,0,0,1,0-.008c-.027-.149-.058-.3-.085-.451-.1-.561-.178-1.144-.241-1.745-.075-.753-.129-1.536-.156-2.34-.035-1.06-.031-2.155.014-3.274a28.859,28.859,0,0,1-3.09.167,25.824,25.824,0,0,1-9.1-1.606,22.35,22.35,0,0,0,7.718,9.61,9.758,9.758,0,0,0,5.435,2.009" fill="#008d95"/>
        </g>
      </g>
    </g>
    <g id="Grupo_9808" data-name="Grupo 9808" transform="translate(-1685.901 -1961)">
      <path id="Trazado_2981" data-name="Trazado 2981" d="M2024.009,6376.529c-.069-2.058-.868-3.7-1.781-3.667s-1.581,1.719-1.512,3.777.863,3.692,1.775,3.658,1.59-1.724,1.518-3.768Z" fill="#242638"/>
      <path id="Trazado_2982" data-name="Trazado 2982" d="M2039.348,6375.965c-.055-1.778-.706-3.2-1.439-3.173s-1.283,1.488-1.216,3.269.7,3.2,1.444,3.181,1.278-1.5,1.211-3.277Z" fill="#242638"/>
    </g>
  </g>
</svg>
