<svg xmlns="http://www.w3.org/2000/svg" xmlns:xlink="http://www.w3.org/1999/xlink" width="260.64" height="260.63" viewBox="0 0 260.64 260.63">
  <defs>
    <clipPath id="clip-path">
      <path id="Trazado_2904" data-name="Trazado 2904" d="M2155.562,6137.352a130.32,130.32,0,1,0-130.32,130.32,130.316,130.316,0,0,0,130.32-130.32" fill="#9bd7f5"/>
    </clipPath>
  </defs>
  <g id="Grupo_10047" data-name="Grupo 10047" transform="translate(-209.021 -4046.042)">
    <g id="Grupo_9802" data-name="Grupo 9802" transform="translate(-1685.901 -1961)">
      <path id="Trazado_2841" data-name="Trazado 2841" d="M2155.562,6137.352a130.32,130.32,0,1,0-130.32,130.32,130.316,130.316,0,0,0,130.32-130.32" fill="#9bd7f5"/>
      <g id="Grupo_9801" data-name="Grupo 9801" clip-path="url(#clip-path)">
        <path id="Trazado_2842" data-name="Trazado 2842" d="M2155.562,6137.352a130.32,130.32,0,1,0-130.32,130.32,130.316,130.316,0,0,0,130.32-130.32" fill="#a4dbf5"/>
        <g id="Grupo_9800" data-name="Grupo 9800">
          <path id="Trazado_2843" data-name="Trazado 2843" d="M2035.283,6486.337c38.822,0,70.289-2.256,70.289-5.042s-31.467-5.042-70.289-5.042S1965,6478.51,1965,6481.295s31.467,5.042,70.285,5.042" fill="#507e8e"/>
          <path id="Trazado_2844" data-name="Trazado 2844" d="M2070.172,6263.795l12.325-2.574s3.2,9.948,4.928,17.828a7.7,7.7,0,0,1-.087,4.43s-2.6,9.367-4.323,12.138c-1.377,2.213-7.169,7.69-7.169,7.69s-2.612-.489-1.117-3.268c1.1-2.035,3.911-7.229,3.911-7.229l-.125-6.064a5.1,5.1,0,0,0-2.374-4.2c-.605-.384-1.162-.619-1.408-.417-.689.569-.882,3.025-.537,4.937s-.3,6.412-1.284,7.484-3.134,1.423-3.2-1.6-1.06-11.185-1.245-12.213a32.726,32.726,0,0,1,.39-8.4c.579-2.064,1.317-8.548,1.317-8.548" fill="#00758a"/>
          <path id="Trazado_2845" data-name="Trazado 2845" d="M2073.075,6118.542c4.088,3.871,4.955,9.992,4.955,25.514,0,11.4-.568,38.705,0,49.879.769,15.153,5.776,60.074,7.874,71.944.658,3.724-16.508,7.225-17.863,2.688-3.081-10.3-10.739-53.206-13.112-66.385-4.388-24.325-2.453-57.387-5.224-81.93-1.257-11.5,11.439-13.02,23.37-1.71" fill="#eff3f4"/>
          <path id="Trazado_2846" data-name="Trazado 2846" d="M2073.526,6270.714a26.265,26.265,0,0,0,6.632-.936c-.9-4.375-1.53-8.8-2.1-13.221-1.355-10.442-2.51-20.912-3.66-31.375q-1.033-9.378-2-18.763h-1.643c.136,7.351.227,14.8.265,22.2.08,14.372-.023,28.593-.223,41.845a13.182,13.182,0,0,0,2.733.253" fill="#e3e7e8"/>
          <path id="Trazado_2847" data-name="Trazado 2847" d="M2049.383,6271.64l19.335,70.108-95.616-2.521,29.124-66.019,47.157-1.569" fill="#cfd6d9"/>
          <path id="Trazado_2848" data-name="Trazado 2848" d="M1981.558,6246.166c.322.062,83.844.516,84.287.228l1.125,42.239-3.714,71.266-9.512,102.449H2035.5l-3.486-100.689-5.576-74.772-4.167-.181-8.377,72.425-16.091,103.217h-17.594l1.582-103.579-1.809-73.885,1.574-38.718" fill="#829ba9"/>
          <path id="Trazado_2849" data-name="Trazado 2849" d="M1980.211,6462.348l1.582-103.579-.454-18.517c3.554.192,7.245.406,10.864.609.287,15.253.4,29.155-.019,36.692-1.2,21.487-2.76,78.032-3.543,84.795h-8.43m35.646-195.139c.049-1.63.094-3.163.136-4.573q8.234.01,16.474.038v3.2c-5.735.4-11.4.822-16.61,1.34" fill="#788f9c"/>
          <path id="Trazado_2850" data-name="Trazado 2850" d="M2035.5,6462.348h7.987c-.556-11.323-.518-22.7-.45-34.085.136-24.558-1.325-49.094-3.066-73.591-.246-3.5-.878-8.07-1.738-13.177l-4.712-.011c.034-.79-.277-10.906-.572-26.626-3.3-15.083-6.511-27.971-6.511-27.971l5.576,74.772,3.486,100.689" fill="#788f9c"/>
          <path id="Trazado_2851" data-name="Trazado 2851" d="M1997.805,6462.348l11.677,7.7a11.551,11.551,0,0,1,9.263,5.69,4.167,4.167,0,0,1-3.778,6.23h-34.4a3.815,3.815,0,0,1-3.9-3.712c-.008-7.882,2.468-12.823,3.448-15.9Z" fill="#142f3d"/>
          <path id="Trazado_2852" data-name="Trazado 2852" d="M2053.475,6462.348l21.137,7.595a11.626,11.626,0,0,1,10.2,7.781,2.962,2.962,0,0,1-2.877,3.98H2035.1a1.671,1.671,0,0,1-1.7-1.5,41.664,41.664,0,0,1,2.1-17.853Z" fill="#142f3d"/>
          <path id="Trazado_2853" data-name="Trazado 2853" d="M1996.264,6106.121l25.744-8.942c.015-.082.019-.166.03-.249a.694.694,0,0,0-.007-.13l.268-.091.534.184.53-.184.269.091c0,.044-.015.083-.012.13.016.083.019.167.031.249l21.587,7.5c1.321,12.813,2.139,25.668,2.6,38.535.889,25.04.45,50.1-.106,75.142-.329,14.794-.7,29.59-.867,44.388q-25.914-.156-51.836-.117c.318-6.022.375-12.061.288-18.094-.174-11.794-.855-23.574-1.083-35.367-.223-11.512.542-22.987,1.427-34.463,1.764-22.841,3.907-45.791.606-68.579" fill="#122b38"/>
          <path id="Trazado_2854" data-name="Trazado 2854" d="M2022.008,6097.179l-12.98,4.508c2.71-.975,13.018-4.8,13.01-4.757-.011.083-.015.167-.03.249" fill="#eff3f4"/>
          <path id="Trazado_2855" data-name="Trazado 2855" d="M1983.7,6160.1l-17.673-29.463c1.037-2.57-.806-12.422,14.18-18.94l28.817-10.011c-.409.148-.647.231-.647.225s7.93,51.755,9.69,83.473l.557,13.08c-.716,15.461-1.954,38.815-2.347,54.286-.08,3.266-2.548,85.679-2.695,89-11.705-.014-38.417-2.18-50.121-2.18l10.409-93.454,9.83-86.013" fill="#eff3f4"/>
          <path id="Trazado_2856" data-name="Trazado 2856" d="M1976.289,6339.988h0m-.072,0c-4.925-.242-9.342-.413-12.616-.416,3.274,0,7.691.174,12.616.416m-2.343-93.87,3.948-34.541h0l-3.948,34.541" fill="#79bccb"/>
          <path id="Trazado_2857" data-name="Trazado 2857" d="M1978.329,6340.093q-1.033-.053-2.04-.1h-.011c-.019,0-.042,0-.061,0-4.925-.242-9.342-.413-12.616-.416h-.136l10.409-93.454,3.948-34.541c3.7-.66,7.949-1.557,12.378-2.57.541,15.666.341,31.354-.409,47.011-.844,17.662-2.154,35.419-4.542,52.961a237.192,237.192,0,0,1-6.92,31.118M1981.721,6186a137.3,137.3,0,0,0,6.053-23.215c1.483,4.873-8.2,19.295,16.954,22.131-7.514.487-15.94.964-23.007,1.084" fill="#e3e7e8"/>
          <path id="Trazado_2858" data-name="Trazado 2858" d="M2034.965,6172.727c1.586-24.069,6.268-60.749,6.511-69.358l20.781,8.42c5.288,1.266,8.456,60.3,8.759,116.827.314,57.815-2.3,113.132-2.3,113.132-14.494-.155-20.7-.235-35.2-.264.11-2.481-3.237-97.724,1.442-168.757" fill="#eff3f4"/>
          <path id="Trazado_2859" data-name="Trazado 2859" d="M2056.473,6167.936l52.305-.079c2.786,0,3.5.955,3.5,3.014l-6.549,32.39c0,2.061-1.768,3.1-3.952,3.1h-51.851c-2.18,0-3.951-.9-3.951-2.963l6.548-31.842a3.761,3.761,0,0,1,3.952-3.622" fill="#6a8391"/>
          <path id="Trazado_2860" data-name="Trazado 2860" d="M2057.919,6170.311l50.655-.073c2.619,0,3.285.9,3.285,2.831l-6.151,30.436c0,1.935-1.661,2.914-3.713,2.914h-50.227c-2.052,0-3.713-.849-3.713-2.785l6.151-29.919a3.534,3.534,0,0,1,3.713-3.4" fill="#7b99a9"/>
          <path id="Trazado_2861" data-name="Trazado 2861" d="M2049.924,6206.363c-2.18,0-3.951-.9-3.951-2.963h0c0,2.06,1.771,2.963,3.951,2.963h0m-3.951-2.963.787-3.828h0l-.787,3.828" fill="#e3e7e8"/>
          <path id="Trazado_2862" data-name="Trazado 2862" d="M2049.924,6206.363c-2.18,0-3.951-.9-3.951-2.963l.787-3.828q1.113-.209,2.218-.43l-.923,4.492c0,1.651,1.207,2.511,2.835,2.729h-.966m55.78-2.694c0-.054,0-.109,0-.164l.015-.082c0,.084-.011.165-.019.246" fill="#657c8a"/>
          <path id="Trazado_2863" data-name="Trazado 2863" d="M2050.893,6206.363h50.882c2.033,0,3.71-.9,3.929-2.694h0c0-.054,0-.109,0-.164l.015-.082h0c0-.053,0-.107,0-.162l4.679-23.135c-5.833,4.972-14.415,7.52-21.618,9.383-3.922,1.014-7.843,2.041-11.769,3.054-1.1.388-2.221.736-3.365,1.028-1.351.345-2.721.629-4.1.873-6.821,1.705-13.669,3.312-20.577,4.678l-.923,4.492c0,1.651,1.207,2.511,2.835,2.729h0" fill="#7591a0"/>
          <path id="Trazado_2864" data-name="Trazado 2864" d="M2030.389,6183.454a27.054,27.054,0,0,1,6.056-3.12l10.992-4.017,4.183.022-3.581,18.928-7.453,2.25c-3.1.539-6.579.582-9.187-.951l-5.613,1.115,1.2-11.89,3.4-2.337" fill="#00758a"/>
          <path id="Trazado_2865" data-name="Trazado 2865" d="M2053.271,6181.488a78.079,78.079,0,0,1-.67,8.336,33.522,33.522,0,0,1-1.075,4.867c-.262.83-.5,1.653-.7,2.48l-4.852,1.254-10.512-.651a31.057,31.057,0,0,1-3.047-.864l-6.889.9-1.825-12.494,19.6-5.093,9.978,1.27" fill="#00758a"/>
          <path id="Trazado_2866" data-name="Trazado 2866" d="M2054.255,6052.276l-3.063,24.656c-1.385,11.139-11.832,19.032-23.862,17.665s-21.005-23.025-20.876-30.668l1.9-16.869,45.9,5.216" fill="#bd8463"/>
          <path id="Trazado_2867" data-name="Trazado 2867" d="M2037.475,6079.229l.836,25.792c-1.113,3.954-3.346,9.562-11.871,9.173-7.04-.322-15.353-8-15.444-10.825l2.476-25.9,24,1.763" fill="#bd8463"/>
          <path id="Trazado_2868" data-name="Trazado 2868" d="M2038.167,6100.589l-.015-.457h0l.015.457h0m-25.35-16.274.038-.39h0l-.038.391" fill="#73b2c0"/>
          <path id="Trazado_2869" data-name="Trazado 2869" d="M2032.467,6102.185a25.891,25.891,0,0,1-13.582-4.615,20.616,20.616,0,0,1-6.571-7.984l.5-5.271.038-.391.522-1.583.633,3.688s3.482,14.527,19.274,14.527a29.521,29.521,0,0,0,4.774-.407l.094-.017.015.457a9.572,9.572,0,0,1-5.7,1.6m-16.905-16.965-.784-3.543a21.091,21.091,0,0,0,2.014,2.533,9.083,9.083,0,0,1-1.23,1.01h0" fill="#aa7759"/>
          <path id="Trazado_2870" data-name="Trazado 2870" d="M2034.034,6036.019l20.2,4.523c4.822,13.925.019,11.734.019,11.734l-27.538-3.13c-7.124-.81-7.317,5.682-7.317,5.682l-1.261,6.882-3.565-.4s-.935-2.954-2.79-3.164c-1.374-.156-2.733-.191-3.237,3.886-1.385,11.157,4.55,10.82,4.55,10.82l.674,8.293-1.132,3.437c-6.314-12.71-6.931-21.827-6.931-21.827l3.824-12.751c2.237-18.024,24.5-13.98,24.5-13.98" fill="#302929"/>
          <path id="Trazado_2871" data-name="Trazado 2871" d="M2072.731,6181.432c1.2.082,3.229,1.094,3.081,2.2-.129.953.049,1.646-.984,1.676l-25.445.423.435-6.108,22.913,1.808" fill="#00758a"/>
          <path id="Trazado_2872" data-name="Trazado 2872" d="M2038.167,6100.589l11.243,6-1.923,7.947,7.983,4.312-21.209,61.375s5.549-45.689,3.906-79.629" fill="#fafeff"/>
          <path id="Trazado_2873" data-name="Trazado 2873" d="M2001.541,6104.289l9.959-6.185c-1.643,33.941,6.507,84.574,6.507,84.574l-23.431-64.743,7.987-4.313-1.022-9.333Z" fill="#fafeff"/>
          <path id="Trazado_2874" data-name="Trazado 2874" d="M2015.562,6085.22c4.322-2.918,5.624-9.89,5.92-11.9l-7.9-13.946,1.256.6,8.188,12.322h0c18.544-5.592,28.727,2.331,28.727,2.331s-.307,23.328-13.7,25.524c-19.881,3.259-24.048-14.12-24.048-14.12l-2.336-13.568,1.124.27,2.764,12.489" fill="#fff"/>
          <path id="Trazado_2875" data-name="Trazado 2875" d="M2016.792,6084.21a11.485,11.485,0,0,0,1.544-1.9h0a11.533,11.533,0,0,1-1.544,1.9h0" fill="#b37d5e"/>
          <path id="Trazado_2876" data-name="Trazado 2876" d="M2015.562,6085.22a9.01,9.01,0,0,0,1.23-1.01h0a9.083,9.083,0,0,1-1.23,1.01" fill="#a17154"/>
          <path id="Trazado_2877" data-name="Trazado 2877" d="M2033.284,6100.556a29.521,29.521,0,0,0,4.774-.407c.352-.058.7-.131,1.029-.217,12.378-3.193,12.67-25.307,12.67-25.307a15.12,15.12,0,0,0-2.3-1.364c.655,6.884-4.891,12.1-11.1,14.392a21.411,21.411,0,0,1-7.3,1.278,15.932,15.932,0,0,1-8.532-2.219,12.451,12.451,0,0,1-4.194-4.4,11.485,11.485,0,0,1-1.544,1.9,9.01,9.01,0,0,1-1.23,1.01h0l-2.764-12.489-.128-.031c-.182,1.034-.334,2.011-.455,2.908l1.162,6.733.633,3.688s3.482,14.527,19.274,14.527" fill="#f2f2f2"/>
          <path id="Trazado_2878" data-name="Trazado 2878" d="M1966.739,6126.54c8.324,1.807,18.411,3.747,26.739,5.553-4.535,17.656-4.777,34.9-11.757,53.908,17.359-.294,42.925-2.745,43.043-2.2,1.79,8.6,3.414,14.537,3.153,15.07-.265.551-45.594,13.327-58.975,13.85-13.158.514-17.723-1.8-17.288-11.313a224.666,224.666,0,0,1,15.085-74.869" fill="#eff3f4"/>
          <path id="Trazado_2879" data-name="Trazado 2879" d="M1965.758,6212.789q1.5,0,3.184-.067a70.6,70.6,0,0,0,8.88-1.149h0a70.6,70.6,0,0,1-8.88,1.149q-1.686.066-3.184.067c-10.212,0-14.13-2.432-14.134-10.2,0,7.764,3.922,10.2,14.134,10.2" fill="#79bccb"/>
          <path id="Trazado_2880" data-name="Trazado 2880" d="M2018.472,6201.761c5.625-1.579,9.369-2.731,9.445-2.889l0,0,0,0c-.076.158-3.82,1.31-9.445,2.889h0" fill="#112935"/>
          <path id="Trazado_2881" data-name="Trazado 2881" d="M1990.2,6209c9.94-2.274,20.774-5.137,28.272-7.242h0c-7.5,2.1-18.332,4.967-28.272,7.242h0" fill="#e3e7e8"/>
          <path id="Trazado_2882" data-name="Trazado 2882" d="M1977.822,6211.574h0" fill="#73b2c1"/>
          <path id="Trazado_2883" data-name="Trazado 2883" d="M1977.822,6211.573c3.7-.66,7.949-1.557,12.378-2.57h0c-4.429,1.013-8.68,1.91-12.378,2.57h0" fill="#d7dbdc"/>
          <path id="Trazado_2884" data-name="Trazado 2884" d="M2027.92,6198.868v0m0,0,0,0,0,0m0,0v0m0,0h0m0,0h0m0,0h0m0,0h0m0,0h0" fill="#112935"/>
          <path id="Trazado_2885" data-name="Trazado 2885" d="M1967.367,6126.675h0c-.212-.045-.424-.09-.628-.135l.628.135" fill="#e3e7e8"/>
          <path id="Trazado_2886" data-name="Trazado 2886" d="M1965.758,6212.789q1.5,0,3.184-.067a70.6,70.6,0,0,0,8.88-1.149h0c3.7-.66,7.949-1.557,12.378-2.57,9.94-2.275,20.774-5.137,28.272-7.242,5.625-1.579,9.369-2.731,9.445-2.889l0,0v0h0l0,0h0v0h0l0,0h0v0h0v0h0v0h0a14.185,14.185,0,0,0-.545-3.262,44.1,44.1,0,0,1-10.3,3.068c-5.988,1.072-12.056,1.4-18.1,2-7.029,1.11-14.172,2.771-21.323,2.771-1.309,0-2.619-.056-3.929-.181-4.3-.41-8.615-1.48-11.711-4.572-2.858-2.857-3.948-6.405-4.312-10.252a36.969,36.969,0,0,1,.42-7.775q.563-4.689.981-9.388c.692-7.748,1.378-15.485,2.524-23.187a84.7,84.7,0,0,1,5.735-21.384l-.628-.135h0a224.666,224.666,0,0,0-15.085,74.869c-.019.408-.03.8-.03,1.184,0,7.764,3.922,10.2,14.134,10.2" fill="#e3e7e8"/>
          <path id="Trazado_2887" data-name="Trazado 2887" d="M2067.757,6183.984s1.787-.26,1.927.9c0,0-1.579,3.092-3.782,3.445-3.259.523-16.519,1.545-16.519,1.545l2.237-4.965,16.137-.924" fill="#00758a"/>
          <path id="Trazado_2888" data-name="Trazado 2888" d="M2062.007,6191.628c-.511.111-11.318,1.607-11.318,1.607v-5.062l14.539-.055s-.8,2.984-3.221,3.51" fill="#00758a"/>
          <path id="Trazado_2889" data-name="Trazado 2889" d="M2061.159,6190.7a17.567,17.567,0,0,1-.946,3.279c-.663,1.627-14.244,4.443-14.244,4.443l2.615-7.722h12.575" fill="#00758a"/>
          <path id="Trazado_2890" data-name="Trazado 2890" d="M2068.877,6186.145l.507-.746-16.856.409,16.349.336" fill="#006f83"/>
          <path id="Trazado_2891" data-name="Trazado 2891" d="M2064.857,6189.146l.152-.411c-.053.125-.114.263-.19.409l.038,0" fill="#7591a0"/>
          <path id="Trazado_2892" data-name="Trazado 2892" d="M2064.819,6189.144c.076-.146.137-.284.19-.409l.1-.274-14.418.342,14.13.341" fill="#006f83"/>
          <path id="Trazado_2893" data-name="Trazado 2893" d="M2060.921,6191.8h0" fill="#7591a0"/>
          <path id="Trazado_2894" data-name="Trazado 2894" d="M2050.326,6192.746l10.375-.158.219-.791h0l-10.595.95" fill="#006f83"/>
          <path id="Trazado_2895" data-name="Trazado 2895" d="M2049.932,6032.322c5.159,2.056,9.459,8.635,9.887,14.391s-6.019,11.924-6.019,11.924c-1.718-7.812-32.239-10.279-36.967,0s-5.155,22.614-5.155,22.614c-14.615-3.289-9.687-35.736-4.732-42.761,11.61-16.447,37.83-8.224,42.986-6.168" fill="#009da6"/>
          <path id="Trazado_2896" data-name="Trazado 2896" d="M2053.8,6058.615v0m-.012-.05v0m-.011-.049v0m-.008-.024h0m-.007-.024v0m-.008-.025h0m0-.024h0m-.016-.048h0" fill="#73b2c0"/>
          <path id="Trazado_2897" data-name="Trazado 2897" d="M2052.366,6056.357h0m-.023-.021,0,0,0,0m-.019-.018-.007,0,.007,0m-.026-.023,0,0,0,0m-.019-.017-.008-.007.008.007m-.027-.022-.007-.008.007.008m-.019-.018-.011-.009.011.009m-.019-.017-.022-.019.022.019m-.026-.022a.059.059,0,0,0-.015-.013.059.059,0,0,1,.015.013m-.015-.015-.03-.024.03.024m-.03-.026-.019-.013.019.013m-.019-.014c-1.889-1.593-5.141-2.81-8.937-3.541h0c3.8.731,7.048,1.948,8.937,3.541" fill="#aa7759"/>
          <path id="Trazado_2898" data-name="Trazado 2898" d="M2059.815,6046.671v0m0-.047v0m0-.051v0m0-.045v0m0-.055a.041.041,0,0,0,0-.022.041.041,0,0,1,0,.022m0-.044c0-.007,0-.013,0-.02s0,.013,0,.02m-.007-.057v0m0-.045v0m0-.057a.024.024,0,0,1,0-.016.024.024,0,0,0,0,.016m-.007-.047v0m0-.055,0-.011,0,.011m-.008-.049v0" fill="#73b2c0"/>
          <path id="Trazado_2899" data-name="Trazado 2899" d="M2053.8,6058.637s6.031-5.765,6.042-11.35c0-.192-.008-.383-.023-.574a.146.146,0,0,0,0-.042v-.016a.11.11,0,0,0,0-.031v-.019a.089.089,0,0,0,0-.032v-.02c0-.009,0-.017,0-.025v-.021a.1.1,0,0,1,0-.034.041.041,0,0,0,0-.022v-.022c0-.007,0-.013,0-.02a.119.119,0,0,0,0-.037v-.02c0-.008,0-.017,0-.025v-.018a.133.133,0,0,1,0-.039.024.024,0,0,1,0-.016c0-.01,0-.021,0-.031v-.013a.153.153,0,0,1,0-.042l0-.011c0-.013,0-.025,0-.038v-.007a17.723,17.723,0,0,0-1.839-5.823,25.169,25.169,0,0,1-8.055,8.076,25.581,25.581,0,0,1-5.784,2.642c-.28.543-.58,1.077-.9,1.6,3.8.731,7.048,1.948,8.937,3.541h0l.019.013v0l.03.024v0a.059.059,0,0,1,.015.013l0,0,.022.019.008.008.011.009.012.01.007.008a.07.07,0,0,1,.019.015l.008.007s.011.009.015.014l0,0a.112.112,0,0,1,.019.018l.007,0c0,.005.012.011.015.016l0,0,.023.02h0a4.65,4.65,0,0,1,1.366,2.013h0a.243.243,0,0,0,.016.047h0c0,.008,0,.016,0,.024h0a.048.048,0,0,1,.008.022v0c0,.008,0,.015.007.023h0c0,.007,0,.014.008.021v0l.011.046v0l.012.045v.005a.056.056,0,0,1,0,.022h0" fill="#008d95"/>
          <path id="Trazado_2900" data-name="Trazado 2900" d="M2011.678,6081.222c.011-.276.11-2.452.537-5.614v0c-.427,3.162-.526,5.341-.537,5.618" fill="#2b2525"/>
          <path id="Trazado_2901" data-name="Trazado 2901" d="M2012.67,6072.7c.253-1.455.571-3.025.969-4.653h0c-.4,1.627-.72,3.2-.973,4.652h0" fill="#aa7759"/>
          <path id="Trazado_2902" data-name="Trazado 2902" d="M2012.215,6075.608c.121-.9.273-1.874.455-2.908h0c-.182,1.034-.33,2.008-.451,2.9v0" fill="#d9d9d9"/>
          <path id="Trazado_2903" data-name="Trazado 2903" d="M2011.678,6081.251v-.029c.011-.277.11-2.456.537-5.618h0c.121-.9.269-1.871.451-2.9h0c.253-1.454.571-3.025.973-4.652a22.293,22.293,0,0,1-7.45-2.589,26.46,26.46,0,0,1-4.2-2.907c.193,8.919,2.714,17.13,9.691,18.7" fill="#008d95"/>
        </g>
      </g>
    </g>
    <g id="Grupo_9807" data-name="Grupo 9807" transform="translate(-1685.901 -1961)">
      <path id="Trazado_2979" data-name="Trazado 2979" d="M2032.7,6063.008c.115-2.056-.535-3.764-1.447-3.811s-1.728,1.572-1.842,3.628.532,3.754,1.443,3.8,1.737-1.576,1.846-3.618Z" fill="#242638"/>
      <path id="Trazado_2980" data-name="Trazado 2980" d="M2048.033,6063.809c.1-1.776-.419-3.25-1.152-3.289s-1.409,1.368-1.5,3.148.411,3.253,1.155,3.3,1.406-1.377,1.5-3.156Z" fill="#242638"/>
    </g>
  </g>
</svg>
