<svg xmlns="http://www.w3.org/2000/svg" xmlns:xlink="http://www.w3.org/1999/xlink" width="260.64" height="260.63" viewBox="0 0 260.64 260.63">
  <defs>
    <clipPath id="clip-path">
      <path id="Trazado_2732" data-name="Trazado 2732" d="M1894.922,7062.539a130.32,130.32,0,1,1,130.32,130.32,130.316,130.316,0,0,1-130.32-130.32" fill="none"/>
    </clipPath>
  </defs>
  <g id="Grupo_10050" data-name="Grupo 10050" transform="translate(-209.021 -4971.229)">
    <g id="Grupo_9795" data-name="Grupo 9795" transform="translate(-1685.901 -1961)">
      <g id="Grupo_9794" data-name="Grupo 9794" clip-path="url(#clip-path)">
        <path id="Trazado_2675" data-name="Trazado 2675" d="M1894.922,7062.539a130.32,130.32,0,1,1,130.32,130.32,130.316,130.316,0,0,1-130.32-130.32" fill="#9bd7f5"/>
        <g id="Grupo_9793" data-name="Grupo 9793">
          <path id="Trazado_2676" data-name="Trazado 2676" d="M2034.754,7526.05c-45.724,0-82.79-2.778-82.79-6.206,0-1.391,6.083-2.671,16.36-3.705.049.486.111.976.187,1.467h49.617a15.98,15.98,0,0,0-1.273-3.826c5.764-.093,11.754-.142,17.9-.142q3.194,0,6.331.017a31.186,31.186,0,0,0,.32,3.888h65.086a8.031,8.031,0,0,0-.127-.816c7.108.914,11.179,1.98,11.179,3.117,0,3.428-37.066,6.206-82.789,6.206" fill="#507e8e"/>
          <path id="Trazado_2677" data-name="Trazado 2677" d="M2004.992,7503.775l-11.877-6.389-19.726-3.553s-6.817,11.16-4.878,23.773h49.617a18.289,18.289,0,0,0-13.136-13.831" fill="#fff"/>
          <path id="Trazado_2678" data-name="Trazado 2678" d="M2092.238,7505l-27.942-11.1h-18.2s-6.529,11.1-4.69,23.648h65.086s-.92-11.1-14.253-12.546" fill="#fff"/>
          <path id="Trazado_2679" data-name="Trazado 2679" d="M2096.752,7505.964l-14.047-5.72a126.424,126.424,0,0,1-21.471,2.069,106.594,106.594,0,0,1-20.073-2.069,48.032,48.032,0,0,0-1.933,15.413,4.108,4.108,0,0,0,4.063,3.955h63.548a4.136,4.136,0,0,0,3.338-6.5c-2.169-3.134-6.15-6.385-13.425-7.152Z" fill="#58c0c6"/>
          <path id="Trazado_2680" data-name="Trazado 2680" d="M2011.641,7227.576c-10.123-1.12-20.241-2.523-30.412-3.146-.828-.051-1.655-.07-2.482-.091-.089,6.145-.158,14.369-.158,25.142,0,36.706.187,110.739.187,110.739l-7.9,137.095,22.242.071,20.859-119.1,16.056-98.426,10.994,98.426,3.067,118.32,26.015-1.034,4.107-128.459.707-137.989a17.493,17.493,0,0,1-3.38.342c-20.1.1-39.878.324-59.9-1.89" fill="#0098a0"/>
          <path id="Trazado_2681" data-name="Trazado 2681" d="M1979.057,7497.342l-7.417-.027h0l7.417.027h0" fill="#e5e5e5"/>
          <path id="Trazado_2682" data-name="Trazado 2682" d="M1979.056,7497.342l-7.416-.027h-.767l7.9-137.095h0v0h0v0h0c0-.356-.033-13.134-.071-30.576,4.1.5,8.551.816,13.214.976q-.367,7.431-.55,14.892c-.771,32.748-.4,65.428-5.141,97.922-2.615,17.923-5.305,35.887-7.172,53.917" fill="#008990"/>
          <path id="Trazado_2683" data-name="Trazado 2683" d="M2044.091,7496.606l-2.895-111.654-.172-6.666-2.987-26.737-2.522-22.578c4.709-.419,9.338-.892,13.781-1.387q2.246,7.524,4.107,15.168c5.314,21.766,6.437,43.016,6.59,65.344.155,22.654.23,45.695,2.552,68.246.654,6.354,1.83,12.85,3.057,19.408l-21.511.856" fill="#008990"/>
          <path id="Trazado_2684" data-name="Trazado 2684" d="M2068.062,7170.162s7.652-10.673,5.571-23.162c-2.8-16.814,12.405-48.407,5.891-65.042-7.656-19.554-10.119-19.188-16.321-22.176-53.7-25.88-96.626,3.927-99.718,7.437-4,4.544-5.273,12.2-4.872,15.527,4.861,40.3,9.962,56.524,14.515,74.357a93.138,93.138,0,0,0,7.812,20.9c.751-.556,1.19-.288,1.16-.021-.024.213-.347.426-1.048.222,0,0-.039-.069-.112-.2-2.073,1.53-6.522,9.316-10.067,40.622-4.892,43.21-5.859,108.173-5.859,108.173,33.973,11.236,126.2-5.087,126.2-5.087s-5.114-65.97-14.94-117.595c-1.944-10.214-6.828-25.617-8.209-33.955" fill="#0f92bf"/>
          <path id="Trazado_2685" data-name="Trazado 2685" d="M1980.94,7178c.073.132.112.2.112.2.7.2,1.024-.009,1.048-.222.03-.267-.409-.535-1.16.021" fill="#0f92bf"/>
          <path id="Trazado_2686" data-name="Trazado 2686" d="M2009.957,7503.784l-7.546-2.715a126.574,126.574,0,0,1-19.827,1.659c-9.728,0-13.924-1.659-13.924-1.659-1.446,4.316-3.623,8.935-3.216,15.578a4.117,4.117,0,0,0,4.115,3.852h50.372a4.118,4.118,0,0,0,3.611-6.108,21.957,21.957,0,0,0-13.585-10.607Z" fill="#58c0c6"/>
          <path id="Trazado_2687" data-name="Trazado 2687" d="M2068.861,7174.182c-.3-1.329-.55-2.568-.743-3.687h0c.194,1.12.444,2.355.741,3.687h0" fill="#42abb5"/>
          <path id="Trazado_2688" data-name="Trazado 2688" d="M1972.979,7328.775a60.067,60.067,0,0,1-7.965-1.976c0-.04.05-3.393.185-9.055.079-3.357.188-7.53.333-12.3.063-2.073.133-4.262.211-6.549q.078-2.274.164-4.677c.089-2.412.185-4.914.289-7.482q.094-2.307.2-4.677c.425-9.782.971-20.364,1.668-30.87.436-6.572.931-13.111,1.493-19.412.227-2.538.464-5.038.712-7.483q.055-.551.112-1.1.241-2.32.495-4.569l.011-.1q.088-.776.177-1.533c2.556-21.782,5.544-31.711,7.766-36.083a7.842,7.842,0,0,1,2.225-2.705h0l.081.022a1.789,1.789,0,0,0,.416.06h.018a.937.937,0,0,0,.159-.012,122.232,122.232,0,0,0,12.383.675q2.284,0,4.576-.108a123.354,123.354,0,0,0,12.85-1.38c3.391-.523,6.734-1.279,10.124-1.8,14.014-1.657,28.255-1.065,42.061-4.4.252-.06.5-.137.744-.221,1.221-.165,2.441-.343,3.654-.546.193,1.119.446,2.358.743,3.687-2.077.622-4.143,1.328-6.244,2.1a72.489,72.489,0,0,1-14.444,3.729c-8.286,1.009-17.661,1.629-26.042,4.069l-.53,0c-7.005,0-13.858,1.573-20.764,2.43-17.132,2.125-21.819,24.158-22.5,27.54a145.155,145.155,0,0,0-2.365,22.626c-.222,5.351-.192,10.712-.432,16.062-.52,11.578-1.189,23.142-1.562,34.73-.444,13.768-.722,27.54-1,41.313" fill="#0d83ac"/>
          <path id="Trazado_2689" data-name="Trazado 2689" d="M1981.562,7178.287h-.013a1.789,1.789,0,0,1-.416-.06l-.081-.022.674.07a.937.937,0,0,1-.159.012h-.005" fill="#0d83ac"/>
          <path id="Trazado_2690" data-name="Trazado 2690" d="M1987.332,7170.158c-1.228,0-2.455-.052-3.681-.165a30.942,30.942,0,0,1-4.189-1.027c-.355-.115-.7-.243-1.054-.369-.694-.335-1.38-.683-2.048-1.07a.13.13,0,0,1-.027-.021c-.6-1.649-1.217-3.471-1.821-5.455,3.088,3.272,5.615,4.86,6.6,4.86h1l.074,0h.114l.071,0h.034l.042,0h.08l.066,0,.038,0h.075l.093,0h.014l.05,0h.023l.168-.007h.017l.056,0h0c13.767-.62,29.268-7.4,42.108-14.637,11.681,1.516,30.553,3.614,47.178,3.871-2.279.753-6.721,1.614-16.578,1.614-5.347,0-12.29-.254-21.343-.915-.469-.035-.932-.051-1.392-.051-5.87,0-11.107,2.675-16.5,5.178-2.344,1.087-4.645,2.262-7,3.335-.517.236-1.066.431-1.568.7.112-.06.214-.113.31-.163a8.128,8.128,0,0,0,1.036-.523c-.019,0-.294.133-1.036.523l-.083.033c-1.239.468-2.493.859-3.769,1.208a115.071,115.071,0,0,1-12.083,2.847,48.773,48.773,0,0,1-5.082.277m86.837-41.54q-.328-.346-.675-.676l.06-.245.615.921" fill="#0d83ac"/>
          <path id="Trazado_2691" data-name="Trazado 2691" d="M2070.967,7125.884a34.95,34.95,0,0,0-7.361-3.837c-.474-1.7-1.744-5.237-3-8.777-1.735-4.906-3.436-9.811-2.933-9.811a.107.107,0,0,1,.033.006c.16.044,3.745,5.689,7.477,11.484-.008.063-.014.11-.017.137h0v.017h0v.013h0l7.06,10.586-1.258.18m-71.056-1.635c-2.751-3.473-4.947-11.776-6.615-20.777.044-.281.08-.559.11-.835,2.322,5.467,8.792,17.717,10.851,17.716l.052,0c4.153-.45,11.091-.7,18.841-.7,9.932,0,21.2.409,29.65,1.331l-4.873.759h0c-3.458-.346-7.218-.489-11.056-.489a281.582,281.582,0,0,0-36.96,3" fill="#0d83ac"/>
          <path id="Trazado_2692" data-name="Trazado 2692" d="M2048.773,7136.86c2.3-1.72,3.6-2.768,3.6-2.768h0a38.577,38.577,0,0,0,6.2.878l-9.8,1.89m24.721-8.918a22.216,22.216,0,0,0-2.527-2.058l1.258-.18,1.329,1.993-.06.245" fill="#0c769a"/>
          <path id="Trazado_2693" data-name="Trazado 2693" d="M2057.709,7120.218l-61.9,9.646s-6.434-53.245-10.76-57.735c-.122-.126-.246-.244-.369-.366q-3.181,1.764-6.457,3.353c-3.8,1.852-7.656,3.577-11.512,5.309-.149.156-.3.31-.448.468q-.729.786-1.416,1.607c-.43.62-.628.9-.684.965a21.257,21.257,0,0,0-1.778,3.2,7.756,7.756,0,0,1-4.494,3.667c.26,29.465,14.647,74.207,24.96,73.909,1.989-.058,29.964-13.815,52.128-22.24,4.921-1.871,13.346-6.893,17.4-7.913a35.946,35.946,0,0,0,11.818.7c3.207-.457,12.811-1.931,12.811-1.931-3.945-9.43-19.292-12.647-19.292-12.647" fill="#00758a"/>
          <path id="Trazado_2694" data-name="Trazado 2694" d="M2058.575,7134.97a38.577,38.577,0,0,1-6.2-.878,6.638,6.638,0,0,0,.057-2.331,5.507,5.507,0,0,1,.882-.256c.128-.009.262-.014.4-.014,2.56,0,6.74,1.58,9.824,2.523l-.439.085h0l-4.522.872" fill="#006f83"/>
          <path id="Trazado_2695" data-name="Trazado 2695" d="M2039.565,6988.024l-52.886,4.092,3.171,17.72c5.024,26.76,20.757,34.5,34.372,33.441s18.39-14.112,17.65-25.47l-2.307-29.783" fill="#e09a63"/>
          <path id="Trazado_2696" data-name="Trazado 2696" d="M2029.282,7023.3l-29.371,2.273,2.187,26.846a14.729,14.729,0,1,0,29.371-2.272l-2.187-26.847" fill="#e09a63"/>
          <path id="Trazado_2697" data-name="Trazado 2697" d="M2034.867,6969.036l-28.436,2.2s-23.584-1.342-21.877,20.693l1.493,19.281s4.8,15.617,15,26.378l-3.643-16.041s-6.531,2.769-9.675-11.152c-1.1-4.876.338-5.929,1.893-6.049,2.1-.162,4.184,3.494,4.184,3.494l1.664-.4.741-7.257s-.867-7.783,7.2-8.408l36.158-3.768s2.713-12.463-4.7-18.966" fill="#593b24"/>
          <path id="Trazado_2698" data-name="Trazado 2698" d="M2022.172,7047.452c-4.7,0-11.165-2.2-19.083-10.212,0,0,8.889,4.576,17.612,5.533a18.457,18.457,0,0,0,4.176.493,15.8,15.8,0,0,0,5.853-1.1l.257,2.061a12.788,12.788,0,0,1-8.815,3.223" fill="#c98a59"/>
          <path id="Trazado_2699" data-name="Trazado 2699" d="M2073.633,7068.819c-4.317,12.946-8.468,46.3-8.468,46.3l10.981,16.465-31.565,6.086-30.574,12.979s50.6,7.967,76.981,4.683c5.535-.689,15.342-4.626,11.9-22.183-6.663-33.97-29.253-64.329-29.253-64.329" fill="#0f92bf"/>
          <path id="Trazado_2700" data-name="Trazado 2700" d="M2065.165,7115.118v0m0-.005v0m0-.008h0m0-.011v0m0-.007h0" fill="#0c769a"/>
          <path id="Trazado_2701" data-name="Trazado 2701" d="M2069.487,7121.6l-4.322-6.48h0v-.013h0v-.017h0c.055-.442.694-5.511,1.7-12.3.709,3.913,1.418,7.837,1.985,11.771.288,2.332.52,4.686.634,7.044" fill="#0d83ac"/>
          <path id="Trazado_2702" data-name="Trazado 2702" d="M2075.725,7156.123q-2.181,0-4.423-.046a43.089,43.089,0,0,0,15.4-4.307c4.27-2.21,8.57-6.038,10.7-10.412,2.7-5.552,2.619-11.3,1.606-17.255-.166-.975-.376-1.941-.613-2.9-.033-1.21-.114-2.4-.24-3.569q-.156-1.425-.363-2.829a130.649,130.649,0,0,1,5.013,17.9h0l.057.284,0,.021.027.137a35.118,35.118,0,0,1,.716,6.79c-.015,10.306-5.976,13.888-10.643,15.031a17.463,17.463,0,0,1-1.971.362q-2.075.258-4.335.426c-3.4.255-7.084.367-10.928.366" fill="#0d83ac"/>
          <path id="Trazado_2703" data-name="Trazado 2703" d="M2048.773,7136.86h0l9.8-1.89h0l-9.8,1.89" fill="#0b6a8a"/>
          <path id="Trazado_2704" data-name="Trazado 2704" d="M2058.575,7134.971h0l4.523-.873h0l-4.522.872" fill="#006476"/>
          <path id="Trazado_2705" data-name="Trazado 2705" d="M2031.562,7153.014c-2.274-.271-4.4-.537-6.32-.787a225.754,225.754,0,0,0,23.531-15.367l9.8-1.89,4.522-.871a94.232,94.232,0,0,0-10.422,4.577,102.268,102.268,0,0,0-21.113,14.338" fill="#0d83ac"/>
          <path id="Trazado_2706" data-name="Trazado 2706" d="M2008.717,7012.486l-13.154-5.992-1.847,1.2,13.507,7.906,1.668,18.555c-2.509-1.4-9.074-6.063-11.49-12.609l-1.684.211a25.528,25.528,0,0,0,13.4,14.922c11.723,9.518,21.108,7.086,25.913,2.866,11-9.66,6.2-29.969,6.2-29.969-12.332-5.994-27.65.408-32.518,2.909" fill="#fff"/>
          <path id="Trazado_2707" data-name="Trazado 2707" d="M2030.816,7042.133h0a14.768,14.768,0,0,0,4.214-2.587,19.575,19.575,0,0,0,5.4-8.148,19.566,19.566,0,0,1-5.4,8.148,14.768,14.768,0,0,1-4.214,2.587" fill="#59bac5"/>
          <path id="Trazado_2708" data-name="Trazado 2708" d="M1999.963,7026.22a19.248,19.248,0,0,1-2.562-4.673,19.248,19.248,0,0,0,2.562,4.673h0" fill="#d5925e"/>
          <path id="Trazado_2709" data-name="Trazado 2709" d="M2008.723,7034.061a30.615,30.615,0,0,1-8.76-7.841h0a30.615,30.615,0,0,0,8.76,7.841" fill="#d5925e"/>
          <path id="Trazado_2710" data-name="Trazado 2710" d="M2040.428,7031.4l.026-.073-.026.073m.028-.078.012-.034-.012.034m.014-.038.011-.031-.011.031m.014-.04.01-.029-.01.029m.014-.04.009-.025-.009.025m.014-.039.009-.024-.009.024m.014-.039.007-.021-.007.021m.013-.038.008-.022-.008.022m.014-.038.006-.02-.006.02m.013-.04.007-.019-.007.019m.014-.039.005-.015-.005.015m.013-.039.005-.015-.005.015m.014-.041,0-.009,0,.009m.014-.041v0m.026-.078h0" fill="#59bac5"/>
          <path id="Trazado_2711" data-name="Trazado 2711" d="M2024.877,7043.266c-4.454,0-9.806-1.751-15.76-6.586a26.53,26.53,0,0,1-10.247-8.666,21.939,21.939,0,0,1-3.153-6.255h0l1.684-.211h0a19.248,19.248,0,0,0,2.562,4.673,30.615,30.615,0,0,0,8.76,7.841l.168.095h0l-1.668-18.555-12.444-7.284c.134-.544.279-1.078.439-1.6l.345-.224,13.154,5.992c.195-.1.41-.208.639-.32a17.79,17.79,0,0,0,1.254,5.339c2.281,5.6,6.107,10.009,11.929,12.07a14.544,14.544,0,0,0,4.865.843c6.21,0,11.918-4.014,14.855-9.515a34.232,34.232,0,0,1-1.611,9.866h0l-.025.074v0l-.011.032,0,.009-.009.026-.005.015-.008.024-.005.015-.007.02-.007.019-.007.02-.006.02-.006.016-.008.022-.006.017-.007.021-.005.015-.009.024-.005.014-.009.025,0,.011-.01.029,0,.009-.011.031,0,0-.012.034,0,.005-.026.073h0a19.575,19.575,0,0,1-5.4,8.148,14.768,14.768,0,0,1-4.214,2.587,15.767,15.767,0,0,1-5.939,1.133" fill="#f2f2f2"/>
          <path id="Trazado_2712" data-name="Trazado 2712" d="M2023.446,6963.174c-6.665-1.762-29.73,2.383-38.98,9.975-6.534,5.361-5.776,20.156-5.815,24.24-.246,24.963,15.062,31.4,15.065,31.243,0,0-2.285-23.85,6.2-29.219,19.9-12.6,40.152-7.2,40.137-5.153,0,.247.02.246.02.246a25.585,25.585,0,0,0,1.877-15.113c-1.9-10.357-12.9-14.74-18.5-16.219" fill="#009da6"/>
          <path id="Trazado_2713" data-name="Trazado 2713" d="M1993.715,7028.633h0m0,0h0m0,0v0m0-.019c-.007-.076-.036-.4-.073-.911h0c.037.516.066.835.073.911" fill="#42abb5"/>
          <path id="Trazado_2714" data-name="Trazado 2714" d="M1993.439,7021.023h0a57.522,57.522,0,0,1,1.339-12.706h0a57.57,57.57,0,0,0-1.34,12.706" fill="#c98a59"/>
          <path id="Trazado_2715" data-name="Trazado 2715" d="M1993.642,7027.7h0c-.09-1.265-.226-3.714-.2-6.68h0c-.023,2.965.113,5.414.2,6.679" fill="#503520"/>
          <path id="Trazado_2716" data-name="Trazado 2716" d="M1995.68,7005.352v-.01a13.471,13.471,0,0,1,2.9-4.86l0,0a13.489,13.489,0,0,0-2.907,4.868" fill="#c98a59"/>
          <path id="Trazado_2717" data-name="Trazado 2717" d="M1995.215,7006.721c.144-.472.3-.933.466-1.379v.01q-.248.664-.462,1.366l0,0" fill="#503520"/>
          <path id="Trazado_2718" data-name="Trazado 2718" d="M1994.779,7008.317h0c.132-.543.278-1.076.437-1.595l0,0c-.16.521-.305,1.055-.439,1.6" fill="#d9d9d9"/>
          <path id="Trazado_2719" data-name="Trazado 2719" d="M1978.641,6994.52c0-5.919.389-16.911,5.825-21.371-5.436,4.461-5.825,15.452-5.825,21.371m5.825-21.371.039-.033-.039.033m.051-.042.035-.029-.035.029m.052-.042.021-.018-.021.018m.055-.045.014-.011-.014.011" fill="#42abb5"/>
          <path id="Trazado_2720" data-name="Trazado 2720" d="M1993.71,7028.634c-.337,0-14.212-6.093-15.025-28.573q-.038-1.025-.037-2.1c0-.192,0-.381,0-.575,0-.12,0-.249,0-.386,0-.1,0-.206,0-.317,0-.6-.011-1.333-.011-2.166,0-5.919.389-16.91,5.825-21.371h0l.039-.033.012-.009.035-.029.017-.013.021-.018.034-.027.014-.011a27.074,27.074,0,0,1,4.039-2.623,20.914,20.914,0,0,0-1.772,8.752c.165,6.6,2.71,12,6.911,16.915a30.165,30.165,0,0,0,4.769,4.429,13.471,13.471,0,0,0-2.9,4.86c-.167.446-.322.907-.466,1.379h0c-.159.519-.3,1.052-.437,1.595h0a57.522,57.522,0,0,0-1.339,12.706c-.023,2.966.113,5.415.2,6.68.037.516.066.835.073.911h0v.018h-.006" fill="#008d95"/>
          <path id="Trazado_2721" data-name="Trazado 2721" d="M1999.911,7124.249c-7.3-9.221-10.692-52.486-10.692-52.486h-28.545c-16.35,65.906,16.2,95.148,20.443,95.148,30.66,0,71.255-32.819,71.255-32.819,1.043-4.564-4.445-12.35-4.445-12.35-19.336-1.935-48.016,2.507-48.016,2.507" fill="#0f92bf"/>
          <path id="Trazado_2722" data-name="Trazado 2722" d="M1981.117,7166.911c-.99,0-3.517-1.588-6.6-4.86-7.532-7.982-18.4-25.979-18.4-55.357a145.1,145.1,0,0,1,4.561-34.931h1.866q-.2.6-.392,1.2a51.748,51.748,0,0,0-2.108,12.494c-.229,1.973-.361,3.953-.428,5.905a90.89,90.89,0,0,0,1.49,18.294,85.73,85.73,0,0,0,4.244,15.9,64.064,64.064,0,0,0,7.52,15,38.447,38.447,0,0,0,11.39,11.06,40.82,40.82,0,0,0,9.58,4.132,26.469,26.469,0,0,0,10.638,2.469c.263,0,.527-.006.789-.016a23.952,23.952,0,0,0,3.1-.326q.927.026,1.856.026,2.181,0,4.36-.145c-10.254,4.852-21.317,8.643-31.443,9.1h0l-.056,0h-.017l-.168.007h-.023l-.05,0h-.014l-.093,0h-.075l-.038,0-.066,0h-.08l-.042,0h-.034l-.071,0h-.114l-.074,0h-1" fill="#0d83ac"/>
          <path id="Trazado_2723" data-name="Trazado 2723" d="M2030.987,7044.229s-2.686,11.212-13.543,10.916-15.918-9.749-15.918-9.749l-1.615,5.805s.392,15.337,18.085,15.684,14.758-16.568,14.758-16.568l-1.767-6.088Z" fill="#fff"/>
          <path id="Trazado_2724" data-name="Trazado 2724" d="M2010.5,7176.752c-14.841,1.317-30.58-1.366-30.58-1.366l-.487,3.828a89.693,89.693,0,0,0,31.067,2.248c10.737-1.184,58.154-7.712,58.154-7.712l-.588-3.589s-42.725,5.275-57.566,6.591Z" fill="#12799e"/>
          <path id="Trazado_2725" data-name="Trazado 2725" d="M2002.145,7499.856c-21.076,4.606-32.912.107-33.029.058a1.242,1.242,0,0,0-.915,2.31c.333.134,5.745,2.216,15.726,2.216a87.765,87.765,0,0,0,18.749-2.158,1.242,1.242,0,0,0-.531-2.426Z" fill="#0098a0"/>
          <path id="Trazado_2726" data-name="Trazado 2726" d="M2083.929,7498.862c-27.058,4.632-42.262.089-42.413.04a1.4,1.4,0,0,0-.832,2.68c.421.129,7.256,2.193,19.887,2.193a141.472,141.472,0,0,0,23.831-2.149,1.4,1.4,0,1,0-.473-2.764Z" fill="#0098a0"/>
          <path id="Trazado_2727" data-name="Trazado 2727" d="M1972.967,7513.736c.421,1.689,1.525,2.372,2.668-1.119a11.5,11.5,0,0,0,.159-6.519s-3.247,5.948-2.827,7.638Z" fill="#79cdd1"/>
          <path id="Trazado_2728" data-name="Trazado 2728" d="M1981.495,7506.852s.761,6.732,2.076,7.873,2.612,1.07,1.541-2.443a11.512,11.512,0,0,0-3.617-5.43Z" fill="#79cdd1"/>
          <path id="Trazado_2729" data-name="Trazado 2729" d="M2044.876,7512.438c.507,1.668,1.644,2.3,2.606-1.248a11.509,11.509,0,0,0-.175-6.523s-2.938,6.108-2.431,7.771Z" fill="#79cdd1"/>
          <path id="Trazado_2730" data-name="Trazado 2730" d="M2080.231,7504.622s3,6.077,4.623,6.706,2.819.12.621-2.822a11.517,11.517,0,0,0-5.244-3.884Z" fill="#79cdd1"/>
          <path id="Trazado_2731" data-name="Trazado 2731" d="M2078.143,7514.244c.746,1.569,1.964,2.024,2.394-1.623a11.507,11.507,0,0,0-1.133-6.425s-2.007,6.474-1.261,8.048Z" fill="#79cdd1"/>
        </g>
      </g>
    </g>
    <g id="Grupo_9809" data-name="Grupo 9809" transform="translate(-1685.901 -1961)">
      <path id="Trazado_2983" data-name="Trazado 2983" d="M2017.887,7001.828c-.12-2.056-.96-3.678-1.871-3.621s-1.538,1.757-1.418,3.813.955,3.67,1.866,3.612,1.546-1.762,1.423-3.8Z" fill="#242638"/>
      <path id="Trazado_2984" data-name="Trazado 2984" d="M2033.208,7000.882c-.1-1.776-.786-3.181-1.518-3.137s-1.245,1.52-1.134,3.3.778,3.185,1.523,3.144,1.24-1.527,1.129-3.306Z" fill="#242638"/>
    </g>
  </g>
</svg>
