<?xml version="1.0" encoding="utf-8"?>
<!-- Generator: Adobe Illustrator 22.0.1, SVG Export Plug-In . SVG Version: 6.00 Build 0)  -->
<svg version="1.1" id="Capa_1" xmlns="http://www.w3.org/2000/svg" xmlns:xlink="http://www.w3.org/1999/xlink" x="0px" y="0px"
	 viewBox="0 0 551.4 456.3" style="enable-background:new 0 0 551.4 456.3;" xml:space="preserve">
<style type="text/css">
	.st0{clip-path:url(#SVGID_2_);}
	.st1{fill:#9BD7F5;}
	.st2{fill:#FCA19F;}
	.st3{fill:#242638;}
	.st4{fill:#F97070;}
	.st5{clip-path:url(#SVGID_4_);}
	.st6{fill:none;stroke:#242638;stroke-width:1.351;stroke-linecap:round;stroke-linejoin:round;}
	.st7{fill:#FC9E9C;}
	.st8{fill:none;stroke:#FFFFFF;stroke-width:2.04;stroke-linecap:round;stroke-linejoin:round;}
	.st9{fill:#FBDBD0;}
	.st10{fill:#EAB5A7;}
	.st11{fill:#222330;}
	.st12{fill:#EBC8B2;}
	.st13{fill:#82A64E;}
	.st14{fill:#BBE07C;}
	.st15{fill:#E5CC87;}
	.st16{fill:none;stroke:#E5CC87;stroke-width:3;stroke-linecap:round;stroke-linejoin:round;}
	.st17{fill:#00223D;}
</style>
<g id="Grupo_10095" transform="translate(2025.4 -3392.548)">
	<g id="Grupo_10094" transform="translate(711 904)">
		<g id="Grupo_9889" transform="translate(-9601.2 -589)">
			<g id="Grupo_9885">
				<g>
					<defs>
						<path id="SVGID_1_" d="M6934.3,3339.4c0-107.4,87-194.4,194.4-194.4s194.4,87,194.4,194.4s-87,194.4-194.4,194.4
							S6934.3,3446.8,6934.3,3339.4"/>
					</defs>
					<clipPath id="SVGID_2_">
						<use xlink:href="#SVGID_1_"  style="overflow:visible;"/>
					</clipPath>
					<g id="Grupo_9884" class="st0">
						<path id="Trazado_3620" class="st1" d="M6894.8,3344.4c0-130,105.4-235.3,235.3-235.3s235.3,105.4,235.3,235.3
							s-105.4,235.3-235.3,235.3S6894.8,3474.4,6894.8,3344.4"/>
						<path id="Trazado_3621" class="st2" d="M7056.9,3377.1l-13.1,59.4l4.1,110.3l-27.9,4l-17.6-106.9c-0.8-3.6-0.8-7.3,0.1-10.8
							l17.8-69L7056.9,3377.1L7056.9,3377.1z"/>
						<path id="Trazado_3622" class="st3" d="M7143.1,3292.2c0,0,56.8,9.6,65.2,12.7c9.9,3.6,0.4,67.4-2.5,78.7
							c-2.4,9.2-5.6,51.1-5.6,51.1l2.6,93.5c0,0-43.4,28.2-141.7,4.5c-1.2-0.3,8.4-66.4,7.9-69.1c-0.7-3.6-5.7-44.1-18.5-80.1
							c-5.2-14.8-24.5-59.9-3.2-70.1c20.9-10.1,67.7-21.6,67.7-21.6L7143.1,3292.2"/>
						<path id="Trazado_3623" class="st2" d="M7093.2,3297.6c0,0,6.2-3.8,8.7-7.5c4.9-7.2,5-36.8,5-36.8l39.4,1.3
							c0,0,3.1,38.5,5.5,39.1c8,1.9,2.1,11.4-15.2,15C7119.4,3312.2,7093.2,3297.6,7093.2,3297.6"/>
						<path id="Trazado_3624" class="st4" d="M7106.9,3251.2c0,0,0.1,4.3-0.1,6.3c15.8,37.5,36.5,26.8,42.1,23.5
							c-0.9-7.5-2.6-26.1-2.6-26.1L7106.9,3251.2z"/>
						<path id="Trazado_3625" class="st3" d="M7044.9,3315.1c-24.7,9.8-41.4,85.1-41.4,85.1s21.2,14.9,51.6,17.1l4.2-21.6
							L7044.9,3315.1L7044.9,3315.1z"/>
						<path id="Trazado_3626" class="st2" d="M7230.8,3350.2l25,73.7l44.1,80.8l-22.9,18.7c0,0-54.5-75.3-57.9-83.7
							s-20.4-61.6-20.4-61.6L7230.8,3350.2L7230.8,3350.2z"/>
						<path id="Trazado_3627" class="st3" d="M7208.3,3304.9c14.8,6.1,43.7,80.3,43.7,80.3s-13.3,24.6-45,27.1l-14.4-32.7
							L7208.3,3304.9z"/>
					</g>
				</g>
			</g>
			<g id="Grupo_9886">
				<path id="Trazado_3629" class="st2" d="M7155.6,3182.2c-5.9-4.9-13-8.2-20.5-9.6c-12.5-2.5-24.7,0.1-33.6,9.7
					c-7.3,7.9-9.3,17.9-9.3,26.9c0.1,7.8,1.6,15.5,4.3,22.9c1.8,4.7,3.5,9.4,5.3,14.1c5.7,16.8,19.4,27.8,35.2,27.6
					c9.4-0.1,15.5-4.8,18.8-9.9c9.5-13.7,12.4-39,11.3-56.2C7166.5,3197.8,7163.3,3188.9,7155.6,3182.2L7155.6,3182.2z"/>
			</g>
			<g id="Grupo_9888">
				<g>
					<defs>
						<path id="SVGID_3_" d="M6934.3,3339.4c0-107.4,87-194.4,194.4-194.4s194.4,87,194.4,194.4s-87,194.4-194.4,194.4
							S6934.3,3446.8,6934.3,3339.4"/>
					</defs>
					<clipPath id="SVGID_4_">
						<use xlink:href="#SVGID_3_"  style="overflow:visible;"/>
					</clipPath>
					<g id="Grupo_9887" class="st5">
						<path id="Trazado_3630" class="st3" d="M7100.1,3230.6c0,0,10-11.2,11.4-34c0,0,10.1-3.1,16.8-2.2s14.3,6.8,27.6,6.6
							c7.6,0,14.8-3.7,19.3-9.9c-1.4,0-2.8,0-4.2-0.1c3.3-3.8,6.3-7.9,8.9-12.2c0,0-3.3,0.5-15.9-1.7c2.4-1.9,4.4-4.2,6-6.8
							c-7.7,1.1-15.5,0.9-23.2-0.6c-12.9-2.4-29.7-5.4-37.9-0.1s-8.6,6.5-8.6,6.5s3-9.4,6.7-11.2c0,0-8.9,3.6-9.7,12.4
							c-2.6,0.3-5.1,0.8-7.7,1.4c-2.6,0.7,6.2,0.7,6.2,0.7s-16,23.5,1.2,57.3L7100.1,3230.6L7100.1,3230.6z"/>
						<path id="Trazado_3631" class="st6" d="M7142.1,3224c-0.7,5.2,0.3,10.4,2.7,15c0.3,0.5,0.5,1.1,0.6,1.6c0,1.1-0.7,2.2-1.7,2.7
							c-1,0.5-2.1,0.8-3.2,0.9c-0.6,0.1-1.5,0-1.8,0.6c-0.6,0.7-0.6,1.7,0,2.4"/>
						<path id="Trazado_3632" class="st7" d="M7166.1,3224.5c0,0,5.2-4.2,7.7-1.2s0.7,13.8-8.9,13.7
							C7164.9,3237.1,7163.6,3231.8,7166.1,3224.5L7166.1,3224.5z"/>
						<path id="Trazado_3633" class="st3" d="M7100.1,3176.1c0,0,6.2-10.1,16.2-13.7s29.5,0.1,37.1-2.5c0,0-5.7,7-17.7,9.9
							c-7.3,1.8-14.5,4.2-21.4,7.3L7100.1,3176.1z"/>
						<path id="Trazado_3634" class="st3" d="M7162.6,3198.9c0,0,3.8,16.4,4.5,25c0,0,3-23.6-0.1-30.1S7162.6,3198.9,7162.6,3198.9
							L7162.6,3198.9z"/>
						<path id="Trazado_3635" class="st3" d="M7114.1,3217.6c-0.8,2.1,3.3,1.2,5.7,0.3s8.2,0.3,10.3-0.1s2.4-4.8-1.2-5.3
							S7116.1,3212,7114.1,3217.6z"/>
						<path id="Trazado_3636" class="st3" d="M7162.8,3216.8c0.9,2.1-3.2,1.4-5.7,0.7s-8.1,0.9-10.2,0.7s-2.8-4.7,0.8-5.3
							S7160.4,3211.3,7162.8,3216.8L7162.8,3216.8z"/>
						<path id="Trazado_3637" class="st3" d="M7126.4,3225.4c-0.2-3-1.5-5.4-2.8-5.3s-2.3,2.6-2.1,5.7s1.5,5.4,2.8,5.3
							S7126.6,3228.5,7126.4,3225.4z"/>
						<path id="Trazado_3638" class="st3" d="M7155.4,3225.4c-0.2-3-1.4-5.4-2.6-5.3s-2.1,2.6-1.9,5.6s1.4,5.4,2.6,5.3
							S7155.6,3228.5,7155.4,3225.4z"/>
						<path id="Trazado_3639" class="st2" d="M7104.1,3231.1c0,0,0.3-11.4-11.4-7.2c-4.7,1.7-4.8,14.6,8.2,16.5
							C7100.8,3240.4,7105.4,3239.4,7104.1,3231.1L7104.1,3231.1z"/>
						<path id="Trazado_3640" class="st6" d="M7141.3,3258.3c0,0-2.7,2.3-7.8,0.9"/>
						<path id="Trazado_3641" class="st3" d="M7128.9,3257.8c3-3.7,7.3-6,12-6.5c4.9-0.5,7,4,7,4S7136.8,3254.2,7128.9,3257.8
							L7128.9,3257.8z"/>
						<path id="Trazado_3642" class="st8" d="M7168.1,3247.5c0,0,4.6-4.6,9.6-4.8s6.8,3.9,13.5,1.3s7.2-7,13.1-6.6 M7207.6,3253.4
							c0,0-3.9-3.1-12.2,0.2s-11.4,6.1-17.7,3.1s-15.3,1.7-15.3,1.7"/>
						<path id="Trazado_3643" class="st9" d="M7138,3352.8v-46.1h-6.4v45.6c0,6.6-3.4,12.7-9,16.2l-7,4.4l3.4,5.5l7.1-4.4
							c5.3-3.3,12.1-3.2,17.3,0.3l6,4l3.6-5.3l-6.4-4.3C7141.2,3365.1,7138,3359.2,7138,3352.8"/>
						<path id="Trazado_3644" class="st4" d="M7119.7,3389.4c0.5,5,1.8,10,1.8,15.1s-2.3,10.7-7.1,12.4c-3.7,1.3-7.6,0.8-11.2,2.6
							c-3.9,2.1-7.3,5.1-9.8,8.7c-2.7,3.6-6.2,10-11.6,9.1c-4.5-0.8-6.2-5.9-6.8-9.8c-3-18.4-0.1-37.2,8.2-53.8
							c4-8.1,9.6-15.5,16.3-21.6c5.1-4.5,14.1-11.8,21-6.6c1,0.8,1.9,1.8,2.6,2.9c4,6.1,0.1,13.7-1.6,19.9c-1.6,6-2.3,12.2-2,18.4
							C7119.6,3387.7,7119.6,3388.6,7119.7,3389.4L7119.7,3389.4z"/>
						<path id="Trazado_3645" class="st4" d="M7149.9,3389.4c-0.5,5-1.8,10-1.8,15.1s2.3,10.7,7.1,12.4c3.7,1.3,7.6,0.8,11.2,2.6
							c3.9,2.1,7.3,5.1,9.8,8.7c2.7,3.6,6.2,10,11.6,9.1c4.5-0.8,6.2-5.9,6.8-9.8c3-18.4,0.1-37.2-8.2-53.8
							c-4-8.1-9.6-15.5-16.3-21.6c-5.1-4.5-14.1-11.8-21-6.6c-1,0.8-1.9,1.8-2.6,2.9c-4,6.1-0.1,13.7,1.6,19.9
							c1.6,6,2.3,12.2,2,18.4C7150.1,3387.7,7150,3388.6,7149.9,3389.4L7149.9,3389.4z"/>
						<path id="Trazado_3646" class="st10" d="M7127.7,3374.5h13.2c0.6,0,1.2-0.3,1.6-0.9l3-5.4c0.3-0.5,0.3-1.2-0.1-1.7l-6.2-9.1
							c-0.3-0.5-0.9-0.8-1.5-0.8h-6.2c-0.6,0-1.1,0.3-1.5,0.7l-6.3,8.9c-0.3,0.5-0.4,1-0.2,1.6l2.5,5.6
							C7126.4,3374.1,7127,3374.5,7127.7,3374.5L7127.7,3374.5z"/>
						<path id="Trazado_3647" class="st11" d="M7131.5,3319.2L7131.5,3319.2l0-1h0V3319.2"/>
						<path id="Trazado_3648" class="st12" d="M7138,3319.2h-6.4v-1h6.4V3319.2"/>
						<path id="Trazado_3649" class="st11" d="M7131.5,3316.3L7131.5,3316.3l0-1h0V3316.3"/>
						<path id="Trazado_3650" class="st12" d="M7138,3316.3h-6.4v-1h6.4V3316.3"/>
						<path id="Trazado_3651" class="st11" d="M7131.5,3322.3L7131.5,3322.3l0-1h0V3322.3"/>
						<path id="Trazado_3652" class="st12" d="M7138,3322.3h-6.4v-1h6.4V3322.3"/>
						<path id="Trazado_3653" class="st11" d="M7131.5,3313.4L7131.5,3313.4l0-1h0V3313.4"/>
						<path id="Trazado_3654" class="st12" d="M7138,3313.4h-6.4v-1h6.4V3313.4"/>
						<path id="Trazado_3655" class="st11" d="M7131.5,3310.6L7131.5,3310.6l0-1h0V3310.6"/>
						<path id="Trazado_3656" class="st12" d="M7138,3310.6h-6.4v-1h6.4V3310.6"/>
						<path id="Trazado_3657" class="st11" d="M7131.5,3336.6L7131.5,3336.6l0-1h0V3336.6"/>
						<path id="Trazado_3658" class="st12" d="M7138,3336.6h-6.4v-1h6.4V3336.6"/>
						<path id="Trazado_3659" class="st11" d="M7131.5,3333.8L7131.5,3333.8l0-1h0V3333.8"/>
						<path id="Trazado_3660" class="st12" d="M7138,3333.8h-6.4v-1h6.4V3333.8"/>
						<path id="Trazado_3661" class="st11" d="M7131.5,3325.1L7131.5,3325.1l0-1h0V3325.1"/>
						<path id="Trazado_3662" class="st12" d="M7138,3325.1h-6.4v-1h6.4V3325.1"/>
						<path id="Trazado_3663" class="st11" d="M7131.5,3328.1L7131.5,3328.1l0-1h0V3328.1"/>
						<path id="Trazado_3664" class="st12" d="M7138,3328.1h-6.4v-1h6.4V3328.1"/>
						<path id="Trazado_3665" class="st11" d="M7131.5,3331L7131.5,3331l0-1h0V3331"/>
						<path id="Trazado_3666" class="st12" d="M7138,3331h-6.4v-1h6.4V3331"/>
					</g>
				</g>
			</g>
			<path id="Trazado_3668" class="st13" d="M7180.5,3396c0-4.4-3.6-8-8-8s-8,3.6-8,8s3.6,8,8,8
				C7177,3404.1,7180.5,3400.5,7180.5,3396z"/>
			<path id="Trazado_3669" class="st13" d="M7173.9,3388.4c0,0-2-0.9-2-5.1h-0.3c0,0,0.3,4.7-1.6,5.3L7173.9,3388.4L7173.9,3388.4z"
				/>
			<path id="Trazado_3670" class="st14" d="M7172.7,3382.3c0-0.6-0.4-1-1-1s-1,0.4-1,1s0.4,1,1,1S7172.7,3382.9,7172.7,3382.3z"/>
			<path id="Trazado_3671" class="st13" d="M7176.9,3389.4c0,0-1.6-1.5-0.2-5.5l-0.3-0.1c0,0-1.2,4.5-3.2,4.5L7176.9,3389.4z"/>
			<path id="Trazado_3672" class="st14" d="M7177.7,3383.2c0.2-0.5-0.1-1.1-0.6-1.3c-0.5-0.2-1.1,0.1-1.3,0.6
				c-0.2,0.5,0.1,1.1,0.6,1.3c0,0,0,0,0,0C7177,3384,7177.5,3383.7,7177.7,3383.2z"/>
			<path id="Trazado_3673" class="st13" d="M7179.1,3391.9c0,0-0.8-2,2.3-5l-0.2-0.2c0,0-3.1,3.5-4.9,2.6L7179.1,3391.9z"/>
			<path id="Trazado_3674" class="st14" d="M7182.6,3386.8c0.4-0.4,0.4-1,0-1.4c-0.4-0.4-1-0.4-1.4,0s-0.4,1,0,1.4c0,0,0,0,0,0
				C7181.6,3387.2,7182.2,3387.2,7182.6,3386.8z"/>
			<path id="Trazado_3675" class="st13" d="M7180.4,3394.8c0,0,0-2.2,4-3.8l-0.1-0.3c0,0-4.2,2.1-5.5,0.6L7180.4,3394.8
				L7180.4,3394.8z"/>
			<path id="Trazado_3676" class="st14" d="M7185.5,3391.3c0.5-0.2,0.8-0.8,0.5-1.3c-0.2-0.5-0.8-0.8-1.3-0.5
				c-0.5,0.2-0.8,0.8-0.5,1.3c0,0,0,0,0,0C7184.4,3391.3,7185,3391.5,7185.5,3391.3z"/>
			<path id="Trazado_3677" class="st13" d="M7180.2,3397.8c0,0,0.8-2,5.1-2.1l0-0.3c0,0-4.7,0.4-5.4-1.5L7180.2,3397.8
				L7180.2,3397.8z"/>
			<path id="Trazado_3678" class="st14" d="M7186.2,3396.5c0.6,0,1-0.5,1-1c0-0.6-0.5-1-1-1c-0.6,0-1,0.5-1,1c0,0,0,0,0,0
				C7185.2,3396,7185.6,3396.5,7186.2,3396.5z"/>
			<path id="Trazado_3679" class="st13" d="M7178.9,3400.8c0,0,1.6-1.5,5.5,0.2l0.1-0.3c0,0-4.4-1.5-4.3-3.5L7178.9,3400.8
				L7178.9,3400.8z"/>
			<path id="Trazado_3680" class="st14" d="M7185,3402c0.5,0.2,1.1,0,1.3-0.5c0.2-0.5,0-1.1-0.5-1.3s-1.1,0-1.3,0.5c0,0,0,0,0,0
				C7184.2,3401.2,7184.4,3401.8,7185,3402z"/>
			<path id="Trazado_3681" class="st13" d="M7176.4,3402.9c0,0,2.1-0.7,4.9,2.6l0.3-0.2c0,0-3.3-3.3-2.3-5.1L7176.4,3402.9
				L7176.4,3402.9z"/>
			<path id="Trazado_3682" class="st14" d="M7181.4,3406.6c0.4,0.4,1,0.5,1.4,0.1s0.5-1,0.1-1.4c-0.4-0.4-1-0.5-1.4-0.1c0,0,0,0,0,0
				C7181,3405.6,7181,3406.2,7181.4,3406.6z"/>
			<path id="Trazado_3683" class="st13" d="M7173.8,3403.6c0,0,2.2,0,3.8,4l0.3-0.1c0,0-2.1-4.2-0.6-5.5L7173.8,3403.6
				L7173.8,3403.6z"/>
			<path id="Trazado_3684" class="st14" d="M7177.3,3408.7c0.2,0.5,0.8,0.8,1.3,0.5c0.5-0.2,0.8-0.8,0.5-1.3
				c-0.2-0.5-0.8-0.8-1.3-0.5c0,0,0,0,0,0C7177.3,3407.6,7177.1,3408.2,7177.3,3408.7z"/>
			<path id="Trazado_3685" class="st13" d="M7168,3389.4c0,0,1.6-1.5,0.2-5.5l0.3-0.1c0,0,1.2,4.5,3.2,4.5L7168,3389.4z"/>
			<path id="Trazado_3686" class="st14" d="M7167.2,3383.2c-0.2-0.5,0.1-1.1,0.6-1.3c0.5-0.2,1.1,0.1,1.3,0.6s-0.1,1.1-0.6,1.3
				c0,0,0,0,0,0C7167.9,3384,7167.4,3383.7,7167.2,3383.2z"/>
			<path id="Trazado_3687" class="st13" d="M7165.7,3391.9c0,0,0.8-2-2.3-5l0.2-0.2c0,0,3.1,3.5,4.9,2.6L7165.7,3391.9z"/>
			<path id="Trazado_3688" class="st14" d="M7162.3,3386.8c-0.4-0.4-0.4-1,0-1.4c0.4-0.4,1-0.4,1.4,0s0.4,1,0,1.4c0,0,0,0,0,0
				C7163.3,3387.2,7162.7,3387.2,7162.3,3386.8z"/>
			<path id="Trazado_3689" class="st13" d="M7164.5,3394.8c0,0,0-2.2-4-3.8l0.1-0.3c0,0,4.2,2.1,5.5,0.6L7164.5,3394.8
				L7164.5,3394.8z"/>
			<path id="Trazado_3690" class="st14" d="M7159.4,3391.3c-0.5-0.2-0.8-0.8-0.5-1.3c0.2-0.5,0.8-0.8,1.3-0.5
				c0.5,0.2,0.8,0.8,0.5,1.3c0,0,0,0,0,0C7160.5,3391.3,7159.9,3391.5,7159.4,3391.3z"/>
			<path id="Trazado_3691" class="st13" d="M7164.7,3397.8c0,0-0.8-2-5.1-2.1l0-0.3c0,0,4.7,0.4,5.4-1.5L7164.7,3397.8
				L7164.7,3397.8z"/>
			<path id="Trazado_3692" class="st14" d="M7158.7,3396.5c-0.6,0-1-0.5-1-1c0-0.6,0.5-1,1-1c0.6,0,1,0.5,1,1c0,0,0,0,0,0
				C7159.7,3396,7159.3,3396.5,7158.7,3396.5z"/>
			<path id="Trazado_3693" class="st13" d="M7166,3400.8c0,0-1.6-1.5-5.5,0.2l-0.1-0.3c0,0,4.4-1.5,4.3-3.5L7166,3400.8L7166,3400.8
				z"/>
			<path id="Trazado_3694" class="st14" d="M7159.9,3402c-0.5,0.2-1.1,0-1.3-0.5c-0.2-0.5,0-1.1,0.5-1.3s1.1,0,1.3,0.5c0,0,0,0,0,0
				C7160.7,3401.2,7160.4,3401.8,7159.9,3402z"/>
			<path id="Trazado_3695" class="st13" d="M7168.5,3402.9c0,0-2.1-0.7-4.9,2.6l-0.3-0.2c0,0,3.3-3.3,2.3-5.1L7168.5,3402.9
				L7168.5,3402.9z"/>
			<path id="Trazado_3696" class="st14" d="M7163.5,3406.6c-0.4,0.4-1,0.5-1.4,0.1s-0.5-1-0.1-1.4c0.4-0.4,1-0.5,1.4-0.1
				c0,0,0,0,0,0C7163.8,3405.6,7163.9,3406.2,7163.5,3406.6z"/>
			<path id="Trazado_3697" class="st13" d="M7171.1,3403.6c0,0-2.2,0-3.8,4l-0.3-0.1c0,0,2.1-4.2,0.6-5.5L7171.1,3403.6
				L7171.1,3403.6z"/>
			<path id="Trazado_3698" class="st14" d="M7167.6,3408.7c-0.2,0.5-0.8,0.8-1.3,0.5c-0.5-0.2-0.8-0.8-0.5-1.3
				c0.2-0.5,0.8-0.8,1.3-0.5c0,0,0,0,0,0C7167.6,3407.6,7167.8,3408.2,7167.6,3408.7z"/>
			<path id="Trazado_3699" class="st13" d="M7170.9,3403.4c0,0,1.9,1,1.7,5.3l0.3,0c0,0-0.1-4.7,1.9-5.2L7170.9,3403.4
				L7170.9,3403.4z"/>
			<path id="Trazado_3700" class="st14" d="M7171.8,3409.5c0,0.6,0.4,1,0.9,1.1c0.6,0,1-0.4,1.1-0.9s-0.4-1-0.9-1.1c0,0,0,0,0,0
				C7172.3,3408.6,7171.8,3409,7171.8,3409.5z"/>
			<path id="Trazado_3701" class="st14" d="M7172.6,3390c0.4-0.4,0.4-1,0-1.4c-0.4-0.4-1-0.4-1.4,0s-0.4,1,0,1.4c0,0,0,0,0,0
				C7171.6,3390.4,7172.2,3390.4,7172.6,3390z"/>
			<path id="Trazado_3702" class="st14" d="M7173.8,3392.9c0.4-0.4,0.4-1,0-1.4c-0.4-0.4-1-0.4-1.4,0s-0.4,1,0,1.4c0,0,0,0,0,0
				C7172.8,3393.2,7173.4,3393.3,7173.8,3392.9z"/>
			<path id="Trazado_3703" class="st14" d="M7176.4,3395.9c0.4-0.4,0.4-1,0-1.4c-0.4-0.4-1-0.4-1.4,0s-0.4,1,0,1.4c0,0,0,0,0,0
				C7175.4,3396.3,7176,3396.3,7176.4,3395.9z"/>
			<path id="Trazado_3704" class="st14" d="M7174.3,3399.4c0.4-0.4,0.4-1,0-1.4c-0.4-0.4-1-0.4-1.4,0s-0.4,1,0,1.4c0,0,0,0,0,0
				C7173.3,3399.8,7173.9,3399.8,7174.3,3399.4z"/>
			<path id="Trazado_3705" class="st14" d="M7170.5,3398.3c0.4-0.4,0.4-1,0-1.4c-0.4-0.4-1-0.4-1.4,0s-0.4,1,0,1.4c0,0,0,0,0,0
				C7169.5,3398.6,7170.1,3398.6,7170.5,3398.3z"/>
			<path id="Trazado_3706" class="st14" d="M7170.4,3394.5c0.4-0.4,0.4-1,0-1.4c-0.4-0.4-1-0.4-1.4,0s-0.4,1,0,1.4c0,0,0,0,0,0
				C7169.3,3394.8,7170,3394.9,7170.4,3394.5z"/>
			<path id="Trazado_3707" class="st14" d="M7172.9,3396.3c0.4-0.4,0.4-1,0-1.4c-0.4-0.4-1-0.4-1.4,0s-0.4,1,0,1.4c0,0,0,0,0,0
				C7171.9,3396.7,7172.5,3396.7,7172.9,3396.3z"/>
			<path id="Trazado_3708" class="st14" d="M7176.2,3391.2c0.4-0.4,0.4-1,0-1.4c-0.4-0.4-1-0.4-1.4,0s-0.4,1,0,1.4c0,0,0,0,0,0
				C7175.2,3391.6,7175.8,3391.6,7176.2,3391.2z"/>
			<path id="Trazado_3709" class="st14" d="M7179,3394c0.4-0.4,0.4-1,0-1.4c-0.4-0.4-1-0.4-1.4,0s-0.4,1,0,1.4c0,0,0,0,0,0
				C7178,3394.3,7178.6,3394.4,7179,3394z"/>
			<path id="Trazado_3710" class="st14" d="M7179.1,3397.9c0.4-0.4,0.4-1,0-1.4c-0.4-0.4-1-0.4-1.4,0s-0.4,1,0,1.4c0,0,0,0,0,0
				C7178,3398.3,7178.7,3398.3,7179.1,3397.9z"/>
			<path id="Trazado_3711" class="st14" d="M7176.9,3400.8c0.4-0.4,0.4-1,0-1.4c-0.4-0.4-1-0.4-1.4,0s-0.4,1,0,1.4c0,0,0,0,0,0
				C7175.8,3401.2,7176.5,3401.2,7176.9,3400.8z"/>
			<path id="Trazado_3712" class="st14" d="M7168.1,3391.5c-0.4-0.3-0.5-1-0.2-1.4c0.3-0.4,1-0.5,1.4-0.2c0.4,0.3,0.5,1,0.2,1.4
				c0,0,0,0,0,0C7169.2,3391.7,7168.5,3391.8,7168.1,3391.5z"/>
			<path id="Trazado_3713" class="st14" d="M7165.7,3394.5c-0.4-0.3-0.5-1-0.2-1.4c0.3-0.4,1-0.5,1.4-0.2c0.4,0.3,0.5,1,0.2,1.4
				c0,0,0,0,0,0C7166.7,3394.8,7166.1,3394.8,7165.7,3394.5z"/>
			<path id="Trazado_3714" class="st14" d="M7166,3398.4c-0.4-0.3-0.5-1-0.2-1.4c0.3-0.4,1-0.5,1.4-0.2c0.4,0.3,0.5,1,0.2,1.4
				c0,0,0,0,0,0C7167.1,3398.7,7166.5,3398.7,7166,3398.4z"/>
			<path id="Trazado_3715" class="st14" d="M7168.5,3401.1c-0.4-0.3-0.5-1-0.2-1.4c0.3-0.4,1-0.5,1.4-0.2c0.4,0.3,0.5,1,0.2,1.4
				c0,0,0,0,0,0C7169.6,3401.3,7169,3401.4,7168.5,3401.1z"/>
			<path id="Trazado_3716" class="st14" d="M7173.6,3402.2c0.4-0.4,0.4-1,0-1.4c-0.4-0.4-1-0.4-1.4,0c-0.4,0.4-0.4,1,0,1.4
				c0,0,0,0,0,0C7172.6,3402.6,7173.2,3402.6,7173.6,3402.2z"/>
			<path id="Trazado_3717" class="st13" d="M7112.6,3376.5c0-2.5-2-4.4-4.4-4.4c-2.5,0-4.4,2-4.4,4.4c0,2.5,2,4.4,4.4,4.4l0,0
				C7110.6,3381,7112.6,3379,7112.6,3376.5z"/>
			<path id="Trazado_3718" class="st13" d="M7109,3372.3c0,0-1.1-0.5-1.1-2.9h-0.2c0,0,0.2,2.6-0.9,3L7109,3372.3z"/>
			<path id="Trazado_3719" class="st14" d="M7108.3,3368.9c0-0.3-0.2-0.6-0.6-0.6c-0.3,0-0.6,0.2-0.6,0.6c0,0.3,0.2,0.6,0.6,0.6
				S7108.3,3369.3,7108.3,3368.9C7108.3,3368.9,7108.3,3368.9,7108.3,3368.9z"/>
			<path id="Trazado_3720" class="st13" d="M7110.6,3372.8c0,0-0.9-0.8-0.1-3.1l-0.2-0.1c0,0-0.7,2.5-1.8,2.5L7110.6,3372.8
				L7110.6,3372.8z"/>
			<path id="Trazado_3721" class="st14" d="M7111.1,3369.4c0.1-0.3-0.1-0.6-0.3-0.7c-0.3-0.1-0.6,0.1-0.7,0.3s0.1,0.6,0.3,0.7
				c0,0,0,0,0,0C7110.6,3369.9,7111,3369.7,7111.1,3369.4z"/>
			<path id="Trazado_3722" class="st13" d="M7111.9,3374.2c0,0-0.4-1.1,1.3-2.8l-0.1-0.1c0,0-1.7,1.9-2.7,1.4L7111.9,3374.2
				L7111.9,3374.2z"/>
			<path id="Trazado_3723" class="st14" d="M7113.8,3371.4c0.2-0.2,0.2-0.6,0-0.8s-0.6-0.2-0.8,0c-0.2,0.2-0.2,0.6,0,0.8
				C7113.2,3371.6,7113.6,3371.6,7113.8,3371.4C7113.8,3371.4,7113.8,3371.4,7113.8,3371.4z"/>
			<path id="Trazado_3724" class="st13" d="M7112.5,3375.9c0,0,0-1.2,2.2-2.1l-0.1-0.2c0,0-2.3,1.2-3.1,0.3L7112.5,3375.9
				L7112.5,3375.9z"/>
			<path id="Trazado_3725" class="st14" d="M7115.4,3373.9c0.3-0.1,0.4-0.4,0.3-0.7c-0.1-0.3-0.4-0.4-0.7-0.3
				c-0.3,0.1-0.4,0.4-0.3,0.7C7114.8,3373.9,7115.1,3374,7115.4,3373.9C7115.4,3373.9,7115.4,3373.9,7115.4,3373.9z"/>
			<path id="Trazado_3726" class="st13" d="M7112.4,3377.5c0,0,0.5-1.1,2.8-1.2v-0.2c0,0-2.6,0.2-3-0.8L7112.4,3377.5L7112.4,3377.5
				z"/>
			<path id="Trazado_3727" class="st14" d="M7115.8,3376.8c0.3,0,0.5-0.3,0.5-0.6c0-0.3-0.3-0.5-0.6-0.5c-0.3,0-0.5,0.3-0.5,0.6
				c0,0,0,0,0,0C7115.2,3376.5,7115.4,3376.8,7115.8,3376.8L7115.8,3376.8z"/>
			<path id="Trazado_3728" class="st13" d="M7111.7,3379.2c0,0,0.9-0.8,3.1,0.1l0.1-0.2c0,0-2.5-0.8-2.4-2L7111.7,3379.2
				L7111.7,3379.2z"/>
			<path id="Trazado_3729" class="st14" d="M7115.1,3379.9c0.3,0.1,0.6,0,0.7-0.3c0.1-0.3,0-0.6-0.3-0.7c-0.3-0.1-0.6,0-0.7,0.3
				c0,0,0,0,0,0C7114.7,3379.4,7114.8,3379.7,7115.1,3379.9C7115.1,3379.9,7115.1,3379.9,7115.1,3379.9z"/>
			<path id="Trazado_3730" class="st13" d="M7110.3,3380.3c0,0,1.1-0.4,2.7,1.4l0.1-0.1c0,0-1.9-1.8-1.3-2.8L7110.3,3380.3
				L7110.3,3380.3z"/>
			<path id="Trazado_3731" class="st14" d="M7113.1,3382.4c0.2,0.2,0.6,0.3,0.8,0.1c0.2-0.2,0.3-0.6,0.1-0.8
				c-0.2-0.2-0.6-0.3-0.8-0.1c0,0,0,0,0,0C7112.9,3381.8,7112.9,3382.2,7113.1,3382.4z"/>
			<path id="Trazado_3732" class="st13" d="M7108.9,3380.7c0,0,1.2,0,2.1,2.2l0.2-0.1c0,0-1.2-2.3-0.3-3.1L7108.9,3380.7
				L7108.9,3380.7z"/>
			<path id="Trazado_3733" class="st14" d="M7110.8,3383.5c0.1,0.3,0.4,0.4,0.7,0.3s0.4-0.4,0.3-0.7c-0.1-0.3-0.4-0.4-0.7-0.3l0,0
				C7110.8,3382.9,7110.7,3383.3,7110.8,3383.5C7110.8,3383.5,7110.8,3383.5,7110.8,3383.5z"/>
			<path id="Trazado_3734" class="st13" d="M7105.7,3372.8c0,0,0.9-0.8,0.1-3.1l0.2-0.1c0,0,0.7,2.5,1.8,2.5L7105.7,3372.8
				L7105.7,3372.8z"/>
			<path id="Trazado_3735" class="st14" d="M7105.2,3369.4c-0.1-0.3,0.1-0.6,0.3-0.7c0.3-0.1,0.6,0.1,0.7,0.3s-0.1,0.6-0.3,0.7
				c0,0,0,0,0,0C7105.6,3369.9,7105.3,3369.7,7105.2,3369.4z"/>
			<path id="Trazado_3736" class="st13" d="M7104.4,3374.2c0,0,0.4-1.1-1.3-2.8l0.1-0.1c0,0,1.7,1.9,2.7,1.4L7104.4,3374.2
				L7104.4,3374.2z"/>
			<path id="Trazado_3737" class="st14" d="M7102.5,3371.4c-0.2-0.2-0.2-0.6,0-0.8s0.6-0.2,0.8,0c0.2,0.2,0.2,0.6,0,0.8
				C7103.1,3371.6,7102.7,3371.6,7102.5,3371.4z"/>
			<path id="Trazado_3738" class="st13" d="M7103.7,3375.9c0,0,0-1.2-2.2-2.1l0.1-0.2c0,0,2.3,1.2,3.1,0.3L7103.7,3375.9
				L7103.7,3375.9z"/>
			<path id="Trazado_3739" class="st14" d="M7100.9,3373.9c-0.3-0.1-0.4-0.4-0.3-0.7c0.1-0.3,0.4-0.4,0.7-0.3
				c0.3,0.1,0.4,0.4,0.3,0.7C7101.5,3373.9,7101.2,3374,7100.9,3373.9C7100.9,3373.9,7100.9,3373.9,7100.9,3373.9z"/>
			<path id="Trazado_3740" class="st13" d="M7103.9,3377.5c0,0-0.5-1.1-2.8-1.2v-0.2c0,0,2.6,0.2,3-0.8L7103.9,3377.5L7103.9,3377.5
				z"/>
			<path id="Trazado_3741" class="st14" d="M7100.5,3376.8c-0.3,0-0.5-0.3-0.5-0.6c0-0.3,0.3-0.5,0.6-0.5c0.3,0,0.5,0.3,0.5,0.6
				c0,0,0,0,0,0C7101.1,3376.5,7100.8,3376.8,7100.5,3376.8z"/>
			<path id="Trazado_3742" class="st13" d="M7104.6,3379.2c0,0-0.9-0.8-3.1,0.1l-0.1-0.2c0,0,2.5-0.8,2.4-2L7104.6,3379.2
				L7104.6,3379.2z"/>
			<path id="Trazado_3743" class="st14" d="M7101.2,3379.9c-0.3,0.1-0.6,0-0.7-0.3c-0.1-0.3,0-0.6,0.3-0.7c0.3-0.1,0.6,0,0.7,0.3v0
				C7101.6,3379.4,7101.5,3379.7,7101.2,3379.9z"/>
			<path id="Trazado_3744" class="st13" d="M7105.9,3380.3c0,0-1.1-0.4-2.7,1.4l-0.1-0.1c0,0,1.9-1.8,1.3-2.8L7105.9,3380.3
				L7105.9,3380.3z"/>
			<path id="Trazado_3745" class="st14" d="M7103.2,3382.4c-0.2,0.2-0.6,0.3-0.8,0.1c-0.2-0.2-0.3-0.6-0.1-0.8
				c0.2-0.2,0.6-0.3,0.8-0.1c0,0,0,0,0,0C7103.4,3381.8,7103.4,3382.2,7103.2,3382.4C7103.2,3382.4,7103.2,3382.4,7103.2,3382.4z"/>
			<path id="Trazado_3746" class="st13" d="M7107.4,3380.7c0,0-1.2,0-2.1,2.2l-0.2-0.1c0,0,1.2-2.3,0.3-3.1L7107.4,3380.7
				L7107.4,3380.7z"/>
			<path id="Trazado_3747" class="st14" d="M7105.5,3383.5c-0.1,0.3-0.4,0.4-0.7,0.3s-0.4-0.4-0.3-0.7c0.1-0.3,0.4-0.4,0.7-0.3l0,0
				C7105.5,3382.9,7105.6,3383.3,7105.5,3383.5C7105.5,3383.5,7105.5,3383.5,7105.5,3383.5z"/>
			<path id="Trazado_3748" class="st13" d="M7107.3,3380.6c0,0,1.1,0.5,0.9,2.9l0.2,0c0,0,0-2.6,1-2.9L7107.3,3380.6z"/>
			<path id="Trazado_3749" class="st14" d="M7107.8,3384c0,0.3,0.2,0.6,0.5,0.6s0.6-0.2,0.6-0.5c0-0.3-0.2-0.6-0.5-0.6
				C7108.1,3383.5,7107.8,3383.7,7107.8,3384z"/>
			<path id="Trazado_3750" class="st14" d="M7108.2,3373.2c0.2-0.2,0.2-0.6,0-0.8s-0.6-0.2-0.8,0c-0.2,0.2-0.2,0.6,0,0.8
				C7107.7,3373.4,7108,3373.4,7108.2,3373.2z"/>
			<path id="Trazado_3751" class="st14" d="M7108.9,3374.8c0.2-0.2,0.2-0.6,0-0.8s-0.6-0.2-0.8,0c-0.2,0.2-0.2,0.6,0,0.8
				C7108.3,3375,7108.7,3375,7108.9,3374.8z"/>
			<path id="Trazado_3752" class="st14" d="M7110.3,3376.5c0.2-0.2,0.2-0.6,0-0.8s-0.6-0.2-0.8,0c-0.2,0.2-0.2,0.6,0,0.8
				C7109.8,3376.7,7110.1,3376.7,7110.3,3376.5z"/>
			<path id="Trazado_3753" class="st14" d="M7109.2,3378.4c0.2-0.2,0.2-0.6,0-0.8c-0.2-0.2-0.6-0.2-0.8,0s-0.2,0.6,0,0.8
				c0,0,0,0,0,0C7108.6,3378.6,7109,3378.6,7109.2,3378.4z"/>
			<path id="Trazado_3754" class="st14" d="M7107.1,3377.8c0.2-0.2,0.2-0.6,0-0.8s-0.6-0.2-0.8,0c-0.2,0.2-0.2,0.6,0,0.8
				C7106.5,3378,7106.8,3378,7107.1,3377.8z"/>
			<path id="Trazado_3755" class="st14" d="M7107,3375.7c0.2-0.2,0.2-0.6,0-0.8s-0.6-0.2-0.8,0c-0.2,0.2-0.2,0.6,0,0.8
				C7106.4,3375.9,7106.8,3375.9,7107,3375.7C7107,3375.7,7107,3375.7,7107,3375.7z"/>
			<path id="Trazado_3756" class="st14" d="M7108.4,3376.7c0.2-0.2,0.2-0.6,0-0.8s-0.6-0.2-0.8,0c-0.2,0.2-0.2,0.6,0,0.8
				S7108.2,3376.9,7108.4,3376.7C7108.4,3376.7,7108.4,3376.7,7108.4,3376.7z"/>
			<path id="Trazado_3757" class="st14" d="M7110.2,3373.9c0.2-0.2,0.2-0.6,0-0.8s-0.6-0.2-0.8,0c-0.2,0.2-0.2,0.6,0,0.8
				C7109.7,3374.1,7110,3374.1,7110.2,3373.9C7110.2,3373.9,7110.2,3373.9,7110.2,3373.9z"/>
			<path id="Trazado_3758" class="st14" d="M7111.8,3375.4c0.2-0.2,0.2-0.6,0-0.8c-0.2-0.2-0.6-0.2-0.8,0c-0.2,0.2-0.2,0.6,0,0.8
				c0,0,0,0,0,0C7111.2,3375.6,7111.6,3375.6,7111.8,3375.4z"/>
			<path id="Trazado_3759" class="st14" d="M7111.8,3377.6c0.2-0.2,0.2-0.6,0-0.8c-0.2-0.2-0.6-0.2-0.8,0c-0.2,0.2-0.2,0.6,0,0.8
				C7111.2,3377.8,7111.6,3377.8,7111.8,3377.6z"/>
			<path id="Trazado_3760" class="st14" d="M7110.6,3379.2c0.2-0.2,0.2-0.6,0-0.8c-0.2-0.2-0.6-0.2-0.8,0c-0.2,0.2-0.2,0.6,0,0.8
				c0,0,0,0,0,0C7110,3379.4,7110.4,3379.4,7110.6,3379.2C7110.6,3379.2,7110.6,3379.2,7110.6,3379.2z"/>
			<path id="Trazado_3761" class="st14" d="M7105.7,3374c-0.2-0.2-0.3-0.5-0.1-0.8c0.2-0.2,0.5-0.3,0.8-0.1s0.3,0.5,0.1,0.8
				C7106.3,3374.1,7106,3374.2,7105.7,3374z"/>
			<path id="Trazado_3762" class="st14" d="M7104.4,3375.7c-0.2-0.2-0.3-0.5-0.1-0.8s0.5-0.3,0.8-0.1c0.2,0.2,0.3,0.5,0.1,0.8v0
				C7105,3375.8,7104.6,3375.9,7104.4,3375.7z"/>
			<path id="Trazado_3763" class="st14" d="M7104.6,3377.9c-0.2-0.2-0.3-0.5-0.1-0.8c0.2-0.2,0.5-0.3,0.8-0.1
				c0.2,0.2,0.3,0.5,0.1,0.8c0,0,0,0,0,0C7105.2,3378,7104.8,3378,7104.6,3377.9z"/>
			<path id="Trazado_3764" class="st14" d="M7106,3379.3c-0.2-0.2-0.3-0.5-0.1-0.8c0.2-0.2,0.5-0.3,0.8-0.1c0.2,0.2,0.3,0.5,0.1,0.8
				c0,0,0,0,0,0C7106.6,3379.5,7106.2,3379.5,7106,3379.3C7106,3379.3,7106,3379.3,7106,3379.3z"/>
			<path id="Trazado_3765" class="st14" d="M7108.8,3380c0.2-0.2,0.2-0.6,0-0.8s-0.6-0.2-0.8,0c-0.2,0.2-0.2,0.6,0,0.8
				C7108.2,3380.2,7108.6,3380.2,7108.8,3380L7108.8,3380z"/>
		</g>
		<rect id="Rectángulo_2770" x="-2732.4" y="2581.8" class="st15" width="165.4" height="73.6"/>
		<rect id="Rectángulo_2772" x="-2736.4" y="2694.8" class="st15" width="183.4" height="73.6"/>
		<rect id="Rectángulo_2771" x="-2736.4" y="2835.8" class="st15" width="191.4" height="90.6"/>
		<rect id="Rectángulo_2767" x="-2335.4" y="2622.8" class="st15" width="150.4" height="73.6"/>
		<rect id="Rectángulo_2768" x="-2335.4" y="2709.8" class="st15" width="121.4" height="73.6"/>
		<rect id="Rectángulo_2769" x="-2335.4" y="2796.8" class="st15" width="137.4" height="73.6"/>
		<g id="Grupo_10028" transform="translate(-9848.2 -546)">
			<line id="Línea_21-2" class="st16" x1="7139.2" y1="3200" x2="7375.8" y2="3200"/>
		</g>
		<g id="Grupo_10030" transform="translate(-9848.2 -433)">
			<line id="Línea_21-3" class="st16" x1="7139.2" y1="3200" x2="7319.2" y2="3200"/>
		</g>
		<g id="Grupo_10029" transform="translate(-9817.2 -276)">
			<line id="Línea_21-4" class="st16" x1="7139.2" y1="3200" x2="7349.2" y2="3200"/>
		</g>
		<g id="Grupo_10025" transform="translate(-9601.2 -505)">
			<line id="Línea_21-5" class="st16" x1="7139.2" y1="3200" x2="7414.1" y2="3200"/>
		</g>
		<g id="Grupo_10026" transform="translate(-9601.2 -418)">
			<line id="Línea_21-6" class="st16" x1="7139.2" y1="3200" x2="7384.9" y2="3200"/>
		</g>
		<g id="Grupo_10027" transform="translate(-9601.2 -331)">
			<line id="Línea_21-7" class="st16" x1="7139.2" y1="3200" x2="7400.5" y2="3200"/>
		</g>
		<path id="Trazado_6566" class="st17" d="M-2547.7,2515.9c-2.5,0.1-5-0.6-7-1.9c-1.9-1.2-3.1-3.2-3.4-5.4l5.5-1.2
			c0.1,1.3,0.7,2.4,1.7,3.2c1,0.8,2.3,1.2,3.6,1.1c1,0,2-0.2,2.8-0.8c0.7-0.5,1.1-1.4,1.1-2.3c0-0.7-0.3-1.4-0.9-1.9
			c-0.5-0.5-1.1-0.9-1.8-1.2c-0.6-0.2-1.5-0.5-2.9-0.9c-0.2-0.1-0.3-0.1-0.4-0.1c-0.7-0.2-1.2-0.4-1.6-0.5c-0.4-0.1-0.9-0.3-1.5-0.6
			c-0.5-0.2-1-0.5-1.5-0.7c-0.4-0.3-0.8-0.6-1.2-0.9c-0.4-0.3-0.7-0.7-1-1.2c-0.3-0.5-0.5-0.9-0.6-1.5c-0.2-0.6-0.3-1.2-0.2-1.8
			c0-1.4,0.4-2.8,1.2-4c0.8-1.1,1.9-2,3.2-2.5c1.5-0.6,3-0.9,4.6-0.9c1.1,0,2.2,0.1,3.3,0.4c1,0.2,2,0.6,3,1.1
			c0.9,0.5,1.7,1.2,2.4,2.1c0.7,0.9,1.1,2,1.3,3.1l-5.1,1.3c-0.5-2.4-2-3.6-4.6-3.6c-1,0-2,0.2-2.8,0.7c-0.7,0.5-1.2,1.3-1.1,2.2
			c0,0.9,0.6,1.7,1.8,2.2c1.1,0.5,2.3,0.9,3.5,1.2c0.7,0.2,1.3,0.4,1.7,0.5c0.4,0.1,1,0.3,1.6,0.6c0.6,0.2,1.1,0.5,1.6,0.8
			c0.5,0.3,0.9,0.6,1.3,1c0.4,0.4,0.8,0.8,1.1,1.3c0.3,0.5,0.5,1,0.7,1.6c0.2,0.6,0.3,1.3,0.3,2c0,1-0.2,2-0.5,2.9
			c-0.3,0.8-0.8,1.5-1.4,2.2c-0.6,0.6-1.3,1.1-2.1,1.5c-0.8,0.4-1.7,0.7-2.6,0.9C-2545.8,2515.8-2546.7,2515.9-2547.7,2515.9z
			 M-2533,2495l4.6-6.5l2.5,1.8l-4,4.7H-2533z M-2534,2515.6v-18.1h5.1v18.1H-2534z M-2513,2497.1c1.8-0.1,3.6,0.5,5,1.6
			c1.2,1.2,1.8,2.9,1.7,4.6v12.2h-5.1v-11.1c0.1-0.9-0.2-1.8-0.9-2.5c-0.7-0.5-1.5-0.8-2.3-0.8c-0.5,0-1,0.1-1.5,0.2
			c-0.5,0.2-0.9,0.4-1.3,0.7c-0.4,0.4-0.7,0.8-0.9,1.4c-0.2,0.7-0.3,1.4-0.3,2.1v10h-5.1v-18.1h5.1v2
			C-2517.2,2497.9-2515.1,2497-2513,2497.1z M-2494.6,2515.6c-1.5,0.1-3-0.4-4.1-1.5c-1-1.1-1.5-2.6-1.4-4.2v-8.5h-3.6v-3.9h1.1
			c0.8,0.1,1.6-0.2,2.2-0.8c0.6-0.8,0.8-1.7,0.7-2.7v-2.4h4.6v5.8h3.7v3.9h-3.7v8c0,1.6,0.7,2.3,2.1,2.3h1.6v3.8H-2494.6z
			 M-2479,2515.9c-1.8,0-3.5-0.3-5.1-1.1c-1.5-0.7-2.7-1.8-3.5-3.3c-0.9-1.5-1.3-3.3-1.3-5c-0.1-2.6,0.9-5.1,2.7-6.9
			c2-1.7,4.5-2.6,7.2-2.5c2.6-0.1,5.2,0.8,7.2,2.5c1.9,1.8,2.9,4.3,2.7,6.9c0.1,2.6-0.9,5.1-2.7,6.9
			C-2473.8,2515.1-2476.4,2516-2479,2515.9z M-2479.1,2511.9c1.4,0.1,2.7-0.5,3.6-1.5c0.9-1.1,1.4-2.5,1.4-3.9
			c0.1-1.4-0.4-2.8-1.4-3.9c-0.9-1-2.2-1.5-3.6-1.5c-1.3,0-2.6,0.5-3.5,1.5c-0.9,1.1-1.4,2.5-1.3,3.9c-0.1,1.4,0.4,2.8,1.3,3.9
			C-2481.7,2511.4-2480.4,2511.9-2479.1,2511.9z M-2443.9,2497.1c1.7-0.1,3.3,0.4,4.7,1.5c1.2,1.1,1.8,2.6,1.7,4.2v12.7h-5.1v-11.3
			c0.1-0.8-0.2-1.7-0.8-2.3c-0.5-0.5-1.3-0.8-2-0.8c-0.9,0-1.8,0.3-2.5,1c-0.7,0.9-1.1,2-0.9,3.2v10.2h-5.1v-11.2
			c0.1-0.9-0.2-1.7-0.8-2.3c-0.6-0.5-1.3-0.8-2.1-0.8c-0.9,0-1.8,0.3-2.4,1c-0.7,1-1.1,2.2-0.9,3.4v9.9h-5v-18.1h5v2.1
			c1.2-1.6,3.2-2.6,5.2-2.5c1.2,0,2.3,0.2,3.4,0.7c0.9,0.4,1.7,1.1,2.1,2C-2448.3,2498-2446.1,2497-2443.9,2497.1L-2443.9,2497.1z
			 M-2417.8,2510.7c0,1.5,0.1,3,0.4,4.4v0.5h-4.7l-0.4-2c-0.7,0.8-1.5,1.4-2.5,1.7c-1,0.4-2.2,0.6-3.3,0.6c-0.6,0-1.1,0-1.7-0.2
			c-0.5-0.1-1-0.3-1.5-0.5c-0.5-0.2-0.9-0.6-1.3-0.9c-0.4-0.4-0.7-0.9-0.8-1.4c-0.2-0.6-0.3-1.3-0.3-2c0-0.7,0.1-1.3,0.3-2
			c0.2-0.5,0.5-1,0.9-1.5c0.4-0.4,0.9-0.8,1.4-1.1c0.6-0.3,1.2-0.6,1.8-0.8c0.7-0.2,1.4-0.4,2.1-0.6l3-0.7c0.5-0.1,0.9-0.3,1.3-0.6
			c0.3-0.2,0.4-0.6,0.4-0.9c0.1-0.7-0.3-1.4-0.9-1.7c-0.7-0.4-1.4-0.6-2.2-0.5c-2.1,0-3.3,0.9-3.5,2.8l-4.5-0.8
			c0.3-1.7,1.2-3.2,2.6-4.1c1.7-1,3.7-1.4,5.7-1.3c5.1,0,7.6,2.2,7.6,6.5L-2417.8,2510.7z M-2426.7,2512.5c1.2,0,2.3-0.4,3.1-1.3
			c0.9-1.1,1.3-2.5,1.2-3.9l-4.3,1.2c-0.6,0.1-1.3,0.4-1.8,0.7c-0.4,0.3-0.6,0.8-0.6,1.3c0,0.6,0.2,1.1,0.7,1.4
			C-2427.9,2512.3-2427.3,2512.5-2426.7,2512.5z M-2406.5,2515.9c-1.8,0.1-3.7-0.4-5.3-1.3c-1.4-0.8-2.3-2.2-2.6-3.8l4.2-1.2
			c0.4,1.7,1.9,2.8,3.6,2.7c0.6,0,1.3-0.1,1.8-0.4c0.5-0.3,0.8-0.8,0.7-1.4c0-0.3-0.1-0.7-0.3-0.9c-0.2-0.3-0.6-0.5-0.9-0.7
			c-0.4-0.2-0.8-0.3-1.2-0.5c-0.4-0.1-0.9-0.3-1.6-0.5c-0.7-0.2-1.2-0.4-1.7-0.5c-0.5-0.2-1.1-0.4-1.6-0.7c-0.5-0.3-0.9-0.6-1.3-0.9
			c-0.4-0.4-0.8-0.9-1-1.4c-0.2-0.6-0.4-1.3-0.3-1.9c-0.1-1.6,0.7-3.1,2-4c1.5-1,3.3-1.5,5.1-1.4c1.7-0.1,3.3,0.3,4.7,1.2
			c1.3,0.8,2.2,2.1,2.4,3.6l-3.9,0.9c-0.4-1.4-1.7-2.4-3.2-2.3c-0.6,0-1.2,0.1-1.8,0.4c-0.4,0.2-0.7,0.7-0.7,1.2
			c0,0.2,0,0.4,0.1,0.5c0.1,0.2,0.2,0.3,0.4,0.4c0.2,0.1,0.3,0.2,0.5,0.3c0.2,0.1,0.5,0.2,0.7,0.3c0.3,0.1,0.6,0.2,0.8,0.2
			c0.2,0.1,0.5,0.1,0.9,0.2l0.9,0.2c0.6,0.2,1.2,0.4,1.7,0.5c0.5,0.2,1.1,0.4,1.6,0.7c0.5,0.3,1,0.6,1.4,1.1
			c0.4,0.4,0.7,0.9,0.9,1.5c0.2,0.6,0.4,1.3,0.4,2c0,0.9-0.2,1.8-0.6,2.6c-0.4,0.7-1,1.3-1.7,1.8c-0.7,0.4-1.5,0.8-2.3,1
			C-2404.6,2515.8-2405.6,2515.9-2406.5,2515.9L-2406.5,2515.9z"/>
		<path id="Trazado_6559" d="M-2707.9,2600.6h-4.8v2.9h4.2v2.3h-4.2v5.2h-2.7v-12.7h7.5V2600.6z M-2704.7,2600.6
			c-0.4,0-0.8-0.1-1-0.4c-0.3-0.3-0.4-0.6-0.4-1c0-0.4,0.2-0.8,0.4-1c0.3-0.3,0.6-0.4,1-0.4c0.8,0,1.4,0.7,1.4,1.4
			C-2703.2,2600-2703.9,2600.6-2704.7,2600.6L-2704.7,2600.6z M-2706,2611v-9h2.6v9H-2706z M-2692.3,2606.4l0,0.6h-6.7
			c0,0.6,0.3,1.2,0.7,1.7c0.4,0.4,1,0.6,1.6,0.6c0.4,0,0.8-0.1,1.2-0.3c0.3-0.2,0.6-0.5,0.8-0.9l2.3,0.3c-0.3,0.9-0.8,1.6-1.6,2.1
			c-0.8,0.5-1.7,0.8-2.7,0.8c-1.3,0.1-2.6-0.4-3.5-1.2c-0.9-0.9-1.4-2.2-1.3-3.4c-0.1-1.3,0.4-2.5,1.3-3.4c0.9-0.9,2.2-1.3,3.4-1.3
			c1.2-0.1,2.4,0.4,3.2,1.2C-2692.6,2603.8-2692.2,2605.1-2692.3,2606.4z M-2696.7,2603.6c-1.1-0.1-2.1,0.7-2.2,1.7h4.2
			c0-0.5-0.3-1-0.6-1.3C-2695.8,2603.7-2696.3,2603.5-2696.7,2603.6z M-2685.1,2601.8c0.6,0,1.1,0.1,1.7,0.3
			c1.1,0.4,1.9,1.3,2.3,2.4c0.2,0.6,0.4,1.3,0.3,2c0,0.7-0.1,1.3-0.3,2c-0.4,1.1-1.2,2-2.3,2.4c-0.5,0.2-1.1,0.3-1.7,0.3
			c-0.6,0-1.2-0.1-1.7-0.4c-0.5-0.2-0.9-0.6-1.1-1l-0.1,1.2h-2.4v-13.5h2.5v5.6c0.3-0.4,0.7-0.7,1.1-0.9
			C-2686.2,2601.9-2685.6,2601.8-2685.1,2601.8z M-2685.6,2609.1c0.6,0,1.3-0.2,1.7-0.7c0.5-0.5,0.7-1.2,0.7-1.9
			c0-0.7-0.2-1.4-0.7-1.9c-0.4-0.5-1.1-0.7-1.7-0.7c-0.6,0-1.3,0.2-1.7,0.7c-0.5,0.5-0.7,1.2-0.7,1.9c0,0.7,0.2,1.4,0.7,1.9
			C-2686.9,2608.9-2686.3,2609.1-2685.6,2609.1z M-2676.4,2603.4c0.3-0.5,0.7-0.8,1.2-1.1c0.5-0.3,1.1-0.5,1.8-0.5v2.3
			c-0.8-0.1-1.5,0.1-2.2,0.5c-0.5,0.5-0.7,1.2-0.7,1.9v4.4h-2.5v-9h2.4L-2676.4,2603.4z M-2663.5,2606.4l0,0.6h-6.7
			c0,0.6,0.3,1.2,0.7,1.7c0.4,0.4,1,0.6,1.6,0.6c0.4,0,0.8-0.1,1.2-0.3c0.3-0.2,0.6-0.5,0.8-0.9l2.3,0.3c-0.3,0.9-0.8,1.6-1.6,2.1
			c-0.8,0.5-1.7,0.8-2.7,0.8c-1.3,0.1-2.6-0.4-3.5-1.2c-0.9-0.9-1.4-2.2-1.3-3.5c-0.1-1.3,0.4-2.5,1.3-3.4c0.9-0.9,2.2-1.3,3.4-1.3
			c1.2-0.1,2.4,0.4,3.2,1.2C-2663.9,2603.8-2663.4,2605.1-2663.5,2606.4L-2663.5,2606.4z M-2667.9,2603.6c-1.1-0.1-2.1,0.7-2.2,1.7
			h4.1c0-0.5-0.3-1-0.6-1.3C-2667,2603.7-2667.5,2603.5-2667.9,2603.6z M-2651,2602h2.6l-5.6,13.3h-2.6l2.1-4.6l-3.7-8.7h2.8
			l2.2,5.9L-2651,2602z M-2636,2597.5h2.5v13.5h-2.4l-0.1-1.2c-0.3,0.4-0.7,0.8-1.1,1c-0.5,0.2-1.1,0.4-1.7,0.4
			c-0.6,0-1.2-0.1-1.7-0.3c-1.1-0.4-1.9-1.3-2.3-2.4c-0.2-0.6-0.4-1.3-0.3-2c0-0.9,0.2-1.7,0.6-2.5c0.4-0.7,0.9-1.3,1.6-1.6
			c0.7-0.4,1.4-0.6,2.2-0.6c0.6,0,1.1,0.1,1.6,0.3c0.5,0.2,0.9,0.5,1.1,0.9L-2636,2597.5z M-2638.2,2609.1c0.6,0,1.3-0.2,1.7-0.7
			c0.5-0.5,0.7-1.2,0.7-1.9c0-0.7-0.2-1.4-0.7-1.9c-0.4-0.5-1.1-0.7-1.7-0.7c-0.6,0-1.3,0.2-1.7,0.7c-0.5,0.5-0.7,1.2-0.7,1.9
			c0,0.7,0.2,1.4,0.7,1.9C-2639.4,2608.9-2638.8,2609.1-2638.2,2609.1z M-2626.6,2611.2c-0.9,0-1.8-0.2-2.6-0.6
			c-0.7-0.4-1.3-0.9-1.8-1.6c-0.4-0.8-0.7-1.6-0.6-2.5c-0.1-1.3,0.4-2.5,1.4-3.4c2.1-1.7,5.1-1.7,7.2,0c0.9,0.9,1.4,2.1,1.4,3.4
			c0.1,1.3-0.4,2.5-1.4,3.4C-2624,2610.8-2625.3,2611.2-2626.6,2611.2z M-2626.6,2609.2c0.7,0,1.3-0.2,1.8-0.7
			c0.5-0.5,0.7-1.2,0.7-2c0-0.7-0.2-1.4-0.7-2c-0.5-0.5-1.1-0.8-1.8-0.7c-0.7,0-1.3,0.3-1.7,0.7c-0.5,0.5-0.7,1.2-0.7,1.9
			c0,0.7,0.2,1.4,0.7,1.9C-2627.9,2608.9-2627.3,2609.2-2626.6,2609.2L-2626.6,2609.2z M-2619.8,2611v-13.5h2.6v13.5H-2619.8z
			 M-2610.4,2611.2c-0.9,0-1.8-0.2-2.6-0.6c-0.7-0.4-1.3-0.9-1.8-1.6c-0.4-0.8-0.7-1.6-0.6-2.5c-0.1-1.3,0.4-2.5,1.4-3.4
			c2.1-1.7,5.1-1.7,7.2,0c0.9,0.9,1.4,2.1,1.4,3.4c0.1,1.3-0.4,2.5-1.4,3.4C-2607.8,2610.8-2609.1,2611.2-2610.4,2611.2z
			 M-2610.4,2609.2c0.7,0,1.3-0.2,1.8-0.7c0.5-0.5,0.7-1.2,0.7-2c0-0.7-0.2-1.4-0.7-2c-0.5-0.5-1.1-0.8-1.8-0.7
			c-0.7,0-1.3,0.3-1.7,0.7c-0.5,0.5-0.7,1.2-0.7,1.9c0,0.7,0.2,1.4,0.7,1.9C-2611.7,2608.9-2611.1,2609.2-2610.4,2609.2z
			 M-2601.1,2603.4c0.3-0.5,0.7-0.8,1.2-1.1c0.5-0.3,1.1-0.5,1.8-0.5v2.3c-0.8-0.1-1.5,0.1-2.2,0.5c-0.5,0.5-0.7,1.2-0.7,1.9v4.4
			h-2.5v-9h2.4L-2601.1,2603.4z M-2709.3,2619.1h2.5v13.5h-2.4l-0.1-1.2c-0.3,0.4-0.7,0.8-1.1,1c-0.5,0.2-1.1,0.4-1.7,0.4
			c-0.6,0-1.2-0.1-1.7-0.3c-1.1-0.4-1.9-1.3-2.3-2.4c-0.2-0.6-0.3-1.3-0.3-2c0-0.9,0.2-1.7,0.6-2.5c0.4-0.7,0.9-1.3,1.6-1.6
			c0.7-0.4,1.4-0.6,2.2-0.6c0.6,0,1.1,0.1,1.6,0.3c0.5,0.2,0.9,0.5,1.1,0.9L-2709.3,2619.1z M-2711.5,2630.7c0.6,0,1.3-0.2,1.7-0.7
			c0.9-1.1,0.9-2.7,0-3.8c-0.4-0.5-1.1-0.7-1.7-0.7c-0.6,0-1.3,0.2-1.7,0.7c-0.9,1.1-0.9,2.7,0,3.8
			C-2712.7,2630.5-2712.1,2630.7-2711.5,2630.7z M-2695.6,2627.9l0,0.6h-6.7c0,0.6,0.3,1.2,0.7,1.7c0.4,0.4,1,0.6,1.6,0.6
			c0.4,0,0.8-0.1,1.2-0.3c0.3-0.2,0.6-0.5,0.8-0.9l2.3,0.3c-0.3,0.9-0.8,1.6-1.6,2.1c-0.8,0.5-1.7,0.8-2.7,0.8
			c-1.3,0.1-2.6-0.4-3.5-1.2c-0.9-0.9-1.4-2.2-1.3-3.4c-0.1-1.3,0.4-2.5,1.3-3.5c0.9-0.9,2.2-1.3,3.4-1.3c1.2-0.1,2.4,0.4,3.2,1.2
			C-2696,2625.4-2695.5,2626.7-2695.6,2627.9L-2695.6,2627.9z M-2700.1,2625.2c-1.1-0.1-2.1,0.7-2.2,1.7h4.1c0-0.5-0.3-1-0.6-1.3
			C-2699.1,2625.3-2699.6,2625.1-2700.1,2625.2z M-2684.9,2632.8c-1.3,0.1-2.5-0.4-3.5-1.3c-0.9-0.9-1.4-2.1-1.4-3.4
			c-0.1-1.3,0.4-2.5,1.3-3.4c0.9-0.9,2.2-1.3,3.5-1.3c1,0,2.1,0.3,2.9,0.9c0.8,0.6,1.3,1.5,1.5,2.5l-2.3,0.3
			c-0.1-0.5-0.4-0.9-0.8-1.2c-0.4-0.3-0.9-0.4-1.4-0.4c-0.6,0-1.2,0.3-1.7,0.7c-0.8,1.2-0.8,2.7,0,3.9c0.4,0.5,1,0.8,1.7,0.7
			c0.5,0,1-0.1,1.4-0.4c0.4-0.3,0.7-0.7,0.8-1.2l2.3,0.3c-0.2,1-0.7,1.9-1.5,2.5C-2682.9,2632.5-2683.9,2632.8-2684.9,2632.8
			L-2684.9,2632.8z M-2671.3,2630.1c0,0.7,0.1,1.5,0.2,2.2v0.2h-2.4l-0.2-1c-0.3,0.4-0.8,0.7-1.3,0.9c-0.5,0.2-1.1,0.3-1.6,0.3
			c-0.3,0-0.6,0-0.8-0.1c-0.3-0.1-0.5-0.1-0.8-0.3c-0.2-0.1-0.4-0.3-0.6-0.5c-0.2-0.2-0.3-0.5-0.4-0.7c-0.1-0.3-0.2-0.6-0.2-1
			c0-0.3,0.1-0.7,0.2-1c0.1-0.3,0.2-0.5,0.4-0.7c0.2-0.2,0.4-0.4,0.7-0.5c0.3-0.2,0.6-0.3,0.9-0.4c0.4-0.1,0.7-0.2,1.1-0.3l1.5-0.3
			c0.2,0,0.5-0.1,0.7-0.3c0.1-0.1,0.2-0.3,0.2-0.5c0-0.4-0.1-0.7-0.4-0.9c-0.3-0.2-0.7-0.3-1.1-0.3c-0.8-0.1-1.6,0.5-1.8,1.3
			c0,0,0,0.1,0,0.1l-2.2-0.4c0.1-0.8,0.6-1.6,1.3-2.1c0.9-0.5,1.8-0.7,2.8-0.7c2.5,0,3.8,1.1,3.8,3.3L-2671.3,2630.1z
			 M-2675.8,2631.1c0.6,0,1.2-0.2,1.6-0.7c0.4-0.5,0.7-1.2,0.6-1.9l-2.1,0.6c-0.3,0.1-0.6,0.2-0.9,0.4c-0.2,0.2-0.3,0.4-0.3,0.6
			c0,0.3,0.1,0.5,0.3,0.7C-2676.4,2631-2676.1,2631.1-2675.8,2631.1L-2675.8,2631.1z M-2663.5,2623.4c0.6,0,1.1,0.1,1.7,0.3
			c1.1,0.4,1.9,1.3,2.3,2.4c0.5,1.3,0.5,2.7,0,4c-0.4,1.1-1.2,2-2.3,2.4c-0.5,0.2-1.1,0.3-1.7,0.3c-0.6,0-1.2-0.1-1.7-0.4
			c-0.5-0.2-0.9-0.6-1.1-1l-0.1,1.2h-2.4v-13.5h2.5v5.6c0.3-0.4,0.7-0.7,1.1-0.9C-2664.7,2623.5-2664.1,2623.4-2663.5,2623.4
			L-2663.5,2623.4z M-2664.1,2630.7c0.6,0,1.3-0.2,1.7-0.7c0.9-1.1,0.9-2.7,0-3.8c-0.4-0.5-1.1-0.7-1.7-0.7c-0.6,0-1.3,0.2-1.7,0.7
			c-0.9,1.1-0.9,2.7,0,3.8C-2665.4,2630.5-2664.8,2630.7-2664.1,2630.7L-2664.1,2630.7z M-2648.8,2627.9l0,0.6h-6.7
			c0,0.6,0.3,1.2,0.7,1.7c0.4,0.4,1,0.6,1.6,0.6c0.4,0,0.8-0.1,1.2-0.3c0.3-0.2,0.6-0.5,0.8-0.9l2.3,0.3c-0.3,0.9-0.8,1.6-1.6,2.1
			c-0.8,0.5-1.7,0.8-2.7,0.8c-1.3,0.1-2.6-0.4-3.5-1.2c-0.9-0.9-1.4-2.2-1.3-3.4c-0.1-1.3,0.4-2.5,1.3-3.4c0.9-0.9,2.2-1.3,3.4-1.3
			c2.3-0.2,4.3,1.5,4.5,3.8C-2648.7,2627.4-2648.7,2627.7-2648.8,2627.9L-2648.8,2627.9z M-2653.2,2625.2c-1.1-0.1-2.1,0.7-2.2,1.7
			h4.1c0-0.5-0.3-1-0.6-1.3C-2652.3,2625.3-2652.8,2625.1-2653.2,2625.2L-2653.2,2625.2z M-2640.5,2623.6l-4,7.1h3.9v2h-7.4l4-7.1
			h-3.6v-2L-2640.5,2623.6z M-2631.7,2630.1c0,0.7,0.1,1.5,0.2,2.2v0.2h-2.4l-0.2-1c-0.3,0.4-0.8,0.7-1.3,0.9
			c-0.5,0.2-1.1,0.3-1.6,0.3c-0.3,0-0.6,0-0.8-0.1c-0.3-0.1-0.5-0.1-0.8-0.3c-0.2-0.1-0.4-0.3-0.6-0.5c-0.2-0.2-0.3-0.5-0.4-0.7
			c-0.1-0.3-0.2-0.6-0.2-1c0-0.3,0.1-0.7,0.2-1c0.1-0.3,0.2-0.5,0.4-0.7c0.2-0.2,0.4-0.4,0.7-0.5c0.3-0.2,0.6-0.3,0.9-0.4
			c0.4-0.1,0.7-0.2,1.1-0.3l1.5-0.3c0.2,0,0.5-0.1,0.7-0.3c0.1-0.1,0.2-0.3,0.2-0.5c0-0.4-0.1-0.7-0.4-0.9c-0.3-0.2-0.7-0.3-1.1-0.3
			c-0.8-0.1-1.6,0.5-1.8,1.3c0,0,0,0,0,0.1l-2.2-0.4c0.1-0.8,0.6-1.6,1.3-2.1c0.9-0.5,1.8-0.7,2.8-0.7c2.5,0,3.8,1.1,3.8,3.3
			L-2631.7,2630.1z M-2636.1,2631.1c0.6,0,1.2-0.2,1.6-0.7c0.4-0.5,0.7-1.2,0.6-1.9l-2.1,0.6c-0.3,0.1-0.6,0.2-0.9,0.4
			c-0.2,0.2-0.3,0.4-0.3,0.6c0,0.3,0.1,0.5,0.3,0.7C-2636.7,2631-2636.4,2631.1-2636.1,2631.1L-2636.1,2631.1z"/>
		<path id="Trazado_6560" d="M-2716.9,2713.6h-4.8v2.9h4.2v2.3h-4.2v5.2h-2.7v-12.7h7.5V2713.6z M-2707.9,2721.5
			c0,0.7,0.1,1.5,0.2,2.2v0.2h-2.4l-0.2-1c-0.3,0.4-0.8,0.7-1.3,0.9c-0.5,0.2-1.1,0.3-1.6,0.3c-0.3,0-0.6,0-0.8-0.1
			c-0.3-0.1-0.5-0.1-0.8-0.3c-0.2-0.1-0.4-0.3-0.6-0.5c-0.2-0.2-0.3-0.5-0.4-0.7c-0.1-0.3-0.2-0.6-0.2-1c0-0.3,0.1-0.7,0.2-1
			c0.1-0.3,0.2-0.5,0.4-0.7c0.2-0.2,0.4-0.4,0.7-0.5c0.3-0.2,0.6-0.3,0.9-0.4c0.4-0.1,0.7-0.2,1.1-0.3l1.5-0.3
			c0.2,0,0.5-0.1,0.7-0.3c0.1-0.1,0.2-0.3,0.2-0.5c0-0.4-0.1-0.7-0.4-0.9c-0.3-0.2-0.7-0.3-1.1-0.3c-0.8-0.1-1.6,0.5-1.8,1.3
			c0,0,0,0,0,0.1l-2.2-0.4c0.1-0.8,0.6-1.6,1.3-2.1c0.9-0.5,1.8-0.7,2.8-0.7c2.5,0,3.8,1.1,3.8,3.3V2721.5z M-2712.4,2722.5
			c0.6,0,1.2-0.2,1.6-0.7c0.4-0.5,0.7-1.2,0.6-1.9l-2.1,0.6c-0.3,0.1-0.6,0.2-0.9,0.4c-0.2,0.2-0.3,0.4-0.3,0.6
			c0,0.3,0.1,0.5,0.3,0.7C-2713,2722.4-2712.7,2722.5-2712.4,2722.5L-2712.4,2722.5z M-2702.2,2724c-0.8,0-1.5-0.2-2-0.7
			c-0.5-0.6-0.8-1.3-0.7-2.1v-4.3h-1.8v-1.9h0.6c0.4,0,0.8-0.1,1.1-0.4c0.3-0.4,0.4-0.9,0.4-1.3v-1.2h2.3v2.9h1.9v1.9h-1.9v4
			c0,0.8,0.3,1.2,1,1.2h0.8v1.9H-2702.2z M-2697.3,2713.6c-0.4,0-0.8-0.1-1-0.4c-0.3-0.3-0.4-0.6-0.4-1c0-0.4,0.2-0.8,0.4-1
			c0.3-0.3,0.6-0.4,1-0.4c0.8,0,1.4,0.7,1.5,1.4C-2695.8,2713-2696.5,2713.6-2697.3,2713.6L-2697.3,2713.6z M-2698.6,2724v-9h2.5v9
			H-2698.6z M-2687.2,2715h2.4v8.4c0,0.8-0.1,1.5-0.3,2.2c-0.2,0.6-0.5,1.1-1,1.5c-0.4,0.4-0.9,0.7-1.5,0.9c-0.6,0.2-1.3,0.3-2,0.3
			c-2.4,0-3.9-0.9-4.7-2.8l2.1-0.9c0.2,0.5,0.5,1,1,1.3c0.4,0.3,1,0.4,1.5,0.4c1.6,0,2.3-0.9,2.3-2.8v-1.1c-0.3,0.4-0.7,0.7-1.1,0.9
			c-0.5,0.2-1,0.3-1.6,0.3c-1.1,0-2.1-0.4-2.9-1.2c-0.4-0.4-0.7-0.9-0.9-1.4c-0.4-1.2-0.4-2.5,0-3.7c0.2-0.5,0.5-1,0.9-1.4
			c0.4-0.4,0.8-0.7,1.3-0.9c0.5-0.2,1.1-0.3,1.6-0.3c0.6,0,1.2,0.1,1.7,0.4c0.5,0.2,0.9,0.6,1.1,1L-2687.2,2715z M-2691.1,2720.9
			c0.9,0.9,2.4,0.9,3.3,0c0,0,0,0,0,0c0.9-1,0.9-2.5,0-3.4c-0.9-0.9-2.4-0.9-3.3,0c0,0,0,0,0,0c-0.4,0.5-0.7,1.1-0.7,1.7
			C-2691.8,2719.9-2691.5,2720.5-2691.1,2720.9L-2691.1,2720.9z M-2674.7,2721.5c0,0.7,0.1,1.5,0.2,2.2v0.2h-2.4l-0.2-1
			c-0.3,0.4-0.8,0.7-1.3,0.9c-0.5,0.2-1.1,0.3-1.6,0.3c-0.3,0-0.6,0-0.8-0.1c-0.3-0.1-0.5-0.1-0.8-0.3c-0.2-0.1-0.4-0.3-0.6-0.5
			c-0.2-0.2-0.3-0.5-0.4-0.7c-0.1-0.3-0.2-0.6-0.2-1c0-0.3,0.1-0.7,0.2-1c0.1-0.3,0.2-0.5,0.4-0.7c0.2-0.2,0.4-0.4,0.7-0.5
			c0.3-0.2,0.6-0.3,0.9-0.4c0.4-0.1,0.7-0.2,1.1-0.3l1.5-0.3c0.2,0,0.5-0.1,0.7-0.3c0.1-0.1,0.2-0.3,0.2-0.5c0-0.4-0.1-0.7-0.4-0.9
			c-0.3-0.2-0.7-0.3-1.1-0.3c-0.8-0.1-1.6,0.5-1.8,1.3c0,0,0,0,0,0.1l-2.2-0.4c0.1-0.8,0.6-1.6,1.3-2.1c0.9-0.5,1.8-0.7,2.8-0.7
			c2.5,0,3.8,1.1,3.8,3.3L-2674.7,2721.5z M-2679.2,2722.5c0.6,0,1.2-0.2,1.6-0.7c0.4-0.5,0.7-1.2,0.6-1.9l-2.1,0.6
			c-0.3,0.1-0.6,0.2-0.9,0.4c-0.2,0.2-0.3,0.4-0.3,0.6c0,0.3,0.1,0.5,0.3,0.7C-2679.8,2722.4-2679.5,2722.5-2679.2,2722.5z
			 M-2670.5,2727.2h-1.8l1.1-5.7h2.6L-2670.5,2727.2z M-2653.2,2719.4l0,0.6h-6.7c0,0.6,0.3,1.2,0.7,1.7c0.4,0.4,1,0.6,1.6,0.6
			c0.4,0,0.8-0.1,1.2-0.3c0.3-0.2,0.6-0.5,0.8-0.9l2.3,0.3c-0.3,0.9-0.8,1.6-1.6,2.1c-0.8,0.5-1.7,0.8-2.7,0.8
			c-1.3,0.1-2.6-0.4-3.5-1.2c-0.9-0.9-1.4-2.2-1.3-3.4c-0.1-1.3,0.4-2.5,1.3-3.4c0.9-0.9,2.2-1.3,3.4-1.3c1.2-0.1,2.4,0.4,3.2,1.2
			C-2653.6,2716.8-2653.1,2718.1-2653.2,2719.4L-2653.2,2719.4z M-2657.6,2716.6c-1.1-0.1-2.1,0.7-2.2,1.7h4.1c0-0.5-0.3-1-0.6-1.3
			C-2656.7,2716.7-2657.2,2716.5-2657.6,2716.6z M-2648.1,2724.2c-0.9,0-1.8-0.2-2.6-0.6c-0.7-0.4-1.2-1.1-1.3-1.9l2.1-0.6
			c0.2,0.8,1,1.4,1.8,1.3c0.3,0,0.6-0.1,0.9-0.2c0.2-0.1,0.4-0.4,0.4-0.7c0-0.2,0-0.3-0.1-0.5c-0.1-0.1-0.3-0.3-0.5-0.3
			c-0.2-0.1-0.4-0.2-0.6-0.2c-0.2-0.1-0.5-0.1-0.8-0.2c-0.3-0.1-0.6-0.2-0.8-0.3c-0.3-0.1-0.5-0.2-0.8-0.3c-0.2-0.1-0.5-0.3-0.7-0.5
			c-0.2-0.2-0.4-0.4-0.5-0.7c-0.1-0.3-0.2-0.6-0.2-1c0-0.8,0.3-1.6,1-2c0.8-0.5,1.7-0.7,2.6-0.7c0.8,0,1.6,0.2,2.4,0.6
			c0.6,0.4,1.1,1.1,1.2,1.8l-2,0.4c-0.2-0.7-0.9-1.2-1.6-1.1c-0.3,0-0.6,0.1-0.9,0.2c-0.2,0.1-0.4,0.3-0.4,0.6c0,0.1,0,0.2,0.1,0.3
			c0,0.1,0.1,0.2,0.2,0.2c0.1,0.1,0.2,0.1,0.3,0.2c0.1,0.1,0.2,0.1,0.4,0.1c0.2,0.1,0.3,0.1,0.4,0.1l0.5,0.1l0.5,0.1
			c0.3,0.1,0.6,0.2,0.8,0.3c0.3,0.1,0.5,0.2,0.8,0.4c0.3,0.1,0.5,0.3,0.7,0.5c0.2,0.2,0.3,0.5,0.4,0.7c0.1,0.3,0.2,0.7,0.2,1
			c0,0.5-0.1,0.9-0.3,1.3c-0.2,0.4-0.5,0.7-0.8,0.9c-0.4,0.2-0.8,0.4-1.2,0.5C-2647.1,2724.1-2647.6,2724.2-2648.1,2724.2
			L-2648.1,2724.2z M-2638.5,2724.2c-1.3,0.1-2.5-0.4-3.5-1.3c-0.9-0.9-1.4-2.1-1.4-3.4c-0.1-1.3,0.4-2.5,1.3-3.4
			c1.8-1.6,4.4-1.7,6.4-0.4c0.8,0.6,1.3,1.5,1.5,2.5l-2.3,0.3c-0.1-0.5-0.4-0.9-0.8-1.2c-0.4-0.3-0.9-0.4-1.4-0.4
			c-0.6,0-1.2,0.3-1.7,0.7c-0.4,0.6-0.7,1.2-0.6,2c0,0.7,0.2,1.4,0.6,1.9c0.4,0.5,1,0.8,1.7,0.7c0.5,0,1-0.1,1.4-0.4
			c0.4-0.3,0.7-0.7,0.8-1.2l2.3,0.3c-0.2,1-0.7,1.9-1.5,2.5C-2636.4,2723.9-2637.4,2724.2-2638.5,2724.2L-2638.5,2724.2z
			 M-2624.8,2721.5c0,0.7,0.1,1.5,0.2,2.2v0.2h-2.4l-0.2-1c-0.3,0.4-0.8,0.7-1.3,0.9c-0.5,0.2-1.1,0.3-1.6,0.3c-0.3,0-0.6,0-0.8-0.1
			c-0.3-0.1-0.5-0.1-0.8-0.3c-0.2-0.1-0.4-0.3-0.6-0.5c-0.2-0.2-0.3-0.5-0.4-0.7c-0.1-0.3-0.2-0.6-0.2-1c0-0.3,0.1-0.7,0.2-1
			c0.1-0.3,0.2-0.5,0.4-0.7c0.2-0.2,0.4-0.4,0.7-0.5c0.3-0.2,0.6-0.3,0.9-0.4c0.4-0.1,0.7-0.2,1.1-0.3l1.5-0.3
			c0.2,0,0.5-0.1,0.7-0.3c0.1-0.1,0.2-0.3,0.2-0.5c0-0.4-0.1-0.7-0.4-0.9c-0.3-0.2-0.7-0.3-1.1-0.3c-0.8-0.1-1.6,0.5-1.8,1.3
			c0,0,0,0,0,0.1l-2.2-0.4c0.1-0.8,0.6-1.6,1.3-2.1c0.9-0.5,1.8-0.7,2.8-0.7c2.5,0,3.8,1.1,3.8,3.3L-2624.8,2721.5z M-2629.3,2722.5
			c0.6,0,1.2-0.2,1.6-0.7c0.4-0.5,0.7-1.2,0.6-1.9l-2.1,0.6c-0.3,0.1-0.6,0.2-0.9,0.4c-0.2,0.2-0.3,0.4-0.3,0.6
			c0,0.3,0.1,0.5,0.3,0.7C-2629.9,2722.4-2629.6,2722.5-2629.3,2722.5L-2629.3,2722.5z M-2622.4,2724v-13.5h2.6v13.5H-2622.4z
			 M-2613,2724.2c-0.9,0-1.8-0.2-2.6-0.6c-0.7-0.4-1.3-0.9-1.8-1.6c-0.4-0.8-0.7-1.6-0.6-2.5c-0.1-1.3,0.4-2.5,1.4-3.4
			c2.1-1.7,5.1-1.7,7.2,0c0.9,0.9,1.4,2.1,1.4,3.4c0.1,1.3-0.4,2.5-1.4,3.4C-2610.4,2723.8-2611.7,2724.2-2613,2724.2z
			 M-2613,2722.2c0.7,0,1.3-0.2,1.8-0.7c0.5-0.5,0.7-1.2,0.7-2c0-0.7-0.2-1.4-0.7-2c-0.5-0.5-1.1-0.8-1.8-0.7
			c-0.7,0-1.3,0.3-1.7,0.7c-0.5,0.5-0.7,1.2-0.7,1.9c0,0.7,0.2,1.4,0.7,1.9C-2614.3,2721.9-2613.6,2722.2-2613,2722.2z
			 M-2601,2712.5L-2601,2712.5c-0.2,0-0.3,0-0.4,0c-0.1,0-0.2,0-0.4,0c-0.1,0-0.2,0-0.4,0.1c-0.1,0-0.2,0.1-0.3,0.2
			c-0.1,0.1-0.2,0.2-0.3,0.3c-0.1,0.1-0.1,0.3-0.2,0.4c0,0.2-0.1,0.4-0.1,0.5v1h1.9v1.9h-1.9v7.1h-2.5v-7.1h-1.8v-1.9h1.8v-1
			c0-0.4,0-0.8,0.1-1.2c0.1-0.3,0.2-0.6,0.3-0.9c0.1-0.2,0.3-0.5,0.5-0.6c0.2-0.2,0.4-0.3,0.7-0.4c0.3-0.1,0.5-0.2,0.8-0.3
			c0.3-0.1,0.6-0.1,1-0.1c0.3,0,0.7,0,1.1,0L-2601,2712.5z M-2597.2,2716.4c0.3-0.5,0.7-0.8,1.2-1.1c0.5-0.3,1.1-0.5,1.8-0.5v2.3
			c-0.8-0.1-1.5,0.1-2.2,0.5c-0.5,0.5-0.7,1.2-0.7,1.9v4.4h-2.6v-9h2.4L-2597.2,2716.4z M-2592.2,2713.7l2.3-3.2l1.2,0.9l-2,2.4
			H-2592.2z M-2592.7,2724v-9h2.5v9H-2592.7z M-2583.4,2724.2c-0.9,0-1.8-0.2-2.6-0.6c-0.7-0.4-1.3-0.9-1.8-1.6
			c-0.4-0.8-0.7-1.6-0.6-2.5c-0.1-1.3,0.4-2.5,1.4-3.4c2.1-1.7,5.1-1.7,7.2,0c0.9,0.9,1.4,2.1,1.4,3.4c0.1,1.3-0.4,2.5-1.4,3.4
			C-2580.8,2723.8-2582,2724.2-2583.4,2724.2L-2583.4,2724.2z M-2583.4,2722.2c0.7,0,1.3-0.2,1.8-0.7c0.5-0.5,0.7-1.2,0.7-2
			c0-0.7-0.2-1.4-0.7-2c-0.5-0.5-1.1-0.8-1.8-0.7c-0.7,0-1.3,0.3-1.7,0.7c-0.5,0.5-0.7,1.2-0.7,1.9c0,0.7,0.2,1.4,0.7,1.9
			C-2584.7,2721.9-2584,2722.2-2583.4,2722.2L-2583.4,2722.2z M-2573.3,2724.2c-0.9,0-1.8-0.2-2.6-0.6c-0.7-0.4-1.2-1.1-1.3-1.9
			l2.1-0.6c0.2,0.8,1,1.4,1.8,1.3c0.3,0,0.6-0.1,0.9-0.2c0.2-0.1,0.4-0.4,0.4-0.7c0-0.2,0-0.3-0.1-0.5c-0.1-0.1-0.3-0.3-0.5-0.3
			c-0.2-0.1-0.4-0.2-0.6-0.2c-0.2-0.1-0.5-0.1-0.8-0.2s-0.6-0.2-0.8-0.3c-0.3-0.1-0.5-0.2-0.8-0.3c-0.2-0.1-0.5-0.3-0.7-0.5
			c-0.2-0.2-0.4-0.4-0.5-0.7c-0.1-0.3-0.2-0.6-0.2-1c0-0.8,0.3-1.6,1-2c0.8-0.5,1.7-0.7,2.6-0.7c0.8,0,1.6,0.2,2.4,0.6
			c0.6,0.4,1.1,1.1,1.2,1.8l-2,0.4c-0.2-0.7-0.9-1.2-1.6-1.1c-0.3,0-0.6,0.1-0.9,0.2c-0.2,0.1-0.4,0.3-0.4,0.6c0,0.1,0,0.2,0.1,0.3
			c0,0.1,0.1,0.2,0.2,0.2c0.1,0.1,0.2,0.1,0.3,0.2c0.1,0.1,0.2,0.1,0.4,0.1c0.2,0.1,0.3,0.1,0.4,0.1l0.5,0.1l0.5,0.1
			c0.3,0.1,0.6,0.2,0.8,0.3c0.3,0.1,0.5,0.2,0.8,0.4c0.3,0.1,0.5,0.3,0.7,0.5c0.2,0.2,0.3,0.5,0.4,0.7c0.1,0.3,0.2,0.7,0.2,1
			c0,0.5-0.1,0.9-0.3,1.3c-0.2,0.4-0.5,0.7-0.8,0.9c-0.4,0.2-0.8,0.4-1.2,0.5C-2572.4,2724.1-2572.9,2724.2-2573.3,2724.2
			L-2573.3,2724.2z M-2718.8,2736.6h2.6l-5.6,13.3h-2.6l2.1-4.6l-3.7-8.7h2.8l2.2,5.9L-2718.8,2736.6z M-2699.5,2736.4
			c0.8,0,1.7,0.2,2.3,0.7c0.6,0.5,0.9,1.3,0.9,2.1v6.4h-2.5v-5.7c0-0.4-0.1-0.8-0.4-1.1c-0.3-0.3-0.6-0.4-1-0.4
			c-0.5,0-0.9,0.2-1.2,0.5c-0.4,0.4-0.5,1-0.5,1.6v5.1h-2.6v-5.6c0-0.4-0.1-0.8-0.4-1.2c-0.3-0.3-0.7-0.4-1-0.4
			c-0.5,0-0.9,0.2-1.2,0.5c-0.4,0.5-0.5,1.1-0.5,1.7v5h-2.5v-9h2.5v1.1c0.6-0.8,1.6-1.3,2.6-1.2c0.6,0,1.2,0.1,1.7,0.3
			c0.5,0.2,0.8,0.6,1.1,1C-2701.6,2736.8-2700.6,2736.3-2699.5,2736.4L-2699.5,2736.4z M-2686.4,2743.1c0,0.7,0.1,1.5,0.2,2.2v0.2
			h-2.4l-0.2-1c-0.3,0.4-0.8,0.7-1.3,0.9c-0.5,0.2-1.1,0.3-1.6,0.3c-0.3,0-0.6,0-0.8-0.1c-0.3-0.1-0.5-0.1-0.8-0.3
			c-0.2-0.1-0.4-0.3-0.6-0.5c-0.2-0.2-0.3-0.5-0.4-0.7c-0.1-0.3-0.2-0.6-0.2-1c0-0.3,0.1-0.7,0.2-1c0.1-0.3,0.2-0.5,0.4-0.7
			c0.2-0.2,0.4-0.4,0.7-0.5c0.3-0.2,0.6-0.3,0.9-0.4c0.4-0.1,0.7-0.2,1.1-0.3l1.5-0.3c0.2,0,0.5-0.1,0.7-0.3
			c0.1-0.1,0.2-0.3,0.2-0.5c0-0.4-0.1-0.7-0.4-0.9c-0.3-0.2-0.7-0.3-1.1-0.3c-0.8-0.1-1.6,0.5-1.8,1.3c0,0,0,0,0,0.1l-2.2-0.4
			c0.1-0.8,0.6-1.6,1.3-2.1c0.9-0.5,1.8-0.7,2.8-0.7c2.5,0,3.8,1.1,3.8,3.3L-2686.4,2743.1z M-2690.9,2744.1c0.6,0,1.2-0.2,1.6-0.7
			c0.4-0.5,0.7-1.2,0.6-1.9l-2.1,0.6c-0.3,0.1-0.6,0.2-0.9,0.4c-0.2,0.2-0.3,0.4-0.3,0.6c0,0.3,0.1,0.5,0.3,0.7
			C-2691.5,2744-2691.2,2744.1-2690.9,2744.1L-2690.9,2744.1z M-2684,2745.6v-13.5h2.6v13.5H-2684z M-2670.3,2741l0,0.6h-6.7
			c0,0.6,0.3,1.2,0.7,1.7c0.4,0.4,1,0.6,1.6,0.6c0.4,0,0.8-0.1,1.2-0.3c0.3-0.2,0.6-0.5,0.8-0.9l2.3,0.3c-0.3,0.9-0.8,1.6-1.6,2.1
			c-0.8,0.5-1.7,0.8-2.7,0.8c-1.3,0.1-2.6-0.4-3.5-1.2c-0.9-0.9-1.4-2.2-1.3-3.4c-0.1-1.3,0.4-2.5,1.3-3.4c0.9-0.9,2.2-1.3,3.4-1.3
			c2.3-0.2,4.3,1.5,4.5,3.8C-2670.2,2740.4-2670.2,2740.7-2670.3,2741L-2670.3,2741z M-2674.7,2738.2c-1.1-0.1-2.1,0.7-2.2,1.7h4.1
			c0-0.5-0.3-1-0.6-1.3C-2673.8,2738.3-2674.3,2738.1-2674.7,2738.2L-2674.7,2738.2z M-2665.2,2745.8c-0.9,0-1.8-0.2-2.6-0.6
			c-0.7-0.4-1.2-1.1-1.3-1.9l2.1-0.6c0.2,0.8,1,1.4,1.8,1.3c0.3,0,0.6-0.1,0.9-0.2c0.2-0.1,0.4-0.4,0.4-0.7c0-0.2,0-0.3-0.1-0.5
			c-0.1-0.1-0.3-0.3-0.5-0.3c-0.2-0.1-0.4-0.2-0.6-0.2c-0.2-0.1-0.5-0.1-0.8-0.2c-0.3-0.1-0.6-0.2-0.8-0.3c-0.3-0.1-0.5-0.2-0.8-0.3
			c-0.2-0.1-0.5-0.3-0.7-0.5c-0.2-0.2-0.4-0.4-0.5-0.7c-0.1-0.3-0.2-0.6-0.2-1c0-0.8,0.3-1.6,1-2c0.8-0.5,1.7-0.7,2.6-0.7
			c0.8,0,1.6,0.2,2.4,0.6c0.6,0.4,1.1,1.1,1.2,1.8l-2,0.4c-0.2-0.7-0.9-1.2-1.6-1.1c-0.3,0-0.6,0.1-0.9,0.2
			c-0.2,0.1-0.4,0.3-0.4,0.6c0,0.1,0,0.2,0.1,0.3c0,0.1,0.1,0.2,0.2,0.2c0.1,0.1,0.2,0.1,0.3,0.2c0.1,0.1,0.2,0.1,0.4,0.1
			c0.2,0.1,0.3,0.1,0.4,0.1l0.5,0.1l0.5,0.1c0.3,0.1,0.6,0.2,0.8,0.3c0.3,0.1,0.5,0.2,0.8,0.4c0.3,0.1,0.5,0.3,0.7,0.5
			c0.2,0.2,0.3,0.5,0.4,0.7c0.1,0.3,0.2,0.7,0.2,1c0,0.5-0.1,0.9-0.3,1.3c-0.2,0.4-0.5,0.7-0.8,0.9c-0.4,0.2-0.8,0.4-1.2,0.5
			C-2664.2,2745.7-2664.7,2745.8-2665.2,2745.8L-2665.2,2745.8z M-2656.3,2745.6c-0.8,0-1.5-0.2-2-0.7c-0.5-0.6-0.8-1.3-0.7-2.1
			v-4.3h-1.8v-1.9h0.6c0.4,0,0.8-0.1,1.1-0.4c0.3-0.4,0.4-0.9,0.4-1.3v-1.2h2.3v2.9h1.9v1.9h-1.9v4c0,0.8,0.3,1.2,1,1.2h0.8v1.9
			H-2656.3z M-2645.3,2743.1c0,0.7,0.1,1.5,0.2,2.2v0.2h-2.4l-0.2-1c-0.3,0.4-0.8,0.7-1.3,0.9c-0.5,0.2-1.1,0.3-1.6,0.3
			c-0.3,0-0.6,0-0.8-0.1c-0.3-0.1-0.5-0.1-0.8-0.3c-0.2-0.1-0.4-0.3-0.6-0.5c-0.2-0.2-0.3-0.5-0.4-0.7c-0.1-0.3-0.2-0.6-0.2-1
			c0-0.3,0.1-0.7,0.2-1c0.1-0.3,0.2-0.5,0.4-0.7c0.2-0.2,0.4-0.4,0.7-0.5c0.3-0.2,0.6-0.3,0.9-0.4c0.4-0.1,0.7-0.2,1.1-0.3l1.5-0.3
			c0.2,0,0.5-0.1,0.7-0.3c0.1-0.1,0.2-0.3,0.2-0.5c0-0.4-0.1-0.7-0.4-0.9c-0.3-0.2-0.7-0.3-1.1-0.3c-0.8-0.1-1.6,0.5-1.8,1.3
			c0,0,0,0,0,0.1l-2.2-0.4c0.1-0.8,0.6-1.6,1.3-2.1c0.9-0.5,1.8-0.7,2.8-0.7c2.5,0,3.8,1.1,3.8,3.3L-2645.3,2743.1z M-2649.7,2744.1
			c0.6,0,1.2-0.2,1.6-0.7c0.4-0.5,0.7-1.2,0.6-1.9l-2.1,0.6c-0.3,0.1-0.6,0.2-0.9,0.4c-0.2,0.2-0.3,0.4-0.3,0.6
			c0,0.3,0.1,0.5,0.3,0.7C-2650.3,2744-2650,2744.1-2649.7,2744.1L-2649.7,2744.1z M-2640.4,2738c0.3-0.5,0.7-0.8,1.2-1.1
			c0.5-0.3,1.1-0.5,1.8-0.5v2.3c-0.8-0.1-1.5,0.1-2.2,0.5c-0.5,0.5-0.7,1.2-0.7,1.9v4.4h-2.5v-9h2.4L-2640.4,2738z M-2625,2736.6
			h2.4v8.4c0,0.8-0.1,1.5-0.3,2.2c-0.2,0.6-0.5,1.1-1,1.5c-0.4,0.4-0.9,0.7-1.5,0.9c-0.6,0.2-1.3,0.3-2,0.3c-2.4,0-3.9-0.9-4.7-2.8
			l2.1-0.9c0.2,0.5,0.5,1,1,1.3c0.4,0.3,1,0.4,1.5,0.4c1.6,0,2.3-0.9,2.3-2.8v-1.1c-0.3,0.4-0.7,0.7-1.1,0.9c-0.5,0.2-1,0.3-1.6,0.3
			c-1.1,0-2.1-0.4-2.9-1.2c-0.4-0.4-0.7-0.9-0.9-1.4c-0.4-1.2-0.4-2.5,0-3.7c0.2-0.5,0.5-1,0.9-1.4c0.4-0.4,0.8-0.7,1.3-0.9
			c0.5-0.2,1.1-0.3,1.6-0.3c0.6,0,1.2,0.1,1.7,0.4c0.5,0.2,0.9,0.6,1.1,1L-2625,2736.6z M-2628.9,2742.5c0.9,0.9,2.4,0.9,3.3,0
			c0,0,0,0,0,0c0.9-1,0.9-2.5,0-3.4c-0.9-0.9-2.4-0.9-3.3,0c0,0,0,0,0,0c-0.4,0.5-0.7,1.1-0.7,1.7
			C-2629.6,2741.5-2629.4,2742.1-2628.9,2742.5L-2628.9,2742.5z M-2611.5,2741l0,0.6h-6.7c0,0.6,0.3,1.2,0.7,1.7
			c0.4,0.4,1,0.6,1.6,0.6c0.4,0,0.8-0.1,1.2-0.3c0.3-0.2,0.6-0.5,0.8-0.9l2.3,0.3c-0.3,0.9-0.8,1.6-1.6,2.1
			c-0.8,0.5-1.7,0.8-2.7,0.8c-1.3,0.1-2.6-0.4-3.5-1.2c-0.9-0.9-1.4-2.2-1.3-3.4c-0.1-1.3,0.4-2.5,1.3-3.4c0.9-0.9,2.2-1.3,3.4-1.3
			c2.3-0.2,4.3,1.5,4.5,3.8C-2611.5,2740.4-2611.5,2740.7-2611.5,2741L-2611.5,2741z M-2616,2738.2c-1.1-0.1-2.1,0.7-2.2,1.7h4.1
			c0-0.5-0.3-1-0.6-1.3C-2615,2738.3-2615.5,2738.1-2616,2738.2L-2616,2738.2z M-2604.2,2736.4c0.9-0.1,1.8,0.2,2.5,0.8
			c0.6,0.6,0.9,1.5,0.9,2.3v6.1h-2.5v-5.5c0-0.5-0.1-0.9-0.5-1.2c-0.3-0.3-0.7-0.4-1.2-0.4c-0.3,0-0.5,0-0.8,0.1
			c-0.2,0.1-0.4,0.2-0.6,0.4c-0.2,0.2-0.4,0.4-0.5,0.7c-0.1,0.3-0.2,0.7-0.2,1v5h-2.5v-9h2.5v1
			C-2606.3,2736.8-2605.3,2736.3-2604.2,2736.4L-2604.2,2736.4z M-2589.9,2741l0,0.6h-6.7c0,0.6,0.3,1.2,0.7,1.7
			c0.4,0.4,1,0.6,1.6,0.6c0.4,0,0.8-0.1,1.2-0.3c0.3-0.2,0.6-0.5,0.8-0.9l2.3,0.3c-0.3,0.9-0.8,1.6-1.6,2.1
			c-0.8,0.5-1.7,0.8-2.7,0.8c-1.3,0.1-2.6-0.4-3.5-1.2c-0.9-0.9-1.4-2.2-1.3-3.4c-0.1-1.3,0.4-2.5,1.3-3.4c0.9-0.9,2.2-1.3,3.4-1.3
			c2.3-0.2,4.3,1.5,4.5,3.8C-2589.9,2740.4-2589.9,2740.7-2589.9,2741L-2589.9,2741z M-2594.4,2738.2c-1.1-0.1-2.1,0.7-2.2,1.7h4.1
			c0-0.5-0.3-1-0.6-1.3C-2593.4,2738.3-2593.9,2738.1-2594.4,2738.2L-2594.4,2738.2z M-2585.6,2738c0.3-0.5,0.7-0.8,1.2-1.1
			c0.5-0.3,1.1-0.5,1.8-0.5v2.3c-0.8-0.1-1.5,0.1-2.2,0.5c-0.5,0.5-0.7,1.2-0.7,1.9v4.4h-2.5v-9h2.4L-2585.6,2738z M-2573.8,2743.1
			c0,0.7,0.1,1.5,0.2,2.2v0.2h-2.4l-0.2-1c-0.3,0.4-0.8,0.7-1.3,0.9c-0.5,0.2-1.1,0.3-1.6,0.3c-0.3,0-0.6,0-0.8-0.1
			c-0.3-0.1-0.5-0.1-0.8-0.3c-0.2-0.1-0.4-0.3-0.6-0.5c-0.2-0.2-0.3-0.5-0.4-0.7c-0.1-0.3-0.2-0.6-0.2-1c0-0.3,0.1-0.7,0.2-1
			c0.1-0.3,0.2-0.5,0.4-0.7c0.2-0.2,0.4-0.4,0.7-0.5c0.3-0.2,0.6-0.3,0.9-0.4c0.4-0.1,0.7-0.2,1.1-0.3l1.5-0.3
			c0.2,0,0.5-0.1,0.7-0.3c0.1-0.1,0.2-0.3,0.2-0.5c0-0.4-0.1-0.7-0.4-0.9c-0.3-0.2-0.7-0.3-1.1-0.3c-0.8-0.1-1.6,0.5-1.8,1.3
			c0,0,0,0,0,0.1l-2.2-0.4c0.1-0.8,0.6-1.6,1.3-2.1c0.9-0.5,1.8-0.7,2.8-0.7c2.5,0,3.8,1.1,3.8,3.3L-2573.8,2743.1z M-2578.2,2744.1
			c0.6,0,1.2-0.2,1.6-0.7c0.4-0.5,0.7-1.2,0.6-1.9l-2.1,0.6c-0.3,0.1-0.6,0.2-0.9,0.4c-0.2,0.2-0.3,0.4-0.3,0.6
			c0,0.3,0.1,0.5,0.3,0.7C-2578.8,2744-2578.5,2744.1-2578.2,2744.1L-2578.2,2744.1z M-2571.3,2745.6v-13.5h2.6v13.5L-2571.3,2745.6
			z"/>
		<path id="Trazado_6561" d="M-2711.1,2865.2c-1.2,0-2.5-0.3-3.5-1c-0.9-0.6-1.6-1.6-1.7-2.7l2.7-0.6c0.1,0.6,0.4,1.2,0.8,1.6
			c0.5,0.4,1.1,0.6,1.8,0.6c0.5,0,1-0.1,1.4-0.4c0.4-0.3,0.6-0.7,0.5-1.2c0-0.4-0.2-0.7-0.4-0.9c-0.3-0.2-0.6-0.4-0.9-0.6
			c-0.3-0.1-0.8-0.3-1.4-0.5c-0.1,0-0.2-0.1-0.2-0.1c-0.3-0.1-0.6-0.2-0.8-0.3c-0.2-0.1-0.5-0.2-0.8-0.3c-0.3-0.1-0.5-0.2-0.7-0.4
			c-0.2-0.1-0.4-0.3-0.6-0.4c-0.2-0.2-0.4-0.4-0.5-0.6c-0.1-0.2-0.2-0.5-0.3-0.7c-0.1-0.3-0.1-0.6-0.1-0.9c0-0.7,0.2-1.4,0.6-2
			c0.4-0.6,1-1,1.6-1.3c0.7-0.3,1.5-0.4,2.3-0.4c0.6,0,1.1,0.1,1.7,0.2c0.5,0.1,1,0.3,1.5,0.6c0.5,0.3,0.9,0.6,1.2,1
			c0.3,0.5,0.6,1,0.7,1.5l-2.5,0.6c-0.1-1.1-1.1-2-2.3-1.8c0,0,0,0,0,0c-0.5,0-1,0.1-1.4,0.4c-0.4,0.2-0.6,0.7-0.6,1.1
			c0,0.5,0.3,0.8,0.9,1.1c0.6,0.2,1.2,0.4,1.8,0.6c0.3,0.1,0.6,0.2,0.8,0.3c0.2,0.1,0.5,0.2,0.8,0.3c0.3,0.1,0.5,0.2,0.8,0.4
			c0.2,0.1,0.5,0.3,0.7,0.5c0.2,0.2,0.4,0.4,0.6,0.6c0.1,0.2,0.3,0.5,0.3,0.8c0.1,0.3,0.1,0.6,0.1,1c0,0.5-0.1,1-0.3,1.4
			c-0.2,0.4-0.4,0.8-0.7,1.1c-0.3,0.3-0.7,0.6-1,0.7c-0.4,0.2-0.8,0.4-1.3,0.4C-2710.2,2865.1-2710.7,2865.2-2711.1,2865.2z
			 M-2703.8,2854.7l2.3-3.2l1.2,0.9l-2,2.4H-2703.8z M-2704.3,2865v-9h2.5v9H-2704.3z M-2693.8,2855.8c0.9-0.1,1.8,0.2,2.5,0.8
			c0.6,0.6,0.9,1.5,0.9,2.3v6.1h-2.5v-5.5c0-0.5-0.1-0.9-0.5-1.2c-0.3-0.3-0.7-0.4-1.2-0.4c-0.3,0-0.5,0-0.8,0.1
			c-0.2,0.1-0.4,0.2-0.6,0.4c-0.2,0.2-0.4,0.4-0.5,0.7c-0.1,0.3-0.2,0.7-0.2,1v5h-2.5v-9h2.5v1
			C-2695.9,2856.2-2694.9,2855.7-2693.8,2855.8L-2693.8,2855.8z M-2684.6,2865c-0.8,0-1.5-0.2-2-0.7c-0.5-0.6-0.8-1.3-0.7-2.1v-4.3
			h-1.8v-1.9h0.6c0.4,0,0.8-0.1,1.1-0.4c0.3-0.4,0.4-0.9,0.4-1.3v-1.2h2.3v2.9h1.9v1.9h-1.9v4c0,0.8,0.3,1.2,1,1.2h0.8v1.9H-2684.6z
			 M-2676.8,2865.2c-0.9,0-1.8-0.2-2.6-0.6c-0.7-0.4-1.3-0.9-1.8-1.6c-0.4-0.8-0.7-1.6-0.6-2.5c-0.1-1.3,0.4-2.5,1.4-3.4
			c1-0.9,2.3-1.3,3.6-1.3c1.3-0.1,2.6,0.4,3.6,1.3c0.9,0.9,1.4,2.1,1.4,3.4c0.1,1.3-0.4,2.5-1.4,3.4
			C-2674.2,2864.8-2675.5,2865.2-2676.8,2865.2z M-2676.8,2863.2c0.7,0,1.3-0.2,1.8-0.7c0.5-0.5,0.7-1.2,0.7-2c0-0.7-0.2-1.4-0.7-2
			c-0.5-0.5-1.1-0.8-1.8-0.7c-0.7,0-1.3,0.3-1.7,0.7c-0.5,0.5-0.7,1.2-0.7,1.9c0,0.7,0.2,1.4,0.7,1.9
			C-2678.1,2862.9-2677.5,2863.2-2676.8,2863.2L-2676.8,2863.2z M-2659.3,2855.8c0.8,0,1.7,0.2,2.3,0.7c0.6,0.5,0.9,1.3,0.9,2.1v6.4
			h-2.5v-5.7c0-0.4-0.1-0.8-0.4-1.1c-0.3-0.3-0.6-0.4-1-0.4c-0.5,0-0.9,0.2-1.2,0.5c-0.4,0.4-0.5,1-0.5,1.6v5.1h-2.6v-5.6
			c0-0.4-0.1-0.8-0.4-1.2c-0.3-0.3-0.7-0.4-1-0.4c-0.5,0-0.9,0.2-1.2,0.5c-0.4,0.5-0.5,1.1-0.5,1.7v5h-2.5v-9h2.5v1.1
			c0.6-0.8,1.6-1.3,2.6-1.2c0.6,0,1.2,0.1,1.7,0.3c0.5,0.2,0.8,0.6,1.1,1C-2661.4,2856.2-2660.4,2855.7-2659.3,2855.8z
			 M-2646.2,2862.5c0,0.7,0.1,1.5,0.2,2.2v0.2h-2.4l-0.2-1c-0.3,0.4-0.8,0.7-1.3,0.9c-0.5,0.2-1.1,0.3-1.6,0.3c-0.3,0-0.6,0-0.8-0.1
			c-0.3-0.1-0.5-0.1-0.8-0.3c-0.2-0.1-0.4-0.3-0.6-0.5c-0.2-0.2-0.3-0.5-0.4-0.7c-0.1-0.3-0.2-0.6-0.2-1c0-0.3,0.1-0.7,0.2-1
			c0.1-0.3,0.2-0.5,0.4-0.7c0.2-0.2,0.4-0.4,0.7-0.5c0.3-0.2,0.6-0.3,0.9-0.4c0.4-0.1,0.7-0.2,1.1-0.3l1.5-0.3
			c0.2,0,0.5-0.1,0.7-0.3c0.1-0.1,0.2-0.3,0.2-0.5c0-0.4-0.1-0.7-0.4-0.9c-0.3-0.2-0.7-0.3-1.1-0.3c-0.8-0.1-1.6,0.5-1.8,1.3
			c0,0,0,0,0,0.1l-2.2-0.4c0.1-0.8,0.6-1.6,1.3-2.1c0.9-0.5,1.8-0.7,2.8-0.7c2.5,0,3.8,1.1,3.8,3.3V2862.5z M-2650.7,2863.5
			c0.6,0,1.2-0.2,1.6-0.7c0.4-0.5,0.7-1.2,0.6-1.9l-2.1,0.6c-0.3,0.1-0.6,0.2-0.9,0.4c-0.2,0.2-0.3,0.4-0.3,0.6
			c0,0.3,0.1,0.5,0.3,0.7C-2651.3,2863.4-2651,2863.5-2650.7,2863.5L-2650.7,2863.5z M-2640.6,2865.2c-0.9,0-1.8-0.2-2.6-0.6
			c-0.7-0.4-1.2-1.1-1.3-1.9l2.1-0.6c0.2,0.8,1,1.4,1.8,1.3c0.3,0,0.6-0.1,0.9-0.2c0.2-0.1,0.4-0.4,0.4-0.7c0-0.2,0-0.3-0.1-0.5
			c-0.1-0.1-0.3-0.3-0.5-0.3c-0.2-0.1-0.4-0.2-0.6-0.2c-0.2-0.1-0.5-0.1-0.8-0.2c-0.3-0.1-0.6-0.2-0.8-0.3c-0.3-0.1-0.5-0.2-0.8-0.3
			c-0.2-0.1-0.5-0.3-0.7-0.5c-0.2-0.2-0.4-0.4-0.5-0.7c-0.1-0.3-0.2-0.6-0.2-1c0-0.8,0.3-1.6,1-2c0.8-0.5,1.7-0.7,2.6-0.7
			c0.8,0,1.6,0.2,2.4,0.6c0.6,0.4,1.1,1.1,1.2,1.8l-2,0.4c-0.2-0.7-0.9-1.2-1.6-1.1c-0.3,0-0.6,0.1-0.9,0.2
			c-0.2,0.1-0.4,0.3-0.4,0.6c0,0.1,0,0.2,0.1,0.3c0,0.1,0.1,0.2,0.2,0.2c0.1,0.1,0.2,0.1,0.3,0.2c0.1,0.1,0.2,0.1,0.4,0.1
			c0.2,0.1,0.3,0.1,0.4,0.1l0.5,0.1l0.5,0.1c0.3,0.1,0.6,0.2,0.8,0.3c0.3,0.1,0.5,0.2,0.8,0.4c0.3,0.1,0.5,0.3,0.7,0.5
			c0.2,0.2,0.3,0.5,0.4,0.7c0.1,0.3,0.2,0.7,0.2,1c0,0.5-0.1,0.9-0.3,1.3c-0.2,0.4-0.5,0.7-0.8,0.9c-0.4,0.2-0.8,0.4-1.2,0.5
			C-2639.6,2865.1-2640.1,2865.2-2640.6,2865.2L-2640.6,2865.2z M-2709.5,2878h2.4v8.4c0,0.8-0.1,1.5-0.3,2.2
			c-0.2,0.6-0.5,1.1-1,1.5c-0.4,0.4-0.9,0.7-1.5,0.9c-0.6,0.2-1.3,0.3-2,0.3c-2.4,0-3.9-0.9-4.7-2.8l2.1-0.9c0.2,0.5,0.5,1,1,1.3
			c0.4,0.3,1,0.4,1.5,0.4c1.6,0,2.3-0.9,2.3-2.8v-1.1c-0.3,0.4-0.7,0.7-1.1,0.9c-0.5,0.2-1,0.3-1.6,0.3c-1.1,0-2.1-0.4-2.9-1.2
			c-0.4-0.4-0.7-0.9-0.9-1.4c-0.4-1.2-0.4-2.5,0-3.7c0.2-0.5,0.5-1,0.9-1.4c0.4-0.4,0.8-0.7,1.3-0.9c0.5-0.2,1.1-0.3,1.6-0.3
			c0.6,0,1.2,0.1,1.7,0.4c0.5,0.2,0.9,0.6,1.1,1L-2709.5,2878z M-2713.3,2883.9c0.4,0.5,1,0.7,1.7,0.7c0.6,0,1.2-0.2,1.7-0.7
			c0.9-1,0.9-2.5,0-3.4c-0.4-0.5-1-0.7-1.7-0.7c-0.6,0-1.2,0.2-1.7,0.7c-0.4,0.5-0.7,1.1-0.7,1.7
			C-2714,2882.9-2713.8,2883.5-2713.3,2883.9L-2713.3,2883.9z M-2697,2884.5c0,0.7,0.1,1.5,0.2,2.2v0.2h-2.4l-0.2-1
			c-0.3,0.4-0.8,0.7-1.3,0.9c-0.5,0.2-1.1,0.3-1.6,0.3c-0.3,0-0.6,0-0.8-0.1c-0.3-0.1-0.5-0.1-0.8-0.3c-0.2-0.1-0.4-0.3-0.6-0.5
			c-0.2-0.2-0.3-0.5-0.4-0.7c-0.1-0.3-0.2-0.6-0.2-1c0-0.3,0.1-0.7,0.2-1c0.1-0.3,0.2-0.5,0.4-0.7c0.2-0.2,0.4-0.4,0.7-0.5
			c0.3-0.2,0.6-0.3,0.9-0.4c0.4-0.1,0.7-0.2,1.1-0.3l1.5-0.3c0.2,0,0.5-0.1,0.7-0.3c0.1-0.1,0.2-0.3,0.2-0.5c0-0.4-0.1-0.7-0.4-0.9
			c-0.3-0.2-0.7-0.3-1.1-0.3c-0.8-0.1-1.6,0.5-1.8,1.3c0,0,0,0,0,0.1l-2.2-0.4c0.1-0.8,0.6-1.6,1.3-2.1c0.9-0.5,1.8-0.7,2.8-0.7
			c2.5,0,3.8,1.1,3.8,3.3L-2697,2884.5z M-2701.5,2885.5c0.6,0,1.2-0.2,1.6-0.7c0.4-0.5,0.7-1.2,0.6-1.9l-2.1,0.6
			c-0.3,0.1-0.6,0.2-0.9,0.4c-0.2,0.2-0.3,0.4-0.3,0.6c0,0.3,0.1,0.5,0.3,0.7C-2702.1,2885.4-2701.8,2885.5-2701.5,2885.5
			L-2701.5,2885.5z M-2691.4,2887.2c-0.9,0-1.8-0.2-2.6-0.6c-0.7-0.4-1.2-1.1-1.3-1.9l2.1-0.6c0.2,0.8,1,1.4,1.8,1.3
			c0.3,0,0.6-0.1,0.9-0.2c0.2-0.1,0.4-0.4,0.4-0.7c0-0.2,0-0.3-0.1-0.5c-0.1-0.1-0.3-0.3-0.5-0.3c-0.2-0.1-0.4-0.2-0.6-0.2
			c-0.2-0.1-0.5-0.1-0.8-0.2c-0.3-0.1-0.6-0.2-0.8-0.3c-0.3-0.1-0.5-0.2-0.8-0.3c-0.2-0.1-0.5-0.3-0.7-0.5c-0.2-0.2-0.4-0.4-0.5-0.7
			c-0.1-0.3-0.2-0.6-0.2-1c0-0.8,0.3-1.6,1-2c0.8-0.5,1.7-0.7,2.6-0.7c0.8,0,1.6,0.2,2.4,0.6c0.6,0.4,1.1,1.1,1.2,1.8l-2,0.4
			c-0.2-0.7-0.9-1.2-1.6-1.1c-0.3,0-0.6,0.1-0.9,0.2c-0.2,0.1-0.4,0.3-0.4,0.6c0,0.1,0,0.2,0.1,0.3c0,0.1,0.1,0.2,0.2,0.2
			c0.1,0.1,0.2,0.1,0.3,0.2c0.1,0.1,0.2,0.1,0.4,0.1c0.2,0.1,0.3,0.1,0.4,0.1l0.5,0.1l0.5,0.1c0.3,0.1,0.6,0.2,0.8,0.3
			c0.3,0.1,0.5,0.2,0.8,0.4c0.3,0.1,0.5,0.3,0.7,0.5c0.2,0.2,0.3,0.5,0.4,0.7c0.1,0.3,0.2,0.7,0.2,1c0,0.5-0.1,0.9-0.3,1.3
			c-0.2,0.4-0.5,0.7-0.8,0.9c-0.4,0.2-0.8,0.4-1.2,0.5C-2690.4,2887.1-2690.9,2887.2-2691.4,2887.2L-2691.4,2887.2z M-2682.5,2887
			c-0.8,0-1.5-0.2-2-0.7c-0.5-0.6-0.8-1.3-0.7-2.1v-4.3h-1.8v-1.9h0.6c0.4,0,0.8-0.1,1.1-0.4c0.3-0.4,0.4-0.9,0.4-1.3v-1.2h2.3v2.9
			h1.9v1.9h-1.9v4c0,0.8,0.3,1.2,1,1.2h0.8v1.9H-2682.5z M-2676.4,2879.4c0.3-0.5,0.7-0.8,1.2-1.1c0.5-0.3,1.1-0.5,1.8-0.5v2.3
			c-0.8-0.1-1.5,0.1-2.2,0.5c-0.5,0.5-0.7,1.2-0.7,1.9v4.4h-2.5v-9h2.4L-2676.4,2879.4z M-2667.8,2887.2c-0.9,0-1.8-0.2-2.6-0.6
			c-0.7-0.4-1.3-0.9-1.8-1.6c-0.4-0.8-0.7-1.6-0.6-2.5c-0.1-1.3,0.4-2.5,1.4-3.4c2.1-1.7,5.1-1.7,7.2,0c0.9,0.9,1.4,2.1,1.4,3.4
			c0.1,1.3-0.4,2.5-1.4,3.4C-2665.2,2886.8-2666.5,2887.2-2667.8,2887.2L-2667.8,2887.2z M-2667.8,2885.2c0.7,0,1.3-0.2,1.8-0.7
			c0.9-1.1,0.9-2.8,0-3.9c-0.5-0.5-1.1-0.8-1.8-0.7c-0.7,0-1.3,0.3-1.7,0.7c-0.9,1.1-0.9,2.8,0,3.9
			C-2669.1,2884.9-2668.5,2885.2-2667.8,2885.2L-2667.8,2885.2z M-2659.7,2876.6c-0.4,0-0.8-0.1-1-0.4c-0.3-0.3-0.4-0.6-0.4-1
			c0-0.4,0.2-0.8,0.4-1c0.3-0.3,0.6-0.4,1-0.4c0.8,0,1.4,0.7,1.4,1.5C-2658.3,2876-2658.9,2876.6-2659.7,2876.6L-2659.7,2876.6z
			 M-2661,2887v-9h2.5v9H-2661z M-2650.5,2877.8c0.9-0.1,1.8,0.2,2.5,0.8c0.6,0.6,0.9,1.5,0.9,2.3v6.1h-2.5v-5.5
			c0-0.5-0.1-0.9-0.5-1.2c-0.3-0.3-0.7-0.4-1.2-0.4c-0.3,0-0.5,0-0.8,0.1c-0.2,0.1-0.4,0.2-0.6,0.4c-0.2,0.2-0.4,0.4-0.5,0.7
			c-0.1,0.3-0.2,0.7-0.2,1v5h-2.5v-9h2.5v1C-2652.6,2878.2-2651.5,2877.7-2650.5,2877.8L-2650.5,2877.8z M-2641.3,2887
			c-0.8,0-1.5-0.2-2-0.7c-0.5-0.6-0.8-1.3-0.7-2.1v-4.3h-1.8v-1.9h0.6c0.4,0,0.8-0.1,1.1-0.4c0.3-0.4,0.4-0.9,0.4-1.3v-1.2h2.3v2.9
			h1.9v1.9h-1.9v4c0,0.8,0.3,1.2,1,1.2h0.8v1.9H-2641.3z M-2629.2,2882.4l0,0.6h-6.7c0,0.6,0.3,1.2,0.7,1.7c0.4,0.4,1,0.6,1.6,0.6
			c0.4,0,0.8-0.1,1.2-0.3c0.3-0.2,0.6-0.5,0.8-0.9l2.3,0.3c-0.3,0.9-0.8,1.6-1.6,2.1c-0.8,0.5-1.7,0.8-2.7,0.8
			c-1.3,0.1-2.6-0.4-3.5-1.2c-0.9-0.9-1.4-2.2-1.3-3.4c-0.1-1.3,0.4-2.5,1.3-3.4c0.9-0.9,2.2-1.3,3.4-1.3c2.3-0.2,4.3,1.5,4.5,3.8
			C-2629.2,2881.8-2629.2,2882.1-2629.2,2882.4L-2629.2,2882.4z M-2633.7,2879.6c-1.1-0.1-2.1,0.7-2.2,1.7h4.1c0-0.5-0.3-1-0.6-1.3
			C-2632.7,2879.7-2633.2,2879.5-2633.7,2879.6L-2633.7,2879.6z M-2624.1,2887.2c-0.9,0-1.8-0.2-2.6-0.6c-0.7-0.4-1.2-1.1-1.3-1.9
			l2.1-0.6c0.2,0.8,1,1.4,1.8,1.3c0.3,0,0.6-0.1,0.9-0.2c0.2-0.1,0.4-0.4,0.4-0.7c0-0.2,0-0.3-0.1-0.5c-0.1-0.1-0.3-0.3-0.5-0.3
			c-0.2-0.1-0.4-0.2-0.6-0.2c-0.2-0.1-0.5-0.1-0.8-0.2c-0.3-0.1-0.6-0.2-0.8-0.3c-0.3-0.1-0.5-0.2-0.8-0.3c-0.2-0.1-0.5-0.3-0.7-0.5
			c-0.2-0.2-0.4-0.4-0.5-0.7c-0.1-0.3-0.2-0.6-0.2-1c0-0.8,0.3-1.6,1-2c0.8-0.5,1.7-0.7,2.6-0.7c0.8,0,1.6,0.2,2.4,0.6
			c0.6,0.4,1.1,1.1,1.2,1.8l-2,0.4c-0.2-0.7-0.9-1.2-1.6-1.1c-0.3,0-0.6,0.1-0.9,0.2c-0.2,0.1-0.4,0.3-0.4,0.6c0,0.1,0,0.2,0.1,0.3
			c0,0.1,0.1,0.2,0.2,0.2c0.1,0.1,0.2,0.1,0.3,0.2c0.1,0.1,0.2,0.1,0.4,0.1c0.2,0.1,0.3,0.1,0.4,0.1l0.5,0.1l0.5,0.1
			c0.3,0.1,0.6,0.2,0.8,0.3c0.3,0.1,0.5,0.2,0.8,0.4c0.3,0.1,0.5,0.3,0.7,0.5c0.2,0.2,0.3,0.5,0.4,0.7c0.1,0.3,0.2,0.7,0.2,1
			c0,0.5-0.1,0.9-0.3,1.3c-0.2,0.4-0.5,0.7-0.8,0.9c-0.4,0.2-0.8,0.4-1.2,0.5C-2623.1,2887.1-2623.6,2887.2-2624.1,2887.2z
			 M-2615.2,2887c-0.8,0-1.5-0.2-2-0.7c-0.5-0.6-0.8-1.3-0.7-2.1v-4.3h-1.8v-1.9h0.6c0.4,0,0.8-0.1,1.1-0.4c0.3-0.4,0.4-0.9,0.4-1.3
			v-1.2h2.3v2.9h1.9v1.9h-1.9v4c0,0.8,0.3,1.2,1,1.2h0.8v1.9H-2615.2z M-2610.3,2876.6c-0.4,0-0.8-0.1-1-0.4c-0.3-0.3-0.4-0.6-0.4-1
			c0-0.4,0.2-0.8,0.4-1c0.3-0.3,0.6-0.4,1-0.4c0.8,0,1.4,0.7,1.4,1.5C-2608.9,2876-2609.5,2876.6-2610.3,2876.6z M-2611.6,2887v-9
			h2.5v9H-2611.6z M-2601.1,2877.8c0.9-0.1,1.8,0.2,2.5,0.8c0.6,0.6,0.9,1.5,0.9,2.3v6.1h-2.5v-5.5c0-0.5-0.1-0.9-0.5-1.2
			c-0.3-0.3-0.7-0.4-1.2-0.4c-0.3,0-0.5,0-0.8,0.1c-0.2,0.1-0.4,0.2-0.6,0.4c-0.2,0.2-0.4,0.4-0.5,0.7c-0.1,0.3-0.2,0.7-0.2,1v5
			h-2.5v-9h2.5v1C-2603.2,2878.2-2602.1,2877.7-2601.1,2877.8L-2601.1,2877.8z M-2587.8,2884.5c0,0.7,0.1,1.5,0.2,2.2v0.2h-2.4
			l-0.2-1c-0.3,0.4-0.8,0.7-1.3,0.9c-0.5,0.2-1.1,0.3-1.6,0.3c-0.3,0-0.6,0-0.8-0.1c-0.3-0.1-0.5-0.1-0.8-0.3
			c-0.2-0.1-0.4-0.3-0.6-0.5c-0.2-0.2-0.3-0.5-0.4-0.7c-0.1-0.3-0.2-0.6-0.2-1c0-0.3,0.1-0.7,0.2-1c0.1-0.3,0.2-0.5,0.4-0.7
			c0.2-0.2,0.4-0.4,0.7-0.5c0.3-0.2,0.6-0.3,0.9-0.4c0.4-0.1,0.7-0.2,1.1-0.3l1.5-0.3c0.2,0,0.5-0.1,0.7-0.3
			c0.1-0.1,0.2-0.3,0.2-0.5c0-0.4-0.1-0.7-0.4-0.9c-0.3-0.2-0.7-0.3-1.1-0.3c-0.8-0.1-1.6,0.5-1.8,1.3c0,0,0,0,0,0.1l-2.2-0.4
			c0.1-0.8,0.6-1.6,1.3-2.1c0.9-0.5,1.8-0.7,2.8-0.7c2.5,0,3.8,1.1,3.8,3.3L-2587.8,2884.5z M-2592.3,2885.5c0.6,0,1.2-0.2,1.6-0.7
			c0.4-0.5,0.7-1.2,0.6-1.9l-2.1,0.6c-0.3,0.1-0.6,0.2-0.9,0.4c-0.2,0.2-0.3,0.4-0.3,0.6c0,0.3,0.1,0.5,0.3,0.7
			C-2592.9,2885.4-2592.6,2885.5-2592.3,2885.5L-2592.3,2885.5z M-2585.4,2887v-13.5h2.6v13.5H-2585.4z M-2571.7,2882.4l0,0.6h-6.7
			c0,0.6,0.3,1.2,0.7,1.7c0.4,0.4,1,0.6,1.6,0.6c0.4,0,0.8-0.1,1.2-0.3c0.3-0.2,0.6-0.5,0.8-0.9l2.3,0.3c-0.3,0.9-0.8,1.6-1.6,2.1
			c-0.8,0.5-1.7,0.8-2.7,0.8c-1.3,0.1-2.6-0.4-3.5-1.2c-0.9-0.9-1.4-2.2-1.3-3.4c-0.1-1.3,0.4-2.5,1.3-3.4c0.9-0.9,2.2-1.3,3.4-1.3
			c2.3-0.2,4.3,1.5,4.5,3.8C-2571.7,2881.8-2571.7,2882.1-2571.7,2882.4L-2571.7,2882.4z M-2576.2,2879.6c-1.1-0.1-2.1,0.7-2.2,1.7
			h4.2c0-0.5-0.3-1-0.6-1.3C-2575.2,2879.7-2575.7,2879.5-2576.2,2879.6L-2576.2,2879.6z M-2566.6,2887.2c-0.9,0-1.8-0.2-2.6-0.6
			c-0.7-0.4-1.2-1.1-1.3-1.9l2.1-0.6c0.2,0.8,1,1.4,1.8,1.3c0.3,0,0.6-0.1,0.9-0.2c0.2-0.1,0.4-0.4,0.4-0.7c0-0.2,0-0.3-0.1-0.5
			c-0.1-0.1-0.3-0.3-0.5-0.3c-0.2-0.1-0.4-0.2-0.6-0.2c-0.2-0.1-0.5-0.1-0.8-0.2s-0.6-0.2-0.8-0.3c-0.3-0.1-0.5-0.2-0.8-0.3
			c-0.2-0.1-0.5-0.3-0.7-0.5c-0.2-0.2-0.4-0.4-0.5-0.7c-0.1-0.3-0.2-0.6-0.2-1c0-0.8,0.3-1.6,1-2c0.8-0.5,1.7-0.7,2.6-0.7
			c0.8,0,1.6,0.2,2.4,0.6c0.6,0.4,1.1,1.1,1.2,1.8l-2,0.4c-0.2-0.7-0.9-1.2-1.6-1.1c-0.3,0-0.6,0.1-0.9,0.2
			c-0.2,0.1-0.4,0.3-0.4,0.6c0,0.1,0,0.2,0.1,0.3c0,0.1,0.1,0.2,0.2,0.2c0.1,0.1,0.2,0.1,0.3,0.2c0.1,0.1,0.2,0.1,0.4,0.1
			c0.2,0.1,0.3,0.1,0.4,0.1l0.5,0.1l0.5,0.1c0.3,0.1,0.6,0.2,0.8,0.3c0.3,0.1,0.5,0.2,0.8,0.4c0.3,0.1,0.5,0.3,0.7,0.5
			c0.2,0.2,0.3,0.5,0.4,0.7c0.1,0.3,0.2,0.7,0.2,1c0,0.5-0.1,0.9-0.3,1.3c-0.2,0.4-0.5,0.7-0.8,0.9c-0.4,0.2-0.8,0.4-1.2,0.5
			C-2565.6,2887.1-2566.1,2887.2-2566.6,2887.2L-2566.6,2887.2z M-2715.7,2905.4v-2.1h6.3v2.1H-2715.7z M-2700.4,2895.5h2.5v13.5
			h-2.4l-0.1-1.2c-0.3,0.4-0.7,0.8-1.1,1c-0.5,0.2-1.1,0.4-1.7,0.4c-0.6,0-1.2-0.1-1.7-0.3c-1.1-0.4-1.9-1.3-2.3-2.4
			c-0.2-0.6-0.3-1.3-0.3-2c0-0.9,0.2-1.7,0.6-2.5c0.4-0.7,0.9-1.3,1.6-1.6c0.7-0.4,1.4-0.6,2.2-0.6c0.6,0,1.1,0.1,1.6,0.3
			c0.5,0.2,0.9,0.5,1.1,0.9L-2700.4,2895.5z M-2702.6,2907.1c0.6,0,1.3-0.2,1.7-0.7c0.9-1.1,0.9-2.7,0-3.8c-0.4-0.5-1.1-0.7-1.7-0.7
			c-0.6,0-1.3,0.2-1.7,0.7c-0.9,1.1-0.9,2.7,0,3.8C-2703.9,2906.9-2703.2,2907.1-2702.6,2907.1z M-2694,2898.6c-0.4,0-0.8-0.1-1-0.4
			c-0.3-0.3-0.4-0.6-0.4-1c0-0.4,0.2-0.8,0.4-1c0.3-0.3,0.6-0.4,1-0.4c0.8,0,1.4,0.7,1.4,1.5
			C-2692.6,2898-2693.2,2898.6-2694,2898.6z M-2695.3,2909v-9h2.5v9H-2695.3z M-2682.7,2906.5c0,0.7,0.1,1.5,0.2,2.2v0.2h-2.4
			l-0.2-1c-0.3,0.4-0.8,0.7-1.3,0.9c-0.5,0.2-1.1,0.3-1.6,0.3c-0.3,0-0.6,0-0.8-0.1c-0.3-0.1-0.5-0.1-0.8-0.3
			c-0.2-0.1-0.4-0.3-0.6-0.5c-0.2-0.2-0.3-0.5-0.4-0.7c-0.1-0.3-0.2-0.6-0.2-1c0-0.3,0.1-0.7,0.2-1c0.1-0.3,0.2-0.5,0.4-0.7
			c0.2-0.2,0.4-0.4,0.7-0.5c0.3-0.2,0.6-0.3,0.9-0.4c0.4-0.1,0.7-0.2,1.1-0.3l1.5-0.3c0.2,0,0.5-0.1,0.7-0.3
			c0.1-0.1,0.2-0.3,0.2-0.5c0-0.4-0.1-0.7-0.4-0.9c-0.3-0.2-0.7-0.3-1.1-0.3c-0.8-0.1-1.6,0.5-1.8,1.3c0,0,0,0,0,0.1l-2.2-0.4
			c0.1-0.8,0.6-1.6,1.3-2.1c0.9-0.5,1.8-0.7,2.8-0.7c2.5,0,3.8,1.1,3.8,3.3L-2682.7,2906.5z M-2687.1,2907.5c0.6,0,1.2-0.2,1.6-0.7
			c0.4-0.5,0.7-1.2,0.6-1.9l-2.1,0.6c-0.3,0.1-0.6,0.2-0.9,0.4c-0.2,0.2-0.3,0.4-0.3,0.6c0,0.3,0.1,0.5,0.3,0.7
			C-2687.7,2907.4-2687.4,2907.5-2687.1,2907.5z M-2677.8,2901.4c0.3-0.5,0.7-0.8,1.2-1.1c0.5-0.3,1.1-0.5,1.8-0.5v2.3
			c-0.8-0.1-1.5,0.1-2.2,0.5c-0.5,0.5-0.7,1.2-0.7,1.9v4.4h-2.6v-9h2.4V2901.4z M-2670.9,2901.4c0.3-0.5,0.7-0.8,1.2-1.1
			c0.5-0.3,1.1-0.5,1.8-0.5v2.3c-0.8-0.1-1.5,0.1-2.2,0.5c-0.5,0.5-0.7,1.2-0.7,1.9v4.4h-2.6v-9h2.4V2901.4z M-2658.1,2904.4l0,0.6
			h-6.7c0,0.6,0.3,1.2,0.7,1.7c0.4,0.4,1,0.6,1.6,0.6c0.4,0,0.8-0.1,1.2-0.3c0.3-0.2,0.6-0.5,0.8-0.9l2.3,0.3
			c-0.3,0.9-0.8,1.6-1.6,2.1c-0.8,0.5-1.7,0.8-2.7,0.8c-1.3,0.1-2.6-0.4-3.5-1.2c-1.7-2-1.7-4.9,0-6.9c0.9-0.9,2.2-1.3,3.4-1.3
			c2.3-0.2,4.3,1.5,4.5,3.8C-2658,2903.8-2658,2904.1-2658.1,2904.4L-2658.1,2904.4z M-2662.5,2901.6c-1.1-0.1-2.1,0.7-2.2,1.7h4.1
			c0-0.5-0.3-1-0.6-1.3C-2661.6,2901.7-2662,2901.5-2662.5,2901.6L-2662.5,2901.6z M-2648.7,2906.6c0,0.7,0.1,1.5,0.2,2.2v0.2h-2.4
			l-0.2-1c-0.3,0.4-0.8,0.7-1.3,0.9c-0.5,0.2-1.1,0.3-1.6,0.3c-0.3,0-0.6,0-0.8-0.1c-0.3-0.1-0.5-0.1-0.8-0.3
			c-0.2-0.1-0.4-0.3-0.6-0.5c-0.2-0.2-0.3-0.5-0.4-0.7c-0.1-0.3-0.2-0.6-0.2-1c0-0.3,0.1-0.7,0.2-1c0.1-0.3,0.2-0.5,0.4-0.7
			c0.2-0.2,0.4-0.4,0.7-0.5c0.3-0.2,0.6-0.3,0.9-0.4c0.4-0.1,0.7-0.2,1.1-0.3l1.5-0.3c0.2,0,0.5-0.1,0.7-0.3
			c0.1-0.1,0.2-0.3,0.2-0.5c0-0.4-0.1-0.7-0.4-0.9c-0.3-0.2-0.7-0.3-1.1-0.3c-0.8-0.1-1.6,0.5-1.8,1.3c0,0,0,0,0,0.1l-2.2-0.4
			c0.1-0.8,0.6-1.6,1.3-2.1c0.9-0.5,1.8-0.7,2.8-0.7c2.5,0,3.8,1.1,3.8,3.3L-2648.7,2906.6z M-2653.2,2907.5c0.6,0,1.2-0.2,1.6-0.7
			c0.4-0.5,0.7-1.2,0.6-1.9l-2.1,0.6c-0.3,0.1-0.6,0.2-0.9,0.4c-0.2,0.2-0.3,0.4-0.3,0.6c0,0.3,0.1,0.5,0.3,0.7
			C-2653.8,2907.4-2653.5,2907.5-2653.2,2907.5L-2653.2,2907.5z M-2635.7,2900h2.6l-5.6,13.3h-2.6l2.1-4.6l-3.7-8.7h2.8l2.2,5.9
			L-2635.7,2900z M-2621.2,2900h2.7l-3.9,9h-2.2l-3.8-9h2.7l2.2,6.2L-2621.2,2900z M-2614.1,2898.7l2.3-3.2l1.2,0.9l-2,2.4H-2614.1z
			 M-2613.3,2909.2c-0.9,0-1.8-0.2-2.6-0.6c-0.7-0.4-1.3-0.9-1.8-1.6c-0.4-0.8-0.7-1.6-0.6-2.5c-0.1-1.3,0.4-2.5,1.4-3.4
			c2.1-1.7,5.1-1.7,7.2,0c1.8,1.9,1.8,4.9,0,6.9C-2610.7,2908.8-2612,2909.2-2613.3,2909.2L-2613.3,2909.2z M-2613.4,2907.2
			c0.7,0,1.3-0.2,1.8-0.7c0.9-1.1,0.9-2.8,0-3.9c-0.5-0.5-1.1-0.8-1.8-0.7c-0.7,0-1.3,0.3-1.7,0.7c-0.9,1.1-0.9,2.8,0,3.9
			C-2614.6,2906.9-2614,2907.2-2613.4,2907.2L-2613.4,2907.2z M-2595.8,2899.8c0.8,0,1.7,0.2,2.3,0.7c0.6,0.5,0.9,1.3,0.9,2.1v6.4
			h-2.5v-5.7c0-0.4-0.1-0.8-0.4-1.1c-0.3-0.3-0.6-0.4-1-0.4c-0.5,0-0.9,0.2-1.2,0.5c-0.4,0.4-0.5,1-0.5,1.6v5.1h-2.6v-5.6
			c0-0.4-0.1-0.8-0.4-1.2c-0.3-0.3-0.7-0.4-1-0.4c-0.5,0-0.9,0.2-1.2,0.5c-0.4,0.5-0.5,1.1-0.5,1.7v5h-2.5v-9h2.5v1.1
			c0.6-0.8,1.6-1.3,2.6-1.2c0.6,0,1.2,0.1,1.7,0.3c0.5,0.2,0.8,0.6,1.1,1C-2597.9,2900.2-2596.9,2899.7-2595.8,2899.8
			L-2595.8,2899.8z M-2588.8,2898.6c-0.4,0-0.8-0.1-1-0.4c-0.3-0.3-0.4-0.6-0.4-1c0-0.4,0.2-0.8,0.4-1c0.3-0.3,0.6-0.4,1-0.4
			c0.8,0,1.4,0.7,1.4,1.5C-2587.4,2898-2588.1,2898.6-2588.8,2898.6z M-2590.1,2909v-9h2.5v9H-2590.1z M-2581.6,2909
			c-0.8,0-1.5-0.2-2-0.7c-0.5-0.6-0.8-1.3-0.7-2.1v-4.3h-1.8v-1.9h0.6c0.4,0,0.8-0.1,1.1-0.4c0.3-0.4,0.4-0.9,0.4-1.3v-1.2h2.3v2.9
			h1.9v1.9h-1.9v4c0,0.8,0.3,1.2,1,1.2h0.8v1.9H-2581.6z M-2573.8,2909.2c-0.9,0-1.8-0.2-2.6-0.6c-0.7-0.4-1.3-0.9-1.7-1.6
			c-0.4-0.8-0.7-1.6-0.6-2.5c-0.1-1.3,0.4-2.5,1.4-3.4c2.1-1.7,5.1-1.7,7.2,0c1.8,1.9,1.8,4.9,0,6.9
			C-2571.2,2908.8-2572.5,2909.2-2573.8,2909.2L-2573.8,2909.2z M-2573.8,2907.2c0.7,0,1.3-0.2,1.8-0.7c0.9-1.1,0.9-2.8,0-3.9
			c-0.5-0.5-1.1-0.8-1.8-0.7c-0.7,0-1.3,0.3-1.7,0.7c-0.9,1.1-0.9,2.8,0,3.9C-2575.1,2906.9-2574.5,2907.2-2573.8,2907.2
			L-2573.8,2907.2z M-2567,2905.4v-2.1h6.3v2.1H-2567z"/>
		<path id="Trazado_6564" d="M-2310,2639.3v2.3h-3v10.4h-2.6v-10.4h-3v-2.3H-2310z M-2305.6,2652.2c-0.9,0-1.8-0.2-2.6-0.6
			c-0.7-0.4-1.3-0.9-1.8-1.6c-0.4-0.8-0.7-1.6-0.6-2.5c-0.1-1.3,0.4-2.5,1.4-3.4c1-0.9,2.3-1.3,3.6-1.3c1.3-0.1,2.6,0.4,3.6,1.3
			c0.9,0.9,1.4,2.1,1.4,3.4c0.1,1.3-0.4,2.5-1.4,3.4C-2303,2651.8-2304.2,2652.2-2305.6,2652.2L-2305.6,2652.2z M-2305.6,2650.2
			c0.7,0,1.3-0.2,1.8-0.7c0.5-0.5,0.7-1.2,0.7-2c0-0.7-0.2-1.4-0.7-2c-0.5-0.5-1.1-0.8-1.8-0.7c-0.7,0-1.3,0.3-1.7,0.7
			c-0.5,0.5-0.7,1.2-0.7,1.9c0,0.7,0.2,1.4,0.7,1.9C-2306.9,2649.9-2306.2,2650.2-2305.6,2650.2L-2305.6,2650.2z M-2295.5,2652.2
			c-0.9,0-1.8-0.2-2.6-0.6c-0.7-0.4-1.2-1.1-1.3-1.9l2.1-0.6c0.2,0.8,1,1.4,1.8,1.3c0.3,0,0.6-0.1,0.9-0.2c0.2-0.1,0.4-0.4,0.4-0.7
			c0-0.2,0-0.3-0.1-0.5c-0.1-0.1-0.3-0.3-0.5-0.3c-0.2-0.1-0.4-0.2-0.6-0.2c-0.2-0.1-0.5-0.1-0.8-0.2s-0.6-0.2-0.8-0.3
			c-0.3-0.1-0.5-0.2-0.8-0.3c-0.2-0.1-0.5-0.3-0.7-0.5c-0.2-0.2-0.4-0.4-0.5-0.7c-0.1-0.3-0.2-0.6-0.2-1c0-0.8,0.3-1.6,1-2
			c0.8-0.5,1.7-0.7,2.6-0.7c0.8,0,1.6,0.2,2.4,0.6c0.6,0.4,1.1,1.1,1.2,1.8l-2,0.4c-0.2-0.7-0.9-1.2-1.6-1.1c-0.3,0-0.6,0.1-0.9,0.2
			c-0.2,0.1-0.4,0.3-0.4,0.6c0,0.1,0,0.2,0.1,0.3c0,0.1,0.1,0.2,0.2,0.2c0.1,0.1,0.2,0.1,0.3,0.2c0.1,0.1,0.2,0.1,0.4,0.1
			c0.2,0,0.3,0.1,0.4,0.1l0.5,0.1l0.5,0.1c0.3,0.1,0.6,0.2,0.8,0.3c0.3,0.1,0.5,0.2,0.8,0.4c0.3,0.1,0.5,0.3,0.7,0.5
			c0.2,0.2,0.3,0.5,0.4,0.7c0.1,0.3,0.2,0.7,0.2,1c0,0.5-0.1,0.9-0.3,1.3c-0.2,0.4-0.5,0.7-0.8,0.9c-0.4,0.2-0.8,0.4-1.2,0.5
			C-2294.6,2652.1-2295.1,2652.2-2295.5,2652.2L-2295.5,2652.2z M-2279.4,2643h2.6l-5.6,13.3h-2.6l2.1-4.6l-3.7-8.7h2.8l2.2,5.9
			L-2279.4,2643z M-2264.4,2638.5h2.5v13.5h-2.4l-0.1-1.2c-0.3,0.4-0.7,0.8-1.1,1c-0.5,0.2-1.1,0.4-1.7,0.4c-0.6,0-1.2-0.1-1.7-0.3
			c-1.1-0.4-1.9-1.3-2.3-2.4c-0.2-0.6-0.4-1.3-0.3-2c0-0.9,0.2-1.7,0.6-2.5c0.4-0.7,0.9-1.3,1.6-1.6c0.7-0.4,1.4-0.6,2.2-0.6
			c0.6,0,1.1,0.1,1.6,0.3c0.5,0.2,0.9,0.5,1.1,0.9L-2264.4,2638.5z M-2266.6,2650.1c0.6,0,1.3-0.2,1.7-0.7c0.5-0.5,0.7-1.2,0.7-1.9
			c0-0.7-0.2-1.4-0.7-1.9c-0.4-0.5-1.1-0.7-1.7-0.7c-0.6,0-1.3,0.2-1.7,0.7c-0.5,0.5-0.7,1.2-0.7,1.9c0,0.7,0.2,1.4,0.7,1.9
			C-2267.9,2649.9-2267.2,2650.1-2266.6,2650.1z M-2255,2652.2c-0.9,0-1.8-0.2-2.6-0.6c-0.7-0.4-1.3-0.9-1.8-1.6
			c-0.4-0.8-0.7-1.6-0.6-2.5c-0.1-1.3,0.4-2.5,1.4-3.4c2.1-1.7,5.1-1.7,7.2,0c0.9,0.9,1.4,2.1,1.4,3.4c0.1,1.3-0.4,2.5-1.4,3.4
			C-2252.4,2651.8-2253.7,2652.2-2255,2652.2L-2255,2652.2z M-2255.1,2650.2c0.7,0,1.3-0.2,1.8-0.7c0.5-0.5,0.7-1.2,0.7-2
			c0-0.7-0.2-1.4-0.7-2c-0.5-0.5-1.1-0.8-1.8-0.7c-0.7,0-1.3,0.3-1.7,0.7c-0.5,0.5-0.7,1.2-0.7,1.9c0,0.7,0.2,1.4,0.7,1.9
			C-2256.4,2649.9-2255.7,2650.2-2255.1,2650.2L-2255.1,2650.2z M-2248.2,2652v-13.5h2.6v13.5H-2248.2z M-2238.8,2652.2
			c-0.9,0-1.8-0.2-2.6-0.6c-0.7-0.4-1.3-0.9-1.8-1.6c-0.4-0.8-0.7-1.6-0.6-2.5c-0.1-1.3,0.4-2.5,1.4-3.4c2.1-1.7,5.1-1.7,7.2,0
			c0.9,0.9,1.4,2.1,1.4,3.4c0.1,1.3-0.4,2.5-1.4,3.4C-2236.2,2651.8-2237.5,2652.2-2238.8,2652.2L-2238.8,2652.2z M-2238.8,2650.2
			c0.7,0,1.3-0.2,1.8-0.7c0.5-0.5,0.7-1.2,0.7-2c0-0.7-0.2-1.4-0.7-2c-0.5-0.5-1.1-0.8-1.8-0.7c-0.7,0-1.3,0.3-1.7,0.7
			c-0.5,0.5-0.7,1.2-0.7,1.9c0,0.7,0.2,1.4,0.7,1.9C-2240.1,2649.9-2239.5,2650.2-2238.8,2650.2L-2238.8,2650.2z M-2229.6,2644.4
			c0.3-0.5,0.7-0.8,1.2-1.1c0.5-0.3,1.1-0.5,1.8-0.5v2.3c-0.8-0.1-1.5,0.1-2.2,0.5c-0.5,0.5-0.7,1.2-0.7,1.9v4.4h-2.5v-9h2.4
			L-2229.6,2644.4z M-2311.3,2660.1h2.5v13.5h-2.4l-0.1-1.2c-0.3,0.4-0.7,0.8-1.1,1c-0.5,0.2-1.1,0.4-1.7,0.4
			c-0.6,0-1.2-0.1-1.7-0.3c-1.1-0.4-1.9-1.3-2.3-2.4c-0.2-0.6-0.3-1.3-0.3-2c0-0.9,0.2-1.7,0.6-2.5c0.4-0.7,0.9-1.3,1.6-1.6
			c0.7-0.4,1.4-0.6,2.2-0.6c0.6,0,1.1,0.1,1.6,0.3c0.5,0.2,0.9,0.5,1.1,0.9L-2311.3,2660.1z M-2313.5,2671.7c0.6,0,1.3-0.2,1.7-0.7
			c0.9-1.1,0.9-2.7,0-3.8c-0.4-0.5-1.1-0.7-1.7-0.7c-0.6,0-1.3,0.2-1.7,0.7c-0.9,1.1-0.9,2.7,0,3.8
			C-2314.7,2671.5-2314.1,2671.7-2313.5,2671.7z M-2297.6,2668.9l0,0.6h-6.7c0,0.6,0.3,1.2,0.7,1.7c0.4,0.4,1,0.6,1.6,0.6
			c0.4,0,0.8-0.1,1.2-0.3c0.3-0.2,0.6-0.5,0.8-0.9l2.3,0.3c-0.3,0.9-0.8,1.6-1.6,2.1c-0.8,0.5-1.7,0.8-2.7,0.8
			c-1.3,0.1-2.6-0.4-3.5-1.2c-0.9-0.9-1.4-2.2-1.3-3.4c-0.1-1.3,0.4-2.5,1.3-3.5c0.9-0.9,2.2-1.3,3.4-1.3c1.2-0.1,2.4,0.4,3.2,1.2
			C-2298,2666.4-2297.5,2667.7-2297.6,2668.9L-2297.6,2668.9z M-2302.1,2666.2c-1.1-0.1-2.1,0.7-2.2,1.7h4.1c0-0.5-0.3-1-0.6-1.3
			C-2301.1,2666.3-2301.6,2666.1-2302.1,2666.2z M-2284.8,2664.6h2.4v8.4c0,0.8-0.1,1.5-0.3,2.2c-0.2,0.6-0.5,1.1-1,1.5
			c-0.4,0.4-0.9,0.7-1.5,0.9c-0.6,0.2-1.3,0.3-2,0.3c-2.4,0-3.9-0.9-4.7-2.8l2.1-0.9c0.2,0.5,0.5,1,1,1.3c0.4,0.3,1,0.4,1.5,0.4
			c1.6,0,2.3-0.9,2.3-2.8v-1.1c-0.3,0.4-0.7,0.7-1.1,0.9c-0.5,0.2-1,0.3-1.6,0.3c-1.1,0-2.1-0.4-2.9-1.2c-0.4-0.4-0.7-0.9-0.9-1.4
			c-0.4-1.2-0.4-2.5,0-3.7c0.2-0.5,0.5-1,0.9-1.4c0.4-0.4,0.8-0.7,1.3-0.9c0.5-0.2,1.1-0.3,1.6-0.3c0.6,0,1.2,0.1,1.7,0.4
			c0.5,0.2,0.9,0.6,1.1,1L-2284.8,2664.6z M-2288.7,2670.5c0.9,0.9,2.4,0.9,3.3,0c0,0,0,0,0,0c0.9-1,0.9-2.5,0-3.4
			c-0.9-0.9-2.4-0.9-3.3,0c0,0,0,0,0,0c-0.4,0.5-0.7,1.1-0.7,1.7C-2289.4,2669.5-2289.1,2670.1-2288.7,2670.5z M-2272.4,2671.1
			c0,0.7,0.1,1.5,0.2,2.2v0.2h-2.4l-0.2-1c-0.3,0.4-0.8,0.7-1.3,0.9c-0.5,0.2-1.1,0.3-1.6,0.3c-0.3,0-0.6,0-0.8-0.1
			c-0.3-0.1-0.5-0.1-0.8-0.3c-0.2-0.1-0.4-0.3-0.6-0.5c-0.2-0.2-0.3-0.5-0.4-0.7c-0.1-0.3-0.2-0.6-0.2-1c0-0.3,0.1-0.7,0.2-1
			c0.1-0.3,0.2-0.5,0.4-0.7c0.2-0.2,0.4-0.4,0.7-0.5c0.3-0.2,0.6-0.3,0.9-0.4c0.4-0.1,0.7-0.2,1.1-0.3l1.5-0.3
			c0.2,0,0.5-0.1,0.7-0.3c0.1-0.1,0.2-0.3,0.2-0.5c0-0.4-0.1-0.7-0.4-0.9c-0.3-0.2-0.7-0.3-1.1-0.3c-0.8-0.1-1.6,0.5-1.8,1.3
			c0,0,0,0,0,0.1l-2.2-0.4c0.1-0.8,0.6-1.6,1.3-2.1c0.9-0.5,1.8-0.7,2.8-0.7c2.5,0,3.8,1.1,3.8,3.3L-2272.4,2671.1z M-2276.8,2672.1
			c0.6,0,1.2-0.2,1.6-0.7c0.4-0.5,0.7-1.2,0.6-1.9l-2.1,0.6c-0.3,0.1-0.6,0.2-0.9,0.4c-0.2,0.2-0.3,0.4-0.3,0.6
			c0,0.3,0.1,0.5,0.3,0.7C-2277.4,2672-2277.1,2672.1-2276.8,2672.1L-2276.8,2672.1z M-2267.5,2666c0.3-0.5,0.7-0.8,1.2-1.1
			c0.5-0.3,1.1-0.5,1.8-0.5v2.3c-0.8-0.1-1.5,0.1-2.2,0.5c-0.5,0.5-0.7,1.2-0.7,1.9v4.4h-2.5v-9h2.4L-2267.5,2666z M-2256.9,2664.6
			h2.4v8.4c0,0.8-0.1,1.5-0.3,2.2c-0.2,0.6-0.5,1.1-1,1.5c-0.4,0.4-0.9,0.7-1.5,0.9c-0.6,0.2-1.3,0.3-2,0.3c-2.4,0-3.9-0.9-4.7-2.8
			l2.1-0.9c0.2,0.5,0.5,1,1,1.3c0.4,0.3,1,0.4,1.5,0.4c1.6,0,2.3-0.9,2.3-2.8v-1.1c-0.3,0.4-0.7,0.7-1.1,0.9c-0.5,0.2-1,0.3-1.6,0.3
			c-1.1,0-2.1-0.4-2.9-1.2c-0.4-0.4-0.7-0.9-0.9-1.4c-0.4-1.2-0.4-2.5,0-3.7c0.2-0.5,0.5-1,0.9-1.4c0.4-0.4,0.8-0.7,1.3-0.9
			c0.5-0.2,1.1-0.3,1.6-0.3c0.6,0,1.2,0.1,1.7,0.4c0.5,0.2,0.9,0.6,1.1,1L-2256.9,2664.6z M-2260.8,2670.5c0.9,0.9,2.4,0.9,3.3,0
			c0,0,0,0,0,0c0.9-1,0.9-2.5,0-3.4c-0.9-0.9-2.4-0.9-3.3,0c0,0,0,0,0,0c-0.4,0.5-0.7,1.1-0.7,1.7
			C-2261.4,2669.5-2261.2,2670.1-2260.8,2670.5L-2260.8,2670.5z M-2244.4,2671.1c0,0.7,0.1,1.5,0.2,2.2v0.2h-2.4l-0.2-1
			c-0.3,0.4-0.8,0.7-1.3,0.9c-0.5,0.2-1.1,0.3-1.6,0.3c-0.3,0-0.6,0-0.8-0.1c-0.3-0.1-0.5-0.1-0.8-0.3c-0.2-0.1-0.4-0.3-0.6-0.5
			c-0.2-0.2-0.3-0.5-0.4-0.7c-0.1-0.3-0.2-0.6-0.2-1c0-0.3,0.1-0.7,0.2-1c0.1-0.3,0.2-0.5,0.4-0.7c0.2-0.2,0.4-0.4,0.7-0.5
			c0.3-0.2,0.6-0.3,0.9-0.4c0.4-0.1,0.7-0.2,1.1-0.3l1.5-0.3c0.2,0,0.5-0.1,0.7-0.3c0.1-0.1,0.2-0.3,0.2-0.5c0-0.4-0.1-0.7-0.4-0.9
			c-0.3-0.2-0.7-0.3-1.1-0.3c-0.8-0.1-1.6,0.5-1.8,1.3c0,0,0,0,0,0.1l-2.2-0.4c0.1-0.8,0.6-1.6,1.3-2.1c0.9-0.5,1.8-0.7,2.8-0.7
			c2.5,0,3.8,1.1,3.8,3.3L-2244.4,2671.1z M-2248.9,2672.1c0.6,0,1.2-0.2,1.6-0.7c0.4-0.5,0.7-1.2,0.6-1.9l-2.1,0.6
			c-0.3,0.1-0.6,0.2-0.9,0.4c-0.2,0.2-0.3,0.4-0.3,0.6c0,0.3,0.1,0.5,0.3,0.7C-2249.5,2672-2249.2,2672.1-2248.9,2672.1
			L-2248.9,2672.1z M-2236.6,2664.4c0.9-0.1,1.8,0.2,2.5,0.8c0.6,0.6,0.9,1.5,0.9,2.3v6.1h-2.5v-5.5c0-0.5-0.1-0.9-0.5-1.2
			c-0.3-0.3-0.7-0.4-1.2-0.4c-0.3,0-0.5,0-0.8,0.1c-0.2,0.1-0.4,0.2-0.6,0.4c-0.2,0.2-0.4,0.4-0.5,0.7c-0.1,0.3-0.2,0.7-0.2,1v5
			h-2.5v-9h2.5v1C-2238.7,2664.8-2237.7,2664.3-2236.6,2664.4L-2236.6,2664.4z M-2227.4,2673.6c-0.8,0-1.5-0.2-2-0.7
			c-0.5-0.6-0.8-1.3-0.7-2.1v-4.3h-1.8v-1.9h0.6c0.4,0,0.8-0.1,1.1-0.4c0.3-0.4,0.4-0.9,0.4-1.3v-1.2h2.3v2.9h1.9v1.9h-1.9v4
			c0,0.8,0.3,1.2,1,1.2h0.8v1.9H-2227.4z M-2216.4,2671.1c0,0.7,0.1,1.5,0.2,2.2v0.2h-2.4l-0.2-1c-0.3,0.4-0.8,0.7-1.3,0.9
			c-0.5,0.2-1.1,0.3-1.6,0.3c-0.3,0-0.6,0-0.8-0.1c-0.3-0.1-0.5-0.1-0.8-0.3c-0.2-0.1-0.4-0.3-0.6-0.5c-0.2-0.2-0.3-0.5-0.4-0.7
			c-0.1-0.3-0.2-0.6-0.2-1c0-0.3,0.1-0.7,0.2-1c0.1-0.3,0.2-0.5,0.4-0.7c0.2-0.2,0.4-0.4,0.7-0.5c0.3-0.2,0.6-0.3,0.9-0.4
			c0.4-0.1,0.7-0.2,1.1-0.3l1.5-0.3c0.2,0,0.5-0.1,0.7-0.3c0.1-0.1,0.2-0.3,0.2-0.5c0-0.4-0.1-0.7-0.4-0.9c-0.3-0.2-0.7-0.3-1.1-0.3
			c-0.8-0.1-1.6,0.5-1.8,1.3c0,0,0,0,0,0.1l-2.2-0.4c0.1-0.8,0.6-1.6,1.3-2.1c0.9-0.5,1.8-0.7,2.8-0.7c2.5,0,3.8,1.1,3.8,3.3
			L-2216.4,2671.1z M-2220.9,2672.1c0.6,0,1.2-0.2,1.6-0.7c0.4-0.5,0.7-1.2,0.6-1.9l-2.1,0.6c-0.3,0.1-0.6,0.2-0.9,0.4
			c-0.2,0.2-0.3,0.4-0.3,0.6c0,0.3,0.1,0.5,0.3,0.7C-2221.5,2672-2221.2,2672.1-2220.9,2672.1z"/>
		<path id="Trazado_6562" d="M-2317.4,2739v-12.7h4.6c0.9,0,1.8,0.1,2.7,0.5c0.7,0.3,1.4,0.7,1.9,1.3c0.5,0.6,0.9,1.3,1.1,2
			c0.3,0.8,0.4,1.7,0.4,2.6c0,0.9-0.1,1.8-0.4,2.6c-0.2,0.7-0.6,1.4-1.1,2c-0.5,0.6-1.2,1-1.9,1.3c-0.8,0.3-1.7,0.5-2.7,0.4H-2317.4
			z M-2314.7,2736.7h1.8c1,0.1,1.9-0.3,2.6-1c0.6-0.9,0.9-1.9,0.8-3c0.1-1.1-0.2-2.1-0.8-3c-0.6-0.7-1.6-1.1-2.6-1h-1.8V2736.7z
			 M-2303.3,2728.6c-0.4,0-0.8-0.1-1-0.4c-0.3-0.3-0.4-0.6-0.4-1c0-0.4,0.2-0.8,0.4-1c0.3-0.3,0.6-0.4,1-0.4c0.8,0,1.4,0.7,1.4,1.4
			C-2301.8,2728-2302.5,2728.6-2303.3,2728.6L-2303.3,2728.6z M-2304.6,2739v-9h2.5v9H-2304.6z M-2298.8,2729c0-0.4,0-0.8,0.1-1.2
			c0.1-0.3,0.2-0.6,0.3-0.9c0.1-0.2,0.3-0.5,0.5-0.6c0.2-0.2,0.4-0.3,0.7-0.4c0.3-0.1,0.5-0.2,0.8-0.3c0.3-0.1,0.6-0.1,1-0.1
			c0.3,0,0.7,0,1.1,0v2h-0.1c-0.2,0-0.3,0-0.4,0c-0.1,0-0.2,0-0.4,0c-0.1,0-0.2,0-0.4,0.1c-0.1,0-0.2,0.1-0.3,0.2
			c-0.1,0.1-0.2,0.2-0.3,0.3c-0.1,0.1-0.1,0.3-0.2,0.4c0,0.2-0.1,0.4-0.1,0.6v1h1.9v1.9h-1.9v7.1h-2.5v-7.1h-1.8v-1.9h1.8
			L-2298.8,2729z M-2291.6,2728.6c-0.4,0-0.8-0.1-1-0.4c-0.3-0.3-0.4-0.6-0.4-1c0-0.4,0.2-0.8,0.4-1c0.3-0.3,0.6-0.4,1-0.4
			c0.8,0,1.4,0.7,1.4,1.4C-2290.1,2728-2290.8,2728.6-2291.6,2728.6L-2291.6,2728.6z M-2292.9,2739v-9h2.5v9H-2292.9z
			 M-2283.6,2739.2c-1.3,0.1-2.5-0.4-3.5-1.3c-0.9-0.9-1.4-2.1-1.4-3.4c-0.1-1.3,0.4-2.5,1.3-3.4c0.9-0.9,2.2-1.3,3.5-1.3
			c1,0,2.1,0.3,2.9,0.9c0.8,0.6,1.3,1.5,1.5,2.5l-2.3,0.3c-0.1-0.5-0.4-0.9-0.8-1.2c-0.4-0.3-0.9-0.4-1.4-0.4
			c-0.6,0-1.2,0.3-1.7,0.7c-0.4,0.6-0.7,1.2-0.6,2c0,0.7,0.2,1.4,0.6,1.9c0.4,0.5,1,0.8,1.7,0.7c0.5,0,1-0.1,1.4-0.4
			c0.4-0.3,0.7-0.7,0.8-1.2l2.3,0.3c-0.2,1-0.7,1.9-1.5,2.5C-2281.6,2738.9-2282.6,2739.2-2283.6,2739.2z M-2271.4,2730h2.5v9h-2.4
			l-0.1-1.1c-0.7,0.9-1.8,1.3-2.9,1.3c-0.9,0.1-1.8-0.2-2.5-0.8c-0.6-0.6-0.9-1.5-0.9-2.3v-6.1h2.5v5.5c0,0.5,0.1,0.9,0.5,1.2
			c0.3,0.3,0.7,0.4,1.2,0.4c0.5,0,1-0.2,1.4-0.5c0.4-0.5,0.6-1.1,0.6-1.7L-2271.4,2730z M-2266.2,2739v-13.5h2.6v13.5H-2266.2z
			 M-2257.7,2739c-0.8,0-1.5-0.2-2-0.7c-0.5-0.6-0.8-1.3-0.7-2.1v-4.3h-1.8v-1.9h0.6c0.4,0,0.8-0.1,1.1-0.4c0.3-0.4,0.4-0.9,0.4-1.3
			v-1.2h2.3v2.9h1.9v1.9h-1.9v4c0,0.8,0.3,1.2,1,1.2h0.8v1.9H-2257.7z M-2246.7,2736.5c0,0.7,0.1,1.5,0.2,2.2v0.2h-2.4l-0.2-1
			c-0.3,0.4-0.8,0.7-1.3,0.9c-0.5,0.2-1.1,0.3-1.6,0.3c-0.3,0-0.6,0-0.8-0.1c-0.3-0.1-0.5-0.1-0.8-0.3c-0.2-0.1-0.4-0.3-0.6-0.5
			c-0.2-0.2-0.3-0.5-0.4-0.7c-0.1-0.3-0.2-0.6-0.2-1c0-0.3,0.1-0.7,0.2-1c0.1-0.3,0.2-0.5,0.4-0.7c0.2-0.2,0.4-0.4,0.7-0.5
			c0.3-0.2,0.6-0.3,0.9-0.4c0.4-0.1,0.7-0.2,1.1-0.3l1.5-0.3c0.2,0,0.5-0.1,0.7-0.3c0.1-0.1,0.2-0.3,0.2-0.5c0-0.4-0.1-0.7-0.4-0.9
			c-0.3-0.2-0.7-0.3-1.1-0.3c-0.8-0.1-1.6,0.5-1.8,1.3c0,0,0,0,0,0.1l-2.2-0.4c0.1-0.8,0.6-1.6,1.3-2.1c0.9-0.5,1.8-0.7,2.8-0.7
			c2.5,0,3.8,1.1,3.8,3.3L-2246.7,2736.5z M-2251.2,2737.5c0.6,0,1.2-0.2,1.6-0.7c0.4-0.5,0.7-1.2,0.6-1.9l-2.1,0.6
			c-0.3,0.1-0.6,0.2-0.9,0.4c-0.2,0.2-0.3,0.4-0.3,0.6c0,0.3,0.1,0.5,0.3,0.7C-2251.8,2737.4-2251.5,2737.5-2251.2,2737.5
			L-2251.2,2737.5z M-2238,2725.5h2.5v13.5h-2.4l-0.1-1.2c-0.3,0.4-0.7,0.8-1.1,1c-0.5,0.2-1.1,0.4-1.7,0.4c-0.6,0-1.2-0.1-1.7-0.3
			c-1.1-0.4-1.9-1.3-2.3-2.4c-0.2-0.6-0.4-1.3-0.3-2c0-0.9,0.2-1.7,0.6-2.5c0.4-0.7,0.9-1.3,1.6-1.6c0.7-0.4,1.4-0.6,2.2-0.6
			c0.6,0,1.1,0.1,1.6,0.3c0.5,0.2,0.9,0.5,1.1,0.9L-2238,2725.5z M-2240.2,2737.1c0.6,0,1.3-0.2,1.7-0.7c0.5-0.5,0.7-1.2,0.7-1.9
			c0-0.7-0.2-1.4-0.7-1.9c-0.4-0.5-1.1-0.7-1.7-0.7c-0.6,0-1.3,0.2-1.7,0.7c-0.5,0.5-0.7,1.2-0.7,1.9c0,0.7,0.2,1.4,0.7,1.9
			C-2241.5,2736.9-2240.9,2737.1-2240.2,2737.1z M-2310.3,2758.1c0,0.7,0.1,1.5,0.2,2.2v0.2h-2.4l-0.2-1c-0.3,0.4-0.8,0.7-1.3,0.9
			c-0.5,0.2-1.1,0.3-1.6,0.3c-0.3,0-0.6,0-0.8-0.1c-0.3-0.1-0.5-0.1-0.8-0.3c-0.2-0.1-0.4-0.3-0.6-0.5c-0.2-0.2-0.3-0.5-0.4-0.7
			c-0.1-0.3-0.2-0.6-0.2-1c0-0.3,0.1-0.7,0.2-1c0.1-0.3,0.2-0.5,0.4-0.7c0.2-0.2,0.4-0.4,0.7-0.5c0.3-0.2,0.6-0.3,0.9-0.4
			c0.4-0.1,0.7-0.2,1.1-0.3l1.5-0.3c0.2,0,0.5-0.1,0.7-0.3c0.1-0.1,0.2-0.3,0.2-0.5c0-0.4-0.1-0.7-0.4-0.9c-0.3-0.2-0.7-0.3-1.1-0.3
			c-0.8-0.1-1.6,0.5-1.8,1.3c0,0,0,0,0,0.1l-2.2-0.4c0.1-0.8,0.6-1.6,1.3-2.1c0.9-0.5,1.8-0.7,2.8-0.7c2.5,0,3.8,1.1,3.8,3.3
			L-2310.3,2758.1z M-2314.7,2759.1c0.6,0,1.2-0.2,1.6-0.7c0.4-0.5,0.7-1.2,0.6-1.9l-2.1,0.6c-0.3,0.1-0.6,0.2-0.9,0.4
			c-0.2,0.2-0.3,0.4-0.3,0.6c0,0.3,0.1,0.5,0.3,0.7C-2315.3,2759-2315,2759.1-2314.7,2759.1z M-2307.8,2760.6v-13.5h2.6v13.5
			H-2307.8z M-2295.5,2753c0.3-0.5,0.7-0.8,1.2-1.1c0.5-0.3,1.1-0.5,1.8-0.5v2.3c-0.8-0.1-1.5,0.1-2.2,0.5c-0.5,0.5-0.7,1.2-0.7,1.9
			v4.4h-2.6v-9h2.4V2753z M-2282.7,2756l0,0.6h-6.7c0,0.6,0.3,1.2,0.7,1.7c0.4,0.4,1,0.6,1.6,0.6c0.4,0,0.8-0.1,1.2-0.3
			c0.3-0.2,0.6-0.5,0.8-0.9l2.3,0.3c-0.3,0.9-0.8,1.6-1.6,2.1c-0.8,0.5-1.7,0.8-2.7,0.8c-1.3,0.1-2.6-0.4-3.5-1.2
			c-0.9-0.9-1.4-2.2-1.3-3.4c-0.1-1.3,0.4-2.5,1.3-3.4c0.9-0.9,2.2-1.3,3.4-1.3c2.3-0.2,4.3,1.5,4.5,3.8
			C-2282.6,2755.4-2282.6,2755.7-2282.7,2756L-2282.7,2756z M-2287.1,2753.2c-1.1-0.1-2.1,0.7-2.2,1.7h4.1c0-0.5-0.3-1-0.6-1.3
			C-2286.2,2753.3-2286.6,2753.1-2287.1,2753.2L-2287.1,2753.2z M-2277.6,2760.8c-0.9,0-1.8-0.2-2.6-0.6c-0.7-0.4-1.2-1.1-1.3-1.9
			l2.1-0.6c0.2,0.8,1,1.4,1.8,1.3c0.3,0,0.6-0.1,0.9-0.2c0.2-0.1,0.4-0.4,0.4-0.7c0-0.2,0-0.3-0.1-0.5c-0.1-0.1-0.3-0.3-0.5-0.3
			c-0.2-0.1-0.4-0.2-0.6-0.2c-0.2-0.1-0.5-0.1-0.8-0.2s-0.6-0.2-0.8-0.3c-0.3-0.1-0.5-0.2-0.8-0.3c-0.2-0.1-0.5-0.3-0.7-0.5
			c-0.2-0.2-0.4-0.4-0.5-0.7c-0.1-0.3-0.2-0.6-0.2-1c0-0.8,0.3-1.6,1-2c0.8-0.5,1.7-0.7,2.6-0.7c0.8,0,1.6,0.2,2.4,0.6
			c0.6,0.4,1.1,1.1,1.2,1.8l-2,0.4c-0.2-0.7-0.9-1.2-1.6-1.1c-0.3,0-0.6,0.1-0.9,0.2c-0.2,0.1-0.4,0.3-0.4,0.6c0,0.1,0,0.2,0.1,0.3
			c0,0.1,0.1,0.2,0.2,0.2c0.1,0.1,0.2,0.1,0.3,0.2c0.1,0.1,0.2,0.1,0.4,0.1c0.2,0.1,0.3,0.1,0.4,0.1l0.5,0.1l0.5,0.1
			c0.3,0.1,0.6,0.2,0.8,0.3c0.3,0.1,0.5,0.2,0.8,0.4c0.3,0.1,0.5,0.3,0.7,0.5c0.2,0.2,0.3,0.5,0.4,0.7c0.1,0.3,0.2,0.7,0.2,1
			c0,0.5-0.1,0.9-0.3,1.3c-0.2,0.4-0.5,0.7-0.8,0.9c-0.4,0.2-0.8,0.4-1.2,0.5C-2276.6,2760.7-2277.1,2760.8-2277.6,2760.8
			L-2277.6,2760.8z M-2266.7,2751.4c0.6,0,1.2,0.1,1.7,0.3c0.5,0.2,1,0.5,1.4,0.9c0.4,0.4,0.7,0.9,0.9,1.5c0.5,1.3,0.5,2.7,0,4
			c-0.2,0.6-0.5,1.1-0.9,1.5c-0.4,0.4-0.9,0.7-1.4,0.9c-0.5,0.2-1.1,0.3-1.7,0.3c-0.6,0-1.1-0.1-1.6-0.3c-0.5-0.2-0.9-0.5-1.1-0.9
			v5.5h-2.5v-13.4h2.4l0.1,1.2c0.3-0.5,0.7-0.8,1.1-1C-2267.9,2751.5-2267.3,2751.4-2266.7,2751.4L-2266.7,2751.4z M-2267.3,2758.7
			c0.6,0,1.3-0.2,1.7-0.7c0.9-1.1,0.9-2.7,0-3.8c-0.9-0.9-2.5-0.9-3.4,0c0,0,0,0,0,0c-0.9,1.1-0.9,2.7,0,3.8
			C-2268.6,2758.5-2267.9,2758.7-2267.3,2758.7L-2267.3,2758.7z M-2259.2,2750.2c-0.4,0-0.8-0.1-1-0.4c-0.3-0.3-0.4-0.6-0.4-1
			c0-0.4,0.2-0.8,0.4-1c0.3-0.3,0.6-0.4,1-0.4c0.8,0,1.4,0.7,1.4,1.5C-2257.8,2749.6-2258.4,2750.2-2259.2,2750.2z M-2260.5,2760.6
			v-9h2.5v9H-2260.5z M-2252.9,2753c0.3-0.5,0.7-0.8,1.2-1.1c0.5-0.3,1.1-0.5,1.8-0.5v2.3c-0.8-0.1-1.5,0.1-2.2,0.5
			c-0.5,0.5-0.7,1.2-0.7,1.9v4.4h-2.6v-9h2.4V2753z M-2241.1,2758.1c0,0.7,0.1,1.5,0.2,2.2v0.2h-2.4l-0.2-1
			c-0.3,0.4-0.8,0.7-1.3,0.9c-0.5,0.2-1.1,0.3-1.6,0.3c-0.3,0-0.6,0-0.8-0.1c-0.3-0.1-0.5-0.1-0.8-0.3c-0.2-0.1-0.4-0.3-0.6-0.5
			c-0.2-0.2-0.3-0.5-0.4-0.7c-0.1-0.3-0.2-0.6-0.2-1c0-0.3,0.1-0.7,0.2-1c0.1-0.3,0.2-0.5,0.4-0.7c0.2-0.2,0.4-0.4,0.7-0.5
			c0.3-0.2,0.6-0.3,0.9-0.4c0.4-0.1,0.7-0.2,1.1-0.3l1.5-0.3c0.2,0,0.5-0.1,0.7-0.3c0.1-0.1,0.2-0.3,0.2-0.5c0-0.4-0.1-0.7-0.4-0.9
			c-0.3-0.2-0.7-0.3-1.1-0.3c-0.8-0.1-1.6,0.5-1.8,1.3c0,0,0,0,0,0.1l-2.2-0.4c0.1-0.8,0.6-1.6,1.3-2.1c0.9-0.5,1.8-0.7,2.8-0.7
			c2.5,0,3.8,1.1,3.8,3.3L-2241.1,2758.1z M-2245.5,2759.1c0.6,0,1.2-0.2,1.6-0.7c0.4-0.5,0.7-1.2,0.6-1.9l-2.1,0.6
			c-0.3,0.1-0.6,0.2-0.9,0.4c-0.2,0.2-0.3,0.4-0.3,0.6c0,0.3,0.1,0.5,0.3,0.7C-2246.1,2759-2245.8,2759.1-2245.5,2759.1
			L-2245.5,2759.1z M-2236.2,2753c0.3-0.5,0.7-0.8,1.2-1.1c0.5-0.3,1.1-0.5,1.8-0.5v2.3c-0.8-0.1-1.5,0.1-2.2,0.5
			c-0.5,0.5-0.7,1.2-0.7,1.9v4.4h-2.5v-9h2.4L-2236.2,2753z"/>
		<path id="Trazado_6563" d="M-2317.4,2826v-12.7h4.6c0.9,0,1.8,0.1,2.7,0.5c0.7,0.3,1.4,0.7,1.9,1.3c0.5,0.6,0.9,1.3,1.1,2
			c0.3,0.8,0.4,1.7,0.4,2.6c0,0.9-0.1,1.8-0.4,2.6c-0.2,0.7-0.6,1.4-1.1,2c-0.5,0.6-1.2,1-1.9,1.3c-0.8,0.3-1.7,0.5-2.7,0.4H-2317.4
			z M-2314.7,2823.7h1.8c1,0.1,1.9-0.3,2.6-1c0.6-0.9,0.9-1.9,0.8-3c0.1-1.1-0.2-2.1-0.8-3c-0.6-0.7-1.6-1.1-2.6-1h-1.8V2823.7z
			 M-2300.4,2826.2c-0.9,0-1.8-0.2-2.6-0.6c-0.7-0.4-1.3-0.9-1.8-1.6c-0.4-0.8-0.7-1.6-0.6-2.5c-0.1-1.3,0.4-2.5,1.4-3.4
			c1-0.9,2.3-1.3,3.6-1.3c1.3-0.1,2.6,0.4,3.6,1.3c0.9,0.9,1.4,2.1,1.4,3.4c0.1,1.3-0.4,2.5-1.4,3.4
			C-2297.8,2825.8-2299,2826.2-2300.4,2826.2L-2300.4,2826.2z M-2300.4,2824.2c0.7,0,1.3-0.2,1.8-0.7c0.5-0.5,0.7-1.2,0.7-2
			c0-0.7-0.2-1.4-0.7-2c-0.5-0.5-1.1-0.8-1.8-0.7c-0.7,0-1.3,0.3-1.7,0.7c-0.5,0.5-0.7,1.2-0.7,1.9c0,0.7,0.2,1.4,0.7,1.9
			C-2301.7,2823.9-2301,2824.2-2300.4,2824.2L-2300.4,2824.2z M-2293.5,2826v-13.5h2.6v13.5H-2293.5z M-2284.1,2826.2
			c-0.9,0-1.8-0.2-2.6-0.6c-0.7-0.4-1.3-0.9-1.8-1.6c-0.4-0.8-0.7-1.6-0.6-2.5c-0.1-1.3,0.4-2.5,1.4-3.4c1-0.9,2.3-1.3,3.6-1.3
			c1.3-0.1,2.6,0.4,3.6,1.3c0.9,0.9,1.4,2.1,1.4,3.4c0.1,1.3-0.4,2.5-1.4,3.4C-2281.5,2825.8-2282.8,2826.2-2284.1,2826.2z
			 M-2284.2,2824.2c0.7,0,1.3-0.2,1.8-0.7c0.5-0.5,0.7-1.2,0.7-2c0-0.7-0.2-1.4-0.7-2c-0.5-0.5-1.1-0.8-1.8-0.7
			c-0.7,0-1.3,0.3-1.7,0.7c-0.5,0.5-0.7,1.2-0.7,1.9c0,0.7,0.2,1.4,0.7,1.9C-2285.5,2823.9-2284.8,2824.2-2284.2,2824.2z
			 M-2274.9,2818.4c0.3-0.5,0.7-0.8,1.2-1.1c0.5-0.3,1.1-0.5,1.8-0.5v2.3c-0.8-0.1-1.5,0.1-2.2,0.5c-0.5,0.5-0.7,1.2-0.7,1.9v4.4
			h-2.6v-9h2.4V2818.4z M-2262,2821.4l0,0.6h-6.7c0,0.6,0.3,1.2,0.7,1.7c0.4,0.4,1,0.6,1.6,0.6c0.4,0,0.8-0.1,1.2-0.3
			c0.3-0.2,0.6-0.5,0.8-0.9l2.3,0.3c-0.3,0.9-0.8,1.6-1.6,2.1c-0.8,0.5-1.7,0.8-2.7,0.8c-1.3,0.1-2.6-0.4-3.5-1.2
			c-0.9-0.9-1.4-2.2-1.3-3.5c-0.1-1.3,0.4-2.5,1.3-3.4c0.9-0.9,2.2-1.3,3.4-1.3c1.2-0.1,2.4,0.4,3.2,1.2
			C-2262.3,2818.8-2261.9,2820.1-2262,2821.4L-2262,2821.4z M-2266.4,2818.6c-1.1-0.1-2.1,0.7-2.2,1.7h4.2c0-0.5-0.3-1-0.6-1.3
			C-2265.5,2818.7-2266,2818.5-2266.4,2818.6z M-2256.9,2826.2c-0.9,0-1.8-0.2-2.6-0.6c-0.7-0.4-1.2-1.1-1.3-1.9l2.1-0.6
			c0.2,0.8,1,1.4,1.8,1.3c0.3,0,0.6-0.1,0.9-0.2c0.2-0.1,0.4-0.4,0.4-0.7c0-0.2,0-0.3-0.1-0.5c-0.1-0.1-0.3-0.3-0.5-0.3
			c-0.2-0.1-0.4-0.2-0.6-0.2c-0.2-0.1-0.5-0.1-0.8-0.2c-0.3-0.1-0.6-0.2-0.8-0.3c-0.3-0.1-0.5-0.2-0.8-0.3c-0.2-0.1-0.5-0.3-0.7-0.5
			c-0.2-0.2-0.4-0.4-0.5-0.7c-0.1-0.3-0.2-0.6-0.2-1c0-0.8,0.3-1.6,1-2c0.8-0.5,1.7-0.7,2.6-0.7c0.8,0,1.6,0.2,2.4,0.6
			c0.6,0.4,1.1,1.1,1.2,1.8l-2,0.4c-0.2-0.7-0.9-1.2-1.6-1.1c-0.3,0-0.6,0.1-0.9,0.2c-0.2,0.1-0.4,0.3-0.4,0.6c0,0.1,0,0.2,0.1,0.3
			c0,0.1,0.1,0.2,0.2,0.2c0.1,0.1,0.2,0.1,0.3,0.2c0.1,0.1,0.2,0.1,0.4,0.1c0.2,0,0.3,0.1,0.4,0.1l0.5,0.1l0.5,0.1
			c0.3,0.1,0.6,0.2,0.8,0.3c0.3,0.1,0.5,0.2,0.8,0.4c0.3,0.1,0.5,0.3,0.7,0.5c0.2,0.2,0.3,0.5,0.4,0.7c0.1,0.3,0.2,0.7,0.2,1
			c0,0.5-0.1,0.9-0.3,1.3c-0.2,0.4-0.5,0.7-0.8,0.9c-0.4,0.2-0.8,0.4-1.2,0.5C-2255.9,2826.1-2256.4,2826.2-2256.9,2826.2
			L-2256.9,2826.2z M-2307,2838.4c0.8,0,1.7,0.2,2.3,0.7c0.6,0.5,0.9,1.3,0.9,2.1v6.4h-2.5v-5.7c0-0.4-0.1-0.8-0.4-1.1
			c-0.3-0.3-0.6-0.4-1-0.4c-0.5,0-0.9,0.2-1.2,0.5c-0.4,0.4-0.5,1-0.5,1.6v5.1h-2.6v-5.6c0-0.4-0.1-0.8-0.4-1.2
			c-0.3-0.3-0.7-0.4-1-0.4c-0.5,0-0.9,0.2-1.2,0.5c-0.4,0.5-0.5,1.1-0.5,1.7v5h-2.5v-9h2.5v1.1c0.6-0.8,1.6-1.3,2.6-1.2
			c0.6,0,1.2,0.1,1.7,0.3c0.5,0.2,0.8,0.6,1.1,1C-2309.1,2838.8-2308.1,2838.3-2307,2838.4z M-2295.4,2838.6h2.5v9h-2.4l-0.1-1.1
			c-0.7,0.9-1.8,1.3-2.9,1.3c-0.9,0.1-1.8-0.2-2.5-0.8c-0.6-0.6-0.9-1.5-0.9-2.3v-6.1h2.5v5.5c0,0.5,0.1,0.9,0.5,1.2
			c0.3,0.3,0.7,0.4,1.2,0.4c0.5,0,1-0.2,1.4-0.5c0.4-0.5,0.6-1.1,0.6-1.7L-2295.4,2838.6z M-2287,2847.8c-0.9,0-1.8-0.2-2.6-0.6
			c-0.7-0.4-1.2-1.1-1.3-1.9l2.1-0.6c0.2,0.8,1,1.4,1.8,1.3c0.3,0,0.6-0.1,0.9-0.2c0.2-0.1,0.4-0.4,0.4-0.7c0-0.2,0-0.3-0.1-0.5
			c-0.1-0.1-0.3-0.3-0.5-0.3c-0.2-0.1-0.4-0.2-0.6-0.2c-0.2-0.1-0.5-0.1-0.8-0.2c-0.3-0.1-0.6-0.2-0.8-0.3c-0.3-0.1-0.5-0.2-0.8-0.3
			c-0.2-0.1-0.5-0.3-0.7-0.5c-0.2-0.2-0.4-0.4-0.5-0.7c-0.1-0.3-0.2-0.6-0.2-1c0-0.8,0.3-1.6,1-2c0.8-0.5,1.7-0.7,2.6-0.7
			c0.8,0,1.6,0.2,2.4,0.6c0.6,0.4,1.1,1.1,1.2,1.8l-2,0.4c-0.2-0.7-0.9-1.2-1.6-1.1c-0.3,0-0.6,0.1-0.9,0.2
			c-0.2,0.1-0.4,0.3-0.4,0.6c0,0.1,0,0.2,0.1,0.3c0,0.1,0.1,0.2,0.2,0.2c0.1,0.1,0.2,0.1,0.3,0.2c0.1,0.1,0.2,0.1,0.4,0.1
			c0.2,0.1,0.3,0.1,0.4,0.1l0.5,0.1l0.5,0.1c0.3,0.1,0.6,0.2,0.8,0.3c0.3,0.1,0.5,0.2,0.8,0.4c0.3,0.1,0.5,0.3,0.7,0.5
			c0.2,0.2,0.3,0.5,0.4,0.7c0.1,0.3,0.2,0.7,0.2,1c0,0.5-0.1,0.9-0.3,1.3c-0.2,0.4-0.5,0.7-0.8,0.9c-0.4,0.2-0.8,0.4-1.2,0.5
			C-2286.1,2847.7-2286.5,2847.8-2287,2847.8z M-2277.4,2847.8c-1.3,0.1-2.5-0.4-3.5-1.3c-0.9-0.9-1.4-2.1-1.4-3.4
			c-0.1-1.3,0.4-2.5,1.3-3.4c1.8-1.6,4.4-1.7,6.4-0.4c0.8,0.6,1.3,1.5,1.5,2.5l-2.3,0.3c-0.1-0.5-0.4-0.9-0.8-1.2
			c-0.4-0.3-0.9-0.4-1.4-0.4c-0.6,0-1.2,0.3-1.7,0.7c-0.8,1.2-0.8,2.7,0,3.9c0.4,0.5,1,0.8,1.7,0.7c0.5,0,1-0.1,1.4-0.4
			c0.4-0.3,0.7-0.7,0.8-1.2l2.3,0.3c-0.2,1-0.7,1.9-1.5,2.5C-2275.3,2847.5-2276.4,2847.8-2277.4,2847.8L-2277.4,2847.8z
			 M-2265.2,2838.6h2.5v9h-2.4l-0.1-1.1c-0.7,0.9-1.8,1.3-2.9,1.3c-0.9,0.1-1.8-0.2-2.5-0.8c-0.6-0.6-0.9-1.5-0.9-2.3v-6.1h2.5v5.5
			c0,0.5,0.1,0.9,0.5,1.2c0.3,0.3,0.7,0.4,1.2,0.4c0.5,0,1-0.2,1.4-0.5c0.4-0.5,0.6-1.1,0.6-1.7L-2265.2,2838.6z M-2260,2847.6
			v-13.5h2.6v13.5L-2260,2847.6z M-2247.4,2845.1c0,0.7,0.1,1.5,0.2,2.2v0.2h-2.4l-0.2-1c-0.3,0.4-0.8,0.7-1.3,0.9
			c-0.5,0.2-1.1,0.3-1.6,0.3c-0.3,0-0.6,0-0.8-0.1c-0.3-0.1-0.5-0.1-0.8-0.3c-0.2-0.1-0.4-0.3-0.6-0.5c-0.2-0.2-0.3-0.5-0.4-0.7
			c-0.1-0.3-0.2-0.6-0.2-1c0-0.3,0.1-0.7,0.2-1c0.1-0.3,0.2-0.5,0.4-0.7c0.2-0.2,0.4-0.4,0.7-0.5c0.3-0.2,0.6-0.3,0.9-0.4
			c0.4-0.1,0.7-0.2,1.1-0.3l1.5-0.3c0.2,0,0.5-0.1,0.7-0.3c0.1-0.1,0.2-0.3,0.2-0.5c0-0.4-0.1-0.7-0.4-0.9c-0.3-0.2-0.7-0.3-1.1-0.3
			c-0.8-0.1-1.6,0.5-1.8,1.3c0,0,0,0,0,0.1l-2.2-0.4c0.1-0.8,0.6-1.6,1.3-2.1c0.9-0.5,1.8-0.7,2.8-0.7c2.5,0,3.8,1.1,3.8,3.3
			L-2247.4,2845.1z M-2251.9,2846.1c0.6,0,1.2-0.2,1.6-0.7c0.4-0.5,0.7-1.2,0.6-1.9l-2.1,0.6c-0.3,0.1-0.6,0.2-0.9,0.4
			c-0.2,0.2-0.3,0.4-0.3,0.6c0,0.3,0.1,0.5,0.3,0.7C-2252.5,2846-2252.2,2846.1-2251.9,2846.1L-2251.9,2846.1z M-2242.6,2840
			c0.3-0.5,0.7-0.8,1.2-1.1c0.5-0.3,1.1-0.5,1.8-0.5v2.3c-0.8-0.1-1.5,0.1-2.2,0.5c-0.5,0.5-0.7,1.2-0.7,1.9v4.4h-2.5v-9h2.4V2840z
			 M-2229.7,2843l0,0.6h-6.7c0,0.6,0.3,1.2,0.7,1.7c0.4,0.4,1,0.6,1.6,0.6c0.4,0,0.8-0.1,1.2-0.3c0.3-0.2,0.6-0.5,0.8-0.9l2.3,0.3
			c-0.3,0.9-0.8,1.6-1.6,2.1c-0.8,0.5-1.7,0.8-2.7,0.8c-1.3,0.1-2.6-0.4-3.5-1.2c-0.9-0.9-1.4-2.2-1.3-3.4c-0.1-1.3,0.4-2.5,1.3-3.4
			c0.9-0.9,2.2-1.3,3.4-1.3c2.3-0.2,4.3,1.5,4.5,3.8C-2229.6,2842.4-2229.6,2842.7-2229.7,2843L-2229.7,2843z M-2234.1,2840.2
			c-1.1-0.1-2.1,0.7-2.2,1.7h4.1c0-0.5-0.3-1-0.6-1.3C-2233.2,2840.3-2233.6,2840.1-2234.1,2840.2L-2234.1,2840.2z M-2224.6,2847.8
			c-0.9,0-1.8-0.2-2.6-0.6c-0.7-0.4-1.2-1.1-1.3-1.9l2.1-0.6c0.2,0.8,1,1.4,1.8,1.3c0.3,0,0.6-0.1,0.9-0.2c0.2-0.1,0.4-0.4,0.4-0.7
			c0-0.2,0-0.3-0.1-0.5c-0.1-0.1-0.3-0.3-0.5-0.3c-0.2-0.1-0.4-0.2-0.6-0.2c-0.2-0.1-0.5-0.1-0.8-0.2s-0.6-0.2-0.8-0.3
			c-0.3-0.1-0.5-0.2-0.8-0.3c-0.2-0.1-0.5-0.3-0.7-0.5c-0.2-0.2-0.4-0.4-0.5-0.7c-0.1-0.3-0.2-0.6-0.2-1c0-0.8,0.3-1.6,1-2
			c0.8-0.5,1.7-0.7,2.6-0.7c0.8,0,1.6,0.2,2.4,0.6c0.6,0.4,1.1,1.1,1.2,1.8l-2,0.4c-0.2-0.7-0.9-1.2-1.6-1.1c-0.3,0-0.6,0.1-0.9,0.2
			c-0.2,0.1-0.4,0.3-0.4,0.6c0,0.1,0,0.2,0.1,0.3c0,0.1,0.1,0.2,0.2,0.2c0.1,0.1,0.2,0.1,0.3,0.2c0.1,0.1,0.2,0.1,0.4,0.1
			c0.2,0.1,0.3,0.1,0.4,0.1l0.5,0.1l0.5,0.1c0.3,0.1,0.6,0.2,0.8,0.3c0.3,0.1,0.5,0.2,0.8,0.4c0.3,0.1,0.5,0.3,0.7,0.5
			c0.2,0.2,0.3,0.5,0.4,0.7c0.1,0.3,0.2,0.7,0.2,1c0,0.5-0.1,0.9-0.3,1.3c-0.2,0.4-0.5,0.7-0.8,0.9c-0.4,0.2-0.8,0.4-1.2,0.5
			C-2223.6,2847.7-2224.1,2847.8-2224.6,2847.8L-2224.6,2847.8z"/>
	</g>
</g>
</svg>
