<svg xmlns="http://www.w3.org/2000/svg" width="139.683" height="139.683" viewBox="0 0 139.683 139.683">
  <g id="Grupo_10146" data-name="Grupo 10146" transform="translate(3186 69)">
    <g id="Grupo_10138" data-name="Grupo 10138">
      <g id="Grupo_10124" data-name="Grupo 10124">
        <g id="Grupo_10117" data-name="Grupo 10117">
          <g id="Grupo_10115" data-name="Grupo 10115" transform="translate(20 341)">
            <circle id="Elipse_522" data-name="Elipse 522" cx="69.841" cy="69.841" r="69.841" transform="translate(-3206 -410)" fill="#57b8e8"/>
            <circle id="Elipse_523" data-name="Elipse 523" cx="62.739" cy="62.739" r="62.739" transform="translate(-3198.897 -402.897)" fill="#fff"/>
          </g>
          <ellipse id="Elipse_524" data-name="Elipse 524" cx="39.597" cy="42.53" rx="39.597" ry="42.53" transform="translate(-3158.528 -41.506)" fill="#fff"/>
          <ellipse id="Elipse_525" data-name="Elipse 525" cx="39.597" cy="42.53" rx="39.597" ry="42.53" transform="translate(-3152.662 -41.506)" fill="#c41e1e"/>
          <path id="Trazado_6604" data-name="Trazado 6604" d="M38.131,0C59.19,0,76.261,19.041,76.261,42.53S59.19,85.061,38.131,85.061,0,66.019,0,42.53,17.072,0,38.131,0Z" transform="translate(-3154.128 -41.506)" fill="#ff8086"/>
          <path id="Trazado_6595" data-name="Trazado 6595" d="M196.263,93.946a3.667,3.667,0,0,1-.557,1.965l-14.695,22.981a11.727,11.727,0,0,1-9.885,5.412h-5.6a11.729,11.729,0,0,1-11.732-11.732V74.5a3.666,3.666,0,0,1,7.333.029V69a3.671,3.671,0,0,1,3.652-3.7h.015a3.671,3.671,0,0,1,3.652,3.7h.015V63.456a3.668,3.668,0,0,1,3.652-3.681h.015a3.668,3.668,0,0,1,3.652,3.681V69h.015a3.755,3.755,0,0,1,1.056-2.61,3.671,3.671,0,0,1,6.277,2.581v33.012l6.394-10.017a3.66,3.66,0,0,1,6.746,1.98Z" transform="translate(-3287.359 -92.481)" fill="#fff"/>
          <path id="Trazado_6596" data-name="Trazado 6596" d="M191.892,93.945a3.667,3.667,0,0,1-.557,1.965L176.64,118.891a11.727,11.727,0,0,1-9.885,5.412h-1.232a11.729,11.729,0,0,1-11.732-11.732V74.5a3.719,3.719,0,0,1,1.056-2.6,4.54,4.54,0,0,1,.411-.337,3.548,3.548,0,0,1,1.5-.66,3.588,3.588,0,0,1,.7-.073,3.683,3.683,0,0,1,3.666,3.7V69a3.611,3.611,0,0,1,1.481-2.948,3.34,3.34,0,0,1,1.481-.675v-.015a5.233,5.233,0,0,1,.689-.059h.015a3.671,3.671,0,0,1,3.652,3.7h.015V63.455a3.6,3.6,0,0,1,1.481-2.933,3.417,3.417,0,0,1,2.171-.748h.015a3.668,3.668,0,0,1,3.652,3.681V69h.015a3.755,3.755,0,0,1,1.056-2.61,2.458,2.458,0,0,1,.425-.352,3.644,3.644,0,0,1,1.481,2.933v33.012l4.37-6.849v6.849l6.394-10.017a3.327,3.327,0,0,1,.909-.953,3.653,3.653,0,0,1,1.467,2.933Z" transform="translate(-3287.358 -92.48)" fill="#fff"/>
          <g id="Grupo_10116" data-name="Grupo 10116" transform="translate(-3159.995 -42.979)">
            <path id="Trazado_6597" data-name="Trazado 6597" d="M45.95,88A44.143,44.143,0,0,1,2.369,50.071a1.466,1.466,0,1,1,2.9-.4,41.064,41.064,0,1,0,0-11.331A1.448,1.448,0,0,1,3.621,39.59a1.465,1.465,0,0,1-1.252-1.653A44,44,0,1,1,45.95,88Z" transform="translate(-1.953 0)"/>
            <path id="Trazado_6598" data-name="Trazado 6598" d="M1.485,250.423A1.452,1.452,0,0,1,.444,250a2.193,2.193,0,0,1-.324-.484,1.451,1.451,0,0,1-.1-.557,1.221,1.221,0,0,1,.117-.557,1.51,1.51,0,0,1,.308-.484,2.351,2.351,0,0,1,.219-.176,1.085,1.085,0,0,1,.265-.132.959.959,0,0,1,.263-.089,1.354,1.354,0,0,1,.587,0,.972.972,0,0,1,.263.089,1.072,1.072,0,0,1,.263.132,2.371,2.371,0,0,1,.221.176,1.51,1.51,0,0,1,.308.484,1.38,1.38,0,0,1,0,1.114,1.7,1.7,0,0,1-.308.484,1.7,1.7,0,0,1-.484.308A1.465,1.465,0,0,1,1.485,250.423Z" transform="translate(-0.018 -204.952)"/>
            <path id="Trazado_6599" data-name="Trazado 6599" d="M231.97,128.118a1.466,1.466,0,0,1-1.466-1.467V106.383a1.466,1.466,0,1,1,2.933,0v20.268a1.466,1.466,0,0,1-1.467,1.467Z" transform="translate(-190.892 -86.886)"/>
            <path id="Trazado_6600" data-name="Trazado 6600" d="M189.387,154.757a1.466,1.466,0,0,1-1.467-1.467v-14.74a1.467,1.467,0,1,1,2.933,0v14.74a1.466,1.466,0,0,1-1.467,1.467Z" transform="translate(-155.628 -113.524)"/>
            <path id="Trazado_6601" data-name="Trazado 6601" d="M274.638,128.118a1.466,1.466,0,0,1-1.467-1.467V106.383a1.467,1.467,0,0,1,2.933,0v20.268a1.466,1.466,0,0,1-1.466,1.467Z" transform="translate(-226.226 -86.886)"/>
            <path id="Trazado_6602" data-name="Trazado 6602" d="M232.054,128.118a1.466,1.466,0,0,1-1.467-1.467V106.383a1.467,1.467,0,0,1,2.933,0v20.268a1.466,1.466,0,0,1-1.467,1.467Z" transform="translate(-190.961 -86.886)"/>
            <path id="Trazado_6603" data-name="Trazado 6603" d="M164.056,118.7h-5.6a13.213,13.213,0,0,1-13.2-13.2V67.425a5.217,5.217,0,0,1,1.475-3.622,5.3,5.3,0,0,1,5.858-1.013v-.865a5.146,5.146,0,0,1,5.119-5.163,5.075,5.075,0,0,1,2.214.5v-.885a5.126,5.126,0,1,1,10.252,0v.881a5.137,5.137,0,0,1,7.347,4.633V89.886L181.21,84.1a5.136,5.136,0,0,1,8.662,5.521l-14.7,22.985A13.139,13.139,0,0,1,164.056,118.7ZM150.387,65.225a2.164,2.164,0,0,0-2.2,2.2V105.5a10.278,10.278,0,0,0,10.266,10.266h5.6a10.219,10.219,0,0,0,8.649-4.733L187.4,88.045a2.168,2.168,0,0,0,.328-1.174,2.2,2.2,0,0,0-1.011-1.86,2.146,2.146,0,0,0-1.643-.3,2.191,2.191,0,0,0-1.391.968L177.288,95.7a1.466,1.466,0,0,1-2.7-.789V61.9a2.2,2.2,0,0,0-3.772-1.544,2.277,2.277,0,0,0-.627,1.574,1.474,1.474,0,0,1-2.947,0V56.381a2.193,2.193,0,1,0-4.385,0v5.544a1.474,1.474,0,0,1-2.947,0,2.193,2.193,0,1,0-4.385,0v5.53a1.466,1.466,0,1,1-2.933,0A2.217,2.217,0,0,0,150.387,65.225Z" transform="translate(-120.293 -42.427)"/>
          </g>
        </g>
      </g>
    </g>
  </g>
</svg>
