<svg xmlns="http://www.w3.org/2000/svg" width="139.683" height="139.683" viewBox="0 0 139.683 139.683">
  <g id="Grupo_10145" data-name="Grupo 10145" transform="translate(3186 242)">
    <g id="Grupo_10140" data-name="Grupo 10140">
      <g id="Grupo_10118" data-name="Grupo 10118">
        <g id="Grupo_10106" data-name="Grupo 10106" transform="translate(20 168)">
          <circle id="Elipse_522" data-name="Elipse 522" cx="69.841" cy="69.841" r="69.841" transform="translate(-3206 -410)" fill="#57b8e8"/>
          <circle id="Elipse_523" data-name="Elipse 523" cx="62.739" cy="62.739" r="62.739" transform="translate(-3198.897 -402.897)" fill="#fff"/>
        </g>
        <g id="Grupo_10109" data-name="Grupo 10109" transform="translate(0.158 -4.62)">
          <g id="Grupo_10107" data-name="Grupo 10107" transform="translate(-173.158 149.037)">
            <g id="Grupo_10104" data-name="Grupo 10104" transform="translate(-2982.969 -355.387)">
              <path id="Trazado_6567" data-name="Trazado 6567" d="M107.6,352.825l-11.445-3.577a4.408,4.408,0,0,1-3.093-4.207V341.2l-19.834-5.038v8.881a4.408,4.408,0,0,1-3.093,4.207l-11.445,3.577a4.408,4.408,0,0,0-3.093,4.207h55.1a4.408,4.408,0,0,0-3.093-4.207Z" transform="translate(-55.599 -290.983)" fill="#f6d190"/>
              <path id="Trazado_6568" data-name="Trazado 6568" d="M110.693,438.055a4.408,4.408,0,0,0-3.093-4.207l-11.445-3.577a4.294,4.294,0,0,1-.433-.175,16.5,16.5,0,0,1-25.154,0,4.367,4.367,0,0,1-.433.175L58.69,433.848a4.407,4.407,0,0,0-3.093,4.207v2.269h55.1Z" transform="translate(-55.597 -372.006)" fill="#dad8db"/>
              <path id="Trazado_6569" data-name="Trazado 6569" d="M183.855,341.2a19.72,19.72,0,0,0,19.834,0v-5.038H183.855Z" transform="translate(-166.224 -290.983)" fill="#ecbd83"/>
              <path id="Trazado_6570" data-name="Trazado 6570" d="M140.359,7.5H126.034a4.4,4.4,0,0,0-4.252,3.306h-2.36a7.713,7.713,0,0,0-7.713,7.713l1.644,18.732h38.025V18.519A11.019,11.019,0,0,0,140.359,7.5Z" transform="translate(-103.996 -7.5)" fill="#966a5b"/>
              <path id="Trazado_6571" data-name="Trazado 6571" d="M121.627,31.548h-2.2a7.713,7.713,0,0,0-7.713,7.713V57.994h9.917Z" transform="translate(-103.997 -28.242)" fill="#785353"/>
              <path id="Trazado_6572" data-name="Trazado 6572" d="M136.262,124.932h-.915a3.306,3.306,0,0,1-3.306-3.306v-5.51a4.408,4.408,0,0,0-4.408-4.408H107.8a4.408,4.408,0,0,0-4.408,4.408v5.51a3.306,3.306,0,0,1-3.306,3.306h-.915a3.432,3.432,0,0,0-3.488,3.128,3.306,3.306,0,0,0,3.3,3.484h2.259a16.508,16.508,0,0,0,32.946,0h2.259a3.306,3.306,0,0,0,3.3-3.484,3.432,3.432,0,0,0-3.488-3.128Z" transform="translate(-90.169 -97.384)" fill="#ffe09f"/>
              <path id="Trazado_6573" data-name="Trazado 6573" d="M107.8,130.442V111.71a4.408,4.408,0,0,0-4.408,4.408v5.51a3.306,3.306,0,0,1-3.306,3.306h-.915a3.432,3.432,0,0,0-3.488,3.128,3.306,3.306,0,0,0,3.3,3.483h2.259a16.5,16.5,0,0,0,19.768,15.093,16.534,16.534,0,0,1-13.213-16.2Z" transform="translate(-90.168 -97.385)" fill="#f6d190"/>
              <path id="Trazado_6574" data-name="Trazado 6574" d="M136.163,256a16.538,16.538,0,0,0,33,0Z" transform="translate(-125.088 -221.841)" fill="#faf5dc"/>
              <path id="Trazado_6575" data-name="Trazado 6575" d="M166.147,431.531l-4.025-1.258a4.308,4.308,0,0,1-.433-.175,16.5,16.5,0,0,1-25.154,0,4.374,4.374,0,0,1-.433.175l-4.025,1.258a20.895,20.895,0,0,0,34.07,0Z" transform="translate(-121.564 -372.007)" fill="#eceaec"/>
              <path id="Trazado_6576" data-name="Trazado 6576" d="M142.418,256h-6.66a16.556,16.556,0,0,0,19.824,15.093A16.529,16.529,0,0,1,142.418,256Z" transform="translate(-124.739 -221.841)" fill="#f5ebcd"/>
            </g>
            <path id="Trazado_6577" data-name="Trazado 6577" d="M200.4,209.45v1.1a1.031,1.031,0,1,0,2.062,0v-1.1a1.031,1.031,0,1,0-2.062,0Z" transform="translate(-3163.467 -536.187)"/>
            <path id="Trazado_6578" data-name="Trazado 6578" d="M296.6,209.45v1.1a1.031,1.031,0,0,0,2.062,0v-1.1a1.031,1.031,0,0,0-2.062,0Z" transform="translate(-3246.438 -536.187)"/>
            <path id="Trazado_6581" data-name="Trazado 6581" d="M101.437,61.889,89.992,58.313a3.362,3.362,0,0,1-2.369-3.223V52.821a1.031,1.031,0,1,0-2.062,0V55.09a5.414,5.414,0,0,0,2.074,4.278,15.495,15.495,0,0,1-21.922,0,5.414,5.414,0,0,0,2.075-4.279V49.232a17.544,17.544,0,0,0,26.3-13.01h1.321a4.355,4.355,0,0,0,3.146-1.352,4.284,4.284,0,0,0-1.013-6.711V12.05A12.064,12.064,0,0,0,85.49,0H71.165a5.427,5.427,0,0,0-4.987,3.306H64.554a8.754,8.754,0,0,0-8.744,8.744V24.623a1.031,1.031,0,1,0,2.062,0V12.05a6.69,6.69,0,0,1,6.682-6.682h2.36a1.031,1.031,0,0,0,1-.773,3.369,3.369,0,0,1,3.254-2.533H85.49a10,10,0,0,1,9.988,9.988V27.555c-.085,0-.171-.008-.258-.008h-.915a2.277,2.277,0,0,1-2.275-2.275v-5.51a5.445,5.445,0,0,0-5.439-5.439,1.031,1.031,0,1,0,0,2.062,3.38,3.38,0,0,1,3.377,3.377v5.51a4.339,4.339,0,0,0,2.2,3.774v2.838A2.277,2.277,0,0,1,89.9,34.159H63.452a2.277,2.277,0,0,1-2.275-2.275V29.047a4.339,4.339,0,0,0,2.2-3.774v-5.51a3.381,3.381,0,0,1,3.377-3.377H82.184a1.031,1.031,0,1,0,0-2.062H66.758a5.445,5.445,0,0,0-5.439,5.439v5.51a2.277,2.277,0,0,1-2.275,2.275h-.915a4.435,4.435,0,0,0-4.518,4.105A4.3,4.3,0,0,0,54.8,34.869a4.355,4.355,0,0,0,3.146,1.352h1.321a17.505,17.505,0,0,0,5.4,10.663q.516.486,1.065.924V55.09a3.362,3.362,0,0,1-2.369,3.223L51.912,61.889A5.415,5.415,0,0,0,48.1,67.08V69.35a1.031,1.031,0,0,0,2.062,0V67.08a3.362,3.362,0,0,1,2.37-3.223l6.7-2.095a21.955,21.955,0,0,0,34.889,0l6.7,2.095a3.362,3.362,0,0,1,2.369,3.223V69.35a1.031,1.031,0,0,0,2.062,0V67.08a5.415,5.415,0,0,0-3.816-5.191Zm-7.2-32.281,0,2.277V29.61h.986a2.406,2.406,0,0,1,2.459,2.151,2.275,2.275,0,0,1-2.272,2.4H93.588A4.31,4.31,0,0,0,94.235,31.885ZM57.942,34.159a2.275,2.275,0,0,1-2.272-2.4,2.406,2.406,0,0,1,2.459-2.151h.986v2.275a4.311,4.311,0,0,0,.646,2.275H57.942Zm3.4,2.062H92.007a15.349,15.349,0,0,1-.514,2.346H72.267a1.031,1.031,0,1,0,0,2.062h16.6c-2.93,2.155-7.413,3.448-12.2,3.448s-9.267-1.293-12.2-3.448H67.86a1.031,1.031,0,1,0,0-2.062h-6a15.383,15.383,0,0,1-.514-2.346ZM63.8,42.675a23.434,23.434,0,0,0,12.877,3.464,23.434,23.434,0,0,0,12.877-3.464,15.452,15.452,0,0,1-25.754,0Zm22,23.434a19.684,19.684,0,0,1-9.124,2.209A19.99,19.99,0,0,1,61.34,61.1l2.448-.765a17.557,17.557,0,0,0,25.775,0l2.447.765A20.1,20.1,0,0,1,85.8,66.109Z" transform="translate(-3032.096 -356.418)"/>
            <path id="Trazado_6582" data-name="Trazado 6582" d="M286.648,158.854a2.193,2.193,0,0,0-3.378,0,1.123,1.123,0,1,1-1.486-1.684,4.4,4.4,0,0,1,6.35,0,1.123,1.123,0,1,1-1.486,1.684Z" transform="translate(-3246.592 -488.47)"/>
            <path id="Trazado_6583" data-name="Trazado 6583" d="M286.648,158.854a2.193,2.193,0,0,0-3.378,0,1.123,1.123,0,1,1-1.486-1.684,4.4,4.4,0,0,1,6.35,0,1.123,1.123,0,1,1-1.486,1.684Z" transform="translate(-3233.781 -488.47)"/>
          </g>
          <g id="Grupo_10108" data-name="Grupo 10108" transform="translate(-5 20.904)">
            <g id="Grupo_10009" data-name="Grupo 10009" transform="translate(-3107 -208.452)">
              <g id="Grupo_10007" data-name="Grupo 10007" transform="translate(0.884 0.884)">
                <g id="Grupo_10003" data-name="Grupo 10003" transform="translate(0.917)">
                  <path id="Trazado_6333" data-name="Trazado 6333" d="M115.485,54.942s-2.9-4.379-2.9-7.007l-.166-12.551-.07-5.321v-5.62a16.949,16.949,0,0,1,33.9,0V47.936a9.909,9.909,0,0,1-2.9,7.007l-3.6,2.193-19.7.3h-2.322Z" transform="translate(-112.347 -7.495)" fill="#9b8e99"/>
                </g>
                <path id="Trazado_6334" data-name="Trazado 6334" d="M128.124,57.019l3.6-2.193a9.909,9.909,0,0,0,2.9-7.007V24.328A16.957,16.957,0,0,0,121.186,7.742a16.964,16.964,0,0,1,19.848,16.7V47.936a9.909,9.909,0,0,1-2.9,7.007l-3.6,2.193-19.7.3h-2.322l-.158-.177Z" transform="translate(-106.219 -7.495)" fill="#8b8089"/>
                <path id="Trazado_6335" data-name="Trazado 6335" d="M108.324,197.03h-3.746v-6.524h3.746a3.262,3.262,0,0,1,0,6.524Z" transform="translate(-75.854 -168.913)" fill="#fed2a4"/>
                <path id="Trazado_6336" data-name="Trazado 6336" d="M349.293,197.03h3.981v-6.524h-3.981a3.262,3.262,0,1,0,0,6.524Z" transform="translate(-346.031 -168.913)" fill="#ffe5c2"/>
                <path id="Trazado_6337" data-name="Trazado 6337" d="M131.752,363.555l9.94-5.482,1.491-.67h1.41l14.559,7.142,1.322,4.022s-.121,4.464-.16,6.192h-29.94a.84.84,0,0,1-.84-.84v-6.608a4.288,4.288,0,0,1,2.218-3.756Z" transform="translate(-127.686 -316.119)" fill="#fec165"/>
                <path id="Trazado_6338" data-name="Trazado 6338" d="M119.183,359.843v-1.835l1.169.6,9.94,5.482a4.287,4.287,0,0,1,2.218,3.756v6.608a.84.84,0,0,1-.84.84h-2.393V370.28a4.287,4.287,0,0,0-2.218-3.756l-8.82-4.864V359.38Z" transform="translate(-98.39 -316.652)" fill="#fdb441"/>
                <path id="Trazado_6339" data-name="Trazado 6339" d="M196.877,358.073l1.491-.67h.748c2.584,1.351,7.173,3.654,9.014,4.576a7.515,7.515,0,0,1-14.79-1.887v-.068Z" transform="translate(-182.871 -316.119)" fill="#fdb441"/>
                <path id="Trazado_6340" data-name="Trazado 6340" d="M237.981,313.259v9.922l-2.847,1.953a3.978,3.978,0,0,1-3.94-3.977v-7.9Z" transform="translate(-217.188 -277.183)" fill="#ffe5c2"/>
                <path id="Trazado_6341" data-name="Trazado 6341" d="M192.139,362.155l.213.109,3.537,1.951v.069a7.487,7.487,0,0,1-.356,2.285h0a7.5,7.5,0,0,1-.582,1.346l-3.643-2.009Z" transform="translate(-170.39 -320.31)" fill="#fea613"/>
                <path id="Trazado_6342" data-name="Trazado 6342" d="M221.283,324.776a3.977,3.977,0,0,0,1.878-3.378v-7.9h1.4v-.241h2.351v7.9a3.981,3.981,0,0,1-5.154,3.8h0a3.943,3.943,0,0,1-.477-.182Z" transform="translate(-204.952 -277.183)" fill="#fed2a4"/>
                <path id="Trazado_6343" data-name="Trazado 6343" d="M145.984,106.284v7.563a12.956,12.956,0,1,0,25.912,0V102.82a1.049,1.049,0,0,0-1.049-1.049h-5.266a27.81,27.81,0,0,1-16.174-5.187,15.453,15.453,0,0,0-3.424,9.7Z" transform="translate(-141.05 -86.073)" fill="#ffe5c2"/>
                <g id="Grupo_10004" data-name="Grupo 10004" transform="translate(13.476 15.699)">
                  <path id="Trazado_6344" data-name="Trazado 6344" d="M146.354,164.815a12.956,12.956,0,0,0,12.956-12.956V140.832a1.049,1.049,0,0,0-.04-.283H162.3a1.049,1.049,0,0,1,1.049,1.049v11.027a12.965,12.965,0,0,1-17.37,12.185C146.105,164.813,146.23,164.815,146.354,164.815Z" transform="translate(-145.983 -140.549)" fill="#fed2a4"/>
                </g>
                <g id="Grupo_10006" data-name="Grupo 10006" transform="translate(9.76 25.718)">
                  <g id="Grupo_10005" data-name="Grupo 10005">
                    <path id="Trazado_6345" data-name="Trazado 6345" d="M187.169,227.129a8.67,8.67,0,0,0,.047,6.381.667.667,0,0,0,.252.324c4.644,3.166,9.487,3.2,14.537,0a.676.676,0,0,0,.277-.349,9.074,9.074,0,0,0,.042-6.356.683.683,0,0,0-.408-.4,20.954,20.954,0,0,0-14.345,0A.685.685,0,0,0,187.169,227.129Z" transform="translate(-186.583 -225.469)" fill="#9cf8d2"/>
                  </g>
                </g>
                <path id="Trazado_6346" data-name="Trazado 6346" d="M186.584,237.219c4.544,2.946,9.279,2.906,14.209-.214a.676.676,0,0,0,.277-.349,9.074,9.074,0,0,0,.042-6.356.683.683,0,0,0-.408-.4,23.186,23.186,0,0,0-3.046-.842,10.428,10.428,0,0,1,.089,3.693,3.86,3.86,0,0,1-2.611,3.255c-2.454.819-6.332,1.869-8.553,1.212Z" transform="translate(-175.61 -202.917)" fill="#6cf5c2"/>
              </g>
              <g id="Grupo_10008" data-name="Grupo 10008" transform="translate(0)">
                <path id="Trazado_6347" data-name="Trazado 6347" d="M182.451,156.88a3.461,3.461,0,0,1,5,0,.884.884,0,1,1-1.17,1.326,1.726,1.726,0,0,0-2.659,0,.884.884,0,1,1-1.17-1.326Z" transform="translate(-160.286 -137.429)"/>
                <path id="Trazado_6348" data-name="Trazado 6348" d="M163.149,471.386a.884.884,0,0,1,.884.884v3.023a.884.884,0,1,1-1.768,0V472.27A.884.884,0,0,1,163.149,471.386Z" transform="translate(-134.224 -415.769)"/>
                <path id="Trazado_6349" data-name="Trazado 6349" d="M333.631,471.386a.884.884,0,0,1,.884.884v3.023a.884.884,0,1,1-1.768,0V472.27A.884.884,0,0,1,333.631,471.386Z" transform="translate(-324.821 -415.769)"/>
                <path id="Trazado_6350" data-name="Trazado 6350" d="M199.336,184.95a.884.884,0,0,1,.884.884v1.029a.884.884,0,0,1-1.769,0v-1.029A.884.884,0,0,1,199.336,184.95Z" transform="translate(-174.681 -163.128)"/>
                <path id="Trazado_6351" data-name="Trazado 6351" d="M285.532,158.207a1.726,1.726,0,0,0-2.659,0,.884.884,0,1,1-1.17-1.326,3.462,3.462,0,0,1,5,0,.884.884,0,1,1-1.17,1.326Z" transform="translate(-271.249 -137.43)"/>
                <path id="Trazado_6352" data-name="Trazado 6352" d="M298.444,184.95a.884.884,0,0,1,.884.884v1.029a.884.884,0,0,1-1.768,0v-1.029A.884.884,0,0,1,298.444,184.95Z" transform="translate(-285.482 -163.128)"/>
                <path id="Trazado_6353" data-name="Trazado 6353" d="M99.121,33.264a.884.884,0,0,1-.884-.884V28.6A4.135,4.135,0,0,1,98,23.143v-5.31a17.833,17.833,0,0,1,35.667,0v5.31a4.137,4.137,0,0,1-.029,5.228.882.882,0,0,1,.029.22V41.325a10.712,10.712,0,0,1-2.461,6.861,5.173,5.173,0,0,1,1.766,3.891v7.448a.884.884,0,1,1-1.768,0V52.077a3.4,3.4,0,0,0-1.707-2.95.867.867,0,0,1-.112-.064l-5.147-2.838a8.363,8.363,0,0,1-2.217,4.433.884.884,0,0,1-1.279-1.222,6.6,6.6,0,0,0,1.824-4.133l-1.752-.966v.522a4.863,4.863,0,0,1-9.725,0v-.522l-1.752.966a6.626,6.626,0,0,0,8.5,5.911.884.884,0,0,1,.5,1.695,8.4,8.4,0,0,1-10.681-6.683l-5.145,2.837a.871.871,0,0,1-.114.065,3.4,3.4,0,0,0-1.706,2.949v7.448a.884.884,0,1,1-1.768,0V52.077a5.173,5.173,0,0,1,1.766-3.891,10.712,10.712,0,0,1-2.461-6.861V36.148a.884.884,0,1,1,1.769,0v5.176A8.956,8.956,0,0,0,102.2,47.22l8.89-4.9v-.665a13.885,13.885,0,0,1-8.9-10.788c0-.014,0-.027-.007-.041q-.073-.464-.115-.937h-.843A4.133,4.133,0,0,1,100,29.7V32.38a.884.884,0,0,1-.884.884Zm16.713-31.5A16.083,16.083,0,0,0,99.769,17.833V21.86a4.124,4.124,0,0,1,1.461-.267h.788v-.5a16.39,16.39,0,0,1,3.62-10.255.884.884,0,0,1,1.2-.164A26.774,26.774,0,0,0,122.5,15.7h5.266a1.935,1.935,0,0,1,1.933,1.933v3.961h.739a4.124,4.124,0,0,1,1.461.267V17.834A16.083,16.083,0,0,0,115.834,1.769Zm16.982,23.971a2.381,2.381,0,0,0-2.378-2.378H129.7v4.756h.739A2.38,2.38,0,0,0,132.816,25.739Zm-4.885,2.919V25.493L124.5,28.536a9.338,9.338,0,0,1,.359,3.727l2.983-2.11a12.147,12.147,0,0,0,.092-1.494Zm-4.576-1.625c.04.014.078.031.116.048l4.459-3.951v-5.5a.165.165,0,0,0-.164-.164H122.5A28.521,28.521,0,0,1,106.517,12.6a14.622,14.622,0,0,0-2.731,8.492v2.072l4.519,3.916c.038-.017.076-.034.116-.049a21.906,21.906,0,0,1,14.934,0Zm-16.074,1.5-3.494-3.028v3.15a12.127,12.127,0,0,0,.1,1.526l3.016,2.085a9.1,9.1,0,0,1,.382-3.733ZM129.7,47.22a8.956,8.956,0,0,0,2.194-5.895V29.619a4.124,4.124,0,0,1-1.461.267h-.794a13.873,13.873,0,0,1-8.829,11.7v.736Zm-13.753.732a3.1,3.1,0,0,0,3.094-3.094v-2.73a13.868,13.868,0,0,1-6.188.043v2.688a3.1,3.1,0,0,0,3.094,3.094Zm-.094-7.221a12.093,12.093,0,0,0,11.354-7.969l-2.922,2.067c-.009.027-.017.054-.026.081a1.562,1.562,0,0,1-.641.811c-.533.337-1.082.649-1.631.926a.884.884,0,0,1-.8-1.579c.477-.241.954-.511,1.42-.8a8.132,8.132,0,0,0,.062-5.594,20.164,20.164,0,0,0-13.572,0,7.763,7.763,0,0,0,.062,5.606,11.037,11.037,0,0,0,8.7,1.979.884.884,0,0,1,.353,1.733,12.318,12.318,0,0,1-2.46.251,13.455,13.455,0,0,1-7.644-2.54,1.569,1.569,0,0,1-.585-.75c-.015-.04-.027-.08-.041-.12l-2.983-2.062a12.092,12.092,0,0,0,11.352,7.965ZM101.969,28.117V23.361h-.739a2.378,2.378,0,1,0,0,4.756Z" transform="translate(-97.084)"/>
              </g>
            </g>
          </g>
        </g>
      </g>
    </g>
  </g>
</svg>
