<svg xmlns="http://www.w3.org/2000/svg" width="139.683" height="139.683" viewBox="0 0 139.683 139.683">
  <g id="Grupo_10147" data-name="Grupo 10147" transform="translate(3186 -94)">
    <g id="Grupo_10139" data-name="Grupo 10139">
      <g id="Grupo_10123" data-name="Grupo 10123">
        <g id="Grupo_10122" data-name="Grupo 10122" transform="translate(0 163)">
          <g id="Grupo_10115" data-name="Grupo 10115" transform="translate(20 341)">
            <circle id="Elipse_522" data-name="Elipse 522" cx="69.841" cy="69.841" r="69.841" transform="translate(-3206 -410)" fill="#57b8e8"/>
            <circle id="Elipse_523" data-name="Elipse 523" cx="62.739" cy="62.739" r="62.739" transform="translate(-3198.897 -402.897)" fill="#fff"/>
          </g>
        </g>
        <g id="Grupo_10121" data-name="Grupo 10121" transform="translate(-3178 11)">
          <path id="Trazado_6605" data-name="Trazado 6605" d="M162.267,142.133v33.733c0,3.387-13.043,6.133-29.133,6.133S104,179.253,104,175.867V142.133c0-3.387,13.043-6.133,29.133-6.133S162.267,138.747,162.267,142.133Z" transform="translate(-71.133 -6.467)" fill="#6ed2f0"/>
          <path id="Trazado_6606" data-name="Trazado 6606" d="M110.133,148.35v41.266c-3.845-1.041-6.133-2.346-6.133-3.766V152.116c0-1.42,2.288-2.726,6.133-3.766Z" transform="translate(-71.133 -16.45)" fill="#60b8d1"/>
          <path id="Trazado_6607" data-name="Trazado 6607" d="M382.133,152.116V185.85c0,1.42-2.288,2.725-6.133,3.766V148.35c3.845,1.041,6.133,2.346,6.133,3.766Z" transform="translate(-291 -16.45)" fill="#60b8d1"/>
          <path id="Trazado_6608" data-name="Trazado 6608" d="M94.2,137.2H92.667v-1.533c0-2.546-3.189-4.456-9.75-5.837A106.571,106.571,0,0,0,62,128a106.569,106.569,0,0,0-20.916,1.829c-6.561,1.381-9.75,3.291-9.75,5.837V137.2H29.8A13.816,13.816,0,0,0,16,151v3.067a13.816,13.816,0,0,0,13.8,13.8h1.533V169.4c0,2.546,3.189,4.456,9.75,5.837A106.567,106.567,0,0,0,62,177.067a106.569,106.569,0,0,0,20.916-1.829c6.561-1.381,9.75-3.291,9.75-5.837v-1.533H94.2a13.816,13.816,0,0,0,13.8-13.8V151A13.816,13.816,0,0,0,94.2,137.2ZM29.8,164.8a10.746,10.746,0,0,1-10.733-10.733V151A10.746,10.746,0,0,1,29.8,140.267h1.533V164.8Zm4.6,4.563V135.7c.057-.1.546-.84,3.067-1.73v37.12C34.946,170.2,34.458,169.468,34.4,169.363Zm47.177,3.017A106.372,106.372,0,0,1,62,174a106.372,106.372,0,0,1-19.577-1.62c-.688-.134-1.314-.271-1.89-.408V158.667H48.2a1.533,1.533,0,1,0,0-3.067H40.533v-6.133H60.467a1.533,1.533,0,0,0,0-3.067H40.533V133.094c.575-.136,1.2-.273,1.89-.408A106.37,106.37,0,0,1,62,131.067a106.37,106.37,0,0,1,19.577,1.62c.687.134,1.314.271,1.89.408V146.4H66.6a1.533,1.533,0,1,0,0,3.067H83.467V155.6H54.333a1.533,1.533,0,1,0,0,3.067H83.467v13.306c-.575.136-1.2.273-1.89.408Zm8.023-3.017c-.058.1-.546.84-3.067,1.73v-37.12c2.52.89,3.009,1.625,3.067,1.73Zm15.333-15.3A10.746,10.746,0,0,1,94.2,164.8H92.667V140.267H94.2A10.746,10.746,0,0,1,104.933,151Z"/>
          <path id="Trazado_6609" data-name="Trazado 6609" d="M214.818,163.665a1.533,1.533,0,0,0,.364-3.045,96.354,96.354,0,0,0-21.831,0,1.533,1.533,0,1,0,.364,3.045A93.3,93.3,0,0,1,214.818,163.665Z" transform="translate(-142.266 -25.866)"/>
        </g>
      </g>
    </g>
  </g>
</svg>
