<svg xmlns="http://www.w3.org/2000/svg" width="139.683" height="139.683" viewBox="0 0 139.683 139.683">
  <g id="Grupo_10149" data-name="Grupo 10149" transform="translate(3186 -469)">
    <g id="Grupo_10137" data-name="Grupo 10137">
      <g id="Grupo_10131" data-name="Grupo 10131" transform="translate(0 538)">
        <g id="Grupo_10115" data-name="Grupo 10115" transform="translate(20 341)">
          <circle id="Elipse_522" data-name="Elipse 522" cx="69.841" cy="69.841" r="69.841" transform="translate(-3206 -410)" fill="#57b8e8"/>
          <circle id="Elipse_523" data-name="Elipse 523" cx="62.739" cy="62.739" r="62.739" transform="translate(-3198.897 -402.897)" fill="#fff"/>
        </g>
      </g>
      <g id="Grupo_10132" data-name="Grupo 10132" transform="translate(-3 190)">
        <circle id="Elipse_526" data-name="Elipse 526" cx="15.798" cy="15.798" r="15.798" transform="translate(-3148.366 313.634)" fill="#fff"/>
        <circle id="Elipse_527" data-name="Elipse 527" cx="15.798" cy="15.798" r="15.798" transform="translate(-3110.231 351.768)" fill="#fff"/>
        <circle id="Elipse_528" data-name="Elipse 528" cx="15.798" cy="15.798" r="15.798" transform="translate(-3148.366 351.768)" fill="#e3d59d"/>
        <circle id="Elipse_529" data-name="Elipse 529" cx="15.798" cy="15.798" r="15.798" transform="translate(-3110.231 313.634)" fill="#fff"/>
        <path id="Trazado_6610" data-name="Trazado 6610" d="M331.465,150.744a16.033,16.033,0,0,1-23.145,0,12.239,12.239,0,0,1,23.145,0Z" transform="translate(-3414.361 189.826)" fill="#99ebfa"/>
        <path id="Trazado_6611" data-name="Trazado 6611" d="M64.465,150.744a16.033,16.033,0,0,1-23.145,0,12.239,12.239,0,0,1,23.145,0Z" transform="translate(-3185.429 189.826)" fill="#ffc144"/>
        <path id="Trazado_6612" data-name="Trazado 6612" d="M331.465,417.752a16.033,16.033,0,0,1-23.145,0,12.24,12.24,0,0,1,23.145,0Z" transform="translate(-3414.361 -39.115)" fill="#e38eba"/>
        <g id="Grupo_10125" data-name="Grupo 10125" transform="translate(-3138.95 319.485)">
          <circle id="Elipse_530" data-name="Elipse 530" cx="6.416" cy="6.416" r="6.416" transform="translate(38.068)" fill="#ffdcd5"/>
          <circle id="Elipse_531" data-name="Elipse 531" cx="6.416" cy="6.416" r="6.416" transform="translate(38.068 38.068)" fill="#ffdcd5"/>
          <circle id="Elipse_532" data-name="Elipse 532" cx="6.416" cy="6.416" r="6.416" fill="#ffdcd5"/>
        </g>
        <path id="Trazado_6613" data-name="Trazado 6613" d="M55.534,38.068a17.489,17.489,0,0,0-17.407,16.04H34.873a17.39,17.39,0,0,0-4.1-9.869L44.233,30.783A17.47,17.47,0,0,0,71.9,11.368a1.425,1.425,0,0,0-1.833-.838,1.426,1.426,0,0,0-.838,1.834,14.645,14.645,0,0,1-1.8,13.586,14.007,14.007,0,0,0-6.84-6.066,7.842,7.842,0,1,0-10.126,0,14,14,0,0,0-6.841,6.064A14.62,14.62,0,0,1,61.419,4.085a1.426,1.426,0,1,0,1.15-2.609A17.328,17.328,0,0,0,55.537,0h0A17.459,17.459,0,0,0,42.217,28.766L28.76,42.223a17.39,17.39,0,0,0-9.869-4.1V34.873a17.466,17.466,0,1,0-2.852,0v3.254A17.466,17.466,0,1,0,34.873,56.96h3.254A17.466,17.466,0,1,0,55.534,38.068ZM50.544,13.9a4.99,4.99,0,1,1,5.02,4.989H55.5A5,5,0,0,1,50.544,13.9ZM55.5,21.742h.061a10.958,10.958,0,0,1,9.849,6.492,14.612,14.612,0,0,1-19.761,0A10.959,10.959,0,0,1,55.5,21.742ZM12.476,13.9a4.99,4.99,0,1,1,5.02,4.989h-.062A5,5,0,0,1,12.476,13.9Zm4.99,7.842h.03a10.957,10.957,0,0,1,9.846,6.486,14.586,14.586,0,0,1-19.755,0,10.958,10.958,0,0,1,9.848-6.483Zm0-18.892a14.607,14.607,0,0,1,11.9,23.091,14.006,14.006,0,0,0-6.835-6.059,7.842,7.842,0,1,0-10.126,0,14.006,14.006,0,0,0-6.837,6.057,14.607,14.607,0,0,1,11.9-23.088Zm0,67.3A14.614,14.614,0,1,1,32.08,55.534,14.631,14.631,0,0,1,17.466,70.148Zm28.189-3.855a10.766,10.766,0,0,1,19.755,0,14.586,14.586,0,0,1-19.755,0Zm9.879-9.334a4.99,4.99,0,1,1,4.99-4.99A5,5,0,0,1,55.534,56.96Zm11.9,7.051A14,14,0,0,0,60.6,57.952a7.842,7.842,0,1,0-10.125,0,14,14,0,0,0-6.838,6.056,14.614,14.614,0,1,1,23.8,0Z" transform="translate(-3150 312)"/>
        <circle id="Elipse_533" data-name="Elipse 533" cx="1.426" cy="1.426" r="1.426" transform="translate(-3084.226 317.032)"/>
        <g id="Grupo_10129" data-name="Grupo 10129" transform="translate(-3144.258 355.573)">
          <g id="Grupo_10128" data-name="Grupo 10128">
            <ellipse id="Elipse_14" data-name="Elipse 14" cx="6.789" cy="6.789" rx="6.789" ry="6.789" transform="translate(5.285 5.289)" fill="#ff8086"/>
            <path id="Trazado_4016" data-name="Trazado 4016" d="M1137.889,626.3a6.79,6.79,0,0,1-6.79-6.787,6.716,6.716,0,0,1,.849-3.225,6.765,6.765,0,1,0,9.165,9.165,6.715,6.715,0,0,1-3.225.849Z" transform="translate(-1123.099 -610.15)" fill="#e5646e"/>
            <path id="Trazado_4019" data-name="Trazado 4019" d="M1143.243,624.849a1.272,1.272,0,0,0,0-2.541h-.011a1.272,1.272,0,0,0,.011,2.541Z" transform="translate(-1128.849 -612.688)"/>
            <path id="Trazado_4020" data-name="Trazado 4020" d="M1139.231,630.866a1.272,1.272,0,0,0,.122-2.541q-.061,0-.122,0h-.011a1.272,1.272,0,0,0,.011,2.541Z" transform="translate(-1127.157 -615.225)"/>
            <path id="Trazado_4021" data-name="Trazado 4021" d="M1135.172,622.308h-.011a1.276,1.276,0,1,0,.011,0Z" transform="translate(-1125.417 -612.688)"/>
            <path id="Trazado_4022" data-name="Trazado 4022" d="M1120.449,616.479a1.272,1.272,0,0,0,0,2.541h2.9a8.022,8.022,0,0,0,1.436,3.456l-2.057,2.057a1.272,1.272,0,1,0,1.7,1.891c.033-.03.064-.061.094-.094l2.057-2.057a8.019,8.019,0,0,0,3.456,1.436v2.9a1.272,1.272,0,0,0,2.541.121c0-.04,0-.081,0-.121v-2.9a8.019,8.019,0,0,0,3.456-1.436l2.057,2.057a1.272,1.272,0,0,0,1.8-1.8l-2.057-2.057a8.019,8.019,0,0,0,1.436-3.456h2.9a1.272,1.272,0,0,0,0-2.541h-2.9a7.968,7.968,0,0,0-1.433-3.459l2.053-2.053a1.272,1.272,0,0,0-1.8-1.8l-2.881,2.881a1.272,1.272,0,0,0,0,1.8h0a5.519,5.519,0,1,1-3.906-1.619,1.272,1.272,0,0,0,1.272-1.272v-4.074a1.272,1.272,0,0,0-2.541,0v2.9a8.021,8.021,0,0,0-3.456,1.436l-2.057-2.057a1.272,1.272,0,0,0-1.891,1.7,1.146,1.146,0,0,0,.094.094l2.057,2.057a8.012,8.012,0,0,0-1.436,3.456h-2.9Z" transform="translate(-1119.238 -605.671)"/>
          </g>
        </g>
      </g>
    </g>
  </g>
</svg>
