<svg xmlns="http://www.w3.org/2000/svg" width="139.683" height="139.683" viewBox="0 0 139.683 139.683">
  <g id="Grupo_10143" data-name="Grupo 10143" transform="translate(3186 558)">
    <g id="Grupo_10142" data-name="Grupo 10142">
      <g id="Grupo_10120" data-name="Grupo 10120">
        <g id="Grupo_10098" data-name="Grupo 10098" transform="translate(20 -148)">
          <circle id="Elipse_522" data-name="Elipse 522" cx="69.841" cy="69.841" r="69.841" transform="translate(-3206 -410)" fill="#57b8e8"/>
          <circle id="Elipse_523" data-name="Elipse 523" cx="62.739" cy="62.739" r="62.739" transform="translate(-3198.897 -402.897)" fill="#fff"/>
        </g>
        <g id="Grupo_10097" data-name="Grupo 10097" transform="translate(-66 -252.972)">
          <g id="Grupo_9955" data-name="Grupo 9955" transform="translate(-3080 -275.028)">
            <g id="Grupo_9953" data-name="Grupo 9953" transform="translate(1.166 6.151)">
              <path id="Trazado_4011" data-name="Trazado 4011" d="M1152.542,654.083h-47.36a4.986,4.986,0,0,1-4.985-4.985V589.275a4.985,4.985,0,0,1,4.985-4.983h47.36a4.986,4.986,0,0,1,4.985,4.985V649.1a4.986,4.986,0,0,1-4.985,4.985Z" transform="translate(-1100.197 -581.797)" fill="#f6d190"/>
              <path id="Trazado_4012" data-name="Trazado 4012" d="M1155.7,651.012h-44.867a1.246,1.246,0,0,1-1.246-1.246h0V594.928a1.246,1.246,0,0,1,1.246-1.246H1155.7a1.246,1.246,0,0,1,1.246,1.246h0v54.838a1.246,1.246,0,0,1-1.246,1.246Z" transform="translate(-1104.606 -586.204)" fill="#fff"/>
              <path id="Trazado_4013" data-name="Trazado 4013" d="M1151.544,587.069h-14.5a3.966,3.966,0,0,1-3.966-3.966h0v-2.19a1.322,1.322,0,0,1,1.322-1.322h19.79a1.322,1.322,0,0,1,1.322,1.322v2.19a3.966,3.966,0,0,1-3.966,3.966Z" transform="translate(-1115.627 -579.591)" fill="#eceaec"/>
              <path id="Trazado_4014" data-name="Trazado 4014" d="M1109.243,650.5a5.223,5.223,0,0,1-5.218-5.218V584.62a5.054,5.054,0,0,0-3.828,4.809v59.823a4.986,4.986,0,0,0,4.985,4.985h47.36a4.974,4.974,0,0,0,4.809-3.739Z" transform="translate(-1100.197 -581.951)" fill="#ecbd83"/>
              <path id="Trazado_4015" data-name="Trazado 4015" d="M1118.314,647.274a4.985,4.985,0,0,1-4.985-4.985V593.682h-2.494a1.246,1.246,0,0,0-1.246,1.246v54.838a1.246,1.246,0,0,0,1.246,1.246H1155.7a1.246,1.246,0,0,0,1.246-1.246h0v-2.494Z" transform="translate(-1104.604 -586.204)" fill="#faf5dc"/>
              <ellipse id="Elipse_14" data-name="Elipse 14" cx="6.231" cy="6.231" rx="6.231" ry="6.231" transform="translate(14.955 18.695)" fill="#ff8086"/>
              <path id="Trazado_4016" data-name="Trazado 4016" d="M1137.109,625.479a6.232,6.232,0,0,1-6.231-6.229,6.164,6.164,0,0,1,.78-2.96,6.209,6.209,0,1,0,8.411,8.412,6.163,6.163,0,0,1-2.96.78Z" transform="translate(-1113.429 -596.814)" fill="#e5646e"/>
              <path id="Trazado_4017" data-name="Trazado 4017" d="M1155.281,583.33h-14.5a3.955,3.955,0,0,1-3.943-3.739h-2.441a1.322,1.322,0,0,0-1.322,1.322v2.19a3.966,3.966,0,0,0,3.966,3.966h14.5a3.956,3.956,0,0,0,3.945-3.76C1155.417,583.313,1155.351,583.33,1155.281,583.33Z" transform="translate(-1115.625 -579.591)" fill="#dad8db"/>
            </g>
            <g id="Grupo_9954" data-name="Grupo 9954">
              <path id="Trazado_4018" data-name="Trazado 4018" d="M1151.511,575.478h-11.3v0a2.491,2.491,0,0,0-2.488-2.488h-4.989v-1.327a3.662,3.662,0,0,0-3.66-3.659h-2.494a3.662,3.662,0,0,0-3.656,3.659v1.327h-4.988a2.491,2.491,0,0,0-2.488,2.488v2.19a5.1,5.1,0,0,0,.834,2.8H1105.4a2.415,2.415,0,0,0-2.412,2.413v54.838a2.415,2.415,0,0,0,2.412,2.413h44.868a2.415,2.415,0,0,0,2.412-2.413V582.875a2.415,2.415,0,0,0-2.412-2.413h-7.478a1.168,1.168,0,0,0,0,2.332h7.478a.08.08,0,0,1,.08.08h0v54.838a.08.08,0,0,1-.08.08H1105.4a.08.08,0,0,1-.08-.08h0V582.875a.08.08,0,0,1,.08-.08h29.683a5.137,5.137,0,0,0,5.128-4.985h11.3a3.821,3.821,0,0,1,3.821,3.821v59.821a3.821,3.821,0,0,1-3.821,3.821h-47.358a3.821,3.821,0,0,1-3.821-3.821V581.629a3.821,3.821,0,0,1,3.821-3.821h7.478a1.168,1.168,0,0,0,0-2.332h-7.478a6.156,6.156,0,0,0-6.151,6.153v59.823a6.156,6.156,0,0,0,6.151,6.152h47.36a6.157,6.157,0,0,0,6.151-6.151V581.629A6.156,6.156,0,0,0,1151.511,575.478Zm-26.253-3.821a1.327,1.327,0,0,1,1.327-1.327h2.494a1.327,1.327,0,0,1,1.327,1.327v1.327h-5.148Zm12.624,6.006a2.8,2.8,0,0,1-2.8,2.8h-14.5a2.8,2.8,0,0,1-2.8-2.8v-2.191a.156.156,0,0,1,.156-.156h19.79a.156.156,0,0,1,.156.156h0v2.19Z" transform="translate(-1098 -568)"/>
              <path id="Trazado_4019" data-name="Trazado 4019" d="M1143.143,624.64a1.168,1.168,0,0,0,0-2.332h-.01a1.168,1.168,0,0,0,.01,2.332Z" transform="translate(-1118.661 -593.487)"/>
              <path id="Trazado_4020" data-name="Trazado 4020" d="M1139.131,630.657a1.168,1.168,0,0,0,.112-2.332q-.056,0-.112,0h-.01a1.168,1.168,0,0,0,.01,2.332Z" transform="translate(-1116.778 -596.31)"/>
              <path id="Trazado_4021" data-name="Trazado 4021" d="M1135.067,622.308h-.01a1.171,1.171,0,1,0,.01,0Z" transform="translate(-1114.843 -593.487)"/>
              <path id="Trazado_4022" data-name="Trazado 4022" d="M1120.349,615.59a1.168,1.168,0,0,0,0,2.332h2.666a7.363,7.363,0,0,0,1.318,3.172l-1.888,1.888a1.167,1.167,0,1,0,1.562,1.735c.03-.027.059-.056.087-.087l1.888-1.888a7.36,7.36,0,0,0,3.172,1.318v2.666a1.168,1.168,0,0,0,2.333.111q0-.056,0-.111v-2.666a7.361,7.361,0,0,0,3.172-1.318l1.888,1.888a1.167,1.167,0,0,0,1.649-1.649l-1.888-1.888a7.362,7.362,0,0,0,1.318-3.172h2.666a1.168,1.168,0,0,0,0-2.332h-2.665a7.313,7.313,0,0,0-1.315-3.175l1.885-1.885a1.168,1.168,0,0,0-1.649-1.649l-2.644,2.644a1.168,1.168,0,0,0,0,1.649h0a5.066,5.066,0,1,1-3.585-1.486,1.167,1.167,0,0,0,1.167-1.167v-3.739a1.167,1.167,0,0,0-2.332,0v2.666a7.362,7.362,0,0,0-3.172,1.318l-1.888-1.888a1.168,1.168,0,0,0-1.735,1.562,1.072,1.072,0,0,0,.087.087l1.888,1.888a7.353,7.353,0,0,0-1.318,3.172h-2.665Z" transform="translate(-1107.967 -585.679)"/>
              <path id="Trazado_4023" data-name="Trazado 4023" d="M1173.453,612.62h-6.232a1.168,1.168,0,0,0-.111,2.332q.056,0,.111,0h6.231a1.168,1.168,0,0,0,0-2.332Z" transform="translate(-1129.912 -588.94)"/>
              <path id="Trazado_4024" data-name="Trazado 4024" d="M1175.945,624.362h-8.725a1.168,1.168,0,0,0-.111,2.332q.056,0,.111,0h8.724a1.168,1.168,0,0,0,.111-2.332q-.056,0-.111,0Z" transform="translate(-1129.912 -594.45)"/>
              <path id="Trazado_4025" data-name="Trazado 4025" d="M1175.945,638.437a1.167,1.167,0,0,0,.111-2.332q-.056,0-.111,0h-8.725a1.167,1.167,0,0,0-.111,2.332q.056,0,.111,0Z" transform="translate(-1129.912 -599.961)"/>
              <path id="Trazado_4026" data-name="Trazado 4026" d="M1124.944,659.573H1139.9a1.168,1.168,0,0,0,.111-2.332q-.056,0-.111,0h-14.956a1.168,1.168,0,0,0-.111,2.332Q1124.889,659.576,1124.944,659.573Z" transform="translate(-1110.071 -609.881)"/>
              <path id="Trazado_4027" data-name="Trazado 4027" d="M1124.944,671.314h18.695a1.168,1.168,0,0,0,.111-2.332q-.056,0-.111,0h-18.695a1.168,1.168,0,0,0-.111,2.332Q1124.889,671.317,1124.944,671.314Z" transform="translate(-1110.071 -615.391)"/>
              <path id="Trazado_4028" data-name="Trazado 4028" d="M1124.944,683.056h22.433a1.168,1.168,0,0,0,.111-2.332q-.056,0-.111,0h-22.433a1.168,1.168,0,0,0-.111,2.332Q1124.889,683.059,1124.944,683.056Z" transform="translate(-1110.071 -620.901)"/>
              <path id="Trazado_4029" data-name="Trazado 4029" d="M1168.622,661.068a1.162,1.162,0,0,0,.825-.342l6.231-6.231a1.167,1.167,0,1,0-1.562-1.735,1.122,1.122,0,0,0-.086.086l-5.407,5.407-2.915-2.915a1.168,1.168,0,1,0-1.735,1.562,1.051,1.051,0,0,0,.086.087l3.739,3.739a1.159,1.159,0,0,0,.824.342Z" transform="translate(-1128.82 -607.638)"/>
            </g>
          </g>
        </g>
      </g>
    </g>
  </g>
</svg>
