<svg xmlns="http://www.w3.org/2000/svg" width="139.683" height="139.683" viewBox="0 0 139.683 139.683">
  <g id="Grupo_10144" data-name="Grupo 10144" transform="translate(3186 407)">
    <g id="Grupo_10141" data-name="Grupo 10141">
      <g id="Grupo_10119" data-name="Grupo 10119">
        <g id="Grupo_10099" data-name="Grupo 10099" transform="translate(20 3)">
          <circle id="Elipse_522" data-name="Elipse 522" cx="69.841" cy="69.841" r="69.841" transform="translate(-3206 -410)" fill="#57b8e8"/>
          <circle id="Elipse_523" data-name="Elipse 523" cx="62.739" cy="62.739" r="62.739" transform="translate(-3198.897 -402.897)" fill="#fff"/>
        </g>
        <g id="Grupo_10111" data-name="Grupo 10111" transform="translate(-2838 -617.134)">
          <path id="Trazado_3900" data-name="Trazado 3900" d="M-297.1,302.524l8.889-4.9.07-.038.036.012,3.779-.98h10.1l.6.085,16.869,9.019v12.423h-42.563a.871.871,0,0,1-.871-.869v-9.518a5.979,5.979,0,0,1,3.092-5.238Z" fill="#9cf8d2"/>
          <path id="Trazado_3901" data-name="Trazado 3901" d="M-269.029,297.354l1.539.22c.107-.015.193-.027.194-.026l.132.072,8.889,4.9a5.981,5.981,0,0,1,3.092,5.238v9.515a.871.871,0,0,1-.868.872h-3.229v-6.92a5.98,5.98,0,0,0-3.092-5.239l-8.619-4.754Z" fill="#6cf5c2"/>
          <path id="Trazado_3902" data-name="Trazado 3902" d="M-288.166,297.6l4.932-2.719,2.876-.989h1.015c2.7,1.271,8.367,3.939,11.975,5.63a10.478,10.478,0,0,1-12.134,8.508,10.478,10.478,0,0,1-8.666-10.333Z" fill="#6cf5c2"/>
          <path id="Trazado_3903" data-name="Trazado 3903" d="M-292.724,239.93l5.788-1.089,15.731-.613,9.057,2.86,2.314,9.329,4.019,2.041v19.834h-45.8V253.883a17.428,17.428,0,0,1,3.648-10.7c2.294-1.4,5.243-3.253,5.243-3.253Z" fill="#9b8e99"/>
          <path id="Trazado_3904" data-name="Trazado 3904" d="M-257.886,271.893V256.145a3.54,3.54,0,0,0-3.481-3.54h-.06a12.165,12.165,0,0,0-12.164-12.165h-14.137a17.442,17.442,0,0,0-11.107,3.972A17.5,17.5,0,0,1-284.1,236.37h14.136A12.167,12.167,0,0,1-257.8,248.535a3.542,3.542,0,0,1,3.541,3.541h0V272.3h-3.628Z" fill="#8b8089"/>
          <path id="Trazado_3905" data-name="Trazado 3905" d="M-259.748,266.481h2.264a4.55,4.55,0,0,1,4.55,4.55,4.55,4.55,0,0,1-4.55,4.55h-6.207v-9.1Z" fill="#ffdfcf"/>
          <path id="Trazado_3906" data-name="Trazado 3906" d="M-298.217,266.481h6.677v9.1h-6.677a4.55,4.55,0,0,1-4.55-4.55A4.55,4.55,0,0,1-298.217,266.481Z" fill="#ffdfcf"/>
          <path id="Trazado_3907" data-name="Trazado 3907" d="M-273.674,294.145l1.535.729,4.933,2.72v.1a10.5,10.5,0,0,1-.381,2.794h0a10.342,10.342,0,0,1-.862,2.151l-3.616-1.994-1.537-.73v-2.631l-.07-.033Z" fill="#00f2a6"/>
          <path id="Trazado_3908" data-name="Trazado 3908" d="M-273.367,286.015V299.9l-4.5,3.338a5.549,5.549,0,0,1-5.364-5.544V286.015Z" fill="#ffe5c2"/>
          <path id="Trazado_3909" data-name="Trazado 3909" d="M-279.418,302.965a5.285,5.285,0,0,1-.65-.262,5.542,5.542,0,0,0,2.649-4.731V286.293h1.817v-.278h3.463v11.679a5.545,5.545,0,0,1-5.541,5.549,5.525,5.525,0,0,1-1.447-.191l-.1-.027c-.065-.019-.13-.038-.194-.06Z" fill="#fed2a4"/>
          <path id="Trazado_3910" data-name="Trazado 3910" d="M-288.481,253.918l10.36,2.664a1.729,1.729,0,0,0,.875,0l.1-.027,7.572-2.824c3.379-1.192,6.966.886,6.966.886a5.9,5.9,0,0,1,2.858,5.071V275.1a18.09,18.09,0,0,1-.463,4.082l-.043.06a18.081,18.081,0,0,1-8.435,11.443l-.015.02a18.071,18.071,0,0,1-24.717-6.5,18.07,18.07,0,0,1-2.465-9.1V259.665a5.928,5.928,0,0,1,5.928-5.926,5.892,5.892,0,0,1,1.472.186Z" fill="#ffe5c2"/>
          <path id="Trazado_3911" data-name="Trazado 3911" d="M-275.066,290.287l.015-.021a18.086,18.086,0,0,0,8.434-11.443l.045-.06a18.207,18.207,0,0,0,.463-4.082V259.265a5.907,5.907,0,0,0-2.86-5.071,8.573,8.573,0,0,0-.8-.391l.2-.074c3.379-1.192,6.966.886,6.966.886a5.9,5.9,0,0,1,2.858,5.071V275.1a18.146,18.146,0,0,1-.462,4.082l-.044.06a18.086,18.086,0,0,1-8.434,11.443l-.015.02a18.124,18.124,0,0,1-13.479,1.933,17.968,17.968,0,0,0,7.117-2.353Z" fill="#fed2a4"/>
          <path id="Trazado_3916" data-name="Trazado 3916" d="M-297.043,276.813h-1.174A5.781,5.781,0,0,1-304,271.036a5.782,5.782,0,0,1,1.151-3.464V253.883A18.771,18.771,0,0,1-284.1,235.134h14.136A13.416,13.416,0,0,1-256.61,247.45a4.782,4.782,0,0,1,3.585,4.624v4.054a1.233,1.233,0,0,1-1.233,1.233,1.233,1.233,0,0,1-1.233-1.233v-4.054a2.31,2.31,0,0,0-2.308-2.309,1.234,1.234,0,0,1-1.233-1.233A10.945,10.945,0,0,0-269.964,237.6H-284.1a16.3,16.3,0,0,0-16.282,16.282v11.788a5.742,5.742,0,0,1,2.165-.423h1.1v-5.59a7.16,7.16,0,0,1,7.161-7.159,7.18,7.18,0,0,1,1.781.225l10.36,2.663a.491.491,0,0,0,.258,0l.1-.026a1.234,1.234,0,0,1,1.508.877,1.232,1.232,0,0,1-.877,1.507l-.009,0-.1.026a2.95,2.95,0,0,1-1.493,0l-10.358-2.663a4.693,4.693,0,0,0-5.714,3.374,4.677,4.677,0,0,0-.149,1.171V275.1a16.84,16.84,0,0,0,16.843,16.836,16.841,16.841,0,0,0,8.482-2.3,1.234,1.234,0,0,1,1.688.442,1.233,1.233,0,0,1-.442,1.687,19.208,19.208,0,0,1-2.823,1.354v1.024l13.225,7.294a7.213,7.213,0,0,1,3.732,6.318v10.385a1.235,1.235,0,0,1-1.268,1.2,1.233,1.233,0,0,1-1.2-1.2V307.758a4.745,4.745,0,0,0-2.457-4.158l-7.258-4a11.734,11.734,0,0,1-11.556,9.808,11.567,11.567,0,0,1-5.338-1.292,1.233,1.233,0,0,1-.543-1.658,1.232,1.232,0,0,1,1.657-.542l.014.007a9.133,9.133,0,0,0,4.21,1.019,9.26,9.26,0,0,0,9.225-8.629l-2.444-1.347v.727a6.782,6.782,0,0,1-6.781,6.782,6.783,6.783,0,0,1-6.782-6.782v-.727l-2.446,1.348a9.194,9.194,0,0,0,1.531,4.5,1.235,1.235,0,0,1-.379,1.7,1.235,1.235,0,0,1-1.673-.334,11.641,11.641,0,0,1-1.809-4.583l-7.259,4a4.75,4.75,0,0,0-2.455,4.158v10.386a1.234,1.234,0,0,1-1.268,1.2,1.234,1.234,0,0,1-1.2-1.2V307.758a7.213,7.213,0,0,1,3.731-6.318l13.226-7.294v-.926a19.354,19.354,0,0,1-12.576-16.411Zm-.144-9.1h-1.03a3.316,3.316,0,0,0-3.316,3.316,3.316,3.316,0,0,0,3.316,3.317h1.03ZM-282,294.866v2.827a4.314,4.314,0,0,0,4.292,4.337,4.316,4.316,0,0,0,4.338-4.292v-3.853a19.341,19.341,0,0,1-8.63.06Z"/>
          <path id="Trazado_3917" data-name="Trazado 3917" d="M-258.588,276.813a19.255,19.255,0,0,1-.418,2.649,1.232,1.232,0,0,1-1.2.955,1.235,1.235,0,0,1-.278-.032,1.234,1.234,0,0,1-.925-1.479,16.818,16.818,0,0,0,.432-3.8V259.69a4.668,4.668,0,0,0-2.265-4.017,1.233,1.233,0,0,1-.444-1.686,1.232,1.232,0,0,1,1.686-.445l.037.023a7.111,7.111,0,0,1,3.452,6.125v5.562h1.031a5.743,5.743,0,0,1,1.993.354v-4.218a1.233,1.233,0,0,1,1.233-1.233,1.233,1.233,0,0,1,1.233,1.233v5.969a5.78,5.78,0,0,1-.774,8.137,5.782,5.782,0,0,1-3.685,1.323Zm4.423-5.782a3.32,3.32,0,0,0-3.316-3.317h-1.031v6.633h1.031A3.322,3.322,0,0,0-254.165,271.031Z"/>
          <path id="Trazado_3918" data-name="Trazado 3918" d="M-269.286,268.033a1.234,1.234,0,0,1,1.234,1.232h0V270.7a1.234,1.234,0,0,1-1.268,1.2,1.233,1.233,0,0,1-1.2-1.2v-1.436a1.233,1.233,0,0,1,1.233-1.233Z"/>
          <path id="Trazado_3919" data-name="Trazado 3919" d="M-264.44,266.376l.024.043a1.233,1.233,0,0,1-.474,1.679,1.234,1.234,0,0,1-1.678-.474l-.024-.043a4.618,4.618,0,0,0-2.973-2.233,1.232,1.232,0,0,1-.863-1.515,1.233,1.233,0,0,1,1.422-.885,7.084,7.084,0,0,1,4.566,3.43Z"/>
          <path id="Trazado_3920" data-name="Trazado 3920" d="M-285.018,270.7a1.233,1.233,0,0,1-1.233,1.233,1.233,1.233,0,0,1-1.233-1.233v-1.436a1.233,1.233,0,0,1,1.233-1.233,1.233,1.233,0,0,1,1.233,1.233Z"/>
          <path id="Trazado_3921" data-name="Trazado 3921" d="M-288.943,267.581l-.025.043a1.233,1.233,0,0,1-1.668.508,1.233,1.233,0,0,1-.508-1.668c.008-.015.016-.03.025-.045l.023-.044a7.084,7.084,0,0,1,4.567-3.429,1.234,1.234,0,0,1,1.517.86,1.234,1.234,0,0,1-.861,1.517c-.032.009-.065.016-.1.023a4.61,4.61,0,0,0-2.972,2.233Z"/>
          <path id="Trazado_3926" data-name="Trazado 3926" d="M-276.762,276.458l-.032-.053a.93.93,0,0,0-1.274-.327.928.928,0,0,0-.34.35,1.236,1.236,0,0,1-1.08.636,1.223,1.223,0,0,1-.6-.156,1.233,1.233,0,0,1-.481-1.675,3.4,3.4,0,0,1,4.624-1.319,3.4,3.4,0,0,1,1.271,1.235l.031.054a1.232,1.232,0,0,1-.414,1.693,1.233,1.233,0,0,1-1.694-.413l-.014-.025Z"/>
          <path id="Trazado_3927" data-name="Trazado 3927" d="M-263.66,312.7a1.233,1.233,0,0,1,1.233,1.233v4.217a1.233,1.233,0,0,1-1.233,1.233,1.233,1.233,0,0,1-1.233-1.233v-4.217a1.233,1.233,0,0,1,1.233-1.233Z"/>
          <path id="Trazado_3928" data-name="Trazado 3928" d="M-291.712,312.7a1.233,1.233,0,0,1,1.233,1.233v4.217a1.233,1.233,0,0,1-1.233,1.233,1.233,1.233,0,0,1-1.233-1.233v-4.217a1.233,1.233,0,0,1,1.233-1.233Z"/>
          <g id="Grupo_10006" data-name="Grupo 10006">
            <g id="Grupo_10005" data-name="Grupo 10005">
              <g id="Grupo_10110" data-name="Grupo 10110">
                <path id="Trazado_6345" data-name="Trazado 6345" d="M-267.505,275.046a16.622,16.622,0,0,1-.061,10.09,1.053,1.053,0,0,1-.325.513c-5.986,5.006-12.228,5.06-18.737.007a1.065,1.065,0,0,1-.357-.552,17.416,17.416,0,0,1-.051-10.052,1,1,0,0,1,.526-.632,22.347,22.347,0,0,1,18.489,0A1,1,0,0,1-267.505,275.046Z" fill="#9cf8d2"/>
                <path id="Trazado_6584" data-name="Trazado 6584" d="M-277.092,290.436q-5,0-10.149-3.99a2.09,2.09,0,0,1-.711-1.087,18.327,18.327,0,0,1-.043-10.59,1.992,1.992,0,0,1,1.047-1.248,23.362,23.362,0,0,1,19.341-.011,2.031,2.031,0,0,1,1.061,1.25,17.532,17.532,0,0,1-.069,10.686,2,2,0,0,1-.621.959Q-272.057,290.437-277.092,290.436Zm-.163-17.019a21.386,21.386,0,0,0-8.841,1.913,16.543,16.543,0,0,0,.067,9.481c6.122,4.8,11.841,4.8,17.5.071a15.6,15.6,0,0,0,.074-9.538l-.009-.028,0,0A21.258,21.258,0,0,0-277.255,273.417Z"/>
              </g>
            </g>
          </g>
          <rect id="Rectángulo_2781" data-name="Rectángulo 2781" width="2" height="10.817" transform="translate(-296.084 270.467) rotate(-56.31)"/>
          <rect id="Rectángulo_2782" data-name="Rectángulo 2782" width="2" height="10.817" transform="translate(-296.084 280.467) rotate(-56.31)"/>
          <rect id="Rectángulo_2783" data-name="Rectángulo 2783" width="12.728" height="2" transform="translate(-269.237 274.928) rotate(-45)"/>
          <rect id="Rectángulo_2784" data-name="Rectángulo 2784" width="12.728" height="2" transform="translate(-269.237 284.928) rotate(-45)"/>
          <path id="Trazado_6585" data-name="Trazado 6585" d="M-277.613,258.05a1.247,1.247,0,0,1-.895-.377,1.249,1.249,0,0,1,.021-1.765c.171-.169,4.269-4.112,9.479-4.024,5.069.089,6.947,1.642,7.144,1.819a1.25,1.25,0,0,1,.1,1.765,1.25,1.25,0,0,1-1.765.1h0s-1.453-1.111-5.521-1.182c-4.193-.1-7.654,3.279-7.689,3.312A1.243,1.243,0,0,1-277.613,258.05Z"/>
        </g>
      </g>
    </g>
  </g>
</svg>
