<svg xmlns="http://www.w3.org/2000/svg" width="139.683" height="139.683" viewBox="0 0 139.683 139.683">
  <g id="Grupo_10148" data-name="Grupo 10148" transform="translate(3186 -276)">
    <g id="Grupo_10136" data-name="Grupo 10136">
      <g id="Grupo_10122" data-name="Grupo 10122" transform="translate(0 345)">
        <g id="Grupo_10115" data-name="Grupo 10115" transform="translate(20 341)">
          <circle id="Elipse_522" data-name="Elipse 522" cx="69.841" cy="69.841" r="69.841" transform="translate(-3206 -410)" fill="#57b8e8"/>
          <circle id="Elipse_523" data-name="Elipse 523" cx="62.739" cy="62.739" r="62.739" transform="translate(-3198.897 -402.897)" fill="#fff"/>
        </g>
      </g>
      <g id="Grupo_10135" data-name="Grupo 10135" transform="translate(-3149 313)">
        <path id="Trazado_6614" data-name="Trazado 6614" d="M54.343,73.421H15.156A5.156,5.156,0,0,1,10,68.265V15.156A5.156,5.156,0,0,1,15.156,10H54.343A5.156,5.156,0,0,1,59.5,15.156V68.265A5.156,5.156,0,0,1,54.343,73.421Z" transform="translate(-8.711 -8.711)" fill="#e1e3e9"/>
        <g id="Grupo_10133" data-name="Grupo 10133" transform="translate(6.961 6.961)">
          <path id="Trazado_6615" data-name="Trazado 6615" d="M54,106.078H92.156V54H54Z" transform="translate(-54 -54)" fill="#fff"/>
        </g>
        <path id="Trazado_6616" data-name="Trazado 6616" d="M137.078,21.344h-16.5A2.578,2.578,0,0,1,118,18.766V10h21.656v8.766A2.578,2.578,0,0,1,137.078,21.344Z" transform="translate(-102.789 -8.711)" fill="#91def5"/>
        <path id="Trazado_6617" data-name="Trazado 6617" d="M102,154h25.781v7.219H102Z" transform="translate(-88.852 -134.149)" fill="#f5737f"/>
        <path id="Trazado_6618" data-name="Trazado 6618" d="M445.867,434.846,442,424.908h7.734Z" transform="translate(-385.024 -370.135)" fill="#98a1b3"/>
        <path id="Trazado_6619" data-name="Trazado 6619" d="M442,50h7.734V98.328H442Z" transform="translate(-385.024 -43.555)" fill="#ffcb7c"/>
        <g id="Grupo_10134" data-name="Grupo 10134">
          <path id="Trazado_6620" data-name="Trazado 6620" d="M45.632,0H6.445A6.453,6.453,0,0,0,0,6.445V59.554A6.453,6.453,0,0,0,6.445,66H45.632a6.453,6.453,0,0,0,6.445-6.445v-20.5a1.289,1.289,0,1,0-2.578,0v20.5a3.872,3.872,0,0,1-3.867,3.867H6.445a3.872,3.872,0,0,1-3.867-3.867V6.445A3.872,3.872,0,0,1,6.445,2.578h7.477V5.672H6.961A1.289,1.289,0,0,0,5.672,6.961V59.039a1.289,1.289,0,0,0,1.289,1.289H45.117a1.289,1.289,0,0,0,1.289-1.289V6.961a1.289,1.289,0,0,0-1.289-1.289H38.156V2.578h7.477A3.872,3.872,0,0,1,49.5,6.445V27.457a1.289,1.289,0,1,0,2.578,0V6.445A6.453,6.453,0,0,0,45.632,0Zm-1.8,8.25v49.5H8.25V8.25h5.672v1.8a3.872,3.872,0,0,0,3.867,3.867h16.5a3.872,3.872,0,0,0,3.867-3.867V8.25Zm-8.25,1.8a1.291,1.291,0,0,1-1.289,1.289h-16.5A1.291,1.291,0,0,1,16.5,10.055V2.578H35.578Z"/>
          <path id="Trazado_6621" data-name="Trazado 6621" d="M119.07,248H93.289a1.289,1.289,0,1,0,0,2.578H119.07a1.289,1.289,0,1,0,0-2.578Z" transform="translate(-80.141 -216.031)"/>
          <path id="Trazado_6622" data-name="Trazado 6622" d="M216.531,296H205.172a1.289,1.289,0,0,0,0,2.578h11.359a1.289,1.289,0,0,0,0-2.578Z" transform="translate(-177.601 -257.844)"/>
          <path id="Trazado_6623" data-name="Trazado 6623" d="M100.493,296h-7.2a1.289,1.289,0,0,0,0,2.578h7.2a1.289,1.289,0,0,0,0-2.578Z" transform="translate(-80.141 -257.844)"/>
          <path id="Trazado_6624" data-name="Trazado 6624" d="M93.41,345.289a1.289,1.289,0,0,0,1.289,1.289h15.294a1.289,1.289,0,1,0,0-2.578H94.7A1.289,1.289,0,0,0,93.41,345.289Z" transform="translate(-81.369 -299.657)"/>
          <path id="Trazado_6625" data-name="Trazado 6625" d="M272.434,344h-3.086a1.289,1.289,0,1,0,0,2.578h3.086a1.289,1.289,0,1,0,0-2.578Z" transform="translate(-233.505 -299.657)"/>
          <path id="Trazado_6626" data-name="Trazado 6626" d="M216.531,392H205.172a1.289,1.289,0,0,0,0,2.578h11.359a1.289,1.289,0,0,0,0-2.578Z" transform="translate(-177.601 -341.469)"/>
          <path id="Trazado_6627" data-name="Trazado 6627" d="M101.721,392H94.7a1.289,1.289,0,0,0,0,2.578h7.022a1.289,1.289,0,0,0,0-2.578Z" transform="translate(-81.369 -341.469)"/>
          <path id="Trazado_6628" data-name="Trazado 6628" d="M92,145.289v7.219a1.289,1.289,0,0,0,1.289,1.289H119.07a1.289,1.289,0,0,0,1.289-1.289v-7.219A1.289,1.289,0,0,0,119.07,144H93.289A1.289,1.289,0,0,0,92,145.289Zm2.578,1.289h23.2v4.641h-23.2Z" transform="translate(-80.141 -125.438)"/>
          <path id="Trazado_6629" data-name="Trazado 6629" d="M442.312,41.289A1.289,1.289,0,0,0,441.023,40h-7.734A1.289,1.289,0,0,0,432,41.289V89.617a1.282,1.282,0,0,0,.088.467l3.867,9.938a1.289,1.289,0,0,0,2.4,0l3.867-9.938h0a1.283,1.283,0,0,0,.089-.467V41.289ZM437.156,96l-1.982-5.094h3.965Zm2.578-7.672h-5.156V42.578h5.156Z" transform="translate(-376.313 -34.844)"/>
          <path id="Trazado_6630" data-name="Trazado 6630" d="M385.289,248a1.29,1.29,0,1,0,.911.378A1.3,1.3,0,0,0,385.289,248Z" transform="translate(-334.5 -216.031)"/>
        </g>
      </g>
    </g>
  </g>
</svg>
