<?xml version="1.0" encoding="utf-8"?>
<!-- Generator: Adobe Illustrator 22.1.0, SVG Export Plug-In . SVG Version: 6.00 Build 0)  -->
<svg version="1.1" id="Layer_1" xmlns="http://www.w3.org/2000/svg" xmlns:xlink="http://www.w3.org/1999/xlink" x="0px" y="0px"
	 width="531px" height="375.7px" viewBox="0 0 531 375.7" style="enable-background:new 0 0 531 375.7;" xml:space="preserve">
<style type="text/css">
	.st0{fill:#EBF1FF;}
	.st1{fill:#E6EDFF;}
	.st2{fill:#B4C9FF;}
	.st3{fill:#FBDBD0;}
	.st4{fill:#FCA19F;}
	.st5{fill:#563136;}
	.st6{fill:#242638;}
	.st7{fill:#FFFFFF;}
	.st8{fill:#5E71C7;}
	.st9{fill:#D0DCFF;}
	.st10{fill:none;stroke:#242638;stroke-width:0.554;stroke-linecap:round;stroke-linejoin:round;}
	.st11{fill:#AB89B3;}
	.st12{fill:#5A5280;}
	.st13{fill:#424C81;}
	.st14{fill:#ADB7E2;}
	.st15{fill:#96A5E2;}
	.st16{fill:none;stroke:#242638;stroke-width:1.107;stroke-linecap:round;stroke-linejoin:round;}
	.st17{fill:#97A5FF;}
	.st18{fill:#EAB5A7;}
	.st19{fill:#37374F;}
	.st20{fill:#D4E0F9;}
	.st21{fill:none;stroke:#FFFFFF;stroke-width:0.397;stroke-linecap:round;stroke-linejoin:round;}
	.st22{fill:none;stroke:#D0DCFF;stroke-width:0.541;stroke-linecap:round;stroke-linejoin:bevel;}
	.st23{fill:none;stroke:#F97070;stroke-width:0.293;stroke-linecap:round;stroke-linejoin:round;}
	.st24{fill:#F97070;}
	.st25{fill:#FC9E9C;}
	.st26{fill:none;stroke:#242638;stroke-width:0.277;stroke-linecap:round;stroke-linejoin:round;}
	.st27{fill:#FD9997;}
	.st28{fill:#FCBB29;}
	.st29{fill:#333333;}
	.st30{fill:#4D4D4D;}
</style>
<g>
	<g id="Grupo_9810">
		<path id="Trazado_2985" class="st0" d="M516.6,193h-56c-2.4,0-4.3,1.9-4.3,4.3v14.1c0,2.4,1.9,4.3,4.3,4.3h56
			c2.4,0,4.3-1.9,4.3-4.3c0,0,0,0,0,0v-14.1C521,195,519,193,516.6,193z"/>
		<path id="Trazado_2986" class="st0" d="M525.3,222.4h-56c-2.4,0-4.3,1.9-4.3,4.3v14.1c0,2.4,1.9,4.3,4.3,4.3h56
			c2.4,0,4.3-1.9,4.3-4.3v-14.1C529.6,224.3,527.6,222.4,525.3,222.4z"/>
		<path id="Trazado_2987" class="st0" d="M66.4,126.1h-56c-2.4,0-4.3,1.9-4.3,4.3v14.1c0,2.4,1.9,4.3,4.3,4.3h56
			c2.4,0,4.3-1.9,4.3-4.3c0,0,0,0,0,0v-14.1C70.8,128.1,68.8,126.1,66.4,126.1C66.4,126.1,66.4,126.1,66.4,126.1z"/>
		<path id="Trazado_2988" class="st0" d="M95.1,152.1h-56c-2.4,0-4.3,1.9-4.3,4.3v14.1c0,2.4,1.9,4.3,4.3,4.3h56
			c2.4,0,4.3-1.9,4.3-4.3v-14.1C99.4,154,97.5,152.1,95.1,152.1z"/>
		<path id="Trazado_2989" class="st0" d="M60.3,234.6h-56c-2.4,0-4.3,1.9-4.3,4.3v14.1c0,2.4,1.9,4.3,4.3,4.3h56
			c2.4,0,4.3-1.9,4.3-4.3V239C64.6,236.6,62.7,234.7,60.3,234.6L60.3,234.6z"/>
		<path id="Trazado_2990" class="st0" d="M107.4,259.2h-56c-2.4,0-4.3,1.9-4.3,4.3v14.1c0,2.4,1.9,4.3,4.3,4.3h56
			c2.4,0,4.3-1.9,4.3-4.3v-14.1C111.7,261.2,109.8,259.2,107.4,259.2z"/>
	</g>
	<path id="Trazado_2991" class="st1" d="M531,360.7c0,8.3-118.9,15-265.5,15S0,369,0,360.7s118.9-15,265.5-15
		C412.1,345.7,531,352.4,531,360.7z"/>
	<path id="Trazado_2992" class="st2" d="M502.4,6.3H365.1v340.2h137.3V6.3z"/>
	<path id="Trazado_2993" class="st3" d="M509.2,7.5H498v338.4h11.3V7.5z"/>
	<path id="Trazado_2994" class="st3" d="M509.2,340.2H371.5V12.7h137.7V0H358.8v352.9h150.4V340.2L509.2,340.2z"/>
	<path id="Trazado_2995" class="st3" d="M503.3,175.3H367v-8h136.4L503.3,175.3L503.3,175.3z"/>
	<path id="Trazado_2996" class="st3" d="M482.3,149.1h16.9v49.7h-16.9V149.1z"/>
	<path id="Trazado_2997" class="st4" d="M312.2,55.1c-1.1,8.5-5.5,25.1-14,24.5c-9-0.6-13.2-5.8-14.1-14.2c0,0-4.6,1.4-4-4.7
		c0.3-2.7,3.2-1.1,3.2-1.1s-3.3-18.3,10.7-20.4C303,37.9,313.8,43.5,312.2,55.1"/>
	<path id="Trazado_2998" class="st5" d="M297.4,54.6c0.3,0.1,0.6,0.1,0.8,0.1c0.3,0,0.6-0.2,0.6-0.5c0.1-0.5-0.2-1-0.6-1.3
		c-0.7-0.5-1.6-0.7-2.4-0.5c-0.8,0-1.6,0.2-2.4,0.5c-0.8,0.3-1.4,1-1.7,1.8c0,0.1,0,0.2,0,0.3c0,0.2,0.2,0.3,0.3,0.3
		c0.1,0,0.3-0.1,0.4-0.1C294,54.3,295.8,54.1,297.4,54.6"/>
	<path id="Trazado_2999" class="st5" d="M305.3,56.2c-0.3,0-0.5,0-0.8-0.1c-0.2-0.1-0.4-0.4-0.3-0.7c0.1-0.5,0.5-0.8,1-1
		c0.7-0.2,1.6-0.1,2.2,0.3c0.7,0.3,1.3,0.7,1.8,1.2c0.5,0.6,0.8,1.4,0.7,2.2l-0.1,0.3c-0.1,0.1-0.2,0.2-0.4,0.1
		c-0.1-0.1-0.2-0.1-0.3-0.3C308.2,57,306.8,56.2,305.3,56.2"/>
	<path id="Trazado_3000" class="st6" d="M300.9,60.8c-0.1,0.5-0.2,1-0.2,1.5c0.1,1.5,0.3,3,0.8,4.4l0.1,0.3l0,0.1l0.2,0.1l-0.1-0.1
		l-0.2,0.2l0.1,0.1l-0.1-0.1c-0.3,0.3-0.7,0.4-1.2,0.4l-0.2,0c-0.2,0-0.4,0-0.7,0c-0.4,0-0.8,0.1-1.1,0.3v0.3l0.3,0
		c0.2-0.2,0.6-0.3,0.9-0.2c0.2,0,0.4,0,0.7,0l0.2,0c0.5,0,1-0.2,1.4-0.5l0,0l0.2-0.2l0,0L302,67c0-0.1,0-0.3-0.1-0.4
		c-0.5-1.4-0.7-2.8-0.8-4.3c0-0.5,0.1-1,0.2-1.5l-0.1-0.2L300.9,60.8"/>
	<path id="Trazado_3001" class="st6" d="M307,61.7c0.2-1.4-0.2-2.7-1-2.8s-1.5,1-1.7,2.4s0.2,2.7,1,2.8S306.8,63.2,307,61.7"/>
	<path id="Trazado_3002" class="st6" d="M295.8,59.7c0.2-1.4-0.2-2.7-1-2.8s-1.5,1-1.7,2.4s0.2,2.7,1,2.8S295.6,61.2,295.8,59.7"/>
	<path id="Trazado_3003" class="st7" d="M298.6,71c-1.6-0.3-4.9,0.2-4.8,1.5s3.4,1.2,4.6,1.4c1.6,0.4,3.3-0.2,3-1.1
		S300.1,71.3,298.6,71L298.6,71z"/>
	<path id="Trazado_3004" class="st8" d="M311.2,64.9c0,0-13.3,3.8-30-7.4c0,0-1,21.9,14.9,23.2C308.4,81.7,311.2,64.9,311.2,64.9"/>
	<path id="Trazado_3005" class="st9" d="M245.7,80.8c0,0-43.3,26.6-45,30.1s0.4,36.9,0.4,36.9l14.1,1.4l5.3-30.2l21.1-8.8
		L245.7,80.8 M296,80.3c-6.8-1.5-15.1-5.6-12.8-19.6s6.7-15,15-13.3c0,0,14.5,0.1,12.8,11C308.3,74.8,302.9,81.8,296,80.3
		 M334.5,160.8c-3.4-3.3-8.6-31.8-13.5-47.7c-1.7-5.6-17.8-23.1-17.8-23.1s9.8-23.8,11.3-39.4s-21.5-19.6-25.5-19.1
		c-18.1,2.6-21.3,37.6-21.8,45.1c0,0.8-0.7,1.5-1.5,1.6c-6.7,0.5-13.3,1.3-19.9,2.5c-7.8,1.7-14,78.4-14,78.4l-23.7,74.7
		c-0.8,2.5-1.9,4.8-3.4,6.9l-46.2,64.9l16.9,10.8l46.8-46.2c6.2-6.1,11.1-13.4,14.6-21.4l15.1-35.4l-0.4,46.2c0,1.2-0.2,2.4-0.4,3.5
		l-11.7,55.8l14.7,21.4c0,0,21.5-43.3,28.6-71.7c7.7-30.9,10.1-100.6,10.1-100.6l8.3-23.7l7.4,22.9l37.7,37l13.1-10.1
		C359.2,194.2,337.9,164.1,334.5,160.8"/>
	<path id="Trazado_3006" class="st4" d="M141.6,40.8c0.1,8.6-1.9,25.7-10.4,26.3c-9,0.6-13.9-3.9-15.9-12.1c0,0-4.3,2.1-4.6-4.1
		c-0.1-2.7,3-1.6,3-1.6s-5.8-17.7,7.7-21.7C130.1,25.1,141.5,29.1,141.6,40.8"/>
	<path id="Trazado_3007" class="st5" d="M126.9,42.3c0.3,0.1,0.6,0.1,0.9,0c0.3-0.1,0.5-0.3,0.6-0.6c0-0.5-0.3-0.9-0.7-1.2
		c-0.8-0.4-1.6-0.4-2.4-0.2c-0.8,0.1-1.6,0.4-2.3,0.8c-0.7,0.5-1.3,1.2-1.4,2.1l0,0.3c0.1,0.1,0.2,0.2,0.4,0.2
		c0.1,0,0.3-0.1,0.4-0.2C123.5,42.6,125.2,42.1,126.9,42.3"/>
	<path id="Trazado_3008" class="st5" d="M134.9,42.8c-0.3,0-0.5,0-0.8,0c-0.3-0.1-0.4-0.3-0.4-0.6c0.1-0.5,0.4-0.9,0.8-1.1
		c0.7-0.3,1.5-0.3,2.2,0c0.7,0.2,1.4,0.5,2,0.9c0.6,0.5,1,1.3,1,2.1l-0.1,0.3c-0.1,0.1-0.2,0.2-0.4,0.2c-0.1,0-0.2-0.1-0.3-0.2
		C137.9,43.3,136.4,42.7,134.9,42.8"/>
	<path id="Trazado_3009" class="st6" d="M131.3,48c0,0.2,0,0.4,0,0.5c0.1,1.8,0.6,3.6,1.5,5.3c0.1,0.1,0.1,0.2,0.1,0.3l0,0.1
		l0.2,0.1l-0.2-0.1l-0.2,0.2l0.2,0.1l-0.1-0.1c-0.3,0.3-0.7,0.5-1.1,0.6c-0.3,0.1-0.6,0.1-1,0.1c-0.4,0-0.7,0.2-0.9,0.5l0,0.3l0.3,0
		c0.2-0.2,0.4-0.3,0.7-0.4c0.3-0.1,0.7-0.1,1-0.1c0.5-0.1,0.9-0.3,1.3-0.7l0,0l0.2-0.2l0,0l0-0.2c0-0.2,0-0.3-0.1-0.5
		c-0.8-1.6-1.3-3.3-1.4-5.1c0-0.2,0-0.3,0-0.5l-0.2-0.2L131.3,48"/>
	<path id="Trazado_3010" class="st6" d="M137.4,48.1c0-1.4-0.6-2.6-1.3-2.6s-1.3,1.2-1.3,2.6s0.6,2.6,1.3,2.6S137.4,49.5,137.4,48.1
		"/>
	<path id="Trazado_3011" class="st6" d="M126,47.7c0-1.4-0.6-2.6-1.3-2.6s-1.3,1.2-1.3,2.6s0.6,2.6,1.3,2.6S126,49.1,126,47.7"/>
	<path id="Trazado_3012" class="st7" d="M130.4,58.5c-1.6-0.1-4.8,0.9-4.5,2.2s3.6,0.7,4.7,0.8c1.7,0.1,3.3-0.7,2.8-1.5
		S131.9,58.5,130.4,58.5L130.4,58.5z"/>
	<path id="Trazado_3013" class="st8" d="M142,52.2c0,0-12.6,5.6-30.8-3.2c0,0,2.1,21.8,18.1,20.9C141.6,69.2,142,52.2,142,52.2"/>
	<path id="Trazado_3014" class="st9" d="M129.2,69.6c-7-0.5-15.8-3.5-15.4-17.6s4.6-15.8,13-15.2c0,0,14.4-1.9,14.2,9.1
		C140.6,62.4,136.1,70.1,129.2,69.6 M178.6,143.9c-3.9-2.8-13-30.2-20-45.3c-2.5-5.3-20.9-20.4-20.9-20.4s6.3-25,5.6-40.6
		s-24.1-16.4-27.9-15.3C97.7,27.4,99.5,62.5,100,70.1c0.1,0.8-0.5,1.6-1.3,1.8c-6.5,1.4-13,3.2-19.3,5.3c-7.5,2.8-23,43.7-25.8,55
		s23,24.6,23,24.6l-12.9,77.2c-0.4,2.5-1.2,5-2.4,7.3l-36.6,70.7l18.3,8.3L82.7,268c5.3-6.9,9.2-14.8,11.4-23.3l10-37.2l6.1,45.8
		c0.2,1.2,0.2,2.4,0.1,3.6l-6.9,72.3l20.6,3.7c0,0,15.2-45.9,18.3-75c3.3-31.7-4.1-101-4.1-101l4.9-24.6l11.3,19.3l46.8,18.6
		l5.6-13.7C206.7,156.6,182.4,146.7,178.6,143.9"/>
	<path id="Trazado_3015" class="st10" d="M76.6,156.7l21.6,5.6l6.6-13.8l-24.3-21.8l5.6-15.8"/>
	<path id="Trazado_3016" class="st8" d="M103.7,313.3c0,0-8.1,44.3-6.7,44.6s47.1,2.1,47.1,2.1s1.9-6.2-11-12.4s-3-30.8-3-30.8
		L103.7,313.3L103.7,313.3z"/>
	<path id="Trazado_3017" class="st8" d="M239.1,315c0,0-4,44.8-2.6,45.1s47.1-2.2,47.1-2.2s1.3-6.4-12.1-11.4s-5.8-30.4-5.8-30.4
		L239.1,315L239.1,315z"/>
	<path id="Trazado_3018" class="st8" d="M163.7,292.2c0,0-30,33.5-29,34.6s39,26.4,39,26.4s4.9-4.3-2.9-16.4s13.5-27.9,13.5-27.9
		L163.7,292.2z"/>
	<path id="Trazado_3019" class="st8" d="M31.3,296.6c0,0-27.5,35.6-26.5,36.6s40.9,23.5,40.9,23.5s4.5-4.7-4.1-16.1
		s11.5-28.8,11.5-28.8L31.3,296.6L31.3,296.6z"/>
	<path id="Trazado_3020" class="st11" d="M125.5,51.2c-3.8,0-7.5-0.8-10.9-2.4c-0.2-0.1-0.4-0.3-0.6-0.4c0.6-7.4,2.8-10.4,6.4-11.4
		l16.4,1.2c2.4,1.3,4.2,3.6,4.2,7.6c0,1.7-0.1,3.4-0.2,4.9c-1.5,0.1-3.4,0.2-4.9,0.3c-0.1,0-0.1,0-0.2,0c-1.4,0-2.8-0.7-3.6-1.9
		h-0.3c0-0.2,0-0.4,0-0.5s0-0.3,0-0.5l-0.2-0.2l-0.2,0.2c0,0.2,0,0.4,0,0.5c0,0.2,0,0.4,0,0.5h-0.9l-0.1,0.2c-0.8,1.2-2.1,1.9-3.5,2
		C126.4,51.2,126,51.2,125.5,51.2 M136.1,45.4c-0.7,0-1.3,1.2-1.3,2.6s0.6,2.6,1.3,2.6h0c0.7,0,1.3-1.2,1.3-2.6
		S136.8,45.5,136.1,45.4L136.1,45.4 M124.6,45c-0.7,0-1.3,1.2-1.3,2.6s0.6,2.6,1.3,2.6l0,0c0.7,0,1.3-1.2,1.4-2.6S125.4,45,124.6,45
		L124.6,45 M135.3,42.8c1.4,0,2.8,0.5,3.7,1.6c0.1,0.1,0.2,0.2,0.3,0.2c0,0,0,0,0.1,0c0.1,0,0.3-0.1,0.3-0.2l0.1-0.3
		c0-0.8-0.4-1.6-1-2.1c-0.6-0.4-1.3-0.7-2-0.9c-0.4-0.1-0.8-0.2-1.2-0.2c-0.4,0-0.7,0.1-1,0.2c-0.4,0.2-0.7,0.6-0.8,1.1
		c0,0.3,0.1,0.5,0.4,0.6c0.1,0,0.3,0.1,0.4,0.1c0.1,0,0.3,0,0.4,0S135.1,42.8,135.3,42.8 M126.3,40.3c-0.4,0-0.8,0.1-1.2,0.2
		c-0.8,0.1-1.6,0.4-2.3,0.8c-0.7,0.5-1.3,1.2-1.4,2.1l0,0.3c0.1,0.1,0.2,0.2,0.3,0.2h0c0.1,0,0.3-0.1,0.4-0.2c1.1-0.9,2.5-1.4,4-1.4
		c0.3,0,0.5,0,0.8,0c0.2,0,0.4,0,0.6,0.1c0.1,0,0.2,0,0.3,0c0.3-0.1,0.5-0.3,0.6-0.6c0-0.5-0.3-0.9-0.7-1.2
		C127.2,40.4,126.7,40.3,126.3,40.3"/>
	<path id="Trazado_3021" class="st12" d="M121.7,43.8c-0.1,0-0.3-0.1-0.3-0.2l0-0.3c0.2-0.9,0.7-1.6,1.4-2.1
		c0.7-0.4,1.5-0.7,2.3-0.8c0.4-0.1,0.8-0.1,1.2-0.2c0.4,0,0.9,0.1,1.3,0.3c0.4,0.2,0.7,0.7,0.7,1.2c0,0.3-0.3,0.5-0.6,0.6
		c-0.1,0-0.2,0-0.3,0c-0.2,0-0.4,0-0.6-0.1c-0.3,0-0.5,0-0.8,0c-1.4,0-2.8,0.5-4,1.4C122,43.7,121.9,43.8,121.7,43.8L121.7,43.8"/>
	<path id="Trazado_3022" class="st12" d="M139.4,44.6C139.3,44.6,139.3,44.6,139.4,44.6c-0.2,0-0.3-0.1-0.4-0.2
		c-1-1-2.3-1.6-3.7-1.6c-0.1,0-0.2,0-0.4,0s-0.3,0-0.4,0c-0.1,0-0.3,0-0.4-0.1c-0.3-0.1-0.4-0.3-0.4-0.6c0.1-0.5,0.4-0.9,0.8-1.1
		c0.3-0.2,0.7-0.3,1-0.2c0.4,0,0.8,0.1,1.2,0.2c0.7,0.2,1.4,0.5,2,0.9c0.6,0.5,1,1.3,1,2.1l-0.1,0.3
		C139.6,44.5,139.5,44.6,139.4,44.6"/>
	<path id="Trazado_3023" class="st13" d="M131.6,49.1h-0.4c0-0.2,0-0.4,0-0.5c0-0.2,0-0.4,0-0.5l0.2-0.2l0.2,0.2c0,0.2,0,0.3,0,0.5
		S131.6,48.9,131.6,49.1"/>
	<path id="Trazado_3024" class="st13" d="M136.1,50.7L136.1,50.7c-0.7,0-1.3-1.2-1.3-2.6s0.6-2.6,1.3-2.6l0,0c0.7,0,1.3,1.2,1.3,2.6
		S136.8,50.7,136.1,50.7"/>
	<path id="Trazado_3025" class="st13" d="M124.6,50.3L124.6,50.3c-0.7,0-1.3-1.2-1.3-2.6s0.6-2.6,1.3-2.6l0,0c0.7,0,1.3,1.2,1.3,2.6
		S125.4,50.3,124.6,50.3"/>
	<path id="Trazado_3026" class="st14" d="M142.7,50.5c0.4-3.7,0.6-7.3,0.6-11c0.1,2.4,0.5,9.6-0.2,10.9
		C143,50.4,142.8,50.5,142.7,50.5"/>
	<path id="Trazado_3027" class="st15" d="M140.7,50.7c0.1-1.5,0.2-3.2,0.2-4.9c0.1-4-1.8-6.3-4.2-7.6l6.4,0.4c0,0,0,0.3,0.1,0.8
		c0,3.7-0.2,7.4-0.6,11C142.2,50.5,141.5,50.6,140.7,50.7 M114,48.4c-0.4-0.4-0.6-1-0.6-1.5l0.6-10.3l6.4,0.4
		C116.7,38.1,114.6,41,114,48.4"/>
	<path id="Trazado_3028" class="st6" d="M104.3,33.1c0,0,28.9,4.4,38.9,3.4l0.1,2.4c-13.4,0-26.7-1.2-39.9-3.6L104.3,33.1
		L104.3,33.1z"/>
	<path id="Trazado_3029" class="st16" d="M126.9,70.1c0,0-1.8,25.4-3.4,40s-9.8,84.8-19,97.5"/>
	<path id="Trazado_3030" class="st10" d="M98.7,71.8c0,0,16.9,20.9,40.3,7.6"/>
	<path id="Trazado_3031" class="st14" d="M312.1,63.2c0.9-3.6,1.7-7.2,2.2-10.8c-0.2,2.4-0.9,9.6-1.7,10.8
		C312.5,63.2,312.3,63.2,312.1,63.2"/>
	<path id="Trazado_3032" class="st11" d="M310.1,63.2c-1-0.1-2.2-0.2-3.4-0.3c0.2-0.4,0.3-0.8,0.3-1.2c0.2-1.4-0.2-2.7-1-2.8
		c0,0-0.1,0-0.1,0c-0.7,0-1.4,1-1.6,2.4c-0.1,0.4-0.1,0.8,0,1.2c-1.2-0.3-2.1-1.2-2.7-2.2l-1.5-0.2l-0.1,0.1c-0.8,0.9-2,1.5-3.3,1.5
		c-0.1,0-0.3,0-0.4,0c-0.4,0-0.8-0.1-1.2-0.1c0.4-0.6,0.6-1.2,0.7-1.9c0.2-1.4-0.2-2.7-1-2.8c0,0-0.1,0-0.1,0c-0.7,0-1.4,1-1.6,2.4
		c-0.1,0.7-0.1,1.3,0.2,1.9c-3.1-0.6-6.1-1.8-8.8-3.6c-0.2-0.1-0.4-0.3-0.5-0.5c1.7-7.2,4.2-9.9,7.9-10.4l16.1,3.4
		c2.2,1.6,3.7,4.1,3,8.1C310.8,60.1,310.4,61.7,310.1,63.2 M305.9,54.3c-0.2,0-0.5,0-0.7,0.1c-0.5,0.1-0.8,0.5-1,1
		c-0.1,0.3,0.1,0.5,0.3,0.7c0.2,0.1,0.5,0.1,0.8,0.1c1.5,0.1,2.9,0.9,3.8,2.1c0.1,0.1,0.2,0.2,0.3,0.3c0,0,0.1,0,0.1,0
		c0.1,0,0.2-0.1,0.3-0.1l0.1-0.3c0.1-0.8-0.1-1.6-0.7-2.2c-0.5-0.5-1.1-0.9-1.8-1.2C307,54.4,306.4,54.3,305.9,54.3 M296.5,52.4
		c-0.2,0-0.4,0-0.6,0c-0.8,0-1.6,0.2-2.4,0.5c-0.8,0.3-1.4,1-1.7,1.8c0,0.1,0,0.2,0,0.3c0,0.2,0.2,0.3,0.3,0.3l0,0
		c0.1,0,0.3-0.1,0.4-0.1c1-0.6,2.1-0.9,3.2-0.9c0.6,0,1.2,0.1,1.7,0.2c0.2,0.1,0.5,0.1,0.7,0.1c0,0,0.1,0,0.1,0
		c0.3,0,0.6-0.2,0.6-0.5c0.1-0.5-0.2-1-0.6-1.3C297.8,52.6,297.2,52.4,296.5,52.4"/>
	<path id="Trazado_3033" class="st12" d="M292.1,55.3c-0.2,0-0.3-0.1-0.3-0.3c0-0.1,0-0.2,0-0.3c0.3-0.8,0.9-1.5,1.7-1.8
		c0.8-0.3,1.6-0.5,2.4-0.5c0.2,0,0.4,0,0.6,0c0.6,0,1.3,0.2,1.8,0.5c0.4,0.3,0.6,0.8,0.6,1.3c-0.1,0.3-0.3,0.5-0.6,0.5
		c0,0-0.1,0-0.1,0c-0.3,0-0.5-0.1-0.7-0.1c-0.6-0.1-1.1-0.2-1.7-0.2c-1.1,0-2.2,0.3-3.2,0.9C292.4,55.3,292.3,55.3,292.1,55.3
		L292.1,55.3"/>
	<path id="Trazado_3034" class="st12" d="M309.5,58.5c0,0-0.1,0-0.1,0c-0.1-0.1-0.2-0.1-0.3-0.3c-0.9-1.2-2.3-2-3.8-2.1
		c-0.3,0-0.5,0-0.8-0.1c-0.2-0.1-0.4-0.4-0.3-0.7c0.1-0.5,0.5-0.8,1-1c0.2-0.1,0.5-0.1,0.7-0.1c0.5,0,1,0.2,1.5,0.4
		c0.7,0.3,1.3,0.7,1.8,1.2c0.5,0.6,0.8,1.4,0.7,2.2l-0.1,0.3C309.7,58.5,309.6,58.5,309.5,58.5"/>
	<path id="Trazado_3035" class="st13" d="M306.7,62.9l-1.5-0.1c-0.3,0-0.6-0.1-0.8-0.2c-0.1-0.4,0-0.8,0-1.2
		c0.2-1.4,0.9-2.4,1.6-2.4c0,0,0.1,0,0.1,0c0.7,0.1,1.2,1.4,1,2.8C307,62.1,306.9,62.5,306.7,62.9"/>
	<path id="Trazado_3036" class="st13" d="M295,61.6c-0.6-0.1-1.2-0.2-1.8-0.3c-0.2-0.6-0.3-1.3-0.2-1.9c0.2-1.4,0.9-2.4,1.6-2.4
		c0,0,0.1,0,0.1,0c0.7,0.1,1.2,1.4,1,2.8C295.7,60.4,295.4,61,295,61.6"/>
	<path id="Trazado_3037" class="st15" d="M311.9,63.2c-0.4,0-1.1,0-1.8-0.1c0.3-1.5,0.6-3.1,0.9-4.8c0.6-3.9-0.9-6.5-3-8.1l6.3,1.4
		c0,0,0,0.3-0.1,0.8c-0.5,3.6-1.2,7.3-2.2,10.8C312,63.2,312,63.2,311.9,63.2 M283.9,57.2c-0.3-0.5-0.5-1-0.4-1.6l2-10.1l6.3,1.4
		C288.1,47.3,285.6,50,283.9,57.2"/>
	<path id="Trazado_3038" class="st6" d="M276.5,40.7c0,0,28,8.5,38,8.8l-0.2,2.4c-13.3-1.9-26.3-4.9-39-9.1L276.5,40.7z"/>
	<path id="Trazado_3039" class="st16" d="M293.7,80.5c0,0-5.3,24.9-9,39.1s-21.7,82.6-32.5,93.9"/>
	<path id="Trazado_3040" class="st10" d="M265.6,78.2c0,0,13.8,23.1,38.8,13.2"/>
	<path id="Trazado_3041" class="st3" d="M256.8,232.8h-19c-1.9,0-3.5-1.6-3.5-3.6c0-1.9,1.6-3.4,3.5-3.5h19c1.9,0,3.5,1.6,3.5,3.6
		C260.3,231.3,258.7,232.8,256.8,232.8z M163,232.8h-19c-1.9,0-3.5-1.5-3.6-3.5s1.5-3.5,3.5-3.6c0,0,0.1,0,0.1,0h19
		c1.9,0,3.5,1.6,3.5,3.6C166.4,231.3,164.9,232.8,163,232.8z M256.4,220.1H137.9c-6.7,0-12.2,5.5-12.2,12.2v47h136.6
		c3.4,0,6.2-2.8,6.2-6.2c0,0,0,0,0,0v-40.8C268.5,225.5,263.1,220.1,256.4,220.1C256.4,220.1,256.4,220.1,256.4,220.1L256.4,220.1z"
		/>
	<path id="Trazado_3042" class="st3" d="M163,225.8h-3.9c2,0,3.6,1.6,3.6,3.6c0,2-1.6,3.6-3.6,3.6c0,0,0,0,0,0h3.9
		c2,0,3.6-1.6,3.6-3.6C166.6,227.4,165,225.8,163,225.8C163,225.8,163,225.8,163,225.8L163,225.8z"/>
	<path id="Trazado_3043" class="st3" d="M257,225.8h-3.9c2,0,3.6,1.6,3.6,3.6c0,2-1.6,3.6-3.6,3.6c0,0,0,0,0,0h3.9
		c2,0,3.6-1.6,3.6-3.6C260.6,227.4,259,225.8,257,225.8C257.1,225.8,257,225.8,257,225.8z"/>
	<path id="Trazado_3044" class="st0" d="M264.7,235.9l-8.5-12.5l17.6-12.9l4.3,6.5L264.7,235.9L264.7,235.9z M225.1,178.1l18.2-13.4
		l25.7,38.6l-17.7,13L225.1,178.1L225.1,178.1z M214.5,162.6l18.8-12.9l5.2,7.8L220.3,171L214.5,162.6L214.5,162.6z M287.4,214.5
		l-49.1-73.7c-0.7-1-1.7-1.7-2.9-2c-1.2-0.2-2.4,0-3.5,0.7l-26.4,18.1c-2.1,1.4-2.6,4.3-1.2,6.3c0,0,0,0,0,0l8.5,12.4l-12.9,9.5
		l5.1,6.9l12.7-9.3l26.2,38.3l-14.6,10.7l5.1,6.9l14.3-10.5l12.1,17.7c1.4,2.1,4.3,2.6,6.4,1.2c0.4-0.3,0.8-0.7,1.1-1.1l19-26.9
		C288.5,218.2,288.5,216.1,287.4,214.5L287.4,214.5z"/>
	<path id="Trazado_3045" class="st17" d="M458.5,221.6H260.6l-49.8-74.6c-1.4-3-4.6-4.6-7.9-4l-79.5,14.8c-0.8,0.1-1.5,0.4-2.1,0.9
		l-6.9,4.6c-1.5,1-1.9,3-0.9,4.4l64.6,98.4l-2.6,3.4l29.3,5.7l211.7-3.6l51.8-29.1l0.2-10.8c0.1-5.5-4.3-10.1-9.9-10.2
		C458.6,221.6,458.5,221.6,458.5,221.6L458.5,221.6z"/>
	<path id="Trazado_3046" class="st3" d="M133.4,304.8h329.7c4.2,0,7.6-3.4,7.6-7.6c0,0,0,0,0,0v-18.1h-345v18.1
		C125.8,301.4,129.2,304.8,133.4,304.8z"/>
	<path id="Trazado_3047" class="st18" d="M347.4,279.1v18.3c0,4.1-3.3,7.4-7.4,7.4h123.4c4.1,0,7.4-3.3,7.4-7.4c0,0,0,0,0,0v-18.3
		H347.4z"/>
	<path id="Trazado_3048" class="st3" d="M341.1,279v-10.8l-160.3,0l-53.1-79.1l-9,6l56.2,83.6l0.3-0.2v0.5L341.1,279L341.1,279z"/>
	<path id="Trazado_3049" class="st18" d="M336.2,292.4H133.1c-1.4,0-2.6-1.1-2.6-2.6v-0.2c0-1.4,1.2-2.6,2.6-2.6h203.1
		c1.4,0,2.6,1.2,2.6,2.6v0.2C338.8,291.3,337.7,292.4,336.2,292.4z"/>
	<path id="Trazado_3050" class="st19" d="M152.5,349.5c0-7.4-6-13.5-13.5-13.5s-13.5,6-13.5,13.5s6,13.5,13.5,13.5l0,0
		C146.4,362.9,152.5,356.9,152.5,349.5C152.5,349.5,152.5,349.5,152.5,349.5z"/>
	<path id="Trazado_3051" class="st2" d="M147.7,349c0-4.9-3.9-8.8-8.8-8.8c-4.9,0-8.8,3.9-8.8,8.8c0,4.9,3.9,8.8,8.8,8.8
		C143.7,357.8,147.7,353.9,147.7,349L147.7,349z"/>
	<path id="Trazado_3052" class="st2" d="M147.5,314.1h-7.9v20.2h7.9V314.1z"/>
	<path id="Trazado_3053" class="st3" d="M152.2,294.3h-16.8v22.2c0,1.4,1.1,2.5,2.5,2.6h11.7c1.4,0,2.5-1.1,2.5-2.6V294.3z"/>
	<path id="Trazado_3054" class="st20" d="M150.1,333.1v5.1l-17,9.5v-14.5L150.1,333.1z"/>
	<path id="Trazado_3055" class="st19" d="M334.6,349.5c0-7.4-6-13.5-13.5-13.5s-13.5,6-13.5,13.5s6,13.5,13.5,13.5l0,0
		C328.6,362.9,334.6,356.9,334.6,349.5z"/>
	<path id="Trazado_3056" class="st2" d="M329.8,349c0-4.9-3.9-8.8-8.8-8.8s-8.8,3.9-8.8,8.8c0,4.9,3.9,8.8,8.8,8.8
		C325.9,357.8,329.8,353.9,329.8,349C329.8,349,329.8,349,329.8,349z"/>
	<path id="Trazado_3057" class="st2" d="M329.6,314.1h-7.9v20.2h7.9V314.1z"/>
	<path id="Trazado_3058" class="st3" d="M334.4,294.3h-16.8v22.2c0,1.4,1.1,2.5,2.5,2.6h11.7c1.4,0,2.5-1.1,2.5-2.6L334.4,294.3
		L334.4,294.3z"/>
	<path id="Trazado_3059" class="st20" d="M332.3,333.1v5.1l-17,9.5v-14.5L332.3,333.1z"/>
	<path id="Trazado_3060" class="st19" d="M444.2,349.5c0-7.4,6-13.5,13.5-13.5s13.5,6,13.5,13.5c0,7.4-6,13.5-13.5,13.5
		C450.2,362.9,444.2,356.9,444.2,349.5z"/>
	<path id="Trazado_3061" class="st2" d="M449,349c0-4.9,3.9-8.8,8.8-8.8s8.8,3.9,8.8,8.8s-3.9,8.8-8.8,8.8
		C452.9,357.8,449,353.9,449,349z"/>
	<path id="Trazado_3062" class="st9" d="M449.2,314.1h7.9v20.2h-7.9V314.1z"/>
	<path id="Trazado_3063" class="st18" d="M444.4,294.3h16.7v22.2c0,1.4-1.1,2.5-2.5,2.6c0,0,0,0,0,0H447c-1.4,0-2.5-1.1-2.5-2.5
		c0,0,0,0,0,0V294.3z"/>
	<path id="Trazado_3064" class="st20" d="M446.5,333.1v5.1l17,9.5v-14.5L446.5,333.1z"/>
	<path id="Trazado_3065" class="st4" d="M426.6,250.1l-34-1.6l-0.6-12.2l35.4,1.7L426.6,250.1L426.6,250.1z"/>
	<path id="Trazado_3066" class="st19" d="M423.5,250c0,0,8.2,1.1,14.8-0.3l0.7-36.8c0,0-7-2.4-8.9,5.9s-7.8,18.9-7.8,18.9
		S426.5,246.8,423.5,250L423.5,250z"/>
	<path id="Trazado_3067" class="st7" d="M438.2,249.7L439,213c-1.2-0.4-2.5-0.4-3.7-0.2l-0.8,37.5C435.8,250.2,437,250,438.2,249.7
		L438.2,249.7z"/>
	<path id="Trazado_3068" class="st21" d="M424.2,238.6c-0.6-0.3-1.2-0.7-1.6-1.2c-0.6-0.8-0.9-1.8-0.9-2.8c-0.1-0.9-0.1-1.7-0.1-2.6
		c-0.1-1.1,0.2-2.3,0.8-3.2c0.2-0.3,0.5-0.5,0.9-0.5c0.2,0.1,0.4,0.3,0.5,0.5c0.3,0.8,0.3,1.6,0.1,2.4c-0.3,1.9-0.8,3.8-1.3,5.7
		c1-0.2,2.1-0.3,3.2-0.3c1,0,2,0.3,2.9,0.7c0.4,0.2,0.7,0.5,0.9,0.9c0.2,0.4,0.3,0.8,0.1,1.2c-0.2,0.4-0.6,0.6-1.1,0.6
		c-0.4,0-0.8-0.1-1.2-0.2C426.1,239.6,425.2,239.2,424.2,238.6L424.2,238.6z"/>
	<path id="Trazado_3069" class="st4" d="M393.6,235.4l-25.1-22.9l7.3-9.8l26.1,23.9L393.6,235.4L393.6,235.4z"/>
	<path id="Trazado_3070" class="st19" d="M391.2,233.3c0,0,5.6,6.1,11.5,9.2l24-27.8c0,0-3.8-6.3-10.6-1.2s-18,9.6-18,9.6
		S395.6,232.9,391.2,233.3z"/>
	<path id="Trazado_3071" class="st7" d="M402.7,242.5l24-27.8c-0.7-1-1.6-1.9-2.7-2.5l-24.5,28.4C400.5,241.3,401.6,242,402.7,242.5
		L402.7,242.5z"/>
	<path id="Trazado_3072" class="st21" d="M399,225.1c-0.3-0.6-0.5-1.3-0.5-2c0.1-1,0.5-1.9,1.1-2.7c0.5-0.7,1-1.4,1.5-2.1
		c0.7-0.9,1.6-1.6,2.6-2c0.3-0.1,0.7-0.1,1,0.2c0.1,0.2,0.2,0.5,0.1,0.7c-0.3,0.8-0.8,1.4-1.5,1.9c-1.5,1.3-3,2.5-4.7,3.6
		c1,0.5,1.8,1.1,2.6,1.8c0.8,0.6,1.4,1.5,1.8,2.4c0.2,0.4,0.2,0.8,0.2,1.3c-0.1,0.4-0.4,0.8-0.7,1c-0.4,0.1-0.9,0-1.2-0.2
		c-0.3-0.3-0.6-0.6-0.8-1C399.9,227,399.4,226.1,399,225.1L399,225.1z"/>
	<path id="Trazado_3073" class="st8" d="M266.4,193.6l10.9,4.1l51-21.5c3.8-1.7,8.2-1.3,11.5,1.1l54.6,38l-10.2,14.4l-53.4-26.7
		l-39.7,16.6l-0.5,2.6l50.4,3.3l74.9,4.6l-0.7,23.2L334,253l-92.4-0.3c-2.3-0.4-4.3-1.6-5.8-3.3l-12-13.7L266.4,193.6L266.4,193.6z"
		/>
	<path id="Trazado_3074" class="st22" d="M265.2,251.4l-13.2-21.3l5.8-11.4 M291.2,219.7l-2.2-1.8l-25.8-6.1l3.5-9.9l10.3-3.8"/>
	<path id="Trazado_3075" class="st6" d="M213.7,146.1c0,0,8.3-2.7,11.9-4.3c9.2-3.8,28.4,9.9,31.6,11.6l-9.4,17.6
		c0,0-3.8-3.9-3.8-3.7c-0.1,0.6,12.3,17.4,12.3,17.4l17.5,11.2c0,0-3.9,40.8-42.1,51.4l-29.9-31.3l-13-21.1c0,0-20.4-19.9-12.4-26.5
		s27-16.6,27-16.6L213.7,146.1L213.7,146.1z"/>
	<path id="Trazado_3076" class="st4" d="M173.7,187.4l3.1,43.1c0.1,1.6,0.9,3.1,2.3,4.1c2.6,1.8,7.2,4.2,11.3,2.3
		c6.1-2.9,33.4-38.9,33.4-38.9l-7.8-4.5l-23.9,19.7l4.4-24.3L173.7,187.4L173.7,187.4z"/>
	<path id="Trazado_3077" class="st4" d="M213.4,196.5c0.3-3.4,0.9-6.7,1.8-9.9c1.2-3.4,5.2-11.7,6.6-11.9s-2.1,9.4-1.1,9.7
		s11.1-12.3,12.1-11.5s-4.5,8.8-4.5,8.8s6.5-7.7,7-7.2s-5,9.4-5,9.4s6.7-6.8,7.3-5.5s-7,10.4-7,10.4s6-4.2,6.7-3.6
		s-16.3,15.9-16.3,15.9L213.4,196.5L213.4,196.5z"/>
	<path id="Trazado_3078" class="st4" d="M247.7,206.7c-3,1.6-5.8,3.4-8.5,5.4c-2.7,2.4-8.8,9.3-8.5,10.7s7.9-5.5,8.6-4.8
		s-7.1,14.9-6,15.5s6.5-7.5,6.5-7.5s-4.6,8.9-4,9.2s6.8-8.2,6.8-8.2s-3.7,8.7-2.3,8.9s6.9-10.4,6.9-10.4s-1.6,7.1-0.8,7.6
		s8.5-21.1,8.5-21.1L247.7,206.7L247.7,206.7z"/>
	<path id="Trazado_3079" class="st6" d="M175,170.6l-3.6,30l25,2.8l3.2-22.3L175,170.6L175,170.6z"/>
	<path id="Trazado_3080" class="st23" d="M191.8,213.2c-7.8,6-7.1,5.5-9.9,8.6"/>
	<path id="Trazado_3081" class="st4" d="M196.3,160.6c0,0-4.4-0.9-4.6-2.6c-0.5-3.8-6.5-11.2-6.5-11.2l14.5-9.9c0,0,10,11.3,11.1,11
		s4.4,1.8,0.5,8.6S196.3,160.6,196.3,160.6L196.3,160.6z"/>
	<path id="Trazado_3082" class="st24" d="M184.7,146c0,0,0.9,1.4,1.4,2.1c15.5,9.3,20.4,0,21.6-2.7c-2.6-2.3-7.8-8.5-7.8-8.5
		L184.7,146L184.7,146z"/>
	<g id="Grupo_9811">
		<path id="SVGID" class="st4" d="M179.2,113.2c-3.1,0.6-5.9,1.9-8.3,3.9c-4,3.3-6.3,7.7-5.6,13c0.7,3.9,2.8,7.4,6,9.8
			c2.5,2,5.3,3.5,8.3,4.6c1.9,0.7,3.8,1.3,5.8,2c6.7,2.6,11.8,1.2,16.3-3.3c2.7-2.7,5.3-5.2,4.2-9.1c-1.9-6.5-10-13.8-15.7-17.9
			C186.8,113.8,183.3,112.5,179.2,113.2L179.2,113.2z"/>
	</g>
	<path id="Trazado_3083" class="st6" d="M194.4,135c0-0.4,0.1-0.9,0.4-1.2c0.1-0.2,0.2-0.3,0.3-0.5c0.2-0.5,0.3-1,0.2-1.5l-0.1-0.3
		c-0.2-0.2-0.4-0.3-0.7-0.4c-2-0.4-4.1-0.8-5.7-2.1l-0.2,0.3c1.6,1.4,3.8,1.8,5.8,2.2c0.2,0,0.4,0.1,0.4,0.2l0.1,0.2
		c0.1,0.4,0,0.9-0.2,1.3c-0.1,0.2-0.2,0.3-0.3,0.5c-0.3,0.4-0.5,1-0.4,1.5L194.4,135L194.4,135z"/>
	<path id="Trazado_3084" class="st6" d="M180,143c0,0-0.9-6-7.7-12.3c0,0,1.6-4,3.6-5.8s5.8-2.7,9.2-6.9c2-2.4,2.7-5.6,1.9-8.6
		c-0.3,0.4-0.7,0.9-1.1,1.3c-0.3-2-0.8-4-1.5-5.9c0,0-0.7,1.2-4.6,4.5c0-1.2-0.2-2.5-0.6-3.6c-1.6,2.7-3.7,5.1-6.1,7.1
		c-4.1,3.4-9.4,7.9-9.8,11.8S163,129,163,129s-2.2-3.4-1.8-5c0,0-1.2,3.7,1.4,6.2c-0.6,0.9-1.1,1.8-1.6,2.7c-0.4,1,1.8-1.8,1.8-1.8
		s3.2,11,18.2,14.4L180,143L180,143z"/>
	<path id="Trazado_3085" class="st25" d="M195.1,120.9c0,0,0-2.7,1.6-2.7s4.5,3.3,2,6.3C197.2,123.6,196,122.4,195.1,120.9
		L195.1,120.9z"/>
	<path id="Trazado_3086" class="st6" d="M163,129c0,0-1.6-4.5-0.1-8.6s7.6-9.2,8.8-12.2c0.3,2.8-0.2,5.6-1.5,8.1
		c-1.3,2.8-2.4,5.6-3.3,8.6L163,129z"/>
	<path id="Trazado_3087" class="st6" d="M186.2,115.3c3.1,1.5,6.1,3.1,9,4.9c0,0-6.6-6.9-9.4-7.6S186.2,115.3,186.2,115.3z"/>
	<path id="Trazado_3088" class="st6" d="M179.3,133.8c0.6,0.7,1.1-0.9,1.3-1.9s1.8-2.8,2.1-3.6s-1.2-1.8-2.1-0.7
		S177.7,132,179.3,133.8z"/>
	<path id="Trazado_3089" class="st6" d="M191.1,118.9c0.8,0.4-0.6,1.3-1.5,1.7s-2.2,2.5-2.9,2.9s-2.1-0.7-1.2-1.8
		S188.8,117.9,191.1,118.9L191.1,118.9z"/>
	<path id="Trazado_3090" class="st0" d="M176.3,129.9c-0.7-0.3-1.4-0.5-2.2-0.6c0.3,0.7,0.7,1.3,1.3,1.8c0.3,0.2,0.8,0.2,1-0.2
		C176.7,130.6,176.6,130.2,176.3,129.9z"/>
	<path id="Trazado_3091" class="st0" d="M188.7,117.8c-0.6-0.3-1.2-0.5-1.9-0.6c0.3,0.6,0.7,1.2,1.1,1.6c0.3,0.2,0.7,0.1,0.9-0.1
		S189,118,188.7,117.8L188.7,117.8z"/>
	<path id="Trazado_3092" class="st0" d="M180,137.1c-0.4-0.2-0.8-0.3-1.2-0.4c0.2,0.4,0.4,0.7,0.7,1c0.2,0.1,0.4,0.1,0.6-0.1
		c0,0,0,0,0,0C180.2,137.5,180.1,137.3,180,137.1C180,137.1,180,137.1,180,137.1L180,137.1z"/>
	<path id="Trazado_3093" class="st6" d="M183,134.6c-1.2-1-1.7-2.2-1.2-2.8s1.8-0.3,3,0.7s1.7,2.2,1.2,2.8S184.2,135.6,183,134.6
		L183,134.6z"/>
	<path id="Trazado_3094" class="st6" d="M190.1,125.5c-1.2-1-1.7-2.2-1.2-2.8s1.9-0.3,3,0.7s1.7,2.2,1.2,2.8
		S191.3,126.5,190.1,125.5z"/>
	<path id="Trazado_3095" class="st26" d="M187.1,133.6c0,0,0.4,2.8-1.8,3.6 M191.9,127.5c0,0,2.8-0.7,2.6-3.2"/>
	<path id="Trazado_3096" class="st0" d="M195.2,120.2c1.3,3.8,0.9,7.9-1.1,11.4c-3.3,6.2-15.8,9.8-15.8,9.8l0.6,1.1l4.6-1.5
		c0,0,2.3,3.7,1.8,5.4c0,0,11.7,6.9,20.2-7.3C205.6,139.2,210,131.4,195.2,120.2L195.2,120.2z"/>
	<path id="Trazado_3097" class="st27" d="M180.8,142c0,0-2.4-2.1-4.6,1.1c-1.1,1.7,3,5.8,7,2.3C183.2,145.3,183.8,143.7,180.8,142
		L180.8,142z"/>
	<path id="Trazado_3098" class="st4" d="M256,155.5c0,0,16.2,14.6,17.3,17c0.7,1.5-20.4,44.3-20.4,44.3l-8.2-3.9l11.5-35.6l-8-7
		L256,155.5L256,155.5z"/>
	<path id="Trazado_3099" class="st3" d="M192,250l-8.6-12.5l17.6-12.9l4.3,6.5L192,250L192,250z M152.4,192.1l18.2-13.3l25.7,38.6
		l-17.7,13L152.4,192.1L152.4,192.1z M141.8,176.7l18.8-12.9l5.2,7.8l-18.3,13.4L141.8,176.7z M214.7,228.6l-49.1-73.7
		c-0.7-1-1.7-1.7-2.9-2c-1.2-0.2-2.4,0-3.4,0.7l-26.4,18.1c-2.1,1.4-2.6,4.3-1.2,6.3l8.5,12.4l-12.9,9.5l5.1,6.9l12.7-9.3l26.2,38.3
		l-14.6,10.7l5.1,6.9l14.3-10.5l12.1,17.7c1.4,2.1,4.3,2.6,6.4,1.2c0.4-0.3,0.8-0.7,1.1-1.1l19-26.8
		C215.7,232.2,215.8,230.2,214.7,228.6L214.7,228.6z"/>
	<path id="Trazado_3100" class="st3" d="M470.6,232.8h-19c-1.9,0-3.5-1.5-3.6-3.5s1.5-3.5,3.5-3.6c0,0,0.1,0,0.1,0h19
		c1.9,0,3.5,1.6,3.5,3.6C474.1,231.3,472.6,232.8,470.6,232.8z M376.8,232.8h-19c-1.9,0-3.5-1.6-3.5-3.6c0-1.9,1.6-3.4,3.5-3.5h19
		c1.9,0,3.5,1.5,3.6,3.5s-1.5,3.5-3.5,3.6C376.9,232.8,376.8,232.8,376.8,232.8z M470.2,220.1H351.8c-6.7,0-12.2,5.4-12.2,12.2
		c0,0,0,0,0,0v47h136.6c3.4,0,6.2-2.8,6.2-6.2c0,0,0,0,0,0v-40.8C482.3,225.5,476.9,220.1,470.2,220.1
		C470.2,220.1,470.2,220.1,470.2,220.1L470.2,220.1z"/>
	<path id="Trazado_3101" class="st8" d="M73.8,158l17.9-25l22.8,21.1c0,0,11.9-1.1,15.1-1.4s13,6.6,13,7.5s-9.4-1.4-9.4-1.4
		s6.1,4,6.1,5.4s-6.8-1.4-6.8-1.4s3.5,2.3,3,3s-7.3-0.9-7.3-0.9s5.4,2.8,4.2,3.8s-10.3-3.8-10.3-3.8s-10.3,3-12.9,2.8
		S73.8,158,73.8,158L73.8,158z"/>
	<g>
		<g>
			<path class="st28" d="M434,78.6c1.9,0,3.4,1.5,3.4,3.4s-1.5,3.4-3.4,3.4c-1.9,0-3.4-1.5-3.4-3.4S432.1,78.6,434,78.6z"/>
			<path class="st28" d="M427.5,89.2c1.2,3.6,0.8,7.5-0.8,10.8c-0.1,0.3-0.3,0.5-0.4,0.8c-7.5-3-12.7-10.4-12.7-18.9
				c0-0.8,0-1.6,0.1-2.4c0.4,0,0.8,0,1.3,0c3.5,0.2,6.9,1.8,9.4,4.5c0.7,0.8,1.4,1.6,1.9,2.6C426.8,87.4,427.2,88.3,427.5,89.2z"/>
			<path class="st28" d="M454.3,79.4c0.1,0.8,0.1,1.6,0.1,2.4c0,8.5-5.3,15.9-12.7,18.9c-0.1-0.2-0.3-0.5-0.4-0.8v0
				c-1.7-3.3-2-7.2-0.8-10.8c0.3-0.9,0.7-1.8,1.2-2.7c0.6-1,1.2-1.8,1.9-2.6c2.5-2.7,5.9-4.2,9.4-4.5
				C453.4,79.4,453.8,79.4,454.3,79.4z"/>
			<path class="st28" d="M446.4,65.6c-0.2,0.4-0.5,0.8-0.7,1.2c-2.5,3.7-6.8,6.2-11.7,6.2c-5.4,0-10-3-12.4-7.4
				c3.4-2.7,7.8-4.2,12.4-4.2C438.7,61.4,443,63,446.4,65.6z"/>
			<path class="st28" d="M434,41c22.6,0,41,18.4,41,41s-18.4,41-41,41c-22.6,0-41-18.4-41-41S411.4,41,434,41z"/>
		</g>
		<polygon class="st29" points="440.6,101.5 440.6,101.5 443,101.5 		"/>
		<g>
			<path class="st30" d="M434,104.1c-12.2,0-22.1-9.9-22.1-22.1s9.9-22.1,22.1-22.1c12.2,0,22.1,9.9,22.1,22.1
				S446.2,104.1,434,104.1z M434,63c-10.5,0-19,8.5-19,19s8.5,19,19,19s19-8.5,19-19S444.5,63,434,63z"/>
			<path class="st30" d="M441.7,100.7c1.2,2,2.9,3.8,5.1,5.1c4.2,2.4,9.1,2.4,13.1,0.5c-6.9,5.6-16.8,6.6-25,1.9
				c-0.3-0.2-0.6-0.4-0.9-0.6c-0.3,0.2-0.6,0.4-0.9,0.6c-8.2,4.7-18.1,3.7-25-1.9c4,1.9,8.9,1.9,13.1-0.5c2.2-1.3,3.9-3,5.1-5.1
				c0.1-0.2,0.3-0.5,0.4-0.8c1.7-3.3,2-7.2,0.8-10.8c-0.3-0.9-0.7-1.8-1.2-2.7c-0.6-1-1.2-1.8-1.9-2.6c-2.5-2.7-5.9-4.2-9.4-4.5
				c-0.4,0-0.8,0-1.3,0c-2.3,0.1-4.6,0.7-6.7,1.9c-4.2,2.4-6.6,6.6-7,11.1c-1.3-8.8,2.7-17.9,10.9-22.6c0.3-0.2,0.6-0.4,0.9-0.5
				c0-0.4,0-0.9,0-1.3c0-9.4,5.9-17.5,14.2-20.7c-3.7,2.6-6.1,6.8-6.1,11.6c0,2.5,0.6,4.8,1.7,6.8C424,70,428.6,73,434,73
				c4.9,0,9.1-2.4,11.7-6.2c0.3-0.4,0.5-0.8,0.7-1.2c1.1-2,1.7-4.3,1.7-6.7c0-4.8-2.4-9.1-6.1-11.6c8.3,3.2,14.2,11.3,14.2,20.7
				c0,0.4,0,0.9,0,1.3c0.3,0.2,0.7,0.4,1,0.5c8.2,4.7,12.2,13.8,10.9,22.6c-0.4-4.5-2.9-8.7-7-11.1c-2.1-1.2-4.4-1.8-6.7-1.9
				c-0.4,0-0.9,0-1.3,0c-3.5,0.2-6.9,1.8-9.4,4.5c-0.7,0.8-1.4,1.6-1.9,2.6c-0.5,0.9-0.9,1.8-1.2,2.7c-1.2,3.6-0.8,7.5,0.8,10.8v0
				C441.4,100.2,441.6,100.5,441.7,100.7z M437.4,82c0-1.9-1.5-3.4-3.4-3.4c-1.9,0-3.4,1.5-3.4,3.4s1.5,3.4,3.4,3.4
				C435.9,85.4,437.4,83.9,437.4,82z"/>
		</g>
	</g>
</g>
</svg>
