<svg xmlns="http://www.w3.org/2000/svg" width="490.816" height="346.82" viewBox="0 0 490.816 346.82">
  <g id="img2" transform="translate(-756.592 -3073.94)">
    <g id="Grupo_9751" data-name="Grupo 9751">
      <path id="Trazado_1976" data-name="Trazado 1976" d="M922.639,3246.381H855.062v173.831h67.576V3246.381Z" fill="#b4c9ff"/>
      <path id="Trazado_1977" data-name="Trazado 1977" d="M922.3,3304.388H855.062v17.556H922.3v-17.556Z" fill="#ebf1ff"/>
      <path id="Trazado_1978" data-name="Trazado 1978" d="M922.3,3274.573H855.062v17.558H922.3v-17.558Z" fill="#ebf1ff"/>
      <path id="Trazado_1979" data-name="Trazado 1979" d="M878.36,3270.266h-1.983v94.412h1.983v-94.412Z" fill="#b4c9ff"/>
      <path id="Trazado_1980" data-name="Trazado 1980" d="M898.895,3270.266h-1.983v94.412h1.983v-94.412Z" fill="#b4c9ff"/>
      <path id="Trazado_1981" data-name="Trazado 1981" d="M922.3,3339.171H855.062v17.556H922.3v-17.556Z" fill="#ebf1ff"/>
      <path id="Trazado_1982" data-name="Trazado 1982" d="M937.212,3311.916H768.265v108.656H937.212V3311.916Z" fill="#ebf1ff"/>
      <path id="Trazado_1983" data-name="Trazado 1983" d="M926.741,3318.635h-14.3v24.088h14.3v-24.088Zm-7.25,24.154v-23.958m164.932,4.663h-14.3v24.088h14.3v-24.088Zm-7.25,24.153V3323.69m31.985-.2h-14.3v24.088h14.3v-24.088Zm-7.249,24.153V3323.69m31.761-.2h-14.3v24.088h14.3v-24.088Zm-7.249,24.153V3323.69m-42,29.618h-14.3V3377.4h14.3v-24.088Zm-7.25,24.154V3353.5m31.985-.2h-14.3V3377.4h14.3v-24.088Zm-7.249,24.154V3353.5m31.761-.2h-14.3V3377.4h14.3v-24.088Zm-7.249,24.154V3353.5m-42,30.722h-14.3v24.088h14.3v-24.088Zm-7.25,24.154v-23.958m31.985-.2h-14.3v24.088h14.3v-24.088Zm-7.249,24.154v-23.958m31.761-.2h-14.3v24.088h14.3v-24.088Zm-7.249,24.154v-23.958m49.644-18.305h-14.288v24.088h14.288v-24.088Zm-7.237,24.154v-23.959m31.972-.2h-14.288v24.088H1200.8v-24.088Zm-7.237,24.154v-23.959m31.762-.2h-14.3v24.088h14.3v-24.088Zm-7.249,24.154v-23.959M900.9,3318.635H886.6v24.088h14.3v-24.088Zm-7.249,24.154v-23.958m-20.584-.2h-14.3v24.088h14.3v-24.088Zm-7.25,24.154v-23.958m-18.588-.2h-14.3v24.088h14.3v-24.088Zm-7.25,24.154v-23.958m-18.812-.2H806.88v24.088h14.289v-24.088Zm-7.25,24.154v-23.958m-18.589-.2H781.042v24.088H795.33v-24.088Zm-7.249,24.154v-23.958m138.66,34.256h-14.3v24.089h14.3v-24.089Zm-7.25,24.154v-23.958m-18.589-.2H886.6v24.089h14.3v-24.089Zm-7.249,24.154v-23.958m-20.584-.2h-14.3v24.089h14.3v-24.089Zm-7.25,24.154v-23.958m-18.588-.2h-14.3v24.089h14.3v-24.089Zm-7.25,24.154v-23.958m-18.812-.2H806.88v24.089h14.289v-24.089Zm-7.25,24.154v-23.958m-18.589-.2H781.042v24.089H795.33v-24.089Zm-7.249,24.154v-23.958m138.66,34.587h-14.3v24.089h14.3V3387.87Zm-7.25,24.155v-23.959m-18.589-.2H886.6v24.089h14.3V3387.87Zm-7.249,24.155v-23.959m-20.584-.2h-14.3v24.089h14.3V3387.87Zm-7.25,24.155v-23.959m-18.588-.2h-14.3v24.089h14.3V3387.87Zm-7.25,24.155v-23.959m-18.812-.2H806.88v24.089h14.289V3387.87Zm-7.25,24.155v-23.959m-18.589-.2H781.042v24.089H795.33V3387.87Zm-7.249,24.155v-23.959" fill="none" stroke="#b4c9ff" stroke-miterlimit="10" stroke-width="0.793"/>
      <path id="Trazado_1984" data-name="Trazado 1984" d="M1184.443,3201.209H1136.1v219.363h48.344V3201.209Z" fill="#b4c9ff"/>
      <path id="Trazado_1985" data-name="Trazado 1985" d="M1247.186,3146.9h-67.576v273.4h67.576V3146.9Z" fill="#b4c9ff"/>
      <path id="Trazado_1986" data-name="Trazado 1986" d="M1247.408,3367.569h-88.953v-25.618h88.953v25.618Z" fill="#ebf1ff"/>
      <path id="Trazado_1987" data-name="Trazado 1987" d="M1247.408,3405.6h-91.183v-25.619h91.183V3405.6Z" fill="#ebf1ff"/>
      <path id="Trazado_1988" data-name="Trazado 1988" d="M976.075,3193.887H927.732v226.685h48.343V3193.887Z" fill="#b4c9ff"/>
      <path id="Trazado_1989" data-name="Trazado 1989" d="M1038.818,3136.17H971.242v284.207h67.576V3136.17Z" fill="#b4c9ff"/>
      <path id="Trazado_1990" data-name="Trazado 1990" d="M1158.716,3278.746H1043.887v141.826h114.828V3278.746Z" fill="#ebf1ff"/>
      <path id="Trazado_1991" data-name="Trazado 1991" d="M1056.068,3298.682h0c-2.812,0-5.093,1.674-5.093,3.739v118.151h10.187V3302.421c0-2.065-2.28-3.739-5.094-3.739Z" fill="#b4c9ff"/>
      <path id="Trazado_1992" data-name="Trazado 1992" d="M1073.6,3298.682h-.5c-2.677,0-4.845,1.762-4.845,3.932v117.958h10.186V3302.614c0-2.17-2.168-3.932-4.845-3.932Z" fill="#b4c9ff"/>
      <path id="Trazado_1993" data-name="Trazado 1993" d="M1092.366,3298.682h-.979a4.383,4.383,0,0,0-4.6,4.134V3420.48h10.186V3302.816a4.395,4.395,0,0,0-4.61-4.134Z" fill="#b4c9ff"/>
      <path id="Trazado_1994" data-name="Trazado 1994" d="M1147.129,3298.682h0a4.856,4.856,0,0,1,5.093,4.577v117.313h-10.187V3303.259a4.856,4.856,0,0,1,5.094-4.577Z" fill="#b4c9ff"/>
      <path id="Trazado_1995" data-name="Trazado 1995" d="M1129.593,3298.682h.509a4.588,4.588,0,0,1,4.832,4.288v117.6h-10.186v-117.6a4.592,4.592,0,0,1,4.845-4.288Z" fill="#b4c9ff"/>
      <path id="Trazado_1996" data-name="Trazado 1996" d="M1110.831,3298.682h.979a4.395,4.395,0,0,1,4.61,4.134V3420.48h-10.186V3302.816a4.383,4.383,0,0,1,4.6-4.134Z" fill="#b4c9ff"/>
      <path id="Trazado_1997" data-name="Trazado 1997" d="M1144.811,3311.916h-84.579v108.656h84.579V3311.916Z" fill="#ebf1ff"/>
      <path id="Trazado_1998" data-name="Trazado 1998" d="M1039.042,3177.909H971.019v-25.618h68.023v25.618Z" fill="#ebf1ff"/>
      <path id="Trazado_1999" data-name="Trazado 1999" d="M1039.042,3209.712H971.019v-25.619h68.023v25.619Z" fill="#ebf1ff"/>
      <path id="Trazado_2000" data-name="Trazado 2000" d="M1039.042,3242.838H971.019V3217.22h68.023v25.618Z" fill="#ebf1ff"/>
      <path id="Trazado_2001" data-name="Trazado 2001" d="M1039.042,3280.823H971.019v-25.618h68.023v25.618Z" fill="#ebf1ff"/>
      <path id="Trazado_2002" data-name="Trazado 2002" d="M1020.044,3146.991h-3.086v139.575h3.086V3146.991Z" fill="#b4c9ff"/>
      <path id="Trazado_2003" data-name="Trazado 2003" d="M992.223,3146.991h-3.1v139.575h3.1V3146.991Z" fill="#b4c9ff"/>
      <path id="Trazado_2004" data-name="Trazado 2004" d="M1247.408,3188.641h-68.022v-25.618h68.022v25.618Z" fill="#ebf1ff"/>
      <path id="Trazado_2005" data-name="Trazado 2005" d="M1247.408,3220.442h-68.022v-25.618h68.022v25.618Z" fill="#ebf1ff"/>
      <path id="Trazado_2006" data-name="Trazado 2006" d="M1247.408,3253.57h-91.183v-25.619h91.183v25.619Z" fill="#ebf1ff"/>
      <path id="Trazado_2007" data-name="Trazado 2007" d="M1247.408,3291.555h-88.953v-25.619h88.953v25.619Z" fill="#ebf1ff"/>
      <path id="Trazado_2008" data-name="Trazado 2008" d="M1247.408,3329.583h-91.183v-25.618h91.183v25.618Z" fill="#ebf1ff"/>
      <path id="Trazado_2009" data-name="Trazado 2009" d="M1228.411,3157.723h-3.086v262.849h3.086V3157.723Z" fill="#b4c9ff"/>
      <path id="Trazado_2010" data-name="Trazado 2010" d="M1200.59,3157.723h-3.1v262.849h3.1V3157.723Z" fill="#b4c9ff"/>
      <path id="Trazado_2011" data-name="Trazado 2011" d="M1139.049,3130.454h-77.168v42.906h77.168v-42.906Z" fill="#ebf1ff"/>
      <path id="Trazado_2012" data-name="Trazado 2012" d="M1158.716,3283.352H1043.887v5.684h114.828v-5.684Z" fill="#b4c9ff"/>
      <path id="Trazado_2013" data-name="Trazado 2013" d="M1155.927,3173.129H1046.5v9.723h109.425v-9.723Z" fill="#b4c9ff"/>
      <path id="Trazado_2014" data-name="Trazado 2014" d="M1111.166,3134.313h0a5.252,5.252,0,0,1,5.254,5.247v28.4h-10.5v-28.4a5.243,5.243,0,0,1,5.243-5.247Z" fill="#b4c9ff"/>
      <path id="Trazado_2015" data-name="Trazado 2015" d="M1128.651,3134.313h0a5.242,5.242,0,0,1,5.242,5.247v28.4h-10.5v-28.4a5.253,5.253,0,0,1,5.254-5.247Z" fill="#b4c9ff"/>
      <path id="Trazado_2016" data-name="Trazado 2016" d="M1074.013,3134.313h0a5.242,5.242,0,0,1,5.242,5.247v28.4h-10.484v-28.4a5.242,5.242,0,0,1,5.242-5.247Z" fill="#b4c9ff"/>
      <path id="Trazado_2017" data-name="Trazado 2017" d="M1091.486,3134.313h0a5.253,5.253,0,0,1,5.255,5.247v28.4h-10.5v-28.4a5.25,5.25,0,0,1,5.242-5.247Z" fill="#b4c9ff"/>
      <path id="Trazado_2018" data-name="Trazado 2018" d="M1152.47,3182.621H1050.145v96.692H1152.47v-96.692Z" fill="#ebf1ff"/>
      <path id="Trazado_2019" data-name="Trazado 2019" d="M1075.785,3190.415h-14.3V3214.5h14.3v-24.089Zm-7.25,24.153v-23.957m29.569-.2h-14.289V3214.5H1098.1v-24.089Zm-7.237,24.153v-23.957m28.986-.2h-14.3V3214.5h14.3v-24.089Zm-7.25,24.153v-23.957m29.569-.2h-14.3V3214.5h14.3v-24.089Zm-7.25,24.153v-23.957m-59.137,29.436h-14.3v24.089h14.3v-24.089Zm-7.25,24.154v-23.957m29.569-.2h-14.289v24.089H1098.1v-24.089Zm-7.237,24.154v-23.957m28.986-.2h-14.3v24.089h14.3v-24.089Zm-7.25,24.154v-23.957m29.569-.2h-14.3v24.089h14.3v-24.089Zm-7.25,24.154v-23.957m-59.137,28.742h-14.3v24.089h14.3v-24.089Zm-7.25,24.154v-23.958m29.569-.2h-14.289v24.089H1098.1v-24.089Zm-7.237,24.154v-23.958m28.986-.2h-14.3v24.089h14.3v-24.089Zm-7.25,24.154v-23.958m29.569-.2h-14.3v24.089h14.3v-24.089Zm-7.25,24.154v-23.958" fill="none" stroke="#b4c9ff" stroke-miterlimit="10" stroke-width="0.793"/>
      <path id="Trazado_2020" data-name="Trazado 2020" d="M1102.788,3074.622h-4.635l-39.817,49.081v6.79h84.269v-6.79l-39.817-49.081Z" fill="#b4c9ff"/>
      <path id="Trazado_2021" data-name="Trazado 2021" d="M1058.336,3123.7h84.009m-41.2-49.428,15.28,49.234m-17.139-49.234L1084,3123.509" fill="none" stroke="#fff" stroke-linecap="round" stroke-linejoin="round" stroke-width="0.535"/>
      <path id="Trazado_2022" data-name="Trazado 2022" d="M1236.243,3359.4h-80.316v61.174h80.316V3359.4Z" fill="#ebf1ff"/>
    </g>
    <g id="Grupo_9753" data-name="Grupo 9753">
      <path id="Trazado_2023" data-name="Trazado 2023" d="M964.83,3420.48l-3.6-36.28,7.7-79.263,1.2-14.687,49.05-4.459,13.495,9.355-6.816,87.609,4.254,37.725H1005.4l-6.62-34.836-.05-65.043-3.26.217-9.567,64.826,1.531,34.836Z" fill="#5e71c7"/>
      <path id="Trazado_2024" data-name="Trazado 2024" d="M1199.1,3420.48c-2.829-12.409-8.487-37.385-8.487-37.385l-22.678,3-2.174,34.387Z" fill="#fce6a3"/>
      <path id="Trazado_2025" data-name="Trazado 2025" d="M1185.464,3420.48l.54-35.909m-11.913,36,2.358-32.277-2.358,32.277" fill="none" stroke="#2773bf" stroke-linecap="round" stroke-linejoin="round" stroke-width="0.227"/>
      <path id="Trazado_2026" data-name="Trazado 2026" d="M1185.793,3400.244s2.243-4.288,2.243-5.483-.21-11.245-.21-11.245" fill="none" stroke="#2773bf" stroke-linecap="round" stroke-linejoin="round" stroke-width="0.227"/>
      <line id="Línea_3" data-name="Línea 3" x2="2.552" y2="11.051" transform="translate(1185.657 3409.521)" fill="none" stroke="#2773bf" stroke-linecap="round" stroke-linejoin="round" stroke-width="0.227"/>
      <path id="Trazado_2027" data-name="Trazado 2027" d="M900.264,3420.48H914.6c-2.254-11.262-5.285-22.628-8.614-24.721V3351.6l-20.795.513,7.957,48.014Z" fill="#fca19f"/>
      <path id="Trazado_2028" data-name="Trazado 2028" d="M879.1,3420.48c.632-9.351.769-17.957-.328-22.153l12.579-42.878-19-5.907s-5.9,44.164-6.159,48.272c-.1,1.648-.167,11.482-.2,22.666Z" fill="#fca19f"/>
      <path id="Trazado_2029" data-name="Trazado 2029" d="M814.876,3420.48l1.038-27.184,3.619-21.751s0,18.124.806,26.986c.325,3.577,4.655,12.536,9.7,21.949H851.93l-10.648-27.589s6.853-46.316,4.833-58.8-38.665-6.444-38.665-6.444-10.867,45.109-12.083,60.414c-.5,6.4-.09,19.432.56,32.422Z" fill="#97a5ff"/>
      <path id="Trazado_2030" data-name="Trazado 2030" d="M1067.342,3420.48h19.826l2.287-8.192,1.132,8.192h21.259l-.654-17.464-5.217-61.159-33.906-.088.26,54.4Z" fill="#5e71c7"/>
      <path id="Trazado_2031" data-name="Trazado 2031" d="M1039.042,3242.838H971.019V3217.22h68.023v25.618Z" fill="#ebf1ff"/>
      <path id="Trazado_2032" data-name="Trazado 2032" d="M992.223,3146.991h-3.1v139.575h3.1V3146.991Z" fill="#b4c9ff"/>
      <path id="Trazado_2033" data-name="Trazado 2033" d="M898.895,3270.266h-1.983v94.412h1.983v-94.412Z" fill="#b4c9ff"/>
      <path id="Trazado_2034" data-name="Trazado 2034" d="M1089.454,3412.288l-.545-9.123-16.519-50.227m29.8,67.527-18.275-77.01s16.16,57.049,16.792,60.743c.215,1.285.8,8.022,1.483,16.267m-25.08.107,6.371-34.054-1.115,12.565-5.256,21.489m14.55-52.059s9.034-.953,6.556-23.234m-25.132,8.512,7.807-1.6,4.783,20.2-4.213,6.53" fill="none" stroke="#242638" stroke-linecap="round" stroke-linejoin="round" stroke-width="0.312"/>
      <path id="Trazado_2035" data-name="Trazado 2035" d="M1102.987,3254.985s-5.416-7.2-13.013-10.553-7.274-.99-8.017.482-8.836,9.713-5.54,15.122c0,0-14.549,35.305-12.516,41.547s4.734,8.286,4.734,8.286-4.387,20.494-1.178,23.174l3.2,2.681.52,7.631s23.373,6.443,35.1,2.289l2.132-3.458s7.509-3.06,3.506-17.868-1.115-41.291-3.383-48.92a68.592,68.592,0,0,0-5.031-12.591s2.354-5.568-.508-7.822Z" fill="#fff"/>
      <path id="Trazado_2036" data-name="Trazado 2036" d="M1097.373,3318.7l3.507,2.616,2.429,1.287s-.471,8.3-3.222,9.891l-3.879-4.455-3-3.24,4.164-6.1Z" fill="#fca19f"/>
      <path id="Trazado_2037" data-name="Trazado 2037" d="M1068.635,3309.869l22.281,18.17,7.374-10.65-16.928-19.138s9.034-18.625,8.34-24.72m19.729,34.4-7.225.894s5.329,21.765-5.428,25.928l-.483,6.257m-25.64-5.282a181.137,181.137,0,0,0,37.748,6.462m-31.986-82.15s5.391-1.35,8.861.065,11.141,4.715,14.536,4.439m-25.243-.045a15.343,15.343,0,0,1,6.58.123,12.167,12.167,0,0,1,7.572,5.44m-4.164-10.424-3.408,4.984" fill="none" stroke="#563136" stroke-linecap="round" stroke-linejoin="round" stroke-width="0.312"/>
      <path id="Trazado_2038" data-name="Trazado 2038" d="M1101.97,3243.673l-1.747,10.037,1.3,4.673s-5.019-1.455-12.5-7.583l1.252-2.062,2.553-12.668,9.145,7.6Z" fill="#fca19f"/>
      <path id="Trazado_2039" data-name="Trazado 2039" d="M1086.852,3229.044a15.552,15.552,0,0,1,.557-8.942c3.507-9.6,14.016-7.419,21.216-3.62a9.774,9.774,0,0,1,5.081,8.72c-.037,1.568-.607,3.1-.582,4.664.024,3.482,2.478,4.819,2.367,5.679-.075.457-1.326,1.539-1.76,1.4-.174-.055-.5.832-.558,1.281a19.208,19.208,0,0,1-1.7,6.059c-3.223,5.989-8.477,2.02-12.914-1.315-4.994-3.755-10.335-7.793-11.71-13.926Z" fill="#fca19f"/>
      <path id="Trazado_2040" data-name="Trazado 2040" d="M1111.662,3226.237a5.269,5.269,0,0,0-3.433.428,1.271,1.271,0,0,0-.533.435.448.448,0,0,0,.1.6,3.011,3.011,0,0,1,1.772-.219c.384.028.781.058,1.165.088a2.7,2.7,0,0,0,1.227-.1c.359-.154.607-.563.4-.871a1.068,1.068,0,0,0-.693-.361Z" fill="#563136"/>
      <path id="Trazado_2041" data-name="Trazado 2041" d="M1113.136,3239.022a3.752,3.752,0,0,1-.917-.127c-1.1-.272-2.218-.544-3.334-.816l-.272.029-.062.2a3.154,3.154,0,0,0,.1.683,5.259,5.259,0,0,0,3.544,3.666,17.2,17.2,0,0,0,.942-3.632Z" fill="#fff9f8"/>
      <path id="Trazado_2042" data-name="Trazado 2042" d="M1108.476,3247.161c-2.577-.75-9.529-6.409-9.4-11.616l-2.95,2.137s2.256,6.151,5.23,9.517a12.333,12.333,0,0,1,.409-1.9c2.5,1.633,4.8,2.5,6.716,1.859Z" fill="#f97070"/>
      <path id="Trazado_2043" data-name="Trazado 2043" d="M1092.131,3239.884s6.952-1.238,8.774-6.18l2.168-.818,4.524-14.492-21.068,2.74s-1.387,7.418,1.19,11.126a59.229,59.229,0,0,1,4.412,7.624Z" fill="#563136"/>
      <path id="Trazado_2044" data-name="Trazado 2044" d="M1111.364,3230.651c.112-1.073-.248-1.992-.818-2.056s-1.127.758-1.252,1.831.249,1.994.818,2.056,1.128-.758,1.252-1.831Z" fill="#242638"/>
      <path id="Trazado_2045" data-name="Trazado 2045" d="M1087.93,3245.374c-2.913-.579-4.6,4.156,13.594,13.009" fill="none" stroke="#563136" stroke-linecap="round" stroke-linejoin="round" stroke-width="0.312"/>
      <path id="Trazado_2046" data-name="Trazado 2046" d="M1086.839,3222.325a6.4,6.4,0,0,1,.583-7.293c2.937-3.6,2.354-.336,2.354-.336a11.672,11.672,0,0,1,7.213-2.516c4.523-.083,14.673,4.444,16.1,4.612s3.432.5,3.432.5a5.487,5.487,0,0,1-3.606,2.264l1.338,1.341s-2.255,1.006-7.038-1.341l1.338,3.017s-3.519-.167-4.1-.67-17.61.419-17.61.419Z" fill="#563136"/>
      <path id="Trazado_2047" data-name="Trazado 2047" d="M1102.045,3231.883s8.935,3.577,13.136,2.739l.669,1.229s-4.04,11.913-8.1,11.626c-8.724-.615-8.724-13.694-8.724-13.694l.372.336s1.2,5.086,4.052,6.484a15.37,15.37,0,0,0,2.4-6.093l-5.031-2.515,1.227-.112Z" fill="#5e71c7"/>
      <path id="Trazado_2048" data-name="Trazado 2048" d="M1099.046,3233.81a2.642,2.642,0,0,0,.359.9,2.155,2.155,0,0,0,1.983,1.252,1.849,1.849,0,0,0,1.264-.884,4.783,4.783,0,0,0,.558-1.478,1.066,1.066,0,0,0,.037-.392.82.82,0,0,0-.174-.318,3.563,3.563,0,0,0-1.3-1.2,1.981,1.981,0,0,0-1.995.242,2.034,2.034,0,0,0-.731,1.886Z" fill="#fca19f"/>
      <path id="Trazado_2049" data-name="Trazado 2049" d="M758.339,3280.261a3.488,3.488,0,0,1-.595-2.441c1.351.24,2.429,1.2,3.606,1.921a10.771,10.771,0,0,0,8.192,1.237c-.88-1.137-1.772-2.274-2.653-3.411a13.359,13.359,0,0,1,7.9,2.958,38.077,38.077,0,0,1,6.01,6.112,1.6,1.6,0,0,1,.434.8,1.557,1.557,0,0,1-.3.94,17.308,17.308,0,0,1-3.049,3.788c-1.425-1.368-2.95-2.791-4.871-3.257a12.682,12.682,0,0,0-3.63-.125,20.573,20.573,0,0,1-6.655-.518,9.165,9.165,0,0,1-5.378-3.768,26.193,26.193,0,0,1,4.535,1.284c-2.416-1.681-5.068-3.75-5.291-6.684a3.515,3.515,0,0,1,1.747,1.166Z" fill="#fca19f"/>
      <path id="Trazado_2050" data-name="Trazado 2050" d="M828.406,3224.253a35.071,35.071,0,0,0-19.667,8.691,17.518,17.518,0,0,0-4.981,6.708,8.9,8.9,0,0,0,.693,8.084c1.14,1.633,3.049,2.934,3.222,4.919.137,1.526-.83,2.915-1.809,4.09-3.8,4.553-8.823,8.761-9.6,14.64a14.307,14.307,0,0,0,3.817,11.1,26.705,26.705,0,0,0,10.038,6.592" fill="none" stroke="#fce6a3" stroke-linecap="round" stroke-linejoin="round" stroke-width="0.271"/>
      <path id="Trazado_2051" data-name="Trazado 2051" d="M843.128,3286.819c2.107-1.408,4.92-.56,7.448-.737a10.676,10.676,0,0,0,8.254-5.6,16.568,16.568,0,0,0,1.673-10.093c-.732-5.93-4.152-11.781-9.642-14.151-1.921-.83-4.1-1.264-5.613-2.71-2.541-2.44-2.12-6.568-1.364-10.018a15.353,15.353,0,0,0-5.626-15.952c-7.1-5.533-16.06-3.577-23.025,1.059-5.974,3.983-11.414,11.4-6.32,18.277,1.288,1.727,3.2,3.018,4.015,5.006a7.476,7.476,0,0,1-.644,6.168,31.536,31.536,0,0,1-3.842,5.108c-3.693,4.445-6.717,10.113-5.639,15.786a14.868,14.868,0,0,0,5.676,8.738,25.211,25.211,0,0,0,9.629,4.334,39.089,39.089,0,0,0,15.937.47c2.317-.415,4.721-1.108,6.382-2.782a19.7,19.7,0,0,1,2.7-2.9Z" fill="#fce6a3"/>
      <path id="Trazado_2052" data-name="Trazado 2052" d="M847.089,3420.48m-27.556-48.935,3.829-32.623,18.725-1.611s-6.84,51.956-6.444,54.372c.223,1.317,6.122,15.845,11.446,28.8m-7.207-66.455s-11.079-2.819-6.853-13.9m-12.48,19.534s-4.634-1.208-3.829-19.937" fill="none" stroke="#242638" stroke-miterlimit="10" stroke-width="0.325"/>
      <path id="Trazado_2053" data-name="Trazado 2053" d="M825.035,3266.423s-15.032.269-17.175,2.686-6.718,27.12-6.718,27.12-11.809-11.279-20.137-9.668l-4.561,5.1s13.422,30.88,31.948,26.314l-3.755,15.574,13.421,11.815s34.91,1.611,35.716-25.509-.806-47.257-5.912-49.943-22.827-3.491-22.827-3.491Z" fill="#d0dcff"/>
      <path id="Trazado_2054" data-name="Trazado 2054" d="M799.928,3347.592l-1.995-21.926,13.2-.285-1.524,22.211Z" fill="#242638"/>
      <path id="Trazado_2055" data-name="Trazado 2055" d="M799.259,3340.236l-.694-7.534h12.058l-.508,7.534Z" fill="#fff"/>
      <path id="Trazado_2056" data-name="Trazado 2056" d="M796.507,3323.767h16.036v2.943H796.507v-2.943Z" fill="#fff0b3"/>
      <path id="Trazado_2057" data-name="Trazado 2057" d="M798.453,3324.527H810.6V3321.3H798.453v3.227Z" fill="#fff0b3"/>
      <path id="Trazado_2058" data-name="Trazado 2058" d="M816.262,3336.1H814.6a36.839,36.839,0,0,0-3.47-4.933c-.458-.5-.607,2.165-.607,2.165l-.4,2.87-4.721.538-6.655-2.589-.124-.829s-.706,2.216-.335,2.771a19.731,19.731,0,0,1,1.016,2.218l.632,3.068a3.364,3.364,0,0,0,1.946,2.379l2.541,1.11a5.132,5.132,0,0,0,3.519.211l5.6-1.682,4.474-.5-1.759-6.8Z" fill="#fca19f"/>
      <path id="Trazado_2059" data-name="Trazado 2059" d="M818.727,3345.164l-2.614-9.868s9.059-13.291,19.53-19.131c0,0,3.433-24.771,3.024-28.8m-30.275,30.61,1.884-19.131s-3.421-4.43-3.024-8.257,4.226-6.042,4.833-12.284" fill="none" stroke="#242638" stroke-miterlimit="10" stroke-width="0.325"/>
      <path id="Trazado_2060" data-name="Trazado 2060" d="M833.376,3249.817s-.509,14.209-.1,15.336,3.681,2.53,3.421,2.257c-.174-.192-13.3,7.924-18.378-.615,0,0,3.978-.854,4.374-1.686s1.884-9.942,1.884-9.942l8.8-5.35Z" fill="#fca19f"/>
      <path id="Trazado_2061" data-name="Trazado 2061" d="M831.256,3251.038l-2.329,1.42-4.586,3.5c-.173,1.012-.483,2.84-.793,4.608a12.746,12.746,0,0,0,9.679-6.682c.025-.871.037-1.594.062-2.243l-2.033-.6Z" fill="#f97070"/>
      <path id="Trazado_2062" data-name="Trazado 2062" d="M815.283,3238.368c-1.029,12.643,5.291,17.937,8.154,18.143,3.693.266,10.087-2.653,11.5-8.271,0,0,4.548-.12,4.833-2.623.52-4.613-3.036-2.138-3.036-2.138s6.642-11.39-5.081-16.887c-4.7-2.2-15.379-.345-16.37,11.776Z" fill="#fca19f"/>
      <path id="Trazado_2063" data-name="Trazado 2063" d="M830.054,3239.058c-.123-.281-.694-.332-.954-.407a4.47,4.47,0,0,0-1.623-.175,9.412,9.412,0,0,0-1.289.2c-.285.062-.781.241-1.029.005a.446.446,0,0,1,0-.59c.31-.389,1.054-.437,1.5-.488,1.326-.149,2.8.081,3.4,1.452Z" fill="#1e183f"/>
      <path id="Trazado_2064" data-name="Trazado 2064" d="M815.543,3238.7c.136-.278.706-.309.966-.376a4.559,4.559,0,0,1,1.636-.119,9.179,9.179,0,0,1,1.276.247c.286.071.769.265,1.029.04a.46.46,0,0,0,.025-.59c-.31-.4-1.041-.473-1.487-.539-1.314-.193-2.8-.015-3.445,1.337Z" fill="#1e183f"/>
      <path id="Trazado_2065" data-name="Trazado 2065" d="M830.55,3244.875c0-.58-.942-1.039-2.082-1.027s-2.057.5-2.045,1.077.93,1.041,2.07,1.027,2.07-.495,2.057-1.077Z" fill="#f97070"/>
      <path id="Trazado_2066" data-name="Trazado 2066" d="M819.483,3244.716c0-.582-.83-1.043-1.846-1.032s-1.822.494-1.809,1.075.83,1.042,1.846,1.03,1.822-.493,1.809-1.073Z" fill="#f97070"/>
      <path id="Trazado_2067" data-name="Trazado 2067" d="M823.152,3247a2.132,2.132,0,0,1-1.537-.891l-.013-.172a10.529,10.529,0,0,0,.657-5.474l.149-.2.2.142a10.843,10.843,0,0,1-.645,5.579,1.7,1.7,0,0,0,1.19.669h.062l.173.163-.161.188Z" fill="#1e183f"/>
      <path id="Trazado_2068" data-name="Trazado 2068" d="M828.468,3241.669c.062-1.052-.434-1.934-1.1-1.97s-1.264.788-1.313,1.84.445,1.935,1.115,1.971,1.251-.788,1.3-1.841Z" fill="#1e183f"/>
      <path id="Trazado_2069" data-name="Trazado 2069" d="M819.4,3241.288c.062-1.052-.434-1.935-1.1-1.971s-1.252.789-1.314,1.841.446,1.934,1.116,1.97,1.252-.788,1.3-1.84Z" fill="#1e183f"/>
      <path id="Trazado_2070" data-name="Trazado 2070" d="M826.237,3249.526l-2.565-1.312-1,.8-.917-.818-2.268,1.327s.831,3.325,3.248,3.444c2.788.138,3.506-3.443,3.506-3.443Z" fill="#f97070"/>
      <path id="Trazado_2071" data-name="Trazado 2071" d="M826.237,3249.526h-6.754s3.148,4.618,6.754,0Z" fill="#fff"/>
      <path id="Trazado_2072" data-name="Trazado 2072" d="M841.244,3234.627a6.654,6.654,0,0,1-.371,2.907c-.967,2.9-2.726,5.868-5.477,7.19a36.323,36.323,0,0,1-7.089-14.674,14.884,14.884,0,0,0-10.026,4.369,38.221,38.221,0,0,0-6.592,9.013,15.674,15.674,0,0,1,28.093-12.058,7.182,7.182,0,0,1,1.462,3.253Z" fill="#fce6a3"/>
      <path id="Trazado_2073" data-name="Trazado 2073" d="M818.827,3292.3s4.734,5.437,15.2,2.92c0,0-10.471,8.055-15.2-2.92Z" fill="#97a5ff"/>
      <path id="Trazado_2074" data-name="Trazado 2074" d="M839.807,3247.292h-5.973l2.85,6.828,3.123-6.828Z" fill="#ffc359"/>
      <path id="Trazado_2075" data-name="Trazado 2075" d="M815.307,3244.664a42.619,42.619,0,0,0,18.056-.5s.781,5.534-1.127,9.056c0,0-4.908,4.135-8.936,3.465s-7.212-5.366-7.993-12.017Z" fill="#1e183f"/>
      <path id="Trazado_2076" data-name="Trazado 2076" d="M833.363,3244.16l4.239-1.006-.5.461-3.816,1.426.074-.881Z" fill="#1e183f"/>
      <path id="Trazado_2077" data-name="Trazado 2077" d="M832.236,3253.216a15.021,15.021,0,0,0,2.118-3.354,14.674,14.674,0,0,1-2.181,2.7l.063.651Z" fill="#1e183f"/>
      <path id="Trazado_2078" data-name="Trazado 2078" d="M860.59,3372.425q.073.892.148,1.785c.025.333.149.764.484.774.272.009.446-.269.557-.51a31.913,31.913,0,0,0,2.231-6.609c.074,1.538.136,3.074.211,4.611.383.291.83-.3.941-.768a92.749,92.749,0,0,0,2.454-13.781,1.343,1.343,0,0,0-.037-.586,1.174,1.174,0,0,0-.459-.506,9.483,9.483,0,0,0-6.617-1.748q-1.245,4.545-2.491,9.088a38.951,38.951,0,0,0-1.611,8.22,2.131,2.131,0,0,0,1.041-1.627,9.68,9.68,0,0,0,.013,3.34,2.2,2.2,0,0,0,.941-1.157,2.352,2.352,0,0,0-.074,1.274.8.8,0,0,0,.991.562,1.142,1.142,0,0,0,.508-.642c.248-.574.508-1.146.769-1.72Z" fill="#fca19f"/>
      <path id="Trazado_2079" data-name="Trazado 2079" d="M888.956,3269.318c-.161-1.892-.31-3.786-.384-5.684-.1-2.669-.05-5.346-.261-8.009-.185-2.369-.595-4.713-.991-7.055q-.855-4.929-1.685-9.859a7.694,7.694,0,0,0-1.673-4.265,1.752,1.752,0,0,0-.831-.509,2.207,2.207,0,0,0-.879.044c-1.227.231-2.591.543-3.309,1.58a5.067,5.067,0,0,0-.521,1.185,26.638,26.638,0,0,0-.867,2.92c-1.066,4.84.558,9.814.929,14.755a29.376,29.376,0,0,1-1.883,12.861c.322-.266.632-.533.954-.8-.087.47-.161.939-.248,1.408a13.231,13.231,0,0,0,3.779.907,4.207,4.207,0,0,0,.955-2.117,5.881,5.881,0,0,1-.31,2.409,18.463,18.463,0,0,0,7.225.228Z" fill="#242638"/>
      <path id="Trazado_2080" data-name="Trazado 2080" d="M885.622,3232.307c-3.705.4-6.518,4.122-7.249,7.821-.31,1.633-.236,3.32-.459,4.969-.149,1.013-1.71,8.443-.941,11.906,1.164,5.3,1.424,5.649,11.9,4.274,15.156-1.989,24.612-31.975-3.247-28.97Z" fill="#fca19f"/>
      <path id="Trazado_2081" data-name="Trazado 2081" d="M879.092,3242.941s2.218-.677,3.048-.4a10.937,10.937,0,0,1,1.7.782s-1.239-1.763-1.7-1.836a32.509,32.509,0,0,0-3.247.233s-.3.784.2,1.219Z" fill="#242638"/>
      <path id="Trazado_2082" data-name="Trazado 2082" d="M881.21,3245.85c.038-1.117-.371-2.037-.9-2.054s-.992.873-1.016,1.989.371,2.036.9,2.055.992-.874,1.016-1.99Z" fill="#242638"/>
      <path id="Trazado_2083" data-name="Trazado 2083" d="M879.451,3249.484c-.037-.586.855-1.123,1.995-1.2s2.094.341,2.131.928-.855,1.123-2,1.2-2.094-.34-2.131-.928Z" fill="#f97070"/>
      <path id="Trazado_2084" data-name="Trazado 2084" d="M875.039,3250.9a.687.687,0,0,0,.149.332,4.179,4.179,0,0,0,2.007,1.375,16.412,16.412,0,0,0,1.178-4.783,2.127,2.127,0,0,0-.384-2.018,11.172,11.172,0,0,1-2.628,4.512.84.84,0,0,0-.322.582Z" fill="#fca19f"/>
      <path id="Trazado_2085" data-name="Trazado 2085" d="M885.436,3260.563s1.426,10.272,1.364,10.739a7.92,7.92,0,0,1-.893,1.7s6.643,2.569,10.831-1.8a13,13,0,0,0-.657-3.6c-.47-.792-2.627-9.381-2.627-9.381l-8.018,2.341Z" fill="#fca19f"/>
      <path id="Trazado_2086" data-name="Trazado 2086" d="M890.133,3254.354l.607,6.314-4.795,3.661c-.137-1.025-.261-1.964-.36-2.646-3.111.35-4.944.394-6.11-.033a12.521,12.521,0,0,0,10.658-7.3Z" fill="#f97070"/>
      <path id="Trazado_2087" data-name="Trazado 2087" d="M879.463,3254.518a6.252,6.252,0,0,1-1.313-.108,4.588,4.588,0,0,0-.769-.161.788.788,0,0,0-.669.265,11.468,11.468,0,0,0,.2,2.47c.025.118.05.221.075.334a.687.687,0,0,0,.458.118,3.452,3.452,0,0,0,2.194-.934,4.289,4.289,0,0,0,1.2-2.1v-.166a2.243,2.243,0,0,1-1.376.283Z" fill="#e03d3d"/>
      <path id="Trazado_2088" data-name="Trazado 2088" d="M876.762,3255.877l-.087-.135.149-.1a4.615,4.615,0,0,0,3.99-1.464l.161-.021.025.175a4.842,4.842,0,0,1-4.214,1.555l-.024-.005Z" fill="#333"/>
      <path id="Trazado_2089" data-name="Trazado 2089" d="M898.411,3269.883l-2.305-5.2-10.013,2.5-.582,3.658-5.007,4.815-3.47,48.526,20.026,1.734,4.82-54.5-3.47-1.541Z" fill="#fff"/>
      <path id="Trazado_2090" data-name="Trazado 2090" d="M908.623,3319.952l-33.126.192-7.125,46.987s20.794,6.355,41.205,3.466l-.954-50.645Z" fill="#242638"/>
      <path id="Trazado_2091" data-name="Trazado 2091" d="M898.411,3269.883l-4.424,40.44-5.973.77.323,10.656,5.068.321-2.888,36.78,25.033,1.541-.967-37.166s7.585-.257,8.353-2.183-8.923-45.573-8.923-45.573l-15.6-5.586Z" fill="#5e71c7"/>
      <path id="Trazado_2092" data-name="Trazado 2092" d="M885.511,3270.846l-7.7,86.271-8.092-.384-1.735,5.776-9.244-3.466,9.629-38.128,2.888-41.787,14.251-8.281Z" fill="#5e71c7"/>
      <path id="Trazado_2093" data-name="Trazado 2093" d="M893.987,3310.323l20.349-2.247m-5.912.642-3.457-18.1m9.046-15.148s-6.741,1.026-8.278,9.756m2.181-12.068-12.231,23.6m5.043-9.862,3.334,10.4-4.882,12.452m-29.457,46.988-2.888-.258,5.515-37.23.905-21.568,1.412-11.81m3.594-10.784,4.846,20.387m-1.9-8.448-5.006,13.352,4.362,23.493m12.839-1.8,21.178,1.155" fill="none" stroke="#242638" stroke-miterlimit="10" stroke-width="0.311"/>
      <path id="Trazado_2094" data-name="Trazado 2094" d="M889.551,3313.757a.935.935,0,1,1,.929.932.934.934,0,0,1-.929-.932Z" fill="#242638"/>
      <path id="Trazado_2095" data-name="Trazado 2095" d="M860.8,3357.213a.93.93,0,1,1,.93.931.925.925,0,0,1-.93-.931Z" fill="#242638"/>
      <path id="Trazado_2096" data-name="Trazado 2096" d="M894.632,3331.5a1.728,1.728,0,1,1,1.722,1.734,1.725,1.725,0,0,1-1.722-1.734Z" fill="#242638"/>
      <path id="Trazado_2097" data-name="Trazado 2097" d="M893.925,3342.546a1.729,1.729,0,1,1,1.723,1.733,1.727,1.727,0,0,1-1.723-1.733Z" fill="#242638"/>
      <path id="Trazado_2098" data-name="Trazado 2098" d="M913.307,3336.192l-12.516-.064v3.914h12.454a31.2,31.2,0,0,0,.062-3.85Zm-43.014-3.466,6.741.577-.508,3.338-6.617-.642" fill="none" stroke="#242638" stroke-miterlimit="10" stroke-width="0.311"/>
      <path id="Trazado_2099" data-name="Trazado 2099" d="M870.219,3322.85l-1.9-20.966,12.616-.272-1.463,21.238Z" fill="#242638"/>
      <path id="Trazado_2100" data-name="Trazado 2100" d="M869.587,3315.816l-.657-7.205h11.525l-.5,7.205Z" fill="#fff"/>
      <path id="Trazado_2101" data-name="Trazado 2101" d="M866.959,3300.069H882.3v2.813H866.959v-2.813Z" fill="#fff0b3"/>
      <path id="Trazado_2102" data-name="Trazado 2102" d="M868.818,3300.8H880.43v-3.086H868.818v3.086Z" fill="#fff0b3"/>
      <path id="Trazado_2103" data-name="Trazado 2103" d="M871.259,3279.127a6.4,6.4,0,0,1,2.987,4.429" fill="none" stroke="#242638" stroke-miterlimit="10" stroke-width="0.311"/>
      <path id="Trazado_2104" data-name="Trazado 2104" d="M888.014,3312.537l-3.346-.151a46.949,46.949,0,0,0-3.73-5.241c-.434-.481-.582,2.071-.582,2.071l-.384,2.744-4.5.514L869.1,3310l-.161-.927s-.632,2.253-.285,2.784a16.819,16.819,0,0,1,.979,2.121l.88,4.775,5.663,2.211,7.064-2.123h5.044l-.273-6.3Z" fill="#fca19f"/>
      <path id="Trazado_2105" data-name="Trazado 2105" d="M905.735,3245.4c-.768-2.908-1.127-5.921-2.131-8.758a7.048,7.048,0,0,0-1.388-2.563,6.771,6.771,0,0,0-2.6-1.559,25.929,25.929,0,0,0-9.3-1.258c-3.668.035-7.7.532-10.2,3.221a43.834,43.834,0,0,0,4.771,11.694,11.173,11.173,0,0,0,2.206,2.852,10.726,10.726,0,0,1,1.4,1.221,5.567,5.567,0,0,1,.918,2.16,64.915,64.915,0,0,1,2.019,17.886,6.836,6.836,0,0,0,1.054-2.3,9.648,9.648,0,0,1,.136,2.232l8.018-1.334a.891.891,0,0,0,.5-.184.914.914,0,0,0,.211-.567,9.887,9.887,0,0,0-.025-2.485c.272,1.1.544,2.206.83,3.307a22.178,22.178,0,0,0,10.038-1.924,16.013,16.013,0,0,0-1.054-4.425,7.787,7.787,0,0,1,2.218,3.544c.434.145.893-.275.967-.73a2.3,2.3,0,0,0-.31-1.326c-2.825-6.219-6.543-12.1-8.278-18.705Z" fill="#242638"/>
      <path id="Trazado_2106" data-name="Trazado 2106" d="M875.832,3249.638a17.336,17.336,0,0,0,11.005-1.159l.148.5a24.155,24.155,0,0,1-3.308,1.258s.83,5.715,2.218,7.223a19.482,19.482,0,0,0,4.114-2.6l.062.468a11.194,11.194,0,0,1-8.538,6.6s-4.635,1.768-6.606-9.453a3.089,3.089,0,0,1,.558-2.361l.347-.483Z" fill="#d0dcff"/>
      <path id="Trazado_2107" data-name="Trazado 2107" d="M891.013,3250.1a2.939,2.939,0,0,1-.57.846,2.273,2.273,0,0,1-2.342.823,2.013,2.013,0,0,1-1.091-1.214,5.356,5.356,0,0,1-.235-1.665.932.932,0,0,1,.062-.413.815.815,0,0,1,.248-.289,3.8,3.8,0,0,1,1.611-.938,2.106,2.106,0,0,1,2.007.725,2.155,2.155,0,0,1,.31,2.125Z" fill="#fca19f"/>
      <path id="Trazado_2108" data-name="Trazado 2108" d="M1212,3345.231a3.11,3.11,0,0,1,.608,1.174,2.5,2.5,0,0,1-1.215,2.27,12.875,12.875,0,0,1-5.192,1.84,2.007,2.007,0,0,0-1.8,1.27c-.484.927-.979,1.854-1.462,2.781a5.272,5.272,0,0,1-3.607-2.325c.732-2.276,1.562-4.7,3.483-6.133a11.842,11.842,0,0,1,2.193-1.192c1.475-.673,2.962-1.344,4.437-2.017a.929.929,0,0,1,.706-.112.974.974,0,0,1,.36.351l1.486,2.093Z" fill="#fca19f"/>
      <path id="Trazado_2109" data-name="Trazado 2109" d="M1180.167,3342.611s5.762,1.407,6.469,2.812,5.056,17.851,5.056,17.851l6.754-13.072,6.035,5.342s-8.29,21.506-10.533,21.787l2.391,13.776s-7.881,4.92-22.356,4.076-12.5-1.827-12.5-1.827.979-43.857,6.878-47.652,8.3-3.654,8.3-3.654l3.507.561Z" fill="#242638"/>
      <path id="Trazado_2110" data-name="Trazado 2110" d="M1181.617,3343.765l7.411,11.5s2.528,6.185.558,8.714l1.264,20.242-4.635.421s.979-30.5-10.682-41.045l6.084.17Z" fill="#fff9f8"/>
      <path id="Trazado_2111" data-name="Trazado 2111" d="M1180.936,3336.341s-.62,5.384.024,6.464c.285.468,2.417,3.622,2.417,3.622s-10.088-1.128-9.295-3.674.868-9.09.868-9.09l5.986,2.678Z" fill="#fca19f"/>
      <path id="Trazado_2112" data-name="Trazado 2112" d="M1169.063,3327.874a10.717,10.717,0,0,1-.681-6.129c1.264-6.923,8.7-6.69,14.065-4.966a6.756,6.756,0,0,1,4.5,5.312c.162,1.068.05,2.157.15,3.233a5.158,5.158,0,0,0,.52,1.919c.186.36.4.713,1.809,1.64.273.175-.892,1.382-1.2,1.338-.124-.017-.111.454-.1.765a10.69,10.69,0,0,1-.409,3.915c-1.487,4.44-5.577,2.768-9.009,1.031-3.854-1.954-7.968-4.061-9.642-8.058Z" fill="#fca19f"/>
      <path id="Trazado_2113" data-name="Trazado 2113" d="M1185.731,3323.113a3.44,3.44,0,0,0-2.28.428.945.945,0,0,0-.347.319.337.337,0,0,0,.087.407,2,2,0,0,1,1.177-.221l.794.015a1.722,1.722,0,0,0,.805-.113c.235-.12.4-.411.235-.614a.711.711,0,0,0-.471-.221Z" fill="#242638"/>
      <path id="Trazado_2114" data-name="Trazado 2114" d="M1185.223,3337.582a6.583,6.583,0,0,1-4.4-.686l-.074,1.3s-3.929-2.521-5.763-5.479l3.866-1.959s.782,5.674,6.37,6.824Z" fill="#f97070"/>
      <path id="Trazado_2115" data-name="Trazado 2115" d="M1166.387,3318.74a3.81,3.81,0,0,1,1.6-2.614,6.917,6.917,0,0,1,3.693-.912,38.92,38.92,0,0,1,12.381,1.532.946.946,0,0,1,.545.3,1.019,1.019,0,0,1,.123.577,17.814,17.814,0,0,1-4.089,10.985c-.892,1.07-1.982,2.225-1.859,3.613.05.456.223.891.273,1.347.123,1.155-.57,2.216-1.066,3.265s-.768,2.432.025,3.273c-3.024.849-6.209-.228-9.171-1.291-1.858-.672-3.73-1.343-5.589-2.015a4.605,4.605,0,0,1-1.735-.927,1.547,1.547,0,0,1-.372-1.8c.335-.575,1.116-.761,1.488-1.31.619-.9-.124-2.063-.769-2.941a4.921,4.921,0,0,1-1.152-2.8c0-1.915,1.822-3.272,3.532-4.154a4,4,0,0,0,1.772-1.387c.458-.813.248-1.818.372-2.741Z" fill="#242638"/>
      <path id="Trazado_2116" data-name="Trazado 2116" d="M1184.356,3326.013c-.025-.8.3-1.453.718-1.466s.794.619.819,1.415-.3,1.452-.719,1.466-.794-.618-.818-1.415Z" fill="#242638"/>
      <path id="Trazado_2117" data-name="Trazado 2117" d="M1174.12,3341.769a46.565,46.565,0,0,1,4.126,4.872c1.314,1.968,7.213,21.272,7.783,33.361s.842,14.994.842,14.994l-9.282-.469,3.941-34.673-9.653-16.117,2.243-1.968Z" fill="#242638"/>
      <path id="Trazado_2118" data-name="Trazado 2118" d="M1184.43,3370.912h-28.676v34.11h28.676v-34.11Z" fill="#fff"/>
      <path id="Trazado_2119" data-name="Trazado 2119" d="M1184.43,3374.942h-28.676v3.092h28.676v-3.092Z" fill="#5e71c7"/>
      <path id="Trazado_2120" data-name="Trazado 2120" d="M1184.43,3381.97h-28.676v3.093h28.676v-3.093Z" fill="#5e71c7"/>
      <path id="Trazado_2121" data-name="Trazado 2121" d="M1184.43,3389.186h-28.676v3.092h28.676v-3.092Z" fill="#5e71c7"/>
      <path id="Trazado_2122" data-name="Trazado 2122" d="M1184.43,3396.214h-28.676v3.093h28.676v-3.093Z" fill="#5e71c7"/>
      <path id="Trazado_2123" data-name="Trazado 2123" d="M1161.181,3372.523l-1.1-.223c.57-2.823,5.737-27.579,11.513-27.579,5.8,0,10.075,24.773,10.533,27.6l-1.1.183c-1.71-10.307-5.787-26.659-9.43-26.659s-8.328,16.365-10.411,26.679Z" fill="#fff"/>
      <path id="Trazado_2124" data-name="Trazado 2124" d="M1173.017,3396.731q.335,3.53.557,7.071a19.453,19.453,0,0,1-.545,7.386,14.751,14.751,0,0,1-.917-4.879,18.794,18.794,0,0,0-.545,5.938,1.667,1.667,0,0,1-.285,1.362c-.335.335-1.115.02-.93-.42.236.4-.446.834-.83.584a1.389,1.389,0,0,1-.471-1.254,1.48,1.48,0,0,1-.954,1.309,10.027,10.027,0,0,1-.954-6.642,12.409,12.409,0,0,0-.57,3.754c0,.394-.186.953-.558.845-.248-.072-.31-.393-.322-.652a13.64,13.64,0,0,1,.087-3.024,22.723,22.723,0,0,1,1.226-3.752,17.809,17.809,0,0,0,.979-6.028c1-.477,1.673-1.186,2.677-1.663.645-.3,2.28-.641,2.355.065Z" fill="#fca19f"/>
      <path id="Trazado_2125" data-name="Trazado 2125" d="M1180.142,3327.3l-.05-.261,3.99-.721.05.263-3.99.72Z" fill="#242638"/>
      <line id="Línea_4" data-name="Línea 4" x1="2.256" y1="14.057" transform="translate(1191.692 3363.274)" fill="none" stroke="#333" stroke-linecap="round" stroke-miterlimit="10" stroke-width="0.214"/>
      <path id="Trazado_2126" data-name="Trazado 2126" d="M1184.219,3316.886a12.78,12.78,0,0,1-.979,3.928,10.437,10.437,0,0,1-2.354,4.119c-.719.678-1.611,1.149-2.392,1.765a3.63,3.63,0,0,0-1.537,2.441c-.086,1.189.744,2.309.62,3.5a4.127,4.127,0,0,1-1.115,2.117,6.883,6.883,0,0,0-1.4,1.976,1.919,1.919,0,0,0,.495,2.208m7.683-22.22a8.318,8.318,0,0,1-2.044,4.919,35.944,35.944,0,0,1-3.953,3.3,6.47,6.47,0,0,0-2.578,4.287c-.05.97.247,1.987-.124,2.886a5.379,5.379,0,0,1-1.4,1.663,5.1,5.1,0,0,0-1.6,2.733,2.682,2.682,0,0,0,1.19,2.776" fill="none" stroke="#fff9f8" stroke-linecap="round" stroke-linejoin="round" stroke-width="0.227"/>
      <path id="Trazado_2127" data-name="Trazado 2127" d="M1170.687,3315.521a5.881,5.881,0,0,0-3.049.818,3.737,3.737,0,0,0-1.759,2.554,8.987,8.987,0,0,1-.211,1.644c-.372.966-1.462,1.387-2.392,1.855a7.071,7.071,0,0,0-3.147,2.953,4.6,4.6,0,0,0-.062,4.215c.247.457.582.861.817,1.325a1.7,1.7,0,0,1,.112,1.5c-.21.434-.669.686-.979,1.058a3.647,3.647,0,0,0-.483,2.621" fill="none" stroke="#242638" stroke-linecap="round" stroke-linejoin="round" stroke-width="0.271"/>
      <path id="Trazado_2128" data-name="Trazado 2128" d="M1209.116,3351.209l4.4-13.634-6.841-.234-4.4,12.369,6.841,1.5Z" fill="#333"/>
      <path id="Trazado_2129" data-name="Trazado 2129" d="M1209.079,3350.132l3.928-12.158-6.109-.208-3.916,11.029,6.1,1.337Z" fill="#fff9f8"/>
      <path id="Trazado_2130" data-name="Trazado 2130" d="M1207.121,3338.57l4.25.211m-4.25,1.241,4.25.212m-5.564,1.1,4.251.211" fill="none" stroke="#c3e6ff" stroke-linecap="round" stroke-linejoin="round" stroke-width="0.227"/>
      <path id="Trazado_2131" data-name="Trazado 2131" d="M1201.693,3345.9a5.251,5.251,0,0,1,1.041-1.978,5.5,5.5,0,0,1,2.057-1.19c.421-.17.855-.337,1.276-.5.124-.045.273-.081.348.016l.037.165a1.654,1.654,0,0,1-.67,1.2c-.371.3-.793.526-1.152.837a7.456,7.456,0,0,0-1.041,1.233,14.835,14.835,0,0,1-2.577,2.652c.2-.821.421-1.631.681-2.43Z" fill="#fca19f"/>
      <path id="Trazado_2132" data-name="Trazado 2132" d="M1210.839,3342.033c-.422-.247-.843-.494-1.277-.74a4.465,4.465,0,0,0,.409,2.625,4.309,4.309,0,0,1,.843,2.189c-.038.419-.26.884-.013,1.23a.887.887,0,0,0,.769.3,4.357,4.357,0,0,1,.867-.014,11.577,11.577,0,0,0,.36-4.885,2.214,2.214,0,0,0-.124-.636,1.812,1.812,0,0,0-.373-.5,6.134,6.134,0,0,0-1.994-1.648.332.332,0,0,0-.372.006l-.012.336a6.171,6.171,0,0,0,.917,1.74Z" fill="#fca19f"/>
      <path id="Trazado_2133" data-name="Trazado 2133" d="M1188.111,3331.682s.495-.456.037-.754-3.21.7-3.21.7a3.158,3.158,0,0,0,2.875,2.916.531.531,0,0,0,.137-.772c-.31-.474.161-2.092.161-2.092Z" fill="#f97070"/>
      <path id="Trazado_2134" data-name="Trazado 2134" d="M1188.148,3331.63a3.15,3.15,0,0,1-.657.047l-2.367-.1-.186.049-.012.123a1.5,1.5,0,0,0,.136.39,3.679,3.679,0,0,0,2.912,1.789,9.541,9.541,0,0,0,.174-2.3Z" fill="#fff9f8"/>
      <path id="Trazado_2135" data-name="Trazado 2135" d="M1179.337,3327.981s6.122,1.07,8.86-.187l1.091.937a.7.7,0,0,1,.235.6c-.222,1.616-1.251,8.024-3.73,8.431-6.084,1-7.695-8.065-7.695-8.065l.632.1s.805,3.442,2.986,3.938a10.686,10.686,0,0,0,.657-4.576l-3.854-.909.818-.277Z" fill="#5e71c7"/>
      <path id="Trazado_2136" data-name="Trazado 2136" d="M1185.5,3323.453c-.645,0-1.19,1.178-1.19,2.572s.545,2.573,1.19,2.573,1.177-1.179,1.177-2.573-.532-2.572-1.177-2.572Zm0,5.41c-.818,0-1.45-1.247-1.45-2.838s.632-2.839,1.45-2.839,1.449,1.247,1.449,2.839-.643,2.838-1.449,2.838Z" fill="#242638"/>
      <path id="Trazado_2137" data-name="Trazado 2137" d="M1177.961,3329.664a1.768,1.768,0,0,0,.347.566,1.5,1.5,0,0,0,1.5.612,1.276,1.276,0,0,0,.756-.747,3.172,3.172,0,0,0,.211-1.07l-.025-.269-.161-.2a2.4,2.4,0,0,0-1.029-.663,1.362,1.362,0,0,0-1.326.4,1.347,1.347,0,0,0-.273,1.366Z" fill="#fca19f"/>
      <path id="Trazado_2138" data-name="Trazado 2138" d="M1174.838,3363.117s-1.784,19-1.784,19.563.892,17.885.892,17.885l-6.481.336s-3.359-17.551-3.247-21.016.669-18.779.669-18.779l9.951,2.011Z" fill="#242638"/>
      <path id="Trazado_2139" data-name="Trazado 2139" d="M1186.945,3326.025l.286-.056-.074-.4-.409.105.2.348Z" fill="#242638"/>
      <path id="Trazado_2140" data-name="Trazado 2140" d="M965.194,3219.6s-31.353,16.414-39.928,10.044-6.11-14.432,20.348-49.71l8.278,2.316-13.247,29.607,18.192-8.427,6.357,16.17Z" fill="#fca19f"/>
      <path id="Trazado_2141" data-name="Trazado 2141" d="M945.465,3180.064s5.714-9.653,7.213-10.583,4.325-.123,4.325-.123a19.8,19.8,0,0,0,4.152.554c1.449-.087,4.622-.2,5.044,1.047s-1.562,5.062-1.562,5.062a8.342,8.342,0,0,1,3.024-1c.979.09-.137,5.4-16.495,10.534l-5.7-5.491Z" fill="#fca19f"/>
      <path id="Trazado_2142" data-name="Trazado 2142" d="M954.166,3171.291s-.719,6.632.334,6.889,1.76-3.713,1.76-3.713-.583,5.016.508,4.987,2.255-5.06,2.255-5.06-.843,4.118-.173,4.387,3.854-5.626,3.854-5.626-1.6,4.233-.93,4.739,4.2-3.682,4.362-6.5m-25.491,40.455s-3.966,7.583-4.325,8.184" fill="none" stroke="#f97070" stroke-linecap="round" stroke-linejoin="round" stroke-width="0.307"/>
      <path id="Trazado_2143" data-name="Trazado 2143" d="M1031.37,3308.2l-16.543-17.405-18.056.218m-1.3,29.805-1.3-2.61-.223-27.2-16.321.435-8.7,13.489" fill="none" stroke="#d0dcff" stroke-linecap="round" stroke-linejoin="bevel" stroke-width="0.57"/>
      <path id="Trazado_2144" data-name="Trazado 2144" d="M983.61,3189.408s-8.737,1.838-12.814,2.347-23.781,17.15-25.814,17.15l7.944,20.039s10.112-3.972,11.017-3.727c4.2,1.138,8.823,40.42,8.823,40.42l-4.758,31.25s22.5,20.295,67.6-.34l-1.364-49.253.769-14.264s3.693-41.177-6.754-42.96-32.481-.858-32.481-.858l-12.169.2Z" fill="#242638"/>
      <path id="Trazado_2145" data-name="Trazado 2145" d="M1040.342,3205.524l19.469,39.94a5.586,5.586,0,0,1,.05,4.789c-1.388,2.968-4.251,7.486-8.848,7.853-6.9.549-49.732-17.419-49.732-17.419l4.623-8,31.34,5.223-16.4-19.366,19.493-13.025Z" fill="#fca19f"/>
      <path id="Trazado_2146" data-name="Trazado 2146" d="M945.85,3155.936l11.413,3.032a.435.435,0,1,0,.223-.84l-11.413-3.032a.44.44,0,0,0-.533.307.456.456,0,0,0,.31.533Z" fill="#242638"/>
      <path id="Trazado_2147" data-name="Trazado 2147" d="M952.021,3145.485l9.084,7.54a.436.436,0,0,0,.558-.67l-9.084-7.539a.444.444,0,0,0-.62.057.439.439,0,0,0,.062.612Z" fill="#242638"/>
      <path id="Trazado_2148" data-name="Trazado 2148" d="M945.379,3165.68l11.8-.244a.449.449,0,0,0,.433-.444.444.444,0,0,0-.446-.425l-11.81.243a.435.435,0,0,0,.025.87Z" fill="#242638"/>
      <path id="Trazado_2149" data-name="Trazado 2149" d="M1009.795,3234.025s-3.9-5.477-6.679-7.9-10.608-7.705-12.009-7.2,6.693,7.3,6.011,8.068-16.172-5.252-16.631-4,8.551,5.537,8.551,5.537-9.692-3.513-9.951-2.795,9.269,5.8,9.269,5.8-9.406-2.6-9.319-1.149S990.6,3236,990.6,3236s-7.473-.678-7.795.219,22.679,5.785,22.679,5.785l4.312-7.979Z" fill="#fca19f"/>
      <path id="Trazado_2150" data-name="Trazado 2150" d="M1030.552,3191.273l15.763,22.748-19.369,14.8-12.827-15.586,16.433-21.964Z" fill="#242638"/>
      <path id="Trazado_2151" data-name="Trazado 2151" d="M1037.6,3237.794c10.063,1.34,9.158,1.251,13.26,2.546" fill="none" stroke="#f97070" stroke-linecap="round" stroke-linejoin="round" stroke-width="0.308"/>
      <path id="Trazado_2152" data-name="Trazado 2152" d="M1009.25,3189.227a43.719,43.719,0,0,1-5.23-3.249c-3.073-2.527-6.865-15.526-6.865-15.526l-17.152,5.6s2.714,12.636,1.81,13.359-1.091,7.221,6.853,8.3,20.584-8.485,20.584-8.485Z" fill="#fca19f"/>
      <path id="Trazado_2153" data-name="Trazado 2153" d="M996.882,3169.55s.545,1.6.88,2.469c-2.181,18.472-12.851,16.612-15.738,15.882-.224-3.595-1.959-11.7-1.959-11.7l16.817-6.649Z" fill="#f97070"/>
      <g id="Grupo_9752" data-name="Grupo 9752">
        <path id="SVGID" d="M972.927,3144.7a18.559,18.559,0,0,1,8.229-4.585c5.131-1.388,10.273-.661,14.214,3.088a15.964,15.964,0,0,1,4.6,10.9,29.2,29.2,0,0,1-1.128,9.614q-.911,3.009-1.8,6.017c-1.871,7.138-5.7,11.64-12.182,12.68-3.928.628-7.807.3-10.421-2.984-4.3-5.428-5.528-16.644-5.553-23.817-.012-4.144,1.042-7.917,4.04-10.908Z" fill="#fca19f"/>
      </g>
      <path id="Trazado_2154" data-name="Trazado 2154" d="M982.036,3170.446a1.753,1.753,0,0,0-1.239-.453c-.2-.025-.409-.049-.595-.091a2.776,2.776,0,0,1-1.363-.751.854.854,0,0,1-.2-.285.924.924,0,0,1,.1-.762c.855-1.941,1.748-3.948,1.6-6.027l.384-.027c.161,2.175-.756,4.226-1.635,6.209a.684.684,0,0,0-.1.464l.124.16a2.416,2.416,0,0,0,1.165.645c.186.038.372.062.57.084a2.046,2.046,0,0,1,1.487.595l-.3.239Z" fill="#242638"/>
      <path id="Trazado_2155" data-name="Trazado 2155" d="M997.341,3163.192s-4.474-4.343-5.7-13.791c0,0-4.288-1-7.014-.44s-5.75,3.232-11.24,3.521a9.893,9.893,0,0,1-8.291-3.553,15.86,15.86,0,0,0,1.735-.154,33.467,33.467,0,0,1-4.027-4.807s1.388.134,6.568-1.152a10.524,10.524,0,0,1-2.665-2.655,29.037,29.037,0,0,0,9.592-.9c5.267-1.38,12.17-3.095,15.726-1.115s3.755,2.433,3.755,2.433-1.512-3.8-3.085-4.474c0,0,3.8,1.239,4.387,4.885a27.942,27.942,0,0,1,3.221.343c1.116.235-2.552.459-2.552.459s7.3,9.272,1.127,23.8l-1.536-2.4Z" fill="#242638"/>
      <path id="Trazado_2156" data-name="Trazado 2156" d="M977.847,3175.086a.964.964,0,0,1-.272-.426,1.841,1.841,0,0,1,.248-1.68,1.869,1.869,0,0,1,1.536-.733,9.225,9.225,0,0,1,1.388.316,5.511,5.511,0,0,0,2.578-.29,5.223,5.223,0,0,1,3.371-.283,2.722,2.722,0,0,1,1.177.964,1.756,1.756,0,0,1,.3,1.635,2.1,2.1,0,0,1-.943.913,3.226,3.226,0,0,1-.991.412,4.656,4.656,0,0,1-2.367-.47,5.01,5.01,0,0,0-2.293-.357c-.4.052-.78.185-1.177.264a4.707,4.707,0,0,1-2.069-.049,1.2,1.2,0,0,1-.484-.216Z" fill="#242638"/>
      <path id="Trazado_2157" data-name="Trazado 2157" d="M989.5,3159.62l-4.015,2.066,4.473.063m-17.547-1.276,4.276,1.455-4.425.721" fill="none" stroke="#242638" stroke-linecap="round" stroke-linejoin="round" stroke-width="0.291"/>
      <path id="Trazado_2158" data-name="Trazado 2158" d="M996.139,3161.689s2.3-2.466,4.1-1.47,2.416,5.916-2.925,7.079a9.045,9.045,0,0,1-1.177-5.609Z" fill="#fd9997"/>
      <path id="Trazado_2159" data-name="Trazado 2159" d="M969.817,3162.56s-2.293-1.587-3.235-.282.087,5.739,4.077,5.448a10.131,10.131,0,0,0-.842-5.166Z" fill="#fc9e9c"/>
      <path id="Trazado_2160" data-name="Trazado 2160" d="M995.779,3140.583s-2.838-4.032-7.113-5.2-12.244.883-15.454.026a14.335,14.335,0,0,0,7.634,3.611,54.761,54.761,0,0,1,9.1,2.411l5.837-.845Z" fill="#242638"/>
      <path id="Trazado_2161" data-name="Trazado 2161" d="M970.536,3151.837a92.82,92.82,0,0,0-1.277,10.423s-1.822-9.663-.682-12.413,1.959,1.99,1.959,1.99Z" fill="#242638"/>
      <path id="Trazado_2162" data-name="Trazado 2162" d="M991.442,3157.031c.446.827-1.264.694-2.342.5s-3.321.649-4.214.622-1.3-1.836.162-2.243,5.192-1.069,6.394,1.124Z" fill="#242638"/>
      <path id="Trazado_2163" data-name="Trazado 2163" d="M971.465,3157.75c-.4.856,1.314.6,2.355.327s3.37.409,4.25.319,1.178-1.926-.31-2.226-5.266-.694-6.295,1.58Z" fill="#242638"/>
      <path id="Trazado_2164" data-name="Trazado 2164" d="M988.6,3152.293a7.559,7.559,0,0,1,.768-2.181,5.838,5.838,0,0,1,.768,2.181.762.762,0,0,1-.768.768.77.77,0,0,1-.768-.768Z" fill="#ebf1ff"/>
      <path id="Trazado_2165" data-name="Trazado 2165" d="M971.056,3155.426a6.275,6.275,0,0,1,.682-1.914,5.441,5.441,0,0,1,.669,1.914.67.67,0,0,1-.669.674.681.681,0,0,1-.682-.674Z" fill="#ebf1ff"/>
      <path id="Trazado_2166" data-name="Trazado 2166" d="M994.144,3168.3a5.415,5.415,0,0,1,.557-1.583,4.271,4.271,0,0,1,.558,1.583.557.557,0,0,1-1.115,0Z" fill="#ebf1ff"/>
      <path id="Trazado_2167" data-name="Trazado 2167" d="M992.458,3159.657a4.506,4.506,0,0,1,.434-1.24,3.313,3.313,0,0,1,.446,1.24.44.44,0,0,1-.88,0Z" fill="#ebf1ff"/>
      <path id="Trazado_2168" data-name="Trazado 2168" d="M977.823,3172.98a1.869,1.869,0,0,1,1.536-.733,9.225,9.225,0,0,1,1.388.316,5.511,5.511,0,0,0,2.578-.29,5.223,5.223,0,0,1,3.371-.283,2.47,2.47,0,0,1,.632.381,10.115,10.115,0,0,1-9.505.609Z" fill="#fff"/>
      <path id="Trazado_2169" data-name="Trazado 2169" d="M985.469,3162.96a6.71,6.71,0,0,0,3.966,1.4m-12.232-1.58a6.272,6.272,0,0,1-4.015,1.851" fill="none" stroke="#dd5b5b" stroke-linecap="round" stroke-linejoin="round" stroke-width="0.291"/>
      <path id="Trazado_2170" data-name="Trazado 2170" d="M988.158,3220.654l-14.97-12.987,6.407.97-9.641-10.127,16.346,13.357-6.234-.447,8.093,9.235Z" fill="#fff"/>
      <path id="Trazado_2171" data-name="Trazado 2171" d="M975.926,3224.2l-11.822-6.883,4.461-.165-7.832-5.629,12.8,6.955-4.287.5,6.679,5.222Z" fill="#fff"/>
      <path id="Trazado_2172" data-name="Trazado 2172" d="M992.991,3216.808l7.622-11.36-4.09,1.8,4.585-8.489-8.476,11.855,4.077-1.427-3.718,7.616Z" fill="#fff"/>
    </g>
  </g>
</svg>
