<svg xmlns="http://www.w3.org/2000/svg" xmlns:xlink="http://www.w3.org/1999/xlink" width="260.635" height="260.63" viewBox="0 0 260.635 260.63">
  <defs>
    <clipPath id="clip-path">
      <path id="Trazado_2416" data-name="Trazado 2416" d="M2139.683,5004.265A130.318,130.318,0,1,1,2270,5134.585a130.316,130.316,0,0,1-130.32-130.32" fill="#9bd7f5"/>
    </clipPath>
    <clipPath id="clip-path-2">
      <path id="Trazado_2429" data-name="Trazado 2429" d="M2139.683,5004.265A130.318,130.318,0,1,1,2270,5134.585a130.316,130.316,0,0,1-130.32-130.32" fill="none"/>
    </clipPath>
  </defs>
  <g id="Grupo_10045" data-name="Grupo 10045" transform="translate(4741.218 -1713.955)">
    <g id="Grupo_9779" data-name="Grupo 9779" transform="translate(-6880.901 -3160)">
      <g id="Grupo_9775" data-name="Grupo 9775">
        <g id="Grupo_9774" data-name="Grupo 9774" clip-path="url(#clip-path)">
          <path id="Trazado_2402" data-name="Trazado 2402" d="M2113.173,5007.615a157.757,157.757,0,1,1,157.76,157.76,157.756,157.756,0,0,1-157.76-157.76Z" fill="#9bd7f5"/>
          <path id="Trazado_2403" data-name="Trazado 2403" d="M2318.333,5025.255s47.253,24.73,60.174,15.13,9.212-21.75-30.659-74.91l-12.465,3.49,19.947,44.62-27.4-12.7-9.6,24.37Z" fill="#fca19f"/>
          <path id="Trazado_2404" data-name="Trazado 2404" d="M2348.067,4965.675s-8.6-14.54-10.874-15.94-6.5-.19-6.5-.19a29.765,29.765,0,0,1-6.26.84c-2.19-.13-6.96-.3-7.6,1.57s2.34,7.63,2.34,7.63-3.08-1.64-4.55-1.5.2,8.13,24.85,15.87l8.594-8.28Z" fill="#fca19f"/>
          <path id="Trazado_2405" data-name="Trazado 2405" d="M2316.923,4952.625c.25,4.24,5.54,10.55,6.56,9.79s-1.39-7.15-1.39-7.15,4.79,8.89,5.81,8.48-.26-6.61-.26-6.61,1.74,7.58,3.39,7.63.77-7.52.77-7.52,1.06,5.99,2.65,5.6.51-10.38.51-10.38m26.9,73.45c-.544-.9-6.529-12.33-6.529-12.33" fill="none" stroke="#f97070" stroke-linecap="round" stroke-linejoin="round" stroke-width="0.574"/>
          <path id="Trazado_2406" data-name="Trazado 2406" d="M2290.583,4979.765s21.76,5.23,31.62,7.65c6.01,1.48,27.627,23.63,30.7,23.63l-16.068,28.29s-15.24-5.98-16.6-5.61c-6.33,1.71-13.31,60.91-13.31,60.91l7.17,47.09s-33.91,30.58-101.86-.51l2.05-74.22-1.15-21.5s-9.36-61.53,6.38-64.22,52.74-1.81,52.74-1.81l18.33.3Z" fill="#242638"/>
          <path id="Trazado_2407" data-name="Trazado 2407" d="M2205.1,5004.045l-29.33,60.19a8.324,8.324,0,0,0-.08,7.21c2.09,4.48,6.4,11.28,13.33,11.84,10.4.83,74.93-26.25,74.93-26.25l-6.96-12.05-47.22,7.87,24.7-29.18-29.37-19.63Z" fill="#fca19f"/>
          <path id="Trazado_2408" data-name="Trazado 2408" d="M2347.484,4929.325l-17.191,4.57a.658.658,0,0,1-.8-.47.644.644,0,0,1,.46-.8l17.194-4.57a.655.655,0,0,1,.8.46.669.669,0,0,1-.465.81Z" fill="#242638"/>
          <path id="Trazado_2409" data-name="Trazado 2409" d="M2338.193,4913.575l-13.69,11.36a.654.654,0,1,1-.83-1.01l13.69-11.36a.654.654,0,1,1,.83,1.01Z" fill="#242638"/>
          <path id="Trazado_2410" data-name="Trazado 2410" d="M2348.208,4944l-17.785-.37a.657.657,0,0,1-.64-.67.642.642,0,0,1,.66-.64l17.792.37a.655.655,0,0,1-.027,1.31Z" fill="#242638"/>
          <path id="Trazado_2411" data-name="Trazado 2411" d="M2251.133,5047s5.88-8.25,10.07-11.91,15.98-11.61,18.09-10.85-10.08,11.01-9.05,12.16,24.36-7.91,25.05-6.02-12.89,8.34-12.89,8.34,14.6-5.29,15-4.21-13.97,8.74-13.97,8.74,14.18-3.92,14.06-1.74-17.44,8.47-17.44,8.47,11.26-1.03,11.75.33-34.17,8.71-34.17,8.71l-6.5-12.02Z" fill="#fca19f"/>
          <path id="Trazado_2412" data-name="Trazado 2412" d="M2214.423,4985.325l-20.86,39.35,31.67,20.37,19.37-29.37-30.18-30.35Z" fill="#242638"/>
          <path id="Trazado_2413" data-name="Trazado 2413" d="M2209.233,5052.675c-15.17,2.02-13.8,1.88-19.99,3.84" fill="none" stroke="#f97070" stroke-linecap="round" stroke-linejoin="round" stroke-width="0.575"/>
          <path id="Trazado_2414" data-name="Trazado 2414" d="M2251.953,4979.485a66.941,66.941,0,0,0,7.89-4.89c4.62-3.81,10.34-23.4,10.34-23.4l25.84,8.43s-4.08,19.05-2.72,20.14,1.63,10.88-10.34,12.51-31.01-12.79-31.01-12.79Z" fill="#fca19f"/>
          <path id="Trazado_2415" data-name="Trazado 2415" d="M2270.583,4949.835s-.81,2.42-1.32,3.72c3.3,27.84,19.36,25.03,23.71,23.93.34-5.41,2.96-17.63,2.96-17.63l-25.35-10.02Z" fill="#f97070"/>
        </g>
      </g>
      <g id="Grupo_9776" data-name="Grupo 9776">
        <path id="Trazado_2417" data-name="Trazado 2417" d="M2306.683,4912.4a27.869,27.869,0,0,0-12.4-6.91c-7.73-2.09-15.47-1-21.41,4.65-4.89,4.64-6.6,10.81-6.94,16.42a43.758,43.758,0,0,0,1.71,14.49q1.35,4.53,2.71,9.06c2.82,10.76,8.58,17.55,18.36,19.11,5.91.95,11.76.45,15.69-4.5,6.5-8.17,8.34-25.08,8.37-35.89.02-6.24-1.57-11.93-6.09-16.43Z" fill="#fca19f"/>
      </g>
      <g id="Grupo_9778" data-name="Grupo 9778">
        <g id="Grupo_9777" data-name="Grupo 9777" clip-path="url(#clip-path-2)">
          <path id="Trazado_2418" data-name="Trazado 2418" d="M2269.893,4940.255s6.76-6.54,8.6-20.78c0,0,6.45-1.5,10.57-.67s8.67,4.88,16.94,5.31a14.913,14.913,0,0,0,12.49-5.35,24.857,24.857,0,0,1-2.61-.23,51.653,51.653,0,0,0,6.06-7.25s-2.08.2-9.89-1.74a15.955,15.955,0,0,0,4.02-4,43.684,43.684,0,0,1-14.46-1.34c-7.94-2.09-18.35-4.67-23.71-1.69s-5.66,3.67-5.66,3.67,2.28-5.72,4.67-6.74c0,0-5.74,1.86-6.62,7.36a41.126,41.126,0,0,0-4.86.52c-1.67.35,3.85.69,3.85.69s-11.01,13.97-1.71,35.86l2.32-3.62Z" fill="#242638"/>
          <path id="Trazado_2419" data-name="Trazado 2419" d="M2299.273,4958.175a1.444,1.444,0,0,0,.41-.64,2.785,2.785,0,0,0-.38-2.53,2.815,2.815,0,0,0-2.31-1.11,13.979,13.979,0,0,0-2.09.48,8.074,8.074,0,0,1-3.88-.44c-1.66-.49-3.47-1.07-5.08-.42a4,4,0,0,0-1.78,1.45,2.621,2.621,0,0,0-.44,2.47,3.2,3.2,0,0,0,1.42,1.37,4.8,4.8,0,0,0,1.5.62,7.027,7.027,0,0,0,3.56-.71,7.555,7.555,0,0,1,3.44-.54c.61.08,1.19.28,1.79.4a7.142,7.142,0,0,0,3.12-.07,1.692,1.692,0,0,0,.72-.33Z" fill="#242638"/>
          <path id="Trazado_2420" data-name="Trazado 2420" d="M2281.023,4938.085l6.75-.1-6.05-3.11m25.98,4.56-6.67-1.08,6.44-2.2m-14.63,14.38a1.239,1.239,0,0,1,.09-1.52c.22-.33.76-.23,1.16-.28a6.988,6.988,0,0,0,2.03-.42,1.827,1.827,0,0,0,1.16-1.59,2.683,2.683,0,0,0-.33-1.05,15.833,15.833,0,0,1-1.06-9.48" fill="none" stroke="#242638" stroke-linecap="round" stroke-linejoin="round" stroke-width="0.544"/>
          <path id="Trazado_2421" data-name="Trazado 2421" d="M2271.7,4938s-3.46-3.72-6.17-2.22-3.65,8.92,4.4,10.67a13.552,13.552,0,0,0,1.77-8.45Z" fill="#fd9997"/>
          <path id="Trazado_2422" data-name="Trazado 2422" d="M2311.383,4939.305s3.45-2.39,4.87-.43-.13,8.65-6.15,8.21a15.193,15.193,0,0,1,1.28-7.78Z" fill="#fc9e9c"/>
          <path id="Trazado_2423" data-name="Trazado 2423" d="M2272.243,4906.185s4.28-6.08,10.73-7.84,18.45,1.33,23.29.04c0,0-3.88,4.12-11.51,5.44a82.435,82.435,0,0,0-13.7,3.63l-8.81-1.27Z" fill="#242638"/>
          <path id="Trazado_2424" data-name="Trazado 2424" d="M2310.293,4923.145s1.82,10.34,1.93,15.7c0,0,2.73-14.56,1.02-18.7s-2.95,3-2.95,3Z" fill="#242638"/>
          <path id="Trazado_2425" data-name="Trazado 2425" d="M2278.783,4930.975c-.68,1.24,1.92,1.04,3.53.74s5.02.98,6.35.94,1.96-2.77-.23-3.38-7.84-1.61-9.65,1.7Z" fill="#242638"/>
          <path id="Trazado_2426" data-name="Trazado 2426" d="M2308.9,4932.055c.59,1.29-1.99.9-3.57.49s-5.08.62-6.4.48-1.76-2.9.47-3.35,7.94-1.05,9.5,2.38Z" fill="#242638"/>
          <path id="Trazado_2427" data-name="Trazado 2427" d="M2299.3,4955a2.815,2.815,0,0,0-2.31-1.11,13.979,13.979,0,0,0-2.09.48,8.074,8.074,0,0,1-3.88-.44c-1.66-.49-3.47-1.07-5.08-.42a3.856,3.856,0,0,0-.96.57,15.231,15.231,0,0,0,14.32.92Z" fill="#fff"/>
          <path id="Trazado_2428" data-name="Trazado 2428" d="M2281.813,4942.015c2.92.27,5.98-2.11,5.98-2.11m18.5,2.52a9.451,9.451,0,0,1-6.05-2.79" fill="none" stroke="#dd5b5b" stroke-linecap="round" stroke-linejoin="round" stroke-width="0.544"/>
        </g>
      </g>
    </g>
  </g>
</svg>
