<svg xmlns="http://www.w3.org/2000/svg" width="531" height="396.295" viewBox="0 0 531 396.295">
  <g id="Grupo_9993" data-name="Grupo 9993" transform="translate(-586.099 -688.275)">
    <g id="img7" transform="translate(-1685.901 -2386)">
      <g id="Grupo_9757" data-name="Grupo 9757">
        <path id="Trazado_2173" data-name="Trazado 2173" d="M2433.519,3104.758h-55.96a4.324,4.324,0,0,0-4.328,4.323v14.1a4.323,4.323,0,0,0,4.328,4.322h55.96a4.319,4.319,0,0,0,4.315-4.322v-14.1a4.32,4.32,0,0,0-4.315-4.323Z" fill="#ebf1ff" style="mix-blend-mode: multiply;isolation: isolate"/>
        <path id="Trazado_2174" data-name="Trazado 2174" d="M2401.667,3131.148h-55.96a4.322,4.322,0,0,0-4.328,4.323v14.1a4.323,4.323,0,0,0,4.328,4.323h55.96a4.323,4.323,0,0,0,4.327-4.323v-14.1a4.322,4.322,0,0,0-4.327-4.323Z" fill="#ebf1ff" style="mix-blend-mode: multiply;isolation: isolate"/>
        <path id="Trazado_2175" data-name="Trazado 2175" d="M2446.252,3156.626h-55.96a4.32,4.32,0,0,0-4.315,4.323v14.1a4.319,4.319,0,0,0,4.315,4.322h55.96a4.322,4.322,0,0,0,4.328-4.322v-14.1a4.323,4.323,0,0,0-4.328-4.323Z" fill="#ebf1ff"/>
        <path id="Trazado_2176" data-name="Trazado 2176" d="M2534.975,3074.275h-55.959a4.331,4.331,0,0,0-4.329,4.323v14.1a4.331,4.331,0,0,0,4.329,4.323h55.959a4.323,4.323,0,0,0,4.328-4.323v-14.1a4.324,4.324,0,0,0-4.328-4.323Z" fill="#ebf1ff" style="mix-blend-mode: multiply;isolation: isolate"/>
        <path id="Trazado_2177" data-name="Trazado 2177" d="M2736.989,3135.7h-55.96a4.322,4.322,0,0,0-4.327,4.323v14.1a4.322,4.322,0,0,0,4.327,4.322h55.96a4.33,4.33,0,0,0,4.328-4.322v-14.1a4.33,4.33,0,0,0-4.328-4.323Z" fill="#ebf1ff" style="mix-blend-mode: multiply;isolation: isolate"/>
        <path id="Trazado_2178" data-name="Trazado 2178" d="M2709,3090.654h-55.96a4.32,4.32,0,0,0-4.315,4.323v14.1a4.32,4.32,0,0,0,4.315,4.323H2709a4.323,4.323,0,0,0,4.327-4.323v-14.1a4.323,4.323,0,0,0-4.327-4.323Z" fill="#ebf1ff" style="mix-blend-mode: multiply;isolation: isolate"/>
        <path id="Trazado_2179" data-name="Trazado 2179" d="M2704.226,3190.978h-55.959a4.321,4.321,0,0,0-4.316,4.323v14.1a4.32,4.32,0,0,0,4.316,4.322h55.959a4.322,4.322,0,0,0,4.328-4.322v-14.1a4.323,4.323,0,0,0-4.328-4.323Z" fill="#ebf1ff" style="mix-blend-mode: multiply;isolation: isolate"/>
        <path id="Trazado_2180" data-name="Trazado 2180" d="M2756.781,3216.911h-55.959a4.323,4.323,0,0,0-4.328,4.323v14.105a4.322,4.322,0,0,0,4.328,4.322h55.959a4.33,4.33,0,0,0,4.328-4.322v-14.105a4.331,4.331,0,0,0-4.328-4.323Z" fill="#ebf1ff" style="mix-blend-mode: multiply;isolation: isolate"/>
        <path id="Trazado_2181" data-name="Trazado 2181" d="M2733.571,3242.846h-55.959a4.32,4.32,0,0,0-4.315,4.322v14.1a4.327,4.327,0,0,0,4.315,4.327h55.959a4.329,4.329,0,0,0,4.328-4.327v-14.1a4.323,4.323,0,0,0-4.328-4.322Z" fill="#ebf1ff" style="mix-blend-mode: multiply;isolation: isolate"/>
        <path id="Trazado_2182" data-name="Trazado 2182" d="M2750.633,3294.709h-55.96a4.327,4.327,0,0,0-4.315,4.327v14.106a4.317,4.317,0,0,0,4.315,4.315h55.96a4.319,4.319,0,0,0,4.328-4.315v-14.106a4.329,4.329,0,0,0-4.328-4.327Z" fill="#ebf1ff" style="mix-blend-mode: multiply;isolation: isolate"/>
        <path id="Trazado_2183" data-name="Trazado 2183" d="M2777.26,3324.054h-55.972a4.328,4.328,0,0,0-4.316,4.328v14.1a4.328,4.328,0,0,0,4.316,4.328h55.972a4.327,4.327,0,0,0,4.315-4.328v-14.1a4.327,4.327,0,0,0-4.315-4.328Z" fill="#ebf1ff" style="mix-blend-mode: multiply;isolation: isolate"/>
        <path id="Trazado_2184" data-name="Trazado 2184" d="M2338.423,3227.831h-55.959a4.331,4.331,0,0,0-4.328,4.323v14.1a4.331,4.331,0,0,0,4.328,4.323h55.959a4.323,4.323,0,0,0,4.328-4.323v-14.1a4.323,4.323,0,0,0-4.328-4.323Z" fill="#ebf1ff" style="mix-blend-mode: multiply;isolation: isolate"/>
        <path id="Trazado_2185" data-name="Trazado 2185" d="M2367.1,3253.766h-55.973a4.318,4.318,0,0,0-4.315,4.321V3272.2a4.316,4.316,0,0,0,4.315,4.315H2367.1a4.316,4.316,0,0,0,4.315-4.315v-14.111a4.318,4.318,0,0,0-4.315-4.321Z" fill="#ebf1ff" style="mix-blend-mode: multiply;isolation: isolate"/>
        <path id="Trazado_2186" data-name="Trazado 2186" d="M2332.287,3336.339h-55.972a4.327,4.327,0,0,0-4.315,4.328v14.1a4.328,4.328,0,0,0,4.315,4.328h55.972a4.327,4.327,0,0,0,4.315-4.328v-14.1a4.326,4.326,0,0,0-4.315-4.328Z" fill="#ebf1ff" style="mix-blend-mode: multiply;isolation: isolate"/>
        <path id="Trazado_2187" data-name="Trazado 2187" d="M2379.38,3360.908h-55.972a4.328,4.328,0,0,0-4.316,4.328v14.1a4.327,4.327,0,0,0,4.316,4.327h55.972a4.327,4.327,0,0,0,4.315-4.327v-14.1a4.327,4.327,0,0,0-4.315-4.328Z" fill="#ebf1ff" style="mix-blend-mode: multiply;isolation: isolate"/>
      </g>
      <path id="Trazado_2188" data-name="Trazado 2188" d="M2772.932,3456c0,8.045-108.777,14.567-242.958,14.567s-242.959-6.522-242.959-14.567,108.777-14.554,242.959-14.554,242.958,6.51,242.958,14.554Z" fill="#e6edff" style="mix-blend-mode: multiply;isolation: isolate"/>
      <path id="Trazado_2189" data-name="Trazado 2189" d="M2688.612,3108.595H2447.025v330.31h241.586v-330.31Z" fill="#b4c9ff"/>
      <path id="Trazado_2190" data-name="Trazado 2190" d="M2685.12,3266.96h-90.082V3277.2h23.2v111.246h-73.707l-94.859-4.777v54.588l240.227-2.045-4.777-169.251Z" fill="#97a5ff"/>
      <path id="Trazado_2191" data-name="Trazado 2191" d="M2647.406,3211.056h-52.231a1.517,1.517,0,0,0-1.5,1.722l5.512,40.735a1.509,1.509,0,0,0,1.5,1.316h52.231a1.526,1.526,0,0,0,1.509-1.723l-5.512-40.734a1.53,1.53,0,0,0-1.509-1.316Z" fill="#97a5ff"/>
      <path id="Trazado_2192" data-name="Trazado 2192" d="M2619.569,3262.557a2.918,2.918,0,1,1,2.919-2.918,2.916,2.916,0,0,1-2.919,2.918Zm7.77,2.968,4.6-14.152-17.772-.494-6.909,17.6h31.266v-2.956Z" fill="#97a5ff"/>
      <path id="Trazado_2193" data-name="Trazado 2193" d="M2630.819,3255.044l1.235-3.456h-18.121l-1.472,3.373" fill="#97a5ff"/>
      <line id="Línea_5" data-name="Línea 5" x2="6.286" y2="44.306" transform="translate(2646.308 3211.056)" fill="#97a5ff"/>
      <path id="Trazado_2194" data-name="Trazado 2194" d="M2590.311,3347.177h-56.621v3.317h56.621v-3.317Z" fill="#97a5ff"/>
      <path id="Trazado_2195" data-name="Trazado 2195" d="M2589.962,3349.933l5.113,42.291h-.786l-6.3-42.466,1.971.175Z" fill="#97a5ff"/>
      <path id="Trazado_2196" data-name="Trazado 2196" d="M2562.437,3349.933l5.114,42.291h-.786l-6.3-42.466,1.971.175Z" fill="#97a5ff"/>
      <path id="Trazado_2197" data-name="Trazado 2197" d="M2534.214,3349.933l-5.114,42.291h.786l6.286-42.466-1.958.175Z" fill="#97a5ff"/>
      <path id="Trazado_2198" data-name="Trazado 2198" d="M2575.932,3335.117a1.848,1.848,0,0,1-1.734-1.21c-3.841-10.514-16.662-45.609-18.146-49.475-1.746-4.539-3.492-4.539-3.492-4.539s-42.99-1.4-44.386,2.095c-1.248,3.1,19.256,53.528,23.9,64.864a3.6,3.6,0,0,0,3.343,2.245h53.328a4.37,4.37,0,0,0,4.365-4.365v-5.25a4.37,4.37,0,0,0-4.365-4.365Z" fill="#97a5ff"/>
      <path id="Trazado_2199" data-name="Trazado 2199" d="M2525.808,3347.177h-56.621v3.317h56.621v-3.317Z" fill="#97a5ff"/>
      <path id="Trazado_2200" data-name="Trazado 2200" d="M2525.459,3349.933l5.113,42.291h-.786l-6.285-42.466,1.958.175Z" fill="#97a5ff"/>
      <path id="Trazado_2201" data-name="Trazado 2201" d="M2497.935,3349.933l5.113,42.291h-.786l-6.286-42.466,1.958.175Z" fill="#97a5ff"/>
      <path id="Trazado_2202" data-name="Trazado 2202" d="M2469.711,3349.933l-5.1,42.291h.785l6.286-42.466-1.971.175Z" fill="#97a5ff"/>
      <path id="Trazado_2203" data-name="Trazado 2203" d="M2511.441,3335.117a1.848,1.848,0,0,1-1.733-1.21c-3.842-10.514-16.662-45.609-18.147-49.475-1.746-4.539-3.491-4.539-3.491-4.539s-42.99-1.4-44.386,2.095c-1.248,3.1,19.256,53.528,23.882,64.864a3.626,3.626,0,0,0,3.355,2.245h53.316a4.372,4.372,0,0,0,4.377-4.365v-5.25a4.372,4.372,0,0,0-4.377-4.365Z" fill="#97a5ff"/>
      <path id="Trazado_2204" data-name="Trazado 2204" d="M2531.57,3174.144h-63.131v71.319h63.131v-71.319Z" fill="#97a5ff"/>
      <path id="Trazado_2205" data-name="Trazado 2205" d="M2440.878,3102.453v342.6H2694.76v-342.6Zm12.283,12.284h109.2v318.032h-109.2Zm229.315,318.032h-109.2V3114.737h109.2Z" fill="#fbe7e7"/>
      <path id="Trazado_2206" data-name="Trazado 2206" d="M2658.68,3160.494a31.852,31.852,0,1,0-31.852,31.848,31.855,31.855,0,0,0,31.852-31.848Z" fill="#dc5959"/>
      <path id="Trazado_2207" data-name="Trazado 2207" d="M2632.4,3141.612h-11.15v37.764h11.15v-37.764Z" fill="#fff"/>
      <path id="Trazado_2208" data-name="Trazado 2208" d="M2645.71,3166.067V3154.92h-37.764v11.147Z" fill="#fff"/>
      <path id="Trazado_2209" data-name="Trazado 2209" d="M2540.612,3160.494a31.853,31.853,0,1,0-31.852,31.848,31.855,31.855,0,0,0,31.852-31.848Z" fill="#dc5959"/>
      <path id="Trazado_2210" data-name="Trazado 2210" d="M2514.334,3141.612h-11.15v37.764h11.15v-37.764Z" fill="#fff"/>
      <path id="Trazado_2211" data-name="Trazado 2211" d="M2527.642,3166.067V3154.92h-37.764v11.147Z" fill="#fff"/>
      <path id="Trazado_2212" data-name="Trazado 2212" d="M2454.758,3199.591l19.68,23.887,38.675-11.831,2.382,7.394s-38.338,24.683-48.116,20.133-25.03-23.613-25.03-23.613l12.409-15.97Z" fill="#fca19f"/>
      <path id="Trazado_2213" data-name="Trazado 2213" d="M2446.664,3198.022s3.754,7.166,4.1,7.735" fill="none" stroke="#f97070" stroke-linecap="round" stroke-linejoin="round" stroke-width="0.289"/>
      <path id="Trazado_2214" data-name="Trazado 2214" d="M2314.129,3423.989l18.433-27.413,10.439,5.6-19.207,28.5-9.666-6.685Z" fill="#fca19f"/>
      <path id="Trazado_2215" data-name="Trazado 2215" d="M2315.8,3421.4s-5.039,6.236-7.2,12.4l30.168,19.106s5.526-4.614-.386-10.376-11.748-15.939-11.748-15.939-9.778-1.048-10.838-5.188Z" fill="#37374f"/>
      <path id="Trazado_2216" data-name="Trazado 2216" d="M2308.591,3433.792l30.169,19.106a7.5,7.5,0,0,0,2.008-2.981l-30.755-19.5a18.18,18.18,0,0,0-1.422,3.38Z" fill="#fff"/>
      <path id="Trazado_2217" data-name="Trazado 2217" d="M2324.829,3427.743a5.073,5.073,0,0,1,1.846-.749,5.185,5.185,0,0,1,2.769.637,20.887,20.887,0,0,1,2.208,1.2,5.261,5.261,0,0,1,2.282,2.257.873.873,0,0,1-.025.936.813.813,0,0,1-.7.162,3.937,3.937,0,0,1-2.02-1.148q-2.151-1.87-4.116-3.953a11.175,11.175,0,0,1-1.347,2.769,6.221,6.221,0,0,1-2.02,2.045,2.34,2.34,0,0,1-1.185.337,1.192,1.192,0,0,1-1.035-.574,1.285,1.285,0,0,1,.05-1.185,3.186,3.186,0,0,1,.81-.923,16.968,16.968,0,0,1,2.482-1.808Z" fill="none" stroke="#fff" stroke-linecap="round" stroke-linejoin="round" stroke-width="0.392"/>
      <path id="Trazado_2218" data-name="Trazado 2218" d="M2404.111,3445.328l1.56-32.988,11.835-.623-1.659,34.322-11.736-.711Z" fill="#fca19f"/>
      <path id="Trazado_2219" data-name="Trazado 2219" d="M2404.2,3442.235s-1.072,7.957.262,14.342l35.706.711s2.332-6.8-5.7-8.68-18.32-7.533-18.32-7.533-8.892,4.165-11.948,1.16Z" fill="#37374f"/>
      <path id="Trazado_2220" data-name="Trazado 2220" d="M2404.447,3456.577l35.707.711a7.489,7.489,0,0,0,.175-3.579l-36.405-.749a18.532,18.532,0,0,0,.523,3.617Z" fill="#fff"/>
      <path id="Trazado_2221" data-name="Trazado 2221" d="M2415.211,3443a5,5,0,0,1,1.2-1.6,5.064,5.064,0,0,1,2.694-.885,18.61,18.61,0,0,1,2.507-.125,5.279,5.279,0,0,1,3.118.748c.274.187.536.487.461.811a.833.833,0,0,1-.511.511,4.073,4.073,0,0,1-2.32.063q-2.824-.505-5.575-1.247a10.951,10.951,0,0,1,.287,3.055,6.127,6.127,0,0,1-.674,2.794,2.256,2.256,0,0,1-.835.91,1.249,1.249,0,0,1-1.185.05,1.322,1.322,0,0,1-.574-1.048,3.328,3.328,0,0,1,.212-1.209,17.011,17.011,0,0,1,1.2-2.831Z" fill="none" stroke="#fff" stroke-linecap="round" stroke-linejoin="round" stroke-width="0.392"/>
      <path id="Trazado_2222" data-name="Trazado 2222" d="M2418.8,3272.111l1.147,13.881,10.127,73.408-10.339,76.9-19.119.624,3.28-74.655-9.042-61.26-3.081-.212-16.649,64.64-40.944,59.6-17.747-10.925,35.943-56.87,7.321-80.5,12.746-8.842,46.357,4.216Z" fill="#5e71c7"/>
      <path id="Trazado_2223" data-name="Trazado 2223" d="M2360.934,3289.084l15.627-16.45,17.061.2m1.235,28.173,1.235-2.469.212-25.7,15.414.411,8.232,12.746" fill="none" stroke="#d0dcff" stroke-linecap="round" stroke-linejoin="bevel" stroke-width="0.535"/>
      <path id="Trazado_2224" data-name="Trazado 2224" d="M2440.116,3184.574s7.022,4.679,10.427,6.556,16.075,23.215,17.859,23.931l-15.228,14.975s-7.471-7.032-8.356-7.135c-4.091-.475-21.924,32.373-21.924,32.373l-2.894,23.6s-17.061,7.333-60.387-2.382l6.7-34.977a96.467,96.467,0,0,1,6.224-20.14l7.171-16.553s11.212-37.431,21-35.331,28.809,10.646,28.809,10.646l10.6,4.441Z" fill="#242638"/>
      <path id="Trazado_2225" data-name="Trazado 2225" d="M2384.68,3178.813l-31.091,28.218a5.277,5.277,0,0,0-1.734,4.183c.187,3.093,1.11,8.059,5.014,10,5.862,2.9,49.749,2.163,49.749,2.163l-1.247-8.638-29.333-6.412,21.176-11.243-12.534-18.267Z" fill="#fca19f"/>
      <path id="Trazado_2226" data-name="Trazado 2226" d="M2401.492,3214.542a57.217,57.217,0,0,1,8.63-4.594c3.293-1.156,12.01-3.036,13.071-2.1s-8.444,4.057-8.107,4.97,16.026,1.064,15.988,2.326-9.453,1.858-9.453,1.858,9.74.317,9.715,1.039-10.164,1.835-10.164,1.835,9.167,1.02,8.593,2.265-12.123.869-12.123.869,6.786,2.025,6.76,2.927-21.925-2.88-21.925-2.88l-.985-8.515Z" fill="#fca19f"/>
      <path id="Trazado_2227" data-name="Trazado 2227" d="M2398.274,3169.74l-21.813,14.43,11.8,19.79,16.724-9.18-6.709-25.039Z" fill="#242638"/>
      <path id="Trazado_2228" data-name="Trazado 2228" d="M2375.763,3208.091c-9.3-2.355-8.468-2.115-12.534-2.42" fill="none" stroke="#f97070" stroke-linecap="round" stroke-linejoin="round" stroke-width="0.289"/>
      <path id="Trazado_2229" data-name="Trazado 2229" d="M2417.68,3175.42a41.266,41.266,0,0,0,5.737-1.014c3.579-1.141,11.474-11.218,11.474-11.218l13.083,10.93s-6.81,10.139-6.274,11.089-1.584,6.716-8.929,4.881-15.091-14.668-15.091-14.668Z" fill="#fca19f"/>
      <path id="Trazado_2230" data-name="Trazado 2230" d="M2435.439,3162.492s-1.1,1.478-1.708,2.119c-4.552,16.978,5.512,18.824,8.306,19.2,1.459-3.075,5.836-9.581,5.836-9.581l-12.434-11.735Z" fill="#f97070"/>
      <g id="Grupo_9758" data-name="Grupo 9758">
        <path id="SVGID" d="M2461.8,3147.193a17.584,17.584,0,0,0-6.76-5.791c-4.5-2.247-9.39-2.535-13.743.2a15.1,15.1,0,0,0-6.31,9.231,27.705,27.705,0,0,0-.749,9.117c.175,1.97.362,3.941.536,5.91.4,6.964,3.094,11.851,8.918,14.029,3.517,1.317,7.171,1.738,10.2-.813,5.014-4.22,8.244-14.382,9.6-21.022.786-3.836.524-7.529-1.7-10.86Z" fill="#fca19f"/>
      </g>
      <path id="Trazado_2231" data-name="Trazado 2231" d="M2448.547,3169.332a1.673,1.673,0,0,1,1.235-.187,5.425,5.425,0,0,0,.561.028,2.593,2.593,0,0,0,1.409-.439l.237-.227a.884.884,0,0,0,.05-.725c-.437-1.959-.885-3.986-.349-5.884l-.362-.1c-.548,1.986-.087,4.056.362,6.059a.68.68,0,0,1,0,.446l-.137.126a2.28,2.28,0,0,1-1.21.378c-.175,0-.349-.011-.536-.026a1.944,1.944,0,0,0-1.5.271l.237.276Z" fill="#242638"/>
      <path id="Trazado_2232" data-name="Trazado 2232" d="M2435.726,3159.745s4.964-3.182,7.87-11.705c0,0,4.153-.121,6.585.906s4.714,4.072,9.753,5.368a9.374,9.374,0,0,0,8.343-1.737,15.6,15.6,0,0,1-1.584-.469,32.154,32.154,0,0,0,4.627-3.7s-1.3-.135-5.862-2.3a10,10,0,0,0,2.969-1.961,27.408,27.408,0,0,1-8.718-2.627c-4.627-2.267-10.7-5.15-14.367-3.981s-3.929,1.55-3.929,1.55,2.108-3.234,3.7-3.565c0,0-3.766.436-4.988,3.7a26.57,26.57,0,0,0-3.056-.287c-1.06.01,2.283.9,2.283.9s-8.506,7.223-5.5,21.834l1.871-1.937Z" fill="#242638"/>
      <path id="Trazado_2233" data-name="Trazado 2233" d="M2437.123,3158.579s-1.671-2.715-3.517-2.131-3.354,5.027,1.372,7.106a8.55,8.55,0,0,0,2.145-4.975Z" fill="#fd9997"/>
      <path id="Trazado_2234" data-name="Trazado 2234" d="M2461.343,3164.319s2.432-1.042,3.055.344-1.159,5.3-4.8,4.283a9.571,9.571,0,0,1,1.746-4.627Z" fill="#fc9e9c"/>
      <path id="Trazado_2235" data-name="Trazado 2235" d="M2441.413,3139.094s3.38-3.2,7.571-3.485,11.174,3.111,14.3,2.92a13.565,13.565,0,0,1-7.744,1.913,51.807,51.807,0,0,0-8.88.529l-5.251-1.877Z" fill="#242638"/>
      <path id="Trazado_2236" data-name="Trazado 2236" d="M2462.69,3154.251a87.54,87.54,0,0,1-.774,9.893s3.493-8.61,2.956-11.37-2.182,1.477-2.182,1.477Z" fill="#242638"/>
      <path id="Trazado_2237" data-name="Trazado 2237" d="M2460.944,3160.369c.7-.547-.848-1.077-1.846-1.306s-2.644-1.813-3.429-2.121-1.809,1.105-.7,2,4.1,2.878,5.974,1.424Z" fill="#242638"/>
      <path id="Trazado_2238" data-name="Trazado 2238" d="M2442.972,3155.417c-.361-.817,1.247-.542,2.233-.262s3.192-.319,4.028-.216,1.06,1.843-.349,2.1-4.989.55-5.912-1.618Z" fill="#242638"/>
      <path id="Trazado_2239" data-name="Trazado 2239" d="M2445.853,3151.286a6.66,6.66,0,0,0-.3-2.164,5.866,5.866,0,0,0-1.123,1.877.73.73,0,0,0,.575.855.719.719,0,0,0,.847-.568Z" fill="#ebf1ff"/>
      <path id="Trazado_2240" data-name="Trazado 2240" d="M2461.53,3157.477a6.731,6.731,0,0,0-.262-1.9,4.791,4.791,0,0,0-.985,1.647.63.63,0,0,0,.5.75.643.643,0,0,0,.749-.5Z" fill="#ebf1ff"/>
      <path id="Trazado_2241" data-name="Trazado 2241" d="M2437.735,3165.08a5.209,5.209,0,0,0-.225-1.571,4.164,4.164,0,0,0-.811,1.362.521.521,0,0,0,.412.62.532.532,0,0,0,.624-.411Z" fill="#ebf1ff"/>
      <path id="Trazado_2242" data-name="Trazado 2242" d="M2440.915,3157.386a4.406,4.406,0,0,0-.175-1.231,3.31,3.31,0,0,0-.636,1.068.407.407,0,0,0,.324.485.414.414,0,0,0,.487-.322Z" fill="#ebf1ff"/>
      <path id="Trazado_2243" data-name="Trazado 2243" d="M2513.76,3220.021s5.937-2.95,8.868-5.739,7.87-7.968,7.2-8.666-7.308,4.043-7.308,4.043,4.327-8.614,5.263-9.133,5.151-3.785,4.34-4.25-7.595,4.385-7.595,4.385l-1.671,1.558s5.574-7.477,5.013-8.038-4.427,3.867-4.427,3.867,2.644-4.689,1.659-4.8-6.112,7.916-6.112,7.916,3.031-6.017,1.933-6.14-8.268,16.623-8.268,16.623l-2.295.889,3.4,7.485Z" fill="#fca19f"/>
      <path id="Trazado_2244" data-name="Trazado 2244" d="M2443.87,3160c.4-1.412,1.322-2.387,2.046-2.178s.985,1.523.574,2.935-1.322,2.387-2.046,2.179-.985-1.524-.574-2.936Z" fill="#242638"/>
      <path id="Trazado_2245" data-name="Trazado 2245" d="M2455.469,3163.014c.411-1.412,1.322-2.387,2.045-2.179s.985,1.524.587,2.936-1.335,2.387-2.059,2.178-.985-1.523-.573-2.935Z" fill="#242638"/>
      <path id="Trazado_2246" data-name="Trazado 2246" d="M2450.468,3174.257s-2-4.151-8.531-3.127" fill="none" stroke="#242638" stroke-linecap="round" stroke-linejoin="round" stroke-width="0.274"/>
      <path id="Trazado_2247" data-name="Trazado 2247" d="M2737.2,3420.859h-.823l1.908-148.736.823.012-1.908,148.723Z" fill="#82a64e"/>
      <path id="Trazado_2248" data-name="Trazado 2248" d="M2739.3,3245.06c3.293.647,4.715,4.522,5.226,7.834a54.617,54.617,0,0,1-4,30.416c-.6,1.347-1.909,2.918-3.231,2.257a2.8,2.8,0,0,1-1.147-1.833,97.789,97.789,0,0,1-4.191-27.814,15.7,15.7,0,0,1,1.235-7.367c1.16-2.236,3.642-3.979,6.111-3.493Z" fill="#82a64e"/>
      <path id="Trazado_2249" data-name="Trazado 2249" d="M2746.817,3289.171c.785-2.481,1.521-5.075,3.18-7.071s4.527-3.28,6.921-2.257a5.943,5.943,0,0,1,3.218,4.714,13.838,13.838,0,0,1-.761,5.862,44.26,44.26,0,0,1-12.421,19.63c-2.12,1.933-4.827,3.754-7.633,3.168a1.277,1.277,0,0,1-.773-.412,1.261,1.261,0,0,1-.187-.636c-.163-2.17.86-4.228,1.8-6.173a124.155,124.155,0,0,0,6.66-16.825Z" fill="#82a64e"/>
      <path id="Trazado_2250" data-name="Trazado 2250" d="M2738.236,3303.751a2.21,2.21,0,0,0,.449-1.148,10.462,10.462,0,0,0-.935-5.375,37.674,37.674,0,0,0-3.779-6.747,80.976,80.976,0,0,0-5.862-7.657,13.093,13.093,0,0,0-3.33-2.994,4.961,4.961,0,0,0-4.3-.424,4.881,4.881,0,0,0-2.631,4.415,11.607,11.607,0,0,0,1.4,5.188,32.373,32.373,0,0,0,11.536,13.482c1.884,1.21,4.1,2.208,6.3,1.8a2.083,2.083,0,0,0,1.16-.536Z" fill="#82a64e"/>
      <path id="Trazado_2251" data-name="Trazado 2251" d="M2728.932,3315.848a3.457,3.457,0,0,0-1.521,2.794,8.769,8.769,0,0,0,.6,3.23,39.581,39.581,0,0,0,7.37,12.983c.474.548,1.185,1.135,1.821.81a1.5,1.5,0,0,0,.686-.985c1.758-5.15-.15-10.85-2.906-15.54a8.738,8.738,0,0,0-2.432-2.943,3.471,3.471,0,0,0-3.617-.349Z" fill="#82a64e"/>
      <path id="Trazado_2252" data-name="Trazado 2252" d="M2745.919,3345.269a2.453,2.453,0,0,1,1.534,1.982,5.086,5.086,0,0,1-.362,2.57,18.692,18.692,0,0,1-5.712,7.37,4.659,4.659,0,0,1-2.033,1.21,1.77,1.77,0,0,1-2.033-.873,2.584,2.584,0,0,1,.175-1.821c1.222-3.579,2.594-7.37,5.612-9.64a3.252,3.252,0,0,1,2.819-.8Z" fill="#82a64e"/>
      <path id="Trazado_2253" data-name="Trazado 2253" d="M2725.378,3335.416a2.419,2.419,0,0,1,1.534,1.97,5.11,5.11,0,0,1-.362,2.582,18.767,18.767,0,0,1-5.712,7.358,4.81,4.81,0,0,1-2.033,1.223,1.8,1.8,0,0,1-2.032-.874,2.618,2.618,0,0,1,.174-1.833c1.223-3.567,2.594-7.371,5.612-9.64a3.235,3.235,0,0,1,2.819-.786Z" fill="#82a64e"/>
      <path id="Trazado_2254" data-name="Trazado 2254" d="M2734.408,3366.557c-.712-1.5-1.759-3.142-3.405-3.28a3.272,3.272,0,0,0-3.006,1.934,6.983,6.983,0,0,0-.449,3.716,16.99,16.99,0,0,0,6.3,11.524,2.266,2.266,0,0,0,2.258.623,2.212,2.212,0,0,0,.96-1.8c.636-4.352-.761-8.755-2.656-12.721Z" fill="#82a64e"/>
      <path id="Trazado_2255" data-name="Trazado 2255" d="M2802.016,3282.063a35.434,35.434,0,0,1-6.685,9.541,84.114,84.114,0,0,1-11.524,10.451,2.33,2.33,0,0,1-2.082.673c-1-.362-1.023-1.758-.824-2.806a51.005,51.005,0,0,1,10.427-22.549,13.231,13.231,0,0,1,4.465-3.9,5.36,5.36,0,0,1,5.636.449c2.22,1.9,1.772,5.475.587,8.144Z" fill="#82a64e"/>
      <path id="Trazado_2256" data-name="Trazado 2256" d="M2773.132,3313.6a3.2,3.2,0,0,0,1.234-2.02q2.526-8.643,4.789-17.373a16.409,16.409,0,0,0,.736-5.088,5.5,5.5,0,0,0-2.357-4.365c-2.382-1.447-5.562-.1-7.433,1.958a15.163,15.163,0,0,0-3.617,8.817,35.322,35.322,0,0,0,.661,9.641c.487,2.668,1.135,5.462,2.981,7.458.773.835,2.007,1.521,3.006.972Z" fill="#82a64e"/>
      <path id="Trazado_2257" data-name="Trazado 2257" d="M2793.51,3313.479c-5.113,3.691-11.436,5.4-17.722,5.849-1.359.1-2.731.137-4.091.112a2.684,2.684,0,0,1-1.471-.349,1.85,1.85,0,0,1-.524-2.071,5.252,5.252,0,0,1,1.284-1.858c5.326-5.687,11.686-11.174,19.419-12.085,2.431-.287,5.325.137,6.547,2.245a4.946,4.946,0,0,1-.112,4.664,10.724,10.724,0,0,1-3.33,3.493Z" fill="#82a64e"/>
      <path id="Trazado_2258" data-name="Trazado 2258" d="M2757.243,3315.823a3.845,3.845,0,0,0-3.754,1.933,9.3,9.3,0,0,0-1.1,4.3,32.492,32.492,0,0,0,1.173,11.012c.636,2.208,1.584,4.465,3.417,5.849a1.429,1.429,0,0,0,.711.325,1.389,1.389,0,0,0,1.134-.711,9.145,9.145,0,0,0,1.285-3.754c.437-2.444.774-4.914,1.023-7.383.3-3.056.424-6.286-.96-9.017a4.458,4.458,0,0,0-2.931-2.557Z" fill="#82a64e"/>
      <path id="Trazado_2259" data-name="Trazado 2259" d="M2771.361,3338.721a3.916,3.916,0,0,1,2.706,1.135,3.843,3.843,0,0,1,.648,3.542,11.146,11.146,0,0,1-3.828,5.325c-4.615,3.929-12.073,8.992-18.483,8.256-1.609-.174,5.051-10.613,5.812-11.411,3.167-3.305,7.146-6.373,11.86-6.822a8.892,8.892,0,0,1,1.285-.025Z" fill="#82a64e"/>
      <path id="Trazado_2260" data-name="Trazado 2260" d="M2758.951,3363.577c3.867-.961,5.513,2.294,4.1,5.624-2.108,4.939-8.307,9.841-13.108,11.923-1.846.8-4.652.512-4.116-2.182.761-3.792,4.777-8.9,7.333-11.686a11.782,11.782,0,0,1,5.787-3.679Z" fill="#82a64e"/>
      <path id="Trazado_2261" data-name="Trazado 2261" d="M2749.809,3390.989a1.59,1.59,0,0,1,.7-.187c.761.013,1.172.923,1.16,1.684-.025,2.132-1.8,3.779-3.442,5.151-1.322,1.1-2.819,2.257-4.527,2.157a.733.733,0,0,1-.574-.237.712.712,0,0,1-.012-.6,12.055,12.055,0,0,1,6.7-7.97Z" fill="#82a64e"/>
      <path id="Trazado_2262" data-name="Trazado 2262" d="M2741.03,3422.031l-.823-.025c1.284-42.3,13.407-74.306,23.359-93.686,10.8-21.027,21.438-32.189,21.538-32.3l.6.574c-.112.1-10.688,11.212-21.414,32.127-9.915,19.318-21.987,51.171-23.259,93.312Z" fill="#82a64e"/>
      <path id="Trazado_2263" data-name="Trazado 2263" d="M2680.942,3301.518a35.83,35.83,0,0,0,7.882,8.581,85.852,85.852,0,0,0,12.8,8.854,2.353,2.353,0,0,0,2.145.4c.948-.5.785-1.884.461-2.906a51.127,51.127,0,0,0-13.294-20.99,13.218,13.218,0,0,0-4.927-3.267,5.354,5.354,0,0,0-5.537,1.172c-1.958,2.17-1.035,5.662.474,8.156Z" fill="#82a64e"/>
      <path id="Trazado_2264" data-name="Trazado 2264" d="M2701.744,3319.1a3.086,3.086,0,0,1-.686-2.257q-.318-9.018-.336-18.021a15.983,15.983,0,0,1,.549-5.114,5.5,5.5,0,0,1,3.367-3.642c2.656-.81,5.413,1.285,6.709,3.742a15.233,15.233,0,0,1,1.322,9.441,34.821,34.821,0,0,1-3.043,9.166c-1.122,2.47-2.444,5.014-4.726,6.486-.948.623-2.32.985-3.156.2Z" fill="#82a64e"/>
      <path id="Trazado_2265" data-name="Trazado 2265" d="M2714.89,3315.823a3.834,3.834,0,0,1,3.753,1.933,9.145,9.145,0,0,1,1.1,4.3,32.2,32.2,0,0,1-1.173,11.012c-.636,2.208-1.583,4.465-3.416,5.849a1.129,1.129,0,0,1-1.846-.386,9.148,9.148,0,0,1-1.285-3.754c-.437-2.444-.773-4.914-1.01-7.383-.3-3.056-.424-6.286.96-9.017a4.41,4.41,0,0,1,2.919-2.557Z" fill="#82a64e"/>
      <path id="Trazado_2266" data-name="Trazado 2266" d="M2700.772,3338.721a3.964,3.964,0,0,0-2.707,1.135,3.847,3.847,0,0,0-.648,3.542,11.145,11.145,0,0,0,3.829,5.325c4.614,3.929,12.072,8.992,18.483,8.256,1.608-.174-5.051-10.613-5.812-11.411-3.168-3.305-7.147-6.373-11.861-6.822a8.806,8.806,0,0,0-1.284-.025Z" fill="#82a64e"/>
      <path id="Trazado_2267" data-name="Trazado 2267" d="M2717.3,3384.666c-3.878-.96-5.524,2.295-4.1,5.625,2.108,4.938,8.306,9.84,13.107,11.923,1.847.8,4.653.511,4.1-2.183-.748-3.791-4.764-8.892-7.321-11.686a11.781,11.781,0,0,0-5.787-3.679Z" fill="#82a64e"/>
      <path id="Trazado_2268" data-name="Trazado 2268" d="M2718.494,3364.7a1.789,1.789,0,0,0-.711-.2c-.748.012-1.16.922-1.16,1.683.037,2.146,1.808,3.792,3.454,5.151,1.31,1.11,2.807,2.27,4.528,2.17a.689.689,0,0,0,.561-.237.741.741,0,0,0,.025-.611,12.093,12.093,0,0,0-6.7-7.957Z" fill="#82a64e"/>
      <path id="Trazado_2269" data-name="Trazado 2269" d="M2731.1,3422.031c-1.272-42.141-13.344-73.994-23.246-93.312-10.738-20.915-21.315-32.027-21.414-32.127l.586-.574c.112.113,10.751,11.275,21.538,32.3,9.953,19.38,22.087,51.383,23.359,93.686l-.823.025Z" fill="#82a64e"/>
      <path id="Trazado_2270" data-name="Trazado 2270" d="M2753.9,3416.481h-36.978l5.761,35.332h25.467l5.75-35.332Z" fill="#5e71c7"/>
    </g>
  </g>
</svg>
